%TF.GenerationSoftware,KiCad,Pcbnew,9.0.2*%
%TF.CreationDate,2025-07-08T13:29:16-05:00*%
%TF.ProjectId,3PDT Footswitch,33504454-2046-46f6-9f74-737769746368,rev?*%
%TF.SameCoordinates,Original*%
%TF.FileFunction,Legend,Top*%
%TF.FilePolarity,Positive*%
%FSLAX46Y46*%
G04 Gerber Fmt 4.6, Leading zero omitted, Abs format (unit mm)*
G04 Created by KiCad (PCBNEW 9.0.2) date 2025-07-08 13:29:16*
%MOMM*%
%LPD*%
G01*
G04 APERTURE LIST*
%ADD10C,0.152400*%
%ADD11C,0.150000*%
%ADD12C,0.200000*%
%ADD13C,0.254000*%
G04 APERTURE END LIST*
D10*
X36364333Y26498243D02*
X36296600Y26532110D01*
X36296600Y26532110D02*
X36195000Y26532110D01*
X36195000Y26532110D02*
X36093400Y26498243D01*
X36093400Y26498243D02*
X36025667Y26430510D01*
X36025667Y26430510D02*
X35991800Y26362777D01*
X35991800Y26362777D02*
X35957933Y26227310D01*
X35957933Y26227310D02*
X35957933Y26125710D01*
X35957933Y26125710D02*
X35991800Y25990243D01*
X35991800Y25990243D02*
X36025667Y25922510D01*
X36025667Y25922510D02*
X36093400Y25854777D01*
X36093400Y25854777D02*
X36195000Y25820910D01*
X36195000Y25820910D02*
X36262733Y25820910D01*
X36262733Y25820910D02*
X36364333Y25854777D01*
X36364333Y25854777D02*
X36398200Y25888643D01*
X36398200Y25888643D02*
X36398200Y26125710D01*
X36398200Y26125710D02*
X36262733Y26125710D01*
X36703000Y25820910D02*
X36703000Y26532110D01*
X36703000Y26532110D02*
X37109400Y25820910D01*
X37109400Y25820910D02*
X37109400Y26532110D01*
X37448067Y25820910D02*
X37448067Y26532110D01*
X37448067Y26532110D02*
X37617400Y26532110D01*
X37617400Y26532110D02*
X37719000Y26498243D01*
X37719000Y26498243D02*
X37786734Y26430510D01*
X37786734Y26430510D02*
X37820600Y26362777D01*
X37820600Y26362777D02*
X37854467Y26227310D01*
X37854467Y26227310D02*
X37854467Y26125710D01*
X37854467Y26125710D02*
X37820600Y25990243D01*
X37820600Y25990243D02*
X37786734Y25922510D01*
X37786734Y25922510D02*
X37719000Y25854777D01*
X37719000Y25854777D02*
X37617400Y25820910D01*
X37617400Y25820910D02*
X37448067Y25820910D01*
X36533666Y23320910D02*
X36533666Y24032110D01*
X36872333Y23320910D02*
X36872333Y24032110D01*
X36872333Y24032110D02*
X37278733Y23320910D01*
X37278733Y23320910D02*
X37278733Y24032110D01*
X36364333Y28998243D02*
X36296600Y29032110D01*
X36296600Y29032110D02*
X36195000Y29032110D01*
X36195000Y29032110D02*
X36093400Y28998243D01*
X36093400Y28998243D02*
X36025667Y28930510D01*
X36025667Y28930510D02*
X35991800Y28862777D01*
X35991800Y28862777D02*
X35957933Y28727310D01*
X35957933Y28727310D02*
X35957933Y28625710D01*
X35957933Y28625710D02*
X35991800Y28490243D01*
X35991800Y28490243D02*
X36025667Y28422510D01*
X36025667Y28422510D02*
X36093400Y28354777D01*
X36093400Y28354777D02*
X36195000Y28320910D01*
X36195000Y28320910D02*
X36262733Y28320910D01*
X36262733Y28320910D02*
X36364333Y28354777D01*
X36364333Y28354777D02*
X36398200Y28388643D01*
X36398200Y28388643D02*
X36398200Y28625710D01*
X36398200Y28625710D02*
X36262733Y28625710D01*
X36703000Y28320910D02*
X36703000Y29032110D01*
X36703000Y29032110D02*
X37109400Y28320910D01*
X37109400Y28320910D02*
X37109400Y29032110D01*
X37448067Y28320910D02*
X37448067Y29032110D01*
X37448067Y29032110D02*
X37617400Y29032110D01*
X37617400Y29032110D02*
X37719000Y28998243D01*
X37719000Y28998243D02*
X37786734Y28930510D01*
X37786734Y28930510D02*
X37820600Y28862777D01*
X37820600Y28862777D02*
X37854467Y28727310D01*
X37854467Y28727310D02*
X37854467Y28625710D01*
X37854467Y28625710D02*
X37820600Y28490243D01*
X37820600Y28490243D02*
X37786734Y28422510D01*
X37786734Y28422510D02*
X37719000Y28354777D01*
X37719000Y28354777D02*
X37617400Y28320910D01*
X37617400Y28320910D02*
X37448067Y28320910D01*
X13673667Y23320910D02*
X13335000Y23320910D01*
X13335000Y23320910D02*
X13335000Y24032110D01*
X13910733Y23591843D02*
X14452600Y23591843D01*
X14181666Y23320910D02*
X14181666Y23862777D01*
X13521266Y30820910D02*
X13284199Y31159577D01*
X13114866Y30820910D02*
X13114866Y31532110D01*
X13114866Y31532110D02*
X13385799Y31532110D01*
X13385799Y31532110D02*
X13453533Y31498243D01*
X13453533Y31498243D02*
X13487399Y31464377D01*
X13487399Y31464377D02*
X13521266Y31396643D01*
X13521266Y31396643D02*
X13521266Y31295043D01*
X13521266Y31295043D02*
X13487399Y31227310D01*
X13487399Y31227310D02*
X13453533Y31193443D01*
X13453533Y31193443D02*
X13385799Y31159577D01*
X13385799Y31159577D02*
X13114866Y31159577D01*
X13826066Y31193443D02*
X14063133Y31193443D01*
X14164733Y30820910D02*
X13826066Y30820910D01*
X13826066Y30820910D02*
X13826066Y31532110D01*
X13826066Y31532110D02*
X14164733Y31532110D01*
X14367933Y31532110D02*
X14774333Y31532110D01*
X14571133Y30820910D02*
X14571133Y31532110D01*
X35974866Y30854777D02*
X36076466Y30820910D01*
X36076466Y30820910D02*
X36245800Y30820910D01*
X36245800Y30820910D02*
X36313533Y30854777D01*
X36313533Y30854777D02*
X36347400Y30888643D01*
X36347400Y30888643D02*
X36381266Y30956377D01*
X36381266Y30956377D02*
X36381266Y31024110D01*
X36381266Y31024110D02*
X36347400Y31091843D01*
X36347400Y31091843D02*
X36313533Y31125710D01*
X36313533Y31125710D02*
X36245800Y31159577D01*
X36245800Y31159577D02*
X36110333Y31193443D01*
X36110333Y31193443D02*
X36042600Y31227310D01*
X36042600Y31227310D02*
X36008733Y31261177D01*
X36008733Y31261177D02*
X35974866Y31328910D01*
X35974866Y31328910D02*
X35974866Y31396643D01*
X35974866Y31396643D02*
X36008733Y31464377D01*
X36008733Y31464377D02*
X36042600Y31498243D01*
X36042600Y31498243D02*
X36110333Y31532110D01*
X36110333Y31532110D02*
X36279666Y31532110D01*
X36279666Y31532110D02*
X36381266Y31498243D01*
X36686066Y30820910D02*
X36686066Y31532110D01*
X36686066Y31532110D02*
X37092466Y30820910D01*
X37092466Y30820910D02*
X37092466Y31532110D01*
X37431133Y30820910D02*
X37431133Y31532110D01*
X37431133Y31532110D02*
X37600466Y31532110D01*
X37600466Y31532110D02*
X37702066Y31498243D01*
X37702066Y31498243D02*
X37769800Y31430510D01*
X37769800Y31430510D02*
X37803666Y31362777D01*
X37803666Y31362777D02*
X37837533Y31227310D01*
X37837533Y31227310D02*
X37837533Y31125710D01*
X37837533Y31125710D02*
X37803666Y30990243D01*
X37803666Y30990243D02*
X37769800Y30922510D01*
X37769800Y30922510D02*
X37702066Y30854777D01*
X37702066Y30854777D02*
X37600466Y30820910D01*
X37600466Y30820910D02*
X37431133Y30820910D01*
X13182600Y29032110D02*
X13318066Y29032110D01*
X13318066Y29032110D02*
X13385800Y28998243D01*
X13385800Y28998243D02*
X13453533Y28930510D01*
X13453533Y28930510D02*
X13487400Y28795043D01*
X13487400Y28795043D02*
X13487400Y28557977D01*
X13487400Y28557977D02*
X13453533Y28422510D01*
X13453533Y28422510D02*
X13385800Y28354777D01*
X13385800Y28354777D02*
X13318066Y28320910D01*
X13318066Y28320910D02*
X13182600Y28320910D01*
X13182600Y28320910D02*
X13114866Y28354777D01*
X13114866Y28354777D02*
X13047133Y28422510D01*
X13047133Y28422510D02*
X13013266Y28557977D01*
X13013266Y28557977D02*
X13013266Y28795043D01*
X13013266Y28795043D02*
X13047133Y28930510D01*
X13047133Y28930510D02*
X13114866Y28998243D01*
X13114866Y28998243D02*
X13182600Y29032110D01*
X13792200Y29032110D02*
X13792200Y28456377D01*
X13792200Y28456377D02*
X13826067Y28388643D01*
X13826067Y28388643D02*
X13859933Y28354777D01*
X13859933Y28354777D02*
X13927667Y28320910D01*
X13927667Y28320910D02*
X14063133Y28320910D01*
X14063133Y28320910D02*
X14130867Y28354777D01*
X14130867Y28354777D02*
X14164733Y28388643D01*
X14164733Y28388643D02*
X14198600Y28456377D01*
X14198600Y28456377D02*
X14198600Y29032110D01*
X14435667Y29032110D02*
X14842067Y29032110D01*
X14638867Y28320910D02*
X14638867Y29032110D01*
X13673667Y25820910D02*
X13335000Y25820910D01*
X13335000Y25820910D02*
X13335000Y26532110D01*
X13910733Y26091843D02*
X14452600Y26091843D01*
D11*
X11299866Y22490780D02*
X11299866Y21776495D01*
X11299866Y21776495D02*
X11252247Y21633638D01*
X11252247Y21633638D02*
X11157009Y21538400D01*
X11157009Y21538400D02*
X11014152Y21490780D01*
X11014152Y21490780D02*
X10918914Y21490780D01*
X11728438Y22395542D02*
X11776057Y22443161D01*
X11776057Y22443161D02*
X11871295Y22490780D01*
X11871295Y22490780D02*
X12109390Y22490780D01*
X12109390Y22490780D02*
X12204628Y22443161D01*
X12204628Y22443161D02*
X12252247Y22395542D01*
X12252247Y22395542D02*
X12299866Y22300304D01*
X12299866Y22300304D02*
X12299866Y22205066D01*
X12299866Y22205066D02*
X12252247Y22062209D01*
X12252247Y22062209D02*
X11680819Y21490780D01*
X11680819Y21490780D02*
X12299866Y21490780D01*
X38757266Y33412780D02*
X38757266Y32698495D01*
X38757266Y32698495D02*
X38709647Y32555638D01*
X38709647Y32555638D02*
X38614409Y32460400D01*
X38614409Y32460400D02*
X38471552Y32412780D01*
X38471552Y32412780D02*
X38376314Y32412780D01*
X39757266Y32412780D02*
X39185838Y32412780D01*
X39471552Y32412780D02*
X39471552Y33412780D01*
X39471552Y33412780D02*
X39376314Y33269923D01*
X39376314Y33269923D02*
X39281076Y33174685D01*
X39281076Y33174685D02*
X39185838Y33127066D01*
D10*
X16315267Y17704613D02*
X16431381Y17665908D01*
X16431381Y17665908D02*
X16624905Y17665908D01*
X16624905Y17665908D02*
X16702314Y17704613D01*
X16702314Y17704613D02*
X16741019Y17743317D01*
X16741019Y17743317D02*
X16779724Y17820727D01*
X16779724Y17820727D02*
X16779724Y17898136D01*
X16779724Y17898136D02*
X16741019Y17975546D01*
X16741019Y17975546D02*
X16702314Y18014251D01*
X16702314Y18014251D02*
X16624905Y18052955D01*
X16624905Y18052955D02*
X16470086Y18091660D01*
X16470086Y18091660D02*
X16392676Y18130365D01*
X16392676Y18130365D02*
X16353971Y18169070D01*
X16353971Y18169070D02*
X16315267Y18246479D01*
X16315267Y18246479D02*
X16315267Y18323889D01*
X16315267Y18323889D02*
X16353971Y18401298D01*
X16353971Y18401298D02*
X16392676Y18440003D01*
X16392676Y18440003D02*
X16470086Y18478708D01*
X16470086Y18478708D02*
X16663609Y18478708D01*
X16663609Y18478708D02*
X16779724Y18440003D01*
X17050657Y18478708D02*
X17244181Y17665908D01*
X17244181Y17665908D02*
X17399000Y18246479D01*
X17399000Y18246479D02*
X17553819Y17665908D01*
X17553819Y17665908D02*
X17747343Y18478708D01*
X18482733Y17665908D02*
X18018276Y17665908D01*
X18250504Y17665908D02*
X18250504Y18478708D01*
X18250504Y18478708D02*
X18173095Y18362593D01*
X18173095Y18362593D02*
X18095685Y18285184D01*
X18095685Y18285184D02*
X18018276Y18246479D01*
D12*
%TO.C,J2*%
X9334000Y21232000D02*
X9334000Y33632000D01*
X15084000Y33632000D02*
X9334000Y33632000D01*
X15084000Y21232000D02*
X9384000Y21232000D01*
X15084000Y21232000D02*
X15084000Y33632000D01*
%TO.C,J1*%
X35716000Y33632000D02*
X35716000Y21232000D01*
X35716000Y33632000D02*
X41416000Y33632000D01*
X35716000Y21232000D02*
X41466000Y21232000D01*
X41466000Y33632000D02*
X41466000Y21232000D01*
D13*
%TO.C,SW1*%
X15600000Y33900000D02*
X35200000Y33900000D01*
X15600000Y16900000D02*
X15600000Y33900000D01*
X15600000Y16900000D02*
X35200000Y16900000D01*
X35200000Y16900000D02*
X35200000Y33900000D01*
%TD*%
M02*
