%TF.GenerationSoftware,KiCad,Pcbnew,9.0.2*%
%TF.CreationDate,2025-07-08T13:29:16-05:00*%
%TF.ProjectId,3PDT Footswitch,33504454-2046-46f6-9f74-737769746368,rev?*%
%TF.SameCoordinates,Original*%
%TF.FileFunction,Copper,L1,Top*%
%TF.FilePolarity,Positive*%
%FSLAX46Y46*%
G04 Gerber Fmt 4.6, Leading zero omitted, Abs format (unit mm)*
G04 Created by KiCad (PCBNEW 9.0.2) date 2025-07-08 13:29:16*
%MOMM*%
%LPD*%
G01*
G04 APERTURE LIST*
G04 Aperture macros list*
%AMRoundRect*
0 Rectangle with rounded corners*
0 $1 Rounding radius*
0 $2 $3 $4 $5 $6 $7 $8 $9 X,Y pos of 4 corners*
0 Add a 4 corners polygon primitive as box body*
4,1,4,$2,$3,$4,$5,$6,$7,$8,$9,$2,$3,0*
0 Add four circle primitives for the rounded corners*
1,1,$1+$1,$2,$3*
1,1,$1+$1,$4,$5*
1,1,$1+$1,$6,$7*
1,1,$1+$1,$8,$9*
0 Add four rect primitives between the rounded corners*
20,1,$1+$1,$2,$3,$4,$5,0*
20,1,$1+$1,$4,$5,$6,$7,0*
20,1,$1+$1,$6,$7,$8,$9,0*
20,1,$1+$1,$8,$9,$2,$3,0*%
G04 Aperture macros list end*
%TA.AperFunction,ComponentPad*%
%ADD10RoundRect,0.500000X0.500000X-0.500000X0.500000X0.500000X-0.500000X0.500000X-0.500000X-0.500000X0*%
%TD*%
%TA.AperFunction,ComponentPad*%
%ADD11C,2.000000*%
%TD*%
%TA.AperFunction,ComponentPad*%
%ADD12RoundRect,0.500000X-0.500000X0.500000X-0.500000X-0.500000X0.500000X-0.500000X0.500000X0.500000X0*%
%TD*%
%TA.AperFunction,ComponentPad*%
%ADD13C,3.500000*%
%TD*%
%TA.AperFunction,ViaPad*%
%ADD14C,0.609600*%
%TD*%
%TA.AperFunction,Conductor*%
%ADD15C,0.406400*%
%TD*%
G04 APERTURE END LIST*
D10*
%TO.P,J2,1,1*%
%TO.N,/LED+*%
X11684000Y23722000D03*
D11*
%TO.P,J2,2,2*%
%TO.N,/LED-*%
X11684000Y26222000D03*
%TO.P,J2,3,3*%
%TO.N,/OUT*%
X11684000Y28722000D03*
%TO.P,J2,4,4*%
%TO.N,/RETURN*%
X11684000Y31222000D03*
%TD*%
D12*
%TO.P,J1,1,1*%
%TO.N,/SEND*%
X39116000Y31142000D03*
D11*
%TO.P,J1,2,2*%
%TO.N,GND*%
X39116000Y28642000D03*
%TO.P,J1,3,3*%
X39116000Y26142000D03*
%TO.P,J1,4,4*%
%TO.N,/IN*%
X39116000Y23642000D03*
%TD*%
D13*
%TO.P,SW1,1,1*%
%TO.N,unconnected-(SW1-Pad1)*%
X20100000Y20600000D03*
%TO.P,SW1,2,2*%
%TO.N,/LED+*%
X20100000Y25400000D03*
%TO.P,SW1,3,3*%
%TO.N,/LED-*%
X20100000Y30200000D03*
%TO.P,SW1,4,4*%
%TO.N,/IN*%
X25400000Y20600000D03*
%TO.P,SW1,5,5*%
%TO.N,/OUT*%
X25400000Y25400000D03*
%TO.P,SW1,6,6*%
%TO.N,/RETURN*%
X25400000Y30200000D03*
%TO.P,SW1,7,7*%
%TO.N,GND*%
X30700000Y20600000D03*
%TO.P,SW1,8,8*%
%TO.N,/SEND*%
X30700000Y25400000D03*
%TO.P,SW1,9,9*%
%TO.N,/IN*%
X30700000Y30200000D03*
%TD*%
D14*
%TO.N,GND*%
X28117800Y32410400D03*
X36118800Y25196800D03*
X33959800Y32512000D03*
X22783800Y23215600D03*
X17068800Y22910800D03*
X15341600Y30911800D03*
%TD*%
D15*
%TO.N,/OUT*%
X16055500Y28722000D02*
X11684000Y28722000D01*
X25400000Y25400000D02*
X22987000Y27813000D01*
X22987000Y27813000D02*
X16964500Y27813000D01*
X16964500Y27813000D02*
X16055500Y28722000D01*
%TO.N,/SEND*%
X36425200Y31142000D02*
X39116000Y31142000D01*
X30700000Y25400000D02*
X30700000Y25416800D01*
X30700000Y25416800D02*
X36425200Y31142000D01*
%TO.N,/RETURN*%
X25400000Y30200000D02*
X22530200Y33069800D01*
X13531800Y33069800D02*
X11684000Y31222000D01*
X22530200Y33069800D02*
X13531800Y33069800D01*
%TO.N,/IN*%
X38461000Y22987000D02*
X28067000Y22987000D01*
X39116000Y23642000D02*
X38461000Y22987000D01*
X28067000Y22987000D02*
X28042600Y22962600D01*
X25680000Y20600000D02*
X25400000Y20600000D01*
X30700000Y30200000D02*
X28042600Y27542600D01*
X28042600Y27542600D02*
X28042600Y22962600D01*
X28042600Y22962600D02*
X25680000Y20600000D01*
%TD*%
%TA.AperFunction,Conductor*%
%TO.N,GND*%
G36*
X15779695Y27998615D02*
G01*
X15800336Y27981981D01*
X16417897Y27364420D01*
X16417900Y27364417D01*
X16466908Y27315408D01*
X16515916Y27266400D01*
X16616024Y27199510D01*
X16616025Y27199511D01*
X16616026Y27199510D01*
X16631173Y27189389D01*
X16631174Y27189388D01*
X16631178Y27189386D01*
X16759235Y27136343D01*
X16759243Y27136341D01*
X16895189Y27109299D01*
X16895191Y27109299D01*
X17039922Y27109299D01*
X17039942Y27109300D01*
X18327249Y27109300D01*
X18394288Y27089615D01*
X18440043Y27036811D01*
X18449987Y26967653D01*
X18420962Y26904097D01*
X18414930Y26897619D01*
X18404358Y26887047D01*
X18404352Y26887040D01*
X18224761Y26652993D01*
X18077258Y26397510D01*
X18077254Y26397500D01*
X17964364Y26124961D01*
X17964362Y26124954D01*
X17964361Y26124952D01*
X17888007Y25839993D01*
X17888006Y25839984D01*
X17849500Y25547513D01*
X17849500Y25252486D01*
X17888006Y24960015D01*
X17888008Y24960004D01*
X17964361Y24675048D01*
X17964364Y24675038D01*
X18077254Y24402499D01*
X18077258Y24402489D01*
X18224761Y24147006D01*
X18404352Y23912959D01*
X18404358Y23912952D01*
X18612952Y23704358D01*
X18612959Y23704352D01*
X18847006Y23524761D01*
X19102489Y23377258D01*
X19102499Y23377254D01*
X19375038Y23264364D01*
X19375048Y23264361D01*
X19660007Y23188007D01*
X19660015Y23188006D01*
X19952486Y23149500D01*
X19952494Y23149500D01*
X20247513Y23149500D01*
X20491113Y23181571D01*
X20539993Y23188007D01*
X20824952Y23264361D01*
X20824954Y23264362D01*
X20824961Y23264364D01*
X21097500Y23377254D01*
X21097510Y23377258D01*
X21352993Y23524761D01*
X21587040Y23704352D01*
X21587047Y23704358D01*
X21795641Y23912952D01*
X21795647Y23912959D01*
X21975238Y24147006D01*
X22122741Y24402489D01*
X22122745Y24402499D01*
X22133488Y24428433D01*
X22235639Y24675048D01*
X22311993Y24960007D01*
X22350500Y25252494D01*
X22350500Y25547506D01*
X22311993Y25839993D01*
X22235639Y26124952D01*
X22122743Y26397507D01*
X21975238Y26652994D01*
X21795646Y26887042D01*
X21791571Y26891117D01*
X21785070Y26897619D01*
X21751585Y26958942D01*
X21756569Y27028634D01*
X21798441Y27084567D01*
X21863905Y27108984D01*
X21872751Y27109300D01*
X22644156Y27109300D01*
X22711195Y27089615D01*
X22731837Y27072981D01*
X23327472Y26477344D01*
X23360957Y26416021D01*
X23355973Y26346329D01*
X23354352Y26342210D01*
X23264364Y26124961D01*
X23264362Y26124954D01*
X23264361Y26124952D01*
X23188007Y25839993D01*
X23188006Y25839984D01*
X23149500Y25547513D01*
X23149500Y25252486D01*
X23188006Y24960015D01*
X23188008Y24960004D01*
X23264361Y24675048D01*
X23264364Y24675038D01*
X23377254Y24402499D01*
X23377258Y24402489D01*
X23524761Y24147006D01*
X23704352Y23912959D01*
X23704358Y23912952D01*
X23912952Y23704358D01*
X23912959Y23704352D01*
X24147006Y23524761D01*
X24402489Y23377258D01*
X24402499Y23377254D01*
X24675038Y23264364D01*
X24675048Y23264361D01*
X24960007Y23188007D01*
X24960015Y23188006D01*
X25252486Y23149500D01*
X25252494Y23149500D01*
X25547513Y23149500D01*
X25791113Y23181571D01*
X25839993Y23188007D01*
X26124952Y23264361D01*
X26124954Y23264362D01*
X26124961Y23264364D01*
X26397500Y23377254D01*
X26397510Y23377258D01*
X26652993Y23524761D01*
X26887040Y23704352D01*
X26887047Y23704358D01*
X27095644Y23912955D01*
X27116525Y23940167D01*
X27172954Y23981369D01*
X27242700Y23985523D01*
X27303620Y23951309D01*
X27336372Y23889591D01*
X27338900Y23864679D01*
X27338900Y23305444D01*
X27319215Y23238405D01*
X27302581Y23217763D01*
X26661353Y22576535D01*
X26600030Y22543050D01*
X26530338Y22548034D01*
X26511680Y22556824D01*
X26397507Y22622743D01*
X26124952Y22735639D01*
X25839993Y22811993D01*
X25547506Y22850500D01*
X25252494Y22850500D01*
X24960007Y22811993D01*
X24675048Y22735639D01*
X24402493Y22622743D01*
X24402491Y22622742D01*
X24402489Y22622741D01*
X24147006Y22475238D01*
X23912959Y22295647D01*
X23912952Y22295641D01*
X23704358Y22087047D01*
X23704352Y22087040D01*
X23524761Y21852993D01*
X23377258Y21597510D01*
X23377254Y21597500D01*
X23264364Y21324961D01*
X23264362Y21324954D01*
X23264361Y21324952D01*
X23188007Y21039993D01*
X23187993Y21039884D01*
X23149500Y20747513D01*
X23149500Y20452486D01*
X23186153Y20174085D01*
X23187994Y20160102D01*
X23188006Y20160015D01*
X23188008Y20160004D01*
X23264361Y19875048D01*
X23264364Y19875038D01*
X23377254Y19602499D01*
X23377258Y19602489D01*
X23524761Y19347006D01*
X23704352Y19112959D01*
X23704358Y19112952D01*
X23912952Y18904358D01*
X23912959Y18904352D01*
X24147006Y18724761D01*
X24402489Y18577258D01*
X24402499Y18577254D01*
X24675038Y18464364D01*
X24675048Y18464361D01*
X24960007Y18388007D01*
X24960015Y18388006D01*
X25252486Y18349500D01*
X25252494Y18349500D01*
X25547513Y18349500D01*
X25791113Y18381571D01*
X25839993Y18388007D01*
X26124952Y18464361D01*
X26124954Y18464362D01*
X26124961Y18464364D01*
X26397500Y18577254D01*
X26397510Y18577258D01*
X26652993Y18724761D01*
X26887040Y18904352D01*
X26887047Y18904358D01*
X27095641Y19112952D01*
X27095647Y19112959D01*
X27275238Y19347006D01*
X27422741Y19602489D01*
X27422745Y19602499D01*
X27422832Y19602707D01*
X27535639Y19875048D01*
X27611993Y20160007D01*
X27650500Y20452494D01*
X27650500Y20747506D01*
X27611993Y21039993D01*
X27535639Y21324952D01*
X27527656Y21344222D01*
X27520188Y21413690D01*
X27551462Y21476169D01*
X27554537Y21479355D01*
X28322163Y22246981D01*
X28383486Y22280466D01*
X28409844Y22283300D01*
X28904131Y22283300D01*
X28971170Y22263615D01*
X29016925Y22210811D01*
X29026869Y22141653D01*
X29002507Y22083814D01*
X28825185Y21852723D01*
X28825174Y21852707D01*
X28677709Y21597292D01*
X28677704Y21597281D01*
X28564838Y21324800D01*
X28564835Y21324790D01*
X28488499Y21039897D01*
X28488496Y21039884D01*
X28463498Y20850000D01*
X29575261Y20850000D01*
X29550000Y20690507D01*
X29550000Y20509493D01*
X29575261Y20350000D01*
X28463498Y20350000D01*
X28488496Y20160115D01*
X28488499Y20160102D01*
X28564835Y19875209D01*
X28564838Y19875199D01*
X28677704Y19602718D01*
X28677709Y19602707D01*
X28825174Y19347292D01*
X28825185Y19347276D01*
X29004729Y19113290D01*
X29004735Y19113283D01*
X29213283Y18904735D01*
X29213290Y18904729D01*
X29447276Y18725185D01*
X29447292Y18725174D01*
X29702707Y18577709D01*
X29702718Y18577704D01*
X29975199Y18464838D01*
X29975209Y18464835D01*
X30260102Y18388499D01*
X30260113Y18388497D01*
X30449999Y18363496D01*
X30450000Y18363496D01*
X30450000Y19475261D01*
X30609493Y19450000D01*
X30790507Y19450000D01*
X30950000Y19475261D01*
X30950000Y18363496D01*
X31139886Y18388497D01*
X31139897Y18388499D01*
X31424790Y18464835D01*
X31424800Y18464838D01*
X31697281Y18577704D01*
X31697292Y18577709D01*
X31952707Y18725174D01*
X31952723Y18725185D01*
X32186709Y18904729D01*
X32186716Y18904735D01*
X32395264Y19113283D01*
X32395270Y19113290D01*
X32574814Y19347276D01*
X32574825Y19347292D01*
X32722290Y19602707D01*
X32722295Y19602718D01*
X32835161Y19875199D01*
X32835164Y19875209D01*
X32911500Y20160102D01*
X32911503Y20160115D01*
X32936502Y20350000D01*
X31824739Y20350000D01*
X31850000Y20509493D01*
X31850000Y20690507D01*
X31824739Y20850000D01*
X32936502Y20850000D01*
X32911503Y21039884D01*
X32911500Y21039897D01*
X32835164Y21324790D01*
X32835161Y21324800D01*
X32722295Y21597281D01*
X32722290Y21597292D01*
X32574825Y21852707D01*
X32574814Y21852723D01*
X32397493Y22083814D01*
X32372299Y22148983D01*
X32386337Y22217428D01*
X32435151Y22267417D01*
X32495869Y22283300D01*
X34519055Y22283300D01*
X34586094Y22263615D01*
X34631849Y22210811D01*
X34641793Y22141653D01*
X34612768Y22078097D01*
X34581056Y22051914D01*
X34515519Y22014074D01*
X34485774Y21996901D01*
X34391099Y21902226D01*
X34324153Y21786274D01*
X34291859Y21665747D01*
X34289500Y21656944D01*
X34289500Y17904500D01*
X34269815Y17837461D01*
X34217011Y17791706D01*
X34165500Y17780500D01*
X16634500Y17780500D01*
X16567461Y17800185D01*
X16521706Y17852989D01*
X16510500Y17904500D01*
X16510500Y20747513D01*
X17849500Y20747513D01*
X17849500Y20452486D01*
X17886153Y20174085D01*
X17887994Y20160102D01*
X17888006Y20160015D01*
X17888008Y20160004D01*
X17964361Y19875048D01*
X17964364Y19875038D01*
X18077254Y19602499D01*
X18077258Y19602489D01*
X18224761Y19347006D01*
X18404352Y19112959D01*
X18404358Y19112952D01*
X18612952Y18904358D01*
X18612959Y18904352D01*
X18847006Y18724761D01*
X19102489Y18577258D01*
X19102499Y18577254D01*
X19375038Y18464364D01*
X19375048Y18464361D01*
X19660007Y18388007D01*
X19660015Y18388006D01*
X19952486Y18349500D01*
X19952494Y18349500D01*
X20247513Y18349500D01*
X20491113Y18381571D01*
X20539993Y18388007D01*
X20824952Y18464361D01*
X20824954Y18464362D01*
X20824961Y18464364D01*
X21097500Y18577254D01*
X21097510Y18577258D01*
X21352993Y18724761D01*
X21587040Y18904352D01*
X21587047Y18904358D01*
X21795641Y19112952D01*
X21795647Y19112959D01*
X21975238Y19347006D01*
X22122741Y19602489D01*
X22122745Y19602499D01*
X22122832Y19602707D01*
X22235639Y19875048D01*
X22311993Y20160007D01*
X22350500Y20452494D01*
X22350500Y20747506D01*
X22311993Y21039993D01*
X22235639Y21324952D01*
X22122743Y21597507D01*
X21975238Y21852994D01*
X21795646Y22087042D01*
X21587042Y22295646D01*
X21352994Y22475238D01*
X21097507Y22622743D01*
X20824952Y22735639D01*
X20539993Y22811993D01*
X20247506Y22850500D01*
X19952494Y22850500D01*
X19660007Y22811993D01*
X19375048Y22735639D01*
X19102493Y22622743D01*
X19102491Y22622742D01*
X19102489Y22622741D01*
X18847006Y22475238D01*
X18612959Y22295647D01*
X18612952Y22295641D01*
X18404358Y22087047D01*
X18404352Y22087040D01*
X18224761Y21852993D01*
X18077258Y21597510D01*
X18077254Y21597500D01*
X17964364Y21324961D01*
X17964362Y21324954D01*
X17964361Y21324952D01*
X17888007Y21039993D01*
X17887993Y21039884D01*
X17849500Y20747513D01*
X16510500Y20747513D01*
X16510500Y21656943D01*
X16510500Y21656945D01*
X16475847Y21786274D01*
X16408901Y21902226D01*
X16314226Y21996901D01*
X16198274Y22063847D01*
X16068945Y22098500D01*
X16068943Y22098500D01*
X12699302Y22098500D01*
X12632263Y22118185D01*
X12586508Y22170989D01*
X12576564Y22240147D01*
X12605589Y22303703D01*
X12641889Y22332408D01*
X12737407Y22382302D01*
X12895109Y22510890D01*
X12976963Y22611277D01*
X13023698Y22668593D01*
X13117909Y22848951D01*
X13173886Y23044582D01*
X13184500Y23163963D01*
X13184499Y24280036D01*
X13173886Y24399418D01*
X13117909Y24595049D01*
X13023698Y24775407D01*
X12895109Y24933109D01*
X12862121Y24960007D01*
X12793275Y25016144D01*
X12753757Y25073764D01*
X12751665Y25143603D01*
X12783954Y25199927D01*
X12828514Y25244487D01*
X12828517Y25244490D01*
X12967343Y25435567D01*
X13072526Y25642000D01*
X13074566Y25646003D01*
X13147553Y25870631D01*
X13184500Y26103902D01*
X13184500Y26340097D01*
X13147553Y26573368D01*
X13100623Y26717802D01*
X13074568Y26797992D01*
X12967343Y27008433D01*
X12828517Y27199510D01*
X12661510Y27366517D01*
X12654401Y27371682D01*
X12611735Y27427012D01*
X12605756Y27496625D01*
X12638362Y27558420D01*
X12654401Y27572318D01*
X12661506Y27577480D01*
X12661512Y27577485D01*
X12828514Y27744487D01*
X12828517Y27744490D01*
X12967343Y27935567D01*
X12975000Y27950595D01*
X13022975Y28001391D01*
X13085485Y28018300D01*
X15712656Y28018300D01*
X15779695Y27998615D01*
G37*
%TD.AperFunction*%
%TA.AperFunction,Conductor*%
G36*
X37565886Y30430739D02*
G01*
X37592427Y30426736D01*
X37598904Y30421043D01*
X37607177Y30418615D01*
X37624750Y30398334D01*
X37644914Y30380617D01*
X37650073Y30369109D01*
X37652932Y30365811D01*
X37659354Y30348412D01*
X37682090Y30268953D01*
X37776304Y30088590D01*
X37904890Y29930890D01*
X38007115Y29847538D01*
X38046632Y29789917D01*
X38048724Y29720079D01*
X38016435Y29663755D01*
X37971866Y29619186D01*
X37833085Y29428171D01*
X37725897Y29217802D01*
X37652934Y28993247D01*
X37636898Y28892000D01*
X38682988Y28892000D01*
X38650075Y28834993D01*
X38616000Y28707826D01*
X38616000Y28576174D01*
X38650075Y28449007D01*
X38682988Y28392000D01*
X37636898Y28392000D01*
X37652934Y28290752D01*
X37725897Y28066197D01*
X37833085Y27855828D01*
X37971866Y27664813D01*
X38138816Y27497863D01*
X38146451Y27492317D01*
X38189116Y27436986D01*
X38195094Y27367373D01*
X38162487Y27305578D01*
X38146451Y27291683D01*
X38138816Y27286136D01*
X37971866Y27119186D01*
X37833085Y26928171D01*
X37725897Y26717802D01*
X37652934Y26493247D01*
X37636898Y26392000D01*
X38682988Y26392000D01*
X38650075Y26334993D01*
X38616000Y26207826D01*
X38616000Y26076174D01*
X38650075Y25949007D01*
X38682988Y25892000D01*
X37636898Y25892000D01*
X37652934Y25790752D01*
X37725897Y25566197D01*
X37833085Y25355828D01*
X37971866Y25164813D01*
X38138813Y24997866D01*
X38146025Y24992627D01*
X38188690Y24937297D01*
X38194669Y24867683D01*
X38162063Y24805888D01*
X38146027Y24791993D01*
X38138490Y24786517D01*
X37971483Y24619510D01*
X37846500Y24447486D01*
X37832657Y24428433D01*
X37725433Y24217996D01*
X37652446Y23993368D01*
X37621076Y23795302D01*
X37591147Y23732167D01*
X37531835Y23695236D01*
X37498603Y23690700D01*
X32472751Y23690700D01*
X32405712Y23710385D01*
X32359957Y23763189D01*
X32350013Y23832347D01*
X32379038Y23895903D01*
X32385070Y23902381D01*
X32395641Y23912952D01*
X32395647Y23912959D01*
X32575238Y24147006D01*
X32722741Y24402489D01*
X32722745Y24402499D01*
X32733488Y24428433D01*
X32835639Y24675048D01*
X32911993Y24960007D01*
X32950500Y25252494D01*
X32950500Y25547506D01*
X32911993Y25839993D01*
X32835639Y26124952D01*
X32740725Y26354092D01*
X32733257Y26423559D01*
X32764532Y26486038D01*
X32767606Y26489224D01*
X36680363Y30401981D01*
X36741686Y30435466D01*
X36768044Y30438300D01*
X37540138Y30438300D01*
X37565886Y30430739D01*
G37*
%TD.AperFunction*%
%TA.AperFunction,Conductor*%
G36*
X39366000Y26575012D02*
G01*
X39308993Y26607925D01*
X39181826Y26642000D01*
X39050174Y26642000D01*
X38923007Y26607925D01*
X38866000Y26575012D01*
X38866000Y28208988D01*
X38923007Y28176075D01*
X39050174Y28142000D01*
X39181826Y28142000D01*
X39308993Y28176075D01*
X39366000Y28208988D01*
X39366000Y26575012D01*
G37*
%TD.AperFunction*%
%TA.AperFunction,Conductor*%
G36*
X40328539Y33253815D02*
G01*
X40374294Y33201011D01*
X40385500Y33149500D01*
X40385500Y32566602D01*
X40365815Y32499563D01*
X40313011Y32453808D01*
X40243853Y32443864D01*
X40183138Y32470501D01*
X40169407Y32481698D01*
X39989049Y32575909D01*
X39793418Y32631886D01*
X39674037Y32642500D01*
X38557964Y32642499D01*
X38438582Y32631886D01*
X38242951Y32575909D01*
X38062593Y32481698D01*
X38016193Y32443864D01*
X37904890Y32353109D01*
X37827101Y32257707D01*
X37776302Y32195407D01*
X37682091Y32015049D01*
X37682090Y32015046D01*
X37659354Y31935588D01*
X37621986Y31876550D01*
X37558632Y31847087D01*
X37540138Y31845700D01*
X36355889Y31845700D01*
X36289827Y31832559D01*
X36223764Y31819418D01*
X36223762Y31819418D01*
X36219947Y31818659D01*
X36219945Y31818658D01*
X36219938Y31818657D01*
X36091873Y31765611D01*
X35977130Y31688943D01*
X35976614Y31688598D01*
X35875503Y31587487D01*
X35875474Y31587456D01*
X31765465Y27477447D01*
X31704142Y27443962D01*
X31634450Y27448946D01*
X31630389Y27450543D01*
X31424952Y27535639D01*
X31139993Y27611993D01*
X30847506Y27650500D01*
X30552494Y27650500D01*
X30260007Y27611993D01*
X29975048Y27535639D01*
X29702493Y27422743D01*
X29702490Y27422741D01*
X29702489Y27422741D01*
X29447006Y27275238D01*
X29212959Y27095647D01*
X29212952Y27095641D01*
X29004358Y26887047D01*
X29004352Y26887040D01*
X28968676Y26840546D01*
X28912248Y26799343D01*
X28842502Y26795188D01*
X28781582Y26829400D01*
X28748829Y26891117D01*
X28746300Y26916032D01*
X28746300Y27199756D01*
X28765985Y27266795D01*
X28782619Y27287437D01*
X29622654Y28127472D01*
X29683977Y28160957D01*
X29753669Y28155973D01*
X29757787Y28154352D01*
X29975032Y28064366D01*
X29975048Y28064361D01*
X30260007Y27988007D01*
X30260015Y27988006D01*
X30552486Y27949500D01*
X30552494Y27949500D01*
X30847513Y27949500D01*
X31094221Y27981981D01*
X31139993Y27988007D01*
X31424952Y28064361D01*
X31424954Y28064362D01*
X31424961Y28064364D01*
X31697500Y28177254D01*
X31697510Y28177258D01*
X31952993Y28324761D01*
X32187040Y28504352D01*
X32187047Y28504358D01*
X32395641Y28712952D01*
X32395647Y28712959D01*
X32575238Y28947006D01*
X32722741Y29202489D01*
X32722745Y29202499D01*
X32745647Y29257787D01*
X32823352Y29445385D01*
X32835635Y29475038D01*
X32835635Y29475039D01*
X32835639Y29475048D01*
X32911993Y29760007D01*
X32950500Y30052494D01*
X32950500Y30347506D01*
X32911993Y30639993D01*
X32835639Y30924952D01*
X32722743Y31197507D01*
X32575238Y31452994D01*
X32395646Y31687042D01*
X32187042Y31895646D01*
X31952994Y32075238D01*
X31697507Y32222743D01*
X31424952Y32335639D01*
X31139993Y32411993D01*
X30847506Y32450500D01*
X30552494Y32450500D01*
X30260007Y32411993D01*
X29975048Y32335639D01*
X29975039Y32335635D01*
X29975038Y32335635D01*
X29934277Y32318751D01*
X29702493Y32222743D01*
X29702490Y32222741D01*
X29702489Y32222741D01*
X29447006Y32075238D01*
X29212959Y31895647D01*
X29212952Y31895641D01*
X29004358Y31687047D01*
X29004352Y31687040D01*
X28824761Y31452993D01*
X28677258Y31197510D01*
X28677254Y31197500D01*
X28564364Y30924961D01*
X28564362Y30924954D01*
X28564361Y30924952D01*
X28488007Y30639993D01*
X28488006Y30639984D01*
X28449500Y30347513D01*
X28449500Y30052486D01*
X28473985Y29866514D01*
X28488007Y29760007D01*
X28516917Y29652114D01*
X28564361Y29475048D01*
X28564366Y29475032D01*
X28654352Y29257787D01*
X28661821Y29188318D01*
X28630546Y29125839D01*
X28627472Y29122654D01*
X27594020Y28089202D01*
X27594017Y28089200D01*
X27496000Y27991183D01*
X27468149Y27949500D01*
X27463296Y27942237D01*
X27463294Y27942235D01*
X27418992Y27875932D01*
X27418985Y27875920D01*
X27365943Y27747864D01*
X27365941Y27747856D01*
X27338899Y27611910D01*
X27338899Y27468182D01*
X27338900Y27468156D01*
X27338900Y26935320D01*
X27319215Y26868281D01*
X27266411Y26822526D01*
X27197253Y26812582D01*
X27133697Y26841607D01*
X27116524Y26859834D01*
X27106525Y26872863D01*
X27095646Y26887042D01*
X26887042Y27095646D01*
X26652994Y27275238D01*
X26397507Y27422743D01*
X26124952Y27535639D01*
X25839993Y27611993D01*
X25547506Y27650500D01*
X25252494Y27650500D01*
X24960007Y27611993D01*
X24675048Y27535639D01*
X24675039Y27535635D01*
X24675038Y27535635D01*
X24457787Y27445647D01*
X24388317Y27438178D01*
X24325838Y27469453D01*
X24322681Y27472499D01*
X23540670Y28254511D01*
X23540667Y28254515D01*
X23533601Y28261581D01*
X23533600Y28261583D01*
X23435583Y28359600D01*
X23320327Y28436611D01*
X23320324Y28436612D01*
X23320323Y28436613D01*
X23192264Y28489656D01*
X23192262Y28489657D01*
X23147768Y28498507D01*
X23056310Y28516701D01*
X23056308Y28516701D01*
X22917692Y28516701D01*
X22911578Y28516701D01*
X22911558Y28516700D01*
X21896499Y28516700D01*
X21829460Y28536385D01*
X21783705Y28589189D01*
X21773761Y28658347D01*
X21798122Y28716184D01*
X21975238Y28947006D01*
X21975241Y28947010D01*
X22122741Y29202489D01*
X22122745Y29202499D01*
X22145647Y29257787D01*
X22223352Y29445385D01*
X22235635Y29475038D01*
X22235635Y29475039D01*
X22235639Y29475048D01*
X22311993Y29760007D01*
X22350500Y30052494D01*
X22350500Y30347506D01*
X22311993Y30639993D01*
X22235639Y30924952D01*
X22122743Y31197507D01*
X21975238Y31452994D01*
X21795646Y31687042D01*
X21587042Y31895646D01*
X21352994Y32075238D01*
X21249980Y32134713D01*
X21201765Y32185279D01*
X21188541Y32253886D01*
X21214509Y32318751D01*
X21271423Y32359280D01*
X21311980Y32366100D01*
X22187356Y32366100D01*
X22254395Y32346415D01*
X22275037Y32329781D01*
X23327472Y31277344D01*
X23360957Y31216021D01*
X23355973Y31146329D01*
X23354352Y31142210D01*
X23264364Y30924961D01*
X23264362Y30924954D01*
X23264361Y30924952D01*
X23188007Y30639993D01*
X23188006Y30639984D01*
X23149500Y30347513D01*
X23149500Y30052486D01*
X23173985Y29866514D01*
X23188007Y29760007D01*
X23216917Y29652114D01*
X23264361Y29475048D01*
X23264364Y29475038D01*
X23377254Y29202499D01*
X23377258Y29202489D01*
X23524761Y28947006D01*
X23704352Y28712959D01*
X23704358Y28712952D01*
X23912952Y28504358D01*
X23912959Y28504352D01*
X24147006Y28324761D01*
X24402489Y28177258D01*
X24402499Y28177254D01*
X24675038Y28064364D01*
X24675048Y28064361D01*
X24960007Y27988007D01*
X24960015Y27988006D01*
X25252486Y27949500D01*
X25252494Y27949500D01*
X25547513Y27949500D01*
X25794221Y27981981D01*
X25839993Y27988007D01*
X26124952Y28064361D01*
X26124954Y28064362D01*
X26124961Y28064364D01*
X26397500Y28177254D01*
X26397510Y28177258D01*
X26652993Y28324761D01*
X26887040Y28504352D01*
X26887047Y28504358D01*
X27095641Y28712952D01*
X27095647Y28712959D01*
X27275238Y28947006D01*
X27422741Y29202489D01*
X27422745Y29202499D01*
X27445647Y29257787D01*
X27523352Y29445385D01*
X27535635Y29475038D01*
X27535635Y29475039D01*
X27535639Y29475048D01*
X27611993Y29760007D01*
X27650500Y30052494D01*
X27650500Y30347506D01*
X27611993Y30639993D01*
X27535639Y30924952D01*
X27422743Y31197507D01*
X27275238Y31452994D01*
X27095646Y31687042D01*
X26887042Y31895646D01*
X26652994Y32075238D01*
X26397507Y32222743D01*
X26124952Y32335639D01*
X25839993Y32411993D01*
X25547506Y32450500D01*
X25252494Y32450500D01*
X24960007Y32411993D01*
X24675048Y32335639D01*
X24675039Y32335635D01*
X24675038Y32335635D01*
X24457787Y32245647D01*
X24388317Y32238178D01*
X24325838Y32269453D01*
X24322683Y32272497D01*
X23533363Y33061819D01*
X23499878Y33123142D01*
X23504862Y33192834D01*
X23546734Y33248767D01*
X23612198Y33273184D01*
X23621044Y33273500D01*
X40261500Y33273500D01*
X40328539Y33253815D01*
G37*
%TD.AperFunction*%
%TA.AperFunction,Conductor*%
G36*
X18955059Y32346415D02*
G01*
X19000814Y32293611D01*
X19010758Y32224453D01*
X18981733Y32160897D01*
X18950020Y32134713D01*
X18847006Y32075238D01*
X18612959Y31895647D01*
X18612952Y31895641D01*
X18404358Y31687047D01*
X18404352Y31687040D01*
X18224761Y31452993D01*
X18077258Y31197510D01*
X18077254Y31197500D01*
X17964364Y30924961D01*
X17964362Y30924954D01*
X17964361Y30924952D01*
X17888007Y30639993D01*
X17888006Y30639984D01*
X17849500Y30347513D01*
X17849500Y30052486D01*
X17873985Y29866514D01*
X17888007Y29760007D01*
X17916917Y29652114D01*
X17964361Y29475048D01*
X17964364Y29475038D01*
X18077254Y29202499D01*
X18077258Y29202489D01*
X18224758Y28947010D01*
X18310713Y28834993D01*
X18401877Y28716185D01*
X18427071Y28651017D01*
X18413033Y28582573D01*
X18364219Y28532583D01*
X18303501Y28516700D01*
X17307344Y28516700D01*
X17240305Y28536385D01*
X17219663Y28553019D01*
X17114335Y28658347D01*
X16609169Y29163511D01*
X16609167Y29163515D01*
X16602101Y29170581D01*
X16602100Y29170583D01*
X16504083Y29268600D01*
X16388827Y29345611D01*
X16388824Y29345612D01*
X16388823Y29345613D01*
X16260764Y29398656D01*
X16260762Y29398657D01*
X16216268Y29407507D01*
X16124810Y29425701D01*
X16124808Y29425701D01*
X15986192Y29425701D01*
X15980078Y29425701D01*
X15980058Y29425700D01*
X13085485Y29425700D01*
X13018446Y29445385D01*
X12975000Y29493405D01*
X12967343Y29508433D01*
X12828517Y29699510D01*
X12661510Y29866517D01*
X12654401Y29871682D01*
X12611735Y29927012D01*
X12605756Y29996625D01*
X12638362Y30058420D01*
X12654401Y30072318D01*
X12661506Y30077480D01*
X12661512Y30077485D01*
X12828514Y30244487D01*
X12828517Y30244490D01*
X12967343Y30435567D01*
X13071499Y30639984D01*
X13074566Y30646003D01*
X13147553Y30870631D01*
X13184500Y31103902D01*
X13184500Y31340097D01*
X13163973Y31469689D01*
X13147553Y31573368D01*
X13142340Y31589408D01*
X13140344Y31659247D01*
X13172590Y31715408D01*
X13786963Y32329781D01*
X13848286Y32363266D01*
X13874644Y32366100D01*
X18888020Y32366100D01*
X18955059Y32346415D01*
G37*
%TD.AperFunction*%
%TD*%
M02*
