%TF.GenerationSoftware,KiCad,Pcbnew,9.0.2*%
%TF.CreationDate,2025-07-08T13:29:16-05:00*%
%TF.ProjectId,3PDT Footswitch,33504454-2046-46f6-9f74-737769746368,rev?*%
%TF.SameCoordinates,Original*%
%TF.FileFunction,Copper,L2,Bot*%
%TF.FilePolarity,Positive*%
%FSLAX46Y46*%
G04 Gerber Fmt 4.6, Leading zero omitted, Abs format (unit mm)*
G04 Created by KiCad (PCBNEW 9.0.2) date 2025-07-08 13:29:16*
%MOMM*%
%LPD*%
G01*
G04 APERTURE LIST*
G04 Aperture macros list*
%AMRoundRect*
0 Rectangle with rounded corners*
0 $1 Rounding radius*
0 $2 $3 $4 $5 $6 $7 $8 $9 X,Y pos of 4 corners*
0 Add a 4 corners polygon primitive as box body*
4,1,4,$2,$3,$4,$5,$6,$7,$8,$9,$2,$3,0*
0 Add four circle primitives for the rounded corners*
1,1,$1+$1,$2,$3*
1,1,$1+$1,$4,$5*
1,1,$1+$1,$6,$7*
1,1,$1+$1,$8,$9*
0 Add four rect primitives between the rounded corners*
20,1,$1+$1,$2,$3,$4,$5,0*
20,1,$1+$1,$4,$5,$6,$7,0*
20,1,$1+$1,$6,$7,$8,$9,0*
20,1,$1+$1,$8,$9,$2,$3,0*%
G04 Aperture macros list end*
%TA.AperFunction,ComponentPad*%
%ADD10RoundRect,0.500000X0.500000X-0.500000X0.500000X0.500000X-0.500000X0.500000X-0.500000X-0.500000X0*%
%TD*%
%TA.AperFunction,ComponentPad*%
%ADD11C,2.000000*%
%TD*%
%TA.AperFunction,ComponentPad*%
%ADD12RoundRect,0.500000X-0.500000X0.500000X-0.500000X-0.500000X0.500000X-0.500000X0.500000X0.500000X0*%
%TD*%
%TA.AperFunction,ComponentPad*%
%ADD13C,3.500000*%
%TD*%
%TA.AperFunction,ViaPad*%
%ADD14C,0.609600*%
%TD*%
%TA.AperFunction,Conductor*%
%ADD15C,0.406400*%
%TD*%
G04 APERTURE END LIST*
D10*
%TO.P,J2,1,1*%
%TO.N,/LED+*%
X11684000Y23722000D03*
D11*
%TO.P,J2,2,2*%
%TO.N,/LED-*%
X11684000Y26222000D03*
%TO.P,J2,3,3*%
%TO.N,/OUT*%
X11684000Y28722000D03*
%TO.P,J2,4,4*%
%TO.N,/RETURN*%
X11684000Y31222000D03*
%TD*%
D12*
%TO.P,J1,1,1*%
%TO.N,/SEND*%
X39116000Y31142000D03*
D11*
%TO.P,J1,2,2*%
%TO.N,GND*%
X39116000Y28642000D03*
%TO.P,J1,3,3*%
X39116000Y26142000D03*
%TO.P,J1,4,4*%
%TO.N,/IN*%
X39116000Y23642000D03*
%TD*%
D13*
%TO.P,SW1,1,1*%
%TO.N,unconnected-(SW1-Pad1)*%
X20100000Y20600000D03*
%TO.P,SW1,2,2*%
%TO.N,/LED+*%
X20100000Y25400000D03*
%TO.P,SW1,3,3*%
%TO.N,/LED-*%
X20100000Y30200000D03*
%TO.P,SW1,4,4*%
%TO.N,/IN*%
X25400000Y20600000D03*
%TO.P,SW1,5,5*%
%TO.N,/OUT*%
X25400000Y25400000D03*
%TO.P,SW1,6,6*%
%TO.N,/RETURN*%
X25400000Y30200000D03*
%TO.P,SW1,7,7*%
%TO.N,GND*%
X30700000Y20600000D03*
%TO.P,SW1,8,8*%
%TO.N,/SEND*%
X30700000Y25400000D03*
%TO.P,SW1,9,9*%
%TO.N,/IN*%
X30700000Y30200000D03*
%TD*%
D14*
%TO.N,GND*%
X28117800Y32410400D03*
X36118800Y25196800D03*
X33959800Y32512000D03*
X22783800Y23215600D03*
X17068800Y22910800D03*
X15341600Y30911800D03*
%TD*%
D15*
%TO.N,/LED-*%
X20100000Y30200000D02*
X18389000Y30200000D01*
X14411000Y26222000D02*
X11684000Y26222000D01*
X18389000Y30200000D02*
X14411000Y26222000D01*
%TO.N,/LED+*%
X16891000Y25400000D02*
X15213000Y23722000D01*
X20100000Y25400000D02*
X16891000Y25400000D01*
X15213000Y23722000D02*
X11684000Y23722000D01*
%TD*%
%TA.AperFunction,Conductor*%
%TO.N,GND*%
G36*
X40328539Y33253815D02*
G01*
X40374294Y33201011D01*
X40385500Y33149500D01*
X40385500Y32566602D01*
X40365815Y32499563D01*
X40313011Y32453808D01*
X40243853Y32443864D01*
X40183138Y32470501D01*
X40169407Y32481698D01*
X39989049Y32575909D01*
X39793418Y32631886D01*
X39674037Y32642500D01*
X38557964Y32642499D01*
X38438582Y32631886D01*
X38242951Y32575909D01*
X38062593Y32481698D01*
X38016193Y32443864D01*
X37904890Y32353109D01*
X37861243Y32299579D01*
X37776302Y32195407D01*
X37713531Y32075238D01*
X37682089Y32015045D01*
X37648550Y31897829D01*
X37626114Y31819418D01*
X37626114Y31819416D01*
X37626113Y31819413D01*
X37615500Y31700033D01*
X37615500Y30583971D01*
X37615501Y30583965D01*
X37626113Y30464584D01*
X37682089Y30268954D01*
X37776304Y30088590D01*
X37904890Y29930890D01*
X38007115Y29847538D01*
X38046632Y29789917D01*
X38048724Y29720079D01*
X38016435Y29663755D01*
X37971866Y29619186D01*
X37833085Y29428171D01*
X37725897Y29217802D01*
X37652934Y28993247D01*
X37636898Y28892000D01*
X38682988Y28892000D01*
X38650075Y28834993D01*
X38616000Y28707826D01*
X38616000Y28576174D01*
X38650075Y28449007D01*
X38682988Y28392000D01*
X37636898Y28392000D01*
X37652934Y28290752D01*
X37725897Y28066197D01*
X37833085Y27855828D01*
X37971866Y27664813D01*
X38138816Y27497863D01*
X38146451Y27492317D01*
X38189116Y27436986D01*
X38195094Y27367373D01*
X38162487Y27305578D01*
X38146451Y27291683D01*
X38138816Y27286136D01*
X37971866Y27119186D01*
X37833085Y26928171D01*
X37725897Y26717802D01*
X37652934Y26493247D01*
X37636898Y26392000D01*
X38682988Y26392000D01*
X38650075Y26334993D01*
X38616000Y26207826D01*
X38616000Y26076174D01*
X38650075Y25949007D01*
X38682988Y25892000D01*
X37636898Y25892000D01*
X37652934Y25790752D01*
X37725897Y25566197D01*
X37833085Y25355828D01*
X37971866Y25164813D01*
X38138813Y24997866D01*
X38146025Y24992627D01*
X38188690Y24937297D01*
X38194669Y24867683D01*
X38162063Y24805888D01*
X38146027Y24791993D01*
X38138490Y24786517D01*
X37971483Y24619510D01*
X37832730Y24428534D01*
X37832657Y24428433D01*
X37725433Y24217996D01*
X37652446Y23993368D01*
X37615500Y23760097D01*
X37615500Y23523902D01*
X37652446Y23290631D01*
X37725433Y23066003D01*
X37832657Y22855566D01*
X37911862Y22746550D01*
X37971483Y22664490D01*
X37971485Y22664488D01*
X37971485Y22664487D01*
X38138487Y22497485D01*
X38329566Y22358657D01*
X38379951Y22332985D01*
X38430747Y22285010D01*
X38447542Y22217189D01*
X38425004Y22151054D01*
X38370289Y22107603D01*
X38323656Y22098500D01*
X34864945Y22098500D01*
X34731055Y22098500D01*
X34601726Y22063847D01*
X34485774Y21996901D01*
X34391099Y21902226D01*
X34324153Y21786274D01*
X34291859Y21665747D01*
X34289500Y21656944D01*
X34289500Y17904500D01*
X34269815Y17837461D01*
X34217011Y17791706D01*
X34165500Y17780500D01*
X16634500Y17780500D01*
X16567461Y17800185D01*
X16521706Y17852989D01*
X16510500Y17904500D01*
X16510500Y20747513D01*
X17849500Y20747513D01*
X17849500Y20452486D01*
X17886153Y20174085D01*
X17887994Y20160102D01*
X17888006Y20160015D01*
X17888008Y20160004D01*
X17964361Y19875048D01*
X17964364Y19875038D01*
X18077254Y19602499D01*
X18077258Y19602489D01*
X18224761Y19347006D01*
X18404352Y19112959D01*
X18404358Y19112952D01*
X18612952Y18904358D01*
X18612959Y18904352D01*
X18847006Y18724761D01*
X19102489Y18577258D01*
X19102499Y18577254D01*
X19375038Y18464364D01*
X19375048Y18464361D01*
X19660007Y18388007D01*
X19660015Y18388006D01*
X19952486Y18349500D01*
X19952494Y18349500D01*
X20247513Y18349500D01*
X20491113Y18381571D01*
X20539993Y18388007D01*
X20824952Y18464361D01*
X20824954Y18464362D01*
X20824961Y18464364D01*
X21097500Y18577254D01*
X21097510Y18577258D01*
X21352993Y18724761D01*
X21587040Y18904352D01*
X21587047Y18904358D01*
X21795641Y19112952D01*
X21795647Y19112959D01*
X21975238Y19347006D01*
X22122741Y19602489D01*
X22122745Y19602499D01*
X22122832Y19602707D01*
X22235639Y19875048D01*
X22311993Y20160007D01*
X22350500Y20452494D01*
X22350500Y20747506D01*
X22350499Y20747513D01*
X23149500Y20747513D01*
X23149500Y20452486D01*
X23186153Y20174085D01*
X23187994Y20160102D01*
X23188006Y20160015D01*
X23188008Y20160004D01*
X23264361Y19875048D01*
X23264364Y19875038D01*
X23377254Y19602499D01*
X23377258Y19602489D01*
X23524761Y19347006D01*
X23704352Y19112959D01*
X23704358Y19112952D01*
X23912952Y18904358D01*
X23912959Y18904352D01*
X24147006Y18724761D01*
X24402489Y18577258D01*
X24402499Y18577254D01*
X24675038Y18464364D01*
X24675048Y18464361D01*
X24960007Y18388007D01*
X24960015Y18388006D01*
X25252486Y18349500D01*
X25252494Y18349500D01*
X25547513Y18349500D01*
X25791113Y18381571D01*
X25839993Y18388007D01*
X26124952Y18464361D01*
X26124954Y18464362D01*
X26124961Y18464364D01*
X26397500Y18577254D01*
X26397510Y18577258D01*
X26652993Y18724761D01*
X26887040Y18904352D01*
X26887047Y18904358D01*
X27095641Y19112952D01*
X27095647Y19112959D01*
X27275238Y19347006D01*
X27422741Y19602489D01*
X27422745Y19602499D01*
X27422832Y19602707D01*
X27535639Y19875048D01*
X27611993Y20160007D01*
X27650500Y20452494D01*
X27650500Y20747506D01*
X27637006Y20850000D01*
X28463498Y20850000D01*
X29575261Y20850000D01*
X29550000Y20690507D01*
X29550000Y20509493D01*
X29575261Y20350000D01*
X28463498Y20350000D01*
X28488496Y20160115D01*
X28488499Y20160102D01*
X28564835Y19875209D01*
X28564838Y19875199D01*
X28677704Y19602718D01*
X28677709Y19602707D01*
X28825174Y19347292D01*
X28825185Y19347276D01*
X29004729Y19113290D01*
X29004735Y19113283D01*
X29213283Y18904735D01*
X29213290Y18904729D01*
X29447276Y18725185D01*
X29447292Y18725174D01*
X29702707Y18577709D01*
X29702718Y18577704D01*
X29975199Y18464838D01*
X29975209Y18464835D01*
X30260102Y18388499D01*
X30260113Y18388497D01*
X30449999Y18363496D01*
X30450000Y18363496D01*
X30450000Y19475261D01*
X30609493Y19450000D01*
X30790507Y19450000D01*
X30950000Y19475261D01*
X30950000Y18363496D01*
X31139886Y18388497D01*
X31139897Y18388499D01*
X31424790Y18464835D01*
X31424800Y18464838D01*
X31697281Y18577704D01*
X31697292Y18577709D01*
X31952707Y18725174D01*
X31952723Y18725185D01*
X32186709Y18904729D01*
X32186716Y18904735D01*
X32395264Y19113283D01*
X32395270Y19113290D01*
X32574814Y19347276D01*
X32574825Y19347292D01*
X32722290Y19602707D01*
X32722295Y19602718D01*
X32835161Y19875199D01*
X32835164Y19875209D01*
X32911500Y20160102D01*
X32911503Y20160115D01*
X32936502Y20350000D01*
X31824739Y20350000D01*
X31850000Y20509493D01*
X31850000Y20690507D01*
X31824739Y20850000D01*
X32936502Y20850000D01*
X32911503Y21039884D01*
X32911500Y21039897D01*
X32835164Y21324790D01*
X32835161Y21324800D01*
X32722295Y21597281D01*
X32722290Y21597292D01*
X32574825Y21852707D01*
X32574814Y21852723D01*
X32395270Y22086709D01*
X32395264Y22086716D01*
X32186716Y22295264D01*
X32186709Y22295270D01*
X31952723Y22474814D01*
X31952707Y22474825D01*
X31697292Y22622290D01*
X31697281Y22622295D01*
X31424800Y22735161D01*
X31424790Y22735164D01*
X31139897Y22811500D01*
X31139884Y22811503D01*
X30950000Y22836501D01*
X30950000Y21724738D01*
X30790507Y21750000D01*
X30609493Y21750000D01*
X30450000Y21724738D01*
X30450000Y22836502D01*
X30260115Y22811503D01*
X30260102Y22811500D01*
X29975209Y22735164D01*
X29975199Y22735161D01*
X29702718Y22622295D01*
X29702707Y22622290D01*
X29447292Y22474825D01*
X29447276Y22474814D01*
X29213290Y22295270D01*
X29213283Y22295264D01*
X29004735Y22086716D01*
X29004729Y22086709D01*
X28825185Y21852723D01*
X28825174Y21852707D01*
X28677709Y21597292D01*
X28677704Y21597281D01*
X28564838Y21324800D01*
X28564835Y21324790D01*
X28488499Y21039897D01*
X28488496Y21039884D01*
X28463498Y20850000D01*
X27637006Y20850000D01*
X27611993Y21039993D01*
X27535639Y21324952D01*
X27422743Y21597507D01*
X27275238Y21852994D01*
X27095646Y22087042D01*
X26887042Y22295646D01*
X26652994Y22475238D01*
X26397507Y22622743D01*
X26124952Y22735639D01*
X25839993Y22811993D01*
X25547506Y22850500D01*
X25252494Y22850500D01*
X24960007Y22811993D01*
X24675048Y22735639D01*
X24402493Y22622743D01*
X24402490Y22622741D01*
X24402489Y22622741D01*
X24147006Y22475238D01*
X23912959Y22295647D01*
X23912952Y22295641D01*
X23704358Y22087047D01*
X23704352Y22087040D01*
X23524761Y21852993D01*
X23377258Y21597510D01*
X23377254Y21597500D01*
X23264364Y21324961D01*
X23264362Y21324954D01*
X23264361Y21324952D01*
X23188007Y21039993D01*
X23187993Y21039884D01*
X23149500Y20747513D01*
X22350499Y20747513D01*
X22311993Y21039993D01*
X22235639Y21324952D01*
X22122743Y21597507D01*
X21975238Y21852994D01*
X21795646Y22087042D01*
X21587042Y22295646D01*
X21352994Y22475238D01*
X21097507Y22622743D01*
X20824952Y22735639D01*
X20539993Y22811993D01*
X20247506Y22850500D01*
X19952494Y22850500D01*
X19660007Y22811993D01*
X19375048Y22735639D01*
X19102493Y22622743D01*
X19102490Y22622741D01*
X19102489Y22622741D01*
X18847006Y22475238D01*
X18612959Y22295647D01*
X18612952Y22295641D01*
X18404358Y22087047D01*
X18404352Y22087040D01*
X18224761Y21852993D01*
X18077258Y21597510D01*
X18077254Y21597500D01*
X17964364Y21324961D01*
X17964362Y21324954D01*
X17964361Y21324952D01*
X17888007Y21039993D01*
X17887993Y21039884D01*
X17849500Y20747513D01*
X16510500Y20747513D01*
X16510500Y21656943D01*
X16510500Y21656945D01*
X16475847Y21786274D01*
X16408901Y21902226D01*
X16314226Y21996901D01*
X16198274Y22063847D01*
X16068945Y22098500D01*
X16068943Y22098500D01*
X12699302Y22098500D01*
X12632263Y22118185D01*
X12586508Y22170989D01*
X12576564Y22240147D01*
X12605589Y22303703D01*
X12641889Y22332408D01*
X12737407Y22382302D01*
X12895109Y22510890D01*
X12985947Y22622295D01*
X13023698Y22668593D01*
X13117909Y22848951D01*
X13140646Y22928412D01*
X13178014Y22987450D01*
X13241368Y23016913D01*
X13259862Y23018300D01*
X15137558Y23018300D01*
X15137578Y23018299D01*
X15143692Y23018299D01*
X15282310Y23018299D01*
X15418256Y23045341D01*
X15418264Y23045343D01*
X15546323Y23098386D01*
X15661585Y23175401D01*
X15763920Y23277736D01*
X15763940Y23277758D01*
X17146163Y24659981D01*
X17207486Y24693466D01*
X17233844Y24696300D01*
X17872704Y24696300D01*
X17939743Y24676615D01*
X17985498Y24623811D01*
X17987265Y24619753D01*
X18077254Y24402499D01*
X18077258Y24402489D01*
X18224761Y24147006D01*
X18404352Y23912959D01*
X18404358Y23912952D01*
X18612952Y23704358D01*
X18612959Y23704352D01*
X18847006Y23524761D01*
X19102489Y23377258D01*
X19102499Y23377254D01*
X19375038Y23264364D01*
X19375048Y23264361D01*
X19660007Y23188007D01*
X19660015Y23188006D01*
X19952486Y23149500D01*
X19952494Y23149500D01*
X20247513Y23149500D01*
X20491113Y23181571D01*
X20539993Y23188007D01*
X20824952Y23264361D01*
X20824954Y23264362D01*
X20824961Y23264364D01*
X21097500Y23377254D01*
X21097510Y23377258D01*
X21352993Y23524761D01*
X21587040Y23704352D01*
X21587047Y23704358D01*
X21795641Y23912952D01*
X21795647Y23912959D01*
X21975238Y24147006D01*
X22122741Y24402489D01*
X22122745Y24402499D01*
X22132356Y24425700D01*
X22235639Y24675048D01*
X22311993Y24960007D01*
X22350500Y25252494D01*
X22350500Y25547506D01*
X22350499Y25547513D01*
X23149500Y25547513D01*
X23149500Y25252486D01*
X23188006Y24960015D01*
X23188008Y24960004D01*
X23264361Y24675048D01*
X23264364Y24675038D01*
X23377254Y24402499D01*
X23377258Y24402489D01*
X23524761Y24147006D01*
X23704352Y23912959D01*
X23704358Y23912952D01*
X23912952Y23704358D01*
X23912959Y23704352D01*
X24147006Y23524761D01*
X24402489Y23377258D01*
X24402499Y23377254D01*
X24675038Y23264364D01*
X24675048Y23264361D01*
X24960007Y23188007D01*
X24960015Y23188006D01*
X25252486Y23149500D01*
X25252494Y23149500D01*
X25547513Y23149500D01*
X25791113Y23181571D01*
X25839993Y23188007D01*
X26124952Y23264361D01*
X26124954Y23264362D01*
X26124961Y23264364D01*
X26397500Y23377254D01*
X26397510Y23377258D01*
X26652993Y23524761D01*
X26887040Y23704352D01*
X26887047Y23704358D01*
X27095641Y23912952D01*
X27095647Y23912959D01*
X27275238Y24147006D01*
X27422741Y24402489D01*
X27422745Y24402499D01*
X27432356Y24425700D01*
X27535639Y24675048D01*
X27611993Y24960007D01*
X27650500Y25252494D01*
X27650500Y25547506D01*
X27650499Y25547513D01*
X28449500Y25547513D01*
X28449500Y25252486D01*
X28488006Y24960015D01*
X28488008Y24960004D01*
X28564361Y24675048D01*
X28564364Y24675038D01*
X28677254Y24402499D01*
X28677258Y24402489D01*
X28824761Y24147006D01*
X29004352Y23912959D01*
X29004358Y23912952D01*
X29212952Y23704358D01*
X29212959Y23704352D01*
X29447006Y23524761D01*
X29702489Y23377258D01*
X29702499Y23377254D01*
X29975038Y23264364D01*
X29975048Y23264361D01*
X30260007Y23188007D01*
X30260015Y23188006D01*
X30552486Y23149500D01*
X30552494Y23149500D01*
X30847513Y23149500D01*
X31091113Y23181571D01*
X31139993Y23188007D01*
X31424952Y23264361D01*
X31424954Y23264362D01*
X31424961Y23264364D01*
X31697500Y23377254D01*
X31697510Y23377258D01*
X31952993Y23524761D01*
X32187040Y23704352D01*
X32187047Y23704358D01*
X32395641Y23912952D01*
X32395647Y23912959D01*
X32575238Y24147006D01*
X32722741Y24402489D01*
X32722745Y24402499D01*
X32732356Y24425700D01*
X32835639Y24675048D01*
X32911993Y24960007D01*
X32950500Y25252494D01*
X32950500Y25547506D01*
X32911993Y25839993D01*
X32835639Y26124952D01*
X32722743Y26397507D01*
X32575238Y26652994D01*
X32395646Y26887042D01*
X32187042Y27095646D01*
X31952994Y27275238D01*
X31697507Y27422743D01*
X31424952Y27535639D01*
X31139993Y27611993D01*
X30847506Y27650500D01*
X30552494Y27650500D01*
X30260007Y27611993D01*
X29975048Y27535639D01*
X29702493Y27422743D01*
X29702490Y27422741D01*
X29702489Y27422741D01*
X29447006Y27275238D01*
X29212959Y27095647D01*
X29212952Y27095641D01*
X29004358Y26887047D01*
X29004352Y26887040D01*
X28824761Y26652993D01*
X28677258Y26397510D01*
X28677254Y26397500D01*
X28564364Y26124961D01*
X28564362Y26124954D01*
X28564361Y26124952D01*
X28488007Y25839993D01*
X28488006Y25839984D01*
X28449500Y25547513D01*
X27650499Y25547513D01*
X27611993Y25839993D01*
X27535639Y26124952D01*
X27422743Y26397507D01*
X27275238Y26652994D01*
X27095646Y26887042D01*
X26887042Y27095646D01*
X26652994Y27275238D01*
X26397507Y27422743D01*
X26124952Y27535639D01*
X25839993Y27611993D01*
X25547506Y27650500D01*
X25252494Y27650500D01*
X24960007Y27611993D01*
X24675048Y27535639D01*
X24402493Y27422743D01*
X24402490Y27422741D01*
X24402489Y27422741D01*
X24147006Y27275238D01*
X23912959Y27095647D01*
X23912952Y27095641D01*
X23704358Y26887047D01*
X23704352Y26887040D01*
X23524761Y26652993D01*
X23377258Y26397510D01*
X23377254Y26397500D01*
X23264364Y26124961D01*
X23264362Y26124954D01*
X23264361Y26124952D01*
X23188007Y25839993D01*
X23188006Y25839984D01*
X23149500Y25547513D01*
X22350499Y25547513D01*
X22311993Y25839993D01*
X22235639Y26124952D01*
X22122743Y26397507D01*
X21975238Y26652994D01*
X21795646Y26887042D01*
X21587042Y27095646D01*
X21352994Y27275238D01*
X21097507Y27422743D01*
X20824952Y27535639D01*
X20539993Y27611993D01*
X20247506Y27650500D01*
X19952494Y27650500D01*
X19660007Y27611993D01*
X19375048Y27535639D01*
X19102493Y27422743D01*
X19102490Y27422741D01*
X19102489Y27422741D01*
X18847006Y27275238D01*
X18612959Y27095647D01*
X18612952Y27095641D01*
X18404358Y26887047D01*
X18404352Y26887040D01*
X18224761Y26652993D01*
X18077258Y26397510D01*
X18077254Y26397500D01*
X17987265Y26180247D01*
X17943424Y26125844D01*
X17877130Y26103779D01*
X17872704Y26103700D01*
X16821689Y26103700D01*
X16685743Y26076658D01*
X16685738Y26076657D01*
X16685733Y26076655D01*
X16557676Y26023613D01*
X16442414Y25946598D01*
X16341303Y25845487D01*
X16341274Y25845456D01*
X14957837Y24462019D01*
X14896514Y24428534D01*
X14870156Y24425700D01*
X13259862Y24425700D01*
X13192823Y24445385D01*
X13147068Y24498189D01*
X13140646Y24515588D01*
X13135132Y24534855D01*
X13117909Y24595049D01*
X13023698Y24775407D01*
X12895109Y24933109D01*
X12862121Y24960007D01*
X12793275Y25016144D01*
X12753757Y25073764D01*
X12751665Y25143603D01*
X12783954Y25199927D01*
X12828514Y25244487D01*
X12828517Y25244490D01*
X12967343Y25435567D01*
X12975000Y25450595D01*
X13022975Y25501391D01*
X13085485Y25518300D01*
X14335558Y25518300D01*
X14335578Y25518299D01*
X14341692Y25518299D01*
X14480310Y25518299D01*
X14616256Y25545341D01*
X14616264Y25545343D01*
X14744322Y25598386D01*
X14744323Y25598387D01*
X14744324Y25598387D01*
X14744327Y25598389D01*
X14751155Y25602951D01*
X14754618Y25605265D01*
X14859581Y25675398D01*
X14859582Y25675399D01*
X14860258Y25676075D01*
X14957600Y25773417D01*
X14957601Y25773419D01*
X14964667Y25780485D01*
X14964667Y25780484D01*
X14964670Y25780488D01*
X18084153Y28899971D01*
X18145476Y28933456D01*
X18215168Y28928472D01*
X18270210Y28887777D01*
X18404358Y28712952D01*
X18612952Y28504358D01*
X18612959Y28504352D01*
X18847006Y28324761D01*
X19102489Y28177258D01*
X19102499Y28177254D01*
X19375038Y28064364D01*
X19375048Y28064361D01*
X19660007Y27988007D01*
X19660015Y27988006D01*
X19952486Y27949500D01*
X19952494Y27949500D01*
X20247513Y27949500D01*
X20491113Y27981571D01*
X20539993Y27988007D01*
X20824952Y28064361D01*
X20824954Y28064362D01*
X20824961Y28064364D01*
X21097500Y28177254D01*
X21097510Y28177258D01*
X21352993Y28324761D01*
X21587040Y28504352D01*
X21587047Y28504358D01*
X21795641Y28712952D01*
X21795647Y28712959D01*
X21975238Y28947006D01*
X22122741Y29202489D01*
X22122745Y29202499D01*
X22162302Y29297996D01*
X22235639Y29475048D01*
X22311993Y29760007D01*
X22350500Y30052494D01*
X22350500Y30347506D01*
X22350499Y30347513D01*
X23149500Y30347513D01*
X23149500Y30052486D01*
X23173985Y29866514D01*
X23188007Y29760007D01*
X23216917Y29652114D01*
X23264361Y29475048D01*
X23264364Y29475038D01*
X23377254Y29202499D01*
X23377258Y29202489D01*
X23524761Y28947006D01*
X23704352Y28712959D01*
X23704358Y28712952D01*
X23912952Y28504358D01*
X23912959Y28504352D01*
X24147006Y28324761D01*
X24402489Y28177258D01*
X24402499Y28177254D01*
X24675038Y28064364D01*
X24675048Y28064361D01*
X24960007Y27988007D01*
X24960015Y27988006D01*
X25252486Y27949500D01*
X25252494Y27949500D01*
X25547513Y27949500D01*
X25791113Y27981571D01*
X25839993Y27988007D01*
X26124952Y28064361D01*
X26124954Y28064362D01*
X26124961Y28064364D01*
X26397500Y28177254D01*
X26397510Y28177258D01*
X26652993Y28324761D01*
X26887040Y28504352D01*
X26887047Y28504358D01*
X27095641Y28712952D01*
X27095647Y28712959D01*
X27275238Y28947006D01*
X27422741Y29202489D01*
X27422745Y29202499D01*
X27462302Y29297996D01*
X27535639Y29475048D01*
X27611993Y29760007D01*
X27650500Y30052494D01*
X27650500Y30347506D01*
X27650499Y30347513D01*
X28449500Y30347513D01*
X28449500Y30052486D01*
X28473985Y29866514D01*
X28488007Y29760007D01*
X28516917Y29652114D01*
X28564361Y29475048D01*
X28564364Y29475038D01*
X28677254Y29202499D01*
X28677258Y29202489D01*
X28824761Y28947006D01*
X29004352Y28712959D01*
X29004358Y28712952D01*
X29212952Y28504358D01*
X29212959Y28504352D01*
X29447006Y28324761D01*
X29702489Y28177258D01*
X29702499Y28177254D01*
X29975038Y28064364D01*
X29975048Y28064361D01*
X30260007Y27988007D01*
X30260015Y27988006D01*
X30552486Y27949500D01*
X30552494Y27949500D01*
X30847513Y27949500D01*
X31091113Y27981571D01*
X31139993Y27988007D01*
X31424952Y28064361D01*
X31424954Y28064362D01*
X31424961Y28064364D01*
X31697500Y28177254D01*
X31697510Y28177258D01*
X31952993Y28324761D01*
X32187040Y28504352D01*
X32187047Y28504358D01*
X32395641Y28712952D01*
X32395647Y28712959D01*
X32575238Y28947006D01*
X32722741Y29202489D01*
X32722745Y29202499D01*
X32762302Y29297996D01*
X32835639Y29475048D01*
X32911993Y29760007D01*
X32950500Y30052494D01*
X32950500Y30347506D01*
X32911993Y30639993D01*
X32835639Y30924952D01*
X32722743Y31197507D01*
X32575238Y31452994D01*
X32395646Y31687042D01*
X32187042Y31895646D01*
X31952994Y32075238D01*
X31697507Y32222743D01*
X31424952Y32335639D01*
X31139993Y32411993D01*
X30847506Y32450500D01*
X30552494Y32450500D01*
X30260007Y32411993D01*
X29975048Y32335639D01*
X29702493Y32222743D01*
X29702490Y32222741D01*
X29702489Y32222741D01*
X29447006Y32075238D01*
X29212959Y31895647D01*
X29212952Y31895641D01*
X29004358Y31687047D01*
X29004352Y31687040D01*
X28824761Y31452993D01*
X28677258Y31197510D01*
X28677254Y31197500D01*
X28564364Y30924961D01*
X28564363Y30924956D01*
X28564361Y30924952D01*
X28488007Y30639993D01*
X28488006Y30639984D01*
X28449500Y30347513D01*
X27650499Y30347513D01*
X27611993Y30639993D01*
X27535639Y30924952D01*
X27422743Y31197507D01*
X27275238Y31452994D01*
X27095646Y31687042D01*
X26887042Y31895646D01*
X26652994Y32075238D01*
X26397507Y32222743D01*
X26124952Y32335639D01*
X25839993Y32411993D01*
X25547506Y32450500D01*
X25252494Y32450500D01*
X24960007Y32411993D01*
X24675048Y32335639D01*
X24402493Y32222743D01*
X24402490Y32222741D01*
X24402489Y32222741D01*
X24147006Y32075238D01*
X23912959Y31895647D01*
X23912952Y31895641D01*
X23704358Y31687047D01*
X23704352Y31687040D01*
X23524761Y31452993D01*
X23377258Y31197510D01*
X23377254Y31197500D01*
X23264364Y30924961D01*
X23264363Y30924956D01*
X23264361Y30924952D01*
X23188007Y30639993D01*
X23188006Y30639984D01*
X23149500Y30347513D01*
X22350499Y30347513D01*
X22311993Y30639993D01*
X22235639Y30924952D01*
X22122743Y31197507D01*
X21975238Y31452994D01*
X21795646Y31687042D01*
X21587042Y31895646D01*
X21352994Y32075238D01*
X21097507Y32222743D01*
X20824952Y32335639D01*
X20539993Y32411993D01*
X20247506Y32450500D01*
X19952494Y32450500D01*
X19660007Y32411993D01*
X19375048Y32335639D01*
X19102493Y32222743D01*
X19102490Y32222741D01*
X19102489Y32222741D01*
X18847006Y32075238D01*
X18612959Y31895647D01*
X18612952Y31895641D01*
X18404358Y31687047D01*
X18404352Y31687040D01*
X18224761Y31452993D01*
X18077258Y31197510D01*
X18077254Y31197500D01*
X17964362Y30924956D01*
X17916443Y30746119D01*
X17884349Y30690532D01*
X14155837Y26962019D01*
X14094514Y26928534D01*
X14068156Y26925700D01*
X13085485Y26925700D01*
X13018446Y26945385D01*
X12975000Y26993405D01*
X12967343Y27008433D01*
X12828517Y27199510D01*
X12661510Y27366517D01*
X12654401Y27371682D01*
X12611735Y27427012D01*
X12605756Y27496625D01*
X12638362Y27558420D01*
X12654401Y27572318D01*
X12661506Y27577480D01*
X12661512Y27577485D01*
X12828514Y27744487D01*
X12828517Y27744490D01*
X12967343Y27935567D01*
X13072526Y28142000D01*
X13074566Y28146003D01*
X13084722Y28177258D01*
X13147553Y28370632D01*
X13184500Y28603902D01*
X13184500Y28840097D01*
X13147553Y29073368D01*
X13105599Y29202489D01*
X13074568Y29297992D01*
X12967343Y29508433D01*
X12828517Y29699510D01*
X12661510Y29866517D01*
X12654401Y29871682D01*
X12611735Y29927012D01*
X12605756Y29996625D01*
X12638362Y30058420D01*
X12654401Y30072318D01*
X12661506Y30077480D01*
X12661512Y30077485D01*
X12828514Y30244487D01*
X12828517Y30244490D01*
X12967343Y30435567D01*
X13071499Y30639984D01*
X13074566Y30646003D01*
X13147553Y30870631D01*
X13184500Y31103902D01*
X13184500Y31340097D01*
X13147553Y31573368D01*
X13074568Y31797992D01*
X12967343Y32008433D01*
X12828517Y32199510D01*
X12661510Y32366517D01*
X12470433Y32505343D01*
X12259992Y32612568D01*
X12035368Y32685553D01*
X11802097Y32722500D01*
X11802092Y32722500D01*
X11565908Y32722500D01*
X11565903Y32722500D01*
X11332631Y32685553D01*
X11228412Y32651689D01*
X11108008Y32612568D01*
X11108005Y32612566D01*
X11108003Y32612566D01*
X10996991Y32556002D01*
X10897567Y32505343D01*
X10706490Y32366517D01*
X10706487Y32366514D01*
X10626181Y32286208D01*
X10564858Y32252723D01*
X10495166Y32257707D01*
X10439233Y32299579D01*
X10414816Y32365043D01*
X10414500Y32373889D01*
X10414500Y33149500D01*
X10434185Y33216539D01*
X10486989Y33262294D01*
X10538500Y33273500D01*
X40261500Y33273500D01*
X40328539Y33253815D01*
G37*
%TD.AperFunction*%
%TA.AperFunction,Conductor*%
G36*
X39366000Y26575012D02*
G01*
X39308993Y26607925D01*
X39181826Y26642000D01*
X39050174Y26642000D01*
X38923007Y26607925D01*
X38866000Y26575012D01*
X38866000Y28208988D01*
X38923007Y28176075D01*
X39050174Y28142000D01*
X39181826Y28142000D01*
X39308993Y28176075D01*
X39366000Y28208988D01*
X39366000Y26575012D01*
G37*
%TD.AperFunction*%
%TD*%
M02*
