%TF.GenerationSoftware,KiCad,Pcbnew,9.0.2*%
%TF.CreationDate,2025-07-08T13:26:24-05:00*%
%TF.ProjectId,Large Mouse Distortion,4c617267-6520-44d6-9f75-736520446973,rev?*%
%TF.SameCoordinates,Original*%
%TF.FileFunction,Soldermask,Top*%
%TF.FilePolarity,Negative*%
%FSLAX46Y46*%
G04 Gerber Fmt 4.6, Leading zero omitted, Abs format (unit mm)*
G04 Created by KiCad (PCBNEW 9.0.2) date 2025-07-08 13:26:24*
%MOMM*%
%LPD*%
G01*
G04 APERTURE LIST*
G04 Aperture macros list*
%AMRoundRect*
0 Rectangle with rounded corners*
0 $1 Rounding radius*
0 $2 $3 $4 $5 $6 $7 $8 $9 X,Y pos of 4 corners*
0 Add a 4 corners polygon primitive as box body*
4,1,4,$2,$3,$4,$5,$6,$7,$8,$9,$2,$3,0*
0 Add four circle primitives for the rounded corners*
1,1,$1+$1,$2,$3*
1,1,$1+$1,$4,$5*
1,1,$1+$1,$6,$7*
1,1,$1+$1,$8,$9*
0 Add four rect primitives between the rounded corners*
20,1,$1+$1,$2,$3,$4,$5,0*
20,1,$1+$1,$4,$5,$6,$7,0*
20,1,$1+$1,$6,$7,$8,$9,0*
20,1,$1+$1,$8,$9,$2,$3,0*%
G04 Aperture macros list end*
%ADD10C,1.600000*%
%ADD11C,2.000000*%
%ADD12R,2.000000X2.000000*%
%ADD13RoundRect,0.500000X-0.500000X0.500000X-0.500000X-0.500000X0.500000X-0.500000X0.500000X0.500000X0*%
%ADD14R,1.600000X1.600000*%
%ADD15R,1.800000X1.800000*%
%ADD16C,1.800000*%
%ADD17C,1.400000*%
%ADD18RoundRect,0.500000X0.500000X-0.500000X0.500000X0.500000X-0.500000X0.500000X-0.500000X-0.500000X0*%
%ADD19C,2.400000*%
%ADD20R,2.400000X2.400000*%
%ADD21RoundRect,0.500000X0.500000X0.500000X-0.500000X0.500000X-0.500000X-0.500000X0.500000X-0.500000X0*%
%ADD22RoundRect,0.400000X0.400000X0.400000X-0.400000X0.400000X-0.400000X-0.400000X0.400000X-0.400000X0*%
%ADD23C,2.500000*%
G04 APERTURE END LIST*
D10*
%TO.C,R17*%
X54168000Y109118400D03*
X43368000Y109118400D03*
%TD*%
%TO.C,R6*%
X41590000Y68681600D03*
X52390000Y68681600D03*
%TD*%
D11*
%TO.C,D2*%
X33926000Y65252600D03*
D12*
X26526000Y65252600D03*
%TD*%
D13*
%TO.C,J1*%
X16510000Y37492000D03*
D11*
X16510000Y34992000D03*
X16510000Y32492000D03*
X16510000Y29992000D03*
%TD*%
D10*
%TO.C,R18*%
X26400800Y109220000D03*
X37200800Y109220000D03*
%TD*%
%TO.C,R19*%
X24826000Y43815000D03*
X35626000Y43815000D03*
%TD*%
D14*
%TO.C,U1*%
X7366000Y74011400D03*
D10*
X7366000Y71471400D03*
X7366000Y68931400D03*
X7366000Y66391400D03*
X14986000Y66391400D03*
X14986000Y68931400D03*
X14986000Y71471400D03*
X14986000Y74011400D03*
%TD*%
D14*
%TO.C,C1*%
X20015200Y90204800D03*
D10*
X20015200Y88204800D03*
%TD*%
D15*
%TO.C,C10*%
X37058600Y103764400D03*
D16*
X37058600Y101264400D03*
%TD*%
D10*
%TO.C,R20*%
X37200800Y113030000D03*
X26400800Y113030000D03*
%TD*%
D14*
%TO.C,C5*%
X20116800Y96605600D03*
D10*
X20116800Y94605600D03*
%TD*%
D17*
%TO.C,C6*%
X13716000Y61087000D03*
X8636000Y61087000D03*
%TD*%
D11*
%TO.C,D1*%
X26526000Y69723000D03*
D12*
X33926000Y69723000D03*
%TD*%
D10*
%TO.C,R1*%
X15204400Y93014800D03*
X4404400Y93014800D03*
%TD*%
%TO.C,R7*%
X52390000Y73064990D03*
X41590000Y73064990D03*
%TD*%
%TO.C,R2*%
X15280600Y97459800D03*
X4480600Y97459800D03*
%TD*%
D17*
%TO.C,C4*%
X13676000Y48285400D03*
X8676000Y48285400D03*
%TD*%
D10*
%TO.C,R8*%
X16576000Y44119800D03*
X5776000Y44119800D03*
%TD*%
%TO.C,R12*%
X5776000Y52578000D03*
X16576000Y52578000D03*
%TD*%
%TO.C,C8*%
X48240000Y55753000D03*
X45740000Y55753000D03*
%TD*%
%TO.C,R3*%
X24826000Y73990200D03*
X35626000Y73990200D03*
%TD*%
D18*
%TO.C,J2*%
X43942000Y30072000D03*
D11*
X43942000Y32572000D03*
X43942000Y35072000D03*
X43942000Y37572000D03*
%TD*%
D13*
%TO.C,J5*%
X52832000Y35012000D03*
D11*
X52832000Y32512000D03*
%TD*%
D10*
%TO.C,R4*%
X52390000Y60121800D03*
X41590000Y60121800D03*
%TD*%
D19*
%TO.C,D4*%
X43588000Y104140000D03*
D20*
X53948000Y104140000D03*
%TD*%
D14*
%TO.C,C7*%
X21945600Y79044800D03*
D10*
X21945600Y77044800D03*
%TD*%
D14*
%TO.C,C12*%
X40005000Y84718400D03*
D10*
X40005000Y82718400D03*
%TD*%
D17*
%TO.C,C9*%
X49490000Y64389000D03*
X44490000Y64389000D03*
%TD*%
D10*
%TO.C,Q1*%
X49530000Y78105000D03*
X46990000Y78105000D03*
X44450000Y78105000D03*
%TD*%
D14*
%TO.C,C11*%
X26389800Y103541400D03*
D10*
X26389800Y101541400D03*
%TD*%
%TO.C,R5*%
X5776000Y56819800D03*
X16576000Y56819800D03*
%TD*%
D17*
%TO.C,C2*%
X9906000Y78994000D03*
X12446000Y78994000D03*
%TD*%
D21*
%TO.C,J3*%
X50506000Y114537000D03*
D11*
X48006000Y114537000D03*
%TD*%
D18*
%TO.C,J4*%
X7620000Y30012000D03*
D11*
X7620000Y32512000D03*
%TD*%
D10*
%TO.C,C3*%
X9926000Y83007200D03*
X12426000Y83007200D03*
%TD*%
%TO.C,D3*%
X31496000Y49530000D03*
D22*
X28956000Y49530000D03*
%TD*%
D23*
%TO.C,RV3*%
X56181000Y88140000D03*
X51181000Y88140000D03*
X46181000Y88140000D03*
%TD*%
%TO.C,RV2*%
X35226000Y60200000D03*
X30226000Y60200000D03*
X25226000Y60200000D03*
%TD*%
%TO.C,RV1*%
X14271000Y88140000D03*
X9271000Y88140000D03*
X4271000Y88140000D03*
%TD*%
M02*
