M48
; DRILL file {KiCad 9.0.2} date 2025-07-08T13:26:27-0500
; FORMAT={-:-/ absolute / metric / decimal}
; #@! TF.CreationDate,2025-07-08T13:26:27-05:00
; #@! TF.GenerationSoftware,Kicad,Pcbnew,9.0.2
; #@! TF.FileFunction,Plated,1,2,PTH
FMAT,2
METRIC
; #@! TA.AperFunction,Plated,PTH,ViaDrill
T1C0.305
; #@! TA.AperFunction,Plated,PTH,ComponentDrill
T2C0.700
; #@! TA.AperFunction,Plated,PTH,ComponentDrill
T3C0.800
; #@! TA.AperFunction,Plated,PTH,ComponentDrill
T4C0.900
; #@! TA.AperFunction,Plated,PTH,ComponentDrill
T5C1.000
; #@! TA.AperFunction,Plated,PTH,ComponentDrill
T6C1.100
; #@! TA.AperFunction,Plated,PTH,ComponentDrill
T7C1.200
%
G90
G05
T1
X34.493Y83.058
X34.493Y80.391
T2
X8.636Y61.087
X8.676Y48.285
X9.906Y78.994
X12.446Y78.994
X13.676Y48.285
X13.716Y61.087
X44.49Y64.389
X49.49Y64.389
T3
X4.404Y93.015
X4.481Y97.46
X5.776Y56.82
X5.776Y52.578
X5.776Y44.12
X9.926Y83.007
X12.426Y83.007
X15.204Y93.015
X15.281Y97.46
X16.576Y56.82
X16.576Y52.578
X16.576Y44.12
X20.015Y90.205
X20.015Y88.205
X20.117Y96.606
X20.117Y94.606
X21.946Y79.045
X21.946Y77.045
X24.826Y73.99
X24.826Y43.815
X26.39Y103.541
X26.39Y101.541
X26.401Y113.03
X26.401Y109.22
X28.956Y49.53
X31.496Y49.53
X35.626Y73.99
X35.626Y43.815
X37.201Y113.03
X37.201Y109.22
X40.005Y84.718
X40.005Y82.718
X41.59Y73.065
X41.59Y68.682
X41.59Y60.122
X43.368Y109.118
X44.45Y78.105
X45.74Y55.753
X46.99Y78.105
X48.24Y55.753
X49.53Y78.105
X52.39Y73.065
X52.39Y68.682
X52.39Y60.122
X54.168Y109.118
T4
X7.366Y74.011
X7.366Y71.471
X7.366Y68.931
X7.366Y66.391
X14.986Y74.011
X14.986Y71.471
X14.986Y68.931
X14.986Y66.391
X37.059Y103.764
X37.059Y101.264
T5
X7.62Y32.512
X7.62Y30.012
X16.51Y37.492
X16.51Y34.992
X16.51Y32.492
X16.51Y29.992
X43.942Y37.572
X43.942Y35.072
X43.942Y32.572
X43.942Y30.072
X48.006Y114.537
X50.506Y114.537
X52.832Y35.012
X52.832Y32.512
T6
X26.526Y69.723
X26.526Y65.253
X33.926Y69.723
X33.926Y65.253
T7
X4.271Y88.14
X9.271Y88.14
X14.271Y88.14
X25.226Y60.2
X30.226Y60.2
X35.226Y60.2
X43.588Y104.14
X46.181Y88.14
X51.181Y88.14
X53.948Y104.14
X56.181Y88.14
M30
