%TF.GenerationSoftware,KiCad,Pcbnew,9.0.2*%
%TF.CreationDate,2025-07-08T13:26:24-05:00*%
%TF.ProjectId,Large Mouse Distortion,4c617267-6520-44d6-9f75-736520446973,rev?*%
%TF.SameCoordinates,Original*%
%TF.FileFunction,Legend,Bot*%
%TF.FilePolarity,Positive*%
%FSLAX46Y46*%
G04 Gerber Fmt 4.6, Leading zero omitted, Abs format (unit mm)*
G04 Created by KiCad (PCBNEW 9.0.2) date 2025-07-08 13:26:24*
%MOMM*%
%LPD*%
G01*
G04 APERTURE LIST*
%ADD10C,0.152400*%
%ADD11C,0.150000*%
%ADD12C,0.200000*%
G04 APERTURE END LIST*
D10*
X46939200Y35392910D02*
X46803733Y35392910D01*
X46803733Y35392910D02*
X46736000Y35359043D01*
X46736000Y35359043D02*
X46668266Y35291310D01*
X46668266Y35291310D02*
X46634400Y35155843D01*
X46634400Y35155843D02*
X46634400Y34918777D01*
X46634400Y34918777D02*
X46668266Y34783310D01*
X46668266Y34783310D02*
X46736000Y34715577D01*
X46736000Y34715577D02*
X46803733Y34681710D01*
X46803733Y34681710D02*
X46939200Y34681710D01*
X46939200Y34681710D02*
X47006933Y34715577D01*
X47006933Y34715577D02*
X47074666Y34783310D01*
X47074666Y34783310D02*
X47108533Y34918777D01*
X47108533Y34918777D02*
X47108533Y35155843D01*
X47108533Y35155843D02*
X47074666Y35291310D01*
X47074666Y35291310D02*
X47006933Y35359043D01*
X47006933Y35359043D02*
X46939200Y35392910D01*
X46329599Y35392910D02*
X46329599Y34817177D01*
X46329599Y34817177D02*
X46295733Y34749443D01*
X46295733Y34749443D02*
X46261866Y34715577D01*
X46261866Y34715577D02*
X46194133Y34681710D01*
X46194133Y34681710D02*
X46058666Y34681710D01*
X46058666Y34681710D02*
X45990933Y34715577D01*
X45990933Y34715577D02*
X45957066Y34749443D01*
X45957066Y34749443D02*
X45923199Y34817177D01*
X45923199Y34817177D02*
X45923199Y35392910D01*
X45686132Y35392910D02*
X45279732Y35392910D01*
X45482932Y34681710D02*
X45482932Y35392910D01*
X14765866Y32859043D02*
X14833599Y32892910D01*
X14833599Y32892910D02*
X14935199Y32892910D01*
X14935199Y32892910D02*
X15036799Y32859043D01*
X15036799Y32859043D02*
X15104533Y32791310D01*
X15104533Y32791310D02*
X15138399Y32723577D01*
X15138399Y32723577D02*
X15172266Y32588110D01*
X15172266Y32588110D02*
X15172266Y32486510D01*
X15172266Y32486510D02*
X15138399Y32351043D01*
X15138399Y32351043D02*
X15104533Y32283310D01*
X15104533Y32283310D02*
X15036799Y32215577D01*
X15036799Y32215577D02*
X14935199Y32181710D01*
X14935199Y32181710D02*
X14867466Y32181710D01*
X14867466Y32181710D02*
X14765866Y32215577D01*
X14765866Y32215577D02*
X14731999Y32249443D01*
X14731999Y32249443D02*
X14731999Y32486510D01*
X14731999Y32486510D02*
X14867466Y32486510D01*
X14427199Y32181710D02*
X14427199Y32892910D01*
X14427199Y32892910D02*
X14020799Y32181710D01*
X14020799Y32181710D02*
X14020799Y32892910D01*
X13682132Y32181710D02*
X13682132Y32892910D01*
X13682132Y32892910D02*
X13512799Y32892910D01*
X13512799Y32892910D02*
X13411199Y32859043D01*
X13411199Y32859043D02*
X13343466Y32791310D01*
X13343466Y32791310D02*
X13309599Y32723577D01*
X13309599Y32723577D02*
X13275732Y32588110D01*
X13275732Y32588110D02*
X13275732Y32486510D01*
X13275732Y32486510D02*
X13309599Y32351043D01*
X13309599Y32351043D02*
X13343466Y32283310D01*
X13343466Y32283310D02*
X13411199Y32215577D01*
X13411199Y32215577D02*
X13512799Y32181710D01*
X13512799Y32181710D02*
X13682132Y32181710D01*
X10278533Y29701710D02*
X10278533Y30412910D01*
X9939866Y29701710D02*
X9939866Y30412910D01*
X9939866Y30412910D02*
X9533466Y29701710D01*
X9533466Y29701710D02*
X9533466Y30412910D01*
X14596533Y29761710D02*
X14596533Y30472910D01*
X14257866Y29761710D02*
X14257866Y30472910D01*
X14257866Y30472910D02*
X13851466Y29761710D01*
X13851466Y29761710D02*
X13851466Y30472910D01*
X15155333Y37215577D02*
X15053733Y37181710D01*
X15053733Y37181710D02*
X14884400Y37181710D01*
X14884400Y37181710D02*
X14816666Y37215577D01*
X14816666Y37215577D02*
X14782800Y37249443D01*
X14782800Y37249443D02*
X14748933Y37317177D01*
X14748933Y37317177D02*
X14748933Y37384910D01*
X14748933Y37384910D02*
X14782800Y37452643D01*
X14782800Y37452643D02*
X14816666Y37486510D01*
X14816666Y37486510D02*
X14884400Y37520377D01*
X14884400Y37520377D02*
X15019866Y37554243D01*
X15019866Y37554243D02*
X15087600Y37588110D01*
X15087600Y37588110D02*
X15121466Y37621977D01*
X15121466Y37621977D02*
X15155333Y37689710D01*
X15155333Y37689710D02*
X15155333Y37757443D01*
X15155333Y37757443D02*
X15121466Y37825177D01*
X15121466Y37825177D02*
X15087600Y37859043D01*
X15087600Y37859043D02*
X15019866Y37892910D01*
X15019866Y37892910D02*
X14850533Y37892910D01*
X14850533Y37892910D02*
X14748933Y37859043D01*
X14444133Y37181710D02*
X14444133Y37892910D01*
X14444133Y37892910D02*
X14037733Y37181710D01*
X14037733Y37181710D02*
X14037733Y37892910D01*
X13699066Y37181710D02*
X13699066Y37892910D01*
X13699066Y37892910D02*
X13529733Y37892910D01*
X13529733Y37892910D02*
X13428133Y37859043D01*
X13428133Y37859043D02*
X13360400Y37791310D01*
X13360400Y37791310D02*
X13326533Y37723577D01*
X13326533Y37723577D02*
X13292666Y37588110D01*
X13292666Y37588110D02*
X13292666Y37486510D01*
X13292666Y37486510D02*
X13326533Y37351043D01*
X13326533Y37351043D02*
X13360400Y37283310D01*
X13360400Y37283310D02*
X13428133Y37215577D01*
X13428133Y37215577D02*
X13529733Y37181710D01*
X13529733Y37181710D02*
X13699066Y37181710D01*
X51087866Y32879043D02*
X51155599Y32912910D01*
X51155599Y32912910D02*
X51257199Y32912910D01*
X51257199Y32912910D02*
X51358799Y32879043D01*
X51358799Y32879043D02*
X51426533Y32811310D01*
X51426533Y32811310D02*
X51460399Y32743577D01*
X51460399Y32743577D02*
X51494266Y32608110D01*
X51494266Y32608110D02*
X51494266Y32506510D01*
X51494266Y32506510D02*
X51460399Y32371043D01*
X51460399Y32371043D02*
X51426533Y32303310D01*
X51426533Y32303310D02*
X51358799Y32235577D01*
X51358799Y32235577D02*
X51257199Y32201710D01*
X51257199Y32201710D02*
X51189466Y32201710D01*
X51189466Y32201710D02*
X51087866Y32235577D01*
X51087866Y32235577D02*
X51053999Y32269443D01*
X51053999Y32269443D02*
X51053999Y32506510D01*
X51053999Y32506510D02*
X51189466Y32506510D01*
X50749199Y32201710D02*
X50749199Y32912910D01*
X50749199Y32912910D02*
X50342799Y32201710D01*
X50342799Y32201710D02*
X50342799Y32912910D01*
X50004132Y32201710D02*
X50004132Y32912910D01*
X50004132Y32912910D02*
X49834799Y32912910D01*
X49834799Y32912910D02*
X49733199Y32879043D01*
X49733199Y32879043D02*
X49665466Y32811310D01*
X49665466Y32811310D02*
X49631599Y32743577D01*
X49631599Y32743577D02*
X49597732Y32608110D01*
X49597732Y32608110D02*
X49597732Y32506510D01*
X49597732Y32506510D02*
X49631599Y32371043D01*
X49631599Y32371043D02*
X49665466Y32303310D01*
X49665466Y32303310D02*
X49733199Y32235577D01*
X49733199Y32235577D02*
X49834799Y32201710D01*
X49834799Y32201710D02*
X50004132Y32201710D01*
X51257200Y35412910D02*
X51121733Y35412910D01*
X51121733Y35412910D02*
X51054000Y35379043D01*
X51054000Y35379043D02*
X50986266Y35311310D01*
X50986266Y35311310D02*
X50952400Y35175843D01*
X50952400Y35175843D02*
X50952400Y34938777D01*
X50952400Y34938777D02*
X50986266Y34803310D01*
X50986266Y34803310D02*
X51054000Y34735577D01*
X51054000Y34735577D02*
X51121733Y34701710D01*
X51121733Y34701710D02*
X51257200Y34701710D01*
X51257200Y34701710D02*
X51324933Y34735577D01*
X51324933Y34735577D02*
X51392666Y34803310D01*
X51392666Y34803310D02*
X51426533Y34938777D01*
X51426533Y34938777D02*
X51426533Y35175843D01*
X51426533Y35175843D02*
X51392666Y35311310D01*
X51392666Y35311310D02*
X51324933Y35379043D01*
X51324933Y35379043D02*
X51257200Y35412910D01*
X50647599Y35412910D02*
X50647599Y34837177D01*
X50647599Y34837177D02*
X50613733Y34769443D01*
X50613733Y34769443D02*
X50579866Y34735577D01*
X50579866Y34735577D02*
X50512133Y34701710D01*
X50512133Y34701710D02*
X50376666Y34701710D01*
X50376666Y34701710D02*
X50308933Y34735577D01*
X50308933Y34735577D02*
X50275066Y34769443D01*
X50275066Y34769443D02*
X50241199Y34837177D01*
X50241199Y34837177D02*
X50241199Y35412910D01*
X50004132Y35412910D02*
X49597732Y35412910D01*
X49800932Y34701710D02*
X49800932Y35412910D01*
X10447866Y32879043D02*
X10515599Y32912910D01*
X10515599Y32912910D02*
X10617199Y32912910D01*
X10617199Y32912910D02*
X10718799Y32879043D01*
X10718799Y32879043D02*
X10786533Y32811310D01*
X10786533Y32811310D02*
X10820399Y32743577D01*
X10820399Y32743577D02*
X10854266Y32608110D01*
X10854266Y32608110D02*
X10854266Y32506510D01*
X10854266Y32506510D02*
X10820399Y32371043D01*
X10820399Y32371043D02*
X10786533Y32303310D01*
X10786533Y32303310D02*
X10718799Y32235577D01*
X10718799Y32235577D02*
X10617199Y32201710D01*
X10617199Y32201710D02*
X10549466Y32201710D01*
X10549466Y32201710D02*
X10447866Y32235577D01*
X10447866Y32235577D02*
X10413999Y32269443D01*
X10413999Y32269443D02*
X10413999Y32506510D01*
X10413999Y32506510D02*
X10549466Y32506510D01*
X10109199Y32201710D02*
X10109199Y32912910D01*
X10109199Y32912910D02*
X9702799Y32201710D01*
X9702799Y32201710D02*
X9702799Y32912910D01*
X9364132Y32201710D02*
X9364132Y32912910D01*
X9364132Y32912910D02*
X9194799Y32912910D01*
X9194799Y32912910D02*
X9093199Y32879043D01*
X9093199Y32879043D02*
X9025466Y32811310D01*
X9025466Y32811310D02*
X8991599Y32743577D01*
X8991599Y32743577D02*
X8957732Y32608110D01*
X8957732Y32608110D02*
X8957732Y32506510D01*
X8957732Y32506510D02*
X8991599Y32371043D01*
X8991599Y32371043D02*
X9025466Y32303310D01*
X9025466Y32303310D02*
X9093199Y32235577D01*
X9093199Y32235577D02*
X9194799Y32201710D01*
X9194799Y32201710D02*
X9364132Y32201710D01*
X48547866Y117080043D02*
X48615599Y117113910D01*
X48615599Y117113910D02*
X48717199Y117113910D01*
X48717199Y117113910D02*
X48818799Y117080043D01*
X48818799Y117080043D02*
X48886533Y117012310D01*
X48886533Y117012310D02*
X48920399Y116944577D01*
X48920399Y116944577D02*
X48954266Y116809110D01*
X48954266Y116809110D02*
X48954266Y116707510D01*
X48954266Y116707510D02*
X48920399Y116572043D01*
X48920399Y116572043D02*
X48886533Y116504310D01*
X48886533Y116504310D02*
X48818799Y116436577D01*
X48818799Y116436577D02*
X48717199Y116402710D01*
X48717199Y116402710D02*
X48649466Y116402710D01*
X48649466Y116402710D02*
X48547866Y116436577D01*
X48547866Y116436577D02*
X48513999Y116470443D01*
X48513999Y116470443D02*
X48513999Y116707510D01*
X48513999Y116707510D02*
X48649466Y116707510D01*
X48209199Y116402710D02*
X48209199Y117113910D01*
X48209199Y117113910D02*
X47802799Y116402710D01*
X47802799Y116402710D02*
X47802799Y117113910D01*
X47464132Y116402710D02*
X47464132Y117113910D01*
X47464132Y117113910D02*
X47294799Y117113910D01*
X47294799Y117113910D02*
X47193199Y117080043D01*
X47193199Y117080043D02*
X47125466Y117012310D01*
X47125466Y117012310D02*
X47091599Y116944577D01*
X47091599Y116944577D02*
X47057732Y116809110D01*
X47057732Y116809110D02*
X47057732Y116707510D01*
X47057732Y116707510D02*
X47091599Y116572043D01*
X47091599Y116572043D02*
X47125466Y116504310D01*
X47125466Y116504310D02*
X47193199Y116436577D01*
X47193199Y116436577D02*
X47294799Y116402710D01*
X47294799Y116402710D02*
X47464132Y116402710D01*
X46600533Y37181710D02*
X46837600Y37520377D01*
X47006933Y37181710D02*
X47006933Y37892910D01*
X47006933Y37892910D02*
X46736000Y37892910D01*
X46736000Y37892910D02*
X46668267Y37859043D01*
X46668267Y37859043D02*
X46634400Y37825177D01*
X46634400Y37825177D02*
X46600533Y37757443D01*
X46600533Y37757443D02*
X46600533Y37655843D01*
X46600533Y37655843D02*
X46634400Y37588110D01*
X46634400Y37588110D02*
X46668267Y37554243D01*
X46668267Y37554243D02*
X46736000Y37520377D01*
X46736000Y37520377D02*
X47006933Y37520377D01*
X46295733Y37554243D02*
X46058667Y37554243D01*
X45957067Y37181710D02*
X46295733Y37181710D01*
X46295733Y37181710D02*
X46295733Y37892910D01*
X46295733Y37892910D02*
X45957067Y37892910D01*
X45753866Y37892910D02*
X45347466Y37892910D01*
X45550666Y37181710D02*
X45550666Y37892910D01*
X46769866Y32859043D02*
X46837599Y32892910D01*
X46837599Y32892910D02*
X46939199Y32892910D01*
X46939199Y32892910D02*
X47040799Y32859043D01*
X47040799Y32859043D02*
X47108533Y32791310D01*
X47108533Y32791310D02*
X47142399Y32723577D01*
X47142399Y32723577D02*
X47176266Y32588110D01*
X47176266Y32588110D02*
X47176266Y32486510D01*
X47176266Y32486510D02*
X47142399Y32351043D01*
X47142399Y32351043D02*
X47108533Y32283310D01*
X47108533Y32283310D02*
X47040799Y32215577D01*
X47040799Y32215577D02*
X46939199Y32181710D01*
X46939199Y32181710D02*
X46871466Y32181710D01*
X46871466Y32181710D02*
X46769866Y32215577D01*
X46769866Y32215577D02*
X46735999Y32249443D01*
X46735999Y32249443D02*
X46735999Y32486510D01*
X46735999Y32486510D02*
X46871466Y32486510D01*
X46431199Y32181710D02*
X46431199Y32892910D01*
X46431199Y32892910D02*
X46024799Y32181710D01*
X46024799Y32181710D02*
X46024799Y32892910D01*
X45686132Y32181710D02*
X45686132Y32892910D01*
X45686132Y32892910D02*
X45516799Y32892910D01*
X45516799Y32892910D02*
X45415199Y32859043D01*
X45415199Y32859043D02*
X45347466Y32791310D01*
X45347466Y32791310D02*
X45313599Y32723577D01*
X45313599Y32723577D02*
X45279732Y32588110D01*
X45279732Y32588110D02*
X45279732Y32486510D01*
X45279732Y32486510D02*
X45313599Y32351043D01*
X45313599Y32351043D02*
X45347466Y32283310D01*
X45347466Y32283310D02*
X45415199Y32215577D01*
X45415199Y32215577D02*
X45516799Y32181710D01*
X45516799Y32181710D02*
X45686132Y32181710D01*
X14765866Y35359043D02*
X14833599Y35392910D01*
X14833599Y35392910D02*
X14935199Y35392910D01*
X14935199Y35392910D02*
X15036799Y35359043D01*
X15036799Y35359043D02*
X15104533Y35291310D01*
X15104533Y35291310D02*
X15138399Y35223577D01*
X15138399Y35223577D02*
X15172266Y35088110D01*
X15172266Y35088110D02*
X15172266Y34986510D01*
X15172266Y34986510D02*
X15138399Y34851043D01*
X15138399Y34851043D02*
X15104533Y34783310D01*
X15104533Y34783310D02*
X15036799Y34715577D01*
X15036799Y34715577D02*
X14935199Y34681710D01*
X14935199Y34681710D02*
X14867466Y34681710D01*
X14867466Y34681710D02*
X14765866Y34715577D01*
X14765866Y34715577D02*
X14731999Y34749443D01*
X14731999Y34749443D02*
X14731999Y34986510D01*
X14731999Y34986510D02*
X14867466Y34986510D01*
X14427199Y34681710D02*
X14427199Y35392910D01*
X14427199Y35392910D02*
X14020799Y34681710D01*
X14020799Y34681710D02*
X14020799Y35392910D01*
X13682132Y34681710D02*
X13682132Y35392910D01*
X13682132Y35392910D02*
X13512799Y35392910D01*
X13512799Y35392910D02*
X13411199Y35359043D01*
X13411199Y35359043D02*
X13343466Y35291310D01*
X13343466Y35291310D02*
X13309599Y35223577D01*
X13309599Y35223577D02*
X13275732Y35088110D01*
X13275732Y35088110D02*
X13275732Y34986510D01*
X13275732Y34986510D02*
X13309599Y34851043D01*
X13309599Y34851043D02*
X13343466Y34783310D01*
X13343466Y34783310D02*
X13411199Y34715577D01*
X13411199Y34715577D02*
X13512799Y34681710D01*
X13512799Y34681710D02*
X13682132Y34681710D01*
X46448133Y29761710D02*
X46786799Y29761710D01*
X46786799Y29761710D02*
X46786799Y30472910D01*
X46211066Y30032643D02*
X45669200Y30032643D01*
X45940133Y29761710D02*
X45940133Y30303577D01*
X50946266Y116402710D02*
X50810799Y116402710D01*
X50810799Y116402710D02*
X50743066Y116436577D01*
X50743066Y116436577D02*
X50709199Y116470443D01*
X50709199Y116470443D02*
X50641466Y116572043D01*
X50641466Y116572043D02*
X50607599Y116707510D01*
X50607599Y116707510D02*
X50607599Y116978443D01*
X50607599Y116978443D02*
X50641466Y117046177D01*
X50641466Y117046177D02*
X50675332Y117080043D01*
X50675332Y117080043D02*
X50743066Y117113910D01*
X50743066Y117113910D02*
X50878532Y117113910D01*
X50878532Y117113910D02*
X50946266Y117080043D01*
X50946266Y117080043D02*
X50980132Y117046177D01*
X50980132Y117046177D02*
X51013999Y116978443D01*
X51013999Y116978443D02*
X51013999Y116809110D01*
X51013999Y116809110D02*
X50980132Y116741377D01*
X50980132Y116741377D02*
X50946266Y116707510D01*
X50946266Y116707510D02*
X50878532Y116673643D01*
X50878532Y116673643D02*
X50743066Y116673643D01*
X50743066Y116673643D02*
X50675332Y116707510D01*
X50675332Y116707510D02*
X50641466Y116741377D01*
X50641466Y116741377D02*
X50607599Y116809110D01*
X50404399Y117113910D02*
X50167333Y116402710D01*
X50167333Y116402710D02*
X49930266Y117113910D01*
D11*
X31159697Y52795180D02*
X31159697Y53795180D01*
X31159697Y53795180D02*
X30921602Y53795180D01*
X30921602Y53795180D02*
X30778745Y53747561D01*
X30778745Y53747561D02*
X30683507Y53652323D01*
X30683507Y53652323D02*
X30635888Y53557085D01*
X30635888Y53557085D02*
X30588269Y53366609D01*
X30588269Y53366609D02*
X30588269Y53223752D01*
X30588269Y53223752D02*
X30635888Y53033276D01*
X30635888Y53033276D02*
X30683507Y52938038D01*
X30683507Y52938038D02*
X30778745Y52842800D01*
X30778745Y52842800D02*
X30921602Y52795180D01*
X30921602Y52795180D02*
X31159697Y52795180D01*
X30254935Y53795180D02*
X29635888Y53795180D01*
X29635888Y53795180D02*
X29969221Y53414228D01*
X29969221Y53414228D02*
X29826364Y53414228D01*
X29826364Y53414228D02*
X29731126Y53366609D01*
X29731126Y53366609D02*
X29683507Y53318990D01*
X29683507Y53318990D02*
X29635888Y53223752D01*
X29635888Y53223752D02*
X29635888Y52985657D01*
X29635888Y52985657D02*
X29683507Y52890419D01*
X29683507Y52890419D02*
X29731126Y52842800D01*
X29731126Y52842800D02*
X29826364Y52795180D01*
X29826364Y52795180D02*
X30112078Y52795180D01*
X30112078Y52795180D02*
X30207316Y52842800D01*
X30207316Y52842800D02*
X30254935Y52890419D01*
X46975638Y111889380D02*
X47308971Y112365571D01*
X47547066Y111889380D02*
X47547066Y112889380D01*
X47547066Y112889380D02*
X47166114Y112889380D01*
X47166114Y112889380D02*
X47070876Y112841761D01*
X47070876Y112841761D02*
X47023257Y112794142D01*
X47023257Y112794142D02*
X46975638Y112698904D01*
X46975638Y112698904D02*
X46975638Y112556047D01*
X46975638Y112556047D02*
X47023257Y112460809D01*
X47023257Y112460809D02*
X47070876Y112413190D01*
X47070876Y112413190D02*
X47166114Y112365571D01*
X47166114Y112365571D02*
X47547066Y112365571D01*
X46689923Y112889380D02*
X46356590Y111889380D01*
X46356590Y111889380D02*
X46023257Y112889380D01*
X45785161Y112889380D02*
X45166114Y112889380D01*
X45166114Y112889380D02*
X45499447Y112508428D01*
X45499447Y112508428D02*
X45356590Y112508428D01*
X45356590Y112508428D02*
X45261352Y112460809D01*
X45261352Y112460809D02*
X45213733Y112413190D01*
X45213733Y112413190D02*
X45166114Y112317952D01*
X45166114Y112317952D02*
X45166114Y112079857D01*
X45166114Y112079857D02*
X45213733Y111984619D01*
X45213733Y111984619D02*
X45261352Y111937000D01*
X45261352Y111937000D02*
X45356590Y111889380D01*
X45356590Y111889380D02*
X45642304Y111889380D01*
X45642304Y111889380D02*
X45737542Y111937000D01*
X45737542Y111937000D02*
X45785161Y111984619D01*
X30821238Y84545180D02*
X31154571Y85021371D01*
X31392666Y84545180D02*
X31392666Y85545180D01*
X31392666Y85545180D02*
X31011714Y85545180D01*
X31011714Y85545180D02*
X30916476Y85497561D01*
X30916476Y85497561D02*
X30868857Y85449942D01*
X30868857Y85449942D02*
X30821238Y85354704D01*
X30821238Y85354704D02*
X30821238Y85211847D01*
X30821238Y85211847D02*
X30868857Y85116609D01*
X30868857Y85116609D02*
X30916476Y85068990D01*
X30916476Y85068990D02*
X31011714Y85021371D01*
X31011714Y85021371D02*
X31392666Y85021371D01*
X30535523Y85545180D02*
X30202190Y84545180D01*
X30202190Y84545180D02*
X29868857Y85545180D01*
X29583142Y85449942D02*
X29535523Y85497561D01*
X29535523Y85497561D02*
X29440285Y85545180D01*
X29440285Y85545180D02*
X29202190Y85545180D01*
X29202190Y85545180D02*
X29106952Y85497561D01*
X29106952Y85497561D02*
X29059333Y85449942D01*
X29059333Y85449942D02*
X29011714Y85354704D01*
X29011714Y85354704D02*
X29011714Y85259466D01*
X29011714Y85259466D02*
X29059333Y85116609D01*
X29059333Y85116609D02*
X29630761Y84545180D01*
X29630761Y84545180D02*
X29011714Y84545180D01*
X9866238Y112485180D02*
X10199571Y112961371D01*
X10437666Y112485180D02*
X10437666Y113485180D01*
X10437666Y113485180D02*
X10056714Y113485180D01*
X10056714Y113485180D02*
X9961476Y113437561D01*
X9961476Y113437561D02*
X9913857Y113389942D01*
X9913857Y113389942D02*
X9866238Y113294704D01*
X9866238Y113294704D02*
X9866238Y113151847D01*
X9866238Y113151847D02*
X9913857Y113056609D01*
X9913857Y113056609D02*
X9961476Y113008990D01*
X9961476Y113008990D02*
X10056714Y112961371D01*
X10056714Y112961371D02*
X10437666Y112961371D01*
X9580523Y113485180D02*
X9247190Y112485180D01*
X9247190Y112485180D02*
X8913857Y113485180D01*
X8056714Y112485180D02*
X8628142Y112485180D01*
X8342428Y112485180D02*
X8342428Y113485180D01*
X8342428Y113485180D02*
X8437666Y113342323D01*
X8437666Y113342323D02*
X8532904Y113247085D01*
X8532904Y113247085D02*
X8628142Y113199466D01*
D12*
%TO.C,D3*%
X27697210Y48070000D02*
X27697210Y50990000D01*
X27697206Y50990000D02*
G75*
G02*
X27697206Y48070000I2528794J-1460000D01*
G01*
%TO.C,RV3*%
X44181000Y86140000D02*
X44181000Y98640000D01*
X44781000Y99240000D02*
X44181000Y98640000D01*
X58181000Y98640000D02*
X57581000Y99240000D01*
X58181000Y86140000D02*
X44181000Y86140000D01*
X58181000Y86140000D02*
X58181000Y98640000D01*
X59181000Y104140000D02*
G75*
G02*
X43181000Y104140000I-8000000J0D01*
G01*
X43181000Y104140000D02*
G75*
G02*
X59181000Y104140000I8000000J0D01*
G01*
%TO.C,RV2*%
X23226000Y58200000D02*
X23226000Y70700000D01*
X23826000Y71300000D02*
X23226000Y70700000D01*
X37226000Y70700000D02*
X36626000Y71300000D01*
X37226000Y58200000D02*
X23226000Y58200000D01*
X37226000Y58200000D02*
X37226000Y70700000D01*
X38226000Y76200000D02*
G75*
G02*
X22226000Y76200000I-8000000J0D01*
G01*
X22226000Y76200000D02*
G75*
G02*
X38226000Y76200000I8000000J0D01*
G01*
%TO.C,RV1*%
X2271000Y86140000D02*
X2271000Y98640000D01*
X2871000Y99240000D02*
X2271000Y98640000D01*
X16271000Y98640000D02*
X15671000Y99240000D01*
X16271000Y86140000D02*
X2271000Y86140000D01*
X16271000Y86140000D02*
X16271000Y98640000D01*
X17271000Y104140000D02*
G75*
G02*
X1271000Y104140000I-8000000J0D01*
G01*
X1271000Y104140000D02*
G75*
G02*
X17271000Y104140000I8000000J0D01*
G01*
%TD*%
M02*
