%TF.GenerationSoftware,KiCad,Pcbnew,9.0.2*%
%TF.CreationDate,2025-07-08T13:27:17-05:00*%
%TF.ProjectId,Screamer Overdrive,53637265-616d-4657-9220-4f7665726472,rev?*%
%TF.SameCoordinates,Original*%
%TF.FileFunction,Legend,Top*%
%TF.FilePolarity,Positive*%
%FSLAX46Y46*%
G04 Gerber Fmt 4.6, Leading zero omitted, Abs format (unit mm)*
G04 Created by KiCad (PCBNEW 9.0.2) date 2025-07-08 13:27:17*
%MOMM*%
%LPD*%
G01*
G04 APERTURE LIST*
%ADD10C,0.152400*%
%ADD11C,0.150000*%
%ADD12C,0.254000*%
%ADD13C,0.200000*%
%ADD14C,0.250000*%
%ADD15C,0.600000*%
G04 APERTURE END LIST*
D10*
X50065734Y116391910D02*
X50201200Y116391910D01*
X50201200Y116391910D02*
X50268934Y116425777D01*
X50268934Y116425777D02*
X50302800Y116459643D01*
X50302800Y116459643D02*
X50370534Y116561243D01*
X50370534Y116561243D02*
X50404400Y116696710D01*
X50404400Y116696710D02*
X50404400Y116967643D01*
X50404400Y116967643D02*
X50370534Y117035377D01*
X50370534Y117035377D02*
X50336667Y117069243D01*
X50336667Y117069243D02*
X50268934Y117103110D01*
X50268934Y117103110D02*
X50133467Y117103110D01*
X50133467Y117103110D02*
X50065734Y117069243D01*
X50065734Y117069243D02*
X50031867Y117035377D01*
X50031867Y117035377D02*
X49998000Y116967643D01*
X49998000Y116967643D02*
X49998000Y116798310D01*
X49998000Y116798310D02*
X50031867Y116730577D01*
X50031867Y116730577D02*
X50065734Y116696710D01*
X50065734Y116696710D02*
X50133467Y116662843D01*
X50133467Y116662843D02*
X50268934Y116662843D01*
X50268934Y116662843D02*
X50336667Y116696710D01*
X50336667Y116696710D02*
X50370534Y116730577D01*
X50370534Y116730577D02*
X50404400Y116798310D01*
X50607600Y117103110D02*
X50844667Y116391910D01*
X50844667Y116391910D02*
X51081733Y117103110D01*
X9364133Y32868243D02*
X9296400Y32902110D01*
X9296400Y32902110D02*
X9194800Y32902110D01*
X9194800Y32902110D02*
X9093200Y32868243D01*
X9093200Y32868243D02*
X9025467Y32800510D01*
X9025467Y32800510D02*
X8991600Y32732777D01*
X8991600Y32732777D02*
X8957733Y32597310D01*
X8957733Y32597310D02*
X8957733Y32495710D01*
X8957733Y32495710D02*
X8991600Y32360243D01*
X8991600Y32360243D02*
X9025467Y32292510D01*
X9025467Y32292510D02*
X9093200Y32224777D01*
X9093200Y32224777D02*
X9194800Y32190910D01*
X9194800Y32190910D02*
X9262533Y32190910D01*
X9262533Y32190910D02*
X9364133Y32224777D01*
X9364133Y32224777D02*
X9398000Y32258643D01*
X9398000Y32258643D02*
X9398000Y32495710D01*
X9398000Y32495710D02*
X9262533Y32495710D01*
X9702800Y32190910D02*
X9702800Y32902110D01*
X9702800Y32902110D02*
X10109200Y32190910D01*
X10109200Y32190910D02*
X10109200Y32902110D01*
X10447867Y32190910D02*
X10447867Y32902110D01*
X10447867Y32902110D02*
X10617200Y32902110D01*
X10617200Y32902110D02*
X10718800Y32868243D01*
X10718800Y32868243D02*
X10786534Y32800510D01*
X10786534Y32800510D02*
X10820400Y32732777D01*
X10820400Y32732777D02*
X10854267Y32597310D01*
X10854267Y32597310D02*
X10854267Y32495710D01*
X10854267Y32495710D02*
X10820400Y32360243D01*
X10820400Y32360243D02*
X10786534Y32292510D01*
X10786534Y32292510D02*
X10718800Y32224777D01*
X10718800Y32224777D02*
X10617200Y32190910D01*
X10617200Y32190910D02*
X10447867Y32190910D01*
X45516800Y35382110D02*
X45652266Y35382110D01*
X45652266Y35382110D02*
X45720000Y35348243D01*
X45720000Y35348243D02*
X45787733Y35280510D01*
X45787733Y35280510D02*
X45821600Y35145043D01*
X45821600Y35145043D02*
X45821600Y34907977D01*
X45821600Y34907977D02*
X45787733Y34772510D01*
X45787733Y34772510D02*
X45720000Y34704777D01*
X45720000Y34704777D02*
X45652266Y34670910D01*
X45652266Y34670910D02*
X45516800Y34670910D01*
X45516800Y34670910D02*
X45449066Y34704777D01*
X45449066Y34704777D02*
X45381333Y34772510D01*
X45381333Y34772510D02*
X45347466Y34907977D01*
X45347466Y34907977D02*
X45347466Y35145043D01*
X45347466Y35145043D02*
X45381333Y35280510D01*
X45381333Y35280510D02*
X45449066Y35348243D01*
X45449066Y35348243D02*
X45516800Y35382110D01*
X46126400Y35382110D02*
X46126400Y34806377D01*
X46126400Y34806377D02*
X46160267Y34738643D01*
X46160267Y34738643D02*
X46194133Y34704777D01*
X46194133Y34704777D02*
X46261867Y34670910D01*
X46261867Y34670910D02*
X46397333Y34670910D01*
X46397333Y34670910D02*
X46465067Y34704777D01*
X46465067Y34704777D02*
X46498933Y34738643D01*
X46498933Y34738643D02*
X46532800Y34806377D01*
X46532800Y34806377D02*
X46532800Y35382110D01*
X46769867Y35382110D02*
X47176267Y35382110D01*
X46973067Y34670910D02*
X46973067Y35382110D01*
X45855466Y37170910D02*
X45618399Y37509577D01*
X45449066Y37170910D02*
X45449066Y37882110D01*
X45449066Y37882110D02*
X45719999Y37882110D01*
X45719999Y37882110D02*
X45787733Y37848243D01*
X45787733Y37848243D02*
X45821599Y37814377D01*
X45821599Y37814377D02*
X45855466Y37746643D01*
X45855466Y37746643D02*
X45855466Y37645043D01*
X45855466Y37645043D02*
X45821599Y37577310D01*
X45821599Y37577310D02*
X45787733Y37543443D01*
X45787733Y37543443D02*
X45719999Y37509577D01*
X45719999Y37509577D02*
X45449066Y37509577D01*
X46160266Y37543443D02*
X46397333Y37543443D01*
X46498933Y37170910D02*
X46160266Y37170910D01*
X46160266Y37170910D02*
X46160266Y37882110D01*
X46160266Y37882110D02*
X46498933Y37882110D01*
X46702133Y37882110D02*
X47108533Y37882110D01*
X46905333Y37170910D02*
X46905333Y37882110D01*
X8875358Y117386163D02*
X8778596Y117434544D01*
X8778596Y117434544D02*
X8633453Y117434544D01*
X8633453Y117434544D02*
X8488310Y117386163D01*
X8488310Y117386163D02*
X8391548Y117289401D01*
X8391548Y117289401D02*
X8343167Y117192639D01*
X8343167Y117192639D02*
X8294786Y116999115D01*
X8294786Y116999115D02*
X8294786Y116853972D01*
X8294786Y116853972D02*
X8343167Y116660448D01*
X8343167Y116660448D02*
X8391548Y116563686D01*
X8391548Y116563686D02*
X8488310Y116466925D01*
X8488310Y116466925D02*
X8633453Y116418544D01*
X8633453Y116418544D02*
X8730215Y116418544D01*
X8730215Y116418544D02*
X8875358Y116466925D01*
X8875358Y116466925D02*
X8923739Y116515305D01*
X8923739Y116515305D02*
X8923739Y116853972D01*
X8923739Y116853972D02*
X8730215Y116853972D01*
X9794596Y117095877D02*
X9794596Y116418544D01*
X9359167Y117095877D02*
X9359167Y116563686D01*
X9359167Y116563686D02*
X9407548Y116466925D01*
X9407548Y116466925D02*
X9504310Y116418544D01*
X9504310Y116418544D02*
X9649453Y116418544D01*
X9649453Y116418544D02*
X9746215Y116466925D01*
X9746215Y116466925D02*
X9794596Y116515305D01*
X10278405Y116418544D02*
X10278405Y117095877D01*
X10278405Y117434544D02*
X10230024Y117386163D01*
X10230024Y117386163D02*
X10278405Y117337782D01*
X10278405Y117337782D02*
X10326786Y117386163D01*
X10326786Y117386163D02*
X10278405Y117434544D01*
X10278405Y117434544D02*
X10278405Y117337782D01*
X10617072Y117095877D02*
X11004120Y117095877D01*
X10762215Y117434544D02*
X10762215Y116563686D01*
X10762215Y116563686D02*
X10810596Y116466925D01*
X10810596Y116466925D02*
X10907358Y116418544D01*
X10907358Y116418544D02*
X11004120Y116418544D01*
X11778215Y116418544D02*
X11778215Y116950734D01*
X11778215Y116950734D02*
X11729834Y117047496D01*
X11729834Y117047496D02*
X11633072Y117095877D01*
X11633072Y117095877D02*
X11439548Y117095877D01*
X11439548Y117095877D02*
X11342786Y117047496D01*
X11778215Y116466925D02*
X11681453Y116418544D01*
X11681453Y116418544D02*
X11439548Y116418544D01*
X11439548Y116418544D02*
X11342786Y116466925D01*
X11342786Y116466925D02*
X11294405Y116563686D01*
X11294405Y116563686D02*
X11294405Y116660448D01*
X11294405Y116660448D02*
X11342786Y116757210D01*
X11342786Y116757210D02*
X11439548Y116805591D01*
X11439548Y116805591D02*
X11681453Y116805591D01*
X11681453Y116805591D02*
X11778215Y116853972D01*
X12262024Y116418544D02*
X12262024Y117095877D01*
X12262024Y116902353D02*
X12310405Y116999115D01*
X12310405Y116999115D02*
X12358786Y117047496D01*
X12358786Y117047496D02*
X12455548Y117095877D01*
X12455548Y117095877D02*
X12552310Y117095877D01*
X12890976Y116418544D02*
X12890976Y117434544D01*
X12890976Y117434544D02*
X13278024Y117434544D01*
X13278024Y117434544D02*
X13374786Y117386163D01*
X13374786Y117386163D02*
X13423167Y117337782D01*
X13423167Y117337782D02*
X13471548Y117241020D01*
X13471548Y117241020D02*
X13471548Y117095877D01*
X13471548Y117095877D02*
X13423167Y116999115D01*
X13423167Y116999115D02*
X13374786Y116950734D01*
X13374786Y116950734D02*
X13278024Y116902353D01*
X13278024Y116902353D02*
X12890976Y116902353D01*
X14294024Y116466925D02*
X14197262Y116418544D01*
X14197262Y116418544D02*
X14003738Y116418544D01*
X14003738Y116418544D02*
X13906976Y116466925D01*
X13906976Y116466925D02*
X13858595Y116563686D01*
X13858595Y116563686D02*
X13858595Y116950734D01*
X13858595Y116950734D02*
X13906976Y117047496D01*
X13906976Y117047496D02*
X14003738Y117095877D01*
X14003738Y117095877D02*
X14197262Y117095877D01*
X14197262Y117095877D02*
X14294024Y117047496D01*
X14294024Y117047496D02*
X14342405Y116950734D01*
X14342405Y116950734D02*
X14342405Y116853972D01*
X14342405Y116853972D02*
X13858595Y116757210D01*
X15213262Y116418544D02*
X15213262Y117434544D01*
X15213262Y116466925D02*
X15116500Y116418544D01*
X15116500Y116418544D02*
X14922976Y116418544D01*
X14922976Y116418544D02*
X14826214Y116466925D01*
X14826214Y116466925D02*
X14777833Y116515305D01*
X14777833Y116515305D02*
X14729452Y116612067D01*
X14729452Y116612067D02*
X14729452Y116902353D01*
X14729452Y116902353D02*
X14777833Y116999115D01*
X14777833Y116999115D02*
X14826214Y117047496D01*
X14826214Y117047496D02*
X14922976Y117095877D01*
X14922976Y117095877D02*
X15116500Y117095877D01*
X15116500Y117095877D02*
X15213262Y117047496D01*
X16132500Y116418544D02*
X16132500Y116950734D01*
X16132500Y116950734D02*
X16084119Y117047496D01*
X16084119Y117047496D02*
X15987357Y117095877D01*
X15987357Y117095877D02*
X15793833Y117095877D01*
X15793833Y117095877D02*
X15697071Y117047496D01*
X16132500Y116466925D02*
X16035738Y116418544D01*
X16035738Y116418544D02*
X15793833Y116418544D01*
X15793833Y116418544D02*
X15697071Y116466925D01*
X15697071Y116466925D02*
X15648690Y116563686D01*
X15648690Y116563686D02*
X15648690Y116660448D01*
X15648690Y116660448D02*
X15697071Y116757210D01*
X15697071Y116757210D02*
X15793833Y116805591D01*
X15793833Y116805591D02*
X16035738Y116805591D01*
X16035738Y116805591D02*
X16132500Y116853972D01*
X16761452Y116418544D02*
X16664690Y116466925D01*
X16664690Y116466925D02*
X16616309Y116563686D01*
X16616309Y116563686D02*
X16616309Y117434544D01*
X17729071Y116515305D02*
X17680690Y116466925D01*
X17680690Y116466925D02*
X17535547Y116418544D01*
X17535547Y116418544D02*
X17438785Y116418544D01*
X17438785Y116418544D02*
X17293642Y116466925D01*
X17293642Y116466925D02*
X17196880Y116563686D01*
X17196880Y116563686D02*
X17148499Y116660448D01*
X17148499Y116660448D02*
X17100118Y116853972D01*
X17100118Y116853972D02*
X17100118Y116999115D01*
X17100118Y116999115D02*
X17148499Y117192639D01*
X17148499Y117192639D02*
X17196880Y117289401D01*
X17196880Y117289401D02*
X17293642Y117386163D01*
X17293642Y117386163D02*
X17438785Y117434544D01*
X17438785Y117434544D02*
X17535547Y117434544D01*
X17535547Y117434544D02*
X17680690Y117386163D01*
X17680690Y117386163D02*
X17729071Y117337782D01*
X18309642Y116418544D02*
X18212880Y116466925D01*
X18212880Y116466925D02*
X18164499Y116515305D01*
X18164499Y116515305D02*
X18116118Y116612067D01*
X18116118Y116612067D02*
X18116118Y116902353D01*
X18116118Y116902353D02*
X18164499Y116999115D01*
X18164499Y116999115D02*
X18212880Y117047496D01*
X18212880Y117047496D02*
X18309642Y117095877D01*
X18309642Y117095877D02*
X18454785Y117095877D01*
X18454785Y117095877D02*
X18551547Y117047496D01*
X18551547Y117047496D02*
X18599928Y116999115D01*
X18599928Y116999115D02*
X18648309Y116902353D01*
X18648309Y116902353D02*
X18648309Y116612067D01*
X18648309Y116612067D02*
X18599928Y116515305D01*
X18599928Y116515305D02*
X18551547Y116466925D01*
X18551547Y116466925D02*
X18454785Y116418544D01*
X18454785Y116418544D02*
X18309642Y116418544D01*
X19519166Y117095877D02*
X19519166Y116418544D01*
X19083737Y117095877D02*
X19083737Y116563686D01*
X19083737Y116563686D02*
X19132118Y116466925D01*
X19132118Y116466925D02*
X19228880Y116418544D01*
X19228880Y116418544D02*
X19374023Y116418544D01*
X19374023Y116418544D02*
X19470785Y116466925D01*
X19470785Y116466925D02*
X19519166Y116515305D01*
X20002975Y116418544D02*
X20002975Y117095877D01*
X20002975Y116902353D02*
X20051356Y116999115D01*
X20051356Y116999115D02*
X20099737Y117047496D01*
X20099737Y117047496D02*
X20196499Y117095877D01*
X20196499Y117095877D02*
X20293261Y117095877D01*
X20583546Y116466925D02*
X20680308Y116418544D01*
X20680308Y116418544D02*
X20873832Y116418544D01*
X20873832Y116418544D02*
X20970594Y116466925D01*
X20970594Y116466925D02*
X21018975Y116563686D01*
X21018975Y116563686D02*
X21018975Y116612067D01*
X21018975Y116612067D02*
X20970594Y116708829D01*
X20970594Y116708829D02*
X20873832Y116757210D01*
X20873832Y116757210D02*
X20728689Y116757210D01*
X20728689Y116757210D02*
X20631927Y116805591D01*
X20631927Y116805591D02*
X20583546Y116902353D01*
X20583546Y116902353D02*
X20583546Y116950734D01*
X20583546Y116950734D02*
X20631927Y117047496D01*
X20631927Y117047496D02*
X20728689Y117095877D01*
X20728689Y117095877D02*
X20873832Y117095877D01*
X20873832Y117095877D02*
X20970594Y117047496D01*
X21841451Y116466925D02*
X21744689Y116418544D01*
X21744689Y116418544D02*
X21551165Y116418544D01*
X21551165Y116418544D02*
X21454403Y116466925D01*
X21454403Y116466925D02*
X21406022Y116563686D01*
X21406022Y116563686D02*
X21406022Y116950734D01*
X21406022Y116950734D02*
X21454403Y117047496D01*
X21454403Y117047496D02*
X21551165Y117095877D01*
X21551165Y117095877D02*
X21744689Y117095877D01*
X21744689Y117095877D02*
X21841451Y117047496D01*
X21841451Y117047496D02*
X21889832Y116950734D01*
X21889832Y116950734D02*
X21889832Y116853972D01*
X21889832Y116853972D02*
X21406022Y116757210D01*
X23147736Y117192639D02*
X23050975Y117241020D01*
X23050975Y117241020D02*
X22857451Y117241020D01*
X22857451Y117241020D02*
X22760689Y117192639D01*
X22760689Y117192639D02*
X22663927Y117095877D01*
X22663927Y117095877D02*
X22615546Y116999115D01*
X22615546Y116999115D02*
X22615546Y116805591D01*
X22615546Y116805591D02*
X22663927Y116708829D01*
X22663927Y116708829D02*
X22760689Y116612067D01*
X22760689Y116612067D02*
X22857451Y116563686D01*
X22857451Y116563686D02*
X23050975Y116563686D01*
X23050975Y116563686D02*
X23147736Y116612067D01*
X22954213Y117579686D02*
X22712308Y117531305D01*
X22712308Y117531305D02*
X22470403Y117386163D01*
X22470403Y117386163D02*
X22325260Y117144258D01*
X22325260Y117144258D02*
X22276879Y116902353D01*
X22276879Y116902353D02*
X22325260Y116660448D01*
X22325260Y116660448D02*
X22470403Y116418544D01*
X22470403Y116418544D02*
X22712308Y116273401D01*
X22712308Y116273401D02*
X22954213Y116225020D01*
X22954213Y116225020D02*
X23196117Y116273401D01*
X23196117Y116273401D02*
X23438022Y116418544D01*
X23438022Y116418544D02*
X23583165Y116660448D01*
X23583165Y116660448D02*
X23631546Y116902353D01*
X23631546Y116902353D02*
X23583165Y117144258D01*
X23583165Y117144258D02*
X23438022Y117386163D01*
X23438022Y117386163D02*
X23196117Y117531305D01*
X23196117Y117531305D02*
X22954213Y117579686D01*
X49834800Y35402110D02*
X49970266Y35402110D01*
X49970266Y35402110D02*
X50038000Y35368243D01*
X50038000Y35368243D02*
X50105733Y35300510D01*
X50105733Y35300510D02*
X50139600Y35165043D01*
X50139600Y35165043D02*
X50139600Y34927977D01*
X50139600Y34927977D02*
X50105733Y34792510D01*
X50105733Y34792510D02*
X50038000Y34724777D01*
X50038000Y34724777D02*
X49970266Y34690910D01*
X49970266Y34690910D02*
X49834800Y34690910D01*
X49834800Y34690910D02*
X49767066Y34724777D01*
X49767066Y34724777D02*
X49699333Y34792510D01*
X49699333Y34792510D02*
X49665466Y34927977D01*
X49665466Y34927977D02*
X49665466Y35165043D01*
X49665466Y35165043D02*
X49699333Y35300510D01*
X49699333Y35300510D02*
X49767066Y35368243D01*
X49767066Y35368243D02*
X49834800Y35402110D01*
X50444400Y35402110D02*
X50444400Y34826377D01*
X50444400Y34826377D02*
X50478267Y34758643D01*
X50478267Y34758643D02*
X50512133Y34724777D01*
X50512133Y34724777D02*
X50579867Y34690910D01*
X50579867Y34690910D02*
X50715333Y34690910D01*
X50715333Y34690910D02*
X50783067Y34724777D01*
X50783067Y34724777D02*
X50816933Y34758643D01*
X50816933Y34758643D02*
X50850800Y34826377D01*
X50850800Y34826377D02*
X50850800Y35402110D01*
X51087867Y35402110D02*
X51494267Y35402110D01*
X51291067Y34690910D02*
X51291067Y35402110D01*
X13851466Y29750910D02*
X13851466Y30462110D01*
X14190133Y29750910D02*
X14190133Y30462110D01*
X14190133Y30462110D02*
X14596533Y29750910D01*
X14596533Y29750910D02*
X14596533Y30462110D01*
X13682133Y32848243D02*
X13614400Y32882110D01*
X13614400Y32882110D02*
X13512800Y32882110D01*
X13512800Y32882110D02*
X13411200Y32848243D01*
X13411200Y32848243D02*
X13343467Y32780510D01*
X13343467Y32780510D02*
X13309600Y32712777D01*
X13309600Y32712777D02*
X13275733Y32577310D01*
X13275733Y32577310D02*
X13275733Y32475710D01*
X13275733Y32475710D02*
X13309600Y32340243D01*
X13309600Y32340243D02*
X13343467Y32272510D01*
X13343467Y32272510D02*
X13411200Y32204777D01*
X13411200Y32204777D02*
X13512800Y32170910D01*
X13512800Y32170910D02*
X13580533Y32170910D01*
X13580533Y32170910D02*
X13682133Y32204777D01*
X13682133Y32204777D02*
X13716000Y32238643D01*
X13716000Y32238643D02*
X13716000Y32475710D01*
X13716000Y32475710D02*
X13580533Y32475710D01*
X14020800Y32170910D02*
X14020800Y32882110D01*
X14020800Y32882110D02*
X14427200Y32170910D01*
X14427200Y32170910D02*
X14427200Y32882110D01*
X14765867Y32170910D02*
X14765867Y32882110D01*
X14765867Y32882110D02*
X14935200Y32882110D01*
X14935200Y32882110D02*
X15036800Y32848243D01*
X15036800Y32848243D02*
X15104534Y32780510D01*
X15104534Y32780510D02*
X15138400Y32712777D01*
X15138400Y32712777D02*
X15172267Y32577310D01*
X15172267Y32577310D02*
X15172267Y32475710D01*
X15172267Y32475710D02*
X15138400Y32340243D01*
X15138400Y32340243D02*
X15104534Y32272510D01*
X15104534Y32272510D02*
X15036800Y32204777D01*
X15036800Y32204777D02*
X14935200Y32170910D01*
X14935200Y32170910D02*
X14765867Y32170910D01*
X8421786Y114338348D02*
X8566929Y114289967D01*
X8566929Y114289967D02*
X8808834Y114289967D01*
X8808834Y114289967D02*
X8905596Y114338348D01*
X8905596Y114338348D02*
X8953977Y114386728D01*
X8953977Y114386728D02*
X9002358Y114483490D01*
X9002358Y114483490D02*
X9002358Y114580252D01*
X9002358Y114580252D02*
X8953977Y114677014D01*
X8953977Y114677014D02*
X8905596Y114725395D01*
X8905596Y114725395D02*
X8808834Y114773776D01*
X8808834Y114773776D02*
X8615310Y114822157D01*
X8615310Y114822157D02*
X8518548Y114870538D01*
X8518548Y114870538D02*
X8470167Y114918919D01*
X8470167Y114918919D02*
X8421786Y115015681D01*
X8421786Y115015681D02*
X8421786Y115112443D01*
X8421786Y115112443D02*
X8470167Y115209205D01*
X8470167Y115209205D02*
X8518548Y115257586D01*
X8518548Y115257586D02*
X8615310Y115305967D01*
X8615310Y115305967D02*
X8857215Y115305967D01*
X8857215Y115305967D02*
X9002358Y115257586D01*
X9873215Y114338348D02*
X9776453Y114289967D01*
X9776453Y114289967D02*
X9582929Y114289967D01*
X9582929Y114289967D02*
X9486167Y114338348D01*
X9486167Y114338348D02*
X9437786Y114386728D01*
X9437786Y114386728D02*
X9389405Y114483490D01*
X9389405Y114483490D02*
X9389405Y114773776D01*
X9389405Y114773776D02*
X9437786Y114870538D01*
X9437786Y114870538D02*
X9486167Y114918919D01*
X9486167Y114918919D02*
X9582929Y114967300D01*
X9582929Y114967300D02*
X9776453Y114967300D01*
X9776453Y114967300D02*
X9873215Y114918919D01*
X10308643Y114289967D02*
X10308643Y114967300D01*
X10308643Y114773776D02*
X10357024Y114870538D01*
X10357024Y114870538D02*
X10405405Y114918919D01*
X10405405Y114918919D02*
X10502167Y114967300D01*
X10502167Y114967300D02*
X10598929Y114967300D01*
X11324643Y114338348D02*
X11227881Y114289967D01*
X11227881Y114289967D02*
X11034357Y114289967D01*
X11034357Y114289967D02*
X10937595Y114338348D01*
X10937595Y114338348D02*
X10889214Y114435109D01*
X10889214Y114435109D02*
X10889214Y114822157D01*
X10889214Y114822157D02*
X10937595Y114918919D01*
X10937595Y114918919D02*
X11034357Y114967300D01*
X11034357Y114967300D02*
X11227881Y114967300D01*
X11227881Y114967300D02*
X11324643Y114918919D01*
X11324643Y114918919D02*
X11373024Y114822157D01*
X11373024Y114822157D02*
X11373024Y114725395D01*
X11373024Y114725395D02*
X10889214Y114628633D01*
X12243881Y114289967D02*
X12243881Y114822157D01*
X12243881Y114822157D02*
X12195500Y114918919D01*
X12195500Y114918919D02*
X12098738Y114967300D01*
X12098738Y114967300D02*
X11905214Y114967300D01*
X11905214Y114967300D02*
X11808452Y114918919D01*
X12243881Y114338348D02*
X12147119Y114289967D01*
X12147119Y114289967D02*
X11905214Y114289967D01*
X11905214Y114289967D02*
X11808452Y114338348D01*
X11808452Y114338348D02*
X11760071Y114435109D01*
X11760071Y114435109D02*
X11760071Y114531871D01*
X11760071Y114531871D02*
X11808452Y114628633D01*
X11808452Y114628633D02*
X11905214Y114677014D01*
X11905214Y114677014D02*
X12147119Y114677014D01*
X12147119Y114677014D02*
X12243881Y114725395D01*
X12727690Y114289967D02*
X12727690Y114967300D01*
X12727690Y114870538D02*
X12776071Y114918919D01*
X12776071Y114918919D02*
X12872833Y114967300D01*
X12872833Y114967300D02*
X13017976Y114967300D01*
X13017976Y114967300D02*
X13114738Y114918919D01*
X13114738Y114918919D02*
X13163119Y114822157D01*
X13163119Y114822157D02*
X13163119Y114289967D01*
X13163119Y114822157D02*
X13211500Y114918919D01*
X13211500Y114918919D02*
X13308262Y114967300D01*
X13308262Y114967300D02*
X13453405Y114967300D01*
X13453405Y114967300D02*
X13550166Y114918919D01*
X13550166Y114918919D02*
X13598547Y114822157D01*
X13598547Y114822157D02*
X13598547Y114289967D01*
X14469405Y114338348D02*
X14372643Y114289967D01*
X14372643Y114289967D02*
X14179119Y114289967D01*
X14179119Y114289967D02*
X14082357Y114338348D01*
X14082357Y114338348D02*
X14033976Y114435109D01*
X14033976Y114435109D02*
X14033976Y114822157D01*
X14033976Y114822157D02*
X14082357Y114918919D01*
X14082357Y114918919D02*
X14179119Y114967300D01*
X14179119Y114967300D02*
X14372643Y114967300D01*
X14372643Y114967300D02*
X14469405Y114918919D01*
X14469405Y114918919D02*
X14517786Y114822157D01*
X14517786Y114822157D02*
X14517786Y114725395D01*
X14517786Y114725395D02*
X14033976Y114628633D01*
X14953214Y114289967D02*
X14953214Y114967300D01*
X14953214Y114773776D02*
X15001595Y114870538D01*
X15001595Y114870538D02*
X15049976Y114918919D01*
X15049976Y114918919D02*
X15146738Y114967300D01*
X15146738Y114967300D02*
X15243500Y114967300D01*
X16549785Y115305967D02*
X16743309Y115305967D01*
X16743309Y115305967D02*
X16840071Y115257586D01*
X16840071Y115257586D02*
X16936833Y115160824D01*
X16936833Y115160824D02*
X16985214Y114967300D01*
X16985214Y114967300D02*
X16985214Y114628633D01*
X16985214Y114628633D02*
X16936833Y114435109D01*
X16936833Y114435109D02*
X16840071Y114338348D01*
X16840071Y114338348D02*
X16743309Y114289967D01*
X16743309Y114289967D02*
X16549785Y114289967D01*
X16549785Y114289967D02*
X16453023Y114338348D01*
X16453023Y114338348D02*
X16356261Y114435109D01*
X16356261Y114435109D02*
X16307880Y114628633D01*
X16307880Y114628633D02*
X16307880Y114967300D01*
X16307880Y114967300D02*
X16356261Y115160824D01*
X16356261Y115160824D02*
X16453023Y115257586D01*
X16453023Y115257586D02*
X16549785Y115305967D01*
X17323880Y114967300D02*
X17565785Y114289967D01*
X17565785Y114289967D02*
X17807690Y114967300D01*
X18581785Y114338348D02*
X18485023Y114289967D01*
X18485023Y114289967D02*
X18291499Y114289967D01*
X18291499Y114289967D02*
X18194737Y114338348D01*
X18194737Y114338348D02*
X18146356Y114435109D01*
X18146356Y114435109D02*
X18146356Y114822157D01*
X18146356Y114822157D02*
X18194737Y114918919D01*
X18194737Y114918919D02*
X18291499Y114967300D01*
X18291499Y114967300D02*
X18485023Y114967300D01*
X18485023Y114967300D02*
X18581785Y114918919D01*
X18581785Y114918919D02*
X18630166Y114822157D01*
X18630166Y114822157D02*
X18630166Y114725395D01*
X18630166Y114725395D02*
X18146356Y114628633D01*
X19065594Y114289967D02*
X19065594Y114967300D01*
X19065594Y114773776D02*
X19113975Y114870538D01*
X19113975Y114870538D02*
X19162356Y114918919D01*
X19162356Y114918919D02*
X19259118Y114967300D01*
X19259118Y114967300D02*
X19355880Y114967300D01*
X20129975Y114289967D02*
X20129975Y115305967D01*
X20129975Y114338348D02*
X20033213Y114289967D01*
X20033213Y114289967D02*
X19839689Y114289967D01*
X19839689Y114289967D02*
X19742927Y114338348D01*
X19742927Y114338348D02*
X19694546Y114386728D01*
X19694546Y114386728D02*
X19646165Y114483490D01*
X19646165Y114483490D02*
X19646165Y114773776D01*
X19646165Y114773776D02*
X19694546Y114870538D01*
X19694546Y114870538D02*
X19742927Y114918919D01*
X19742927Y114918919D02*
X19839689Y114967300D01*
X19839689Y114967300D02*
X20033213Y114967300D01*
X20033213Y114967300D02*
X20129975Y114918919D01*
X20613784Y114289967D02*
X20613784Y114967300D01*
X20613784Y114773776D02*
X20662165Y114870538D01*
X20662165Y114870538D02*
X20710546Y114918919D01*
X20710546Y114918919D02*
X20807308Y114967300D01*
X20807308Y114967300D02*
X20904070Y114967300D01*
X21242736Y114289967D02*
X21242736Y114967300D01*
X21242736Y115305967D02*
X21194355Y115257586D01*
X21194355Y115257586D02*
X21242736Y115209205D01*
X21242736Y115209205D02*
X21291117Y115257586D01*
X21291117Y115257586D02*
X21242736Y115305967D01*
X21242736Y115305967D02*
X21242736Y115209205D01*
X21629784Y114967300D02*
X21871689Y114289967D01*
X21871689Y114289967D02*
X22113594Y114967300D01*
X22887689Y114338348D02*
X22790927Y114289967D01*
X22790927Y114289967D02*
X22597403Y114289967D01*
X22597403Y114289967D02*
X22500641Y114338348D01*
X22500641Y114338348D02*
X22452260Y114435109D01*
X22452260Y114435109D02*
X22452260Y114822157D01*
X22452260Y114822157D02*
X22500641Y114918919D01*
X22500641Y114918919D02*
X22597403Y114967300D01*
X22597403Y114967300D02*
X22790927Y114967300D01*
X22790927Y114967300D02*
X22887689Y114918919D01*
X22887689Y114918919D02*
X22936070Y114822157D01*
X22936070Y114822157D02*
X22936070Y114725395D01*
X22936070Y114725395D02*
X22452260Y114628633D01*
X8373405Y113331597D02*
X8615310Y112654264D01*
X8615310Y112654264D02*
X8857215Y113331597D01*
X9776453Y112654264D02*
X9195881Y112654264D01*
X9486167Y112654264D02*
X9486167Y113670264D01*
X9486167Y113670264D02*
X9389405Y113525121D01*
X9389405Y113525121D02*
X9292643Y113428359D01*
X9292643Y113428359D02*
X9195881Y113379978D01*
X45686133Y32848243D02*
X45618400Y32882110D01*
X45618400Y32882110D02*
X45516800Y32882110D01*
X45516800Y32882110D02*
X45415200Y32848243D01*
X45415200Y32848243D02*
X45347467Y32780510D01*
X45347467Y32780510D02*
X45313600Y32712777D01*
X45313600Y32712777D02*
X45279733Y32577310D01*
X45279733Y32577310D02*
X45279733Y32475710D01*
X45279733Y32475710D02*
X45313600Y32340243D01*
X45313600Y32340243D02*
X45347467Y32272510D01*
X45347467Y32272510D02*
X45415200Y32204777D01*
X45415200Y32204777D02*
X45516800Y32170910D01*
X45516800Y32170910D02*
X45584533Y32170910D01*
X45584533Y32170910D02*
X45686133Y32204777D01*
X45686133Y32204777D02*
X45720000Y32238643D01*
X45720000Y32238643D02*
X45720000Y32475710D01*
X45720000Y32475710D02*
X45584533Y32475710D01*
X46024800Y32170910D02*
X46024800Y32882110D01*
X46024800Y32882110D02*
X46431200Y32170910D01*
X46431200Y32170910D02*
X46431200Y32882110D01*
X46769867Y32170910D02*
X46769867Y32882110D01*
X46769867Y32882110D02*
X46939200Y32882110D01*
X46939200Y32882110D02*
X47040800Y32848243D01*
X47040800Y32848243D02*
X47108534Y32780510D01*
X47108534Y32780510D02*
X47142400Y32712777D01*
X47142400Y32712777D02*
X47176267Y32577310D01*
X47176267Y32577310D02*
X47176267Y32475710D01*
X47176267Y32475710D02*
X47142400Y32340243D01*
X47142400Y32340243D02*
X47108534Y32272510D01*
X47108534Y32272510D02*
X47040800Y32204777D01*
X47040800Y32204777D02*
X46939200Y32170910D01*
X46939200Y32170910D02*
X46769867Y32170910D01*
X47464133Y117069243D02*
X47396400Y117103110D01*
X47396400Y117103110D02*
X47294800Y117103110D01*
X47294800Y117103110D02*
X47193200Y117069243D01*
X47193200Y117069243D02*
X47125467Y117001510D01*
X47125467Y117001510D02*
X47091600Y116933777D01*
X47091600Y116933777D02*
X47057733Y116798310D01*
X47057733Y116798310D02*
X47057733Y116696710D01*
X47057733Y116696710D02*
X47091600Y116561243D01*
X47091600Y116561243D02*
X47125467Y116493510D01*
X47125467Y116493510D02*
X47193200Y116425777D01*
X47193200Y116425777D02*
X47294800Y116391910D01*
X47294800Y116391910D02*
X47362533Y116391910D01*
X47362533Y116391910D02*
X47464133Y116425777D01*
X47464133Y116425777D02*
X47498000Y116459643D01*
X47498000Y116459643D02*
X47498000Y116696710D01*
X47498000Y116696710D02*
X47362533Y116696710D01*
X47802800Y116391910D02*
X47802800Y117103110D01*
X47802800Y117103110D02*
X48209200Y116391910D01*
X48209200Y116391910D02*
X48209200Y117103110D01*
X48547867Y116391910D02*
X48547867Y117103110D01*
X48547867Y117103110D02*
X48717200Y117103110D01*
X48717200Y117103110D02*
X48818800Y117069243D01*
X48818800Y117069243D02*
X48886534Y117001510D01*
X48886534Y117001510D02*
X48920400Y116933777D01*
X48920400Y116933777D02*
X48954267Y116798310D01*
X48954267Y116798310D02*
X48954267Y116696710D01*
X48954267Y116696710D02*
X48920400Y116561243D01*
X48920400Y116561243D02*
X48886534Y116493510D01*
X48886534Y116493510D02*
X48818800Y116425777D01*
X48818800Y116425777D02*
X48717200Y116391910D01*
X48717200Y116391910D02*
X48547867Y116391910D01*
X46007867Y29750910D02*
X45669200Y29750910D01*
X45669200Y29750910D02*
X45669200Y30462110D01*
X46244933Y30021843D02*
X46786800Y30021843D01*
X46515866Y29750910D02*
X46515866Y30292777D01*
X13682133Y35348243D02*
X13614400Y35382110D01*
X13614400Y35382110D02*
X13512800Y35382110D01*
X13512800Y35382110D02*
X13411200Y35348243D01*
X13411200Y35348243D02*
X13343467Y35280510D01*
X13343467Y35280510D02*
X13309600Y35212777D01*
X13309600Y35212777D02*
X13275733Y35077310D01*
X13275733Y35077310D02*
X13275733Y34975710D01*
X13275733Y34975710D02*
X13309600Y34840243D01*
X13309600Y34840243D02*
X13343467Y34772510D01*
X13343467Y34772510D02*
X13411200Y34704777D01*
X13411200Y34704777D02*
X13512800Y34670910D01*
X13512800Y34670910D02*
X13580533Y34670910D01*
X13580533Y34670910D02*
X13682133Y34704777D01*
X13682133Y34704777D02*
X13716000Y34738643D01*
X13716000Y34738643D02*
X13716000Y34975710D01*
X13716000Y34975710D02*
X13580533Y34975710D01*
X14020800Y34670910D02*
X14020800Y35382110D01*
X14020800Y35382110D02*
X14427200Y34670910D01*
X14427200Y34670910D02*
X14427200Y35382110D01*
X14765867Y34670910D02*
X14765867Y35382110D01*
X14765867Y35382110D02*
X14935200Y35382110D01*
X14935200Y35382110D02*
X15036800Y35348243D01*
X15036800Y35348243D02*
X15104534Y35280510D01*
X15104534Y35280510D02*
X15138400Y35212777D01*
X15138400Y35212777D02*
X15172267Y35077310D01*
X15172267Y35077310D02*
X15172267Y34975710D01*
X15172267Y34975710D02*
X15138400Y34840243D01*
X15138400Y34840243D02*
X15104534Y34772510D01*
X15104534Y34772510D02*
X15036800Y34704777D01*
X15036800Y34704777D02*
X14935200Y34670910D01*
X14935200Y34670910D02*
X14765867Y34670910D01*
X50004133Y32868243D02*
X49936400Y32902110D01*
X49936400Y32902110D02*
X49834800Y32902110D01*
X49834800Y32902110D02*
X49733200Y32868243D01*
X49733200Y32868243D02*
X49665467Y32800510D01*
X49665467Y32800510D02*
X49631600Y32732777D01*
X49631600Y32732777D02*
X49597733Y32597310D01*
X49597733Y32597310D02*
X49597733Y32495710D01*
X49597733Y32495710D02*
X49631600Y32360243D01*
X49631600Y32360243D02*
X49665467Y32292510D01*
X49665467Y32292510D02*
X49733200Y32224777D01*
X49733200Y32224777D02*
X49834800Y32190910D01*
X49834800Y32190910D02*
X49902533Y32190910D01*
X49902533Y32190910D02*
X50004133Y32224777D01*
X50004133Y32224777D02*
X50038000Y32258643D01*
X50038000Y32258643D02*
X50038000Y32495710D01*
X50038000Y32495710D02*
X49902533Y32495710D01*
X50342800Y32190910D02*
X50342800Y32902110D01*
X50342800Y32902110D02*
X50749200Y32190910D01*
X50749200Y32190910D02*
X50749200Y32902110D01*
X51087867Y32190910D02*
X51087867Y32902110D01*
X51087867Y32902110D02*
X51257200Y32902110D01*
X51257200Y32902110D02*
X51358800Y32868243D01*
X51358800Y32868243D02*
X51426534Y32800510D01*
X51426534Y32800510D02*
X51460400Y32732777D01*
X51460400Y32732777D02*
X51494267Y32597310D01*
X51494267Y32597310D02*
X51494267Y32495710D01*
X51494267Y32495710D02*
X51460400Y32360243D01*
X51460400Y32360243D02*
X51426534Y32292510D01*
X51426534Y32292510D02*
X51358800Y32224777D01*
X51358800Y32224777D02*
X51257200Y32190910D01*
X51257200Y32190910D02*
X51087867Y32190910D01*
X13292666Y37204777D02*
X13394266Y37170910D01*
X13394266Y37170910D02*
X13563600Y37170910D01*
X13563600Y37170910D02*
X13631333Y37204777D01*
X13631333Y37204777D02*
X13665200Y37238643D01*
X13665200Y37238643D02*
X13699066Y37306377D01*
X13699066Y37306377D02*
X13699066Y37374110D01*
X13699066Y37374110D02*
X13665200Y37441843D01*
X13665200Y37441843D02*
X13631333Y37475710D01*
X13631333Y37475710D02*
X13563600Y37509577D01*
X13563600Y37509577D02*
X13428133Y37543443D01*
X13428133Y37543443D02*
X13360400Y37577310D01*
X13360400Y37577310D02*
X13326533Y37611177D01*
X13326533Y37611177D02*
X13292666Y37678910D01*
X13292666Y37678910D02*
X13292666Y37746643D01*
X13292666Y37746643D02*
X13326533Y37814377D01*
X13326533Y37814377D02*
X13360400Y37848243D01*
X13360400Y37848243D02*
X13428133Y37882110D01*
X13428133Y37882110D02*
X13597466Y37882110D01*
X13597466Y37882110D02*
X13699066Y37848243D01*
X14003866Y37170910D02*
X14003866Y37882110D01*
X14003866Y37882110D02*
X14410266Y37170910D01*
X14410266Y37170910D02*
X14410266Y37882110D01*
X14748933Y37170910D02*
X14748933Y37882110D01*
X14748933Y37882110D02*
X14918266Y37882110D01*
X14918266Y37882110D02*
X15019866Y37848243D01*
X15019866Y37848243D02*
X15087600Y37780510D01*
X15087600Y37780510D02*
X15121466Y37712777D01*
X15121466Y37712777D02*
X15155333Y37577310D01*
X15155333Y37577310D02*
X15155333Y37475710D01*
X15155333Y37475710D02*
X15121466Y37340243D01*
X15121466Y37340243D02*
X15087600Y37272510D01*
X15087600Y37272510D02*
X15019866Y37204777D01*
X15019866Y37204777D02*
X14918266Y37170910D01*
X14918266Y37170910D02*
X14748933Y37170910D01*
X9533466Y29690910D02*
X9533466Y30402110D01*
X9872133Y29690910D02*
X9872133Y30402110D01*
X9872133Y30402110D02*
X10278533Y29690910D01*
X10278533Y29690910D02*
X10278533Y30402110D01*
D11*
X9043333Y48694180D02*
X8710000Y49170371D01*
X8471905Y48694180D02*
X8471905Y49694180D01*
X8471905Y49694180D02*
X8852857Y49694180D01*
X8852857Y49694180D02*
X8948095Y49646561D01*
X8948095Y49646561D02*
X8995714Y49598942D01*
X8995714Y49598942D02*
X9043333Y49503704D01*
X9043333Y49503704D02*
X9043333Y49360847D01*
X9043333Y49360847D02*
X8995714Y49265609D01*
X8995714Y49265609D02*
X8948095Y49217990D01*
X8948095Y49217990D02*
X8852857Y49170371D01*
X8852857Y49170371D02*
X8471905Y49170371D01*
X9948095Y49694180D02*
X9471905Y49694180D01*
X9471905Y49694180D02*
X9424286Y49217990D01*
X9424286Y49217990D02*
X9471905Y49265609D01*
X9471905Y49265609D02*
X9567143Y49313228D01*
X9567143Y49313228D02*
X9805238Y49313228D01*
X9805238Y49313228D02*
X9900476Y49265609D01*
X9900476Y49265609D02*
X9948095Y49217990D01*
X9948095Y49217990D02*
X9995714Y49122752D01*
X9995714Y49122752D02*
X9995714Y48884657D01*
X9995714Y48884657D02*
X9948095Y48789419D01*
X9948095Y48789419D02*
X9900476Y48741800D01*
X9900476Y48741800D02*
X9805238Y48694180D01*
X9805238Y48694180D02*
X9567143Y48694180D01*
X9567143Y48694180D02*
X9471905Y48741800D01*
X9471905Y48741800D02*
X9424286Y48789419D01*
X16303666Y41566180D02*
X16303666Y40851895D01*
X16303666Y40851895D02*
X16256047Y40709038D01*
X16256047Y40709038D02*
X16160809Y40613800D01*
X16160809Y40613800D02*
X16017952Y40566180D01*
X16017952Y40566180D02*
X15922714Y40566180D01*
X17303666Y40566180D02*
X16732238Y40566180D01*
X17017952Y40566180D02*
X17017952Y41566180D01*
X17017952Y41566180D02*
X16922714Y41423323D01*
X16922714Y41423323D02*
X16827476Y41328085D01*
X16827476Y41328085D02*
X16732238Y41280466D01*
X8689142Y57584180D02*
X8355809Y58060371D01*
X8117714Y57584180D02*
X8117714Y58584180D01*
X8117714Y58584180D02*
X8498666Y58584180D01*
X8498666Y58584180D02*
X8593904Y58536561D01*
X8593904Y58536561D02*
X8641523Y58488942D01*
X8641523Y58488942D02*
X8689142Y58393704D01*
X8689142Y58393704D02*
X8689142Y58250847D01*
X8689142Y58250847D02*
X8641523Y58155609D01*
X8641523Y58155609D02*
X8593904Y58107990D01*
X8593904Y58107990D02*
X8498666Y58060371D01*
X8498666Y58060371D02*
X8117714Y58060371D01*
X9641523Y57584180D02*
X9070095Y57584180D01*
X9355809Y57584180D02*
X9355809Y58584180D01*
X9355809Y58584180D02*
X9260571Y58441323D01*
X9260571Y58441323D02*
X9165333Y58346085D01*
X9165333Y58346085D02*
X9070095Y58298466D01*
X10593904Y57584180D02*
X10022476Y57584180D01*
X10308190Y57584180D02*
X10308190Y58584180D01*
X10308190Y58584180D02*
X10212952Y58441323D01*
X10212952Y58441323D02*
X10117714Y58346085D01*
X10117714Y58346085D02*
X10022476Y58298466D01*
X9165333Y53266180D02*
X8832000Y53742371D01*
X8593905Y53266180D02*
X8593905Y54266180D01*
X8593905Y54266180D02*
X8974857Y54266180D01*
X8974857Y54266180D02*
X9070095Y54218561D01*
X9070095Y54218561D02*
X9117714Y54170942D01*
X9117714Y54170942D02*
X9165333Y54075704D01*
X9165333Y54075704D02*
X9165333Y53932847D01*
X9165333Y53932847D02*
X9117714Y53837609D01*
X9117714Y53837609D02*
X9070095Y53789990D01*
X9070095Y53789990D02*
X8974857Y53742371D01*
X8974857Y53742371D02*
X8593905Y53742371D01*
X9641524Y53266180D02*
X9832000Y53266180D01*
X9832000Y53266180D02*
X9927238Y53313800D01*
X9927238Y53313800D02*
X9974857Y53361419D01*
X9974857Y53361419D02*
X10070095Y53504276D01*
X10070095Y53504276D02*
X10117714Y53694752D01*
X10117714Y53694752D02*
X10117714Y54075704D01*
X10117714Y54075704D02*
X10070095Y54170942D01*
X10070095Y54170942D02*
X10022476Y54218561D01*
X10022476Y54218561D02*
X9927238Y54266180D01*
X9927238Y54266180D02*
X9736762Y54266180D01*
X9736762Y54266180D02*
X9641524Y54218561D01*
X9641524Y54218561D02*
X9593905Y54170942D01*
X9593905Y54170942D02*
X9546286Y54075704D01*
X9546286Y54075704D02*
X9546286Y53837609D01*
X9546286Y53837609D02*
X9593905Y53742371D01*
X9593905Y53742371D02*
X9641524Y53694752D01*
X9641524Y53694752D02*
X9736762Y53647133D01*
X9736762Y53647133D02*
X9927238Y53647133D01*
X9927238Y53647133D02*
X10022476Y53694752D01*
X10022476Y53694752D02*
X10070095Y53742371D01*
X10070095Y53742371D02*
X10117714Y53837609D01*
X31360580Y104112142D02*
X31408200Y104064523D01*
X31408200Y104064523D02*
X31455819Y103921666D01*
X31455819Y103921666D02*
X31455819Y103826428D01*
X31455819Y103826428D02*
X31408200Y103683571D01*
X31408200Y103683571D02*
X31312961Y103588333D01*
X31312961Y103588333D02*
X31217723Y103540714D01*
X31217723Y103540714D02*
X31027247Y103493095D01*
X31027247Y103493095D02*
X30884390Y103493095D01*
X30884390Y103493095D02*
X30693914Y103540714D01*
X30693914Y103540714D02*
X30598676Y103588333D01*
X30598676Y103588333D02*
X30503438Y103683571D01*
X30503438Y103683571D02*
X30455819Y103826428D01*
X30455819Y103826428D02*
X30455819Y103921666D01*
X30455819Y103921666D02*
X30503438Y104064523D01*
X30503438Y104064523D02*
X30551057Y104112142D01*
X31455819Y105064523D02*
X31455819Y104493095D01*
X31455819Y104778809D02*
X30455819Y104778809D01*
X30455819Y104778809D02*
X30598676Y104683571D01*
X30598676Y104683571D02*
X30693914Y104588333D01*
X30693914Y104588333D02*
X30741533Y104493095D01*
X31455819Y106016904D02*
X31455819Y105445476D01*
X31455819Y105731190D02*
X30455819Y105731190D01*
X30455819Y105731190D02*
X30598676Y105635952D01*
X30598676Y105635952D02*
X30693914Y105540714D01*
X30693914Y105540714D02*
X30741533Y105445476D01*
X24359400Y108256173D02*
X24359400Y107113316D01*
X23787971Y107684744D02*
X24930828Y107684744D01*
X9175761Y61443922D02*
X9080523Y61491541D01*
X9080523Y61491541D02*
X8985285Y61586780D01*
X8985285Y61586780D02*
X8842428Y61729637D01*
X8842428Y61729637D02*
X8747190Y61777256D01*
X8747190Y61777256D02*
X8651952Y61777256D01*
X8699571Y61539160D02*
X8604333Y61586780D01*
X8604333Y61586780D02*
X8509095Y61682018D01*
X8509095Y61682018D02*
X8461476Y61872494D01*
X8461476Y61872494D02*
X8461476Y62205827D01*
X8461476Y62205827D02*
X8509095Y62396303D01*
X8509095Y62396303D02*
X8604333Y62491541D01*
X8604333Y62491541D02*
X8699571Y62539160D01*
X8699571Y62539160D02*
X8890047Y62539160D01*
X8890047Y62539160D02*
X8985285Y62491541D01*
X8985285Y62491541D02*
X9080523Y62396303D01*
X9080523Y62396303D02*
X9128142Y62205827D01*
X9128142Y62205827D02*
X9128142Y61872494D01*
X9128142Y61872494D02*
X9080523Y61682018D01*
X9080523Y61682018D02*
X8985285Y61586780D01*
X8985285Y61586780D02*
X8890047Y61539160D01*
X8890047Y61539160D02*
X8699571Y61539160D01*
X10080523Y61539160D02*
X9509095Y61539160D01*
X9794809Y61539160D02*
X9794809Y62539160D01*
X9794809Y62539160D02*
X9699571Y62396303D01*
X9699571Y62396303D02*
X9604333Y62301065D01*
X9604333Y62301065D02*
X9509095Y62253446D01*
X43888819Y78319333D02*
X43412628Y77986000D01*
X43888819Y77747905D02*
X42888819Y77747905D01*
X42888819Y77747905D02*
X42888819Y78128857D01*
X42888819Y78128857D02*
X42936438Y78224095D01*
X42936438Y78224095D02*
X42984057Y78271714D01*
X42984057Y78271714D02*
X43079295Y78319333D01*
X43079295Y78319333D02*
X43222152Y78319333D01*
X43222152Y78319333D02*
X43317390Y78271714D01*
X43317390Y78271714D02*
X43365009Y78224095D01*
X43365009Y78224095D02*
X43412628Y78128857D01*
X43412628Y78128857D02*
X43412628Y77747905D01*
X42888819Y79176476D02*
X42888819Y78986000D01*
X42888819Y78986000D02*
X42936438Y78890762D01*
X42936438Y78890762D02*
X42984057Y78843143D01*
X42984057Y78843143D02*
X43126914Y78747905D01*
X43126914Y78747905D02*
X43317390Y78700286D01*
X43317390Y78700286D02*
X43698342Y78700286D01*
X43698342Y78700286D02*
X43793580Y78747905D01*
X43793580Y78747905D02*
X43841200Y78795524D01*
X43841200Y78795524D02*
X43888819Y78890762D01*
X43888819Y78890762D02*
X43888819Y79081238D01*
X43888819Y79081238D02*
X43841200Y79176476D01*
X43841200Y79176476D02*
X43793580Y79224095D01*
X43793580Y79224095D02*
X43698342Y79271714D01*
X43698342Y79271714D02*
X43460247Y79271714D01*
X43460247Y79271714D02*
X43365009Y79224095D01*
X43365009Y79224095D02*
X43317390Y79176476D01*
X43317390Y79176476D02*
X43269771Y79081238D01*
X43269771Y79081238D02*
X43269771Y78890762D01*
X43269771Y78890762D02*
X43317390Y78795524D01*
X43317390Y78795524D02*
X43365009Y78747905D01*
X43365009Y78747905D02*
X43460247Y78700286D01*
X8694142Y71173180D02*
X8360809Y71649371D01*
X8122714Y71173180D02*
X8122714Y72173180D01*
X8122714Y72173180D02*
X8503666Y72173180D01*
X8503666Y72173180D02*
X8598904Y72125561D01*
X8598904Y72125561D02*
X8646523Y72077942D01*
X8646523Y72077942D02*
X8694142Y71982704D01*
X8694142Y71982704D02*
X8694142Y71839847D01*
X8694142Y71839847D02*
X8646523Y71744609D01*
X8646523Y71744609D02*
X8598904Y71696990D01*
X8598904Y71696990D02*
X8503666Y71649371D01*
X8503666Y71649371D02*
X8122714Y71649371D01*
X9646523Y71173180D02*
X9075095Y71173180D01*
X9360809Y71173180D02*
X9360809Y72173180D01*
X9360809Y72173180D02*
X9265571Y72030323D01*
X9265571Y72030323D02*
X9170333Y71935085D01*
X9170333Y71935085D02*
X9075095Y71887466D01*
X10027476Y72077942D02*
X10075095Y72125561D01*
X10075095Y72125561D02*
X10170333Y72173180D01*
X10170333Y72173180D02*
X10408428Y72173180D01*
X10408428Y72173180D02*
X10503666Y72125561D01*
X10503666Y72125561D02*
X10551285Y72077942D01*
X10551285Y72077942D02*
X10598904Y71982704D01*
X10598904Y71982704D02*
X10598904Y71887466D01*
X10598904Y71887466D02*
X10551285Y71744609D01*
X10551285Y71744609D02*
X9979857Y71173180D01*
X9979857Y71173180D02*
X10598904Y71173180D01*
X18012580Y64937333D02*
X18060200Y64889714D01*
X18060200Y64889714D02*
X18107819Y64746857D01*
X18107819Y64746857D02*
X18107819Y64651619D01*
X18107819Y64651619D02*
X18060200Y64508762D01*
X18060200Y64508762D02*
X17964961Y64413524D01*
X17964961Y64413524D02*
X17869723Y64365905D01*
X17869723Y64365905D02*
X17679247Y64318286D01*
X17679247Y64318286D02*
X17536390Y64318286D01*
X17536390Y64318286D02*
X17345914Y64365905D01*
X17345914Y64365905D02*
X17250676Y64413524D01*
X17250676Y64413524D02*
X17155438Y64508762D01*
X17155438Y64508762D02*
X17107819Y64651619D01*
X17107819Y64651619D02*
X17107819Y64746857D01*
X17107819Y64746857D02*
X17155438Y64889714D01*
X17155438Y64889714D02*
X17203057Y64937333D01*
X17107819Y65794476D02*
X17107819Y65604000D01*
X17107819Y65604000D02*
X17155438Y65508762D01*
X17155438Y65508762D02*
X17203057Y65461143D01*
X17203057Y65461143D02*
X17345914Y65365905D01*
X17345914Y65365905D02*
X17536390Y65318286D01*
X17536390Y65318286D02*
X17917342Y65318286D01*
X17917342Y65318286D02*
X18012580Y65365905D01*
X18012580Y65365905D02*
X18060200Y65413524D01*
X18060200Y65413524D02*
X18107819Y65508762D01*
X18107819Y65508762D02*
X18107819Y65699238D01*
X18107819Y65699238D02*
X18060200Y65794476D01*
X18060200Y65794476D02*
X18012580Y65842095D01*
X18012580Y65842095D02*
X17917342Y65889714D01*
X17917342Y65889714D02*
X17679247Y65889714D01*
X17679247Y65889714D02*
X17584009Y65842095D01*
X17584009Y65842095D02*
X17536390Y65794476D01*
X17536390Y65794476D02*
X17488771Y65699238D01*
X17488771Y65699238D02*
X17488771Y65508762D01*
X17488771Y65508762D02*
X17536390Y65413524D01*
X17536390Y65413524D02*
X17584009Y65365905D01*
X17584009Y65365905D02*
X17679247Y65318286D01*
X7235866Y36816380D02*
X7235866Y36102095D01*
X7235866Y36102095D02*
X7188247Y35959238D01*
X7188247Y35959238D02*
X7093009Y35864000D01*
X7093009Y35864000D02*
X6950152Y35816380D01*
X6950152Y35816380D02*
X6854914Y35816380D01*
X8140628Y36483047D02*
X8140628Y35816380D01*
X7902533Y36864000D02*
X7664438Y36149714D01*
X7664438Y36149714D02*
X8283485Y36149714D01*
X48064142Y107876180D02*
X47730809Y108352371D01*
X47492714Y107876180D02*
X47492714Y108876180D01*
X47492714Y108876180D02*
X47873666Y108876180D01*
X47873666Y108876180D02*
X47968904Y108828561D01*
X47968904Y108828561D02*
X48016523Y108780942D01*
X48016523Y108780942D02*
X48064142Y108685704D01*
X48064142Y108685704D02*
X48064142Y108542847D01*
X48064142Y108542847D02*
X48016523Y108447609D01*
X48016523Y108447609D02*
X47968904Y108399990D01*
X47968904Y108399990D02*
X47873666Y108352371D01*
X47873666Y108352371D02*
X47492714Y108352371D01*
X49016523Y107876180D02*
X48445095Y107876180D01*
X48730809Y107876180D02*
X48730809Y108876180D01*
X48730809Y108876180D02*
X48635571Y108733323D01*
X48635571Y108733323D02*
X48540333Y108638085D01*
X48540333Y108638085D02*
X48445095Y108590466D01*
X49349857Y108876180D02*
X50016523Y108876180D01*
X50016523Y108876180D02*
X49587952Y107876180D01*
X8295905Y101145180D02*
X8295905Y102145180D01*
X8295905Y102145180D02*
X8534000Y102145180D01*
X8534000Y102145180D02*
X8676857Y102097561D01*
X8676857Y102097561D02*
X8772095Y102002323D01*
X8772095Y102002323D02*
X8819714Y101907085D01*
X8819714Y101907085D02*
X8867333Y101716609D01*
X8867333Y101716609D02*
X8867333Y101573752D01*
X8867333Y101573752D02*
X8819714Y101383276D01*
X8819714Y101383276D02*
X8772095Y101288038D01*
X8772095Y101288038D02*
X8676857Y101192800D01*
X8676857Y101192800D02*
X8534000Y101145180D01*
X8534000Y101145180D02*
X8295905Y101145180D01*
X9248286Y102049942D02*
X9295905Y102097561D01*
X9295905Y102097561D02*
X9391143Y102145180D01*
X9391143Y102145180D02*
X9629238Y102145180D01*
X9629238Y102145180D02*
X9724476Y102097561D01*
X9724476Y102097561D02*
X9772095Y102049942D01*
X9772095Y102049942D02*
X9819714Y101954704D01*
X9819714Y101954704D02*
X9819714Y101859466D01*
X9819714Y101859466D02*
X9772095Y101716609D01*
X9772095Y101716609D02*
X9200667Y101145180D01*
X9200667Y101145180D02*
X9819714Y101145180D01*
X50778580Y78279333D02*
X50826200Y78231714D01*
X50826200Y78231714D02*
X50873819Y78088857D01*
X50873819Y78088857D02*
X50873819Y77993619D01*
X50873819Y77993619D02*
X50826200Y77850762D01*
X50826200Y77850762D02*
X50730961Y77755524D01*
X50730961Y77755524D02*
X50635723Y77707905D01*
X50635723Y77707905D02*
X50445247Y77660286D01*
X50445247Y77660286D02*
X50302390Y77660286D01*
X50302390Y77660286D02*
X50111914Y77707905D01*
X50111914Y77707905D02*
X50016676Y77755524D01*
X50016676Y77755524D02*
X49921438Y77850762D01*
X49921438Y77850762D02*
X49873819Y77993619D01*
X49873819Y77993619D02*
X49873819Y78088857D01*
X49873819Y78088857D02*
X49921438Y78231714D01*
X49921438Y78231714D02*
X49969057Y78279333D01*
X49873819Y78612667D02*
X49873819Y79279333D01*
X49873819Y79279333D02*
X50873819Y78850762D01*
X30395942Y114149980D02*
X30062609Y114626171D01*
X29824514Y114149980D02*
X29824514Y115149980D01*
X29824514Y115149980D02*
X30205466Y115149980D01*
X30205466Y115149980D02*
X30300704Y115102361D01*
X30300704Y115102361D02*
X30348323Y115054742D01*
X30348323Y115054742D02*
X30395942Y114959504D01*
X30395942Y114959504D02*
X30395942Y114816647D01*
X30395942Y114816647D02*
X30348323Y114721409D01*
X30348323Y114721409D02*
X30300704Y114673790D01*
X30300704Y114673790D02*
X30205466Y114626171D01*
X30205466Y114626171D02*
X29824514Y114626171D01*
X30776895Y115054742D02*
X30824514Y115102361D01*
X30824514Y115102361D02*
X30919752Y115149980D01*
X30919752Y115149980D02*
X31157847Y115149980D01*
X31157847Y115149980D02*
X31253085Y115102361D01*
X31253085Y115102361D02*
X31300704Y115054742D01*
X31300704Y115054742D02*
X31348323Y114959504D01*
X31348323Y114959504D02*
X31348323Y114864266D01*
X31348323Y114864266D02*
X31300704Y114721409D01*
X31300704Y114721409D02*
X30729276Y114149980D01*
X30729276Y114149980D02*
X31348323Y114149980D01*
X31967371Y115149980D02*
X32062609Y115149980D01*
X32062609Y115149980D02*
X32157847Y115102361D01*
X32157847Y115102361D02*
X32205466Y115054742D01*
X32205466Y115054742D02*
X32253085Y114959504D01*
X32253085Y114959504D02*
X32300704Y114769028D01*
X32300704Y114769028D02*
X32300704Y114530933D01*
X32300704Y114530933D02*
X32253085Y114340457D01*
X32253085Y114340457D02*
X32205466Y114245219D01*
X32205466Y114245219D02*
X32157847Y114197600D01*
X32157847Y114197600D02*
X32062609Y114149980D01*
X32062609Y114149980D02*
X31967371Y114149980D01*
X31967371Y114149980D02*
X31872133Y114197600D01*
X31872133Y114197600D02*
X31824514Y114245219D01*
X31824514Y114245219D02*
X31776895Y114340457D01*
X31776895Y114340457D02*
X31729276Y114530933D01*
X31729276Y114530933D02*
X31729276Y114769028D01*
X31729276Y114769028D02*
X31776895Y114959504D01*
X31776895Y114959504D02*
X31824514Y115054742D01*
X31824514Y115054742D02*
X31872133Y115102361D01*
X31872133Y115102361D02*
X31967371Y115149980D01*
X9104333Y75999180D02*
X8771000Y76475371D01*
X8532905Y75999180D02*
X8532905Y76999180D01*
X8532905Y76999180D02*
X8913857Y76999180D01*
X8913857Y76999180D02*
X9009095Y76951561D01*
X9009095Y76951561D02*
X9056714Y76903942D01*
X9056714Y76903942D02*
X9104333Y76808704D01*
X9104333Y76808704D02*
X9104333Y76665847D01*
X9104333Y76665847D02*
X9056714Y76570609D01*
X9056714Y76570609D02*
X9009095Y76522990D01*
X9009095Y76522990D02*
X8913857Y76475371D01*
X8913857Y76475371D02*
X8532905Y76475371D01*
X9485286Y76903942D02*
X9532905Y76951561D01*
X9532905Y76951561D02*
X9628143Y76999180D01*
X9628143Y76999180D02*
X9866238Y76999180D01*
X9866238Y76999180D02*
X9961476Y76951561D01*
X9961476Y76951561D02*
X10009095Y76903942D01*
X10009095Y76903942D02*
X10056714Y76808704D01*
X10056714Y76808704D02*
X10056714Y76713466D01*
X10056714Y76713466D02*
X10009095Y76570609D01*
X10009095Y76570609D02*
X9437667Y75999180D01*
X9437667Y75999180D02*
X10056714Y75999180D01*
X51974761Y53426932D02*
X51879523Y53474551D01*
X51879523Y53474551D02*
X51784285Y53569790D01*
X51784285Y53569790D02*
X51641428Y53712647D01*
X51641428Y53712647D02*
X51546190Y53760266D01*
X51546190Y53760266D02*
X51450952Y53760266D01*
X51498571Y53522170D02*
X51403333Y53569790D01*
X51403333Y53569790D02*
X51308095Y53665028D01*
X51308095Y53665028D02*
X51260476Y53855504D01*
X51260476Y53855504D02*
X51260476Y54188837D01*
X51260476Y54188837D02*
X51308095Y54379313D01*
X51308095Y54379313D02*
X51403333Y54474551D01*
X51403333Y54474551D02*
X51498571Y54522170D01*
X51498571Y54522170D02*
X51689047Y54522170D01*
X51689047Y54522170D02*
X51784285Y54474551D01*
X51784285Y54474551D02*
X51879523Y54379313D01*
X51879523Y54379313D02*
X51927142Y54188837D01*
X51927142Y54188837D02*
X51927142Y53855504D01*
X51927142Y53855504D02*
X51879523Y53665028D01*
X51879523Y53665028D02*
X51784285Y53569790D01*
X51784285Y53569790D02*
X51689047Y53522170D01*
X51689047Y53522170D02*
X51498571Y53522170D01*
X52308095Y54426932D02*
X52355714Y54474551D01*
X52355714Y54474551D02*
X52450952Y54522170D01*
X52450952Y54522170D02*
X52689047Y54522170D01*
X52689047Y54522170D02*
X52784285Y54474551D01*
X52784285Y54474551D02*
X52831904Y54426932D01*
X52831904Y54426932D02*
X52879523Y54331694D01*
X52879523Y54331694D02*
X52879523Y54236456D01*
X52879523Y54236456D02*
X52831904Y54093599D01*
X52831904Y54093599D02*
X52260476Y53522170D01*
X52260476Y53522170D02*
X52879523Y53522170D01*
X51427142Y44503180D02*
X51093809Y44979371D01*
X50855714Y44503180D02*
X50855714Y45503180D01*
X50855714Y45503180D02*
X51236666Y45503180D01*
X51236666Y45503180D02*
X51331904Y45455561D01*
X51331904Y45455561D02*
X51379523Y45407942D01*
X51379523Y45407942D02*
X51427142Y45312704D01*
X51427142Y45312704D02*
X51427142Y45169847D01*
X51427142Y45169847D02*
X51379523Y45074609D01*
X51379523Y45074609D02*
X51331904Y45026990D01*
X51331904Y45026990D02*
X51236666Y44979371D01*
X51236666Y44979371D02*
X50855714Y44979371D01*
X52379523Y44503180D02*
X51808095Y44503180D01*
X52093809Y44503180D02*
X52093809Y45503180D01*
X52093809Y45503180D02*
X51998571Y45360323D01*
X51998571Y45360323D02*
X51903333Y45265085D01*
X51903333Y45265085D02*
X51808095Y45217466D01*
X53236666Y45503180D02*
X53046190Y45503180D01*
X53046190Y45503180D02*
X52950952Y45455561D01*
X52950952Y45455561D02*
X52903333Y45407942D01*
X52903333Y45407942D02*
X52808095Y45265085D01*
X52808095Y45265085D02*
X52760476Y45074609D01*
X52760476Y45074609D02*
X52760476Y44693657D01*
X52760476Y44693657D02*
X52808095Y44598419D01*
X52808095Y44598419D02*
X52855714Y44550800D01*
X52855714Y44550800D02*
X52950952Y44503180D01*
X52950952Y44503180D02*
X53141428Y44503180D01*
X53141428Y44503180D02*
X53236666Y44550800D01*
X53236666Y44550800D02*
X53284285Y44598419D01*
X53284285Y44598419D02*
X53331904Y44693657D01*
X53331904Y44693657D02*
X53331904Y44931752D01*
X53331904Y44931752D02*
X53284285Y45026990D01*
X53284285Y45026990D02*
X53236666Y45074609D01*
X53236666Y45074609D02*
X53141428Y45122228D01*
X53141428Y45122228D02*
X52950952Y45122228D01*
X52950952Y45122228D02*
X52855714Y45074609D01*
X52855714Y45074609D02*
X52808095Y45026990D01*
X52808095Y45026990D02*
X52760476Y44931752D01*
X34951333Y54790180D02*
X34618000Y55266371D01*
X34379905Y54790180D02*
X34379905Y55790180D01*
X34379905Y55790180D02*
X34760857Y55790180D01*
X34760857Y55790180D02*
X34856095Y55742561D01*
X34856095Y55742561D02*
X34903714Y55694942D01*
X34903714Y55694942D02*
X34951333Y55599704D01*
X34951333Y55599704D02*
X34951333Y55456847D01*
X34951333Y55456847D02*
X34903714Y55361609D01*
X34903714Y55361609D02*
X34856095Y55313990D01*
X34856095Y55313990D02*
X34760857Y55266371D01*
X34760857Y55266371D02*
X34379905Y55266371D01*
X35284667Y55790180D02*
X35903714Y55790180D01*
X35903714Y55790180D02*
X35570381Y55409228D01*
X35570381Y55409228D02*
X35713238Y55409228D01*
X35713238Y55409228D02*
X35808476Y55361609D01*
X35808476Y55361609D02*
X35856095Y55313990D01*
X35856095Y55313990D02*
X35903714Y55218752D01*
X35903714Y55218752D02*
X35903714Y54980657D01*
X35903714Y54980657D02*
X35856095Y54885419D01*
X35856095Y54885419D02*
X35808476Y54837800D01*
X35808476Y54837800D02*
X35713238Y54790180D01*
X35713238Y54790180D02*
X35427524Y54790180D01*
X35427524Y54790180D02*
X35332286Y54837800D01*
X35332286Y54837800D02*
X35284667Y54885419D01*
X9064333Y81428419D02*
X9016714Y81380800D01*
X9016714Y81380800D02*
X8873857Y81333180D01*
X8873857Y81333180D02*
X8778619Y81333180D01*
X8778619Y81333180D02*
X8635762Y81380800D01*
X8635762Y81380800D02*
X8540524Y81476038D01*
X8540524Y81476038D02*
X8492905Y81571276D01*
X8492905Y81571276D02*
X8445286Y81761752D01*
X8445286Y81761752D02*
X8445286Y81904609D01*
X8445286Y81904609D02*
X8492905Y82095085D01*
X8492905Y82095085D02*
X8540524Y82190323D01*
X8540524Y82190323D02*
X8635762Y82285561D01*
X8635762Y82285561D02*
X8778619Y82333180D01*
X8778619Y82333180D02*
X8873857Y82333180D01*
X8873857Y82333180D02*
X9016714Y82285561D01*
X9016714Y82285561D02*
X9064333Y82237942D01*
X10016714Y81333180D02*
X9445286Y81333180D01*
X9731000Y81333180D02*
X9731000Y82333180D01*
X9731000Y82333180D02*
X9635762Y82190323D01*
X9635762Y82190323D02*
X9540524Y82095085D01*
X9540524Y82095085D02*
X9445286Y82047466D01*
X51427142Y49329180D02*
X51093809Y49805371D01*
X50855714Y49329180D02*
X50855714Y50329180D01*
X50855714Y50329180D02*
X51236666Y50329180D01*
X51236666Y50329180D02*
X51331904Y50281561D01*
X51331904Y50281561D02*
X51379523Y50233942D01*
X51379523Y50233942D02*
X51427142Y50138704D01*
X51427142Y50138704D02*
X51427142Y49995847D01*
X51427142Y49995847D02*
X51379523Y49900609D01*
X51379523Y49900609D02*
X51331904Y49852990D01*
X51331904Y49852990D02*
X51236666Y49805371D01*
X51236666Y49805371D02*
X50855714Y49805371D01*
X52379523Y49329180D02*
X51808095Y49329180D01*
X52093809Y49329180D02*
X52093809Y50329180D01*
X52093809Y50329180D02*
X51998571Y50186323D01*
X51998571Y50186323D02*
X51903333Y50091085D01*
X51903333Y50091085D02*
X51808095Y50043466D01*
X53236666Y49995847D02*
X53236666Y49329180D01*
X52998571Y50376800D02*
X52760476Y49662514D01*
X52760476Y49662514D02*
X53379523Y49662514D01*
X9170333Y44122180D02*
X8837000Y44598371D01*
X8598905Y44122180D02*
X8598905Y45122180D01*
X8598905Y45122180D02*
X8979857Y45122180D01*
X8979857Y45122180D02*
X9075095Y45074561D01*
X9075095Y45074561D02*
X9122714Y45026942D01*
X9122714Y45026942D02*
X9170333Y44931704D01*
X9170333Y44931704D02*
X9170333Y44788847D01*
X9170333Y44788847D02*
X9122714Y44693609D01*
X9122714Y44693609D02*
X9075095Y44645990D01*
X9075095Y44645990D02*
X8979857Y44598371D01*
X8979857Y44598371D02*
X8598905Y44598371D01*
X9741762Y44693609D02*
X9646524Y44741228D01*
X9646524Y44741228D02*
X9598905Y44788847D01*
X9598905Y44788847D02*
X9551286Y44884085D01*
X9551286Y44884085D02*
X9551286Y44931704D01*
X9551286Y44931704D02*
X9598905Y45026942D01*
X9598905Y45026942D02*
X9646524Y45074561D01*
X9646524Y45074561D02*
X9741762Y45122180D01*
X9741762Y45122180D02*
X9932238Y45122180D01*
X9932238Y45122180D02*
X10027476Y45074561D01*
X10027476Y45074561D02*
X10075095Y45026942D01*
X10075095Y45026942D02*
X10122714Y44931704D01*
X10122714Y44931704D02*
X10122714Y44884085D01*
X10122714Y44884085D02*
X10075095Y44788847D01*
X10075095Y44788847D02*
X10027476Y44741228D01*
X10027476Y44741228D02*
X9932238Y44693609D01*
X9932238Y44693609D02*
X9741762Y44693609D01*
X9741762Y44693609D02*
X9646524Y44645990D01*
X9646524Y44645990D02*
X9598905Y44598371D01*
X9598905Y44598371D02*
X9551286Y44503133D01*
X9551286Y44503133D02*
X9551286Y44312657D01*
X9551286Y44312657D02*
X9598905Y44217419D01*
X9598905Y44217419D02*
X9646524Y44169800D01*
X9646524Y44169800D02*
X9741762Y44122180D01*
X9741762Y44122180D02*
X9932238Y44122180D01*
X9932238Y44122180D02*
X10027476Y44169800D01*
X10027476Y44169800D02*
X10075095Y44217419D01*
X10075095Y44217419D02*
X10122714Y44312657D01*
X10122714Y44312657D02*
X10122714Y44503133D01*
X10122714Y44503133D02*
X10075095Y44598371D01*
X10075095Y44598371D02*
X10027476Y44645990D01*
X10027476Y44645990D02*
X9932238Y44693609D01*
X19264333Y76029419D02*
X19216714Y75981800D01*
X19216714Y75981800D02*
X19073857Y75934180D01*
X19073857Y75934180D02*
X18978619Y75934180D01*
X18978619Y75934180D02*
X18835762Y75981800D01*
X18835762Y75981800D02*
X18740524Y76077038D01*
X18740524Y76077038D02*
X18692905Y76172276D01*
X18692905Y76172276D02*
X18645286Y76362752D01*
X18645286Y76362752D02*
X18645286Y76505609D01*
X18645286Y76505609D02*
X18692905Y76696085D01*
X18692905Y76696085D02*
X18740524Y76791323D01*
X18740524Y76791323D02*
X18835762Y76886561D01*
X18835762Y76886561D02*
X18978619Y76934180D01*
X18978619Y76934180D02*
X19073857Y76934180D01*
X19073857Y76934180D02*
X19216714Y76886561D01*
X19216714Y76886561D02*
X19264333Y76838942D01*
X19597667Y76934180D02*
X20216714Y76934180D01*
X20216714Y76934180D02*
X19883381Y76553228D01*
X19883381Y76553228D02*
X20026238Y76553228D01*
X20026238Y76553228D02*
X20121476Y76505609D01*
X20121476Y76505609D02*
X20169095Y76457990D01*
X20169095Y76457990D02*
X20216714Y76362752D01*
X20216714Y76362752D02*
X20216714Y76124657D01*
X20216714Y76124657D02*
X20169095Y76029419D01*
X20169095Y76029419D02*
X20121476Y75981800D01*
X20121476Y75981800D02*
X20026238Y75934180D01*
X20026238Y75934180D02*
X19740524Y75934180D01*
X19740524Y75934180D02*
X19645286Y75981800D01*
X19645286Y75981800D02*
X19597667Y76029419D01*
X43608666Y41439180D02*
X43608666Y40724895D01*
X43608666Y40724895D02*
X43561047Y40582038D01*
X43561047Y40582038D02*
X43465809Y40486800D01*
X43465809Y40486800D02*
X43322952Y40439180D01*
X43322952Y40439180D02*
X43227714Y40439180D01*
X44037238Y41343942D02*
X44084857Y41391561D01*
X44084857Y41391561D02*
X44180095Y41439180D01*
X44180095Y41439180D02*
X44418190Y41439180D01*
X44418190Y41439180D02*
X44513428Y41391561D01*
X44513428Y41391561D02*
X44561047Y41343942D01*
X44561047Y41343942D02*
X44608666Y41248704D01*
X44608666Y41248704D02*
X44608666Y41153466D01*
X44608666Y41153466D02*
X44561047Y41010609D01*
X44561047Y41010609D02*
X43989619Y40439180D01*
X43989619Y40439180D02*
X44608666Y40439180D01*
X9038333Y92255180D02*
X8705000Y92731371D01*
X8466905Y92255180D02*
X8466905Y93255180D01*
X8466905Y93255180D02*
X8847857Y93255180D01*
X8847857Y93255180D02*
X8943095Y93207561D01*
X8943095Y93207561D02*
X8990714Y93159942D01*
X8990714Y93159942D02*
X9038333Y93064704D01*
X9038333Y93064704D02*
X9038333Y92921847D01*
X9038333Y92921847D02*
X8990714Y92826609D01*
X8990714Y92826609D02*
X8943095Y92778990D01*
X8943095Y92778990D02*
X8847857Y92731371D01*
X8847857Y92731371D02*
X8466905Y92731371D01*
X9990714Y92255180D02*
X9419286Y92255180D01*
X9705000Y92255180D02*
X9705000Y93255180D01*
X9705000Y93255180D02*
X9609762Y93112323D01*
X9609762Y93112323D02*
X9514524Y93017085D01*
X9514524Y93017085D02*
X9419286Y92969466D01*
X43922580Y67544333D02*
X43970200Y67496714D01*
X43970200Y67496714D02*
X44017819Y67353857D01*
X44017819Y67353857D02*
X44017819Y67258619D01*
X44017819Y67258619D02*
X43970200Y67115762D01*
X43970200Y67115762D02*
X43874961Y67020524D01*
X43874961Y67020524D02*
X43779723Y66972905D01*
X43779723Y66972905D02*
X43589247Y66925286D01*
X43589247Y66925286D02*
X43446390Y66925286D01*
X43446390Y66925286D02*
X43255914Y66972905D01*
X43255914Y66972905D02*
X43160676Y67020524D01*
X43160676Y67020524D02*
X43065438Y67115762D01*
X43065438Y67115762D02*
X43017819Y67258619D01*
X43017819Y67258619D02*
X43017819Y67353857D01*
X43017819Y67353857D02*
X43065438Y67496714D01*
X43065438Y67496714D02*
X43113057Y67544333D01*
X43446390Y68115762D02*
X43398771Y68020524D01*
X43398771Y68020524D02*
X43351152Y67972905D01*
X43351152Y67972905D02*
X43255914Y67925286D01*
X43255914Y67925286D02*
X43208295Y67925286D01*
X43208295Y67925286D02*
X43113057Y67972905D01*
X43113057Y67972905D02*
X43065438Y68020524D01*
X43065438Y68020524D02*
X43017819Y68115762D01*
X43017819Y68115762D02*
X43017819Y68306238D01*
X43017819Y68306238D02*
X43065438Y68401476D01*
X43065438Y68401476D02*
X43113057Y68449095D01*
X43113057Y68449095D02*
X43208295Y68496714D01*
X43208295Y68496714D02*
X43255914Y68496714D01*
X43255914Y68496714D02*
X43351152Y68449095D01*
X43351152Y68449095D02*
X43398771Y68401476D01*
X43398771Y68401476D02*
X43446390Y68306238D01*
X43446390Y68306238D02*
X43446390Y68115762D01*
X43446390Y68115762D02*
X43494009Y68020524D01*
X43494009Y68020524D02*
X43541628Y67972905D01*
X43541628Y67972905D02*
X43636866Y67925286D01*
X43636866Y67925286D02*
X43827342Y67925286D01*
X43827342Y67925286D02*
X43922580Y67972905D01*
X43922580Y67972905D02*
X43970200Y68020524D01*
X43970200Y68020524D02*
X44017819Y68115762D01*
X44017819Y68115762D02*
X44017819Y68306238D01*
X44017819Y68306238D02*
X43970200Y68401476D01*
X43970200Y68401476D02*
X43922580Y68449095D01*
X43922580Y68449095D02*
X43827342Y68496714D01*
X43827342Y68496714D02*
X43636866Y68496714D01*
X43636866Y68496714D02*
X43541628Y68449095D01*
X43541628Y68449095D02*
X43494009Y68401476D01*
X43494009Y68401476D02*
X43446390Y68306238D01*
X38456400Y70562573D02*
X38456400Y69419716D01*
X37884971Y69991144D02*
X39027828Y69991144D01*
X51361142Y67871180D02*
X51027809Y68347371D01*
X50789714Y67871180D02*
X50789714Y68871180D01*
X50789714Y68871180D02*
X51170666Y68871180D01*
X51170666Y68871180D02*
X51265904Y68823561D01*
X51265904Y68823561D02*
X51313523Y68775942D01*
X51313523Y68775942D02*
X51361142Y68680704D01*
X51361142Y68680704D02*
X51361142Y68537847D01*
X51361142Y68537847D02*
X51313523Y68442609D01*
X51313523Y68442609D02*
X51265904Y68394990D01*
X51265904Y68394990D02*
X51170666Y68347371D01*
X51170666Y68347371D02*
X50789714Y68347371D01*
X52313523Y67871180D02*
X51742095Y67871180D01*
X52027809Y67871180D02*
X52027809Y68871180D01*
X52027809Y68871180D02*
X51932571Y68728323D01*
X51932571Y68728323D02*
X51837333Y68633085D01*
X51837333Y68633085D02*
X51742095Y68585466D01*
X52646857Y68871180D02*
X53265904Y68871180D01*
X53265904Y68871180D02*
X52932571Y68490228D01*
X52932571Y68490228D02*
X53075428Y68490228D01*
X53075428Y68490228D02*
X53170666Y68442609D01*
X53170666Y68442609D02*
X53218285Y68394990D01*
X53218285Y68394990D02*
X53265904Y68299752D01*
X53265904Y68299752D02*
X53265904Y68061657D01*
X53265904Y68061657D02*
X53218285Y67966419D01*
X53218285Y67966419D02*
X53170666Y67918800D01*
X53170666Y67918800D02*
X53075428Y67871180D01*
X53075428Y67871180D02*
X52789714Y67871180D01*
X52789714Y67871180D02*
X52694476Y67918800D01*
X52694476Y67918800D02*
X52646857Y67966419D01*
X52549466Y38949980D02*
X52549466Y38235695D01*
X52549466Y38235695D02*
X52501847Y38092838D01*
X52501847Y38092838D02*
X52406609Y37997600D01*
X52406609Y37997600D02*
X52263752Y37949980D01*
X52263752Y37949980D02*
X52168514Y37949980D01*
X53501847Y38949980D02*
X53025657Y38949980D01*
X53025657Y38949980D02*
X52978038Y38473790D01*
X52978038Y38473790D02*
X53025657Y38521409D01*
X53025657Y38521409D02*
X53120895Y38569028D01*
X53120895Y38569028D02*
X53358990Y38569028D01*
X53358990Y38569028D02*
X53454228Y38521409D01*
X53454228Y38521409D02*
X53501847Y38473790D01*
X53501847Y38473790D02*
X53549466Y38378552D01*
X53549466Y38378552D02*
X53549466Y38140457D01*
X53549466Y38140457D02*
X53501847Y38045219D01*
X53501847Y38045219D02*
X53454228Y37997600D01*
X53454228Y37997600D02*
X53358990Y37949980D01*
X53358990Y37949980D02*
X53120895Y37949980D01*
X53120895Y37949980D02*
X53025657Y37997600D01*
X53025657Y37997600D02*
X52978038Y38045219D01*
X26904580Y54590333D02*
X26952200Y54542714D01*
X26952200Y54542714D02*
X26999819Y54399857D01*
X26999819Y54399857D02*
X26999819Y54304619D01*
X26999819Y54304619D02*
X26952200Y54161762D01*
X26952200Y54161762D02*
X26856961Y54066524D01*
X26856961Y54066524D02*
X26761723Y54018905D01*
X26761723Y54018905D02*
X26571247Y53971286D01*
X26571247Y53971286D02*
X26428390Y53971286D01*
X26428390Y53971286D02*
X26237914Y54018905D01*
X26237914Y54018905D02*
X26142676Y54066524D01*
X26142676Y54066524D02*
X26047438Y54161762D01*
X26047438Y54161762D02*
X25999819Y54304619D01*
X25999819Y54304619D02*
X25999819Y54399857D01*
X25999819Y54399857D02*
X26047438Y54542714D01*
X26047438Y54542714D02*
X26095057Y54590333D01*
X26095057Y54971286D02*
X26047438Y55018905D01*
X26047438Y55018905D02*
X25999819Y55114143D01*
X25999819Y55114143D02*
X25999819Y55352238D01*
X25999819Y55352238D02*
X26047438Y55447476D01*
X26047438Y55447476D02*
X26095057Y55495095D01*
X26095057Y55495095D02*
X26190295Y55542714D01*
X26190295Y55542714D02*
X26285533Y55542714D01*
X26285533Y55542714D02*
X26428390Y55495095D01*
X26428390Y55495095D02*
X26999819Y54923667D01*
X26999819Y54923667D02*
X26999819Y55542714D01*
X21489200Y57532373D02*
X21489200Y56389516D01*
X20917771Y56960944D02*
X22060628Y56960944D01*
X29649142Y64442180D02*
X29315809Y64918371D01*
X29077714Y64442180D02*
X29077714Y65442180D01*
X29077714Y65442180D02*
X29458666Y65442180D01*
X29458666Y65442180D02*
X29553904Y65394561D01*
X29553904Y65394561D02*
X29601523Y65346942D01*
X29601523Y65346942D02*
X29649142Y65251704D01*
X29649142Y65251704D02*
X29649142Y65108847D01*
X29649142Y65108847D02*
X29601523Y65013609D01*
X29601523Y65013609D02*
X29553904Y64965990D01*
X29553904Y64965990D02*
X29458666Y64918371D01*
X29458666Y64918371D02*
X29077714Y64918371D01*
X30601523Y64442180D02*
X30030095Y64442180D01*
X30315809Y64442180D02*
X30315809Y65442180D01*
X30315809Y65442180D02*
X30220571Y65299323D01*
X30220571Y65299323D02*
X30125333Y65204085D01*
X30125333Y65204085D02*
X30030095Y65156466D01*
X31220571Y65442180D02*
X31315809Y65442180D01*
X31315809Y65442180D02*
X31411047Y65394561D01*
X31411047Y65394561D02*
X31458666Y65346942D01*
X31458666Y65346942D02*
X31506285Y65251704D01*
X31506285Y65251704D02*
X31553904Y65061228D01*
X31553904Y65061228D02*
X31553904Y64823133D01*
X31553904Y64823133D02*
X31506285Y64632657D01*
X31506285Y64632657D02*
X31458666Y64537419D01*
X31458666Y64537419D02*
X31411047Y64489800D01*
X31411047Y64489800D02*
X31315809Y64442180D01*
X31315809Y64442180D02*
X31220571Y64442180D01*
X31220571Y64442180D02*
X31125333Y64489800D01*
X31125333Y64489800D02*
X31077714Y64537419D01*
X31077714Y64537419D02*
X31030095Y64632657D01*
X31030095Y64632657D02*
X30982476Y64823133D01*
X30982476Y64823133D02*
X30982476Y65061228D01*
X30982476Y65061228D02*
X31030095Y65251704D01*
X31030095Y65251704D02*
X31077714Y65346942D01*
X31077714Y65346942D02*
X31125333Y65394561D01*
X31125333Y65394561D02*
X31220571Y65442180D01*
X40738580Y104132142D02*
X40786200Y104084523D01*
X40786200Y104084523D02*
X40833819Y103941666D01*
X40833819Y103941666D02*
X40833819Y103846428D01*
X40833819Y103846428D02*
X40786200Y103703571D01*
X40786200Y103703571D02*
X40690961Y103608333D01*
X40690961Y103608333D02*
X40595723Y103560714D01*
X40595723Y103560714D02*
X40405247Y103513095D01*
X40405247Y103513095D02*
X40262390Y103513095D01*
X40262390Y103513095D02*
X40071914Y103560714D01*
X40071914Y103560714D02*
X39976676Y103608333D01*
X39976676Y103608333D02*
X39881438Y103703571D01*
X39881438Y103703571D02*
X39833819Y103846428D01*
X39833819Y103846428D02*
X39833819Y103941666D01*
X39833819Y103941666D02*
X39881438Y104084523D01*
X39881438Y104084523D02*
X39929057Y104132142D01*
X40833819Y105084523D02*
X40833819Y104513095D01*
X40833819Y104798809D02*
X39833819Y104798809D01*
X39833819Y104798809D02*
X39976676Y104703571D01*
X39976676Y104703571D02*
X40071914Y104608333D01*
X40071914Y104608333D02*
X40119533Y104513095D01*
X39833819Y105703571D02*
X39833819Y105798809D01*
X39833819Y105798809D02*
X39881438Y105894047D01*
X39881438Y105894047D02*
X39929057Y105941666D01*
X39929057Y105941666D02*
X40024295Y105989285D01*
X40024295Y105989285D02*
X40214771Y106036904D01*
X40214771Y106036904D02*
X40452866Y106036904D01*
X40452866Y106036904D02*
X40643342Y105989285D01*
X40643342Y105989285D02*
X40738580Y105941666D01*
X40738580Y105941666D02*
X40786200Y105894047D01*
X40786200Y105894047D02*
X40833819Y105798809D01*
X40833819Y105798809D02*
X40833819Y105703571D01*
X40833819Y105703571D02*
X40786200Y105608333D01*
X40786200Y105608333D02*
X40738580Y105560714D01*
X40738580Y105560714D02*
X40643342Y105513095D01*
X40643342Y105513095D02*
X40452866Y105465476D01*
X40452866Y105465476D02*
X40214771Y105465476D01*
X40214771Y105465476D02*
X40024295Y105513095D01*
X40024295Y105513095D02*
X39929057Y105560714D01*
X39929057Y105560714D02*
X39881438Y105608333D01*
X39881438Y105608333D02*
X39833819Y105703571D01*
X33757400Y108179973D02*
X33757400Y107037116D01*
X33185971Y107608544D02*
X34328828Y107608544D01*
X48029905Y103685180D02*
X48029905Y104685180D01*
X48029905Y104685180D02*
X48268000Y104685180D01*
X48268000Y104685180D02*
X48410857Y104637561D01*
X48410857Y104637561D02*
X48506095Y104542323D01*
X48506095Y104542323D02*
X48553714Y104447085D01*
X48553714Y104447085D02*
X48601333Y104256609D01*
X48601333Y104256609D02*
X48601333Y104113752D01*
X48601333Y104113752D02*
X48553714Y103923276D01*
X48553714Y103923276D02*
X48506095Y103828038D01*
X48506095Y103828038D02*
X48410857Y103732800D01*
X48410857Y103732800D02*
X48268000Y103685180D01*
X48268000Y103685180D02*
X48029905Y103685180D01*
X49458476Y104351847D02*
X49458476Y103685180D01*
X49220381Y104732800D02*
X48982286Y104018514D01*
X48982286Y104018514D02*
X49601333Y104018514D01*
X30120333Y68252180D02*
X29787000Y68728371D01*
X29548905Y68252180D02*
X29548905Y69252180D01*
X29548905Y69252180D02*
X29929857Y69252180D01*
X29929857Y69252180D02*
X30025095Y69204561D01*
X30025095Y69204561D02*
X30072714Y69156942D01*
X30072714Y69156942D02*
X30120333Y69061704D01*
X30120333Y69061704D02*
X30120333Y68918847D01*
X30120333Y68918847D02*
X30072714Y68823609D01*
X30072714Y68823609D02*
X30025095Y68775990D01*
X30025095Y68775990D02*
X29929857Y68728371D01*
X29929857Y68728371D02*
X29548905Y68728371D01*
X30453667Y69252180D02*
X31120333Y69252180D01*
X31120333Y69252180D02*
X30691762Y68252180D01*
X20806580Y46696333D02*
X20854200Y46648714D01*
X20854200Y46648714D02*
X20901819Y46505857D01*
X20901819Y46505857D02*
X20901819Y46410619D01*
X20901819Y46410619D02*
X20854200Y46267762D01*
X20854200Y46267762D02*
X20758961Y46172524D01*
X20758961Y46172524D02*
X20663723Y46124905D01*
X20663723Y46124905D02*
X20473247Y46077286D01*
X20473247Y46077286D02*
X20330390Y46077286D01*
X20330390Y46077286D02*
X20139914Y46124905D01*
X20139914Y46124905D02*
X20044676Y46172524D01*
X20044676Y46172524D02*
X19949438Y46267762D01*
X19949438Y46267762D02*
X19901819Y46410619D01*
X19901819Y46410619D02*
X19901819Y46505857D01*
X19901819Y46505857D02*
X19949438Y46648714D01*
X19949438Y46648714D02*
X19997057Y46696333D01*
X20235152Y47553476D02*
X20901819Y47553476D01*
X19854200Y47315381D02*
X20568485Y47077286D01*
X20568485Y47077286D02*
X20568485Y47696333D01*
X30390942Y110339980D02*
X30057609Y110816171D01*
X29819514Y110339980D02*
X29819514Y111339980D01*
X29819514Y111339980D02*
X30200466Y111339980D01*
X30200466Y111339980D02*
X30295704Y111292361D01*
X30295704Y111292361D02*
X30343323Y111244742D01*
X30343323Y111244742D02*
X30390942Y111149504D01*
X30390942Y111149504D02*
X30390942Y111006647D01*
X30390942Y111006647D02*
X30343323Y110911409D01*
X30343323Y110911409D02*
X30295704Y110863790D01*
X30295704Y110863790D02*
X30200466Y110816171D01*
X30200466Y110816171D02*
X29819514Y110816171D01*
X31343323Y110339980D02*
X30771895Y110339980D01*
X31057609Y110339980D02*
X31057609Y111339980D01*
X31057609Y111339980D02*
X30962371Y111197123D01*
X30962371Y111197123D02*
X30867133Y111101885D01*
X30867133Y111101885D02*
X30771895Y111054266D01*
X31914752Y110911409D02*
X31819514Y110959028D01*
X31819514Y110959028D02*
X31771895Y111006647D01*
X31771895Y111006647D02*
X31724276Y111101885D01*
X31724276Y111101885D02*
X31724276Y111149504D01*
X31724276Y111149504D02*
X31771895Y111244742D01*
X31771895Y111244742D02*
X31819514Y111292361D01*
X31819514Y111292361D02*
X31914752Y111339980D01*
X31914752Y111339980D02*
X32105228Y111339980D01*
X32105228Y111339980D02*
X32200466Y111292361D01*
X32200466Y111292361D02*
X32248085Y111244742D01*
X32248085Y111244742D02*
X32295704Y111149504D01*
X32295704Y111149504D02*
X32295704Y111101885D01*
X32295704Y111101885D02*
X32248085Y111006647D01*
X32248085Y111006647D02*
X32200466Y110959028D01*
X32200466Y110959028D02*
X32105228Y110911409D01*
X32105228Y110911409D02*
X31914752Y110911409D01*
X31914752Y110911409D02*
X31819514Y110863790D01*
X31819514Y110863790D02*
X31771895Y110816171D01*
X31771895Y110816171D02*
X31724276Y110720933D01*
X31724276Y110720933D02*
X31724276Y110530457D01*
X31724276Y110530457D02*
X31771895Y110435219D01*
X31771895Y110435219D02*
X31819514Y110387600D01*
X31819514Y110387600D02*
X31914752Y110339980D01*
X31914752Y110339980D02*
X32105228Y110339980D01*
X32105228Y110339980D02*
X32200466Y110387600D01*
X32200466Y110387600D02*
X32248085Y110435219D01*
X32248085Y110435219D02*
X32295704Y110530457D01*
X32295704Y110530457D02*
X32295704Y110720933D01*
X32295704Y110720933D02*
X32248085Y110816171D01*
X32248085Y110816171D02*
X32200466Y110863790D01*
X32200466Y110863790D02*
X32105228Y110911409D01*
X28067095Y83948180D02*
X28067095Y83138657D01*
X28067095Y83138657D02*
X28114714Y83043419D01*
X28114714Y83043419D02*
X28162333Y82995800D01*
X28162333Y82995800D02*
X28257571Y82948180D01*
X28257571Y82948180D02*
X28448047Y82948180D01*
X28448047Y82948180D02*
X28543285Y82995800D01*
X28543285Y82995800D02*
X28590904Y83043419D01*
X28590904Y83043419D02*
X28638523Y83138657D01*
X28638523Y83138657D02*
X28638523Y83948180D01*
X29638523Y82948180D02*
X29067095Y82948180D01*
X29352809Y82948180D02*
X29352809Y83948180D01*
X29352809Y83948180D02*
X29257571Y83805323D01*
X29257571Y83805323D02*
X29162333Y83710085D01*
X29162333Y83710085D02*
X29067095Y83662466D01*
X38060333Y89048419D02*
X38012714Y89000800D01*
X38012714Y89000800D02*
X37869857Y88953180D01*
X37869857Y88953180D02*
X37774619Y88953180D01*
X37774619Y88953180D02*
X37631762Y89000800D01*
X37631762Y89000800D02*
X37536524Y89096038D01*
X37536524Y89096038D02*
X37488905Y89191276D01*
X37488905Y89191276D02*
X37441286Y89381752D01*
X37441286Y89381752D02*
X37441286Y89524609D01*
X37441286Y89524609D02*
X37488905Y89715085D01*
X37488905Y89715085D02*
X37536524Y89810323D01*
X37536524Y89810323D02*
X37631762Y89905561D01*
X37631762Y89905561D02*
X37774619Y89953180D01*
X37774619Y89953180D02*
X37869857Y89953180D01*
X37869857Y89953180D02*
X38012714Y89905561D01*
X38012714Y89905561D02*
X38060333Y89857942D01*
X38965095Y89953180D02*
X38488905Y89953180D01*
X38488905Y89953180D02*
X38441286Y89476990D01*
X38441286Y89476990D02*
X38488905Y89524609D01*
X38488905Y89524609D02*
X38584143Y89572228D01*
X38584143Y89572228D02*
X38822238Y89572228D01*
X38822238Y89572228D02*
X38917476Y89524609D01*
X38917476Y89524609D02*
X38965095Y89476990D01*
X38965095Y89476990D02*
X39012714Y89381752D01*
X39012714Y89381752D02*
X39012714Y89143657D01*
X39012714Y89143657D02*
X38965095Y89048419D01*
X38965095Y89048419D02*
X38917476Y89000800D01*
X38917476Y89000800D02*
X38822238Y88953180D01*
X38822238Y88953180D02*
X38584143Y88953180D01*
X38584143Y88953180D02*
X38488905Y89000800D01*
X38488905Y89000800D02*
X38441286Y89048419D01*
X8676905Y96700180D02*
X8676905Y97700180D01*
X8676905Y97700180D02*
X8915000Y97700180D01*
X8915000Y97700180D02*
X9057857Y97652561D01*
X9057857Y97652561D02*
X9153095Y97557323D01*
X9153095Y97557323D02*
X9200714Y97462085D01*
X9200714Y97462085D02*
X9248333Y97271609D01*
X9248333Y97271609D02*
X9248333Y97128752D01*
X9248333Y97128752D02*
X9200714Y96938276D01*
X9200714Y96938276D02*
X9153095Y96843038D01*
X9153095Y96843038D02*
X9057857Y96747800D01*
X9057857Y96747800D02*
X8915000Y96700180D01*
X8915000Y96700180D02*
X8676905Y96700180D01*
X10200714Y96700180D02*
X9629286Y96700180D01*
X9915000Y96700180D02*
X9915000Y97700180D01*
X9915000Y97700180D02*
X9819762Y97557323D01*
X9819762Y97557323D02*
X9724524Y97462085D01*
X9724524Y97462085D02*
X9629286Y97414466D01*
X44045580Y48812333D02*
X44093200Y48764714D01*
X44093200Y48764714D02*
X44140819Y48621857D01*
X44140819Y48621857D02*
X44140819Y48526619D01*
X44140819Y48526619D02*
X44093200Y48383762D01*
X44093200Y48383762D02*
X43997961Y48288524D01*
X43997961Y48288524D02*
X43902723Y48240905D01*
X43902723Y48240905D02*
X43712247Y48193286D01*
X43712247Y48193286D02*
X43569390Y48193286D01*
X43569390Y48193286D02*
X43378914Y48240905D01*
X43378914Y48240905D02*
X43283676Y48288524D01*
X43283676Y48288524D02*
X43188438Y48383762D01*
X43188438Y48383762D02*
X43140819Y48526619D01*
X43140819Y48526619D02*
X43140819Y48621857D01*
X43140819Y48621857D02*
X43188438Y48764714D01*
X43188438Y48764714D02*
X43236057Y48812333D01*
X44140819Y49288524D02*
X44140819Y49479000D01*
X44140819Y49479000D02*
X44093200Y49574238D01*
X44093200Y49574238D02*
X44045580Y49621857D01*
X44045580Y49621857D02*
X43902723Y49717095D01*
X43902723Y49717095D02*
X43712247Y49764714D01*
X43712247Y49764714D02*
X43331295Y49764714D01*
X43331295Y49764714D02*
X43236057Y49717095D01*
X43236057Y49717095D02*
X43188438Y49669476D01*
X43188438Y49669476D02*
X43140819Y49574238D01*
X43140819Y49574238D02*
X43140819Y49383762D01*
X43140819Y49383762D02*
X43188438Y49288524D01*
X43188438Y49288524D02*
X43236057Y49240905D01*
X43236057Y49240905D02*
X43331295Y49193286D01*
X43331295Y49193286D02*
X43569390Y49193286D01*
X43569390Y49193286D02*
X43664628Y49240905D01*
X43664628Y49240905D02*
X43712247Y49288524D01*
X43712247Y49288524D02*
X43759866Y49383762D01*
X43759866Y49383762D02*
X43759866Y49574238D01*
X43759866Y49574238D02*
X43712247Y49669476D01*
X43712247Y49669476D02*
X43664628Y49717095D01*
X43664628Y49717095D02*
X43569390Y49764714D01*
X38681819Y78380333D02*
X38205628Y78047000D01*
X38681819Y77808905D02*
X37681819Y77808905D01*
X37681819Y77808905D02*
X37681819Y78189857D01*
X37681819Y78189857D02*
X37729438Y78285095D01*
X37729438Y78285095D02*
X37777057Y78332714D01*
X37777057Y78332714D02*
X37872295Y78380333D01*
X37872295Y78380333D02*
X38015152Y78380333D01*
X38015152Y78380333D02*
X38110390Y78332714D01*
X38110390Y78332714D02*
X38158009Y78285095D01*
X38158009Y78285095D02*
X38205628Y78189857D01*
X38205628Y78189857D02*
X38205628Y77808905D01*
X38015152Y79237476D02*
X38681819Y79237476D01*
X37634200Y78999381D02*
X38348485Y78761286D01*
X38348485Y78761286D02*
X38348485Y79380333D01*
X43354666Y117766180D02*
X43354666Y117051895D01*
X43354666Y117051895D02*
X43307047Y116909038D01*
X43307047Y116909038D02*
X43211809Y116813800D01*
X43211809Y116813800D02*
X43068952Y116766180D01*
X43068952Y116766180D02*
X42973714Y116766180D01*
X43735619Y117766180D02*
X44354666Y117766180D01*
X44354666Y117766180D02*
X44021333Y117385228D01*
X44021333Y117385228D02*
X44164190Y117385228D01*
X44164190Y117385228D02*
X44259428Y117337609D01*
X44259428Y117337609D02*
X44307047Y117289990D01*
X44307047Y117289990D02*
X44354666Y117194752D01*
X44354666Y117194752D02*
X44354666Y116956657D01*
X44354666Y116956657D02*
X44307047Y116861419D01*
X44307047Y116861419D02*
X44259428Y116813800D01*
X44259428Y116813800D02*
X44164190Y116766180D01*
X44164190Y116766180D02*
X43878476Y116766180D01*
X43878476Y116766180D02*
X43783238Y116813800D01*
X43783238Y116813800D02*
X43735619Y116861419D01*
X51422142Y62283180D02*
X51088809Y62759371D01*
X50850714Y62283180D02*
X50850714Y63283180D01*
X50850714Y63283180D02*
X51231666Y63283180D01*
X51231666Y63283180D02*
X51326904Y63235561D01*
X51326904Y63235561D02*
X51374523Y63187942D01*
X51374523Y63187942D02*
X51422142Y63092704D01*
X51422142Y63092704D02*
X51422142Y62949847D01*
X51422142Y62949847D02*
X51374523Y62854609D01*
X51374523Y62854609D02*
X51326904Y62806990D01*
X51326904Y62806990D02*
X51231666Y62759371D01*
X51231666Y62759371D02*
X50850714Y62759371D01*
X52374523Y62283180D02*
X51803095Y62283180D01*
X52088809Y62283180D02*
X52088809Y63283180D01*
X52088809Y63283180D02*
X51993571Y63140323D01*
X51993571Y63140323D02*
X51898333Y63045085D01*
X51898333Y63045085D02*
X51803095Y62997466D01*
X53279285Y63283180D02*
X52803095Y63283180D01*
X52803095Y63283180D02*
X52755476Y62806990D01*
X52755476Y62806990D02*
X52803095Y62854609D01*
X52803095Y62854609D02*
X52898333Y62902228D01*
X52898333Y62902228D02*
X53136428Y62902228D01*
X53136428Y62902228D02*
X53231666Y62854609D01*
X53231666Y62854609D02*
X53279285Y62806990D01*
X53279285Y62806990D02*
X53326904Y62711752D01*
X53326904Y62711752D02*
X53326904Y62473657D01*
X53326904Y62473657D02*
X53279285Y62378419D01*
X53279285Y62378419D02*
X53231666Y62330800D01*
X53231666Y62330800D02*
X53136428Y62283180D01*
X53136428Y62283180D02*
X52898333Y62283180D01*
X52898333Y62283180D02*
X52803095Y62330800D01*
X52803095Y62330800D02*
X52755476Y62378419D01*
X29583142Y43360180D02*
X29249809Y43836371D01*
X29011714Y43360180D02*
X29011714Y44360180D01*
X29011714Y44360180D02*
X29392666Y44360180D01*
X29392666Y44360180D02*
X29487904Y44312561D01*
X29487904Y44312561D02*
X29535523Y44264942D01*
X29535523Y44264942D02*
X29583142Y44169704D01*
X29583142Y44169704D02*
X29583142Y44026847D01*
X29583142Y44026847D02*
X29535523Y43931609D01*
X29535523Y43931609D02*
X29487904Y43883990D01*
X29487904Y43883990D02*
X29392666Y43836371D01*
X29392666Y43836371D02*
X29011714Y43836371D01*
X30535523Y43360180D02*
X29964095Y43360180D01*
X30249809Y43360180D02*
X30249809Y44360180D01*
X30249809Y44360180D02*
X30154571Y44217323D01*
X30154571Y44217323D02*
X30059333Y44122085D01*
X30059333Y44122085D02*
X29964095Y44074466D01*
X31011714Y43360180D02*
X31202190Y43360180D01*
X31202190Y43360180D02*
X31297428Y43407800D01*
X31297428Y43407800D02*
X31345047Y43455419D01*
X31345047Y43455419D02*
X31440285Y43598276D01*
X31440285Y43598276D02*
X31487904Y43788752D01*
X31487904Y43788752D02*
X31487904Y44169704D01*
X31487904Y44169704D02*
X31440285Y44264942D01*
X31440285Y44264942D02*
X31392666Y44312561D01*
X31392666Y44312561D02*
X31297428Y44360180D01*
X31297428Y44360180D02*
X31106952Y44360180D01*
X31106952Y44360180D02*
X31011714Y44312561D01*
X31011714Y44312561D02*
X30964095Y44264942D01*
X30964095Y44264942D02*
X30916476Y44169704D01*
X30916476Y44169704D02*
X30916476Y43931609D01*
X30916476Y43931609D02*
X30964095Y43836371D01*
X30964095Y43836371D02*
X31011714Y43788752D01*
X31011714Y43788752D02*
X31106952Y43741133D01*
X31106952Y43741133D02*
X31297428Y43741133D01*
X31297428Y43741133D02*
X31392666Y43788752D01*
X31392666Y43788752D02*
X31440285Y43836371D01*
X31440285Y43836371D02*
X31487904Y43931609D01*
D12*
%TO.C,R5*%
X6121000Y50349000D02*
X6121000Y47949000D01*
X12421000Y50349000D02*
X6121000Y50349000D01*
X12421000Y50349000D02*
X12421000Y47949000D01*
X12421000Y47949000D02*
X6121000Y47949000D01*
D13*
%TO.C,J1*%
X13110000Y39982000D02*
X13110000Y27582000D01*
X13110000Y39982000D02*
X18810000Y39982000D01*
X13110000Y27582000D02*
X18860000Y27582000D01*
X18860000Y39982000D02*
X18860000Y27582000D01*
D12*
%TO.C,R11*%
X6121000Y59366000D02*
X6121000Y56966000D01*
X12421000Y59366000D02*
X6121000Y59366000D01*
X12421000Y59366000D02*
X12421000Y56966000D01*
X12421000Y56966000D02*
X6121000Y56966000D01*
%TO.C,R9*%
X6121000Y54921000D02*
X12421000Y54921000D01*
X6121000Y52521000D02*
X6121000Y54921000D01*
X6121000Y52521000D02*
X12421000Y52521000D01*
X12421000Y52521000D02*
X12421000Y54921000D01*
D13*
%TO.C,C11*%
X30201000Y104755000D02*
G75*
G02*
X23901000Y104755000I-3150000J0D01*
G01*
X23901000Y104755000D02*
G75*
G02*
X30201000Y104755000I3150000J0D01*
G01*
%TO.C,Q1*%
X11250980Y66778000D02*
X7291020Y66778000D01*
X11422224Y64035990D02*
G75*
G02*
X7119776Y64035990I-2151224J1242009D01*
G01*
D14*
X12226000Y66628000D02*
G75*
G02*
X11976000Y66628000I-125000J0D01*
G01*
X11976000Y66628000D02*
G75*
G02*
X12226000Y66628000I125000J0D01*
G01*
D12*
%TO.C,R6*%
X42107000Y75336000D02*
X42107000Y81636000D01*
X44507000Y81636000D02*
X42107000Y81636000D01*
X44507000Y75336000D02*
X42107000Y75336000D01*
X44507000Y75336000D02*
X44507000Y81636000D01*
%TO.C,R12*%
X6121000Y72955000D02*
X6121000Y70555000D01*
X12421000Y72955000D02*
X6121000Y72955000D01*
X12421000Y72955000D02*
X12421000Y70555000D01*
X12421000Y70555000D02*
X6121000Y70555000D01*
D13*
%TO.C,C6*%
X15153000Y61464000D02*
X15153000Y68664000D01*
X20153000Y68664000D02*
X15153000Y68664000D01*
X20153000Y61464000D02*
X15153000Y61464000D01*
X20153000Y61464000D02*
X20153000Y68664000D01*
%TO.C,J4*%
X5270000Y27542000D02*
X5270000Y34942000D01*
X11020000Y34942000D02*
X5270000Y34942000D01*
X11020000Y27542000D02*
X5270000Y27542000D01*
X11020000Y27542000D02*
X11020000Y34942000D01*
D12*
%TO.C,R17*%
X45618000Y109658000D02*
X45618000Y107258000D01*
X51918000Y109658000D02*
X45618000Y109658000D01*
X51918000Y109658000D02*
X51918000Y107258000D01*
X51918000Y107258000D02*
X45618000Y107258000D01*
D13*
%TO.C,D2*%
X7321000Y102550000D02*
X11221000Y102550000D01*
X7321000Y100650000D02*
X7321000Y102550000D01*
X7321000Y100650000D02*
X11221000Y100650000D01*
G36*
X10521000Y100650000D02*
G01*
X11321000Y100650000D01*
X11321000Y102550000D01*
X10521000Y102550000D01*
X10521000Y100650000D01*
G37*
%TO.C,C7*%
X49042000Y82086000D02*
X51542000Y82086000D01*
X49042000Y74886000D02*
X49042000Y82086000D01*
X49042000Y74886000D02*
X51542000Y74886000D01*
X51542000Y74886000D02*
X51542000Y82086000D01*
D12*
%TO.C,R20*%
X27949800Y115931800D02*
X27949800Y113531800D01*
X34249800Y115931800D02*
X27949800Y115931800D01*
X34249800Y115931800D02*
X34249800Y113531800D01*
X34249800Y113531800D02*
X27949800Y113531800D01*
%TO.C,R2*%
X6121000Y77654000D02*
X6121000Y75254000D01*
X12421000Y77654000D02*
X6121000Y77654000D01*
X12421000Y77654000D02*
X12421000Y75254000D01*
X12421000Y75254000D02*
X6121000Y75254000D01*
D13*
%TO.C,Q2*%
X54049980Y58761010D02*
X50090020Y58761010D01*
X54221224Y56019000D02*
G75*
G02*
X49918776Y56019000I-2151224J1242009D01*
G01*
D14*
X55025000Y58611010D02*
G75*
G02*
X54775000Y58611010I-125000J0D01*
G01*
X54775000Y58611010D02*
G75*
G02*
X55025000Y58611010I125000J0D01*
G01*
D12*
%TO.C,R16*%
X48920000Y46158000D02*
X55220000Y46158000D01*
X48920000Y43758000D02*
X48920000Y46158000D01*
X48920000Y43758000D02*
X55220000Y43758000D01*
X55220000Y43758000D02*
X55220000Y46158000D01*
%TO.C,R3*%
X31968000Y56445000D02*
X38268000Y56445000D01*
X31968000Y54045000D02*
X31968000Y56445000D01*
X31968000Y54045000D02*
X38268000Y54045000D01*
X38268000Y54045000D02*
X38268000Y56445000D01*
D13*
%TO.C,C1*%
X5671000Y80538000D02*
X5671000Y83038000D01*
X12871000Y83038000D02*
X5671000Y83038000D01*
X12871000Y80538000D02*
X5671000Y80538000D01*
X12871000Y80538000D02*
X12871000Y83038000D01*
D12*
%TO.C,R14*%
X48920000Y50984000D02*
X48920000Y48584000D01*
X55220000Y50984000D02*
X48920000Y50984000D01*
X55220000Y50984000D02*
X55220000Y48584000D01*
X55220000Y48584000D02*
X48920000Y48584000D01*
%TO.C,R8*%
X6121000Y45904000D02*
X6121000Y43504000D01*
X12421000Y45904000D02*
X6121000Y45904000D01*
X12421000Y45904000D02*
X12421000Y43504000D01*
X12421000Y43504000D02*
X6121000Y43504000D01*
%TO.C,C3*%
X17841000Y82296000D02*
X17841000Y77216000D01*
X21021000Y82296000D02*
X17841000Y82296000D01*
X21021000Y82296000D02*
X21021000Y77216000D01*
X21021000Y77216000D02*
X17841000Y77216000D01*
D13*
%TO.C,J2*%
X41592000Y27582000D02*
X41592000Y39982000D01*
X47342000Y39982000D02*
X41592000Y39982000D01*
X47342000Y27582000D02*
X41642000Y27582000D01*
X47342000Y27582000D02*
X47342000Y39982000D01*
D12*
%TO.C,R1*%
X6121000Y93783000D02*
X12421000Y93783000D01*
X6121000Y91383000D02*
X6121000Y93783000D01*
X6121000Y91383000D02*
X12421000Y91383000D01*
X12421000Y91383000D02*
X12421000Y93783000D01*
D13*
%TO.C,C8*%
X42763000Y67711000D02*
G75*
G02*
X38263000Y67711000I-2250000J0D01*
G01*
X38263000Y67711000D02*
G75*
G02*
X42763000Y67711000I2250000J0D01*
G01*
D12*
%TO.C,R13*%
X48854000Y69526000D02*
X55154000Y69526000D01*
X48854000Y67126000D02*
X48854000Y69526000D01*
X48854000Y67126000D02*
X55154000Y67126000D01*
X55154000Y67126000D02*
X55154000Y69526000D01*
D13*
%TO.C,J5*%
X49432000Y37482000D02*
X49432000Y30082000D01*
X49432000Y37482000D02*
X55182000Y37482000D01*
X49432000Y30082000D02*
X55182000Y30082000D01*
X55182000Y37482000D02*
X55182000Y30082000D01*
%TO.C,C2*%
X25745000Y54757000D02*
G75*
G02*
X21245000Y54757000I-2250000J0D01*
G01*
X21245000Y54757000D02*
G75*
G02*
X25745000Y54757000I2250000J0D01*
G01*
D12*
%TO.C,R10*%
X27076000Y66224000D02*
X27076000Y63824000D01*
X33376000Y66224000D02*
X27076000Y66224000D01*
X33376000Y66224000D02*
X33376000Y63824000D01*
X33376000Y63824000D02*
X27076000Y63824000D01*
D13*
%TO.C,C10*%
X39579000Y104775000D02*
G75*
G02*
X33279000Y104775000I-3150000J0D01*
G01*
X33279000Y104775000D02*
G75*
G02*
X39579000Y104775000I3150000J0D01*
G01*
%TO.C,D4*%
X46168000Y105540000D02*
X51368000Y105540000D01*
X46168000Y102740000D02*
X46168000Y105540000D01*
X46168000Y102740000D02*
X51368000Y102740000D01*
G36*
X50668000Y102740000D02*
G01*
X51468000Y102740000D01*
X51468000Y105540000D01*
X50668000Y105540000D01*
X50668000Y102740000D01*
G37*
D12*
%TO.C,R7*%
X27076000Y70034000D02*
X33376000Y70034000D01*
X27076000Y67634000D02*
X27076000Y70034000D01*
X27076000Y67634000D02*
X33376000Y67634000D01*
X33376000Y67634000D02*
X33376000Y70034000D01*
D13*
%TO.C,C4*%
X19197000Y50550000D02*
X19197000Y43350000D01*
X21697000Y50550000D02*
X19197000Y50550000D01*
X21697000Y50550000D02*
X21697000Y43350000D01*
X21697000Y43350000D02*
X19197000Y43350000D01*
D12*
%TO.C,R18*%
X27949800Y111994800D02*
X34249800Y111994800D01*
X27949800Y109594800D02*
X27949800Y111994800D01*
X27949800Y109594800D02*
X34249800Y109594800D01*
X34249800Y109594800D02*
X34249800Y111994800D01*
D13*
%TO.C,U1*%
X26179000Y82493000D02*
X28194000Y82493000D01*
X26179000Y72193000D02*
X26179000Y82493000D01*
X26179000Y72193000D02*
X31479000Y72193000D01*
X29464000Y82493000D02*
X31479000Y82493000D01*
X31479000Y72193000D02*
X31479000Y82493000D01*
X29464000Y82493000D02*
G75*
G02*
X28194000Y82493000I-635000J0D01*
G01*
D14*
X25144000Y82453000D02*
G75*
G02*
X24894000Y82453000I-125000J0D01*
G01*
X24894000Y82453000D02*
G75*
G02*
X25144000Y82453000I125000J0D01*
G01*
D15*
X27479000Y81493000D02*
G75*
G02*
X26879000Y81493000I-300000J0D01*
G01*
X26879000Y81493000D02*
G75*
G02*
X27479000Y81493000I300000J0D01*
G01*
D13*
%TO.C,C5*%
X34667000Y91908000D02*
X41867000Y91908000D01*
X34667000Y86908000D02*
X34667000Y91908000D01*
X34667000Y86908000D02*
X41867000Y86908000D01*
X41867000Y86908000D02*
X41867000Y91908000D01*
%TO.C,D1*%
X11221000Y98105000D02*
X7321000Y98105000D01*
X11221000Y98105000D02*
X11221000Y96205000D01*
X11221000Y96205000D02*
X7321000Y96205000D01*
G36*
X8021000Y98105000D02*
G01*
X7221000Y98105000D01*
X7221000Y96205000D01*
X8021000Y96205000D01*
X8021000Y98105000D01*
G37*
%TO.C,C9*%
X37786000Y51179000D02*
X38586000Y51179000D01*
X38186000Y51579000D02*
X38186000Y50779000D01*
X42886000Y48879000D02*
G75*
G02*
X37886000Y48879000I-2500000J0D01*
G01*
X37886000Y48879000D02*
G75*
G02*
X42886000Y48879000I2500000J0D01*
G01*
D12*
%TO.C,R4*%
X37027000Y75336000D02*
X37027000Y81636000D01*
X39427000Y81636000D02*
X37027000Y81636000D01*
X39427000Y75336000D02*
X37027000Y75336000D01*
X39427000Y75336000D02*
X39427000Y81636000D01*
D13*
%TO.C,J3*%
X45576000Y117937000D02*
X45576000Y112187000D01*
X52976000Y117937000D02*
X45576000Y117937000D01*
X52976000Y117937000D02*
X52976000Y112187000D01*
X52976000Y112187000D02*
X45576000Y112187000D01*
D12*
%TO.C,R15*%
X48854000Y64065000D02*
X48854000Y61665000D01*
X55154000Y64065000D02*
X48854000Y64065000D01*
X55154000Y64065000D02*
X55154000Y61665000D01*
X55154000Y61665000D02*
X48854000Y61665000D01*
%TO.C,R19*%
X27076000Y45015000D02*
X33376000Y45015000D01*
X27076000Y42615000D02*
X27076000Y45015000D01*
X27076000Y42615000D02*
X33376000Y42615000D01*
X33376000Y42615000D02*
X33376000Y45015000D01*
%TD*%
M02*
