M48
; DRILL file {KiCad 9.0.2} date 2025-07-08T13:27:19-0500
; FORMAT={-:-/ absolute / metric / decimal}
; #@! TF.CreationDate,2025-07-08T13:27:19-05:00
; #@! TF.GenerationSoftware,Kicad,Pcbnew,9.0.2
; #@! TF.FileFunction,Plated,1,2,PTH
FMAT,2
METRIC
; #@! TA.AperFunction,Plated,PTH,ViaDrill
T1C0.305
; #@! TA.AperFunction,Plated,PTH,ComponentDrill
T2C0.700
; #@! TA.AperFunction,Plated,PTH,ComponentDrill
T3C0.750
; #@! TA.AperFunction,Plated,PTH,ComponentDrill
T4C0.800
; #@! TA.AperFunction,Plated,PTH,ComponentDrill
T5C0.900
; #@! TA.AperFunction,Plated,PTH,ComponentDrill
T6C1.000
; #@! TA.AperFunction,Plated,PTH,ComponentDrill
T7C1.100
; #@! TA.AperFunction,Plated,PTH,ComponentDrill
T8C1.200
%
G90
G05
T1
X6.731Y51.308
X33.071Y57.252
T2
X6.771Y81.788
X11.771Y81.788
X19.431Y81.026
X19.431Y78.486
X20.447Y49.45
X20.447Y44.45
X50.292Y80.986
X50.292Y75.986
T3
X23.495Y56.007
X23.495Y53.507
X40.513Y68.961
X40.513Y66.461
T4
X3.871Y92.583
X3.871Y76.454
X3.871Y71.755
X3.871Y58.166
X3.871Y53.721
X3.871Y49.149
X3.871Y44.704
X6.731Y65.278
X9.271Y65.278
X11.811Y65.278
X14.671Y92.583
X14.671Y76.454
X14.671Y71.755
X14.671Y58.166
X14.671Y53.721
X14.671Y49.149
X14.671Y44.704
X17.653Y67.564
X17.653Y62.564
X24.826Y68.834
X24.826Y65.024
X24.826Y43.815
X25.7Y114.732
X25.7Y110.795
X28.956Y49.53
X29.718Y55.245
X31.496Y49.53
X35.626Y68.834
X35.626Y65.024
X35.626Y43.815
X35.767Y89.408
X36.5Y114.732
X36.5Y110.795
X38.227Y83.886
X38.227Y73.086
X40.386Y49.879
X40.386Y47.879
X40.518Y55.245
X40.767Y89.408
X43.307Y83.886
X43.307Y73.086
X43.368Y108.458
X46.604Y68.326
X46.604Y62.865
X46.67Y49.784
X46.67Y44.958
X49.53Y57.261
X52.07Y57.261
X54.168Y108.458
X54.61Y57.261
X57.404Y68.326
X57.404Y62.865
X57.47Y49.784
X57.47Y44.958
T5
X25.019Y81.153
X25.019Y78.613
X25.019Y76.073
X25.019Y73.533
X27.051Y106.005
X27.051Y103.505
X32.639Y81.153
X32.639Y78.613
X32.639Y76.073
X32.639Y73.533
X36.429Y106.025
X36.429Y103.525
T6
X7.62Y32.512
X7.62Y30.012
X16.51Y37.492
X16.51Y34.992
X16.51Y32.492
X16.51Y29.992
X43.942Y37.572
X43.942Y35.072
X43.942Y32.572
X43.942Y30.072
X48.006Y114.537
X50.506Y114.537
X52.832Y35.012
X52.832Y32.512
T7
X5.571Y101.6
X5.571Y97.155
X12.971Y101.6
X12.971Y97.155
T8
X4.271Y88.14
X9.271Y88.14
X14.271Y88.14
X25.226Y60.2
X30.226Y60.2
X35.226Y60.2
X43.588Y104.14
X46.181Y88.14
X51.181Y88.14
X53.948Y104.14
X56.181Y88.14
M30
