%TF.GenerationSoftware,KiCad,Pcbnew,9.0.2*%
%TF.CreationDate,2025-07-08T13:27:17-05:00*%
%TF.ProjectId,Screamer Overdrive,53637265-616d-4657-9220-4f7665726472,rev?*%
%TF.SameCoordinates,Original*%
%TF.FileFunction,Soldermask,Top*%
%TF.FilePolarity,Negative*%
%FSLAX46Y46*%
G04 Gerber Fmt 4.6, Leading zero omitted, Abs format (unit mm)*
G04 Created by KiCad (PCBNEW 9.0.2) date 2025-07-08 13:27:17*
%MOMM*%
%LPD*%
G01*
G04 APERTURE LIST*
G04 Aperture macros list*
%AMRoundRect*
0 Rectangle with rounded corners*
0 $1 Rounding radius*
0 $2 $3 $4 $5 $6 $7 $8 $9 X,Y pos of 4 corners*
0 Add a 4 corners polygon primitive as box body*
4,1,4,$2,$3,$4,$5,$6,$7,$8,$9,$2,$3,0*
0 Add four circle primitives for the rounded corners*
1,1,$1+$1,$2,$3*
1,1,$1+$1,$4,$5*
1,1,$1+$1,$6,$7*
1,1,$1+$1,$8,$9*
0 Add four rect primitives between the rounded corners*
20,1,$1+$1,$2,$3,$4,$5,0*
20,1,$1+$1,$4,$5,$6,$7,0*
20,1,$1+$1,$6,$7,$8,$9,0*
20,1,$1+$1,$8,$9,$2,$3,0*%
G04 Aperture macros list end*
%ADD10C,1.600000*%
%ADD11RoundRect,0.500000X-0.500000X0.500000X-0.500000X-0.500000X0.500000X-0.500000X0.500000X0.500000X0*%
%ADD12C,2.000000*%
%ADD13R,1.800000X1.800000*%
%ADD14C,1.800000*%
%ADD15RoundRect,0.500000X0.500000X-0.500000X0.500000X0.500000X-0.500000X0.500000X-0.500000X-0.500000X0*%
%ADD16R,2.000000X2.000000*%
%ADD17C,1.400000*%
%ADD18R,1.500000X1.500000*%
%ADD19C,1.500000*%
%ADD20C,2.400000*%
%ADD21R,2.400000X2.400000*%
%ADD22R,1.600000X1.600000*%
%ADD23RoundRect,0.500000X0.500000X0.500000X-0.500000X0.500000X-0.500000X-0.500000X0.500000X-0.500000X0*%
%ADD24C,2.500000*%
%ADD25RoundRect,0.400000X0.400000X0.400000X-0.400000X0.400000X-0.400000X-0.400000X0.400000X-0.400000X0*%
G04 APERTURE END LIST*
D10*
%TO.C,R5*%
X14671000Y49149000D03*
X3871000Y49149000D03*
%TD*%
D11*
%TO.C,J1*%
X16510000Y37492000D03*
D12*
X16510000Y34992000D03*
X16510000Y32492000D03*
X16510000Y29992000D03*
%TD*%
D10*
%TO.C,R11*%
X14671000Y58166000D03*
X3871000Y58166000D03*
%TD*%
%TO.C,R9*%
X3871000Y53721000D03*
X14671000Y53721000D03*
%TD*%
D13*
%TO.C,C11*%
X27051000Y106005000D03*
D14*
X27051000Y103505000D03*
%TD*%
D10*
%TO.C,Q1*%
X9271000Y65278000D03*
X6731000Y65278000D03*
X11811000Y65278000D03*
%TD*%
%TO.C,R6*%
X43307000Y73086000D03*
X43307000Y83886000D03*
%TD*%
%TO.C,R12*%
X14671000Y71755000D03*
X3871000Y71755000D03*
%TD*%
%TO.C,C6*%
X17653000Y62564000D03*
X17653000Y67564000D03*
%TD*%
D15*
%TO.C,J4*%
X7620000Y30012000D03*
D12*
X7620000Y32512000D03*
%TD*%
D10*
%TO.C,R17*%
X54168000Y108458000D03*
X43368000Y108458000D03*
%TD*%
D12*
%TO.C,D2*%
X5571000Y101600000D03*
D16*
X12971000Y101600000D03*
%TD*%
D17*
%TO.C,C7*%
X50292000Y80986000D03*
X50292000Y75986000D03*
%TD*%
D10*
%TO.C,R20*%
X36499800Y114731800D03*
X25699800Y114731800D03*
%TD*%
%TO.C,R2*%
X14671000Y76454000D03*
X3871000Y76454000D03*
%TD*%
%TO.C,Q2*%
X52070000Y57261010D03*
X49530000Y57261010D03*
X54610000Y57261010D03*
%TD*%
%TO.C,R16*%
X46670000Y44958000D03*
X57470000Y44958000D03*
%TD*%
%TO.C,R3*%
X29718000Y55245000D03*
X40518000Y55245000D03*
%TD*%
D17*
%TO.C,C1*%
X6771000Y81788000D03*
X11771000Y81788000D03*
%TD*%
D10*
%TO.C,R14*%
X57470000Y49784000D03*
X46670000Y49784000D03*
%TD*%
%TO.C,R8*%
X14671000Y44704000D03*
X3871000Y44704000D03*
%TD*%
D17*
%TO.C,C3*%
X19431000Y78486000D03*
X19431000Y81026000D03*
%TD*%
D15*
%TO.C,J2*%
X43942000Y30072000D03*
D12*
X43942000Y32572000D03*
X43942000Y35072000D03*
X43942000Y37572000D03*
%TD*%
D10*
%TO.C,R1*%
X3871000Y92583000D03*
X14671000Y92583000D03*
%TD*%
D18*
%TO.C,C8*%
X40513000Y68961000D03*
D19*
X40513000Y66461000D03*
%TD*%
D10*
%TO.C,R13*%
X46604000Y68326000D03*
X57404000Y68326000D03*
%TD*%
D11*
%TO.C,J5*%
X52832000Y35012000D03*
D12*
X52832000Y32512000D03*
%TD*%
D18*
%TO.C,C2*%
X23495000Y56007000D03*
D19*
X23495000Y53507000D03*
%TD*%
D10*
%TO.C,R10*%
X35626000Y65024000D03*
X24826000Y65024000D03*
%TD*%
D13*
%TO.C,C10*%
X36429000Y106025000D03*
D14*
X36429000Y103525000D03*
%TD*%
D20*
%TO.C,D4*%
X43588000Y104140000D03*
D21*
X53948000Y104140000D03*
%TD*%
D10*
%TO.C,R7*%
X24826000Y68834000D03*
X35626000Y68834000D03*
%TD*%
D17*
%TO.C,C4*%
X20447000Y44450000D03*
X20447000Y49450000D03*
%TD*%
D10*
%TO.C,R18*%
X25699800Y110794800D03*
X36499800Y110794800D03*
%TD*%
D22*
%TO.C,U1*%
X25019000Y81153000D03*
D10*
X25019000Y78613000D03*
X25019000Y76073000D03*
X25019000Y73533000D03*
X32639000Y73533000D03*
X32639000Y76073000D03*
X32639000Y78613000D03*
X32639000Y81153000D03*
%TD*%
%TO.C,C5*%
X35767000Y89408000D03*
X40767000Y89408000D03*
%TD*%
D12*
%TO.C,D1*%
X12971000Y97155000D03*
D16*
X5571000Y97155000D03*
%TD*%
D22*
%TO.C,C9*%
X40386000Y49879000D03*
D10*
X40386000Y47879000D03*
%TD*%
%TO.C,R4*%
X38227000Y73086000D03*
X38227000Y83886000D03*
%TD*%
D23*
%TO.C,J3*%
X50506000Y114537000D03*
D12*
X48006000Y114537000D03*
%TD*%
D10*
%TO.C,R15*%
X57404000Y62865000D03*
X46604000Y62865000D03*
%TD*%
%TO.C,R19*%
X24826000Y43815000D03*
X35626000Y43815000D03*
%TD*%
D24*
%TO.C,RV2*%
X35226000Y60200000D03*
X30226000Y60200000D03*
X25226000Y60200000D03*
%TD*%
D10*
%TO.C,D3*%
X31496000Y49530000D03*
D25*
X28956000Y49530000D03*
%TD*%
D24*
%TO.C,RV3*%
X56181000Y88140000D03*
X51181000Y88140000D03*
X46181000Y88140000D03*
%TD*%
%TO.C,RV1*%
X14271000Y88140000D03*
X9271000Y88140000D03*
X4271000Y88140000D03*
%TD*%
M02*
