%TF.GenerationSoftware,KiCad,Pcbnew,9.0.2*%
%TF.CreationDate,2025-07-08T13:27:17-05:00*%
%TF.ProjectId,Screamer Overdrive,53637265-616d-4657-9220-4f7665726472,rev?*%
%TF.SameCoordinates,Original*%
%TF.FileFunction,Copper,L1,Top*%
%TF.FilePolarity,Positive*%
%FSLAX46Y46*%
G04 Gerber Fmt 4.6, Leading zero omitted, Abs format (unit mm)*
G04 Created by KiCad (PCBNEW 9.0.2) date 2025-07-08 13:27:17*
%MOMM*%
%LPD*%
G01*
G04 APERTURE LIST*
G04 Aperture macros list*
%AMRoundRect*
0 Rectangle with rounded corners*
0 $1 Rounding radius*
0 $2 $3 $4 $5 $6 $7 $8 $9 X,Y pos of 4 corners*
0 Add a 4 corners polygon primitive as box body*
4,1,4,$2,$3,$4,$5,$6,$7,$8,$9,$2,$3,0*
0 Add four circle primitives for the rounded corners*
1,1,$1+$1,$2,$3*
1,1,$1+$1,$4,$5*
1,1,$1+$1,$6,$7*
1,1,$1+$1,$8,$9*
0 Add four rect primitives between the rounded corners*
20,1,$1+$1,$2,$3,$4,$5,0*
20,1,$1+$1,$4,$5,$6,$7,0*
20,1,$1+$1,$6,$7,$8,$9,0*
20,1,$1+$1,$8,$9,$2,$3,0*%
G04 Aperture macros list end*
%TA.AperFunction,ComponentPad*%
%ADD10C,1.600000*%
%TD*%
%TA.AperFunction,ComponentPad*%
%ADD11RoundRect,0.500000X-0.500000X0.500000X-0.500000X-0.500000X0.500000X-0.500000X0.500000X0.500000X0*%
%TD*%
%TA.AperFunction,ComponentPad*%
%ADD12C,2.000000*%
%TD*%
%TA.AperFunction,ComponentPad*%
%ADD13R,1.800000X1.800000*%
%TD*%
%TA.AperFunction,ComponentPad*%
%ADD14C,1.800000*%
%TD*%
%TA.AperFunction,ComponentPad*%
%ADD15RoundRect,0.500000X0.500000X-0.500000X0.500000X0.500000X-0.500000X0.500000X-0.500000X-0.500000X0*%
%TD*%
%TA.AperFunction,ComponentPad*%
%ADD16R,2.000000X2.000000*%
%TD*%
%TA.AperFunction,ComponentPad*%
%ADD17C,1.400000*%
%TD*%
%TA.AperFunction,ComponentPad*%
%ADD18R,1.500000X1.500000*%
%TD*%
%TA.AperFunction,ComponentPad*%
%ADD19C,1.500000*%
%TD*%
%TA.AperFunction,ComponentPad*%
%ADD20C,2.400000*%
%TD*%
%TA.AperFunction,ComponentPad*%
%ADD21R,2.400000X2.400000*%
%TD*%
%TA.AperFunction,ComponentPad*%
%ADD22R,1.600000X1.600000*%
%TD*%
%TA.AperFunction,ComponentPad*%
%ADD23RoundRect,0.500000X0.500000X0.500000X-0.500000X0.500000X-0.500000X-0.500000X0.500000X-0.500000X0*%
%TD*%
%TA.AperFunction,ComponentPad*%
%ADD24C,2.500000*%
%TD*%
%TA.AperFunction,ComponentPad*%
%ADD25RoundRect,0.400000X0.400000X0.400000X-0.400000X0.400000X-0.400000X-0.400000X0.400000X-0.400000X0*%
%TD*%
%TA.AperFunction,ViaPad*%
%ADD26C,0.609600*%
%TD*%
%TA.AperFunction,Conductor*%
%ADD27C,0.406400*%
%TD*%
%TA.AperFunction,Conductor*%
%ADD28C,0.609600*%
%TD*%
G04 APERTURE END LIST*
D10*
%TO.P,R5,1*%
%TO.N,Net-(C4-Pad2)*%
X14671000Y49149000D03*
%TO.P,R5,2*%
%TO.N,Net-(Q1-PadB)*%
X3871000Y49149000D03*
%TD*%
D11*
%TO.P,J1,1,1*%
%TO.N,/SEND*%
X16510000Y37492000D03*
D12*
%TO.P,J1,2,2*%
%TO.N,GND*%
X16510000Y34992000D03*
%TO.P,J1,3,3*%
X16510000Y32492000D03*
%TO.P,J1,4,4*%
%TO.N,/IN*%
X16510000Y29992000D03*
%TD*%
D10*
%TO.P,R11,1*%
%TO.N,Net-(C6-Pad1)*%
X14671000Y58166000D03*
%TO.P,R11,2*%
%TO.N,GND*%
X3871000Y58166000D03*
%TD*%
%TO.P,R9,1*%
%TO.N,Net-(Q1-PadB)*%
X3871000Y53721000D03*
%TO.P,R9,2*%
%TO.N,VREF*%
X14671000Y53721000D03*
%TD*%
D13*
%TO.P,C11,1*%
%TO.N,VREF*%
X27051000Y106005000D03*
D14*
%TO.P,C11,2*%
%TO.N,GND*%
X27051000Y103505000D03*
%TD*%
D10*
%TO.P,Q1,B,B*%
%TO.N,Net-(Q1-PadB)*%
X9271000Y65278000D03*
%TO.P,Q1,C,C*%
%TO.N,+VA*%
X6731000Y65278000D03*
%TO.P,Q1,E,E*%
%TO.N,Net-(C6-Pad1)*%
X11811000Y65278000D03*
%TD*%
%TO.P,R6,1*%
%TO.N,Net-(C5-Pad2)*%
X43307000Y73086000D03*
%TO.P,R6,2*%
%TO.N,Net-(R6-Pad2)*%
X43307000Y83886000D03*
%TD*%
%TO.P,R12,1*%
%TO.N,Net-(U1A-+)*%
X14671000Y71755000D03*
%TO.P,R12,2*%
%TO.N,VREF*%
X3871000Y71755000D03*
%TD*%
%TO.P,C6,1*%
%TO.N,Net-(C6-Pad1)*%
X17653000Y62564000D03*
%TO.P,C6,2*%
%TO.N,Net-(U1A-+)*%
X17653000Y67564000D03*
%TD*%
D15*
%TO.P,J4,1,1*%
%TO.N,/IN*%
X7620000Y30012000D03*
D12*
%TO.P,J4,2,2*%
%TO.N,GND*%
X7620000Y32512000D03*
%TD*%
D10*
%TO.P,R17,1*%
%TO.N,Net-(J3-Pad1)*%
X54168000Y108458000D03*
%TO.P,R17,2*%
%TO.N,+VA*%
X43368000Y108458000D03*
%TD*%
D12*
%TO.P,D2,1,K*%
%TO.N,Net-(D1-A)*%
X5571000Y101600000D03*
D16*
%TO.P,D2,2,A*%
%TO.N,Net-(D1-K)*%
X12971000Y101600000D03*
%TD*%
D17*
%TO.P,C7,1*%
%TO.N,Net-(C7-Pad1)*%
X50292000Y80986000D03*
%TO.P,C7,2*%
%TO.N,Net-(C7-Pad2)*%
X50292000Y75986000D03*
%TD*%
D10*
%TO.P,R20,1*%
%TO.N,GND*%
X36499800Y114731800D03*
%TO.P,R20,2*%
%TO.N,VREF*%
X25699800Y114731800D03*
%TD*%
%TO.P,R2,1*%
%TO.N,GND*%
X14671000Y76454000D03*
%TO.P,R2,2*%
%TO.N,Net-(C1-Pad1)*%
X3871000Y76454000D03*
%TD*%
%TO.P,Q2,B,B*%
%TO.N,Net-(C7-Pad2)*%
X52070000Y57261010D03*
%TO.P,Q2,C,C*%
%TO.N,+VA*%
X49530000Y57261010D03*
%TO.P,Q2,E,E*%
%TO.N,Net-(Q2-PadE)*%
X54610000Y57261010D03*
%TD*%
%TO.P,R16,1*%
%TO.N,/RETURN*%
X46670000Y44958000D03*
%TO.P,R16,2*%
%TO.N,GND*%
X57470000Y44958000D03*
%TD*%
%TO.P,R3,1*%
%TO.N,Net-(C2-Pad2)*%
X29718000Y55245000D03*
%TO.P,R3,2*%
%TO.N,GND*%
X40518000Y55245000D03*
%TD*%
D17*
%TO.P,C1,1*%
%TO.N,Net-(C1-Pad1)*%
X6771000Y81788000D03*
%TO.P,C1,2*%
%TO.N,Net-(D1-A)*%
X11771000Y81788000D03*
%TD*%
D10*
%TO.P,R14,1*%
%TO.N,Net-(Q2-PadE)*%
X57470000Y49784000D03*
%TO.P,R14,2*%
%TO.N,Net-(C9-Pad1)*%
X46670000Y49784000D03*
%TD*%
%TO.P,R8,1*%
%TO.N,/SEND*%
X14671000Y44704000D03*
%TO.P,R8,2*%
%TO.N,GND*%
X3871000Y44704000D03*
%TD*%
D17*
%TO.P,C3,1*%
%TO.N,Net-(D1-A)*%
X19431000Y78486000D03*
%TO.P,C3,2*%
%TO.N,Net-(D1-K)*%
X19431000Y81026000D03*
%TD*%
D15*
%TO.P,J2,1,1*%
%TO.N,/LED+*%
X43942000Y30072000D03*
D12*
%TO.P,J2,2,2*%
%TO.N,GND*%
X43942000Y32572000D03*
%TO.P,J2,3,3*%
%TO.N,/OUT*%
X43942000Y35072000D03*
%TO.P,J2,4,4*%
%TO.N,/RETURN*%
X43942000Y37572000D03*
%TD*%
D10*
%TO.P,R1,1*%
%TO.N,Net-(D1-A)*%
X3871000Y92583000D03*
%TO.P,R1,2*%
%TO.N,Net-(R1-Pad2)*%
X14671000Y92583000D03*
%TD*%
D18*
%TO.P,C8,1*%
%TO.N,Net-(U1B-+)*%
X40513000Y68961000D03*
D19*
%TO.P,C8,2*%
%TO.N,GND*%
X40513000Y66461000D03*
%TD*%
D10*
%TO.P,R13,1*%
%TO.N,Net-(C7-Pad2)*%
X46604000Y68326000D03*
%TO.P,R13,2*%
%TO.N,VREF*%
X57404000Y68326000D03*
%TD*%
D11*
%TO.P,J5,1,1*%
%TO.N,/OUT*%
X52832000Y35012000D03*
D12*
%TO.P,J5,2,2*%
%TO.N,GND*%
X52832000Y32512000D03*
%TD*%
D18*
%TO.P,C2,1*%
%TO.N,Net-(C2-Pad1)*%
X23495000Y56007000D03*
D19*
%TO.P,C2,2*%
%TO.N,Net-(C2-Pad2)*%
X23495000Y53507000D03*
%TD*%
D10*
%TO.P,R10,1*%
%TO.N,Net-(U1B-+)*%
X35626000Y65024000D03*
%TO.P,R10,2*%
%TO.N,VREF*%
X24826000Y65024000D03*
%TD*%
D13*
%TO.P,C10,1*%
%TO.N,+VA*%
X36429000Y106025000D03*
D14*
%TO.P,C10,2*%
%TO.N,GND*%
X36429000Y103525000D03*
%TD*%
D20*
%TO.P,D4,1,K*%
%TO.N,+VA*%
X43588000Y104140000D03*
D21*
%TO.P,D4,2,A*%
%TO.N,GND*%
X53948000Y104140000D03*
%TD*%
D10*
%TO.P,R7,1*%
%TO.N,Net-(D1-K)*%
X24826000Y68834000D03*
%TO.P,R7,2*%
%TO.N,Net-(U1B-+)*%
X35626000Y68834000D03*
%TD*%
D17*
%TO.P,C4,1*%
%TO.N,/SEND*%
X20447000Y44450000D03*
%TO.P,C4,2*%
%TO.N,Net-(C4-Pad2)*%
X20447000Y49450000D03*
%TD*%
D10*
%TO.P,R18,1*%
%TO.N,VREF*%
X25699800Y110794800D03*
%TO.P,R18,2*%
%TO.N,+VA*%
X36499800Y110794800D03*
%TD*%
D22*
%TO.P,U1,1*%
%TO.N,Net-(D1-K)*%
X25019000Y81153000D03*
D10*
%TO.P,U1,2,-*%
%TO.N,Net-(D1-A)*%
X25019000Y78613000D03*
%TO.P,U1,3,+*%
%TO.N,Net-(U1A-+)*%
X25019000Y76073000D03*
%TO.P,U1,4,V-*%
%TO.N,GND*%
X25019000Y73533000D03*
%TO.P,U1,5,+*%
%TO.N,Net-(U1B-+)*%
X32639000Y73533000D03*
%TO.P,U1,6,-*%
%TO.N,Net-(U1B--)*%
X32639000Y76073000D03*
%TO.P,U1,7*%
%TO.N,Net-(C5-Pad1)*%
X32639000Y78613000D03*
%TO.P,U1,8,V+*%
%TO.N,+VA*%
X32639000Y81153000D03*
%TD*%
%TO.P,C5,1*%
%TO.N,Net-(C5-Pad1)*%
X35767000Y89408000D03*
%TO.P,C5,2*%
%TO.N,Net-(C5-Pad2)*%
X40767000Y89408000D03*
%TD*%
D12*
%TO.P,D1,1,K*%
%TO.N,Net-(D1-K)*%
X12971000Y97155000D03*
D16*
%TO.P,D1,2,A*%
%TO.N,Net-(D1-A)*%
X5571000Y97155000D03*
%TD*%
D22*
%TO.P,C9,1*%
%TO.N,Net-(C9-Pad1)*%
X40386000Y49879000D03*
D10*
%TO.P,C9,2*%
%TO.N,/RETURN*%
X40386000Y47879000D03*
%TD*%
%TO.P,R4,1*%
%TO.N,Net-(U1B--)*%
X38227000Y73086000D03*
%TO.P,R4,2*%
%TO.N,Net-(C5-Pad1)*%
X38227000Y83886000D03*
%TD*%
D23*
%TO.P,J3,1,1*%
%TO.N,Net-(J3-Pad1)*%
X50506000Y114537000D03*
D12*
%TO.P,J3,2,2*%
%TO.N,GND*%
X48006000Y114537000D03*
%TD*%
D10*
%TO.P,R15,1*%
%TO.N,Net-(Q2-PadE)*%
X57404000Y62865000D03*
%TO.P,R15,2*%
%TO.N,GND*%
X46604000Y62865000D03*
%TD*%
%TO.P,R19,1*%
%TO.N,Net-(D3-K)*%
X24826000Y43815000D03*
%TO.P,R19,2*%
%TO.N,/LED+*%
X35626000Y43815000D03*
%TD*%
D24*
%TO.P,RV2,1,1*%
%TO.N,Net-(U1B--)*%
X35226000Y60200000D03*
%TO.P,RV2,2,2*%
%TO.N,Net-(C2-Pad1)*%
X30226000Y60200000D03*
%TO.P,RV2,3,3*%
%TO.N,Net-(U1B-+)*%
X25226000Y60200000D03*
%TD*%
D10*
%TO.P,D3,1,K*%
%TO.N,Net-(D3-K)*%
X31496000Y49530000D03*
D25*
%TO.P,D3,2,A*%
%TO.N,+VA*%
X28956000Y49530000D03*
%TD*%
D24*
%TO.P,RV3,1,1*%
%TO.N,GND*%
X56181000Y88140000D03*
%TO.P,RV3,2,2*%
%TO.N,Net-(C7-Pad1)*%
X51181000Y88140000D03*
%TO.P,RV3,3,3*%
%TO.N,Net-(R6-Pad2)*%
X46181000Y88140000D03*
%TD*%
%TO.P,RV1,1,1*%
%TO.N,Net-(R1-Pad2)*%
X14271000Y88140000D03*
%TO.P,RV1,2,2*%
%TO.N,Net-(D1-K)*%
X9271000Y88140000D03*
%TO.P,RV1,3,3*%
%TO.N,unconnected-(RV1-Pad3)*%
X4271000Y88140000D03*
%TD*%
D26*
%TO.N,+VA*%
X33070800Y57251600D03*
X6731000Y51308000D03*
%TD*%
D27*
%TO.N,Net-(C1-Pad1)*%
X6771000Y79354000D02*
X3871000Y76454000D01*
X6771000Y81788000D02*
X6771000Y79354000D01*
%TO.N,Net-(D1-A)*%
X19431000Y78486000D02*
X17322800Y78486000D01*
X1549400Y90261400D02*
X3871000Y92583000D01*
X11771000Y81788000D02*
X9307200Y84251800D01*
X1549400Y86461600D02*
X1549400Y90261400D01*
X9307200Y84251800D02*
X3759200Y84251800D01*
X19558000Y78613000D02*
X19431000Y78486000D01*
X14020800Y81788000D02*
X11771000Y81788000D01*
X5571000Y97155000D02*
X5571000Y101600000D01*
X3871000Y95455000D02*
X5571000Y97155000D01*
X3871000Y92583000D02*
X3871000Y95455000D01*
X3759200Y84251800D02*
X1549400Y86461600D01*
X17322800Y78486000D02*
X14020800Y81788000D01*
X25019000Y78613000D02*
X19558000Y78613000D01*
%TO.N,Net-(C2-Pad2)*%
X23495000Y53507000D02*
X27980000Y53507000D01*
X27980000Y53507000D02*
X29718000Y55245000D01*
%TO.N,Net-(C2-Pad1)*%
X26033000Y56007000D02*
X30226000Y60200000D01*
X23495000Y56007000D02*
X26033000Y56007000D01*
%TO.N,Net-(D1-K)*%
X12971000Y101600000D02*
X12971000Y97155000D01*
X9271000Y93455000D02*
X9271000Y88140000D01*
X26441400Y81153000D02*
X28702000Y78892400D01*
X19431000Y81026000D02*
X24892000Y81026000D01*
X28702000Y78892400D02*
X28702000Y72710000D01*
X9271000Y88061800D02*
X12217400Y85115400D01*
X28702000Y72710000D02*
X24826000Y68834000D01*
X15341600Y85115400D02*
X19431000Y81026000D01*
X9271000Y88140000D02*
X9271000Y88061800D01*
X12217400Y85115400D02*
X15341600Y85115400D01*
X24892000Y81026000D02*
X25019000Y81153000D01*
X25019000Y81153000D02*
X26441400Y81153000D01*
X12971000Y97155000D02*
X9271000Y93455000D01*
%TO.N,/SEND*%
X14671000Y39331000D02*
X14671000Y44704000D01*
X16510000Y37492000D02*
X14671000Y39331000D01*
X14671000Y44704000D02*
X14925000Y44450000D01*
X14925000Y44450000D02*
X20447000Y44450000D01*
%TO.N,Net-(C4-Pad2)*%
X20447000Y49450000D02*
X14972000Y49450000D01*
X14972000Y49450000D02*
X14671000Y49149000D01*
%TO.N,Net-(C5-Pad1)*%
X38227000Y81838800D02*
X38227000Y83886000D01*
X35767000Y86381600D02*
X35767000Y89408000D01*
X35001200Y78613000D02*
X38227000Y81838800D01*
X38227000Y83921600D02*
X35767000Y86381600D01*
X38227000Y83886000D02*
X38227000Y83921600D01*
X32639000Y78613000D02*
X35001200Y78613000D01*
%TO.N,Net-(C5-Pad2)*%
X40767000Y75626000D02*
X43307000Y73086000D01*
X40767000Y89408000D02*
X40767000Y75626000D01*
%TO.N,Net-(U1A-+)*%
X17602200Y71755000D02*
X17653000Y71704200D01*
X17653000Y67564000D02*
X17653000Y71704200D01*
X21971000Y76073000D02*
X25019000Y76073000D01*
X14671000Y71755000D02*
X17602200Y71755000D01*
X17653000Y71704200D02*
X17653000Y71755000D01*
X17653000Y71755000D02*
X21971000Y76073000D01*
%TO.N,Net-(C6-Pad1)*%
X14671000Y58166000D02*
X14671000Y62418000D01*
X14817000Y62564000D02*
X17653000Y62564000D01*
X12039600Y65278000D02*
X11811000Y65278000D01*
X14671000Y62646600D02*
X12039600Y65278000D01*
X14671000Y62418000D02*
X14817000Y62564000D01*
X14671000Y62418000D02*
X14671000Y62646600D01*
%TO.N,Net-(C7-Pad2)*%
X52044600Y68326000D02*
X52070000Y68351400D01*
X52070000Y74208000D02*
X52070000Y68351400D01*
X50292000Y75986000D02*
X52070000Y74208000D01*
X52070000Y68351400D02*
X52070000Y57261010D01*
X46604000Y68326000D02*
X52044600Y68326000D01*
%TO.N,Net-(C7-Pad1)*%
X51181000Y88140000D02*
X51181000Y81875000D01*
X51181000Y81875000D02*
X50292000Y80986000D01*
%TO.N,Net-(U1B-+)*%
X35626000Y65024000D02*
X30050000Y65024000D01*
X32639000Y72085200D02*
X32639000Y73533000D01*
X35626000Y68834000D02*
X40386000Y68834000D01*
X30050000Y65024000D02*
X25226000Y60200000D01*
X40386000Y68834000D02*
X40513000Y68961000D01*
X35626000Y68834000D02*
X35626000Y65024000D01*
X35626000Y69098200D02*
X32639000Y72085200D01*
X35626000Y68834000D02*
X35626000Y69098200D01*
%TO.N,Net-(C9-Pad1)*%
X40481000Y49784000D02*
X40386000Y49879000D01*
X46670000Y49784000D02*
X40481000Y49784000D01*
%TO.N,/RETURN*%
X46670000Y44958000D02*
X46670000Y40300000D01*
X43749000Y47879000D02*
X46670000Y44958000D01*
X46670000Y40300000D02*
X43942000Y37572000D01*
X40386000Y47879000D02*
X43749000Y47879000D01*
D28*
%TO.N,+VA*%
X34219200Y106025000D02*
X32639000Y104444800D01*
X41122600Y104140000D02*
X43588000Y104140000D01*
X33070800Y57251600D02*
X49520590Y57251600D01*
X33070800Y57251600D02*
X33070800Y53657500D01*
X36429000Y106025000D02*
X36429000Y110724000D01*
X36429000Y106025000D02*
X34219200Y106025000D01*
X32639000Y104444800D02*
X32639000Y81153000D01*
X23977600Y49530000D02*
X28956000Y49530000D01*
X43588000Y108238000D02*
X43368000Y108458000D01*
X43588000Y104140000D02*
X43588000Y108238000D01*
X49520590Y57251600D02*
X49530000Y57261010D01*
X22199600Y51308000D02*
X23977600Y49530000D01*
X39237600Y106025000D02*
X41122600Y104140000D01*
X28956000Y49542700D02*
X28956000Y49530000D01*
X6731000Y51308000D02*
X22199600Y51308000D01*
X33070800Y53657500D02*
X28956000Y49542700D01*
X36429000Y110724000D02*
X36499800Y110794800D01*
X36429000Y106025000D02*
X39237600Y106025000D01*
%TO.N,VREF*%
X25699800Y110794800D02*
X25699800Y107356200D01*
X25699800Y110794800D02*
X25699800Y114731800D01*
X20650200Y65024000D02*
X24826000Y65024000D01*
X20650200Y59700200D02*
X20650200Y65024000D01*
X3871000Y71755000D02*
X9372600Y71755000D01*
X9372600Y71755000D02*
X16103600Y65024000D01*
X14671000Y53721000D02*
X20650200Y59700200D01*
X16103600Y65024000D02*
X20650200Y65024000D01*
X25699800Y107356200D02*
X27051000Y106005000D01*
D27*
%TO.N,/IN*%
X7620000Y30012000D02*
X16490000Y30012000D01*
X16490000Y30012000D02*
X16510000Y29992000D01*
%TO.N,/OUT*%
X43942000Y35072000D02*
X52772000Y35072000D01*
X52772000Y35072000D02*
X52832000Y35012000D01*
D28*
%TO.N,Net-(J3-Pad1)*%
X50506000Y112104800D02*
X54152800Y108458000D01*
X50506000Y114537000D02*
X50506000Y112104800D01*
X54152800Y108458000D02*
X54168000Y108458000D01*
D27*
%TO.N,Net-(Q1-PadB)*%
X9271000Y59121000D02*
X9271000Y65278000D01*
X3871000Y49149000D02*
X3871000Y53721000D01*
X3871000Y53721000D02*
X9271000Y59121000D01*
%TO.N,Net-(Q2-PadE)*%
X54610000Y57261010D02*
X54610000Y52644000D01*
X54610000Y52644000D02*
X57470000Y49784000D01*
X57404000Y60055010D02*
X54610000Y57261010D01*
X57404000Y62865000D02*
X57404000Y60055010D01*
%TO.N,Net-(R1-Pad2)*%
X14671000Y92583000D02*
X14671000Y88540000D01*
X14671000Y88540000D02*
X14271000Y88140000D01*
%TO.N,Net-(U1B--)*%
X35226000Y60200000D02*
X38432200Y60200000D01*
X32639000Y76073000D02*
X35240000Y76073000D01*
X40045600Y73086000D02*
X38227000Y73086000D01*
X35240000Y76073000D02*
X38227000Y73086000D01*
X38432200Y60200000D02*
X42951400Y64719200D01*
X42951400Y64719200D02*
X42951400Y70180200D01*
X42951400Y70180200D02*
X40045600Y73086000D01*
%TO.N,Net-(R6-Pad2)*%
X43307000Y83886000D02*
X43307000Y85266000D01*
X43307000Y85266000D02*
X46181000Y88140000D01*
%TD*%
%TA.AperFunction,Conductor*%
%TO.N,GND*%
G36*
X16760000Y32925012D02*
G01*
X16702993Y32957925D01*
X16575826Y32992000D01*
X16444174Y32992000D01*
X16317007Y32957925D01*
X16260000Y32925012D01*
X16260000Y34558988D01*
X16317007Y34526075D01*
X16444174Y34492000D01*
X16575826Y34492000D01*
X16702993Y34526075D01*
X16760000Y34558988D01*
X16760000Y32925012D01*
G37*
%TD.AperFunction*%
%TA.AperFunction,Conductor*%
G36*
X53155539Y118216815D02*
G01*
X53201294Y118164011D01*
X53212500Y118112500D01*
X53212500Y112074055D01*
X53247153Y111944725D01*
X53314099Y111828774D01*
X53314101Y111828771D01*
X53408771Y111734101D01*
X53408774Y111734099D01*
X53524725Y111667153D01*
X53654055Y111632500D01*
X53787945Y111632500D01*
X59692500Y111632500D01*
X59759539Y111612815D01*
X59805294Y111560011D01*
X59816500Y111508500D01*
X59816500Y26032500D01*
X59796815Y25965461D01*
X59744011Y25919706D01*
X59692500Y25908500D01*
X41526500Y25908500D01*
X41459461Y25928185D01*
X41413706Y25980989D01*
X41402500Y26032500D01*
X41402500Y41214943D01*
X41402500Y41214945D01*
X41367847Y41344274D01*
X41300901Y41460226D01*
X41206226Y41554901D01*
X41090274Y41621847D01*
X40960945Y41656500D01*
X19624945Y41656500D01*
X19491055Y41656500D01*
X19361726Y41621847D01*
X19245774Y41554901D01*
X19151099Y41460226D01*
X19084153Y41344274D01*
X19049500Y41214944D01*
X19049500Y26032500D01*
X19029815Y25965461D01*
X18977011Y25919706D01*
X18925500Y25908500D01*
X759500Y25908500D01*
X692461Y25928185D01*
X646706Y25980989D01*
X635500Y26032500D01*
X635500Y30570033D01*
X6119500Y30570033D01*
X6119500Y29453971D01*
X6119501Y29453965D01*
X6130113Y29334584D01*
X6186089Y29138954D01*
X6186090Y29138953D01*
X6186091Y29138951D01*
X6251105Y29014487D01*
X6280304Y28958590D01*
X6408890Y28800890D01*
X6566590Y28672304D01*
X6566591Y28672303D01*
X6566593Y28672302D01*
X6632087Y28638091D01*
X6746954Y28578089D01*
X6903376Y28533332D01*
X6942582Y28522114D01*
X6942583Y28522113D01*
X6942586Y28522113D01*
X7019511Y28515274D01*
X7061963Y28511500D01*
X7061966Y28511500D01*
X7061967Y28511500D01*
X8178028Y28511500D01*
X8178033Y28511500D01*
X8178036Y28511501D01*
X8201330Y28513571D01*
X8297415Y28522113D01*
X8493045Y28578089D01*
X8493049Y28578091D01*
X8673407Y28672302D01*
X8717993Y28708657D01*
X8831109Y28800890D01*
X8907684Y28894803D01*
X8959698Y28958593D01*
X9053909Y29138951D01*
X9076646Y29218412D01*
X9114014Y29277450D01*
X9177368Y29306913D01*
X9195862Y29308300D01*
X15098324Y29308300D01*
X15165363Y29288615D01*
X15208808Y29240596D01*
X15226655Y29205569D01*
X15296070Y29110028D01*
X15365483Y29014490D01*
X15365485Y29014488D01*
X15365485Y29014487D01*
X15532487Y28847485D01*
X15723566Y28708657D01*
X15934003Y28601433D01*
X16158631Y28528446D01*
X16391903Y28491500D01*
X16391908Y28491500D01*
X16628097Y28491500D01*
X16861368Y28528446D01*
X17085996Y28601433D01*
X17296433Y28708657D01*
X17328980Y28732304D01*
X17487510Y28847483D01*
X17654517Y29014490D01*
X17793343Y29205567D01*
X17845688Y29308300D01*
X17900566Y29416003D01*
X17912901Y29453964D01*
X17973553Y29640632D01*
X18010500Y29873902D01*
X18010500Y30110097D01*
X17973553Y30343368D01*
X17900568Y30567992D01*
X17793343Y30778433D01*
X17654517Y30969510D01*
X17487510Y31136517D01*
X17479973Y31141992D01*
X17437309Y31197322D01*
X17431331Y31266936D01*
X17463938Y31328730D01*
X17479975Y31342627D01*
X17487185Y31347866D01*
X17487186Y31347866D01*
X17654133Y31514813D01*
X17792914Y31705828D01*
X17900102Y31916197D01*
X17973065Y32140752D01*
X17989102Y32242000D01*
X16943012Y32242000D01*
X16975925Y32299007D01*
X17010000Y32426174D01*
X17010000Y32557826D01*
X16975925Y32684993D01*
X16943012Y32742000D01*
X17989102Y32742000D01*
X17973065Y32843247D01*
X17900102Y33067802D01*
X17792914Y33278171D01*
X17654133Y33469186D01*
X17487180Y33636139D01*
X17479555Y33641679D01*
X17436887Y33697007D01*
X17430905Y33766620D01*
X17463508Y33828417D01*
X17479555Y33842321D01*
X17487180Y33847860D01*
X17654133Y34014813D01*
X17792914Y34205828D01*
X17900102Y34416197D01*
X17973065Y34640752D01*
X17989102Y34742000D01*
X16943012Y34742000D01*
X16975925Y34799007D01*
X17010000Y34926174D01*
X17010000Y35057826D01*
X16975925Y35184993D01*
X16943012Y35242000D01*
X17989102Y35242000D01*
X17973065Y35343247D01*
X17900102Y35567802D01*
X17792914Y35778171D01*
X17654133Y35969186D01*
X17609565Y36013754D01*
X17576079Y36075077D01*
X17581063Y36144768D01*
X17618885Y36197538D01*
X17721107Y36280888D01*
X17836427Y36422318D01*
X17849698Y36438593D01*
X17943909Y36618951D01*
X17999886Y36814582D01*
X18010500Y36933963D01*
X18010499Y38050036D01*
X17999886Y38169418D01*
X17943909Y38365049D01*
X17849698Y38545407D01*
X17721109Y38703109D01*
X17563407Y38831698D01*
X17383049Y38925909D01*
X17187418Y38981886D01*
X17068037Y38992500D01*
X16056043Y38992499D01*
X15989005Y39012183D01*
X15968363Y39028818D01*
X15735489Y39261692D01*
X15411017Y39586164D01*
X15377534Y39647485D01*
X15374700Y39673843D01*
X15374700Y43544580D01*
X15376095Y43549331D01*
X15375072Y43554177D01*
X15385842Y43582527D01*
X15394385Y43611619D01*
X15398607Y43616127D01*
X15399886Y43619492D01*
X15422675Y43641822D01*
X15424994Y43644297D01*
X15425429Y43644619D01*
X15518219Y43712034D01*
X15522707Y43716522D01*
X15530141Y43722017D01*
X15554618Y43730977D01*
X15577489Y43743466D01*
X15593406Y43745177D01*
X15595752Y43746036D01*
X15597581Y43745626D01*
X15603847Y43746300D01*
X19411187Y43746300D01*
X19478226Y43726615D01*
X19511504Y43695187D01*
X19531309Y43667927D01*
X19664924Y43534312D01*
X19817800Y43423240D01*
X19986163Y43337454D01*
X20165881Y43279059D01*
X20352514Y43249500D01*
X20352519Y43249500D01*
X20541486Y43249500D01*
X20728118Y43279059D01*
X20907836Y43337454D01*
X21076199Y43423240D01*
X21093774Y43436009D01*
X21229073Y43534310D01*
X21362690Y43667927D01*
X21473760Y43820801D01*
X21522955Y43917351D01*
X23525500Y43917351D01*
X23525500Y43712648D01*
X23557522Y43510465D01*
X23620781Y43315776D01*
X23713715Y43133386D01*
X23834028Y42967786D01*
X23978786Y42823028D01*
X24144386Y42702715D01*
X24326776Y42609781D01*
X24521465Y42546522D01*
X24699329Y42518351D01*
X24723648Y42514500D01*
X24723649Y42514500D01*
X24928351Y42514500D01*
X24928352Y42514500D01*
X24955995Y42518878D01*
X25130534Y42546522D01*
X25325223Y42609781D01*
X25450653Y42673691D01*
X25507610Y42702713D01*
X25507613Y42702715D01*
X25673213Y42823028D01*
X25817971Y42967786D01*
X25938284Y43133386D01*
X25938287Y43133390D01*
X26012510Y43279060D01*
X26031218Y43315776D01*
X26038262Y43337453D01*
X26067484Y43427390D01*
X26094477Y43510465D01*
X26126500Y43712648D01*
X26126500Y43917351D01*
X34325500Y43917351D01*
X34325500Y43712648D01*
X34357522Y43510465D01*
X34420781Y43315776D01*
X34513715Y43133386D01*
X34634028Y42967786D01*
X34778786Y42823028D01*
X34944386Y42702715D01*
X35126776Y42609781D01*
X35321465Y42546522D01*
X35499329Y42518351D01*
X35523648Y42514500D01*
X35523649Y42514500D01*
X35728351Y42514500D01*
X35728352Y42514500D01*
X35755995Y42518878D01*
X35930534Y42546522D01*
X36125223Y42609781D01*
X36250653Y42673691D01*
X36307610Y42702713D01*
X36307613Y42702715D01*
X36473213Y42823028D01*
X36617971Y42967786D01*
X36738284Y43133386D01*
X36738287Y43133390D01*
X36812510Y43279060D01*
X36831218Y43315776D01*
X36838262Y43337453D01*
X36867484Y43427390D01*
X36894477Y43510465D01*
X36926500Y43712648D01*
X36926500Y43917351D01*
X36894477Y44119534D01*
X36866780Y44204776D01*
X36831220Y44314219D01*
X36738287Y44496610D01*
X36661973Y44601648D01*
X36617971Y44662213D01*
X36617968Y44662215D01*
X36617966Y44662219D01*
X36473219Y44806966D01*
X36473215Y44806968D01*
X36473213Y44806971D01*
X36400590Y44859732D01*
X36307610Y44927287D01*
X36125219Y45020220D01*
X35930534Y45083477D01*
X35728352Y45115500D01*
X35523648Y45115500D01*
X35451041Y45104000D01*
X35321465Y45083477D01*
X35250288Y45060350D01*
X35126781Y45020220D01*
X35126778Y45020218D01*
X35126776Y45020218D01*
X35103608Y45008413D01*
X34944390Y44927287D01*
X34944386Y44927284D01*
X34778786Y44806971D01*
X34634028Y44662213D01*
X34513715Y44496613D01*
X34513713Y44496610D01*
X34494438Y44458781D01*
X34420781Y44314223D01*
X34357522Y44119534D01*
X34325500Y43917351D01*
X26126500Y43917351D01*
X26094477Y44119534D01*
X26066780Y44204776D01*
X26031220Y44314219D01*
X25938287Y44496610D01*
X25861973Y44601648D01*
X25817971Y44662213D01*
X25817968Y44662215D01*
X25817966Y44662219D01*
X25673219Y44806966D01*
X25673215Y44806968D01*
X25673213Y44806971D01*
X25600590Y44859732D01*
X25507610Y44927287D01*
X25325219Y45020220D01*
X25130534Y45083477D01*
X24928352Y45115500D01*
X24723648Y45115500D01*
X24651041Y45104000D01*
X24521465Y45083477D01*
X24450288Y45060350D01*
X24326781Y45020220D01*
X24326778Y45020218D01*
X24326776Y45020218D01*
X24303608Y45008413D01*
X24144390Y44927287D01*
X24144386Y44927284D01*
X23978786Y44806971D01*
X23834028Y44662213D01*
X23713715Y44496613D01*
X23713713Y44496610D01*
X23694438Y44458781D01*
X23620781Y44314223D01*
X23557522Y44119534D01*
X23525500Y43917351D01*
X21522955Y43917351D01*
X21554122Y43978520D01*
X21559544Y43989161D01*
X21559544Y43989164D01*
X21559547Y43989168D01*
X21617940Y44168882D01*
X21634967Y44276386D01*
X21647500Y44355513D01*
X21647500Y44544486D01*
X21617940Y44731118D01*
X21559547Y44910832D01*
X21473760Y45079199D01*
X21362690Y45232073D01*
X21229073Y45365690D01*
X21076199Y45476760D01*
X20907832Y45562547D01*
X20728118Y45620940D01*
X20541486Y45650500D01*
X20541481Y45650500D01*
X20352519Y45650500D01*
X20352514Y45650500D01*
X20165881Y45620940D01*
X20082497Y45593846D01*
X19986168Y45562547D01*
X19986165Y45562545D01*
X19986163Y45562545D01*
X19897347Y45517290D01*
X19817801Y45476760D01*
X19664927Y45365690D01*
X19664924Y45365687D01*
X19531309Y45232072D01*
X19511504Y45204813D01*
X19456173Y45162148D01*
X19411187Y45153700D01*
X15977439Y45153700D01*
X15910400Y45173385D01*
X15866954Y45221405D01*
X15836975Y45280241D01*
X15783287Y45385610D01*
X15715732Y45478590D01*
X15662971Y45551213D01*
X15662968Y45551215D01*
X15662966Y45551219D01*
X15518219Y45695966D01*
X15518215Y45695968D01*
X15518213Y45695971D01*
X15445590Y45748732D01*
X15352610Y45816287D01*
X15170219Y45909220D01*
X14975534Y45972477D01*
X14773352Y46004500D01*
X14568648Y46004500D01*
X14467557Y45988488D01*
X14366465Y45972477D01*
X14297184Y45949966D01*
X14171781Y45909220D01*
X14171778Y45909218D01*
X14171776Y45909218D01*
X14105607Y45875503D01*
X13989390Y45816287D01*
X13989386Y45816284D01*
X13823786Y45695971D01*
X13679028Y45551213D01*
X13558715Y45385613D01*
X13558713Y45385610D01*
X13548562Y45365687D01*
X13465781Y45203223D01*
X13402522Y45008534D01*
X13370500Y44806351D01*
X13370500Y44601648D01*
X13402522Y44399465D01*
X13465781Y44204776D01*
X13558715Y44022386D01*
X13679028Y43856786D01*
X13823782Y43712032D01*
X13823787Y43712028D01*
X13916185Y43644898D01*
X13958851Y43589569D01*
X13967300Y43544580D01*
X13967300Y39406442D01*
X13967299Y39406421D01*
X13967299Y39261689D01*
X13967298Y39261689D01*
X13994341Y39125743D01*
X13994343Y39125735D01*
X14047386Y38997676D01*
X14124400Y38882416D01*
X14151474Y38855343D01*
X14222417Y38784400D01*
X14222420Y38784397D01*
X14973181Y38033635D01*
X15006666Y37972312D01*
X15009500Y37945954D01*
X15009500Y36933971D01*
X15009501Y36933965D01*
X15020113Y36814584D01*
X15076089Y36618954D01*
X15076091Y36618951D01*
X15166480Y36445909D01*
X15170304Y36438590D01*
X15298890Y36280890D01*
X15401115Y36197538D01*
X15440632Y36139917D01*
X15442724Y36070079D01*
X15410435Y36013755D01*
X15365866Y35969186D01*
X15227085Y35778171D01*
X15119897Y35567802D01*
X15046934Y35343247D01*
X15030898Y35242000D01*
X16076988Y35242000D01*
X16044075Y35184993D01*
X16010000Y35057826D01*
X16010000Y34926174D01*
X16044075Y34799007D01*
X16076988Y34742000D01*
X15030898Y34742000D01*
X15046934Y34640752D01*
X15119897Y34416197D01*
X15227085Y34205828D01*
X15365866Y34014813D01*
X15532816Y33847863D01*
X15540451Y33842317D01*
X15583116Y33786986D01*
X15589094Y33717373D01*
X15556487Y33655578D01*
X15540451Y33641683D01*
X15532816Y33636136D01*
X15365866Y33469186D01*
X15227085Y33278171D01*
X15119897Y33067802D01*
X15046934Y32843247D01*
X15030898Y32742000D01*
X16076988Y32742000D01*
X16044075Y32684993D01*
X16010000Y32557826D01*
X16010000Y32426174D01*
X16044075Y32299007D01*
X16076988Y32242000D01*
X15030898Y32242000D01*
X15046934Y32140752D01*
X15119897Y31916197D01*
X15227085Y31705828D01*
X15365866Y31514813D01*
X15532813Y31347866D01*
X15540025Y31342627D01*
X15582690Y31287297D01*
X15588669Y31217683D01*
X15556063Y31155888D01*
X15540027Y31141993D01*
X15532490Y31136517D01*
X15365483Y30969510D01*
X15246386Y30805588D01*
X15226654Y30778429D01*
X15224501Y30774915D01*
X15172691Y30728037D01*
X15118771Y30715700D01*
X9195862Y30715700D01*
X9128823Y30735385D01*
X9083068Y30788189D01*
X9076646Y30805588D01*
X9071132Y30824855D01*
X9053909Y30885049D01*
X8959698Y31065407D01*
X8831109Y31223109D01*
X8728882Y31306463D01*
X8689367Y31364081D01*
X8687275Y31433919D01*
X8719564Y31490244D01*
X8764133Y31534813D01*
X8902914Y31725828D01*
X9010102Y31936197D01*
X9083065Y32160752D01*
X9099102Y32262000D01*
X8053012Y32262000D01*
X8085925Y32319007D01*
X8120000Y32446174D01*
X8120000Y32577826D01*
X8085925Y32704993D01*
X8053012Y32762000D01*
X9099102Y32762000D01*
X9083065Y32863247D01*
X9010102Y33087802D01*
X8902914Y33298171D01*
X8764133Y33489186D01*
X8597186Y33656133D01*
X8406171Y33794914D01*
X8195804Y33902102D01*
X7971255Y33975063D01*
X7971249Y33975065D01*
X7870000Y33991100D01*
X7870000Y32945012D01*
X7812993Y32977925D01*
X7685826Y33012000D01*
X7554174Y33012000D01*
X7427007Y32977925D01*
X7370000Y32945012D01*
X7370000Y33991101D01*
X7268750Y33975065D01*
X7268744Y33975063D01*
X7044195Y33902102D01*
X6833828Y33794914D01*
X6642813Y33656133D01*
X6475866Y33489186D01*
X6337085Y33298171D01*
X6229897Y33087802D01*
X6156934Y32863247D01*
X6140898Y32762000D01*
X7186988Y32762000D01*
X7154075Y32704993D01*
X7120000Y32577826D01*
X7120000Y32446174D01*
X7154075Y32319007D01*
X7186988Y32262000D01*
X6140898Y32262000D01*
X6156934Y32160752D01*
X6229897Y31936197D01*
X6337087Y31725825D01*
X6475858Y31534822D01*
X6475863Y31534816D01*
X6520436Y31490242D01*
X6553920Y31428919D01*
X6548934Y31359227D01*
X6511114Y31306461D01*
X6408890Y31223109D01*
X6314977Y31107933D01*
X6280302Y31065407D01*
X6186091Y30885049D01*
X6186089Y30885045D01*
X6163354Y30805588D01*
X6130114Y30689418D01*
X6130114Y30689416D01*
X6130113Y30689413D01*
X6119500Y30570033D01*
X635500Y30570033D01*
X635500Y44954000D01*
X2594391Y44954000D01*
X3555314Y44954000D01*
X3550920Y44949606D01*
X3498259Y44858394D01*
X3471000Y44756661D01*
X3471000Y44651339D01*
X3498259Y44549606D01*
X3550920Y44458394D01*
X3555314Y44454000D01*
X2594391Y44454000D01*
X2603009Y44399586D01*
X2666244Y44204970D01*
X2759140Y44022650D01*
X2879417Y43857105D01*
X2879417Y43857104D01*
X3024104Y43712417D01*
X3189650Y43592140D01*
X3371970Y43499244D01*
X3566586Y43436009D01*
X3621000Y43427390D01*
X3621000Y44388314D01*
X3625394Y44383920D01*
X3716606Y44331259D01*
X3818339Y44304000D01*
X3923661Y44304000D01*
X4025394Y44331259D01*
X4116606Y44383920D01*
X4121000Y44388314D01*
X4121000Y43427390D01*
X4175413Y43436009D01*
X4370029Y43499244D01*
X4552349Y43592140D01*
X4717894Y43712417D01*
X4717895Y43712417D01*
X4862582Y43857104D01*
X4862582Y43857105D01*
X4982859Y44022650D01*
X5075755Y44204970D01*
X5138990Y44399586D01*
X5147609Y44454000D01*
X4186686Y44454000D01*
X4191080Y44458394D01*
X4243741Y44549606D01*
X4271000Y44651339D01*
X4271000Y44756661D01*
X4243741Y44858394D01*
X4191080Y44949606D01*
X4186686Y44954000D01*
X5147609Y44954000D01*
X5138990Y45008413D01*
X5075755Y45203029D01*
X4982859Y45385349D01*
X4862582Y45550894D01*
X4862582Y45550895D01*
X4717895Y45695582D01*
X4552349Y45815859D01*
X4370031Y45908754D01*
X4175421Y45971988D01*
X4121000Y45980606D01*
X4121000Y45019686D01*
X4116606Y45024080D01*
X4025394Y45076741D01*
X3923661Y45104000D01*
X3818339Y45104000D01*
X3716606Y45076741D01*
X3625394Y45024080D01*
X3621000Y45019686D01*
X3621000Y45980607D01*
X3566578Y45971988D01*
X3371968Y45908754D01*
X3189650Y45815859D01*
X3024105Y45695582D01*
X3024104Y45695582D01*
X2879417Y45550895D01*
X2879417Y45550894D01*
X2759140Y45385349D01*
X2666244Y45203029D01*
X2603009Y45008413D01*
X2594391Y44954000D01*
X635500Y44954000D01*
X635500Y53823351D01*
X2570500Y53823351D01*
X2570500Y53618648D01*
X2602522Y53416465D01*
X2665781Y53221776D01*
X2758715Y53039386D01*
X2879028Y52873786D01*
X3023782Y52729032D01*
X3023787Y52729028D01*
X3116185Y52661898D01*
X3158851Y52606569D01*
X3167300Y52561580D01*
X3167300Y50308419D01*
X3147615Y50241380D01*
X3116185Y50208101D01*
X3023784Y50140969D01*
X2879028Y49996213D01*
X2758715Y49830613D01*
X2665781Y49648223D01*
X2602522Y49453534D01*
X2570500Y49251351D01*
X2570500Y49046648D01*
X2602522Y48844465D01*
X2665781Y48649776D01*
X2758715Y48467386D01*
X2879028Y48301786D01*
X3023786Y48157028D01*
X3189386Y48036715D01*
X3371776Y47943781D01*
X3566465Y47880522D01*
X3744329Y47852351D01*
X3768648Y47848500D01*
X3768649Y47848500D01*
X3973351Y47848500D01*
X3973352Y47848500D01*
X4000995Y47852878D01*
X4175534Y47880522D01*
X4370223Y47943781D01*
X4495653Y48007691D01*
X4552610Y48036713D01*
X4552613Y48036715D01*
X4718213Y48157028D01*
X4862971Y48301786D01*
X4983284Y48467386D01*
X4983287Y48467390D01*
X5045476Y48589442D01*
X5076218Y48649776D01*
X5083347Y48671715D01*
X5130342Y48816352D01*
X5139477Y48844465D01*
X5171500Y49046648D01*
X5171500Y49251351D01*
X5139477Y49453534D01*
X5076220Y49648219D01*
X4983287Y49830610D01*
X4915732Y49923590D01*
X4862971Y49996213D01*
X4862968Y49996215D01*
X4862966Y49996219D01*
X4718219Y50140966D01*
X4700692Y50153700D01*
X4625815Y50208101D01*
X4583149Y50263430D01*
X4574700Y50308419D01*
X4574700Y51387319D01*
X5925700Y51387319D01*
X5925700Y51228680D01*
X5956644Y51073110D01*
X5956647Y51073101D01*
X6017348Y50926553D01*
X6017355Y50926540D01*
X6105481Y50794651D01*
X6105484Y50794647D01*
X6217647Y50682484D01*
X6217651Y50682481D01*
X6349540Y50594355D01*
X6349553Y50594348D01*
X6496101Y50533647D01*
X6496110Y50533644D01*
X6651680Y50502700D01*
X6651685Y50502700D01*
X6810315Y50502700D01*
X13946692Y50502700D01*
X14013731Y50483015D01*
X14059486Y50430211D01*
X14069430Y50361053D01*
X14040405Y50297497D01*
X14002987Y50268216D01*
X13989391Y50261288D01*
X13989389Y50261287D01*
X13823786Y50140971D01*
X13679028Y49996213D01*
X13558715Y49830613D01*
X13465781Y49648223D01*
X13402522Y49453534D01*
X13370500Y49251351D01*
X13370500Y49046648D01*
X13402522Y48844465D01*
X13465781Y48649776D01*
X13558715Y48467386D01*
X13679028Y48301786D01*
X13823786Y48157028D01*
X13989386Y48036715D01*
X14171776Y47943781D01*
X14366465Y47880522D01*
X14544329Y47852351D01*
X14568648Y47848500D01*
X14568649Y47848500D01*
X14773351Y47848500D01*
X14773352Y47848500D01*
X14800995Y47852878D01*
X14975534Y47880522D01*
X15170223Y47943781D01*
X15295653Y48007691D01*
X15352610Y48036713D01*
X15352613Y48036715D01*
X15518213Y48157028D01*
X15662971Y48301786D01*
X15783284Y48467386D01*
X15783287Y48467390D01*
X15876220Y48649781D01*
X15879741Y48660620D01*
X15919179Y48718294D01*
X15983538Y48745492D01*
X15997672Y48746300D01*
X19411187Y48746300D01*
X19478226Y48726615D01*
X19511504Y48695187D01*
X19531309Y48667927D01*
X19664924Y48534312D01*
X19817800Y48423240D01*
X19986163Y48337454D01*
X20165881Y48279059D01*
X20352514Y48249500D01*
X20352519Y48249500D01*
X20541486Y48249500D01*
X20728118Y48279059D01*
X20907836Y48337454D01*
X21076199Y48423240D01*
X21136960Y48467386D01*
X21229073Y48534310D01*
X21362690Y48667927D01*
X21473760Y48820801D01*
X21550553Y48971516D01*
X21559545Y48989163D01*
X21578224Y49046648D01*
X21617940Y49168882D01*
X21636296Y49284776D01*
X21647500Y49355513D01*
X21647500Y49544486D01*
X21617940Y49731118D01*
X21559547Y49910832D01*
X21473760Y50079199D01*
X21362690Y50232073D01*
X21303744Y50291019D01*
X21270259Y50352342D01*
X21275243Y50422034D01*
X21317115Y50477967D01*
X21382579Y50502384D01*
X21391425Y50502700D01*
X21814672Y50502700D01*
X21881711Y50483015D01*
X21902352Y50466381D01*
X23352079Y49016654D01*
X23352082Y49016651D01*
X23380378Y48988355D01*
X23464252Y48904480D01*
X23574919Y48830536D01*
X23574918Y48830535D01*
X23596145Y48816352D01*
X23742702Y48755646D01*
X23742710Y48755644D01*
X23898280Y48724699D01*
X23898285Y48724699D01*
X24063030Y48724699D01*
X24063050Y48724700D01*
X27675868Y48724700D01*
X27742907Y48705015D01*
X27786353Y48656995D01*
X27796616Y48636852D01*
X27915743Y48489743D01*
X28062853Y48370614D01*
X28231512Y48284680D01*
X28414356Y48235687D01*
X28492979Y48229500D01*
X29419010Y48229500D01*
X29419029Y48229501D01*
X29497643Y48235687D01*
X29613562Y48266747D01*
X29680488Y48284680D01*
X29750803Y48320507D01*
X29849146Y48370614D01*
X29968653Y48467390D01*
X29996257Y48489743D01*
X30115383Y48636851D01*
X30115384Y48636852D01*
X30115385Y48636853D01*
X30188836Y48781011D01*
X30197481Y48797978D01*
X30245455Y48848775D01*
X30313276Y48865570D01*
X30379411Y48843033D01*
X30408284Y48814569D01*
X30504028Y48682787D01*
X30504032Y48682782D01*
X30648786Y48538028D01*
X30814386Y48417715D01*
X30996776Y48324781D01*
X31191465Y48261522D01*
X31354579Y48235688D01*
X31393648Y48229500D01*
X31393649Y48229500D01*
X31598351Y48229500D01*
X31598352Y48229500D01*
X31637421Y48235688D01*
X31800534Y48261522D01*
X31995223Y48324781D01*
X32120653Y48388691D01*
X32177610Y48417713D01*
X32177613Y48417715D01*
X32343213Y48538028D01*
X32487971Y48682786D01*
X32608284Y48848386D01*
X32608287Y48848390D01*
X32680017Y48989168D01*
X32701218Y49030776D01*
X32701333Y49031128D01*
X32735500Y49136284D01*
X32764477Y49225465D01*
X32796500Y49427648D01*
X32796500Y49632351D01*
X32764477Y49834534D01*
X32701220Y50029219D01*
X32608287Y50211610D01*
X32504120Y50354985D01*
X32487971Y50377213D01*
X32487968Y50377215D01*
X32487966Y50377219D01*
X32343219Y50521966D01*
X32177610Y50642287D01*
X32011619Y50726864D01*
X39085500Y50726864D01*
X39085500Y49031129D01*
X39085501Y49031123D01*
X39091908Y48971516D01*
X39142202Y48836671D01*
X39142206Y48836664D01*
X39228451Y48721457D01*
X39228457Y48721450D01*
X39236982Y48715069D01*
X39278851Y48659134D01*
X39283832Y48589442D01*
X39273152Y48559510D01*
X39180781Y48378223D01*
X39117522Y48183534D01*
X39085500Y47981351D01*
X39085500Y47776648D01*
X39117522Y47574465D01*
X39180781Y47379776D01*
X39273715Y47197386D01*
X39394028Y47031786D01*
X39538786Y46887028D01*
X39704386Y46766715D01*
X39886776Y46673781D01*
X40081465Y46610522D01*
X40259329Y46582351D01*
X40283648Y46578500D01*
X40283649Y46578500D01*
X40488351Y46578500D01*
X40488352Y46578500D01*
X40515995Y46582878D01*
X40690534Y46610522D01*
X40885223Y46673781D01*
X41010653Y46737691D01*
X41067610Y46766713D01*
X41067613Y46766715D01*
X41233213Y46887028D01*
X41377969Y47031784D01*
X41445100Y47124184D01*
X41500430Y47166851D01*
X41545419Y47175300D01*
X43406156Y47175300D01*
X43473195Y47155615D01*
X43493837Y47138981D01*
X45352575Y45280241D01*
X45386060Y45218918D01*
X45387367Y45173162D01*
X45369500Y45060357D01*
X45369500Y44855648D01*
X45401522Y44653465D01*
X45464781Y44458776D01*
X45557715Y44276386D01*
X45678028Y44110786D01*
X45822782Y43966032D01*
X45822787Y43966028D01*
X45915185Y43898898D01*
X45957851Y43843569D01*
X45966300Y43798580D01*
X45966300Y40642844D01*
X45946615Y40575805D01*
X45929981Y40555163D01*
X44435408Y39060590D01*
X44374085Y39027105D01*
X44309408Y39030340D01*
X44293368Y39035553D01*
X44189689Y39051973D01*
X44060097Y39072500D01*
X44060092Y39072500D01*
X43823908Y39072500D01*
X43823903Y39072500D01*
X43590631Y39035553D01*
X43502321Y39006859D01*
X43366008Y38962568D01*
X43366005Y38962566D01*
X43366003Y38962566D01*
X43254991Y38906002D01*
X43155567Y38855343D01*
X42964490Y38716517D01*
X42797483Y38549510D01*
X42663464Y38365049D01*
X42658657Y38358433D01*
X42551433Y38147996D01*
X42478446Y37923368D01*
X42441500Y37690097D01*
X42441500Y37453902D01*
X42478446Y37220631D01*
X42551433Y36996003D01*
X42658657Y36785566D01*
X42737862Y36676550D01*
X42797483Y36594490D01*
X42797485Y36594488D01*
X42797485Y36594487D01*
X42964490Y36427482D01*
X42971603Y36422315D01*
X43014266Y36366983D01*
X43020242Y36297370D01*
X42987634Y36235576D01*
X42971603Y36221685D01*
X42964490Y36216517D01*
X42797483Y36049510D01*
X42677995Y35885049D01*
X42658657Y35858433D01*
X42551433Y35647996D01*
X42478446Y35423368D01*
X42441500Y35190097D01*
X42441500Y34953902D01*
X42478446Y34720631D01*
X42551433Y34496003D01*
X42658657Y34285566D01*
X42716591Y34205828D01*
X42797483Y34094490D01*
X42797485Y34094488D01*
X42797485Y34094487D01*
X42964487Y33927485D01*
X42964493Y33927480D01*
X42972029Y33922005D01*
X43014692Y33866673D01*
X43020667Y33797059D01*
X42988058Y33735266D01*
X42972022Y33721372D01*
X42964819Y33716139D01*
X42797866Y33549186D01*
X42659085Y33358171D01*
X42551897Y33147802D01*
X42478934Y32923247D01*
X42462898Y32822000D01*
X43508988Y32822000D01*
X43476075Y32764993D01*
X43442000Y32637826D01*
X43442000Y32506174D01*
X43476075Y32379007D01*
X43508988Y32322000D01*
X42462898Y32322000D01*
X42478934Y32220752D01*
X42551897Y31996197D01*
X42659087Y31785825D01*
X42797858Y31594822D01*
X42797863Y31594816D01*
X42842436Y31550242D01*
X42875920Y31488919D01*
X42870934Y31419227D01*
X42833114Y31366461D01*
X42730890Y31283109D01*
X42677543Y31217683D01*
X42602302Y31125407D01*
X42508091Y30945049D01*
X42508089Y30945045D01*
X42474550Y30827829D01*
X42452114Y30749418D01*
X42452114Y30749416D01*
X42452113Y30749413D01*
X42441500Y30630033D01*
X42441500Y29513971D01*
X42441501Y29513965D01*
X42452113Y29394584D01*
X42508089Y29198954D01*
X42602304Y29018590D01*
X42730890Y28860890D01*
X42888590Y28732304D01*
X42888591Y28732303D01*
X42888593Y28732302D01*
X42978772Y28685196D01*
X43068954Y28638089D01*
X43225376Y28593332D01*
X43264582Y28582114D01*
X43264583Y28582113D01*
X43264586Y28582113D01*
X43341511Y28575274D01*
X43383963Y28571500D01*
X43383966Y28571500D01*
X43383967Y28571500D01*
X44500028Y28571500D01*
X44500033Y28571500D01*
X44500036Y28571501D01*
X44523330Y28573571D01*
X44619415Y28582113D01*
X44815045Y28638089D01*
X44815049Y28638091D01*
X44995407Y28732302D01*
X45079525Y28800891D01*
X45153109Y28860890D01*
X45232774Y28958593D01*
X45281698Y29018593D01*
X45375909Y29198951D01*
X45431886Y29394582D01*
X45442500Y29513963D01*
X45442499Y30630036D01*
X45431886Y30749418D01*
X45375909Y30945049D01*
X45281698Y31125407D01*
X45153109Y31283109D01*
X45050882Y31366463D01*
X45011367Y31424081D01*
X45009275Y31493919D01*
X45041564Y31550244D01*
X45086133Y31594813D01*
X45224914Y31785828D01*
X45332102Y31996197D01*
X45405065Y32220751D01*
X45420542Y32318462D01*
X45421103Y32322000D01*
X44375012Y32322000D01*
X44407925Y32379007D01*
X44442000Y32506174D01*
X44442000Y32637826D01*
X44407925Y32764993D01*
X44375012Y32822000D01*
X45421102Y32822000D01*
X45405065Y32923247D01*
X45332102Y33147802D01*
X45224914Y33358171D01*
X45086133Y33549186D01*
X44919182Y33716137D01*
X44911981Y33721369D01*
X44869312Y33776696D01*
X44863329Y33846309D01*
X44895932Y33908106D01*
X44911974Y33922008D01*
X44919509Y33927482D01*
X45086514Y34094487D01*
X45086517Y34094490D01*
X45225343Y34285567D01*
X45233000Y34300595D01*
X45280975Y34351391D01*
X45343485Y34368300D01*
X51238971Y34368300D01*
X51306010Y34348615D01*
X51351765Y34295811D01*
X51358187Y34278411D01*
X51398089Y34138954D01*
X51398091Y34138951D01*
X51475321Y33991101D01*
X51492304Y33958590D01*
X51620890Y33800890D01*
X51723115Y33717538D01*
X51762632Y33659917D01*
X51764724Y33590079D01*
X51732435Y33533755D01*
X51687866Y33489186D01*
X51549085Y33298171D01*
X51441897Y33087802D01*
X51368934Y32863247D01*
X51352898Y32762000D01*
X52398988Y32762000D01*
X52366075Y32704993D01*
X52332000Y32577826D01*
X52332000Y32446174D01*
X52366075Y32319007D01*
X52398988Y32262000D01*
X51352898Y32262000D01*
X51368934Y32160752D01*
X51441897Y31936197D01*
X51549085Y31725828D01*
X51687866Y31534813D01*
X51854813Y31367866D01*
X52045828Y31229085D01*
X52256197Y31121897D01*
X52480752Y31048934D01*
X52582000Y31032897D01*
X52582000Y32078988D01*
X52639007Y32046075D01*
X52766174Y32012000D01*
X52897826Y32012000D01*
X53024993Y32046075D01*
X53082000Y32078988D01*
X53082000Y31032897D01*
X53183247Y31048934D01*
X53407802Y31121897D01*
X53618171Y31229085D01*
X53809186Y31367866D01*
X53976133Y31534813D01*
X54114914Y31725828D01*
X54222102Y31936197D01*
X54295065Y32160752D01*
X54311102Y32262000D01*
X53265012Y32262000D01*
X53297925Y32319007D01*
X53332000Y32446174D01*
X53332000Y32577826D01*
X53297925Y32704993D01*
X53265012Y32762000D01*
X54311102Y32762000D01*
X54295065Y32863247D01*
X54222102Y33087802D01*
X54114914Y33298171D01*
X53976133Y33489186D01*
X53931565Y33533754D01*
X53898079Y33595077D01*
X53903063Y33664768D01*
X53940885Y33717538D01*
X54043107Y33800888D01*
X54100480Y33871251D01*
X54171698Y33958593D01*
X54265909Y34138951D01*
X54321886Y34334582D01*
X54332500Y34453963D01*
X54332499Y35570036D01*
X54321886Y35689418D01*
X54265909Y35885049D01*
X54171698Y36065407D01*
X54043109Y36223109D01*
X53885407Y36351698D01*
X53705049Y36445909D01*
X53509418Y36501886D01*
X53390037Y36512500D01*
X52273964Y36512499D01*
X52154582Y36501886D01*
X51958951Y36445909D01*
X51778593Y36351698D01*
X51714803Y36299684D01*
X51620890Y36223109D01*
X51557012Y36144768D01*
X51492302Y36065407D01*
X51398091Y35885049D01*
X51398090Y35885046D01*
X51398089Y35885044D01*
X51392521Y35865586D01*
X51355153Y35806549D01*
X51291798Y35777087D01*
X51273306Y35775700D01*
X45343485Y35775700D01*
X45276446Y35795385D01*
X45233000Y35843405D01*
X45225343Y35858433D01*
X45086517Y36049510D01*
X44919510Y36216517D01*
X44912401Y36221682D01*
X44869735Y36277012D01*
X44863756Y36346625D01*
X44896362Y36408420D01*
X44912401Y36422318D01*
X44919506Y36427480D01*
X44919510Y36427483D01*
X45086517Y36594490D01*
X45225343Y36785567D01*
X45300959Y36933971D01*
X45332566Y36996003D01*
X45405553Y37220631D01*
X45442500Y37453902D01*
X45442500Y37690097D01*
X45421973Y37819689D01*
X45405553Y37923368D01*
X45400340Y37939408D01*
X45398344Y38009247D01*
X45430590Y38065408D01*
X47115456Y39750274D01*
X47115487Y39750303D01*
X47216598Y39851414D01*
X47293613Y39966676D01*
X47321785Y40034692D01*
X47321789Y40034701D01*
X47346658Y40094738D01*
X47373700Y40230687D01*
X47373701Y40230689D01*
X47373701Y40375422D01*
X47373700Y40375443D01*
X47373700Y43798580D01*
X47393385Y43865619D01*
X47424815Y43898898D01*
X47517212Y43966028D01*
X47517217Y43966032D01*
X47661971Y44110786D01*
X47782284Y44276386D01*
X47782287Y44276390D01*
X47844997Y44399465D01*
X47875218Y44458776D01*
X47887512Y44496613D01*
X47938477Y44653466D01*
X47970500Y44855648D01*
X47970500Y45060352D01*
X47947114Y45208000D01*
X56193391Y45208000D01*
X57154314Y45208000D01*
X57149920Y45203606D01*
X57097259Y45112394D01*
X57070000Y45010661D01*
X57070000Y44905339D01*
X57097259Y44803606D01*
X57149920Y44712394D01*
X57154314Y44708000D01*
X56193391Y44708000D01*
X56202009Y44653586D01*
X56265244Y44458970D01*
X56358140Y44276650D01*
X56478417Y44111105D01*
X56478417Y44111104D01*
X56623104Y43966417D01*
X56788650Y43846140D01*
X56970970Y43753244D01*
X57165586Y43690009D01*
X57220000Y43681390D01*
X57220000Y44642314D01*
X57224394Y44637920D01*
X57315606Y44585259D01*
X57417339Y44558000D01*
X57522661Y44558000D01*
X57624394Y44585259D01*
X57715606Y44637920D01*
X57720000Y44642314D01*
X57720000Y43681390D01*
X57774413Y43690009D01*
X57969029Y43753244D01*
X58151349Y43846140D01*
X58316894Y43966417D01*
X58316895Y43966417D01*
X58461582Y44111104D01*
X58461582Y44111105D01*
X58581859Y44276650D01*
X58674755Y44458970D01*
X58737990Y44653586D01*
X58746609Y44708000D01*
X57785686Y44708000D01*
X57790080Y44712394D01*
X57842741Y44803606D01*
X57870000Y44905339D01*
X57870000Y45010661D01*
X57842741Y45112394D01*
X57790080Y45203606D01*
X57785686Y45208000D01*
X58746609Y45208000D01*
X58737990Y45262413D01*
X58674755Y45457029D01*
X58581859Y45639349D01*
X58461582Y45804894D01*
X58461582Y45804895D01*
X58316895Y45949582D01*
X58151349Y46069859D01*
X57969031Y46162754D01*
X57774421Y46225988D01*
X57720000Y46234606D01*
X57720000Y45273686D01*
X57715606Y45278080D01*
X57624394Y45330741D01*
X57522661Y45358000D01*
X57417339Y45358000D01*
X57315606Y45330741D01*
X57224394Y45278080D01*
X57220000Y45273686D01*
X57220000Y46234607D01*
X57165578Y46225988D01*
X56970968Y46162754D01*
X56788650Y46069859D01*
X56623105Y45949582D01*
X56623104Y45949582D01*
X56478417Y45804895D01*
X56478417Y45804894D01*
X56358140Y45639349D01*
X56265244Y45457029D01*
X56202009Y45262413D01*
X56193391Y45208000D01*
X47947114Y45208000D01*
X47938477Y45262534D01*
X47875220Y45457219D01*
X47782287Y45639610D01*
X47714732Y45732590D01*
X47661971Y45805213D01*
X47661968Y45805215D01*
X47661966Y45805219D01*
X47517219Y45949966D01*
X47517215Y45949968D01*
X47517213Y45949971D01*
X47442159Y46004500D01*
X47351610Y46070287D01*
X47169219Y46163220D01*
X46974534Y46226477D01*
X46772352Y46258500D01*
X46567648Y46258500D01*
X46454833Y46240631D01*
X46385544Y46249585D01*
X46347760Y46275420D01*
X44302670Y48320511D01*
X44302667Y48320515D01*
X44295601Y48327581D01*
X44295600Y48327583D01*
X44197583Y48425600D01*
X44082327Y48502611D01*
X44082324Y48502612D01*
X44082323Y48502613D01*
X43954264Y48555656D01*
X43954262Y48555657D01*
X43909768Y48564507D01*
X43818310Y48582701D01*
X43818308Y48582701D01*
X43679692Y48582701D01*
X43673578Y48582701D01*
X43673558Y48582700D01*
X41687397Y48582700D01*
X41620358Y48602385D01*
X41574603Y48655189D01*
X41564659Y48724347D01*
X41588131Y48781011D01*
X41629793Y48836664D01*
X41629797Y48836671D01*
X41680091Y48971517D01*
X41681874Y48979062D01*
X41683645Y48978643D01*
X41706613Y49034101D01*
X41764004Y49073952D01*
X41803169Y49080300D01*
X45510581Y49080300D01*
X45577620Y49060615D01*
X45610900Y49029184D01*
X45678030Y48936784D01*
X45822786Y48792028D01*
X45988386Y48671715D01*
X46170776Y48578781D01*
X46365465Y48515522D01*
X46543329Y48487351D01*
X46567648Y48483500D01*
X46567649Y48483500D01*
X46772351Y48483500D01*
X46772352Y48483500D01*
X46799995Y48487878D01*
X46974534Y48515522D01*
X47169223Y48578781D01*
X47308566Y48649781D01*
X47351610Y48671713D01*
X47366844Y48682781D01*
X47517213Y48792028D01*
X47661971Y48936786D01*
X47782284Y49102386D01*
X47782287Y49102390D01*
X47844997Y49225465D01*
X47875218Y49284776D01*
X47938477Y49479465D01*
X47970500Y49681648D01*
X47970500Y49886351D01*
X47938477Y50088534D01*
X47910907Y50173385D01*
X47875220Y50283219D01*
X47782287Y50465610D01*
X47688754Y50594348D01*
X47661971Y50631213D01*
X47661968Y50631215D01*
X47661966Y50631219D01*
X47517219Y50775966D01*
X47517215Y50775968D01*
X47517213Y50775971D01*
X47444590Y50828732D01*
X47351610Y50896287D01*
X47169219Y50989220D01*
X46974534Y51052477D01*
X46772352Y51084500D01*
X46567648Y51084500D01*
X46495679Y51073101D01*
X46365465Y51052477D01*
X46316435Y51036546D01*
X46170781Y50989220D01*
X46170778Y50989218D01*
X46170776Y50989218D01*
X46104607Y50955503D01*
X45988390Y50896287D01*
X45988386Y50896284D01*
X45822786Y50775971D01*
X45678030Y50631215D01*
X45610900Y50538816D01*
X45555570Y50496149D01*
X45510581Y50487700D01*
X41810499Y50487700D01*
X41743460Y50507385D01*
X41697705Y50560189D01*
X41686499Y50611700D01*
X41686499Y50726870D01*
X41686499Y50726873D01*
X41680091Y50786483D01*
X41629796Y50921331D01*
X41543546Y51036546D01*
X41428331Y51122796D01*
X41293483Y51173091D01*
X41233873Y51179500D01*
X39538128Y51179499D01*
X39489757Y51174299D01*
X39478516Y51173091D01*
X39343671Y51122797D01*
X39343664Y51122793D01*
X39228455Y51036547D01*
X39228452Y51036544D01*
X39142206Y50921335D01*
X39142202Y50921328D01*
X39091908Y50786482D01*
X39086397Y50735220D01*
X39085501Y50726876D01*
X39085500Y50726864D01*
X32011619Y50726864D01*
X31995219Y50735220D01*
X31800534Y50798477D01*
X31652519Y50821920D01*
X31589388Y50851848D01*
X31552456Y50911159D01*
X31553454Y50981021D01*
X31584239Y51032073D01*
X33581022Y53028856D01*
X33581053Y53028885D01*
X33696315Y53144147D01*
X33696318Y53144151D01*
X33784444Y53276040D01*
X33784449Y53276049D01*
X33839346Y53408583D01*
X33845153Y53422603D01*
X33848154Y53437692D01*
X33876101Y53578185D01*
X33876101Y53736815D01*
X33876101Y53742928D01*
X33876100Y53742949D01*
X33876100Y56322300D01*
X33895785Y56389339D01*
X33948589Y56435094D01*
X34000100Y56446300D01*
X39581460Y56446300D01*
X39648499Y56426615D01*
X39694254Y56373811D01*
X39704198Y56304653D01*
X39675173Y56241097D01*
X39669141Y56234619D01*
X39526417Y56091895D01*
X39526417Y56091894D01*
X39406140Y55926349D01*
X39313244Y55744029D01*
X39250009Y55549413D01*
X39241391Y55495000D01*
X40202314Y55495000D01*
X40197920Y55490606D01*
X40145259Y55399394D01*
X40118000Y55297661D01*
X40118000Y55192339D01*
X40145259Y55090606D01*
X40197920Y54999394D01*
X40202314Y54995000D01*
X39241391Y54995000D01*
X39250009Y54940586D01*
X39313244Y54745970D01*
X39406140Y54563650D01*
X39526417Y54398105D01*
X39526417Y54398104D01*
X39671104Y54253417D01*
X39836650Y54133140D01*
X40018970Y54040244D01*
X40213586Y53977009D01*
X40268000Y53968390D01*
X40268000Y54929314D01*
X40272394Y54924920D01*
X40363606Y54872259D01*
X40465339Y54845000D01*
X40570661Y54845000D01*
X40672394Y54872259D01*
X40763606Y54924920D01*
X40768000Y54929314D01*
X40768000Y53968390D01*
X40822413Y53977009D01*
X41017029Y54040244D01*
X41199349Y54133140D01*
X41364894Y54253417D01*
X41364895Y54253417D01*
X41509582Y54398104D01*
X41509582Y54398105D01*
X41629859Y54563650D01*
X41722755Y54745970D01*
X41785990Y54940586D01*
X41794609Y54995000D01*
X40833686Y54995000D01*
X40838080Y54999394D01*
X40890741Y55090606D01*
X40918000Y55192339D01*
X40918000Y55297661D01*
X40890741Y55399394D01*
X40838080Y55490606D01*
X40833686Y55495000D01*
X41794609Y55495000D01*
X41785990Y55549413D01*
X41722755Y55744029D01*
X41629859Y55926349D01*
X41509582Y56091894D01*
X41509582Y56091895D01*
X41366859Y56234619D01*
X41333374Y56295942D01*
X41338358Y56365634D01*
X41380230Y56421567D01*
X41445694Y56445984D01*
X41454540Y56446300D01*
X48454163Y56446300D01*
X48521202Y56426615D01*
X48541844Y56409981D01*
X48682782Y56269042D01*
X48682786Y56269038D01*
X48848386Y56148725D01*
X49030776Y56055791D01*
X49225465Y55992532D01*
X49403329Y55964361D01*
X49427648Y55960510D01*
X49427649Y55960510D01*
X49632351Y55960510D01*
X49632352Y55960510D01*
X49659995Y55964888D01*
X49834534Y55992532D01*
X50029223Y56055791D01*
X50154653Y56119701D01*
X50211610Y56148723D01*
X50233700Y56164772D01*
X50377213Y56269038D01*
X50521971Y56413796D01*
X50642284Y56579396D01*
X50642287Y56579400D01*
X50689515Y56672090D01*
X50737490Y56722886D01*
X50805311Y56739681D01*
X50871446Y56717144D01*
X50910485Y56672090D01*
X50957715Y56579396D01*
X51078028Y56413796D01*
X51222786Y56269038D01*
X51388386Y56148725D01*
X51570776Y56055791D01*
X51765465Y55992532D01*
X51943329Y55964361D01*
X51967648Y55960510D01*
X51967649Y55960510D01*
X52172351Y55960510D01*
X52172352Y55960510D01*
X52199995Y55964888D01*
X52374534Y55992532D01*
X52569223Y56055791D01*
X52694653Y56119701D01*
X52751610Y56148723D01*
X52773700Y56164772D01*
X52917213Y56269038D01*
X53061971Y56413796D01*
X53182284Y56579396D01*
X53182287Y56579400D01*
X53229515Y56672090D01*
X53277490Y56722886D01*
X53345311Y56739681D01*
X53411446Y56717144D01*
X53450485Y56672090D01*
X53497715Y56579396D01*
X53618028Y56413796D01*
X53762782Y56269042D01*
X53762787Y56269038D01*
X53855185Y56201908D01*
X53897851Y56146579D01*
X53906300Y56101590D01*
X53906300Y52713313D01*
X53906299Y52713308D01*
X53906299Y52574692D01*
X53918018Y52515780D01*
X53919646Y52507593D01*
X53919647Y52507584D01*
X53933341Y52438743D01*
X53933344Y52438733D01*
X53986386Y52310676D01*
X54063400Y52195416D01*
X54112408Y52146408D01*
X54161417Y52097400D01*
X54161420Y52097397D01*
X56152575Y50106241D01*
X56186060Y50044918D01*
X56187367Y49999162D01*
X56169500Y49886357D01*
X56169500Y49681648D01*
X56201522Y49479465D01*
X56264781Y49284776D01*
X56357715Y49102386D01*
X56478028Y48936786D01*
X56622786Y48792028D01*
X56788386Y48671715D01*
X56970776Y48578781D01*
X57165465Y48515522D01*
X57343329Y48487351D01*
X57367648Y48483500D01*
X57367649Y48483500D01*
X57572351Y48483500D01*
X57572352Y48483500D01*
X57599995Y48487878D01*
X57774534Y48515522D01*
X57969223Y48578781D01*
X58108566Y48649781D01*
X58151610Y48671713D01*
X58166844Y48682781D01*
X58317213Y48792028D01*
X58461971Y48936786D01*
X58582284Y49102386D01*
X58582287Y49102390D01*
X58644997Y49225465D01*
X58675218Y49284776D01*
X58738477Y49479465D01*
X58770500Y49681648D01*
X58770500Y49886351D01*
X58738477Y50088534D01*
X58710907Y50173385D01*
X58675220Y50283219D01*
X58582287Y50465610D01*
X58488754Y50594348D01*
X58461971Y50631213D01*
X58461968Y50631215D01*
X58461966Y50631219D01*
X58317219Y50775966D01*
X58317215Y50775968D01*
X58317213Y50775971D01*
X58244590Y50828732D01*
X58151610Y50896287D01*
X57969219Y50989220D01*
X57774534Y51052477D01*
X57572352Y51084500D01*
X57367648Y51084500D01*
X57254833Y51066631D01*
X57185544Y51075585D01*
X57147760Y51101420D01*
X55350017Y52899164D01*
X55316534Y52960485D01*
X55313700Y52986843D01*
X55313700Y56101590D01*
X55333385Y56168629D01*
X55364815Y56201908D01*
X55457212Y56269038D01*
X55457217Y56269042D01*
X55601971Y56413796D01*
X55722284Y56579396D01*
X55722287Y56579400D01*
X55799218Y56730385D01*
X55815218Y56761786D01*
X55822173Y56783189D01*
X55849127Y56866147D01*
X55878477Y56956475D01*
X55910500Y57158658D01*
X55910500Y57363359D01*
X55910500Y57363362D01*
X55892631Y57476175D01*
X55901585Y57545464D01*
X55927423Y57583251D01*
X57849456Y59505284D01*
X57849487Y59505313D01*
X57950598Y59606424D01*
X57960260Y59620885D01*
X58027611Y59721683D01*
X58027612Y59721686D01*
X58027614Y59721689D01*
X58051565Y59779514D01*
X58051566Y59779515D01*
X58051566Y59779516D01*
X58054107Y59785650D01*
X58080658Y59849748D01*
X58107700Y59985697D01*
X58107701Y59985699D01*
X58107701Y60130432D01*
X58107700Y60130453D01*
X58107700Y61705580D01*
X58127385Y61772619D01*
X58158815Y61805898D01*
X58251212Y61873028D01*
X58251217Y61873032D01*
X58395971Y62017786D01*
X58516284Y62183386D01*
X58516287Y62183390D01*
X58603787Y62355118D01*
X58609218Y62365776D01*
X58672477Y62560465D01*
X58704500Y62762648D01*
X58704500Y62967351D01*
X58672477Y63169534D01*
X58640581Y63267700D01*
X58609220Y63364219D01*
X58516287Y63546610D01*
X58422072Y63676287D01*
X58395971Y63712213D01*
X58395968Y63712215D01*
X58395966Y63712219D01*
X58251219Y63856966D01*
X58251215Y63856968D01*
X58251213Y63856971D01*
X58175863Y63911715D01*
X58085610Y63977287D01*
X57903219Y64070220D01*
X57708534Y64133477D01*
X57506352Y64165500D01*
X57301648Y64165500D01*
X57200557Y64149488D01*
X57099465Y64133477D01*
X57009137Y64104127D01*
X56904781Y64070220D01*
X56904778Y64070218D01*
X56904776Y64070218D01*
X56838607Y64036503D01*
X56722390Y63977287D01*
X56722386Y63977284D01*
X56556786Y63856971D01*
X56412028Y63712213D01*
X56291715Y63546613D01*
X56198781Y63364223D01*
X56135522Y63169534D01*
X56103500Y62967351D01*
X56103500Y62762648D01*
X56135522Y62560465D01*
X56198781Y62365776D01*
X56291715Y62183386D01*
X56412028Y62017786D01*
X56556782Y61873032D01*
X56556787Y61873028D01*
X56649185Y61805898D01*
X56691851Y61750569D01*
X56700300Y61705580D01*
X56700300Y60397854D01*
X56680615Y60330815D01*
X56663981Y60310173D01*
X54932241Y58578433D01*
X54870918Y58544948D01*
X54825167Y58543641D01*
X54712352Y58561510D01*
X54507648Y58561510D01*
X54406557Y58545498D01*
X54305465Y58529487D01*
X54246076Y58510190D01*
X54110781Y58466230D01*
X54110778Y58466228D01*
X54110776Y58466228D01*
X54044607Y58432513D01*
X53928390Y58373297D01*
X53928386Y58373294D01*
X53762786Y58252981D01*
X53618028Y58108223D01*
X53497715Y57942624D01*
X53497713Y57942620D01*
X53456363Y57861465D01*
X53450485Y57849929D01*
X53402511Y57799133D01*
X53334690Y57782338D01*
X53268555Y57804875D01*
X53229515Y57849929D01*
X53182287Y57942620D01*
X53132166Y58011606D01*
X53061971Y58108223D01*
X53061968Y58108225D01*
X53061966Y58108229D01*
X52917219Y58252976D01*
X52896057Y58268351D01*
X52824815Y58320111D01*
X52782149Y58375440D01*
X52773700Y58420429D01*
X52773700Y68282085D01*
X52773701Y68282091D01*
X52773701Y68420708D01*
X52773700Y68420713D01*
X52773700Y68428351D01*
X56103500Y68428351D01*
X56103500Y68223648D01*
X56135522Y68021465D01*
X56198781Y67826776D01*
X56291715Y67644386D01*
X56412028Y67478786D01*
X56556786Y67334028D01*
X56722386Y67213715D01*
X56904776Y67120781D01*
X57099465Y67057522D01*
X57277329Y67029351D01*
X57301648Y67025500D01*
X57301649Y67025500D01*
X57506351Y67025500D01*
X57506352Y67025500D01*
X57533995Y67029878D01*
X57708534Y67057522D01*
X57903223Y67120781D01*
X58028653Y67184691D01*
X58085610Y67213713D01*
X58085613Y67213715D01*
X58251213Y67334028D01*
X58395971Y67478786D01*
X58516284Y67644386D01*
X58516287Y67644390D01*
X58582784Y67774898D01*
X58609218Y67826776D01*
X58617887Y67853454D01*
X58672477Y68021466D01*
X58704500Y68223648D01*
X58704500Y68428352D01*
X58672477Y68630534D01*
X58609220Y68825219D01*
X58516287Y69007610D01*
X58421164Y69138537D01*
X58395971Y69173213D01*
X58395968Y69173215D01*
X58395966Y69173219D01*
X58251219Y69317966D01*
X58251215Y69317968D01*
X58251213Y69317971D01*
X58178590Y69370732D01*
X58085610Y69438287D01*
X57903219Y69531220D01*
X57708534Y69594477D01*
X57506352Y69626500D01*
X57301648Y69626500D01*
X57200557Y69610488D01*
X57099465Y69594477D01*
X57009137Y69565127D01*
X56904781Y69531220D01*
X56904778Y69531218D01*
X56904776Y69531218D01*
X56838607Y69497503D01*
X56722390Y69438287D01*
X56722386Y69438284D01*
X56556786Y69317971D01*
X56412028Y69173213D01*
X56291715Y69007613D01*
X56198781Y68825223D01*
X56135522Y68630534D01*
X56103500Y68428351D01*
X52773700Y68428351D01*
X52773700Y74133555D01*
X52773701Y74133581D01*
X52773701Y74277310D01*
X52773700Y74277312D01*
X52770934Y74291218D01*
X52746658Y74413262D01*
X52695935Y74535713D01*
X52694292Y74540306D01*
X52693611Y74541323D01*
X52693611Y74541326D01*
X52693611Y74541327D01*
X52616600Y74656583D01*
X52518583Y74754600D01*
X52518581Y74754601D01*
X52511515Y74761667D01*
X52511511Y74761670D01*
X51522018Y75751162D01*
X51488535Y75812483D01*
X51487228Y75858234D01*
X51492500Y75891519D01*
X51492500Y76080481D01*
X51492500Y76080486D01*
X51462940Y76267118D01*
X51427063Y76377534D01*
X51404547Y76446832D01*
X51318760Y76615199D01*
X51207690Y76768073D01*
X51074073Y76901690D01*
X50921199Y77012760D01*
X50752832Y77098547D01*
X50573118Y77156940D01*
X50386486Y77186500D01*
X50386481Y77186500D01*
X50197519Y77186500D01*
X50197514Y77186500D01*
X50010881Y77156940D01*
X49945235Y77135610D01*
X49831168Y77098547D01*
X49831165Y77098545D01*
X49831163Y77098545D01*
X49765271Y77064971D01*
X49662801Y77012760D01*
X49509927Y76901690D01*
X49376310Y76768073D01*
X49324390Y76696611D01*
X49265240Y76615199D01*
X49179454Y76446836D01*
X49121059Y76267118D01*
X49091500Y76080486D01*
X49091500Y75891513D01*
X49121059Y75704881D01*
X49179454Y75525163D01*
X49265240Y75356800D01*
X49276202Y75341713D01*
X49376310Y75203927D01*
X49376312Y75203925D01*
X49376312Y75203924D01*
X49509924Y75070312D01*
X49662800Y74959240D01*
X49831163Y74873454D01*
X50010881Y74815059D01*
X50197514Y74785500D01*
X50197519Y74785500D01*
X50386485Y74785500D01*
X50419759Y74790770D01*
X50489053Y74781815D01*
X50526838Y74755978D01*
X51329981Y73952836D01*
X51363466Y73891513D01*
X51366300Y73865155D01*
X51366300Y69153700D01*
X51346615Y69086661D01*
X51293811Y69040906D01*
X51242300Y69029700D01*
X47763419Y69029700D01*
X47696380Y69049385D01*
X47663100Y69080816D01*
X47658853Y69086661D01*
X47595966Y69173219D01*
X47451219Y69317966D01*
X47451215Y69317968D01*
X47451213Y69317971D01*
X47378590Y69370732D01*
X47285610Y69438287D01*
X47103219Y69531220D01*
X46908534Y69594477D01*
X46706352Y69626500D01*
X46501648Y69626500D01*
X46400557Y69610488D01*
X46299465Y69594477D01*
X46209137Y69565127D01*
X46104781Y69531220D01*
X46104778Y69531218D01*
X46104776Y69531218D01*
X46038607Y69497503D01*
X45922390Y69438287D01*
X45922386Y69438284D01*
X45756786Y69317971D01*
X45612028Y69173213D01*
X45491715Y69007613D01*
X45398781Y68825223D01*
X45335522Y68630534D01*
X45303500Y68428351D01*
X45303500Y68223648D01*
X45335522Y68021465D01*
X45398781Y67826776D01*
X45491715Y67644386D01*
X45612028Y67478786D01*
X45756786Y67334028D01*
X45922386Y67213715D01*
X46104776Y67120781D01*
X46299465Y67057522D01*
X46477329Y67029351D01*
X46501648Y67025500D01*
X46501649Y67025500D01*
X46706351Y67025500D01*
X46706352Y67025500D01*
X46733995Y67029878D01*
X46908534Y67057522D01*
X47103223Y67120781D01*
X47228653Y67184691D01*
X47285610Y67213713D01*
X47285613Y67213715D01*
X47451213Y67334028D01*
X47595969Y67478784D01*
X47647572Y67549811D01*
X47663100Y67571184D01*
X47718430Y67613851D01*
X47763419Y67622300D01*
X51242300Y67622300D01*
X51309339Y67602615D01*
X51355094Y67549811D01*
X51366300Y67498300D01*
X51366300Y58420429D01*
X51346615Y58353390D01*
X51315185Y58320111D01*
X51222784Y58252979D01*
X51078028Y58108223D01*
X50957715Y57942624D01*
X50957713Y57942620D01*
X50916363Y57861465D01*
X50910485Y57849929D01*
X50862511Y57799133D01*
X50794690Y57782338D01*
X50728555Y57804875D01*
X50689515Y57849929D01*
X50642287Y57942620D01*
X50592166Y58011606D01*
X50521971Y58108223D01*
X50521968Y58108225D01*
X50521966Y58108229D01*
X50377219Y58252976D01*
X50377215Y58252979D01*
X50377213Y58252981D01*
X50284425Y58320394D01*
X50211610Y58373297D01*
X50029219Y58466230D01*
X49834534Y58529487D01*
X49632352Y58561510D01*
X49427648Y58561510D01*
X49326557Y58545498D01*
X49225465Y58529487D01*
X49166076Y58510190D01*
X49030781Y58466230D01*
X49030778Y58466228D01*
X49030776Y58466228D01*
X48964607Y58432513D01*
X48848390Y58373297D01*
X48848386Y58373294D01*
X48682786Y58252981D01*
X48538035Y58108230D01*
X48537876Y58108011D01*
X48537794Y58107947D01*
X48534868Y58104522D01*
X48534148Y58105136D01*
X48482544Y58065347D01*
X48437560Y58056900D01*
X32991484Y58056900D01*
X32991480Y58056899D01*
X32835910Y58025955D01*
X32835905Y58025953D01*
X32835903Y58025953D01*
X32835901Y58025952D01*
X32689353Y57965251D01*
X32689340Y57965244D01*
X32557451Y57877118D01*
X32557447Y57877115D01*
X32445284Y57764952D01*
X32445281Y57764948D01*
X32357155Y57633059D01*
X32357148Y57633046D01*
X32296447Y57486498D01*
X32296444Y57486489D01*
X32265500Y57330919D01*
X32265500Y54042428D01*
X32245815Y53975389D01*
X32229181Y53954747D01*
X29141252Y50866818D01*
X29079929Y50833333D01*
X29053571Y50830499D01*
X28492980Y50830499D01*
X28414355Y50824312D01*
X28231512Y50775320D01*
X28152811Y50735220D01*
X28062853Y50689385D01*
X28022311Y50656554D01*
X27915743Y50570257D01*
X27796617Y50423149D01*
X27796616Y50423147D01*
X27786353Y50403005D01*
X27738379Y50352209D01*
X27675868Y50335300D01*
X24362528Y50335300D01*
X24295489Y50354985D01*
X24274847Y50371619D01*
X23919583Y50726883D01*
X22832187Y51814277D01*
X22832185Y51814281D01*
X22825118Y51821348D01*
X22825118Y51821349D01*
X22712949Y51933518D01*
X22581053Y52021648D01*
X22434497Y52082353D01*
X22358848Y52097401D01*
X22278917Y52113301D01*
X22278915Y52113301D01*
X22120285Y52113301D01*
X22114171Y52113301D01*
X22114151Y52113300D01*
X6651684Y52113300D01*
X6651680Y52113299D01*
X6496110Y52082355D01*
X6496105Y52082353D01*
X6496103Y52082353D01*
X6459464Y52067176D01*
X6349553Y52021651D01*
X6349540Y52021644D01*
X6217651Y51933518D01*
X6217647Y51933515D01*
X6105484Y51821352D01*
X6105481Y51821348D01*
X6017355Y51689459D01*
X6017348Y51689446D01*
X5956647Y51542898D01*
X5956644Y51542889D01*
X5925700Y51387319D01*
X4574700Y51387319D01*
X4574700Y52561580D01*
X4594385Y52628619D01*
X4625815Y52661898D01*
X4718212Y52729028D01*
X4718217Y52729032D01*
X4862971Y52873786D01*
X4983284Y53039386D01*
X4983287Y53039390D01*
X5072344Y53214173D01*
X5076218Y53221776D01*
X5139477Y53416465D01*
X5171500Y53618648D01*
X5171500Y53823349D01*
X5170728Y53828224D01*
X5153631Y53936165D01*
X5162585Y54005454D01*
X5188423Y54043241D01*
X9716456Y58571274D01*
X9716487Y58571303D01*
X9817598Y58672414D01*
X9894613Y58787676D01*
X9947655Y58915733D01*
X9947657Y58915738D01*
X9970762Y59031894D01*
X9974700Y59051691D01*
X9974700Y59190308D01*
X9974700Y64118580D01*
X9994385Y64185619D01*
X10025815Y64218898D01*
X10118212Y64286028D01*
X10118217Y64286032D01*
X10262971Y64430786D01*
X10383284Y64596386D01*
X10383287Y64596390D01*
X10430515Y64689080D01*
X10478490Y64739876D01*
X10546311Y64756671D01*
X10612446Y64734134D01*
X10651485Y64689080D01*
X10698715Y64596386D01*
X10819028Y64430786D01*
X10963786Y64286028D01*
X11129386Y64165715D01*
X11311776Y64072781D01*
X11506465Y64009522D01*
X11684329Y63981351D01*
X11708648Y63977500D01*
X11708649Y63977500D01*
X11913351Y63977500D01*
X11913352Y63977500D01*
X12081870Y64004191D01*
X12115535Y64009523D01*
X12115538Y64009523D01*
X12192226Y64034441D01*
X12262067Y64036436D01*
X12318225Y64004191D01*
X13930981Y62391436D01*
X13964466Y62330113D01*
X13967300Y62303755D01*
X13967300Y59325419D01*
X13947615Y59258380D01*
X13916185Y59225101D01*
X13823784Y59157969D01*
X13679028Y59013213D01*
X13558715Y58847613D01*
X13465781Y58665223D01*
X13402522Y58470534D01*
X13370500Y58268351D01*
X13370500Y58063648D01*
X13402522Y57861465D01*
X13465781Y57666776D01*
X13558715Y57484386D01*
X13679028Y57318786D01*
X13823786Y57174028D01*
X13989386Y57053715D01*
X14171776Y56960781D01*
X14366465Y56897522D01*
X14544329Y56869351D01*
X14568648Y56865500D01*
X14568649Y56865500D01*
X14773351Y56865500D01*
X14773352Y56865500D01*
X14800995Y56869878D01*
X14975534Y56897522D01*
X15170223Y56960781D01*
X15295653Y57024691D01*
X15352610Y57053713D01*
X15353198Y57054140D01*
X15518213Y57174028D01*
X15662971Y57318786D01*
X15783284Y57484386D01*
X15783287Y57484390D01*
X15859038Y57633059D01*
X15876218Y57666776D01*
X15939477Y57861465D01*
X15971500Y58063648D01*
X15971500Y58268351D01*
X15954878Y58373294D01*
X15939477Y58470534D01*
X15876220Y58665219D01*
X15783287Y58847610D01*
X15715732Y58940590D01*
X15662971Y59013213D01*
X15662968Y59013215D01*
X15662966Y59013219D01*
X15518219Y59157966D01*
X15518215Y59157969D01*
X15425815Y59225101D01*
X15383149Y59280430D01*
X15374700Y59325419D01*
X15374700Y61736300D01*
X15394385Y61803339D01*
X15447189Y61849094D01*
X15498700Y61860300D01*
X16493581Y61860300D01*
X16560620Y61840615D01*
X16593900Y61809184D01*
X16661030Y61716784D01*
X16805786Y61572028D01*
X16971386Y61451715D01*
X17153776Y61358781D01*
X17348465Y61295522D01*
X17526329Y61267351D01*
X17550648Y61263500D01*
X17550649Y61263500D01*
X17755351Y61263500D01*
X17755352Y61263500D01*
X17782995Y61267878D01*
X17957534Y61295522D01*
X18152223Y61358781D01*
X18277653Y61422691D01*
X18334610Y61451713D01*
X18334613Y61451715D01*
X18500213Y61572028D01*
X18644971Y61716786D01*
X18765284Y61882386D01*
X18765287Y61882390D01*
X18834437Y62018104D01*
X18858218Y62064776D01*
X18921477Y62259465D01*
X18953500Y62461648D01*
X18953500Y62666351D01*
X18921477Y62868534D01*
X18858220Y63063219D01*
X18765287Y63245610D01*
X18679113Y63364219D01*
X18644971Y63411213D01*
X18644968Y63411215D01*
X18644966Y63411219D01*
X18500219Y63555966D01*
X18500215Y63555968D01*
X18500213Y63555971D01*
X18427590Y63608732D01*
X18334610Y63676287D01*
X18152219Y63769220D01*
X17957534Y63832477D01*
X17755352Y63864500D01*
X17550648Y63864500D01*
X17503113Y63856971D01*
X17348465Y63832477D01*
X17258137Y63803127D01*
X17153781Y63769220D01*
X17153778Y63769218D01*
X17153776Y63769218D01*
X17126899Y63755523D01*
X16971390Y63676287D01*
X16971386Y63676284D01*
X16805786Y63555971D01*
X16661030Y63411215D01*
X16593900Y63318816D01*
X16538570Y63276149D01*
X16493581Y63267700D01*
X15096445Y63267700D01*
X15029406Y63287385D01*
X15008764Y63304019D01*
X13147819Y65164963D01*
X13114334Y65226286D01*
X13111500Y65252644D01*
X13111500Y65380351D01*
X13081367Y65570598D01*
X13079477Y65582534D01*
X13016220Y65777219D01*
X12923287Y65959610D01*
X12855732Y66052590D01*
X12802971Y66125213D01*
X12802968Y66125215D01*
X12802966Y66125219D01*
X12658219Y66269966D01*
X12658215Y66269968D01*
X12658213Y66269971D01*
X12583159Y66324500D01*
X12492610Y66390287D01*
X12310219Y66483220D01*
X12115534Y66546477D01*
X11913352Y66578500D01*
X11708648Y66578500D01*
X11607557Y66562488D01*
X11506465Y66546477D01*
X11416137Y66517127D01*
X11311781Y66483220D01*
X11311778Y66483218D01*
X11311776Y66483218D01*
X11249949Y66451715D01*
X11129390Y66390287D01*
X11129386Y66390284D01*
X10963786Y66269971D01*
X10819028Y66125213D01*
X10698715Y65959614D01*
X10698713Y65959610D01*
X10651921Y65867774D01*
X10651485Y65866919D01*
X10603511Y65816123D01*
X10535690Y65799328D01*
X10469555Y65821865D01*
X10430515Y65866919D01*
X10383287Y65959610D01*
X10342339Y66015971D01*
X10262971Y66125213D01*
X10262968Y66125215D01*
X10262966Y66125219D01*
X10118219Y66269966D01*
X10118215Y66269968D01*
X10118213Y66269971D01*
X10043159Y66324500D01*
X9952610Y66390287D01*
X9770219Y66483220D01*
X9575534Y66546477D01*
X9373352Y66578500D01*
X9168648Y66578500D01*
X9067557Y66562488D01*
X8966465Y66546477D01*
X8876137Y66517127D01*
X8771781Y66483220D01*
X8771778Y66483218D01*
X8771776Y66483218D01*
X8709949Y66451715D01*
X8589390Y66390287D01*
X8589386Y66390284D01*
X8423786Y66269971D01*
X8279028Y66125213D01*
X8158715Y65959614D01*
X8158713Y65959610D01*
X8111921Y65867774D01*
X8111485Y65866919D01*
X8063511Y65816123D01*
X7995690Y65799328D01*
X7929555Y65821865D01*
X7890515Y65866919D01*
X7843287Y65959610D01*
X7802339Y66015971D01*
X7722971Y66125213D01*
X7722968Y66125215D01*
X7722966Y66125219D01*
X7578219Y66269966D01*
X7578215Y66269968D01*
X7578213Y66269971D01*
X7503159Y66324500D01*
X7412610Y66390287D01*
X7230219Y66483220D01*
X7035534Y66546477D01*
X6833352Y66578500D01*
X6628648Y66578500D01*
X6527557Y66562488D01*
X6426465Y66546477D01*
X6336137Y66517127D01*
X6231781Y66483220D01*
X6231778Y66483218D01*
X6231776Y66483218D01*
X6169949Y66451715D01*
X6049390Y66390287D01*
X6049386Y66390284D01*
X5883786Y66269971D01*
X5739028Y66125213D01*
X5618715Y65959613D01*
X5525781Y65777223D01*
X5462522Y65582534D01*
X5430500Y65380351D01*
X5430500Y65175648D01*
X5462522Y64973465D01*
X5525781Y64778776D01*
X5618715Y64596386D01*
X5739028Y64430786D01*
X5883786Y64286028D01*
X6049386Y64165715D01*
X6231776Y64072781D01*
X6426465Y64009522D01*
X6604329Y63981351D01*
X6628648Y63977500D01*
X6628649Y63977500D01*
X6833351Y63977500D01*
X6833352Y63977500D01*
X6860995Y63981878D01*
X7035534Y64009522D01*
X7230223Y64072781D01*
X7374335Y64146211D01*
X7412610Y64165713D01*
X7422085Y64172597D01*
X7578213Y64286028D01*
X7722971Y64430786D01*
X7843284Y64596386D01*
X7843287Y64596390D01*
X7890515Y64689080D01*
X7938490Y64739876D01*
X8006311Y64756671D01*
X8072446Y64734134D01*
X8111485Y64689080D01*
X8158715Y64596386D01*
X8279028Y64430786D01*
X8423782Y64286032D01*
X8423787Y64286028D01*
X8516185Y64218898D01*
X8558851Y64163569D01*
X8567300Y64118580D01*
X8567300Y59463844D01*
X8547615Y59396805D01*
X8530981Y59376163D01*
X4193241Y55038423D01*
X4131918Y55004938D01*
X4086167Y55003631D01*
X3973352Y55021500D01*
X3768648Y55021500D01*
X3725488Y55014664D01*
X3566465Y54989477D01*
X3477416Y54960543D01*
X3371781Y54926220D01*
X3371778Y54926218D01*
X3371776Y54926218D01*
X3364984Y54922757D01*
X3189390Y54833287D01*
X3189386Y54833284D01*
X3023786Y54712971D01*
X2879028Y54568213D01*
X2801008Y54460825D01*
X2758713Y54402610D01*
X2729691Y54345653D01*
X2665781Y54220223D01*
X2602522Y54025534D01*
X2570500Y53823351D01*
X635500Y53823351D01*
X635500Y58416000D01*
X2594391Y58416000D01*
X3555314Y58416000D01*
X3550920Y58411606D01*
X3498259Y58320394D01*
X3471000Y58218661D01*
X3471000Y58113339D01*
X3498259Y58011606D01*
X3550920Y57920394D01*
X3555314Y57916000D01*
X2594391Y57916000D01*
X2603009Y57861586D01*
X2666244Y57666970D01*
X2759140Y57484650D01*
X2879417Y57319105D01*
X2879417Y57319104D01*
X3024104Y57174417D01*
X3189650Y57054140D01*
X3371970Y56961244D01*
X3566586Y56898009D01*
X3621000Y56889390D01*
X3621000Y57850314D01*
X3625394Y57845920D01*
X3716606Y57793259D01*
X3818339Y57766000D01*
X3923661Y57766000D01*
X4025394Y57793259D01*
X4116606Y57845920D01*
X4121000Y57850314D01*
X4121000Y56889390D01*
X4175413Y56898009D01*
X4370029Y56961244D01*
X4552349Y57054140D01*
X4717894Y57174417D01*
X4717895Y57174417D01*
X4862582Y57319104D01*
X4862582Y57319105D01*
X4982859Y57484650D01*
X5075755Y57666970D01*
X5138990Y57861586D01*
X5147609Y57916000D01*
X4186686Y57916000D01*
X4191080Y57920394D01*
X4243741Y58011606D01*
X4271000Y58113339D01*
X4271000Y58218661D01*
X4243741Y58320394D01*
X4191080Y58411606D01*
X4186686Y58416000D01*
X5147609Y58416000D01*
X5138990Y58470413D01*
X5075755Y58665029D01*
X4982859Y58847349D01*
X4862582Y59012894D01*
X4862582Y59012895D01*
X4717895Y59157582D01*
X4552349Y59277859D01*
X4370031Y59370754D01*
X4175421Y59433988D01*
X4121000Y59442606D01*
X4121000Y58481686D01*
X4116606Y58486080D01*
X4025394Y58538741D01*
X3923661Y58566000D01*
X3818339Y58566000D01*
X3716606Y58538741D01*
X3625394Y58486080D01*
X3621000Y58481686D01*
X3621000Y59442607D01*
X3566578Y59433988D01*
X3371968Y59370754D01*
X3189650Y59277859D01*
X3024105Y59157582D01*
X3024104Y59157582D01*
X2879417Y59012895D01*
X2879417Y59012894D01*
X2759140Y58847349D01*
X2666244Y58665029D01*
X2603009Y58470413D01*
X2594391Y58416000D01*
X635500Y58416000D01*
X635500Y71857351D01*
X2570500Y71857351D01*
X2570500Y71652648D01*
X2602522Y71450465D01*
X2665781Y71255776D01*
X2758715Y71073386D01*
X2879028Y70907786D01*
X3023786Y70763028D01*
X3189386Y70642715D01*
X3371776Y70549781D01*
X3566465Y70486522D01*
X3744329Y70458351D01*
X3768648Y70454500D01*
X3768649Y70454500D01*
X3973351Y70454500D01*
X3973352Y70454500D01*
X4000995Y70458878D01*
X4175534Y70486522D01*
X4370223Y70549781D01*
X4495653Y70613691D01*
X4552610Y70642713D01*
X4552613Y70642715D01*
X4718213Y70763028D01*
X4866411Y70911226D01*
X4867547Y70910089D01*
X4920164Y70944429D01*
X4955933Y70949700D01*
X8987672Y70949700D01*
X9054711Y70930015D01*
X9075352Y70913381D01*
X15478079Y64510654D01*
X15478082Y64510651D01*
X15534167Y64454565D01*
X15590252Y64398480D01*
X15722141Y64310355D01*
X15722151Y64310350D01*
X15818076Y64270617D01*
X15818075Y64270616D01*
X15868697Y64249648D01*
X15868709Y64249645D01*
X16024279Y64218700D01*
X16024284Y64218700D01*
X16024285Y64218700D01*
X19720900Y64218700D01*
X19787939Y64199015D01*
X19833694Y64146211D01*
X19844900Y64094700D01*
X19844900Y60085128D01*
X19825215Y60018089D01*
X19808581Y59997447D01*
X14868730Y55057596D01*
X14807407Y55024111D01*
X14778224Y55022132D01*
X14778224Y55021500D01*
X14773352Y55021500D01*
X14568648Y55021500D01*
X14525488Y55014664D01*
X14366465Y54989477D01*
X14277416Y54960543D01*
X14171781Y54926220D01*
X14171778Y54926218D01*
X14171776Y54926218D01*
X14164984Y54922757D01*
X13989390Y54833287D01*
X13989386Y54833284D01*
X13823786Y54712971D01*
X13679028Y54568213D01*
X13601008Y54460825D01*
X13558713Y54402610D01*
X13529691Y54345653D01*
X13465781Y54220223D01*
X13402522Y54025534D01*
X13370500Y53823351D01*
X13370500Y53618648D01*
X13402522Y53416465D01*
X13465781Y53221776D01*
X13558715Y53039386D01*
X13679028Y52873786D01*
X13823786Y52729028D01*
X13989386Y52608715D01*
X14171776Y52515781D01*
X14366465Y52452522D01*
X14544329Y52424351D01*
X14568648Y52420500D01*
X14568649Y52420500D01*
X14773351Y52420500D01*
X14773352Y52420500D01*
X14800995Y52424878D01*
X14975534Y52452522D01*
X15170223Y52515781D01*
X15295653Y52579691D01*
X15352610Y52608713D01*
X15374700Y52624762D01*
X15518213Y52729028D01*
X15662971Y52873786D01*
X15783284Y53039386D01*
X15783287Y53039390D01*
X15872344Y53214173D01*
X15876218Y53221776D01*
X15939477Y53416465D01*
X15971500Y53618648D01*
X15971500Y53828224D01*
X15973117Y53828224D01*
X15986010Y53889672D01*
X16007596Y53918730D01*
X18893730Y56804864D01*
X22244500Y56804864D01*
X22244500Y55209129D01*
X22244501Y55209123D01*
X22250908Y55149516D01*
X22301202Y55014671D01*
X22301206Y55014664D01*
X22387452Y54899455D01*
X22387455Y54899452D01*
X22502664Y54813206D01*
X22502671Y54813202D01*
X22637517Y54762908D01*
X22637516Y54762908D01*
X22697116Y54756501D01*
X22697119Y54756500D01*
X22697127Y54756500D01*
X22705678Y54756500D01*
X22772717Y54736815D01*
X22818472Y54684011D01*
X22828416Y54614853D01*
X22799391Y54551297D01*
X22778564Y54532182D01*
X22680354Y54460828D01*
X22541172Y54321646D01*
X22467481Y54220219D01*
X22425476Y54162405D01*
X22336117Y53987029D01*
X22275290Y53799826D01*
X22244500Y53605422D01*
X22244500Y53408577D01*
X22275290Y53214173D01*
X22336117Y53026970D01*
X22425476Y52851594D01*
X22460565Y52803299D01*
X22541172Y52692354D01*
X22541174Y52692352D01*
X22541174Y52692351D01*
X22680351Y52553174D01*
X22839594Y52437476D01*
X23014970Y52348117D01*
X23202173Y52287290D01*
X23396578Y52256500D01*
X23396583Y52256500D01*
X23593422Y52256500D01*
X23787826Y52287290D01*
X23975029Y52348117D01*
X24150405Y52437476D01*
X24171115Y52452523D01*
X24309646Y52553172D01*
X24448828Y52692354D01*
X24492299Y52752186D01*
X24547628Y52794851D01*
X24592616Y52803300D01*
X27904558Y52803300D01*
X27904578Y52803299D01*
X27910692Y52803299D01*
X28049310Y52803299D01*
X28185256Y52830341D01*
X28185264Y52830343D01*
X28313323Y52883386D01*
X28428585Y52960401D01*
X28530920Y53062736D01*
X28530940Y53062758D01*
X29395757Y53927575D01*
X29457080Y53961060D01*
X29502836Y53962367D01*
X29615643Y53944500D01*
X29615648Y53944500D01*
X29820351Y53944500D01*
X29820352Y53944500D01*
X29847995Y53948878D01*
X30022534Y53976522D01*
X30217223Y54039781D01*
X30342653Y54103691D01*
X30399610Y54132713D01*
X30400198Y54133140D01*
X30565213Y54253028D01*
X30709971Y54397786D01*
X30830284Y54563386D01*
X30830287Y54563390D01*
X30906500Y54712966D01*
X30923218Y54745776D01*
X30925656Y54753277D01*
X30973151Y54899452D01*
X30986477Y54940465D01*
X31018500Y55142648D01*
X31018500Y55347351D01*
X31000594Y55460401D01*
X30986477Y55549534D01*
X30923220Y55744219D01*
X30830287Y55926610D01*
X30736433Y56055790D01*
X30709971Y56092213D01*
X30709968Y56092215D01*
X30709966Y56092219D01*
X30565219Y56236966D01*
X30565215Y56236968D01*
X30565213Y56236971D01*
X30472055Y56304653D01*
X30399610Y56357287D01*
X30217219Y56450220D01*
X30022534Y56513477D01*
X29820352Y56545500D01*
X29615648Y56545500D01*
X29514557Y56529488D01*
X29413465Y56513477D01*
X29323137Y56484127D01*
X29218781Y56450220D01*
X29218778Y56450218D01*
X29218776Y56450218D01*
X29162546Y56421567D01*
X29036390Y56357287D01*
X29036386Y56357284D01*
X28870786Y56236971D01*
X28726028Y56092213D01*
X28605715Y55926613D01*
X28512781Y55744223D01*
X28449522Y55549534D01*
X28417500Y55347351D01*
X28417500Y55142642D01*
X28435367Y55029836D01*
X28426413Y54960543D01*
X28400575Y54922757D01*
X27724837Y54247019D01*
X27663514Y54213534D01*
X27637156Y54210700D01*
X24592616Y54210700D01*
X24525577Y54230385D01*
X24492298Y54261814D01*
X24448828Y54321646D01*
X24309646Y54460828D01*
X24211433Y54532183D01*
X24168769Y54587511D01*
X24162790Y54657125D01*
X24195395Y54718920D01*
X24256234Y54753277D01*
X24284310Y54756500D01*
X24292864Y54756500D01*
X24292876Y54756501D01*
X24352483Y54762908D01*
X24487328Y54813202D01*
X24487335Y54813206D01*
X24602544Y54899452D01*
X24602547Y54899455D01*
X24688793Y55014664D01*
X24688797Y55014671D01*
X24705561Y55059618D01*
X24739091Y55149517D01*
X24743718Y55192557D01*
X24770455Y55257106D01*
X24827847Y55296954D01*
X24867007Y55303300D01*
X25957558Y55303300D01*
X25957578Y55303299D01*
X25963692Y55303299D01*
X26102310Y55303299D01*
X26238256Y55330341D01*
X26238264Y55330343D01*
X26366323Y55383386D01*
X26481585Y55460401D01*
X26583920Y55562736D01*
X26583940Y55562758D01*
X29531372Y58510190D01*
X29592695Y58543675D01*
X29658900Y58539932D01*
X29662103Y58538844D01*
X29834102Y58492758D01*
X29883762Y58479452D01*
X29883770Y58479451D01*
X30111258Y58449500D01*
X30111266Y58449500D01*
X30340741Y58449500D01*
X30530215Y58474446D01*
X30568238Y58479452D01*
X30789887Y58538842D01*
X30789892Y58538844D01*
X31001876Y58626650D01*
X31001890Y58626657D01*
X31200617Y58741392D01*
X31382661Y58881081D01*
X31382670Y58881089D01*
X31544911Y59043330D01*
X31544918Y59043338D01*
X31684607Y59225382D01*
X31684608Y59225385D01*
X31684611Y59225388D01*
X31799344Y59424112D01*
X31807005Y59442606D01*
X31856911Y59563090D01*
X31887158Y59636113D01*
X31946548Y59857762D01*
X31976500Y60085266D01*
X31976500Y60314734D01*
X31946548Y60542238D01*
X31887158Y60763887D01*
X31799344Y60975888D01*
X31684611Y61174612D01*
X31544919Y61356661D01*
X31544914Y61356665D01*
X31544911Y61356670D01*
X31382670Y61518911D01*
X31382665Y61518914D01*
X31382661Y61518919D01*
X31200612Y61658611D01*
X31001888Y61773344D01*
X30789887Y61861158D01*
X30568238Y61920548D01*
X30340734Y61950500D01*
X30111266Y61950500D01*
X29883762Y61920548D01*
X29662113Y61861158D01*
X29541480Y61811190D01*
X29450123Y61773349D01*
X29450117Y61773346D01*
X29450112Y61773344D01*
X29251388Y61658611D01*
X29251385Y61658608D01*
X29251382Y61658607D01*
X29069338Y61518918D01*
X29069330Y61518911D01*
X28907089Y61356670D01*
X28907081Y61356661D01*
X28767392Y61174617D01*
X28652657Y60975890D01*
X28652650Y60975876D01*
X28618996Y60894627D01*
X28564842Y60763887D01*
X28505452Y60542238D01*
X28505451Y60542229D01*
X28475500Y60314741D01*
X28475500Y60085258D01*
X28505451Y59857770D01*
X28505453Y59857759D01*
X28564844Y59636103D01*
X28565932Y59632900D01*
X28568835Y59563090D01*
X28536190Y59505372D01*
X25777837Y56747019D01*
X25716514Y56713534D01*
X25690156Y56710700D01*
X24867007Y56710700D01*
X24799968Y56730385D01*
X24754213Y56783189D01*
X24743717Y56821448D01*
X24739091Y56864483D01*
X24704780Y56956476D01*
X24688796Y56999331D01*
X24602546Y57114546D01*
X24487331Y57200796D01*
X24352483Y57251091D01*
X24292873Y57257500D01*
X22697128Y57257499D01*
X22648757Y57252299D01*
X22637516Y57251091D01*
X22502671Y57200797D01*
X22502664Y57200793D01*
X22387455Y57114547D01*
X22387452Y57114544D01*
X22301206Y56999335D01*
X22301202Y56999328D01*
X22250908Y56864482D01*
X22244501Y56804883D01*
X22244500Y56804864D01*
X18893730Y56804864D01*
X21160422Y59071556D01*
X21160453Y59071585D01*
X21275715Y59186847D01*
X21275718Y59186851D01*
X21363844Y59318740D01*
X21363851Y59318753D01*
X21385583Y59371219D01*
X21385583Y59371220D01*
X21396181Y59396805D01*
X21424554Y59465303D01*
X21455501Y59620885D01*
X21455501Y59779516D01*
X21455501Y59785629D01*
X21455500Y59785650D01*
X21455500Y60314741D01*
X23475500Y60314741D01*
X23475500Y60085258D01*
X23505451Y59857770D01*
X23505453Y59857759D01*
X23564842Y59636112D01*
X23652650Y59424123D01*
X23652657Y59424109D01*
X23767392Y59225382D01*
X23907081Y59043338D01*
X24069338Y58881081D01*
X24251382Y58741392D01*
X24450109Y58626657D01*
X24450123Y58626650D01*
X24662112Y58538842D01*
X24769045Y58510190D01*
X24883762Y58479452D01*
X24883770Y58479451D01*
X25111258Y58449500D01*
X25111266Y58449500D01*
X25340741Y58449500D01*
X25530215Y58474446D01*
X25568238Y58479452D01*
X25789887Y58538842D01*
X25789892Y58538844D01*
X26001876Y58626650D01*
X26001890Y58626657D01*
X26200617Y58741392D01*
X26382661Y58881081D01*
X26382670Y58881089D01*
X26544911Y59043330D01*
X26544918Y59043338D01*
X26684607Y59225382D01*
X26684608Y59225385D01*
X26684611Y59225388D01*
X26799344Y59424112D01*
X26807005Y59442606D01*
X26856911Y59563090D01*
X26887158Y59636113D01*
X26946548Y59857762D01*
X26976500Y60085266D01*
X26976500Y60314734D01*
X26946548Y60542238D01*
X26887158Y60763887D01*
X26887152Y60763901D01*
X26886075Y60767074D01*
X26883158Y60836883D01*
X26915809Y60894627D01*
X30305163Y64283981D01*
X30366486Y64317466D01*
X30392844Y64320300D01*
X34466581Y64320300D01*
X34533620Y64300615D01*
X34566900Y64269184D01*
X34634030Y64176784D01*
X34778786Y64032028D01*
X34944386Y63911715D01*
X35126776Y63818781D01*
X35321465Y63755522D01*
X35499329Y63727351D01*
X35523648Y63723500D01*
X35523649Y63723500D01*
X35728351Y63723500D01*
X35728352Y63723500D01*
X35755995Y63727878D01*
X35930534Y63755522D01*
X36125223Y63818781D01*
X36250653Y63882691D01*
X36307610Y63911713D01*
X36307613Y63911715D01*
X36473213Y64032028D01*
X36617971Y64176786D01*
X36738284Y64342386D01*
X36738287Y64342390D01*
X36797503Y64458607D01*
X36831218Y64524776D01*
X36847673Y64575417D01*
X36894477Y64719466D01*
X36926500Y64921648D01*
X36926500Y65126352D01*
X36894477Y65328534D01*
X36831220Y65523219D01*
X36738287Y65705610D01*
X36657995Y65816123D01*
X36617971Y65871213D01*
X36617968Y65871215D01*
X36617966Y65871219D01*
X36473219Y66015966D01*
X36473212Y66015971D01*
X36380815Y66083101D01*
X36377474Y66087432D01*
X36372497Y66089706D01*
X36356366Y66114805D01*
X36338149Y66138430D01*
X36336895Y66145103D01*
X36334723Y66148484D01*
X36329700Y66183419D01*
X36329700Y67674580D01*
X36349385Y67741619D01*
X36380815Y67774898D01*
X36473212Y67842028D01*
X36473217Y67842032D01*
X36617969Y67986784D01*
X36685100Y68079184D01*
X36740430Y68121851D01*
X36785419Y68130300D01*
X39172824Y68130300D01*
X39239863Y68110615D01*
X39285618Y68057811D01*
X39289006Y68049633D01*
X39319202Y67968671D01*
X39319206Y67968664D01*
X39405452Y67853455D01*
X39405455Y67853452D01*
X39520664Y67767206D01*
X39520671Y67767202D01*
X39655517Y67716908D01*
X39655516Y67716908D01*
X39715116Y67710501D01*
X39715119Y67710500D01*
X39715127Y67710500D01*
X39715135Y67710500D01*
X39715136Y67710500D01*
X39724530Y67710500D01*
X39791569Y67690815D01*
X39837324Y67638011D01*
X39847268Y67568853D01*
X39818243Y67505297D01*
X39797416Y67486182D01*
X39698678Y67414443D01*
X39698677Y67414443D01*
X39559555Y67275321D01*
X39443904Y67116143D01*
X39354581Y66940837D01*
X39293781Y66753716D01*
X39287016Y66711000D01*
X40232670Y66711000D01*
X40212925Y66691255D01*
X40163556Y66605745D01*
X40138000Y66510370D01*
X40138000Y66411630D01*
X40163556Y66316255D01*
X40212925Y66230745D01*
X40232670Y66211000D01*
X39287016Y66211000D01*
X39293781Y66168283D01*
X39354581Y65981162D01*
X39443904Y65805856D01*
X39559555Y65646678D01*
X39698678Y65507555D01*
X39857856Y65391904D01*
X40033164Y65302581D01*
X40220294Y65241778D01*
X40262999Y65235014D01*
X40263000Y65235014D01*
X40263000Y66180670D01*
X40282745Y66160925D01*
X40368255Y66111556D01*
X40463630Y66086000D01*
X40562370Y66086000D01*
X40657745Y66111556D01*
X40743255Y66160925D01*
X40763000Y66180670D01*
X40763000Y65235014D01*
X40805705Y65241778D01*
X40992835Y65302581D01*
X41168143Y65391904D01*
X41327321Y65507555D01*
X41466444Y65646678D01*
X41582095Y65805856D01*
X41671418Y65981162D01*
X41732218Y66168283D01*
X41738984Y66211000D01*
X40793330Y66211000D01*
X40813075Y66230745D01*
X40862444Y66316255D01*
X40888000Y66411630D01*
X40888000Y66510370D01*
X40862444Y66605745D01*
X40813075Y66691255D01*
X40793330Y66711000D01*
X41738984Y66711000D01*
X41732218Y66753716D01*
X41671418Y66940837D01*
X41582095Y67116143D01*
X41466444Y67275321D01*
X41327322Y67414443D01*
X41327316Y67414448D01*
X41228584Y67486182D01*
X41185918Y67541512D01*
X41179939Y67611125D01*
X41212545Y67672920D01*
X41273383Y67707277D01*
X41301459Y67710500D01*
X41310865Y67710500D01*
X41310876Y67710501D01*
X41370483Y67716908D01*
X41505328Y67767202D01*
X41505335Y67767206D01*
X41620544Y67853452D01*
X41620547Y67853455D01*
X41706793Y67968664D01*
X41706797Y67968671D01*
X41757091Y68103517D01*
X41759062Y68121851D01*
X41763500Y68163127D01*
X41763499Y69758872D01*
X41757091Y69818483D01*
X41706796Y69953331D01*
X41620546Y70068546D01*
X41505331Y70154796D01*
X41370483Y70205091D01*
X41310873Y70211500D01*
X39715128Y70211499D01*
X39666757Y70206299D01*
X39655516Y70205091D01*
X39520671Y70154797D01*
X39520664Y70154793D01*
X39405455Y70068547D01*
X39405452Y70068544D01*
X39319206Y69953335D01*
X39319202Y69953328D01*
X39268908Y69818482D01*
X39262501Y69758883D01*
X39262501Y69758876D01*
X39262500Y69758864D01*
X39262500Y69661700D01*
X39242815Y69594661D01*
X39190011Y69548906D01*
X39138500Y69537700D01*
X36785419Y69537700D01*
X36718380Y69557385D01*
X36685100Y69588816D01*
X36680853Y69594661D01*
X36617966Y69681219D01*
X36473219Y69825966D01*
X36473215Y69825968D01*
X36473213Y69825971D01*
X36400590Y69878732D01*
X36307610Y69946287D01*
X36125219Y70039220D01*
X35930534Y70102477D01*
X35728352Y70134500D01*
X35728351Y70134500D01*
X35636244Y70134500D01*
X35569205Y70154185D01*
X35548563Y70170819D01*
X34645992Y71073390D01*
X33410561Y72308820D01*
X33377078Y72370141D01*
X33382062Y72439833D01*
X33423934Y72495766D01*
X33425326Y72496793D01*
X33443251Y72509816D01*
X33486215Y72541030D01*
X33630971Y72685786D01*
X33751284Y72851386D01*
X33751287Y72851390D01*
X33838970Y73023477D01*
X33844218Y73033776D01*
X33870177Y73113667D01*
X33907477Y73228466D01*
X33916115Y73283000D01*
X33939500Y73430648D01*
X33939500Y73635351D01*
X33919336Y73762657D01*
X33907477Y73837534D01*
X33844220Y74032219D01*
X33751287Y74214610D01*
X33649669Y74354477D01*
X33630971Y74380213D01*
X33630968Y74380215D01*
X33630966Y74380219D01*
X33486219Y74524966D01*
X33486215Y74524968D01*
X33486213Y74524971D01*
X33320614Y74645284D01*
X33320610Y74645287D01*
X33227917Y74692516D01*
X33177123Y74740489D01*
X33160328Y74808310D01*
X33182865Y74874445D01*
X33227917Y74913483D01*
X33320610Y74960713D01*
X33320614Y74960715D01*
X33486213Y75081028D01*
X33630969Y75225784D01*
X33698100Y75318184D01*
X33753430Y75360851D01*
X33798419Y75369300D01*
X34897156Y75369300D01*
X34964195Y75349615D01*
X34984837Y75332981D01*
X36909575Y73408241D01*
X36943060Y73346918D01*
X36944367Y73301162D01*
X36926500Y73188357D01*
X36926500Y72983648D01*
X36958522Y72781465D01*
X37021781Y72586776D01*
X37114715Y72404386D01*
X37235028Y72238786D01*
X37379786Y72094028D01*
X37545386Y71973715D01*
X37727776Y71880781D01*
X37922465Y71817522D01*
X38100329Y71789351D01*
X38124648Y71785500D01*
X38124649Y71785500D01*
X38329351Y71785500D01*
X38329352Y71785500D01*
X38356995Y71789878D01*
X38531534Y71817522D01*
X38726223Y71880781D01*
X38851653Y71944691D01*
X38908610Y71973713D01*
X38908613Y71973715D01*
X39074213Y72094028D01*
X39218969Y72238784D01*
X39286100Y72331184D01*
X39341430Y72373851D01*
X39386419Y72382300D01*
X39702756Y72382300D01*
X39769795Y72362615D01*
X39790437Y72345981D01*
X42211381Y69925037D01*
X42244866Y69863714D01*
X42247700Y69837356D01*
X42247700Y65062044D01*
X42228015Y64995005D01*
X42211381Y64974363D01*
X38177037Y60940019D01*
X38115714Y60906534D01*
X38089356Y60903700D01*
X36912052Y60903700D01*
X36845013Y60923385D01*
X36800845Y60972846D01*
X36799347Y60975882D01*
X36799344Y60975888D01*
X36684611Y61174612D01*
X36544919Y61356661D01*
X36544914Y61356665D01*
X36544911Y61356670D01*
X36382670Y61518911D01*
X36382665Y61518914D01*
X36382661Y61518919D01*
X36200612Y61658611D01*
X36001888Y61773344D01*
X35789887Y61861158D01*
X35568238Y61920548D01*
X35340734Y61950500D01*
X35111266Y61950500D01*
X34883762Y61920548D01*
X34662113Y61861158D01*
X34541480Y61811190D01*
X34450123Y61773349D01*
X34450117Y61773346D01*
X34450112Y61773344D01*
X34251388Y61658611D01*
X34251385Y61658608D01*
X34251382Y61658607D01*
X34069338Y61518918D01*
X34069330Y61518911D01*
X33907089Y61356670D01*
X33907081Y61356661D01*
X33767392Y61174617D01*
X33652657Y60975890D01*
X33652650Y60975876D01*
X33618996Y60894627D01*
X33564842Y60763887D01*
X33505452Y60542238D01*
X33505451Y60542229D01*
X33475500Y60314741D01*
X33475500Y60085258D01*
X33505451Y59857770D01*
X33505453Y59857759D01*
X33564842Y59636112D01*
X33652650Y59424123D01*
X33652657Y59424109D01*
X33767392Y59225382D01*
X33907081Y59043338D01*
X34069338Y58881081D01*
X34251382Y58741392D01*
X34450109Y58626657D01*
X34450123Y58626650D01*
X34662112Y58538842D01*
X34769045Y58510190D01*
X34883762Y58479452D01*
X34883770Y58479451D01*
X35111258Y58449500D01*
X35111266Y58449500D01*
X35340741Y58449500D01*
X35530215Y58474446D01*
X35568238Y58479452D01*
X35789887Y58538842D01*
X35789892Y58538844D01*
X36001876Y58626650D01*
X36001890Y58626657D01*
X36200617Y58741392D01*
X36382661Y58881081D01*
X36382670Y58881089D01*
X36544911Y59043330D01*
X36544918Y59043338D01*
X36684607Y59225382D01*
X36684608Y59225385D01*
X36684611Y59225388D01*
X36783578Y59396805D01*
X36799347Y59424117D01*
X36800845Y59427154D01*
X36848155Y59478569D01*
X36912052Y59496300D01*
X38356758Y59496300D01*
X38356778Y59496299D01*
X38362892Y59496299D01*
X38501510Y59496299D01*
X38637456Y59523341D01*
X38637464Y59523343D01*
X38765520Y59576385D01*
X38765533Y59576392D01*
X38825122Y59616209D01*
X38832120Y59620885D01*
X38880783Y59653400D01*
X38978800Y59751417D01*
X38978802Y59751420D01*
X42342382Y63115000D01*
X45327391Y63115000D01*
X46288314Y63115000D01*
X46283920Y63110606D01*
X46231259Y63019394D01*
X46204000Y62917661D01*
X46204000Y62812339D01*
X46231259Y62710606D01*
X46283920Y62619394D01*
X46288314Y62615000D01*
X45327391Y62615000D01*
X45336009Y62560586D01*
X45399244Y62365970D01*
X45492140Y62183650D01*
X45612417Y62018105D01*
X45612417Y62018104D01*
X45757104Y61873417D01*
X45922650Y61753140D01*
X46104970Y61660244D01*
X46299586Y61597009D01*
X46354000Y61588390D01*
X46354000Y62549314D01*
X46358394Y62544920D01*
X46449606Y62492259D01*
X46551339Y62465000D01*
X46656661Y62465000D01*
X46758394Y62492259D01*
X46849606Y62544920D01*
X46854000Y62549314D01*
X46854000Y61588390D01*
X46908413Y61597009D01*
X47103029Y61660244D01*
X47285349Y61753140D01*
X47450894Y61873417D01*
X47450895Y61873417D01*
X47595582Y62018104D01*
X47595582Y62018105D01*
X47715859Y62183650D01*
X47808755Y62365970D01*
X47871990Y62560586D01*
X47880609Y62615000D01*
X46919686Y62615000D01*
X46924080Y62619394D01*
X46976741Y62710606D01*
X47004000Y62812339D01*
X47004000Y62917661D01*
X46976741Y63019394D01*
X46924080Y63110606D01*
X46919686Y63115000D01*
X47880609Y63115000D01*
X47871990Y63169413D01*
X47808755Y63364029D01*
X47715859Y63546349D01*
X47595582Y63711894D01*
X47595582Y63711895D01*
X47450895Y63856582D01*
X47285349Y63976859D01*
X47103031Y64069754D01*
X46908421Y64132988D01*
X46854000Y64141606D01*
X46854000Y63180686D01*
X46849606Y63185080D01*
X46758394Y63237741D01*
X46656661Y63265000D01*
X46551339Y63265000D01*
X46449606Y63237741D01*
X46358394Y63185080D01*
X46354000Y63180686D01*
X46354000Y64141607D01*
X46299578Y64132988D01*
X46104968Y64069754D01*
X45922650Y63976859D01*
X45757105Y63856582D01*
X45757104Y63856582D01*
X45612417Y63711895D01*
X45612417Y63711894D01*
X45492140Y63546349D01*
X45399244Y63364029D01*
X45336009Y63169413D01*
X45327391Y63115000D01*
X42342382Y63115000D01*
X43396856Y64169474D01*
X43396887Y64169503D01*
X43497997Y64270613D01*
X43498000Y64270617D01*
X43575013Y64385876D01*
X43628055Y64513933D01*
X43628057Y64513938D01*
X43640286Y64575417D01*
X43655101Y64649892D01*
X43655101Y64788509D01*
X43655100Y64788514D01*
X43655100Y70105755D01*
X43655101Y70105781D01*
X43655101Y70249510D01*
X43655100Y70249512D01*
X43628058Y70385462D01*
X43577335Y70507913D01*
X43575692Y70512506D01*
X43575011Y70513523D01*
X43575011Y70513526D01*
X43575011Y70513527D01*
X43498000Y70628783D01*
X43399983Y70726800D01*
X43399981Y70726801D01*
X43392915Y70733867D01*
X43392911Y70733870D01*
X40599270Y73527511D01*
X40599267Y73527515D01*
X40592201Y73534581D01*
X40592200Y73534583D01*
X40494183Y73632600D01*
X40378927Y73709611D01*
X40378924Y73709612D01*
X40378923Y73709613D01*
X40250864Y73762656D01*
X40250862Y73762657D01*
X40206368Y73771507D01*
X40114910Y73789701D01*
X40114908Y73789701D01*
X39976292Y73789701D01*
X39970178Y73789701D01*
X39970158Y73789700D01*
X39386419Y73789700D01*
X39319380Y73809385D01*
X39286100Y73840816D01*
X39218969Y73933215D01*
X39218968Y73933215D01*
X39218966Y73933219D01*
X39074219Y74077966D01*
X39074215Y74077968D01*
X39074213Y74077971D01*
X38990646Y74138685D01*
X38908610Y74198287D01*
X38726219Y74291220D01*
X38531534Y74354477D01*
X38329352Y74386500D01*
X38124648Y74386500D01*
X38011833Y74368631D01*
X37942544Y74377585D01*
X37904760Y74403420D01*
X35793670Y76514511D01*
X35793667Y76514515D01*
X35786601Y76521581D01*
X35786600Y76521583D01*
X35688583Y76619600D01*
X35573327Y76696611D01*
X35573324Y76696612D01*
X35573323Y76696613D01*
X35487950Y76731975D01*
X35445262Y76749657D01*
X35400636Y76758534D01*
X35309310Y76776701D01*
X35309308Y76776701D01*
X35170692Y76776701D01*
X35164578Y76776701D01*
X35164558Y76776700D01*
X33798419Y76776700D01*
X33731380Y76796385D01*
X33698100Y76827816D01*
X33679076Y76854000D01*
X33630966Y76920219D01*
X33486219Y77064966D01*
X33486215Y77064968D01*
X33486213Y77064971D01*
X33320614Y77185284D01*
X33320610Y77185287D01*
X33227917Y77232516D01*
X33177123Y77280489D01*
X33160328Y77348310D01*
X33182865Y77414445D01*
X33227917Y77453483D01*
X33320610Y77500713D01*
X33320614Y77500715D01*
X33486213Y77621028D01*
X33630969Y77765784D01*
X33698100Y77858184D01*
X33753430Y77900851D01*
X33798419Y77909300D01*
X34925758Y77909300D01*
X34925778Y77909299D01*
X34931892Y77909299D01*
X35070510Y77909299D01*
X35206456Y77936341D01*
X35206464Y77936343D01*
X35334523Y77989386D01*
X35449785Y78066401D01*
X35552120Y78168736D01*
X35552140Y78168758D01*
X38672456Y81289074D01*
X38672487Y81289103D01*
X38773598Y81390214D01*
X38850613Y81505476D01*
X38903655Y81633533D01*
X38903657Y81633538D01*
X38910859Y81669743D01*
X38914217Y81686624D01*
X38914217Y81686626D01*
X38930701Y81769489D01*
X38930701Y81914221D01*
X38930700Y81914242D01*
X38930700Y82726580D01*
X38950385Y82793619D01*
X38981815Y82826898D01*
X39074212Y82894028D01*
X39074217Y82894032D01*
X39218971Y83038786D01*
X39339284Y83204386D01*
X39339287Y83204390D01*
X39398503Y83320607D01*
X39432218Y83386776D01*
X39495477Y83581465D01*
X39527500Y83783648D01*
X39527500Y83988351D01*
X39495477Y84190534D01*
X39479738Y84238974D01*
X39432220Y84385219D01*
X39339287Y84567610D01*
X39271732Y84660590D01*
X39218971Y84733213D01*
X39218968Y84733215D01*
X39218966Y84733219D01*
X39074219Y84877966D01*
X39074215Y84877969D01*
X39074213Y84877971D01*
X38976474Y84948981D01*
X38908610Y84998287D01*
X38726219Y85091220D01*
X38531534Y85154477D01*
X38329352Y85186500D01*
X38124648Y85186500D01*
X38042568Y85173499D01*
X37973275Y85182453D01*
X37935492Y85208288D01*
X36507017Y86636764D01*
X36473534Y86698085D01*
X36470700Y86724443D01*
X36470700Y88248580D01*
X36490385Y88315619D01*
X36521815Y88348898D01*
X36614212Y88416028D01*
X36614217Y88416032D01*
X36758971Y88560786D01*
X36879284Y88726386D01*
X36879287Y88726390D01*
X36938503Y88842607D01*
X36972218Y88908776D01*
X36974455Y88915659D01*
X37035477Y89103466D01*
X37037243Y89114612D01*
X37067500Y89305648D01*
X37067500Y89510351D01*
X39466500Y89510351D01*
X39466500Y89305648D01*
X39498522Y89103465D01*
X39561781Y88908776D01*
X39654715Y88726386D01*
X39775028Y88560786D01*
X39919782Y88416032D01*
X39919787Y88416028D01*
X40012185Y88348898D01*
X40054851Y88293569D01*
X40063300Y88248580D01*
X40063300Y75701442D01*
X40063299Y75701421D01*
X40063299Y75695308D01*
X40063299Y75556692D01*
X40084644Y75449389D01*
X40088928Y75427850D01*
X40090343Y75420737D01*
X40090344Y75420733D01*
X40143386Y75292676D01*
X40220400Y75177416D01*
X40269408Y75128408D01*
X40318417Y75079400D01*
X40318420Y75079397D01*
X41989575Y73408241D01*
X42023060Y73346918D01*
X42024367Y73301162D01*
X42006500Y73188357D01*
X42006500Y72983648D01*
X42038522Y72781465D01*
X42101781Y72586776D01*
X42194715Y72404386D01*
X42315028Y72238786D01*
X42459786Y72094028D01*
X42625386Y71973715D01*
X42807776Y71880781D01*
X43002465Y71817522D01*
X43180329Y71789351D01*
X43204648Y71785500D01*
X43204649Y71785500D01*
X43409351Y71785500D01*
X43409352Y71785500D01*
X43436995Y71789878D01*
X43611534Y71817522D01*
X43806223Y71880781D01*
X43931653Y71944691D01*
X43988610Y71973713D01*
X43988613Y71973715D01*
X44154213Y72094028D01*
X44298971Y72238786D01*
X44419284Y72404386D01*
X44419287Y72404390D01*
X44489106Y72541417D01*
X44512218Y72586776D01*
X44516117Y72598774D01*
X44575477Y72781466D01*
X44586552Y72851386D01*
X44607500Y72983648D01*
X44607500Y73188351D01*
X44601146Y73228465D01*
X44575477Y73390534D01*
X44512220Y73585219D01*
X44419287Y73767610D01*
X44311100Y73916518D01*
X44298971Y73933213D01*
X44298968Y73933215D01*
X44298966Y73933219D01*
X44154219Y74077966D01*
X44154215Y74077968D01*
X44154213Y74077971D01*
X44070646Y74138685D01*
X43988610Y74198287D01*
X43806219Y74291220D01*
X43611534Y74354477D01*
X43409352Y74386500D01*
X43204648Y74386500D01*
X43091833Y74368631D01*
X43022544Y74377585D01*
X42984760Y74403420D01*
X41507017Y75881164D01*
X41473534Y75942485D01*
X41470700Y75968843D01*
X41470700Y81080486D01*
X49091500Y81080486D01*
X49091500Y80891513D01*
X49121059Y80704881D01*
X49179454Y80525163D01*
X49265240Y80356800D01*
X49328610Y80269579D01*
X49376310Y80203927D01*
X49376312Y80203925D01*
X49376312Y80203924D01*
X49509924Y80070312D01*
X49662800Y79959240D01*
X49831163Y79873454D01*
X50010881Y79815059D01*
X50197514Y79785500D01*
X50197519Y79785500D01*
X50386486Y79785500D01*
X50573118Y79815059D01*
X50752836Y79873454D01*
X50921199Y79959240D01*
X51074073Y80070310D01*
X51207690Y80203927D01*
X51318760Y80356801D01*
X51377146Y80471390D01*
X51404545Y80525163D01*
X51462940Y80704881D01*
X51492500Y80891513D01*
X51492500Y81080476D01*
X51492500Y81080481D01*
X51487228Y81113761D01*
X51487929Y81119183D01*
X51486017Y81124311D01*
X51492357Y81153459D01*
X51496181Y81183049D01*
X51500014Y81188655D01*
X51500869Y81192584D01*
X51522020Y81220838D01*
X51626456Y81325274D01*
X51626487Y81325303D01*
X51727598Y81426414D01*
X51741243Y81446836D01*
X51804611Y81541673D01*
X51857657Y81669738D01*
X51861016Y81686626D01*
X51884701Y81805692D01*
X51884701Y81944309D01*
X51884701Y81950422D01*
X51884700Y81950443D01*
X51884700Y86453948D01*
X51904385Y86520987D01*
X51953853Y86565159D01*
X51956892Y86566658D01*
X52155617Y86681392D01*
X52337661Y86821081D01*
X52337670Y86821089D01*
X52499911Y86983330D01*
X52499918Y86983338D01*
X52500168Y86983663D01*
X52538764Y87033962D01*
X52639607Y87165382D01*
X52639608Y87165385D01*
X52639611Y87165388D01*
X52754344Y87364112D01*
X52754439Y87364340D01*
X52811911Y87503090D01*
X52842158Y87576113D01*
X52901548Y87797762D01*
X52931500Y88025266D01*
X52931500Y88254734D01*
X52913692Y88390000D01*
X54448811Y88390000D01*
X55632518Y88390000D01*
X55621889Y88371591D01*
X55581000Y88218991D01*
X55581000Y88061009D01*
X55621889Y87908409D01*
X55632518Y87890000D01*
X54448812Y87890000D01*
X54460942Y87797862D01*
X54520318Y87576269D01*
X54608102Y87364340D01*
X54608106Y87364331D01*
X54722809Y87165661D01*
X54862455Y86983670D01*
X54862461Y86983663D01*
X55024663Y86821461D01*
X55024670Y86821455D01*
X55206661Y86681809D01*
X55405331Y86567106D01*
X55405340Y86567102D01*
X55617269Y86479318D01*
X55838862Y86419942D01*
X55930999Y86407811D01*
X55931000Y86407811D01*
X55931000Y87591517D01*
X55949409Y87580889D01*
X56102009Y87540000D01*
X56259991Y87540000D01*
X56412591Y87580889D01*
X56431000Y87591517D01*
X56431000Y86407811D01*
X56523137Y86419942D01*
X56744730Y86479318D01*
X56956659Y86567102D01*
X56956668Y86567106D01*
X57155338Y86681809D01*
X57337329Y86821455D01*
X57337336Y86821461D01*
X57499538Y86983663D01*
X57499544Y86983670D01*
X57639190Y87165661D01*
X57753893Y87364331D01*
X57753897Y87364340D01*
X57841681Y87576269D01*
X57901057Y87797862D01*
X57913188Y87890000D01*
X56729482Y87890000D01*
X56740111Y87908409D01*
X56781000Y88061009D01*
X56781000Y88218991D01*
X56740111Y88371591D01*
X56729482Y88390000D01*
X57913188Y88390000D01*
X57901057Y88482137D01*
X57841681Y88703730D01*
X57753897Y88915659D01*
X57753893Y88915668D01*
X57639190Y89114338D01*
X57499544Y89296329D01*
X57499538Y89296336D01*
X57337336Y89458538D01*
X57337329Y89458544D01*
X57155338Y89598190D01*
X56956668Y89712893D01*
X56956659Y89712897D01*
X56744730Y89800681D01*
X56523140Y89860056D01*
X56523135Y89860057D01*
X56431000Y89872186D01*
X56431000Y88688482D01*
X56412591Y88699111D01*
X56259991Y88740000D01*
X56102009Y88740000D01*
X55949409Y88699111D01*
X55931000Y88688482D01*
X55931000Y89872186D01*
X55930999Y89872186D01*
X55838864Y89860057D01*
X55838859Y89860056D01*
X55617269Y89800681D01*
X55405340Y89712897D01*
X55405331Y89712893D01*
X55206661Y89598190D01*
X55024670Y89458544D01*
X55024663Y89458538D01*
X54862461Y89296336D01*
X54862455Y89296329D01*
X54722809Y89114338D01*
X54608106Y88915668D01*
X54608102Y88915659D01*
X54520318Y88703730D01*
X54460942Y88482137D01*
X54448811Y88390000D01*
X52913692Y88390000D01*
X52901548Y88482238D01*
X52842158Y88703887D01*
X52754344Y88915888D01*
X52639611Y89114612D01*
X52499919Y89296661D01*
X52499914Y89296665D01*
X52499911Y89296670D01*
X52337670Y89458911D01*
X52337665Y89458914D01*
X52337661Y89458919D01*
X52155612Y89598611D01*
X51956888Y89713344D01*
X51744887Y89801158D01*
X51523238Y89860548D01*
X51295734Y89890500D01*
X51066266Y89890500D01*
X50838762Y89860548D01*
X50617113Y89801158D01*
X50522918Y89762141D01*
X50405123Y89713349D01*
X50405117Y89713346D01*
X50405112Y89713344D01*
X50206388Y89598611D01*
X50206385Y89598608D01*
X50206382Y89598607D01*
X50102313Y89518751D01*
X50024341Y89458920D01*
X50024338Y89458918D01*
X50024330Y89458911D01*
X49862089Y89296670D01*
X49862081Y89296661D01*
X49722392Y89114617D01*
X49607657Y88915890D01*
X49607650Y88915876D01*
X49529163Y88726390D01*
X49519842Y88703887D01*
X49460452Y88482238D01*
X49460451Y88482229D01*
X49430500Y88254741D01*
X49430500Y88025258D01*
X49460451Y87797770D01*
X49460453Y87797759D01*
X49519842Y87576112D01*
X49607650Y87364123D01*
X49607657Y87364109D01*
X49722392Y87165382D01*
X49862081Y86983338D01*
X50024338Y86821081D01*
X50206382Y86681392D01*
X50405107Y86566658D01*
X50408147Y86565159D01*
X50459565Y86517852D01*
X50477300Y86453948D01*
X50477300Y82310500D01*
X50457615Y82243461D01*
X50404811Y82197706D01*
X50353300Y82186500D01*
X50197514Y82186500D01*
X50010881Y82156940D01*
X49954268Y82138545D01*
X49831168Y82098547D01*
X49831165Y82098545D01*
X49831163Y82098545D01*
X49773410Y82069118D01*
X49662801Y82012760D01*
X49509927Y81901690D01*
X49376310Y81768073D01*
X49265240Y81615199D01*
X49179454Y81446836D01*
X49121059Y81267118D01*
X49091500Y81080486D01*
X41470700Y81080486D01*
X41470700Y83988351D01*
X42006500Y83988351D01*
X42006500Y83783648D01*
X42038522Y83581465D01*
X42101781Y83386776D01*
X42194715Y83204386D01*
X42315028Y83038786D01*
X42459786Y82894028D01*
X42625386Y82773715D01*
X42807776Y82680781D01*
X43002465Y82617522D01*
X43180329Y82589351D01*
X43204648Y82585500D01*
X43204649Y82585500D01*
X43409351Y82585500D01*
X43409352Y82585500D01*
X43436995Y82589878D01*
X43611534Y82617522D01*
X43806223Y82680781D01*
X43931653Y82744691D01*
X43988610Y82773713D01*
X44010700Y82789762D01*
X44154213Y82894028D01*
X44298971Y83038786D01*
X44419284Y83204386D01*
X44419287Y83204390D01*
X44478503Y83320607D01*
X44512218Y83386776D01*
X44575477Y83581465D01*
X44607500Y83783648D01*
X44607500Y83988351D01*
X44575477Y84190534D01*
X44559738Y84238974D01*
X44512220Y84385219D01*
X44419287Y84567610D01*
X44351732Y84660590D01*
X44298971Y84733213D01*
X44298968Y84733215D01*
X44298966Y84733219D01*
X44154219Y84877966D01*
X44132629Y84893651D01*
X44089963Y84948981D01*
X44083984Y85018594D01*
X44116589Y85080389D01*
X44117833Y85081651D01*
X45486372Y86450190D01*
X45547695Y86483675D01*
X45613900Y86479932D01*
X45617103Y86478844D01*
X45787203Y86433267D01*
X45838762Y86419452D01*
X45838770Y86419451D01*
X46066258Y86389500D01*
X46066266Y86389500D01*
X46295741Y86389500D01*
X46485215Y86414446D01*
X46523238Y86419452D01*
X46744887Y86478842D01*
X46746036Y86479318D01*
X46956876Y86566650D01*
X46956890Y86566657D01*
X47155617Y86681392D01*
X47337661Y86821081D01*
X47337670Y86821089D01*
X47499911Y86983330D01*
X47499918Y86983338D01*
X47500168Y86983663D01*
X47538764Y87033962D01*
X47639607Y87165382D01*
X47639608Y87165385D01*
X47639611Y87165388D01*
X47754344Y87364112D01*
X47754439Y87364340D01*
X47811911Y87503090D01*
X47842158Y87576113D01*
X47901548Y87797762D01*
X47931500Y88025266D01*
X47931500Y88254734D01*
X47901548Y88482238D01*
X47842158Y88703887D01*
X47754344Y88915888D01*
X47639611Y89114612D01*
X47499919Y89296661D01*
X47499914Y89296665D01*
X47499911Y89296670D01*
X47337670Y89458911D01*
X47337665Y89458914D01*
X47337661Y89458919D01*
X47155612Y89598611D01*
X46956888Y89713344D01*
X46744887Y89801158D01*
X46523238Y89860548D01*
X46295734Y89890500D01*
X46066266Y89890500D01*
X45838762Y89860548D01*
X45617113Y89801158D01*
X45522918Y89762141D01*
X45405123Y89713349D01*
X45405117Y89713346D01*
X45405112Y89713344D01*
X45206388Y89598611D01*
X45206385Y89598608D01*
X45206382Y89598607D01*
X45102313Y89518751D01*
X45024341Y89458920D01*
X45024338Y89458918D01*
X45024330Y89458911D01*
X44862089Y89296670D01*
X44862081Y89296661D01*
X44722392Y89114617D01*
X44607657Y88915890D01*
X44607650Y88915876D01*
X44529163Y88726390D01*
X44519842Y88703887D01*
X44460452Y88482238D01*
X44460451Y88482229D01*
X44430500Y88254741D01*
X44430500Y88025258D01*
X44460451Y87797770D01*
X44460453Y87797759D01*
X44519844Y87576103D01*
X44520932Y87572900D01*
X44523835Y87503090D01*
X44491190Y87445372D01*
X42858420Y85812602D01*
X42858417Y85812600D01*
X42760400Y85714583D01*
X42725265Y85661999D01*
X42720688Y85655149D01*
X42683387Y85599324D01*
X42630343Y85471264D01*
X42630341Y85471256D01*
X42603299Y85335310D01*
X42603299Y85191582D01*
X42603300Y85191556D01*
X42603300Y85045419D01*
X42583615Y84978380D01*
X42552185Y84945101D01*
X42459784Y84877969D01*
X42315028Y84733213D01*
X42194715Y84567613D01*
X42101781Y84385223D01*
X42038522Y84190534D01*
X42006500Y83988351D01*
X41470700Y83988351D01*
X41470700Y88248580D01*
X41490385Y88315619D01*
X41521815Y88348898D01*
X41614212Y88416028D01*
X41614217Y88416032D01*
X41758971Y88560786D01*
X41879284Y88726386D01*
X41879287Y88726390D01*
X41938503Y88842607D01*
X41972218Y88908776D01*
X41974455Y88915659D01*
X42035477Y89103466D01*
X42037243Y89114612D01*
X42067500Y89305648D01*
X42067500Y89510351D01*
X42053521Y89598607D01*
X42035477Y89712534D01*
X41972220Y89907219D01*
X41879287Y90089610D01*
X41811732Y90182590D01*
X41758971Y90255213D01*
X41758968Y90255215D01*
X41758966Y90255219D01*
X41614219Y90399966D01*
X41614215Y90399968D01*
X41614213Y90399971D01*
X41522419Y90466662D01*
X41448610Y90520287D01*
X41266219Y90613220D01*
X41071534Y90676477D01*
X40869352Y90708500D01*
X40664648Y90708500D01*
X40563557Y90692488D01*
X40462465Y90676477D01*
X40372137Y90647127D01*
X40267781Y90613220D01*
X40267778Y90613218D01*
X40267776Y90613218D01*
X40201607Y90579503D01*
X40085390Y90520287D01*
X40085386Y90520284D01*
X39919786Y90399971D01*
X39775028Y90255213D01*
X39654715Y90089613D01*
X39561781Y89907223D01*
X39498522Y89712534D01*
X39466500Y89510351D01*
X37067500Y89510351D01*
X37053521Y89598607D01*
X37035477Y89712534D01*
X36972220Y89907219D01*
X36879287Y90089610D01*
X36811732Y90182590D01*
X36758971Y90255213D01*
X36758968Y90255215D01*
X36758966Y90255219D01*
X36614219Y90399966D01*
X36614215Y90399968D01*
X36614213Y90399971D01*
X36522419Y90466662D01*
X36448610Y90520287D01*
X36266219Y90613220D01*
X36071534Y90676477D01*
X35869352Y90708500D01*
X35664648Y90708500D01*
X35563557Y90692488D01*
X35462465Y90676477D01*
X35372137Y90647127D01*
X35267781Y90613220D01*
X35267778Y90613218D01*
X35267776Y90613218D01*
X35201607Y90579503D01*
X35085390Y90520287D01*
X35085386Y90520284D01*
X34919786Y90399971D01*
X34775028Y90255213D01*
X34654715Y90089613D01*
X34561781Y89907223D01*
X34498522Y89712534D01*
X34466500Y89510351D01*
X34466500Y89305648D01*
X34498522Y89103465D01*
X34561781Y88908776D01*
X34654715Y88726386D01*
X34775028Y88560786D01*
X34919782Y88416032D01*
X34919787Y88416028D01*
X35012185Y88348898D01*
X35054851Y88293569D01*
X35063300Y88248580D01*
X35063300Y86457042D01*
X35063299Y86457021D01*
X35063299Y86312289D01*
X35063298Y86312289D01*
X35090341Y86176343D01*
X35090343Y86176335D01*
X35143386Y86048276D01*
X35220400Y85933016D01*
X35269408Y85884008D01*
X35318417Y85835000D01*
X35318420Y85834997D01*
X36914442Y84238974D01*
X36947927Y84177651D01*
X36949234Y84131896D01*
X36926500Y83988352D01*
X36926500Y83783648D01*
X36958522Y83581465D01*
X37021781Y83386776D01*
X37114715Y83204386D01*
X37235028Y83038786D01*
X37379782Y82894032D01*
X37379787Y82894028D01*
X37472185Y82826898D01*
X37514851Y82771569D01*
X37523300Y82726580D01*
X37523300Y82181644D01*
X37503615Y82114605D01*
X37486981Y82093963D01*
X34746037Y79353019D01*
X34684714Y79319534D01*
X34658356Y79316700D01*
X33798419Y79316700D01*
X33731380Y79336385D01*
X33698100Y79367816D01*
X33673489Y79401690D01*
X33630966Y79460219D01*
X33486219Y79604966D01*
X33486215Y79604968D01*
X33486213Y79604971D01*
X33320614Y79725284D01*
X33320610Y79725287D01*
X33227917Y79772516D01*
X33177123Y79820489D01*
X33160328Y79888310D01*
X33182865Y79954445D01*
X33227917Y79993483D01*
X33320610Y80040713D01*
X33320614Y80040715D01*
X33486213Y80161028D01*
X33630971Y80305786D01*
X33751284Y80471386D01*
X33751287Y80471390D01*
X33825510Y80617060D01*
X33844218Y80653776D01*
X33851262Y80675453D01*
X33896723Y80815368D01*
X33907477Y80848465D01*
X33939500Y81050648D01*
X33939500Y81255351D01*
X33907477Y81457534D01*
X33891443Y81506882D01*
X33844220Y81652219D01*
X33751287Y81834610D01*
X33653374Y81969376D01*
X33630972Y82000211D01*
X33630971Y82000211D01*
X33630966Y82000219D01*
X33486219Y82144966D01*
X33486218Y82144966D01*
X33482773Y82148412D01*
X33483914Y82149553D01*
X33449581Y82202132D01*
X33444300Y82237933D01*
X33444300Y104059872D01*
X33463985Y104126911D01*
X33480619Y104147553D01*
X34516447Y105183381D01*
X34577770Y105216866D01*
X34604128Y105219700D01*
X34904501Y105219700D01*
X34971540Y105200015D01*
X35017295Y105147211D01*
X35028501Y105095700D01*
X35028501Y105077123D01*
X35034908Y105017516D01*
X35085202Y104882671D01*
X35085206Y104882664D01*
X35171452Y104767455D01*
X35171455Y104767452D01*
X35286664Y104681206D01*
X35286670Y104681203D01*
X35337963Y104662072D01*
X35393896Y104620200D01*
X35418313Y104554736D01*
X35403461Y104486463D01*
X35382310Y104458209D01*
X35361142Y104437041D01*
X35231613Y104258760D01*
X35131567Y104062410D01*
X35063473Y103852838D01*
X35063473Y103852835D01*
X35051145Y103775000D01*
X36053722Y103775000D01*
X36009667Y103698694D01*
X35979000Y103584244D01*
X35979000Y103465756D01*
X36009667Y103351306D01*
X36053722Y103275000D01*
X35051145Y103275000D01*
X35063473Y103197164D01*
X35063473Y103197161D01*
X35131567Y102987589D01*
X35231613Y102791239D01*
X35361142Y102612958D01*
X35516958Y102457142D01*
X35695239Y102327613D01*
X35891589Y102227567D01*
X36101163Y102159473D01*
X36179000Y102147144D01*
X36179000Y103149722D01*
X36255306Y103105667D01*
X36369756Y103075000D01*
X36488244Y103075000D01*
X36602694Y103105667D01*
X36679000Y103149722D01*
X36679000Y102147144D01*
X36756835Y102159473D01*
X36756838Y102159473D01*
X36966410Y102227567D01*
X37162760Y102327613D01*
X37341041Y102457142D01*
X37496857Y102612958D01*
X37626386Y102791239D01*
X37726432Y102987589D01*
X37794526Y103197161D01*
X37794526Y103197164D01*
X37806855Y103275000D01*
X36804278Y103275000D01*
X36848333Y103351306D01*
X36879000Y103465756D01*
X36879000Y103584244D01*
X36848333Y103698694D01*
X36804278Y103775000D01*
X37806855Y103775000D01*
X37794526Y103852835D01*
X37794526Y103852838D01*
X37726432Y104062410D01*
X37626386Y104258760D01*
X37496857Y104437041D01*
X37475691Y104458207D01*
X37442204Y104519529D01*
X37447187Y104589221D01*
X37489058Y104645156D01*
X37520037Y104662072D01*
X37571328Y104681202D01*
X37571335Y104681206D01*
X37686544Y104767452D01*
X37686547Y104767455D01*
X37772793Y104882664D01*
X37772797Y104882671D01*
X37823091Y105017517D01*
X37829500Y105077127D01*
X37829500Y105095700D01*
X37849185Y105162739D01*
X37901989Y105208494D01*
X37953500Y105219700D01*
X38852672Y105219700D01*
X38919711Y105200015D01*
X38940353Y105183381D01*
X40609247Y103514484D01*
X40609251Y103514481D01*
X40741140Y103426355D01*
X40741150Y103426350D01*
X40887702Y103365646D01*
X40887710Y103365644D01*
X41043280Y103334699D01*
X41043285Y103334699D01*
X41208030Y103334699D01*
X41208050Y103334700D01*
X42017780Y103334700D01*
X42084819Y103315015D01*
X42125165Y103272702D01*
X42168778Y103197164D01*
X42171052Y103193226D01*
X42171058Y103193217D01*
X42306751Y103016377D01*
X42306757Y103016370D01*
X42464370Y102858757D01*
X42464377Y102858751D01*
X42641217Y102723058D01*
X42641226Y102723052D01*
X42834273Y102611595D01*
X42834277Y102611593D01*
X43040209Y102526293D01*
X43040219Y102526290D01*
X43255537Y102468596D01*
X43255540Y102468595D01*
X43255547Y102468594D01*
X43476533Y102439501D01*
X43476537Y102439500D01*
X43476543Y102439500D01*
X43476550Y102439500D01*
X43699450Y102439500D01*
X43699457Y102439500D01*
X43699463Y102439500D01*
X43699466Y102439501D01*
X43920452Y102468594D01*
X43920457Y102468595D01*
X43920463Y102468596D01*
X44135781Y102526290D01*
X44135783Y102526291D01*
X44135790Y102526293D01*
X44341722Y102611593D01*
X44341726Y102611595D01*
X44404545Y102647864D01*
X44534774Y102723052D01*
X44677576Y102832627D01*
X44711622Y102858751D01*
X44711629Y102858757D01*
X44869242Y103016370D01*
X44869248Y103016377D01*
X45004941Y103193217D01*
X45004948Y103193226D01*
X45116405Y103386274D01*
X45201710Y103592219D01*
X45259404Y103807537D01*
X45288500Y104028543D01*
X45288500Y104251457D01*
X45259404Y104472463D01*
X45201710Y104687781D01*
X45116405Y104893726D01*
X45004948Y105086774D01*
X44869247Y105263624D01*
X44869242Y105263629D01*
X44829404Y105303468D01*
X44745027Y105387844D01*
X52248000Y105387844D01*
X52248000Y104390000D01*
X53399518Y104390000D01*
X53388889Y104371591D01*
X53348000Y104218991D01*
X53348000Y104061009D01*
X53388889Y103908409D01*
X53399518Y103890000D01*
X52248000Y103890000D01*
X52248000Y102892155D01*
X52254401Y102832627D01*
X52254403Y102832620D01*
X52304645Y102697913D01*
X52304649Y102697906D01*
X52390809Y102582812D01*
X52390812Y102582809D01*
X52505906Y102496649D01*
X52505913Y102496645D01*
X52640620Y102446403D01*
X52640627Y102446401D01*
X52700155Y102440000D01*
X53698000Y102440000D01*
X53698000Y103591517D01*
X53716409Y103580889D01*
X53869009Y103540000D01*
X54026991Y103540000D01*
X54179591Y103580889D01*
X54198000Y103591517D01*
X54198000Y102440000D01*
X55195844Y102440000D01*
X55255372Y102446401D01*
X55255379Y102446403D01*
X55390086Y102496645D01*
X55390093Y102496649D01*
X55505187Y102582809D01*
X55505190Y102582812D01*
X55591350Y102697906D01*
X55591354Y102697913D01*
X55641596Y102832620D01*
X55641598Y102832627D01*
X55647999Y102892155D01*
X55648000Y102892172D01*
X55648000Y103890000D01*
X54496482Y103890000D01*
X54507111Y103908409D01*
X54548000Y104061009D01*
X54548000Y104218991D01*
X54507111Y104371591D01*
X54496482Y104390000D01*
X55648000Y104390000D01*
X55648000Y105387827D01*
X55647999Y105387844D01*
X55641598Y105447372D01*
X55641596Y105447379D01*
X55591354Y105582086D01*
X55591350Y105582093D01*
X55505190Y105697187D01*
X55505187Y105697190D01*
X55390093Y105783350D01*
X55390086Y105783354D01*
X55255379Y105833596D01*
X55255372Y105833598D01*
X55195844Y105839999D01*
X55195828Y105840000D01*
X54198000Y105840000D01*
X54198000Y104688482D01*
X54179591Y104699111D01*
X54026991Y104740000D01*
X53869009Y104740000D01*
X53716409Y104699111D01*
X53698000Y104688482D01*
X53698000Y105840000D01*
X52700172Y105840000D01*
X52700155Y105839999D01*
X52640627Y105833598D01*
X52640620Y105833596D01*
X52505913Y105783354D01*
X52505906Y105783350D01*
X52390812Y105697190D01*
X52390809Y105697187D01*
X52304649Y105582093D01*
X52304645Y105582086D01*
X52254403Y105447379D01*
X52254401Y105447372D01*
X52248000Y105387844D01*
X44745027Y105387844D01*
X44711629Y105421242D01*
X44711624Y105421247D01*
X44534774Y105556948D01*
X44455299Y105602832D01*
X44407085Y105653398D01*
X44393300Y105710219D01*
X44393300Y107616370D01*
X44412985Y107683409D01*
X44416981Y107689254D01*
X44480286Y107776389D01*
X44480287Y107776390D01*
X44525077Y107864296D01*
X44573218Y107958776D01*
X44636477Y108153465D01*
X44668500Y108355648D01*
X44668500Y108560351D01*
X44636477Y108762534D01*
X44573220Y108957219D01*
X44480287Y109139610D01*
X44412732Y109232590D01*
X44359971Y109305213D01*
X44359968Y109305215D01*
X44359966Y109305219D01*
X44215219Y109449966D01*
X44215215Y109449968D01*
X44215213Y109449971D01*
X44142590Y109502732D01*
X44049610Y109570287D01*
X43867219Y109663220D01*
X43672534Y109726477D01*
X43470352Y109758500D01*
X43265648Y109758500D01*
X43201350Y109748316D01*
X43063465Y109726477D01*
X42973137Y109697127D01*
X42868781Y109663220D01*
X42868778Y109663218D01*
X42868776Y109663218D01*
X42802607Y109629503D01*
X42686390Y109570287D01*
X42686386Y109570284D01*
X42520786Y109449971D01*
X42376028Y109305213D01*
X42255715Y109139613D01*
X42162781Y108957223D01*
X42099522Y108762534D01*
X42067500Y108560351D01*
X42067500Y108355648D01*
X42099522Y108153465D01*
X42162781Y107958776D01*
X42255715Y107776386D01*
X42376028Y107610786D01*
X42520786Y107466028D01*
X42686388Y107345713D01*
X42714998Y107331135D01*
X42765793Y107283159D01*
X42782700Y107220652D01*
X42782700Y105710219D01*
X42763015Y105643180D01*
X42720700Y105602832D01*
X42655140Y105564981D01*
X42641224Y105556947D01*
X42464377Y105421248D01*
X42464370Y105421242D01*
X42306757Y105263629D01*
X42306751Y105263622D01*
X42177901Y105095700D01*
X42171052Y105086774D01*
X42125167Y105007299D01*
X42074599Y104959084D01*
X42017780Y104945300D01*
X41507529Y104945300D01*
X41440490Y104964985D01*
X41419848Y104981619D01*
X41181767Y105219700D01*
X39873327Y106528137D01*
X39873326Y106528140D01*
X39863118Y106538347D01*
X39863118Y106538349D01*
X39750949Y106650518D01*
X39619053Y106738648D01*
X39472497Y106799353D01*
X39421582Y106809480D01*
X39316917Y106830301D01*
X39316915Y106830301D01*
X39158285Y106830301D01*
X39152171Y106830301D01*
X39152151Y106830300D01*
X37953499Y106830300D01*
X37886460Y106849985D01*
X37840705Y106902789D01*
X37829499Y106954300D01*
X37829499Y106972870D01*
X37829499Y106972873D01*
X37823091Y107032483D01*
X37772796Y107167331D01*
X37686546Y107282546D01*
X37571331Y107368796D01*
X37436483Y107419091D01*
X37376873Y107425500D01*
X37358303Y107425499D01*
X37291265Y107445180D01*
X37245508Y107497982D01*
X37234300Y107549499D01*
X37234300Y109657758D01*
X37253985Y109724797D01*
X37285415Y109758076D01*
X37347015Y109802831D01*
X37347021Y109802836D01*
X37491771Y109947586D01*
X37612084Y110113186D01*
X37612087Y110113190D01*
X37671303Y110229407D01*
X37705018Y110295576D01*
X37768277Y110490265D01*
X37800300Y110692448D01*
X37800300Y110897151D01*
X37768277Y111099334D01*
X37705020Y111294019D01*
X37612087Y111476410D01*
X37512984Y111612815D01*
X37491771Y111642013D01*
X37491768Y111642015D01*
X37491766Y111642019D01*
X37347019Y111786766D01*
X37347015Y111786768D01*
X37347013Y111786771D01*
X37268336Y111843932D01*
X37181410Y111907087D01*
X36999019Y112000020D01*
X36804334Y112063277D01*
X36602152Y112095300D01*
X36397448Y112095300D01*
X36296357Y112079288D01*
X36195265Y112063277D01*
X36104937Y112033927D01*
X36000581Y112000020D01*
X36000578Y112000018D01*
X36000576Y112000018D01*
X35934407Y111966303D01*
X35818190Y111907087D01*
X35818186Y111907084D01*
X35652586Y111786771D01*
X35507828Y111642013D01*
X35387515Y111476413D01*
X35294581Y111294023D01*
X35231322Y111099334D01*
X35199300Y110897151D01*
X35199300Y110692448D01*
X35231322Y110490265D01*
X35294581Y110295576D01*
X35387515Y110113186D01*
X35507828Y109947586D01*
X35507832Y109947582D01*
X35587381Y109868034D01*
X35620866Y109806711D01*
X35623700Y109780353D01*
X35623700Y107549499D01*
X35604015Y107482460D01*
X35551211Y107436705D01*
X35499700Y107425499D01*
X35481128Y107425499D01*
X35432757Y107420299D01*
X35421516Y107419091D01*
X35286671Y107368797D01*
X35286664Y107368793D01*
X35171455Y107282547D01*
X35171452Y107282544D01*
X35085206Y107167335D01*
X35085202Y107167328D01*
X35034908Y107032482D01*
X35028702Y106974753D01*
X35028501Y106972876D01*
X35028500Y106972864D01*
X35028500Y106954300D01*
X35008815Y106887261D01*
X34956011Y106841506D01*
X34904500Y106830300D01*
X34139883Y106830300D01*
X34139879Y106830299D01*
X33984302Y106799353D01*
X33941377Y106781572D01*
X33837747Y106738648D01*
X33837741Y106738644D01*
X33705850Y106650518D01*
X33590585Y106535253D01*
X33590556Y106535222D01*
X32129992Y105074658D01*
X32129970Y105074638D01*
X32013483Y104958151D01*
X31995908Y104931848D01*
X31943657Y104853648D01*
X31943656Y104853646D01*
X31943655Y104853646D01*
X31925350Y104826250D01*
X31925349Y104826248D01*
X31864648Y104679701D01*
X31864645Y104679691D01*
X31833699Y104524117D01*
X31833699Y104360375D01*
X31833700Y104360349D01*
X31833700Y82237933D01*
X31814015Y82170894D01*
X31794780Y82148858D01*
X31795227Y82148412D01*
X31791781Y82144966D01*
X31647034Y82000219D01*
X31647031Y82000215D01*
X31647027Y82000211D01*
X31526715Y81834613D01*
X31526713Y81834610D01*
X31524189Y81829656D01*
X31433781Y81652223D01*
X31370522Y81457534D01*
X31338500Y81255351D01*
X31338500Y81050648D01*
X31370522Y80848465D01*
X31433781Y80653776D01*
X31526715Y80471386D01*
X31647028Y80305786D01*
X31791786Y80161028D01*
X31957386Y80040715D01*
X32050080Y79993485D01*
X32100876Y79945510D01*
X32117671Y79877689D01*
X32095134Y79811554D01*
X32050080Y79772515D01*
X31957390Y79725287D01*
X31957386Y79725284D01*
X31791786Y79604971D01*
X31647028Y79460213D01*
X31526715Y79294613D01*
X31433781Y79112223D01*
X31370522Y78917534D01*
X31338500Y78715351D01*
X31338500Y78510648D01*
X31370522Y78308465D01*
X31433781Y78113776D01*
X31526715Y77931386D01*
X31647028Y77765786D01*
X31791786Y77621028D01*
X31957386Y77500715D01*
X32050080Y77453485D01*
X32100876Y77405510D01*
X32117671Y77337689D01*
X32095134Y77271554D01*
X32050080Y77232515D01*
X31957390Y77185287D01*
X31957386Y77185284D01*
X31791786Y77064971D01*
X31647028Y76920213D01*
X31536496Y76768075D01*
X31526713Y76754610D01*
X31500926Y76704000D01*
X31433781Y76572223D01*
X31370522Y76377534D01*
X31338500Y76175351D01*
X31338500Y75970648D01*
X31370522Y75768465D01*
X31433781Y75573776D01*
X31526715Y75391386D01*
X31647028Y75225786D01*
X31791786Y75081028D01*
X31957386Y74960715D01*
X32050080Y74913485D01*
X32100876Y74865510D01*
X32117671Y74797689D01*
X32095134Y74731554D01*
X32050080Y74692515D01*
X31957390Y74645287D01*
X31957386Y74645284D01*
X31791786Y74524971D01*
X31647028Y74380213D01*
X31572265Y74277308D01*
X31526713Y74214610D01*
X31497691Y74157653D01*
X31433781Y74032223D01*
X31370522Y73837534D01*
X31338500Y73635351D01*
X31338500Y73430648D01*
X31370522Y73228465D01*
X31433781Y73033776D01*
X31526715Y72851386D01*
X31647028Y72685786D01*
X31791782Y72541032D01*
X31791787Y72541028D01*
X31884185Y72473898D01*
X31887525Y72469566D01*
X31892503Y72467293D01*
X31908633Y72442193D01*
X31926851Y72418569D01*
X31928104Y72411895D01*
X31930277Y72408515D01*
X31935300Y72373580D01*
X31935300Y72160642D01*
X31935299Y72160621D01*
X31935299Y72015890D01*
X31956470Y71909463D01*
X31956470Y71909461D01*
X31962341Y71879944D01*
X31962343Y71879935D01*
X32015386Y71751876D01*
X32092400Y71636616D01*
X32141408Y71587608D01*
X32190417Y71538600D01*
X32190420Y71538597D01*
X34360921Y69368095D01*
X34394406Y69306772D01*
X34391171Y69242097D01*
X34357523Y69138537D01*
X34325500Y68936351D01*
X34325500Y68731648D01*
X34357522Y68529465D01*
X34420781Y68334776D01*
X34513715Y68152386D01*
X34634028Y67986786D01*
X34778782Y67842032D01*
X34778787Y67842028D01*
X34871185Y67774898D01*
X34913851Y67719569D01*
X34922300Y67674580D01*
X34922300Y66183419D01*
X34902615Y66116380D01*
X34871185Y66083101D01*
X34778784Y66015969D01*
X34634030Y65871215D01*
X34566900Y65778816D01*
X34511570Y65736149D01*
X34466581Y65727700D01*
X29980689Y65727700D01*
X29906655Y65712973D01*
X29869638Y65705610D01*
X29844738Y65700657D01*
X29844736Y65700656D01*
X29844733Y65700655D01*
X29716676Y65647613D01*
X29601414Y65570598D01*
X29500303Y65469487D01*
X29500274Y65469456D01*
X25920627Y61889809D01*
X25859304Y61856324D01*
X25793074Y61860075D01*
X25789901Y61861152D01*
X25789887Y61861158D01*
X25568238Y61920548D01*
X25340734Y61950500D01*
X25111266Y61950500D01*
X24883762Y61920548D01*
X24662113Y61861158D01*
X24541480Y61811190D01*
X24450123Y61773349D01*
X24450117Y61773346D01*
X24450112Y61773344D01*
X24251388Y61658611D01*
X24251385Y61658608D01*
X24251382Y61658607D01*
X24069338Y61518918D01*
X24069330Y61518911D01*
X23907089Y61356670D01*
X23907081Y61356661D01*
X23767392Y61174617D01*
X23652657Y60975890D01*
X23652650Y60975876D01*
X23618996Y60894627D01*
X23564842Y60763887D01*
X23505452Y60542238D01*
X23505451Y60542229D01*
X23475500Y60314741D01*
X21455500Y60314741D01*
X21455500Y64094700D01*
X21475185Y64161739D01*
X21527989Y64207494D01*
X21579500Y64218700D01*
X23741067Y64218700D01*
X23808106Y64199015D01*
X23830145Y64179782D01*
X23830589Y64180226D01*
X23978782Y64032032D01*
X23978786Y64032028D01*
X24144386Y63911715D01*
X24326776Y63818781D01*
X24521465Y63755522D01*
X24699329Y63727351D01*
X24723648Y63723500D01*
X24723649Y63723500D01*
X24928351Y63723500D01*
X24928352Y63723500D01*
X24955995Y63727878D01*
X25130534Y63755522D01*
X25325223Y63818781D01*
X25450653Y63882691D01*
X25507610Y63911713D01*
X25507613Y63911715D01*
X25673213Y64032028D01*
X25817971Y64176786D01*
X25938284Y64342386D01*
X25938287Y64342390D01*
X25997503Y64458607D01*
X26031218Y64524776D01*
X26047673Y64575417D01*
X26094477Y64719466D01*
X26126500Y64921648D01*
X26126500Y65126352D01*
X26094477Y65328534D01*
X26031220Y65523219D01*
X25938287Y65705610D01*
X25857995Y65816123D01*
X25817971Y65871213D01*
X25817968Y65871215D01*
X25817966Y65871219D01*
X25673219Y66015966D01*
X25673215Y66015969D01*
X25673213Y66015971D01*
X25580815Y66083101D01*
X25507610Y66136287D01*
X25325219Y66229220D01*
X25130534Y66292477D01*
X24928352Y66324500D01*
X24723648Y66324500D01*
X24671592Y66316255D01*
X24521465Y66292477D01*
X24452184Y66269966D01*
X24326781Y66229220D01*
X24326778Y66229218D01*
X24326776Y66229218D01*
X24291022Y66211000D01*
X24144390Y66136287D01*
X24144386Y66136284D01*
X23978786Y66015971D01*
X23830589Y65867774D01*
X23829452Y65868910D01*
X23776836Y65834571D01*
X23741067Y65829300D01*
X16488528Y65829300D01*
X16421489Y65848985D01*
X16400847Y65865619D01*
X14804818Y67461648D01*
X10005187Y72261277D01*
X10005185Y72261281D01*
X9998119Y72268347D01*
X9998118Y72268349D01*
X9885949Y72380518D01*
X9754053Y72468648D01*
X9607497Y72529353D01*
X9585226Y72533783D01*
X9451917Y72560301D01*
X9451915Y72560301D01*
X9293285Y72560301D01*
X9287171Y72560301D01*
X9287151Y72560300D01*
X4955933Y72560300D01*
X4888894Y72579985D01*
X4866854Y72599217D01*
X4866411Y72598774D01*
X4824493Y72640692D01*
X4718219Y72746966D01*
X4718215Y72746968D01*
X4718213Y72746971D01*
X4645590Y72799732D01*
X4552610Y72867287D01*
X4370219Y72960220D01*
X4175534Y73023477D01*
X3973352Y73055500D01*
X3768648Y73055500D01*
X3667557Y73039488D01*
X3566465Y73023477D01*
X3498772Y73001482D01*
X3371781Y72960220D01*
X3371778Y72960218D01*
X3371776Y72960218D01*
X3305607Y72926503D01*
X3189390Y72867287D01*
X3189386Y72867284D01*
X3023786Y72746971D01*
X2879028Y72602213D01*
X2758715Y72436613D01*
X2665781Y72254223D01*
X2602522Y72059534D01*
X2570500Y71857351D01*
X635500Y71857351D01*
X635500Y76556351D01*
X2570500Y76556351D01*
X2570500Y76351648D01*
X2602522Y76149465D01*
X2665781Y75954776D01*
X2758715Y75772386D01*
X2879028Y75606786D01*
X3023786Y75462028D01*
X3189386Y75341715D01*
X3371776Y75248781D01*
X3566465Y75185522D01*
X3744329Y75157351D01*
X3768648Y75153500D01*
X3768649Y75153500D01*
X3973351Y75153500D01*
X3973352Y75153500D01*
X4000995Y75157878D01*
X4175534Y75185522D01*
X4370223Y75248781D01*
X4506432Y75318184D01*
X4552610Y75341713D01*
X4553198Y75342140D01*
X4718213Y75462028D01*
X4862971Y75606786D01*
X4983284Y75772386D01*
X4983287Y75772390D01*
X5069955Y75942485D01*
X5076218Y75954776D01*
X5080789Y75968843D01*
X5139477Y76149466D01*
X5171500Y76351648D01*
X5171500Y76556352D01*
X5153631Y76669165D01*
X5158133Y76704000D01*
X13394391Y76704000D01*
X14355314Y76704000D01*
X14350920Y76699606D01*
X14298259Y76608394D01*
X14271000Y76506661D01*
X14271000Y76401339D01*
X14298259Y76299606D01*
X14350920Y76208394D01*
X14355314Y76204000D01*
X13394391Y76204000D01*
X13403009Y76149586D01*
X13466244Y75954970D01*
X13559140Y75772650D01*
X13679417Y75607105D01*
X13679417Y75607104D01*
X13824104Y75462417D01*
X13989650Y75342140D01*
X14171970Y75249244D01*
X14366586Y75186009D01*
X14421000Y75177390D01*
X14421000Y76138314D01*
X14425394Y76133920D01*
X14516606Y76081259D01*
X14618339Y76054000D01*
X14723661Y76054000D01*
X14825394Y76081259D01*
X14916606Y76133920D01*
X14921000Y76138314D01*
X14921000Y75177390D01*
X14975413Y75186009D01*
X15170029Y75249244D01*
X15352349Y75342140D01*
X15517894Y75462417D01*
X15517895Y75462417D01*
X15662582Y75607104D01*
X15662582Y75607105D01*
X15782859Y75772650D01*
X15875755Y75954970D01*
X15938990Y76149586D01*
X15947609Y76204000D01*
X14986686Y76204000D01*
X14991080Y76208394D01*
X15043741Y76299606D01*
X15071000Y76401339D01*
X15071000Y76506661D01*
X15043741Y76608394D01*
X14991080Y76699606D01*
X14986686Y76704000D01*
X15947609Y76704000D01*
X15938990Y76758413D01*
X15875755Y76953029D01*
X15782859Y77135349D01*
X15662582Y77300894D01*
X15662582Y77300895D01*
X15517895Y77445582D01*
X15352349Y77565859D01*
X15170031Y77658754D01*
X14975421Y77721988D01*
X14921000Y77730606D01*
X14921000Y76769686D01*
X14916606Y76774080D01*
X14825394Y76826741D01*
X14723661Y76854000D01*
X14618339Y76854000D01*
X14516606Y76826741D01*
X14425394Y76774080D01*
X14421000Y76769686D01*
X14421000Y77730607D01*
X14366578Y77721988D01*
X14171968Y77658754D01*
X13989650Y77565859D01*
X13824105Y77445582D01*
X13824104Y77445582D01*
X13679417Y77300895D01*
X13679417Y77300894D01*
X13559140Y77135349D01*
X13466244Y76953029D01*
X13403009Y76758413D01*
X13394391Y76704000D01*
X5158133Y76704000D01*
X5162585Y76738454D01*
X5188423Y76776241D01*
X7216456Y78804274D01*
X7216487Y78804303D01*
X7317598Y78905414D01*
X7394613Y79020676D01*
X7447655Y79148733D01*
X7447657Y79148738D01*
X7474699Y79284687D01*
X7474700Y79284689D01*
X7474700Y80752187D01*
X7494385Y80819226D01*
X7525813Y80852504D01*
X7553072Y80872309D01*
X7686687Y81005924D01*
X7686690Y81005927D01*
X7797760Y81158801D01*
X7852950Y81267118D01*
X7883545Y81327163D01*
X7941940Y81506881D01*
X7971500Y81693513D01*
X7971500Y81882486D01*
X7941940Y82069118D01*
X7933867Y82093963D01*
X7883547Y82248832D01*
X7797760Y82417199D01*
X7686690Y82570073D01*
X7553073Y82703690D01*
X7400199Y82814760D01*
X7231832Y82900547D01*
X7052118Y82958940D01*
X6865486Y82988500D01*
X6865481Y82988500D01*
X6676519Y82988500D01*
X6676514Y82988500D01*
X6489881Y82958940D01*
X6406497Y82931846D01*
X6310168Y82900547D01*
X6310165Y82900545D01*
X6310163Y82900545D01*
X6221347Y82855290D01*
X6141801Y82814760D01*
X5988927Y82703690D01*
X5855310Y82570073D01*
X5770614Y82453499D01*
X5744240Y82417199D01*
X5658454Y82248836D01*
X5600059Y82069118D01*
X5570500Y81882486D01*
X5570500Y81693513D01*
X5600059Y81506881D01*
X5658454Y81327163D01*
X5744240Y81158800D01*
X5772078Y81120485D01*
X5855310Y81005927D01*
X5855312Y81005925D01*
X5855312Y81005924D01*
X5988927Y80872309D01*
X6016187Y80852504D01*
X6058852Y80797173D01*
X6067300Y80752187D01*
X6067300Y79696844D01*
X6047615Y79629805D01*
X6030981Y79609163D01*
X4193241Y77771423D01*
X4131918Y77737938D01*
X4086167Y77736631D01*
X3973352Y77754500D01*
X3768648Y77754500D01*
X3667557Y77738488D01*
X3566465Y77722477D01*
X3476137Y77693127D01*
X3371781Y77659220D01*
X3371778Y77659218D01*
X3371776Y77659218D01*
X3305607Y77625503D01*
X3189390Y77566287D01*
X3189386Y77566284D01*
X3023786Y77445971D01*
X2879028Y77301213D01*
X2774210Y77156940D01*
X2758713Y77135610D01*
X2729691Y77078653D01*
X2665781Y76953223D01*
X2602522Y76758534D01*
X2570500Y76556351D01*
X635500Y76556351D01*
X635500Y86205703D01*
X655185Y86272742D01*
X707989Y86318497D01*
X777147Y86328441D01*
X840703Y86299416D01*
X874061Y86253155D01*
X925786Y86128276D01*
X1002800Y86013016D01*
X1051808Y85964008D01*
X1100817Y85915000D01*
X1100820Y85914997D01*
X3212597Y83803220D01*
X3212600Y83803217D01*
X3261608Y83754208D01*
X3310616Y83705200D01*
X3425876Y83628186D01*
X3553935Y83575143D01*
X3553943Y83575141D01*
X3689889Y83548099D01*
X3689891Y83548099D01*
X3834622Y83548099D01*
X3834642Y83548100D01*
X8964356Y83548100D01*
X9031395Y83528415D01*
X9052037Y83511781D01*
X10540978Y82022838D01*
X10574463Y81961515D01*
X10575770Y81915759D01*
X10570500Y81882485D01*
X10570500Y81693513D01*
X10600059Y81506881D01*
X10658454Y81327163D01*
X10744240Y81158800D01*
X10772078Y81120485D01*
X10855310Y81005927D01*
X10855312Y81005925D01*
X10855312Y81005924D01*
X10988924Y80872312D01*
X11141800Y80761240D01*
X11310163Y80675454D01*
X11489881Y80617059D01*
X11676514Y80587500D01*
X11676519Y80587500D01*
X11865486Y80587500D01*
X12052118Y80617059D01*
X12231836Y80675454D01*
X12400199Y80761240D01*
X12480009Y80819226D01*
X12553073Y80872310D01*
X12686690Y81005927D01*
X12706496Y81033187D01*
X12761827Y81075852D01*
X12806813Y81084300D01*
X13677956Y81084300D01*
X13744995Y81064615D01*
X13765636Y81047981D01*
X16776197Y78037420D01*
X16776200Y78037417D01*
X16874217Y77939400D01*
X16874219Y77939398D01*
X16874221Y77939396D01*
X16971050Y77874698D01*
X16989464Y77862394D01*
X16989476Y77862387D01*
X17117539Y77809342D01*
X17117543Y77809341D01*
X17253489Y77782299D01*
X17253491Y77782299D01*
X17398222Y77782299D01*
X17398242Y77782300D01*
X18395187Y77782300D01*
X18462226Y77762615D01*
X18495504Y77731187D01*
X18515309Y77703927D01*
X18648924Y77570312D01*
X18801800Y77459240D01*
X18970163Y77373454D01*
X19149881Y77315059D01*
X19336514Y77285500D01*
X19336519Y77285500D01*
X19525486Y77285500D01*
X19712118Y77315059D01*
X19891836Y77373454D01*
X20060199Y77459240D01*
X20117284Y77500715D01*
X20213073Y77570310D01*
X20346690Y77703927D01*
X20457760Y77856801D01*
X20457760Y77856802D01*
X20458766Y77858186D01*
X20514096Y77900851D01*
X20559084Y77909300D01*
X23859581Y77909300D01*
X23926620Y77889615D01*
X23959900Y77858184D01*
X24027030Y77765784D01*
X24171786Y77621028D01*
X24337386Y77500715D01*
X24430080Y77453485D01*
X24480876Y77405510D01*
X24497671Y77337689D01*
X24475134Y77271554D01*
X24430080Y77232515D01*
X24337390Y77185287D01*
X24337386Y77185284D01*
X24171786Y77064971D01*
X24027030Y76920215D01*
X23959900Y76827816D01*
X23904570Y76785149D01*
X23859581Y76776700D01*
X22046442Y76776700D01*
X22046422Y76776701D01*
X22040308Y76776701D01*
X21901691Y76776701D01*
X21901689Y76776701D01*
X21809755Y76758413D01*
X21765738Y76749657D01*
X21765736Y76749656D01*
X21765735Y76749656D01*
X21637676Y76696613D01*
X21522414Y76619598D01*
X21421303Y76518487D01*
X21421274Y76518456D01*
X17397837Y72495019D01*
X17336514Y72461534D01*
X17310156Y72458700D01*
X15830419Y72458700D01*
X15763380Y72478385D01*
X15730100Y72509816D01*
X15712689Y72533780D01*
X15662966Y72602219D01*
X15518219Y72746966D01*
X15518215Y72746968D01*
X15518213Y72746971D01*
X15445590Y72799732D01*
X15352610Y72867287D01*
X15170219Y72960220D01*
X14975534Y73023477D01*
X14773352Y73055500D01*
X14568648Y73055500D01*
X14467557Y73039488D01*
X14366465Y73023477D01*
X14298772Y73001482D01*
X14171781Y72960220D01*
X14171778Y72960218D01*
X14171776Y72960218D01*
X14105607Y72926503D01*
X13989390Y72867287D01*
X13989386Y72867284D01*
X13823786Y72746971D01*
X13679028Y72602213D01*
X13558715Y72436613D01*
X13465781Y72254223D01*
X13402522Y72059534D01*
X13370500Y71857351D01*
X13370500Y71652648D01*
X13402522Y71450465D01*
X13465781Y71255776D01*
X13558715Y71073386D01*
X13679028Y70907786D01*
X13823786Y70763028D01*
X13989386Y70642715D01*
X14171776Y70549781D01*
X14366465Y70486522D01*
X14544329Y70458351D01*
X14568648Y70454500D01*
X14568649Y70454500D01*
X14773351Y70454500D01*
X14773352Y70454500D01*
X14800995Y70458878D01*
X14975534Y70486522D01*
X15170223Y70549781D01*
X15295653Y70613691D01*
X15352610Y70642713D01*
X15352613Y70642715D01*
X15518213Y70763028D01*
X15662969Y70907784D01*
X15730100Y71000184D01*
X15785430Y71042851D01*
X15830419Y71051300D01*
X16825300Y71051300D01*
X16892339Y71031615D01*
X16938094Y70978811D01*
X16949300Y70927300D01*
X16949300Y68723419D01*
X16929615Y68656380D01*
X16898185Y68623101D01*
X16805784Y68555969D01*
X16661028Y68411213D01*
X16540715Y68245613D01*
X16447781Y68063223D01*
X16384522Y67868534D01*
X16352500Y67666351D01*
X16352500Y67461648D01*
X16384522Y67259465D01*
X16447781Y67064776D01*
X16540715Y66882386D01*
X16661028Y66716786D01*
X16805786Y66572028D01*
X16971386Y66451715D01*
X17153776Y66358781D01*
X17348465Y66295522D01*
X17526329Y66267351D01*
X17550648Y66263500D01*
X17550649Y66263500D01*
X17755351Y66263500D01*
X17755352Y66263500D01*
X17782995Y66267878D01*
X17957534Y66295522D01*
X18152223Y66358781D01*
X18277653Y66422691D01*
X18334610Y66451713D01*
X18334613Y66451715D01*
X18500213Y66572028D01*
X18644971Y66716786D01*
X18765284Y66882386D01*
X18765287Y66882390D01*
X18824503Y66998607D01*
X18858218Y67064776D01*
X18874909Y67116143D01*
X18921477Y67259466D01*
X18953500Y67461648D01*
X18953500Y67666352D01*
X18921477Y67868534D01*
X18858220Y68063219D01*
X18765287Y68245610D01*
X18697732Y68338590D01*
X18644971Y68411213D01*
X18644968Y68411215D01*
X18644966Y68411219D01*
X18500219Y68555966D01*
X18500215Y68555969D01*
X18407815Y68623101D01*
X18365149Y68678430D01*
X18356700Y68723419D01*
X18356700Y71412156D01*
X18376385Y71479195D01*
X18393019Y71499837D01*
X22226163Y75332981D01*
X22287486Y75366466D01*
X22313844Y75369300D01*
X23859581Y75369300D01*
X23926620Y75349615D01*
X23959900Y75318184D01*
X24027030Y75225784D01*
X24171786Y75081028D01*
X24337388Y74960713D01*
X24430630Y74913203D01*
X24481426Y74865228D01*
X24498220Y74797407D01*
X24475682Y74731272D01*
X24430628Y74692234D01*
X24337652Y74644861D01*
X24172105Y74524582D01*
X24172104Y74524582D01*
X24027417Y74379895D01*
X24027417Y74379894D01*
X23907140Y74214349D01*
X23814244Y74032029D01*
X23751009Y73837413D01*
X23742391Y73783000D01*
X24643722Y73783000D01*
X24599667Y73706694D01*
X24569000Y73592244D01*
X24569000Y73473756D01*
X24599667Y73359306D01*
X24643722Y73283000D01*
X23742391Y73283000D01*
X23751009Y73228586D01*
X23814244Y73033970D01*
X23907140Y72851650D01*
X24027417Y72686105D01*
X24027417Y72686104D01*
X24172104Y72541417D01*
X24337650Y72421140D01*
X24519970Y72328244D01*
X24714586Y72265009D01*
X24769000Y72256390D01*
X24769000Y73157722D01*
X24845306Y73113667D01*
X24959756Y73083000D01*
X25078244Y73083000D01*
X25192694Y73113667D01*
X25269000Y73157722D01*
X25269000Y72256390D01*
X25323413Y72265009D01*
X25518029Y72328244D01*
X25700349Y72421140D01*
X25865894Y72541417D01*
X25865895Y72541417D01*
X26010582Y72686104D01*
X26010582Y72686105D01*
X26130859Y72851650D01*
X26223755Y73033970D01*
X26286990Y73228586D01*
X26295609Y73283000D01*
X25394278Y73283000D01*
X25438333Y73359306D01*
X25469000Y73473756D01*
X25469000Y73592244D01*
X25438333Y73706694D01*
X25394278Y73783000D01*
X26295609Y73783000D01*
X26286990Y73837413D01*
X26223755Y74032029D01*
X26130859Y74214349D01*
X26010582Y74379894D01*
X26010582Y74379895D01*
X25865895Y74524582D01*
X25700347Y74644861D01*
X25607371Y74692234D01*
X25556575Y74740208D01*
X25539779Y74808028D01*
X25562316Y74874164D01*
X25607369Y74913203D01*
X25700611Y74960713D01*
X25866213Y75081028D01*
X26010971Y75225786D01*
X26131284Y75391386D01*
X26131287Y75391390D01*
X26199448Y75525163D01*
X26224218Y75573776D01*
X26235048Y75607105D01*
X26287477Y75768466D01*
X26306968Y75891522D01*
X26319500Y75970648D01*
X26319500Y76175351D01*
X26314962Y76204000D01*
X26287477Y76377534D01*
X26224220Y76572219D01*
X26131287Y76754610D01*
X26059077Y76854000D01*
X26010971Y76920213D01*
X26010968Y76920215D01*
X26010966Y76920219D01*
X25866219Y77064966D01*
X25866215Y77064968D01*
X25866213Y77064971D01*
X25700614Y77185284D01*
X25700610Y77185287D01*
X25607917Y77232516D01*
X25557123Y77280489D01*
X25540328Y77348310D01*
X25562865Y77414445D01*
X25607917Y77453483D01*
X25700610Y77500713D01*
X25700614Y77500715D01*
X25866213Y77621028D01*
X26010971Y77765786D01*
X26131284Y77931386D01*
X26131287Y77931390D01*
X26200079Y78066401D01*
X26224218Y78113776D01*
X26240673Y78164417D01*
X26287477Y78308466D01*
X26319500Y78510648D01*
X26319500Y78715352D01*
X26287477Y78917534D01*
X26224220Y79112219D01*
X26131287Y79294610D01*
X26053492Y79401687D01*
X26010971Y79460213D01*
X26010968Y79460215D01*
X26010966Y79460219D01*
X25866219Y79604966D01*
X25829930Y79631330D01*
X25787265Y79686658D01*
X25781284Y79756271D01*
X25813889Y79818067D01*
X25874726Y79852426D01*
X25889559Y79854938D01*
X25926480Y79858907D01*
X26061328Y79909202D01*
X26061335Y79909206D01*
X26176544Y79995452D01*
X26176547Y79995455D01*
X26262797Y80110669D01*
X26263146Y80111308D01*
X26263660Y80111822D01*
X26268112Y80117769D01*
X26268967Y80117128D01*
X26312552Y80160712D01*
X26380826Y80175562D01*
X26446289Y80151143D01*
X26459657Y80139559D01*
X27961981Y78637236D01*
X27995466Y78575913D01*
X27998300Y78549555D01*
X27998300Y73052844D01*
X27978615Y72985805D01*
X27961981Y72965163D01*
X25148241Y70151423D01*
X25086918Y70117938D01*
X25041167Y70116631D01*
X24928352Y70134500D01*
X24723648Y70134500D01*
X24622557Y70118488D01*
X24521465Y70102477D01*
X24431137Y70073127D01*
X24326781Y70039220D01*
X24326778Y70039218D01*
X24326776Y70039218D01*
X24260607Y70005503D01*
X24144390Y69946287D01*
X24144386Y69946284D01*
X23978786Y69825971D01*
X23834028Y69681213D01*
X23713715Y69515613D01*
X23620781Y69333223D01*
X23557522Y69138534D01*
X23525500Y68936351D01*
X23525500Y68731648D01*
X23557522Y68529465D01*
X23620781Y68334776D01*
X23713715Y68152386D01*
X23834028Y67986786D01*
X23978786Y67842028D01*
X24144386Y67721715D01*
X24326776Y67628781D01*
X24521465Y67565522D01*
X24699329Y67537351D01*
X24723648Y67533500D01*
X24723649Y67533500D01*
X24928351Y67533500D01*
X24928352Y67533500D01*
X24955995Y67537878D01*
X25130534Y67565522D01*
X25325223Y67628781D01*
X25450653Y67692691D01*
X25507610Y67721713D01*
X25529700Y67737762D01*
X25673213Y67842028D01*
X25817971Y67986786D01*
X25938284Y68152386D01*
X25938287Y68152390D01*
X26004373Y68282091D01*
X26031218Y68334776D01*
X26094477Y68529465D01*
X26126500Y68731648D01*
X26126500Y68936349D01*
X26126500Y68936352D01*
X26108631Y69049165D01*
X26117585Y69118454D01*
X26143423Y69156241D01*
X29147456Y72160274D01*
X29147487Y72160303D01*
X29248598Y72261414D01*
X29325612Y72376675D01*
X29361116Y72462388D01*
X29374632Y72495019D01*
X29378658Y72504738D01*
X29405700Y72640687D01*
X29405701Y72640689D01*
X29405701Y72785422D01*
X29405700Y72785443D01*
X29405700Y78817956D01*
X29405701Y78817982D01*
X29405701Y78961711D01*
X29378658Y79097656D01*
X29378657Y79097660D01*
X29378657Y79097662D01*
X29325611Y79225727D01*
X29318339Y79236611D01*
X29248600Y79340983D01*
X29150583Y79439000D01*
X29150581Y79439001D01*
X29143515Y79446067D01*
X29143511Y79446070D01*
X26995070Y81594511D01*
X26995067Y81594515D01*
X26988001Y81601581D01*
X26988000Y81601583D01*
X26889983Y81699600D01*
X26774727Y81776611D01*
X26774724Y81776612D01*
X26774723Y81776613D01*
X26646664Y81829656D01*
X26646662Y81829657D01*
X26602168Y81838507D01*
X26510710Y81856701D01*
X26510708Y81856701D01*
X26443499Y81856701D01*
X26376460Y81876386D01*
X26330705Y81929190D01*
X26319499Y81980701D01*
X26319499Y82000870D01*
X26319499Y82000873D01*
X26313091Y82060483D01*
X26262796Y82195331D01*
X26176546Y82310546D01*
X26061331Y82396796D01*
X25926483Y82447091D01*
X25866873Y82453500D01*
X24171128Y82453499D01*
X24122757Y82448299D01*
X24111516Y82447091D01*
X23976671Y82396797D01*
X23976664Y82396793D01*
X23861455Y82310547D01*
X23861452Y82310544D01*
X23775206Y82195335D01*
X23775202Y82195328D01*
X23724908Y82060482D01*
X23719778Y82012760D01*
X23718501Y82000876D01*
X23718500Y82000864D01*
X23718500Y81853700D01*
X23698815Y81786661D01*
X23646011Y81740906D01*
X23594500Y81729700D01*
X20466813Y81729700D01*
X20399774Y81749385D01*
X20366496Y81780813D01*
X20362000Y81786999D01*
X20346690Y81808073D01*
X20213073Y81941690D01*
X20060199Y82052760D01*
X19891832Y82138547D01*
X19712118Y82196940D01*
X19679337Y82202132D01*
X19525486Y82226500D01*
X19525481Y82226500D01*
X19336519Y82226500D01*
X19303236Y82221228D01*
X19233948Y82230182D01*
X19196163Y82256017D01*
X15895270Y85556911D01*
X15895267Y85556915D01*
X15888201Y85563981D01*
X15888200Y85563983D01*
X15790183Y85662000D01*
X15674927Y85739011D01*
X15674924Y85739012D01*
X15674923Y85739013D01*
X15546864Y85792056D01*
X15546862Y85792057D01*
X15502368Y85800907D01*
X15410910Y85819101D01*
X15410908Y85819101D01*
X15272292Y85819101D01*
X15266178Y85819101D01*
X15266158Y85819100D01*
X12560244Y85819100D01*
X12493205Y85838785D01*
X12472563Y85855419D01*
X12122279Y86205703D01*
X10937936Y87390044D01*
X10904453Y87451365D01*
X10909437Y87521056D01*
X10911059Y87525177D01*
X10932152Y87576098D01*
X10932154Y87576103D01*
X10932158Y87576113D01*
X10991548Y87797762D01*
X11021500Y88025266D01*
X11021500Y88254734D01*
X11021499Y88254741D01*
X12520500Y88254741D01*
X12520500Y88025258D01*
X12550451Y87797770D01*
X12550453Y87797759D01*
X12609842Y87576112D01*
X12697650Y87364123D01*
X12697657Y87364109D01*
X12812392Y87165382D01*
X12952081Y86983338D01*
X13114338Y86821081D01*
X13296382Y86681392D01*
X13495109Y86566657D01*
X13495123Y86566650D01*
X13707112Y86478842D01*
X13811365Y86450908D01*
X13928762Y86419452D01*
X13928770Y86419451D01*
X14156258Y86389500D01*
X14156266Y86389500D01*
X14385741Y86389500D01*
X14575215Y86414446D01*
X14613238Y86419452D01*
X14834887Y86478842D01*
X14836036Y86479318D01*
X15046876Y86566650D01*
X15046890Y86566657D01*
X15245617Y86681392D01*
X15427661Y86821081D01*
X15427670Y86821089D01*
X15589911Y86983330D01*
X15589918Y86983338D01*
X15590168Y86983663D01*
X15628764Y87033962D01*
X15729607Y87165382D01*
X15729608Y87165385D01*
X15729611Y87165388D01*
X15844344Y87364112D01*
X15844439Y87364340D01*
X15901911Y87503090D01*
X15932158Y87576113D01*
X15991548Y87797762D01*
X16021500Y88025266D01*
X16021500Y88254734D01*
X15991548Y88482238D01*
X15932158Y88703887D01*
X15844344Y88915888D01*
X15729611Y89114612D01*
X15589919Y89296661D01*
X15589914Y89296665D01*
X15589911Y89296670D01*
X15427666Y89458914D01*
X15427661Y89458919D01*
X15423221Y89462326D01*
X15382014Y89518751D01*
X15374700Y89560707D01*
X15374700Y91423580D01*
X15394385Y91490619D01*
X15425815Y91523898D01*
X15518212Y91591028D01*
X15518217Y91591032D01*
X15662971Y91735786D01*
X15783284Y91901386D01*
X15783287Y91901390D01*
X15842503Y92017607D01*
X15876218Y92083776D01*
X15939477Y92278465D01*
X15971500Y92480648D01*
X15971500Y92685351D01*
X15939477Y92887534D01*
X15876220Y93082219D01*
X15783287Y93264610D01*
X15695321Y93385686D01*
X15662971Y93430213D01*
X15662968Y93430215D01*
X15662966Y93430219D01*
X15518219Y93574966D01*
X15518215Y93574969D01*
X15518213Y93574971D01*
X15400815Y93660264D01*
X15352610Y93695287D01*
X15170219Y93788220D01*
X14975534Y93851477D01*
X14773352Y93883500D01*
X14568648Y93883500D01*
X14467557Y93867488D01*
X14366465Y93851477D01*
X14276137Y93822127D01*
X14171781Y93788220D01*
X14171778Y93788218D01*
X14171776Y93788218D01*
X14105607Y93754503D01*
X13989390Y93695287D01*
X13989386Y93695284D01*
X13823786Y93574971D01*
X13679028Y93430213D01*
X13558715Y93264613D01*
X13465781Y93082223D01*
X13402522Y92887534D01*
X13370500Y92685351D01*
X13370500Y92480648D01*
X13402522Y92278465D01*
X13465781Y92083776D01*
X13558715Y91901386D01*
X13679028Y91735786D01*
X13823782Y91591032D01*
X13823787Y91591028D01*
X13916185Y91523898D01*
X13958851Y91468569D01*
X13967300Y91423580D01*
X13967300Y89966023D01*
X13947615Y89898984D01*
X13894811Y89853229D01*
X13875393Y89846248D01*
X13707113Y89801158D01*
X13612918Y89762141D01*
X13495123Y89713349D01*
X13495117Y89713346D01*
X13495112Y89713344D01*
X13296388Y89598611D01*
X13296385Y89598608D01*
X13296382Y89598607D01*
X13192313Y89518751D01*
X13114341Y89458920D01*
X13114338Y89458918D01*
X13114330Y89458911D01*
X12952089Y89296670D01*
X12952081Y89296661D01*
X12812392Y89114617D01*
X12697657Y88915890D01*
X12697650Y88915876D01*
X12619163Y88726390D01*
X12609842Y88703887D01*
X12550452Y88482238D01*
X12550451Y88482229D01*
X12520500Y88254741D01*
X11021499Y88254741D01*
X10991548Y88482238D01*
X10932158Y88703887D01*
X10844344Y88915888D01*
X10729611Y89114612D01*
X10589919Y89296661D01*
X10589914Y89296665D01*
X10589911Y89296670D01*
X10427670Y89458911D01*
X10427665Y89458914D01*
X10427661Y89458919D01*
X10245612Y89598611D01*
X10046888Y89713344D01*
X10046869Y89713351D01*
X10043860Y89714837D01*
X9992439Y89762141D01*
X9974700Y89826051D01*
X9974700Y93112156D01*
X9994385Y93179195D01*
X10011019Y93199837D01*
X12477591Y95666409D01*
X12538914Y95699894D01*
X12603590Y95696659D01*
X12619630Y95691447D01*
X12852903Y95654500D01*
X12852908Y95654500D01*
X13089097Y95654500D01*
X13322368Y95691446D01*
X13546996Y95764433D01*
X13757433Y95871657D01*
X13813874Y95912664D01*
X13948510Y96010483D01*
X14115517Y96177490D01*
X14254343Y96368567D01*
X14305002Y96467991D01*
X14361566Y96579003D01*
X14372731Y96613363D01*
X14429341Y96787590D01*
X14434553Y96803631D01*
X14471500Y97036902D01*
X14471500Y97273097D01*
X14434553Y97506368D01*
X14361568Y97730992D01*
X14254343Y97941433D01*
X14115517Y98132510D01*
X13948510Y98299517D01*
X13757433Y98438343D01*
X13742404Y98446000D01*
X13691610Y98493971D01*
X13674700Y98556484D01*
X13674700Y99975500D01*
X13694385Y100042539D01*
X13747189Y100088294D01*
X13798699Y100099500D01*
X14018869Y100099500D01*
X14018876Y100099501D01*
X14078483Y100105908D01*
X14213328Y100156202D01*
X14213335Y100156206D01*
X14328544Y100242452D01*
X14328547Y100242455D01*
X14414793Y100357664D01*
X14414797Y100357671D01*
X14465091Y100492517D01*
X14471500Y100552127D01*
X14471499Y102647872D01*
X14465091Y102707483D01*
X14414796Y102842331D01*
X14328546Y102957546D01*
X14213331Y103043796D01*
X14078483Y103094091D01*
X14018873Y103100500D01*
X11923128Y103100499D01*
X11874757Y103095299D01*
X11863516Y103094091D01*
X11728671Y103043797D01*
X11728664Y103043793D01*
X11613455Y102957547D01*
X11613452Y102957544D01*
X11527206Y102842335D01*
X11527202Y102842328D01*
X11476908Y102707482D01*
X11475879Y102697906D01*
X11470501Y102647876D01*
X11470500Y102647864D01*
X11470500Y100552129D01*
X11470501Y100552123D01*
X11476908Y100492516D01*
X11527202Y100357671D01*
X11527206Y100357664D01*
X11613452Y100242455D01*
X11613455Y100242452D01*
X11728664Y100156206D01*
X11728671Y100156202D01*
X11863517Y100105908D01*
X11863516Y100105908D01*
X11923116Y100099501D01*
X11923119Y100099500D01*
X11923127Y100099500D01*
X12143300Y100099500D01*
X12210339Y100079815D01*
X12256094Y100027011D01*
X12267300Y99975500D01*
X12267300Y98556484D01*
X12247615Y98489445D01*
X12199595Y98446000D01*
X12184567Y98438343D01*
X11993490Y98299517D01*
X11826483Y98132510D01*
X11687657Y97941433D01*
X11580433Y97730996D01*
X11507446Y97506368D01*
X11470500Y97273097D01*
X11470500Y97036902D01*
X11507447Y96803630D01*
X11512659Y96787590D01*
X11514654Y96717749D01*
X11482409Y96661591D01*
X8826758Y94005940D01*
X8826736Y94005920D01*
X8724401Y93903585D01*
X8647386Y93788323D01*
X8594343Y93660264D01*
X8594341Y93660256D01*
X8567299Y93524310D01*
X8567299Y93380582D01*
X8567300Y93380556D01*
X8567300Y89826051D01*
X8547615Y89759012D01*
X8498140Y89714837D01*
X8495124Y89713349D01*
X8495112Y89713344D01*
X8296388Y89598611D01*
X8296385Y89598608D01*
X8296382Y89598607D01*
X8192313Y89518751D01*
X8114341Y89458920D01*
X8114338Y89458918D01*
X8114330Y89458911D01*
X7952089Y89296670D01*
X7952081Y89296661D01*
X7812392Y89114617D01*
X7697657Y88915890D01*
X7697650Y88915876D01*
X7619163Y88726390D01*
X7609842Y88703887D01*
X7550452Y88482238D01*
X7550451Y88482229D01*
X7520500Y88254741D01*
X7520500Y88025258D01*
X7550451Y87797770D01*
X7550453Y87797759D01*
X7609842Y87576112D01*
X7697650Y87364123D01*
X7697657Y87364109D01*
X7812392Y87165382D01*
X7952081Y86983338D01*
X8114338Y86821081D01*
X8296382Y86681392D01*
X8495109Y86566657D01*
X8495123Y86566650D01*
X8707112Y86478842D01*
X8811365Y86450908D01*
X8928762Y86419452D01*
X8928770Y86419451D01*
X9156258Y86389500D01*
X9156266Y86389500D01*
X9385741Y86389500D01*
X9575215Y86414446D01*
X9613238Y86419452D01*
X9784575Y86465361D01*
X9854425Y86463698D01*
X9904349Y86433267D01*
X10866353Y85471264D01*
X11670797Y84666820D01*
X11670800Y84666817D01*
X11719808Y84617808D01*
X11768816Y84568800D01*
X11884069Y84491791D01*
X11884076Y84491787D01*
X11967912Y84457062D01*
X11967911Y84457061D01*
X12012135Y84438743D01*
X12012143Y84438741D01*
X12148090Y84411699D01*
X12148092Y84411699D01*
X12292823Y84411699D01*
X12292843Y84411700D01*
X14998756Y84411700D01*
X15065795Y84392015D01*
X15086437Y84375381D01*
X18200978Y81260838D01*
X18234463Y81199515D01*
X18235770Y81153759D01*
X18230500Y81120485D01*
X18230500Y80931513D01*
X18260059Y80744881D01*
X18318454Y80565163D01*
X18404240Y80396800D01*
X18458368Y80322300D01*
X18515310Y80243927D01*
X18515312Y80243925D01*
X18515312Y80243924D01*
X18648924Y80110312D01*
X18801800Y79999240D01*
X18970163Y79913454D01*
X19091803Y79873931D01*
X19149478Y79834493D01*
X19176676Y79770134D01*
X19164761Y79701288D01*
X19117516Y79649812D01*
X19091803Y79638069D01*
X18970168Y79598547D01*
X18970165Y79598545D01*
X18970163Y79598545D01*
X18881347Y79553290D01*
X18801801Y79512760D01*
X18648927Y79401690D01*
X18648924Y79401687D01*
X18515309Y79268072D01*
X18495504Y79240813D01*
X18440173Y79198148D01*
X18395187Y79189700D01*
X17665644Y79189700D01*
X17598605Y79209385D01*
X17577963Y79226019D01*
X16844742Y79959240D01*
X14574469Y82229511D01*
X14574467Y82229515D01*
X14567401Y82236581D01*
X14567400Y82236583D01*
X14469383Y82334600D01*
X14354127Y82411611D01*
X14354124Y82411612D01*
X14354123Y82411613D01*
X14253000Y82453499D01*
X14226062Y82464657D01*
X14181568Y82473507D01*
X14090110Y82491701D01*
X14090108Y82491701D01*
X13951492Y82491701D01*
X13945378Y82491701D01*
X13945358Y82491700D01*
X12806813Y82491700D01*
X12739774Y82511385D01*
X12706496Y82542813D01*
X12702000Y82548999D01*
X12686690Y82570073D01*
X12553073Y82703690D01*
X12400199Y82814760D01*
X12231832Y82900547D01*
X12052118Y82958940D01*
X11865486Y82988500D01*
X11865481Y82988500D01*
X11676519Y82988500D01*
X11643236Y82983228D01*
X11573948Y82992182D01*
X11536163Y83018017D01*
X9860870Y84693311D01*
X9860867Y84693315D01*
X9853801Y84700381D01*
X9853800Y84700383D01*
X9755783Y84798400D01*
X9640527Y84875411D01*
X9640524Y84875412D01*
X9640523Y84875413D01*
X9512464Y84928456D01*
X9512462Y84928457D01*
X9467968Y84937307D01*
X9376510Y84955501D01*
X9376508Y84955501D01*
X9237892Y84955501D01*
X9231778Y84955501D01*
X9231758Y84955500D01*
X4102044Y84955500D01*
X4035005Y84975185D01*
X4014363Y84991819D01*
X2289419Y86716763D01*
X2255934Y86778086D01*
X2253100Y86804444D01*
X2253100Y88254741D01*
X2520500Y88254741D01*
X2520500Y88025258D01*
X2550451Y87797770D01*
X2550453Y87797759D01*
X2609842Y87576112D01*
X2697650Y87364123D01*
X2697657Y87364109D01*
X2812392Y87165382D01*
X2952081Y86983338D01*
X3114338Y86821081D01*
X3296382Y86681392D01*
X3495109Y86566657D01*
X3495123Y86566650D01*
X3707112Y86478842D01*
X3811365Y86450908D01*
X3928762Y86419452D01*
X3928770Y86419451D01*
X4156258Y86389500D01*
X4156266Y86389500D01*
X4385741Y86389500D01*
X4575215Y86414446D01*
X4613238Y86419452D01*
X4834887Y86478842D01*
X4836036Y86479318D01*
X5046876Y86566650D01*
X5046890Y86566657D01*
X5245617Y86681392D01*
X5427661Y86821081D01*
X5427670Y86821089D01*
X5589911Y86983330D01*
X5589918Y86983338D01*
X5590168Y86983663D01*
X5628764Y87033962D01*
X5729607Y87165382D01*
X5729608Y87165385D01*
X5729611Y87165388D01*
X5844344Y87364112D01*
X5844439Y87364340D01*
X5901911Y87503090D01*
X5932158Y87576113D01*
X5991548Y87797762D01*
X6021500Y88025266D01*
X6021500Y88254734D01*
X5991548Y88482238D01*
X5932158Y88703887D01*
X5844344Y88915888D01*
X5729611Y89114612D01*
X5589919Y89296661D01*
X5589914Y89296665D01*
X5589911Y89296670D01*
X5427670Y89458911D01*
X5427665Y89458914D01*
X5427661Y89458919D01*
X5245612Y89598611D01*
X5046888Y89713344D01*
X4834887Y89801158D01*
X4613238Y89860548D01*
X4385734Y89890500D01*
X4156266Y89890500D01*
X3928762Y89860548D01*
X3707113Y89801158D01*
X3612918Y89762141D01*
X3495123Y89713349D01*
X3495117Y89713346D01*
X3495112Y89713344D01*
X3296388Y89598611D01*
X3296385Y89598608D01*
X3296382Y89598607D01*
X3192313Y89518751D01*
X3114341Y89458920D01*
X3114338Y89458918D01*
X3114330Y89458911D01*
X2952089Y89296670D01*
X2952081Y89296661D01*
X2812392Y89114617D01*
X2697657Y88915890D01*
X2697650Y88915876D01*
X2619163Y88726390D01*
X2609842Y88703887D01*
X2550452Y88482238D01*
X2550451Y88482229D01*
X2520500Y88254741D01*
X2253100Y88254741D01*
X2253100Y89918556D01*
X2272785Y89985595D01*
X2289419Y90006237D01*
X3548757Y91265575D01*
X3610080Y91299060D01*
X3655836Y91300367D01*
X3768643Y91282500D01*
X3768648Y91282500D01*
X3973351Y91282500D01*
X3973352Y91282500D01*
X4000995Y91286878D01*
X4175534Y91314522D01*
X4370223Y91377781D01*
X4495653Y91441691D01*
X4552610Y91470713D01*
X4574700Y91486762D01*
X4718213Y91591028D01*
X4862971Y91735786D01*
X4983284Y91901386D01*
X4983287Y91901390D01*
X5042503Y92017607D01*
X5076218Y92083776D01*
X5139477Y92278465D01*
X5171500Y92480648D01*
X5171500Y92685351D01*
X5139477Y92887534D01*
X5076220Y93082219D01*
X4983287Y93264610D01*
X4895321Y93385686D01*
X4862971Y93430213D01*
X4862968Y93430215D01*
X4862966Y93430219D01*
X4718219Y93574966D01*
X4718212Y93574971D01*
X4625815Y93642101D01*
X4583149Y93697430D01*
X4574700Y93742419D01*
X4574700Y95112156D01*
X4594385Y95179195D01*
X4611019Y95199837D01*
X5029363Y95618181D01*
X5090686Y95651666D01*
X5117044Y95654500D01*
X6618870Y95654500D01*
X6618876Y95654501D01*
X6678483Y95660908D01*
X6813328Y95711202D01*
X6813335Y95711206D01*
X6928545Y95797453D01*
X6928547Y95797455D01*
X7014793Y95912664D01*
X7014797Y95912671D01*
X7065091Y96047517D01*
X7071500Y96107127D01*
X7071499Y98202872D01*
X7065091Y98262483D01*
X7014796Y98397331D01*
X6928546Y98512546D01*
X6813331Y98598796D01*
X6678483Y98649091D01*
X6618873Y98655500D01*
X6398699Y98655499D01*
X6331661Y98675183D01*
X6285906Y98727987D01*
X6274700Y98779499D01*
X6274700Y100198514D01*
X6294385Y100265553D01*
X6342401Y100308996D01*
X6357427Y100316653D01*
X6357433Y100316657D01*
X6548510Y100455483D01*
X6715517Y100622490D01*
X6854343Y100813567D01*
X6905002Y100912991D01*
X6961566Y101024003D01*
X7034553Y101248631D01*
X7071500Y101481902D01*
X7071500Y101718097D01*
X7034553Y101951368D01*
X6961568Y102175992D01*
X6854343Y102386433D01*
X6715517Y102577510D01*
X6548510Y102744517D01*
X6357433Y102883343D01*
X6146992Y102990568D01*
X5922368Y103063553D01*
X5689097Y103100500D01*
X5689092Y103100500D01*
X5452908Y103100500D01*
X5452903Y103100500D01*
X5219631Y103063553D01*
X5158829Y103043797D01*
X4995008Y102990568D01*
X4995005Y102990566D01*
X4995003Y102990566D01*
X4883991Y102934002D01*
X4784567Y102883343D01*
X4593490Y102744517D01*
X4426483Y102577510D01*
X4287657Y102386433D01*
X4180433Y102175996D01*
X4107446Y101951368D01*
X4070500Y101718097D01*
X4070500Y101481902D01*
X4107446Y101248631D01*
X4180433Y101024003D01*
X4287657Y100813566D01*
X4366862Y100704550D01*
X4426483Y100622490D01*
X4426485Y100622488D01*
X4426485Y100622487D01*
X4593487Y100455485D01*
X4784572Y100316653D01*
X4799599Y100308996D01*
X4850393Y100261020D01*
X4867300Y100198514D01*
X4867300Y98779499D01*
X4847615Y98712460D01*
X4794811Y98666705D01*
X4743300Y98655499D01*
X4523128Y98655499D01*
X4474757Y98650299D01*
X4463516Y98649091D01*
X4328671Y98598797D01*
X4328664Y98598793D01*
X4213455Y98512547D01*
X4213452Y98512544D01*
X4127206Y98397335D01*
X4127202Y98397328D01*
X4076908Y98262482D01*
X4070501Y98202883D01*
X4070501Y98202876D01*
X4070500Y98202864D01*
X4070500Y96701044D01*
X4050815Y96634005D01*
X4034181Y96613363D01*
X3426758Y96005940D01*
X3426736Y96005920D01*
X3324401Y95903585D01*
X3324400Y95903583D01*
X3253487Y95797454D01*
X3247389Y95788327D01*
X3194342Y95660260D01*
X3194341Y95660256D01*
X3167299Y95524310D01*
X3167299Y95380582D01*
X3167300Y95380556D01*
X3167300Y93742419D01*
X3147615Y93675380D01*
X3116185Y93642101D01*
X3023784Y93574969D01*
X2879028Y93430213D01*
X2758715Y93264613D01*
X2665781Y93082223D01*
X2602522Y92887534D01*
X2570500Y92685351D01*
X2570500Y92480642D01*
X2588367Y92367836D01*
X2579413Y92298543D01*
X2553575Y92260757D01*
X1105158Y90812340D01*
X1105136Y90812320D01*
X1002801Y90709985D01*
X943643Y90621448D01*
X943641Y90621444D01*
X938146Y90613220D01*
X925789Y90594727D01*
X873179Y90467715D01*
X872223Y90465629D01*
X850761Y90440930D01*
X830221Y90415440D01*
X827958Y90414686D01*
X826395Y90412888D01*
X794984Y90403712D01*
X763927Y90393375D01*
X761617Y90393964D01*
X759329Y90393296D01*
X727931Y90402562D01*
X696227Y90410654D01*
X694603Y90412397D01*
X692316Y90413073D01*
X670914Y90437840D01*
X648616Y90461791D01*
X648012Y90464346D01*
X646635Y90465940D01*
X645118Y90476591D01*
X635500Y90517296D01*
X635500Y111508500D01*
X655185Y111575539D01*
X707989Y111621294D01*
X759500Y111632500D01*
X6797944Y111632500D01*
X6797945Y111632500D01*
X6927274Y111667153D01*
X7043226Y111734099D01*
X7137901Y111828774D01*
X7204847Y111944726D01*
X7239500Y112074055D01*
X7239500Y114834151D01*
X24399300Y114834151D01*
X24399300Y114629448D01*
X24431322Y114427265D01*
X24494581Y114232576D01*
X24587515Y114050186D01*
X24707828Y113884586D01*
X24707832Y113884582D01*
X24856026Y113736389D01*
X24854889Y113735252D01*
X24889229Y113682636D01*
X24894500Y113646867D01*
X24894500Y111879733D01*
X24874815Y111812694D01*
X24855580Y111790658D01*
X24856027Y111790212D01*
X24852581Y111786766D01*
X24707834Y111642019D01*
X24707831Y111642015D01*
X24707827Y111642011D01*
X24587515Y111476413D01*
X24494581Y111294023D01*
X24431322Y111099334D01*
X24399300Y110897151D01*
X24399300Y110692448D01*
X24431322Y110490265D01*
X24494581Y110295576D01*
X24587515Y110113186D01*
X24707828Y109947586D01*
X24707832Y109947582D01*
X24856026Y109799389D01*
X24854889Y109798252D01*
X24889229Y109745636D01*
X24894500Y109709867D01*
X24894500Y107441649D01*
X24894499Y107441628D01*
X24894499Y107276882D01*
X24905685Y107220652D01*
X24918247Y107157500D01*
X24923659Y107130289D01*
X24925447Y107121302D01*
X24925447Y107121301D01*
X24986148Y106974753D01*
X24986155Y106974740D01*
X25074280Y106842852D01*
X25117779Y106799354D01*
X25186451Y106730682D01*
X25186454Y106730679D01*
X25614181Y106302951D01*
X25647666Y106241628D01*
X25650500Y106215270D01*
X25650500Y105057129D01*
X25650501Y105057123D01*
X25656908Y104997516D01*
X25707202Y104862671D01*
X25707206Y104862664D01*
X25793452Y104747455D01*
X25793455Y104747452D01*
X25908664Y104661206D01*
X25908670Y104661203D01*
X25959963Y104642072D01*
X26015896Y104600200D01*
X26040313Y104534736D01*
X26025461Y104466463D01*
X26004310Y104438209D01*
X25983142Y104417041D01*
X25853613Y104238760D01*
X25753567Y104042410D01*
X25685473Y103832838D01*
X25685473Y103832835D01*
X25673145Y103755000D01*
X26675722Y103755000D01*
X26631667Y103678694D01*
X26601000Y103564244D01*
X26601000Y103445756D01*
X26631667Y103331306D01*
X26675722Y103255000D01*
X25673145Y103255000D01*
X25685473Y103177164D01*
X25685473Y103177161D01*
X25753567Y102967589D01*
X25853613Y102771239D01*
X25983142Y102592958D01*
X26138958Y102437142D01*
X26317239Y102307613D01*
X26513589Y102207567D01*
X26723163Y102139473D01*
X26801000Y102127144D01*
X26801000Y103129722D01*
X26877306Y103085667D01*
X26991756Y103055000D01*
X27110244Y103055000D01*
X27224694Y103085667D01*
X27301000Y103129722D01*
X27301000Y102127144D01*
X27378835Y102139473D01*
X27378838Y102139473D01*
X27588410Y102207567D01*
X27784760Y102307613D01*
X27963041Y102437142D01*
X28118857Y102592958D01*
X28248386Y102771239D01*
X28348432Y102967589D01*
X28416526Y103177161D01*
X28416526Y103177164D01*
X28428855Y103255000D01*
X27426278Y103255000D01*
X27470333Y103331306D01*
X27501000Y103445756D01*
X27501000Y103564244D01*
X27470333Y103678694D01*
X27426278Y103755000D01*
X28428855Y103755000D01*
X28416526Y103832835D01*
X28416526Y103832838D01*
X28348432Y104042410D01*
X28248386Y104238760D01*
X28118857Y104417041D01*
X28097691Y104438207D01*
X28064204Y104499529D01*
X28069187Y104569221D01*
X28111058Y104625156D01*
X28142037Y104642072D01*
X28193328Y104661202D01*
X28193335Y104661206D01*
X28308544Y104747452D01*
X28308547Y104747455D01*
X28394793Y104862664D01*
X28394797Y104862671D01*
X28445091Y104997517D01*
X28447241Y105017517D01*
X28451500Y105057127D01*
X28451499Y106952872D01*
X28445091Y107012483D01*
X28394796Y107147331D01*
X28308546Y107262546D01*
X28193331Y107348796D01*
X28058483Y107399091D01*
X27998873Y107405500D01*
X26840727Y107405499D01*
X26773689Y107425184D01*
X26753047Y107441818D01*
X26696883Y107497982D01*
X26541417Y107653447D01*
X26507934Y107714769D01*
X26505100Y107741127D01*
X26505100Y109709867D01*
X26524785Y109776906D01*
X26544017Y109798945D01*
X26543574Y109799389D01*
X26691771Y109947586D01*
X26812084Y110113186D01*
X26812087Y110113190D01*
X26871303Y110229407D01*
X26905018Y110295576D01*
X26968277Y110490265D01*
X27000300Y110692448D01*
X27000300Y110897151D01*
X26968277Y111099334D01*
X26905020Y111294019D01*
X26812087Y111476410D01*
X26712984Y111612815D01*
X26691772Y111642011D01*
X26691770Y111642013D01*
X26691766Y111642019D01*
X26547019Y111786766D01*
X26547018Y111786766D01*
X26543573Y111790212D01*
X26544714Y111791353D01*
X26510381Y111843932D01*
X26505100Y111879733D01*
X26505100Y113646867D01*
X26524785Y113713906D01*
X26544017Y113735945D01*
X26543574Y113736389D01*
X26691771Y113884586D01*
X26812084Y114050186D01*
X26812087Y114050190D01*
X26871303Y114166407D01*
X26905018Y114232576D01*
X26905081Y114232770D01*
X26968277Y114427266D01*
X27000300Y114629448D01*
X27000300Y114834152D01*
X26976914Y114981800D01*
X35223191Y114981800D01*
X36184114Y114981800D01*
X36179720Y114977406D01*
X36127059Y114886194D01*
X36099800Y114784461D01*
X36099800Y114679139D01*
X36127059Y114577406D01*
X36179720Y114486194D01*
X36184114Y114481800D01*
X35223191Y114481800D01*
X35231809Y114427386D01*
X35295044Y114232770D01*
X35387940Y114050450D01*
X35508217Y113884905D01*
X35508217Y113884904D01*
X35652904Y113740217D01*
X35818450Y113619940D01*
X36000770Y113527044D01*
X36195386Y113463809D01*
X36249800Y113455190D01*
X36249800Y114416114D01*
X36254194Y114411720D01*
X36345406Y114359059D01*
X36447139Y114331800D01*
X36552461Y114331800D01*
X36654194Y114359059D01*
X36745406Y114411720D01*
X36749800Y114416114D01*
X36749800Y113455190D01*
X36804213Y113463809D01*
X36998829Y113527044D01*
X37181149Y113619940D01*
X37346694Y113740217D01*
X37346695Y113740217D01*
X37491382Y113884904D01*
X37491382Y113884905D01*
X37611659Y114050450D01*
X37704555Y114232770D01*
X37746669Y114362381D01*
X37767790Y114427386D01*
X37776409Y114481800D01*
X36815486Y114481800D01*
X36819880Y114486194D01*
X36872541Y114577406D01*
X36899800Y114679139D01*
X36899800Y114784461D01*
X36899120Y114787000D01*
X46526898Y114787000D01*
X47572988Y114787000D01*
X47540075Y114729993D01*
X47506000Y114602826D01*
X47506000Y114471174D01*
X47540075Y114344007D01*
X47572988Y114287000D01*
X46526898Y114287000D01*
X46542934Y114185752D01*
X46615897Y113961197D01*
X46723085Y113750828D01*
X46861866Y113559813D01*
X47028813Y113392866D01*
X47219828Y113254085D01*
X47430197Y113146897D01*
X47654752Y113073934D01*
X47756000Y113057897D01*
X47756000Y114103988D01*
X47813007Y114071075D01*
X47940174Y114037000D01*
X48071826Y114037000D01*
X48198993Y114071075D01*
X48256000Y114103988D01*
X48256000Y113057897D01*
X48357247Y113073934D01*
X48581802Y113146897D01*
X48792171Y113254085D01*
X48983186Y113392866D01*
X49027755Y113437435D01*
X49089078Y113470920D01*
X49158770Y113465936D01*
X49211538Y113428115D01*
X49294890Y113325890D01*
X49452590Y113197304D01*
X49452591Y113197303D01*
X49452593Y113197302D01*
X49632951Y113103091D01*
X49632952Y113103090D01*
X49634112Y113102485D01*
X49684419Y113053998D01*
X49700700Y112992576D01*
X49700700Y112190249D01*
X49700699Y112190228D01*
X49700699Y112025482D01*
X49700698Y112025482D01*
X49731645Y111869908D01*
X49731648Y111869898D01*
X49792348Y111723353D01*
X49792355Y111723340D01*
X49880480Y111591452D01*
X49911922Y111560011D01*
X49992651Y111479282D01*
X52831181Y108640752D01*
X52864666Y108579429D01*
X52867500Y108553071D01*
X52867500Y108355648D01*
X52899522Y108153465D01*
X52962781Y107958776D01*
X53055715Y107776386D01*
X53176028Y107610786D01*
X53320786Y107466028D01*
X53486386Y107345715D01*
X53668776Y107252781D01*
X53863465Y107189522D01*
X54041329Y107161351D01*
X54065648Y107157500D01*
X54065649Y107157500D01*
X54270351Y107157500D01*
X54270352Y107157500D01*
X54297995Y107161878D01*
X54472534Y107189522D01*
X54667223Y107252781D01*
X54820999Y107331135D01*
X54849610Y107345713D01*
X54849613Y107345715D01*
X55015213Y107466028D01*
X55159971Y107610786D01*
X55280284Y107776386D01*
X55280286Y107776389D01*
X55280287Y107776390D01*
X55339503Y107892607D01*
X55373218Y107958776D01*
X55436477Y108153465D01*
X55468500Y108355648D01*
X55468500Y108560351D01*
X55436477Y108762534D01*
X55373220Y108957219D01*
X55280287Y109139610D01*
X55212732Y109232590D01*
X55159971Y109305213D01*
X55159968Y109305215D01*
X55159966Y109305219D01*
X55015219Y109449966D01*
X55015215Y109449968D01*
X55015213Y109449971D01*
X54942590Y109502732D01*
X54849610Y109570287D01*
X54667219Y109663220D01*
X54472534Y109726477D01*
X54270352Y109758500D01*
X54065648Y109758500D01*
X54063757Y109758200D01*
X54063033Y109758294D01*
X54060797Y109758118D01*
X54060760Y109758587D01*
X53994468Y109767150D01*
X53956676Y109792988D01*
X51347617Y112402048D01*
X51314134Y112463369D01*
X51311300Y112489727D01*
X51311300Y112992576D01*
X51330985Y113059615D01*
X51377888Y113102485D01*
X51379047Y113103090D01*
X51379049Y113103091D01*
X51559407Y113197302D01*
X51629046Y113254085D01*
X51717109Y113325890D01*
X51829566Y113463809D01*
X51845698Y113483593D01*
X51939909Y113663951D01*
X51995886Y113859582D01*
X52006500Y113978963D01*
X52006499Y115095036D01*
X51995886Y115214418D01*
X51939909Y115410049D01*
X51845698Y115590407D01*
X51717109Y115748109D01*
X51559407Y115876698D01*
X51379049Y115970909D01*
X51183418Y116026886D01*
X51064037Y116037500D01*
X49947964Y116037499D01*
X49828582Y116026886D01*
X49632951Y115970909D01*
X49452593Y115876698D01*
X49412599Y115844087D01*
X49294888Y115748107D01*
X49211538Y115645885D01*
X49153918Y115606367D01*
X49084079Y115604275D01*
X49027754Y115636565D01*
X48983186Y115681133D01*
X48792171Y115819914D01*
X48581804Y115927102D01*
X48357255Y116000063D01*
X48357249Y116000065D01*
X48256000Y116016100D01*
X48256000Y114970012D01*
X48198993Y115002925D01*
X48071826Y115037000D01*
X47940174Y115037000D01*
X47813007Y115002925D01*
X47756000Y114970012D01*
X47756000Y116016101D01*
X47654750Y116000065D01*
X47654744Y116000063D01*
X47430195Y115927102D01*
X47219828Y115819914D01*
X47028813Y115681133D01*
X46861866Y115514186D01*
X46723085Y115323171D01*
X46615897Y115112802D01*
X46542934Y114888247D01*
X46526898Y114787000D01*
X36899120Y114787000D01*
X36872541Y114886194D01*
X36819880Y114977406D01*
X36815486Y114981800D01*
X37776409Y114981800D01*
X37767790Y115036213D01*
X37704555Y115230829D01*
X37611659Y115413149D01*
X37491382Y115578694D01*
X37491382Y115578695D01*
X37346695Y115723382D01*
X37181149Y115843659D01*
X36998831Y115936554D01*
X36804221Y115999788D01*
X36749800Y116008406D01*
X36749800Y115047486D01*
X36745406Y115051880D01*
X36654194Y115104541D01*
X36552461Y115131800D01*
X36447139Y115131800D01*
X36345406Y115104541D01*
X36254194Y115051880D01*
X36249800Y115047486D01*
X36249800Y116008407D01*
X36195378Y115999788D01*
X36000768Y115936554D01*
X35818450Y115843659D01*
X35652905Y115723382D01*
X35652904Y115723382D01*
X35508217Y115578695D01*
X35508217Y115578694D01*
X35387940Y115413149D01*
X35295044Y115230829D01*
X35231809Y115036213D01*
X35223191Y114981800D01*
X26976914Y114981800D01*
X26968277Y115036334D01*
X26905020Y115231019D01*
X26812087Y115413410D01*
X26738870Y115514186D01*
X26691771Y115579013D01*
X26691768Y115579015D01*
X26691766Y115579019D01*
X26547019Y115723766D01*
X26547015Y115723768D01*
X26547013Y115723771D01*
X26474390Y115776532D01*
X26381410Y115844087D01*
X26199019Y115937020D01*
X26004334Y116000277D01*
X25802152Y116032300D01*
X25597448Y116032300D01*
X25563260Y116026885D01*
X25395265Y116000277D01*
X25304937Y115970927D01*
X25200581Y115937020D01*
X25200578Y115937018D01*
X25200576Y115937018D01*
X25134407Y115903303D01*
X25018190Y115844087D01*
X25018186Y115844084D01*
X24852586Y115723771D01*
X24707828Y115579013D01*
X24587515Y115413413D01*
X24587513Y115413410D01*
X24558491Y115356453D01*
X24494581Y115231023D01*
X24431322Y115036334D01*
X24399300Y114834151D01*
X7239500Y114834151D01*
X7239500Y118112500D01*
X7259185Y118179539D01*
X7311989Y118225294D01*
X7363500Y118236500D01*
X53088500Y118236500D01*
X53155539Y118216815D01*
G37*
%TD.AperFunction*%
%TD*%
M02*
