%TF.GenerationSoftware,KiCad,Pcbnew,9.0.2*%
%TF.CreationDate,2025-07-08T13:19:54-05:00*%
%TF.ProjectId,Big Massive Fuzz,42696720-4d61-4737-9369-76652046757a,rev?*%
%TF.SameCoordinates,Original*%
%TF.FileFunction,Legend,Top*%
%TF.FilePolarity,Positive*%
%FSLAX46Y46*%
G04 Gerber Fmt 4.6, Leading zero omitted, Abs format (unit mm)*
G04 Created by KiCad (PCBNEW 9.0.2) date 2025-07-08 13:19:54*
%MOMM*%
%LPD*%
G01*
G04 APERTURE LIST*
%ADD10C,0.152400*%
%ADD11C,0.150000*%
%ADD12C,0.254000*%
%ADD13C,0.200000*%
%ADD14C,0.250000*%
G04 APERTURE END LIST*
D10*
X50065734Y116391910D02*
X50201200Y116391910D01*
X50201200Y116391910D02*
X50268934Y116425777D01*
X50268934Y116425777D02*
X50302800Y116459643D01*
X50302800Y116459643D02*
X50370534Y116561243D01*
X50370534Y116561243D02*
X50404400Y116696710D01*
X50404400Y116696710D02*
X50404400Y116967643D01*
X50404400Y116967643D02*
X50370534Y117035377D01*
X50370534Y117035377D02*
X50336667Y117069243D01*
X50336667Y117069243D02*
X50268934Y117103110D01*
X50268934Y117103110D02*
X50133467Y117103110D01*
X50133467Y117103110D02*
X50065734Y117069243D01*
X50065734Y117069243D02*
X50031867Y117035377D01*
X50031867Y117035377D02*
X49998000Y116967643D01*
X49998000Y116967643D02*
X49998000Y116798310D01*
X49998000Y116798310D02*
X50031867Y116730577D01*
X50031867Y116730577D02*
X50065734Y116696710D01*
X50065734Y116696710D02*
X50133467Y116662843D01*
X50133467Y116662843D02*
X50268934Y116662843D01*
X50268934Y116662843D02*
X50336667Y116696710D01*
X50336667Y116696710D02*
X50370534Y116730577D01*
X50370534Y116730577D02*
X50404400Y116798310D01*
X50607600Y117103110D02*
X50844667Y116391910D01*
X50844667Y116391910D02*
X51081733Y117103110D01*
X9364133Y32868243D02*
X9296400Y32902110D01*
X9296400Y32902110D02*
X9194800Y32902110D01*
X9194800Y32902110D02*
X9093200Y32868243D01*
X9093200Y32868243D02*
X9025467Y32800510D01*
X9025467Y32800510D02*
X8991600Y32732777D01*
X8991600Y32732777D02*
X8957733Y32597310D01*
X8957733Y32597310D02*
X8957733Y32495710D01*
X8957733Y32495710D02*
X8991600Y32360243D01*
X8991600Y32360243D02*
X9025467Y32292510D01*
X9025467Y32292510D02*
X9093200Y32224777D01*
X9093200Y32224777D02*
X9194800Y32190910D01*
X9194800Y32190910D02*
X9262533Y32190910D01*
X9262533Y32190910D02*
X9364133Y32224777D01*
X9364133Y32224777D02*
X9398000Y32258643D01*
X9398000Y32258643D02*
X9398000Y32495710D01*
X9398000Y32495710D02*
X9262533Y32495710D01*
X9702800Y32190910D02*
X9702800Y32902110D01*
X9702800Y32902110D02*
X10109200Y32190910D01*
X10109200Y32190910D02*
X10109200Y32902110D01*
X10447867Y32190910D02*
X10447867Y32902110D01*
X10447867Y32902110D02*
X10617200Y32902110D01*
X10617200Y32902110D02*
X10718800Y32868243D01*
X10718800Y32868243D02*
X10786534Y32800510D01*
X10786534Y32800510D02*
X10820400Y32732777D01*
X10820400Y32732777D02*
X10854267Y32597310D01*
X10854267Y32597310D02*
X10854267Y32495710D01*
X10854267Y32495710D02*
X10820400Y32360243D01*
X10820400Y32360243D02*
X10786534Y32292510D01*
X10786534Y32292510D02*
X10718800Y32224777D01*
X10718800Y32224777D02*
X10617200Y32190910D01*
X10617200Y32190910D02*
X10447867Y32190910D01*
X45516800Y35382110D02*
X45652266Y35382110D01*
X45652266Y35382110D02*
X45720000Y35348243D01*
X45720000Y35348243D02*
X45787733Y35280510D01*
X45787733Y35280510D02*
X45821600Y35145043D01*
X45821600Y35145043D02*
X45821600Y34907977D01*
X45821600Y34907977D02*
X45787733Y34772510D01*
X45787733Y34772510D02*
X45720000Y34704777D01*
X45720000Y34704777D02*
X45652266Y34670910D01*
X45652266Y34670910D02*
X45516800Y34670910D01*
X45516800Y34670910D02*
X45449066Y34704777D01*
X45449066Y34704777D02*
X45381333Y34772510D01*
X45381333Y34772510D02*
X45347466Y34907977D01*
X45347466Y34907977D02*
X45347466Y35145043D01*
X45347466Y35145043D02*
X45381333Y35280510D01*
X45381333Y35280510D02*
X45449066Y35348243D01*
X45449066Y35348243D02*
X45516800Y35382110D01*
X46126400Y35382110D02*
X46126400Y34806377D01*
X46126400Y34806377D02*
X46160267Y34738643D01*
X46160267Y34738643D02*
X46194133Y34704777D01*
X46194133Y34704777D02*
X46261867Y34670910D01*
X46261867Y34670910D02*
X46397333Y34670910D01*
X46397333Y34670910D02*
X46465067Y34704777D01*
X46465067Y34704777D02*
X46498933Y34738643D01*
X46498933Y34738643D02*
X46532800Y34806377D01*
X46532800Y34806377D02*
X46532800Y35382110D01*
X46769867Y35382110D02*
X47176267Y35382110D01*
X46973067Y34670910D02*
X46973067Y35382110D01*
X45855466Y37170910D02*
X45618399Y37509577D01*
X45449066Y37170910D02*
X45449066Y37882110D01*
X45449066Y37882110D02*
X45719999Y37882110D01*
X45719999Y37882110D02*
X45787733Y37848243D01*
X45787733Y37848243D02*
X45821599Y37814377D01*
X45821599Y37814377D02*
X45855466Y37746643D01*
X45855466Y37746643D02*
X45855466Y37645043D01*
X45855466Y37645043D02*
X45821599Y37577310D01*
X45821599Y37577310D02*
X45787733Y37543443D01*
X45787733Y37543443D02*
X45719999Y37509577D01*
X45719999Y37509577D02*
X45449066Y37509577D01*
X46160266Y37543443D02*
X46397333Y37543443D01*
X46498933Y37170910D02*
X46160266Y37170910D01*
X46160266Y37170910D02*
X46160266Y37882110D01*
X46160266Y37882110D02*
X46498933Y37882110D01*
X46702133Y37882110D02*
X47108533Y37882110D01*
X46905333Y37170910D02*
X46905333Y37882110D01*
X7859358Y118021163D02*
X7762596Y118069544D01*
X7762596Y118069544D02*
X7617453Y118069544D01*
X7617453Y118069544D02*
X7472310Y118021163D01*
X7472310Y118021163D02*
X7375548Y117924401D01*
X7375548Y117924401D02*
X7327167Y117827639D01*
X7327167Y117827639D02*
X7278786Y117634115D01*
X7278786Y117634115D02*
X7278786Y117488972D01*
X7278786Y117488972D02*
X7327167Y117295448D01*
X7327167Y117295448D02*
X7375548Y117198686D01*
X7375548Y117198686D02*
X7472310Y117101925D01*
X7472310Y117101925D02*
X7617453Y117053544D01*
X7617453Y117053544D02*
X7714215Y117053544D01*
X7714215Y117053544D02*
X7859358Y117101925D01*
X7859358Y117101925D02*
X7907739Y117150305D01*
X7907739Y117150305D02*
X7907739Y117488972D01*
X7907739Y117488972D02*
X7714215Y117488972D01*
X8778596Y117730877D02*
X8778596Y117053544D01*
X8343167Y117730877D02*
X8343167Y117198686D01*
X8343167Y117198686D02*
X8391548Y117101925D01*
X8391548Y117101925D02*
X8488310Y117053544D01*
X8488310Y117053544D02*
X8633453Y117053544D01*
X8633453Y117053544D02*
X8730215Y117101925D01*
X8730215Y117101925D02*
X8778596Y117150305D01*
X9262405Y117053544D02*
X9262405Y117730877D01*
X9262405Y118069544D02*
X9214024Y118021163D01*
X9214024Y118021163D02*
X9262405Y117972782D01*
X9262405Y117972782D02*
X9310786Y118021163D01*
X9310786Y118021163D02*
X9262405Y118069544D01*
X9262405Y118069544D02*
X9262405Y117972782D01*
X9601072Y117730877D02*
X9988120Y117730877D01*
X9746215Y118069544D02*
X9746215Y117198686D01*
X9746215Y117198686D02*
X9794596Y117101925D01*
X9794596Y117101925D02*
X9891358Y117053544D01*
X9891358Y117053544D02*
X9988120Y117053544D01*
X10762215Y117053544D02*
X10762215Y117585734D01*
X10762215Y117585734D02*
X10713834Y117682496D01*
X10713834Y117682496D02*
X10617072Y117730877D01*
X10617072Y117730877D02*
X10423548Y117730877D01*
X10423548Y117730877D02*
X10326786Y117682496D01*
X10762215Y117101925D02*
X10665453Y117053544D01*
X10665453Y117053544D02*
X10423548Y117053544D01*
X10423548Y117053544D02*
X10326786Y117101925D01*
X10326786Y117101925D02*
X10278405Y117198686D01*
X10278405Y117198686D02*
X10278405Y117295448D01*
X10278405Y117295448D02*
X10326786Y117392210D01*
X10326786Y117392210D02*
X10423548Y117440591D01*
X10423548Y117440591D02*
X10665453Y117440591D01*
X10665453Y117440591D02*
X10762215Y117488972D01*
X11246024Y117053544D02*
X11246024Y117730877D01*
X11246024Y117537353D02*
X11294405Y117634115D01*
X11294405Y117634115D02*
X11342786Y117682496D01*
X11342786Y117682496D02*
X11439548Y117730877D01*
X11439548Y117730877D02*
X11536310Y117730877D01*
X11874976Y117053544D02*
X11874976Y118069544D01*
X11874976Y118069544D02*
X12262024Y118069544D01*
X12262024Y118069544D02*
X12358786Y118021163D01*
X12358786Y118021163D02*
X12407167Y117972782D01*
X12407167Y117972782D02*
X12455548Y117876020D01*
X12455548Y117876020D02*
X12455548Y117730877D01*
X12455548Y117730877D02*
X12407167Y117634115D01*
X12407167Y117634115D02*
X12358786Y117585734D01*
X12358786Y117585734D02*
X12262024Y117537353D01*
X12262024Y117537353D02*
X11874976Y117537353D01*
X13278024Y117101925D02*
X13181262Y117053544D01*
X13181262Y117053544D02*
X12987738Y117053544D01*
X12987738Y117053544D02*
X12890976Y117101925D01*
X12890976Y117101925D02*
X12842595Y117198686D01*
X12842595Y117198686D02*
X12842595Y117585734D01*
X12842595Y117585734D02*
X12890976Y117682496D01*
X12890976Y117682496D02*
X12987738Y117730877D01*
X12987738Y117730877D02*
X13181262Y117730877D01*
X13181262Y117730877D02*
X13278024Y117682496D01*
X13278024Y117682496D02*
X13326405Y117585734D01*
X13326405Y117585734D02*
X13326405Y117488972D01*
X13326405Y117488972D02*
X12842595Y117392210D01*
X14197262Y117053544D02*
X14197262Y118069544D01*
X14197262Y117101925D02*
X14100500Y117053544D01*
X14100500Y117053544D02*
X13906976Y117053544D01*
X13906976Y117053544D02*
X13810214Y117101925D01*
X13810214Y117101925D02*
X13761833Y117150305D01*
X13761833Y117150305D02*
X13713452Y117247067D01*
X13713452Y117247067D02*
X13713452Y117537353D01*
X13713452Y117537353D02*
X13761833Y117634115D01*
X13761833Y117634115D02*
X13810214Y117682496D01*
X13810214Y117682496D02*
X13906976Y117730877D01*
X13906976Y117730877D02*
X14100500Y117730877D01*
X14100500Y117730877D02*
X14197262Y117682496D01*
X15116500Y117053544D02*
X15116500Y117585734D01*
X15116500Y117585734D02*
X15068119Y117682496D01*
X15068119Y117682496D02*
X14971357Y117730877D01*
X14971357Y117730877D02*
X14777833Y117730877D01*
X14777833Y117730877D02*
X14681071Y117682496D01*
X15116500Y117101925D02*
X15019738Y117053544D01*
X15019738Y117053544D02*
X14777833Y117053544D01*
X14777833Y117053544D02*
X14681071Y117101925D01*
X14681071Y117101925D02*
X14632690Y117198686D01*
X14632690Y117198686D02*
X14632690Y117295448D01*
X14632690Y117295448D02*
X14681071Y117392210D01*
X14681071Y117392210D02*
X14777833Y117440591D01*
X14777833Y117440591D02*
X15019738Y117440591D01*
X15019738Y117440591D02*
X15116500Y117488972D01*
X15745452Y117053544D02*
X15648690Y117101925D01*
X15648690Y117101925D02*
X15600309Y117198686D01*
X15600309Y117198686D02*
X15600309Y118069544D01*
X16713071Y117150305D02*
X16664690Y117101925D01*
X16664690Y117101925D02*
X16519547Y117053544D01*
X16519547Y117053544D02*
X16422785Y117053544D01*
X16422785Y117053544D02*
X16277642Y117101925D01*
X16277642Y117101925D02*
X16180880Y117198686D01*
X16180880Y117198686D02*
X16132499Y117295448D01*
X16132499Y117295448D02*
X16084118Y117488972D01*
X16084118Y117488972D02*
X16084118Y117634115D01*
X16084118Y117634115D02*
X16132499Y117827639D01*
X16132499Y117827639D02*
X16180880Y117924401D01*
X16180880Y117924401D02*
X16277642Y118021163D01*
X16277642Y118021163D02*
X16422785Y118069544D01*
X16422785Y118069544D02*
X16519547Y118069544D01*
X16519547Y118069544D02*
X16664690Y118021163D01*
X16664690Y118021163D02*
X16713071Y117972782D01*
X17293642Y117053544D02*
X17196880Y117101925D01*
X17196880Y117101925D02*
X17148499Y117150305D01*
X17148499Y117150305D02*
X17100118Y117247067D01*
X17100118Y117247067D02*
X17100118Y117537353D01*
X17100118Y117537353D02*
X17148499Y117634115D01*
X17148499Y117634115D02*
X17196880Y117682496D01*
X17196880Y117682496D02*
X17293642Y117730877D01*
X17293642Y117730877D02*
X17438785Y117730877D01*
X17438785Y117730877D02*
X17535547Y117682496D01*
X17535547Y117682496D02*
X17583928Y117634115D01*
X17583928Y117634115D02*
X17632309Y117537353D01*
X17632309Y117537353D02*
X17632309Y117247067D01*
X17632309Y117247067D02*
X17583928Y117150305D01*
X17583928Y117150305D02*
X17535547Y117101925D01*
X17535547Y117101925D02*
X17438785Y117053544D01*
X17438785Y117053544D02*
X17293642Y117053544D01*
X18503166Y117730877D02*
X18503166Y117053544D01*
X18067737Y117730877D02*
X18067737Y117198686D01*
X18067737Y117198686D02*
X18116118Y117101925D01*
X18116118Y117101925D02*
X18212880Y117053544D01*
X18212880Y117053544D02*
X18358023Y117053544D01*
X18358023Y117053544D02*
X18454785Y117101925D01*
X18454785Y117101925D02*
X18503166Y117150305D01*
X18986975Y117053544D02*
X18986975Y117730877D01*
X18986975Y117537353D02*
X19035356Y117634115D01*
X19035356Y117634115D02*
X19083737Y117682496D01*
X19083737Y117682496D02*
X19180499Y117730877D01*
X19180499Y117730877D02*
X19277261Y117730877D01*
X19567546Y117101925D02*
X19664308Y117053544D01*
X19664308Y117053544D02*
X19857832Y117053544D01*
X19857832Y117053544D02*
X19954594Y117101925D01*
X19954594Y117101925D02*
X20002975Y117198686D01*
X20002975Y117198686D02*
X20002975Y117247067D01*
X20002975Y117247067D02*
X19954594Y117343829D01*
X19954594Y117343829D02*
X19857832Y117392210D01*
X19857832Y117392210D02*
X19712689Y117392210D01*
X19712689Y117392210D02*
X19615927Y117440591D01*
X19615927Y117440591D02*
X19567546Y117537353D01*
X19567546Y117537353D02*
X19567546Y117585734D01*
X19567546Y117585734D02*
X19615927Y117682496D01*
X19615927Y117682496D02*
X19712689Y117730877D01*
X19712689Y117730877D02*
X19857832Y117730877D01*
X19857832Y117730877D02*
X19954594Y117682496D01*
X20825451Y117101925D02*
X20728689Y117053544D01*
X20728689Y117053544D02*
X20535165Y117053544D01*
X20535165Y117053544D02*
X20438403Y117101925D01*
X20438403Y117101925D02*
X20390022Y117198686D01*
X20390022Y117198686D02*
X20390022Y117585734D01*
X20390022Y117585734D02*
X20438403Y117682496D01*
X20438403Y117682496D02*
X20535165Y117730877D01*
X20535165Y117730877D02*
X20728689Y117730877D01*
X20728689Y117730877D02*
X20825451Y117682496D01*
X20825451Y117682496D02*
X20873832Y117585734D01*
X20873832Y117585734D02*
X20873832Y117488972D01*
X20873832Y117488972D02*
X20390022Y117392210D01*
X22131736Y117827639D02*
X22034975Y117876020D01*
X22034975Y117876020D02*
X21841451Y117876020D01*
X21841451Y117876020D02*
X21744689Y117827639D01*
X21744689Y117827639D02*
X21647927Y117730877D01*
X21647927Y117730877D02*
X21599546Y117634115D01*
X21599546Y117634115D02*
X21599546Y117440591D01*
X21599546Y117440591D02*
X21647927Y117343829D01*
X21647927Y117343829D02*
X21744689Y117247067D01*
X21744689Y117247067D02*
X21841451Y117198686D01*
X21841451Y117198686D02*
X22034975Y117198686D01*
X22034975Y117198686D02*
X22131736Y117247067D01*
X21938213Y118214686D02*
X21696308Y118166305D01*
X21696308Y118166305D02*
X21454403Y118021163D01*
X21454403Y118021163D02*
X21309260Y117779258D01*
X21309260Y117779258D02*
X21260879Y117537353D01*
X21260879Y117537353D02*
X21309260Y117295448D01*
X21309260Y117295448D02*
X21454403Y117053544D01*
X21454403Y117053544D02*
X21696308Y116908401D01*
X21696308Y116908401D02*
X21938213Y116860020D01*
X21938213Y116860020D02*
X22180117Y116908401D01*
X22180117Y116908401D02*
X22422022Y117053544D01*
X22422022Y117053544D02*
X22567165Y117295448D01*
X22567165Y117295448D02*
X22615546Y117537353D01*
X22615546Y117537353D02*
X22567165Y117779258D01*
X22567165Y117779258D02*
X22422022Y118021163D01*
X22422022Y118021163D02*
X22180117Y118166305D01*
X22180117Y118166305D02*
X21938213Y118214686D01*
X49834800Y35402110D02*
X49970266Y35402110D01*
X49970266Y35402110D02*
X50038000Y35368243D01*
X50038000Y35368243D02*
X50105733Y35300510D01*
X50105733Y35300510D02*
X50139600Y35165043D01*
X50139600Y35165043D02*
X50139600Y34927977D01*
X50139600Y34927977D02*
X50105733Y34792510D01*
X50105733Y34792510D02*
X50038000Y34724777D01*
X50038000Y34724777D02*
X49970266Y34690910D01*
X49970266Y34690910D02*
X49834800Y34690910D01*
X49834800Y34690910D02*
X49767066Y34724777D01*
X49767066Y34724777D02*
X49699333Y34792510D01*
X49699333Y34792510D02*
X49665466Y34927977D01*
X49665466Y34927977D02*
X49665466Y35165043D01*
X49665466Y35165043D02*
X49699333Y35300510D01*
X49699333Y35300510D02*
X49767066Y35368243D01*
X49767066Y35368243D02*
X49834800Y35402110D01*
X50444400Y35402110D02*
X50444400Y34826377D01*
X50444400Y34826377D02*
X50478267Y34758643D01*
X50478267Y34758643D02*
X50512133Y34724777D01*
X50512133Y34724777D02*
X50579867Y34690910D01*
X50579867Y34690910D02*
X50715333Y34690910D01*
X50715333Y34690910D02*
X50783067Y34724777D01*
X50783067Y34724777D02*
X50816933Y34758643D01*
X50816933Y34758643D02*
X50850800Y34826377D01*
X50850800Y34826377D02*
X50850800Y35402110D01*
X51087867Y35402110D02*
X51494267Y35402110D01*
X51291067Y34690910D02*
X51291067Y35402110D01*
X13851466Y29750910D02*
X13851466Y30462110D01*
X14190133Y29750910D02*
X14190133Y30462110D01*
X14190133Y30462110D02*
X14596533Y29750910D01*
X14596533Y29750910D02*
X14596533Y30462110D01*
X13682133Y32848243D02*
X13614400Y32882110D01*
X13614400Y32882110D02*
X13512800Y32882110D01*
X13512800Y32882110D02*
X13411200Y32848243D01*
X13411200Y32848243D02*
X13343467Y32780510D01*
X13343467Y32780510D02*
X13309600Y32712777D01*
X13309600Y32712777D02*
X13275733Y32577310D01*
X13275733Y32577310D02*
X13275733Y32475710D01*
X13275733Y32475710D02*
X13309600Y32340243D01*
X13309600Y32340243D02*
X13343467Y32272510D01*
X13343467Y32272510D02*
X13411200Y32204777D01*
X13411200Y32204777D02*
X13512800Y32170910D01*
X13512800Y32170910D02*
X13580533Y32170910D01*
X13580533Y32170910D02*
X13682133Y32204777D01*
X13682133Y32204777D02*
X13716000Y32238643D01*
X13716000Y32238643D02*
X13716000Y32475710D01*
X13716000Y32475710D02*
X13580533Y32475710D01*
X14020800Y32170910D02*
X14020800Y32882110D01*
X14020800Y32882110D02*
X14427200Y32170910D01*
X14427200Y32170910D02*
X14427200Y32882110D01*
X14765867Y32170910D02*
X14765867Y32882110D01*
X14765867Y32882110D02*
X14935200Y32882110D01*
X14935200Y32882110D02*
X15036800Y32848243D01*
X15036800Y32848243D02*
X15104534Y32780510D01*
X15104534Y32780510D02*
X15138400Y32712777D01*
X15138400Y32712777D02*
X15172267Y32577310D01*
X15172267Y32577310D02*
X15172267Y32475710D01*
X15172267Y32475710D02*
X15138400Y32340243D01*
X15138400Y32340243D02*
X15104534Y32272510D01*
X15104534Y32272510D02*
X15036800Y32204777D01*
X15036800Y32204777D02*
X14935200Y32170910D01*
X14935200Y32170910D02*
X14765867Y32170910D01*
X7792834Y115711157D02*
X7937977Y115662776D01*
X7937977Y115662776D02*
X7986358Y115614395D01*
X7986358Y115614395D02*
X8034739Y115517633D01*
X8034739Y115517633D02*
X8034739Y115372490D01*
X8034739Y115372490D02*
X7986358Y115275728D01*
X7986358Y115275728D02*
X7937977Y115227348D01*
X7937977Y115227348D02*
X7841215Y115178967D01*
X7841215Y115178967D02*
X7454167Y115178967D01*
X7454167Y115178967D02*
X7454167Y116194967D01*
X7454167Y116194967D02*
X7792834Y116194967D01*
X7792834Y116194967D02*
X7889596Y116146586D01*
X7889596Y116146586D02*
X7937977Y116098205D01*
X7937977Y116098205D02*
X7986358Y116001443D01*
X7986358Y116001443D02*
X7986358Y115904681D01*
X7986358Y115904681D02*
X7937977Y115807919D01*
X7937977Y115807919D02*
X7889596Y115759538D01*
X7889596Y115759538D02*
X7792834Y115711157D01*
X7792834Y115711157D02*
X7454167Y115711157D01*
X8470167Y115178967D02*
X8470167Y115856300D01*
X8470167Y116194967D02*
X8421786Y116146586D01*
X8421786Y116146586D02*
X8470167Y116098205D01*
X8470167Y116098205D02*
X8518548Y116146586D01*
X8518548Y116146586D02*
X8470167Y116194967D01*
X8470167Y116194967D02*
X8470167Y116098205D01*
X9389406Y115856300D02*
X9389406Y115033824D01*
X9389406Y115033824D02*
X9341025Y114937062D01*
X9341025Y114937062D02*
X9292644Y114888681D01*
X9292644Y114888681D02*
X9195882Y114840300D01*
X9195882Y114840300D02*
X9050739Y114840300D01*
X9050739Y114840300D02*
X8953977Y114888681D01*
X9389406Y115227348D02*
X9292644Y115178967D01*
X9292644Y115178967D02*
X9099120Y115178967D01*
X9099120Y115178967D02*
X9002358Y115227348D01*
X9002358Y115227348D02*
X8953977Y115275728D01*
X8953977Y115275728D02*
X8905596Y115372490D01*
X8905596Y115372490D02*
X8905596Y115662776D01*
X8905596Y115662776D02*
X8953977Y115759538D01*
X8953977Y115759538D02*
X9002358Y115807919D01*
X9002358Y115807919D02*
X9099120Y115856300D01*
X9099120Y115856300D02*
X9292644Y115856300D01*
X9292644Y115856300D02*
X9389406Y115807919D01*
X10647310Y115178967D02*
X10647310Y116194967D01*
X10647310Y116194967D02*
X10985977Y115469252D01*
X10985977Y115469252D02*
X11324644Y116194967D01*
X11324644Y116194967D02*
X11324644Y115178967D01*
X12243882Y115178967D02*
X12243882Y115711157D01*
X12243882Y115711157D02*
X12195501Y115807919D01*
X12195501Y115807919D02*
X12098739Y115856300D01*
X12098739Y115856300D02*
X11905215Y115856300D01*
X11905215Y115856300D02*
X11808453Y115807919D01*
X12243882Y115227348D02*
X12147120Y115178967D01*
X12147120Y115178967D02*
X11905215Y115178967D01*
X11905215Y115178967D02*
X11808453Y115227348D01*
X11808453Y115227348D02*
X11760072Y115324109D01*
X11760072Y115324109D02*
X11760072Y115420871D01*
X11760072Y115420871D02*
X11808453Y115517633D01*
X11808453Y115517633D02*
X11905215Y115566014D01*
X11905215Y115566014D02*
X12147120Y115566014D01*
X12147120Y115566014D02*
X12243882Y115614395D01*
X12679310Y115227348D02*
X12776072Y115178967D01*
X12776072Y115178967D02*
X12969596Y115178967D01*
X12969596Y115178967D02*
X13066358Y115227348D01*
X13066358Y115227348D02*
X13114739Y115324109D01*
X13114739Y115324109D02*
X13114739Y115372490D01*
X13114739Y115372490D02*
X13066358Y115469252D01*
X13066358Y115469252D02*
X12969596Y115517633D01*
X12969596Y115517633D02*
X12824453Y115517633D01*
X12824453Y115517633D02*
X12727691Y115566014D01*
X12727691Y115566014D02*
X12679310Y115662776D01*
X12679310Y115662776D02*
X12679310Y115711157D01*
X12679310Y115711157D02*
X12727691Y115807919D01*
X12727691Y115807919D02*
X12824453Y115856300D01*
X12824453Y115856300D02*
X12969596Y115856300D01*
X12969596Y115856300D02*
X13066358Y115807919D01*
X13501786Y115227348D02*
X13598548Y115178967D01*
X13598548Y115178967D02*
X13792072Y115178967D01*
X13792072Y115178967D02*
X13888834Y115227348D01*
X13888834Y115227348D02*
X13937215Y115324109D01*
X13937215Y115324109D02*
X13937215Y115372490D01*
X13937215Y115372490D02*
X13888834Y115469252D01*
X13888834Y115469252D02*
X13792072Y115517633D01*
X13792072Y115517633D02*
X13646929Y115517633D01*
X13646929Y115517633D02*
X13550167Y115566014D01*
X13550167Y115566014D02*
X13501786Y115662776D01*
X13501786Y115662776D02*
X13501786Y115711157D01*
X13501786Y115711157D02*
X13550167Y115807919D01*
X13550167Y115807919D02*
X13646929Y115856300D01*
X13646929Y115856300D02*
X13792072Y115856300D01*
X13792072Y115856300D02*
X13888834Y115807919D01*
X14372643Y115178967D02*
X14372643Y115856300D01*
X14372643Y116194967D02*
X14324262Y116146586D01*
X14324262Y116146586D02*
X14372643Y116098205D01*
X14372643Y116098205D02*
X14421024Y116146586D01*
X14421024Y116146586D02*
X14372643Y116194967D01*
X14372643Y116194967D02*
X14372643Y116098205D01*
X14759691Y115856300D02*
X15001596Y115178967D01*
X15001596Y115178967D02*
X15243501Y115856300D01*
X16017596Y115227348D02*
X15920834Y115178967D01*
X15920834Y115178967D02*
X15727310Y115178967D01*
X15727310Y115178967D02*
X15630548Y115227348D01*
X15630548Y115227348D02*
X15582167Y115324109D01*
X15582167Y115324109D02*
X15582167Y115711157D01*
X15582167Y115711157D02*
X15630548Y115807919D01*
X15630548Y115807919D02*
X15727310Y115856300D01*
X15727310Y115856300D02*
X15920834Y115856300D01*
X15920834Y115856300D02*
X16017596Y115807919D01*
X16017596Y115807919D02*
X16065977Y115711157D01*
X16065977Y115711157D02*
X16065977Y115614395D01*
X16065977Y115614395D02*
X15582167Y115517633D01*
X17614167Y115711157D02*
X17275500Y115711157D01*
X17275500Y115178967D02*
X17275500Y116194967D01*
X17275500Y116194967D02*
X17759310Y116194967D01*
X18581786Y115856300D02*
X18581786Y115178967D01*
X18146357Y115856300D02*
X18146357Y115324109D01*
X18146357Y115324109D02*
X18194738Y115227348D01*
X18194738Y115227348D02*
X18291500Y115178967D01*
X18291500Y115178967D02*
X18436643Y115178967D01*
X18436643Y115178967D02*
X18533405Y115227348D01*
X18533405Y115227348D02*
X18581786Y115275728D01*
X18968833Y115856300D02*
X19501024Y115856300D01*
X19501024Y115856300D02*
X18968833Y115178967D01*
X18968833Y115178967D02*
X19501024Y115178967D01*
X19791309Y115856300D02*
X20323500Y115856300D01*
X20323500Y115856300D02*
X19791309Y115178967D01*
X19791309Y115178967D02*
X20323500Y115178967D01*
X7357405Y114220597D02*
X7599310Y113543264D01*
X7599310Y113543264D02*
X7841215Y114220597D01*
X8760453Y113543264D02*
X8179881Y113543264D01*
X8470167Y113543264D02*
X8470167Y114559264D01*
X8470167Y114559264D02*
X8373405Y114414121D01*
X8373405Y114414121D02*
X8276643Y114317359D01*
X8276643Y114317359D02*
X8179881Y114268978D01*
X45686133Y32848243D02*
X45618400Y32882110D01*
X45618400Y32882110D02*
X45516800Y32882110D01*
X45516800Y32882110D02*
X45415200Y32848243D01*
X45415200Y32848243D02*
X45347467Y32780510D01*
X45347467Y32780510D02*
X45313600Y32712777D01*
X45313600Y32712777D02*
X45279733Y32577310D01*
X45279733Y32577310D02*
X45279733Y32475710D01*
X45279733Y32475710D02*
X45313600Y32340243D01*
X45313600Y32340243D02*
X45347467Y32272510D01*
X45347467Y32272510D02*
X45415200Y32204777D01*
X45415200Y32204777D02*
X45516800Y32170910D01*
X45516800Y32170910D02*
X45584533Y32170910D01*
X45584533Y32170910D02*
X45686133Y32204777D01*
X45686133Y32204777D02*
X45720000Y32238643D01*
X45720000Y32238643D02*
X45720000Y32475710D01*
X45720000Y32475710D02*
X45584533Y32475710D01*
X46024800Y32170910D02*
X46024800Y32882110D01*
X46024800Y32882110D02*
X46431200Y32170910D01*
X46431200Y32170910D02*
X46431200Y32882110D01*
X46769867Y32170910D02*
X46769867Y32882110D01*
X46769867Y32882110D02*
X46939200Y32882110D01*
X46939200Y32882110D02*
X47040800Y32848243D01*
X47040800Y32848243D02*
X47108534Y32780510D01*
X47108534Y32780510D02*
X47142400Y32712777D01*
X47142400Y32712777D02*
X47176267Y32577310D01*
X47176267Y32577310D02*
X47176267Y32475710D01*
X47176267Y32475710D02*
X47142400Y32340243D01*
X47142400Y32340243D02*
X47108534Y32272510D01*
X47108534Y32272510D02*
X47040800Y32204777D01*
X47040800Y32204777D02*
X46939200Y32170910D01*
X46939200Y32170910D02*
X46769867Y32170910D01*
X47464133Y117069243D02*
X47396400Y117103110D01*
X47396400Y117103110D02*
X47294800Y117103110D01*
X47294800Y117103110D02*
X47193200Y117069243D01*
X47193200Y117069243D02*
X47125467Y117001510D01*
X47125467Y117001510D02*
X47091600Y116933777D01*
X47091600Y116933777D02*
X47057733Y116798310D01*
X47057733Y116798310D02*
X47057733Y116696710D01*
X47057733Y116696710D02*
X47091600Y116561243D01*
X47091600Y116561243D02*
X47125467Y116493510D01*
X47125467Y116493510D02*
X47193200Y116425777D01*
X47193200Y116425777D02*
X47294800Y116391910D01*
X47294800Y116391910D02*
X47362533Y116391910D01*
X47362533Y116391910D02*
X47464133Y116425777D01*
X47464133Y116425777D02*
X47498000Y116459643D01*
X47498000Y116459643D02*
X47498000Y116696710D01*
X47498000Y116696710D02*
X47362533Y116696710D01*
X47802800Y116391910D02*
X47802800Y117103110D01*
X47802800Y117103110D02*
X48209200Y116391910D01*
X48209200Y116391910D02*
X48209200Y117103110D01*
X48547867Y116391910D02*
X48547867Y117103110D01*
X48547867Y117103110D02*
X48717200Y117103110D01*
X48717200Y117103110D02*
X48818800Y117069243D01*
X48818800Y117069243D02*
X48886534Y117001510D01*
X48886534Y117001510D02*
X48920400Y116933777D01*
X48920400Y116933777D02*
X48954267Y116798310D01*
X48954267Y116798310D02*
X48954267Y116696710D01*
X48954267Y116696710D02*
X48920400Y116561243D01*
X48920400Y116561243D02*
X48886534Y116493510D01*
X48886534Y116493510D02*
X48818800Y116425777D01*
X48818800Y116425777D02*
X48717200Y116391910D01*
X48717200Y116391910D02*
X48547867Y116391910D01*
X46007867Y29750910D02*
X45669200Y29750910D01*
X45669200Y29750910D02*
X45669200Y30462110D01*
X46244933Y30021843D02*
X46786800Y30021843D01*
X46515866Y29750910D02*
X46515866Y30292777D01*
X13682133Y35348243D02*
X13614400Y35382110D01*
X13614400Y35382110D02*
X13512800Y35382110D01*
X13512800Y35382110D02*
X13411200Y35348243D01*
X13411200Y35348243D02*
X13343467Y35280510D01*
X13343467Y35280510D02*
X13309600Y35212777D01*
X13309600Y35212777D02*
X13275733Y35077310D01*
X13275733Y35077310D02*
X13275733Y34975710D01*
X13275733Y34975710D02*
X13309600Y34840243D01*
X13309600Y34840243D02*
X13343467Y34772510D01*
X13343467Y34772510D02*
X13411200Y34704777D01*
X13411200Y34704777D02*
X13512800Y34670910D01*
X13512800Y34670910D02*
X13580533Y34670910D01*
X13580533Y34670910D02*
X13682133Y34704777D01*
X13682133Y34704777D02*
X13716000Y34738643D01*
X13716000Y34738643D02*
X13716000Y34975710D01*
X13716000Y34975710D02*
X13580533Y34975710D01*
X14020800Y34670910D02*
X14020800Y35382110D01*
X14020800Y35382110D02*
X14427200Y34670910D01*
X14427200Y34670910D02*
X14427200Y35382110D01*
X14765867Y34670910D02*
X14765867Y35382110D01*
X14765867Y35382110D02*
X14935200Y35382110D01*
X14935200Y35382110D02*
X15036800Y35348243D01*
X15036800Y35348243D02*
X15104534Y35280510D01*
X15104534Y35280510D02*
X15138400Y35212777D01*
X15138400Y35212777D02*
X15172267Y35077310D01*
X15172267Y35077310D02*
X15172267Y34975710D01*
X15172267Y34975710D02*
X15138400Y34840243D01*
X15138400Y34840243D02*
X15104534Y34772510D01*
X15104534Y34772510D02*
X15036800Y34704777D01*
X15036800Y34704777D02*
X14935200Y34670910D01*
X14935200Y34670910D02*
X14765867Y34670910D01*
X50004133Y32868243D02*
X49936400Y32902110D01*
X49936400Y32902110D02*
X49834800Y32902110D01*
X49834800Y32902110D02*
X49733200Y32868243D01*
X49733200Y32868243D02*
X49665467Y32800510D01*
X49665467Y32800510D02*
X49631600Y32732777D01*
X49631600Y32732777D02*
X49597733Y32597310D01*
X49597733Y32597310D02*
X49597733Y32495710D01*
X49597733Y32495710D02*
X49631600Y32360243D01*
X49631600Y32360243D02*
X49665467Y32292510D01*
X49665467Y32292510D02*
X49733200Y32224777D01*
X49733200Y32224777D02*
X49834800Y32190910D01*
X49834800Y32190910D02*
X49902533Y32190910D01*
X49902533Y32190910D02*
X50004133Y32224777D01*
X50004133Y32224777D02*
X50038000Y32258643D01*
X50038000Y32258643D02*
X50038000Y32495710D01*
X50038000Y32495710D02*
X49902533Y32495710D01*
X50342800Y32190910D02*
X50342800Y32902110D01*
X50342800Y32902110D02*
X50749200Y32190910D01*
X50749200Y32190910D02*
X50749200Y32902110D01*
X51087867Y32190910D02*
X51087867Y32902110D01*
X51087867Y32902110D02*
X51257200Y32902110D01*
X51257200Y32902110D02*
X51358800Y32868243D01*
X51358800Y32868243D02*
X51426534Y32800510D01*
X51426534Y32800510D02*
X51460400Y32732777D01*
X51460400Y32732777D02*
X51494267Y32597310D01*
X51494267Y32597310D02*
X51494267Y32495710D01*
X51494267Y32495710D02*
X51460400Y32360243D01*
X51460400Y32360243D02*
X51426534Y32292510D01*
X51426534Y32292510D02*
X51358800Y32224777D01*
X51358800Y32224777D02*
X51257200Y32190910D01*
X51257200Y32190910D02*
X51087867Y32190910D01*
X13292666Y37204777D02*
X13394266Y37170910D01*
X13394266Y37170910D02*
X13563600Y37170910D01*
X13563600Y37170910D02*
X13631333Y37204777D01*
X13631333Y37204777D02*
X13665200Y37238643D01*
X13665200Y37238643D02*
X13699066Y37306377D01*
X13699066Y37306377D02*
X13699066Y37374110D01*
X13699066Y37374110D02*
X13665200Y37441843D01*
X13665200Y37441843D02*
X13631333Y37475710D01*
X13631333Y37475710D02*
X13563600Y37509577D01*
X13563600Y37509577D02*
X13428133Y37543443D01*
X13428133Y37543443D02*
X13360400Y37577310D01*
X13360400Y37577310D02*
X13326533Y37611177D01*
X13326533Y37611177D02*
X13292666Y37678910D01*
X13292666Y37678910D02*
X13292666Y37746643D01*
X13292666Y37746643D02*
X13326533Y37814377D01*
X13326533Y37814377D02*
X13360400Y37848243D01*
X13360400Y37848243D02*
X13428133Y37882110D01*
X13428133Y37882110D02*
X13597466Y37882110D01*
X13597466Y37882110D02*
X13699066Y37848243D01*
X14003866Y37170910D02*
X14003866Y37882110D01*
X14003866Y37882110D02*
X14410266Y37170910D01*
X14410266Y37170910D02*
X14410266Y37882110D01*
X14748933Y37170910D02*
X14748933Y37882110D01*
X14748933Y37882110D02*
X14918266Y37882110D01*
X14918266Y37882110D02*
X15019866Y37848243D01*
X15019866Y37848243D02*
X15087600Y37780510D01*
X15087600Y37780510D02*
X15121466Y37712777D01*
X15121466Y37712777D02*
X15155333Y37577310D01*
X15155333Y37577310D02*
X15155333Y37475710D01*
X15155333Y37475710D02*
X15121466Y37340243D01*
X15121466Y37340243D02*
X15087600Y37272510D01*
X15087600Y37272510D02*
X15019866Y37204777D01*
X15019866Y37204777D02*
X14918266Y37170910D01*
X14918266Y37170910D02*
X14748933Y37170910D01*
X9533466Y29690910D02*
X9533466Y30402110D01*
X9872133Y29690910D02*
X9872133Y30402110D01*
X9872133Y30402110D02*
X10278533Y29690910D01*
X10278533Y29690910D02*
X10278533Y30402110D01*
D11*
X13422333Y62283180D02*
X13089000Y62759371D01*
X12850905Y62283180D02*
X12850905Y63283180D01*
X12850905Y63283180D02*
X13231857Y63283180D01*
X13231857Y63283180D02*
X13327095Y63235561D01*
X13327095Y63235561D02*
X13374714Y63187942D01*
X13374714Y63187942D02*
X13422333Y63092704D01*
X13422333Y63092704D02*
X13422333Y62949847D01*
X13422333Y62949847D02*
X13374714Y62854609D01*
X13374714Y62854609D02*
X13327095Y62806990D01*
X13327095Y62806990D02*
X13231857Y62759371D01*
X13231857Y62759371D02*
X12850905Y62759371D01*
X14279476Y62949847D02*
X14279476Y62283180D01*
X14041381Y63330800D02*
X13803286Y62616514D01*
X13803286Y62616514D02*
X14422333Y62616514D01*
X8455819Y101719142D02*
X7979628Y101385809D01*
X8455819Y101147714D02*
X7455819Y101147714D01*
X7455819Y101147714D02*
X7455819Y101528666D01*
X7455819Y101528666D02*
X7503438Y101623904D01*
X7503438Y101623904D02*
X7551057Y101671523D01*
X7551057Y101671523D02*
X7646295Y101719142D01*
X7646295Y101719142D02*
X7789152Y101719142D01*
X7789152Y101719142D02*
X7884390Y101671523D01*
X7884390Y101671523D02*
X7932009Y101623904D01*
X7932009Y101623904D02*
X7979628Y101528666D01*
X7979628Y101528666D02*
X7979628Y101147714D01*
X8455819Y102671523D02*
X8455819Y102100095D01*
X8455819Y102385809D02*
X7455819Y102385809D01*
X7455819Y102385809D02*
X7598676Y102290571D01*
X7598676Y102290571D02*
X7693914Y102195333D01*
X7693914Y102195333D02*
X7741533Y102100095D01*
X7551057Y103052476D02*
X7503438Y103100095D01*
X7503438Y103100095D02*
X7455819Y103195333D01*
X7455819Y103195333D02*
X7455819Y103433428D01*
X7455819Y103433428D02*
X7503438Y103528666D01*
X7503438Y103528666D02*
X7551057Y103576285D01*
X7551057Y103576285D02*
X7646295Y103623904D01*
X7646295Y103623904D02*
X7741533Y103623904D01*
X7741533Y103623904D02*
X7884390Y103576285D01*
X7884390Y103576285D02*
X8455819Y103004857D01*
X8455819Y103004857D02*
X8455819Y103623904D01*
X16303666Y41566180D02*
X16303666Y40851895D01*
X16303666Y40851895D02*
X16256047Y40709038D01*
X16256047Y40709038D02*
X16160809Y40613800D01*
X16160809Y40613800D02*
X16017952Y40566180D01*
X16017952Y40566180D02*
X15922714Y40566180D01*
X17303666Y40566180D02*
X16732238Y40566180D01*
X17017952Y40566180D02*
X17017952Y41566180D01*
X17017952Y41566180D02*
X16922714Y41423323D01*
X16922714Y41423323D02*
X16827476Y41328085D01*
X16827476Y41328085D02*
X16732238Y41280466D01*
X36649819Y97401142D02*
X36173628Y97067809D01*
X36649819Y96829714D02*
X35649819Y96829714D01*
X35649819Y96829714D02*
X35649819Y97210666D01*
X35649819Y97210666D02*
X35697438Y97305904D01*
X35697438Y97305904D02*
X35745057Y97353523D01*
X35745057Y97353523D02*
X35840295Y97401142D01*
X35840295Y97401142D02*
X35983152Y97401142D01*
X35983152Y97401142D02*
X36078390Y97353523D01*
X36078390Y97353523D02*
X36126009Y97305904D01*
X36126009Y97305904D02*
X36173628Y97210666D01*
X36173628Y97210666D02*
X36173628Y96829714D01*
X36649819Y98353523D02*
X36649819Y97782095D01*
X36649819Y98067809D02*
X35649819Y98067809D01*
X35649819Y98067809D02*
X35792676Y97972571D01*
X35792676Y97972571D02*
X35887914Y97877333D01*
X35887914Y97877333D02*
X35935533Y97782095D01*
X35983152Y99210666D02*
X36649819Y99210666D01*
X35602200Y98972571D02*
X36316485Y98734476D01*
X36316485Y98734476D02*
X36316485Y99353523D01*
X5534819Y77811333D02*
X5058628Y77478000D01*
X5534819Y77239905D02*
X4534819Y77239905D01*
X4534819Y77239905D02*
X4534819Y77620857D01*
X4534819Y77620857D02*
X4582438Y77716095D01*
X4582438Y77716095D02*
X4630057Y77763714D01*
X4630057Y77763714D02*
X4725295Y77811333D01*
X4725295Y77811333D02*
X4868152Y77811333D01*
X4868152Y77811333D02*
X4963390Y77763714D01*
X4963390Y77763714D02*
X5011009Y77716095D01*
X5011009Y77716095D02*
X5058628Y77620857D01*
X5058628Y77620857D02*
X5058628Y77239905D01*
X4534819Y78144667D02*
X4534819Y78811333D01*
X4534819Y78811333D02*
X5534819Y78382762D01*
X9979819Y43521333D02*
X9503628Y43188000D01*
X9979819Y42949905D02*
X8979819Y42949905D01*
X8979819Y42949905D02*
X8979819Y43330857D01*
X8979819Y43330857D02*
X9027438Y43426095D01*
X9027438Y43426095D02*
X9075057Y43473714D01*
X9075057Y43473714D02*
X9170295Y43521333D01*
X9170295Y43521333D02*
X9313152Y43521333D01*
X9313152Y43521333D02*
X9408390Y43473714D01*
X9408390Y43473714D02*
X9456009Y43426095D01*
X9456009Y43426095D02*
X9503628Y43330857D01*
X9503628Y43330857D02*
X9503628Y42949905D01*
X9075057Y43902286D02*
X9027438Y43949905D01*
X9027438Y43949905D02*
X8979819Y44045143D01*
X8979819Y44045143D02*
X8979819Y44283238D01*
X8979819Y44283238D02*
X9027438Y44378476D01*
X9027438Y44378476D02*
X9075057Y44426095D01*
X9075057Y44426095D02*
X9170295Y44473714D01*
X9170295Y44473714D02*
X9265533Y44473714D01*
X9265533Y44473714D02*
X9408390Y44426095D01*
X9408390Y44426095D02*
X9979819Y43854667D01*
X9979819Y43854667D02*
X9979819Y44473714D01*
X36663333Y86635419D02*
X36615714Y86587800D01*
X36615714Y86587800D02*
X36472857Y86540180D01*
X36472857Y86540180D02*
X36377619Y86540180D01*
X36377619Y86540180D02*
X36234762Y86587800D01*
X36234762Y86587800D02*
X36139524Y86683038D01*
X36139524Y86683038D02*
X36091905Y86778276D01*
X36091905Y86778276D02*
X36044286Y86968752D01*
X36044286Y86968752D02*
X36044286Y87111609D01*
X36044286Y87111609D02*
X36091905Y87302085D01*
X36091905Y87302085D02*
X36139524Y87397323D01*
X36139524Y87397323D02*
X36234762Y87492561D01*
X36234762Y87492561D02*
X36377619Y87540180D01*
X36377619Y87540180D02*
X36472857Y87540180D01*
X36472857Y87540180D02*
X36615714Y87492561D01*
X36615714Y87492561D02*
X36663333Y87444942D01*
X37139524Y86540180D02*
X37330000Y86540180D01*
X37330000Y86540180D02*
X37425238Y86587800D01*
X37425238Y86587800D02*
X37472857Y86635419D01*
X37472857Y86635419D02*
X37568095Y86778276D01*
X37568095Y86778276D02*
X37615714Y86968752D01*
X37615714Y86968752D02*
X37615714Y87349704D01*
X37615714Y87349704D02*
X37568095Y87444942D01*
X37568095Y87444942D02*
X37520476Y87492561D01*
X37520476Y87492561D02*
X37425238Y87540180D01*
X37425238Y87540180D02*
X37234762Y87540180D01*
X37234762Y87540180D02*
X37139524Y87492561D01*
X37139524Y87492561D02*
X37091905Y87444942D01*
X37091905Y87444942D02*
X37044286Y87349704D01*
X37044286Y87349704D02*
X37044286Y87111609D01*
X37044286Y87111609D02*
X37091905Y87016371D01*
X37091905Y87016371D02*
X37139524Y86968752D01*
X37139524Y86968752D02*
X37234762Y86921133D01*
X37234762Y86921133D02*
X37425238Y86921133D01*
X37425238Y86921133D02*
X37520476Y86968752D01*
X37520476Y86968752D02*
X37568095Y87016371D01*
X37568095Y87016371D02*
X37615714Y87111609D01*
X6169819Y43521333D02*
X5693628Y43188000D01*
X6169819Y42949905D02*
X5169819Y42949905D01*
X5169819Y42949905D02*
X5169819Y43330857D01*
X5169819Y43330857D02*
X5217438Y43426095D01*
X5217438Y43426095D02*
X5265057Y43473714D01*
X5265057Y43473714D02*
X5360295Y43521333D01*
X5360295Y43521333D02*
X5503152Y43521333D01*
X5503152Y43521333D02*
X5598390Y43473714D01*
X5598390Y43473714D02*
X5646009Y43426095D01*
X5646009Y43426095D02*
X5693628Y43330857D01*
X5693628Y43330857D02*
X5693628Y42949905D01*
X6169819Y44473714D02*
X6169819Y43902286D01*
X6169819Y44188000D02*
X5169819Y44188000D01*
X5169819Y44188000D02*
X5312676Y44092762D01*
X5312676Y44092762D02*
X5407914Y43997524D01*
X5407914Y43997524D02*
X5455533Y43902286D01*
X49522142Y77523180D02*
X49188809Y77999371D01*
X48950714Y77523180D02*
X48950714Y78523180D01*
X48950714Y78523180D02*
X49331666Y78523180D01*
X49331666Y78523180D02*
X49426904Y78475561D01*
X49426904Y78475561D02*
X49474523Y78427942D01*
X49474523Y78427942D02*
X49522142Y78332704D01*
X49522142Y78332704D02*
X49522142Y78189847D01*
X49522142Y78189847D02*
X49474523Y78094609D01*
X49474523Y78094609D02*
X49426904Y78046990D01*
X49426904Y78046990D02*
X49331666Y77999371D01*
X49331666Y77999371D02*
X48950714Y77999371D01*
X49903095Y78427942D02*
X49950714Y78475561D01*
X49950714Y78475561D02*
X50045952Y78523180D01*
X50045952Y78523180D02*
X50284047Y78523180D01*
X50284047Y78523180D02*
X50379285Y78475561D01*
X50379285Y78475561D02*
X50426904Y78427942D01*
X50426904Y78427942D02*
X50474523Y78332704D01*
X50474523Y78332704D02*
X50474523Y78237466D01*
X50474523Y78237466D02*
X50426904Y78094609D01*
X50426904Y78094609D02*
X49855476Y77523180D01*
X49855476Y77523180D02*
X50474523Y77523180D01*
X51379285Y78523180D02*
X50903095Y78523180D01*
X50903095Y78523180D02*
X50855476Y78046990D01*
X50855476Y78046990D02*
X50903095Y78094609D01*
X50903095Y78094609D02*
X50998333Y78142228D01*
X50998333Y78142228D02*
X51236428Y78142228D01*
X51236428Y78142228D02*
X51331666Y78094609D01*
X51331666Y78094609D02*
X51379285Y78046990D01*
X51379285Y78046990D02*
X51426904Y77951752D01*
X51426904Y77951752D02*
X51426904Y77713657D01*
X51426904Y77713657D02*
X51379285Y77618419D01*
X51379285Y77618419D02*
X51331666Y77570800D01*
X51331666Y77570800D02*
X51236428Y77523180D01*
X51236428Y77523180D02*
X50998333Y77523180D01*
X50998333Y77523180D02*
X50903095Y77570800D01*
X50903095Y77570800D02*
X50855476Y77618419D01*
X49522142Y69014180D02*
X49188809Y69490371D01*
X48950714Y69014180D02*
X48950714Y70014180D01*
X48950714Y70014180D02*
X49331666Y70014180D01*
X49331666Y70014180D02*
X49426904Y69966561D01*
X49426904Y69966561D02*
X49474523Y69918942D01*
X49474523Y69918942D02*
X49522142Y69823704D01*
X49522142Y69823704D02*
X49522142Y69680847D01*
X49522142Y69680847D02*
X49474523Y69585609D01*
X49474523Y69585609D02*
X49426904Y69537990D01*
X49426904Y69537990D02*
X49331666Y69490371D01*
X49331666Y69490371D02*
X48950714Y69490371D01*
X49903095Y69918942D02*
X49950714Y69966561D01*
X49950714Y69966561D02*
X50045952Y70014180D01*
X50045952Y70014180D02*
X50284047Y70014180D01*
X50284047Y70014180D02*
X50379285Y69966561D01*
X50379285Y69966561D02*
X50426904Y69918942D01*
X50426904Y69918942D02*
X50474523Y69823704D01*
X50474523Y69823704D02*
X50474523Y69728466D01*
X50474523Y69728466D02*
X50426904Y69585609D01*
X50426904Y69585609D02*
X49855476Y69014180D01*
X49855476Y69014180D02*
X50474523Y69014180D01*
X51331666Y70014180D02*
X51141190Y70014180D01*
X51141190Y70014180D02*
X51045952Y69966561D01*
X51045952Y69966561D02*
X50998333Y69918942D01*
X50998333Y69918942D02*
X50903095Y69776085D01*
X50903095Y69776085D02*
X50855476Y69585609D01*
X50855476Y69585609D02*
X50855476Y69204657D01*
X50855476Y69204657D02*
X50903095Y69109419D01*
X50903095Y69109419D02*
X50950714Y69061800D01*
X50950714Y69061800D02*
X51045952Y69014180D01*
X51045952Y69014180D02*
X51236428Y69014180D01*
X51236428Y69014180D02*
X51331666Y69061800D01*
X51331666Y69061800D02*
X51379285Y69109419D01*
X51379285Y69109419D02*
X51426904Y69204657D01*
X51426904Y69204657D02*
X51426904Y69442752D01*
X51426904Y69442752D02*
X51379285Y69537990D01*
X51379285Y69537990D02*
X51331666Y69585609D01*
X51331666Y69585609D02*
X51236428Y69633228D01*
X51236428Y69633228D02*
X51045952Y69633228D01*
X51045952Y69633228D02*
X50950714Y69585609D01*
X50950714Y69585609D02*
X50903095Y69537990D01*
X50903095Y69537990D02*
X50855476Y69442752D01*
X23391905Y96573180D02*
X23391905Y97573180D01*
X23391905Y97573180D02*
X23630000Y97573180D01*
X23630000Y97573180D02*
X23772857Y97525561D01*
X23772857Y97525561D02*
X23868095Y97430323D01*
X23868095Y97430323D02*
X23915714Y97335085D01*
X23915714Y97335085D02*
X23963333Y97144609D01*
X23963333Y97144609D02*
X23963333Y97001752D01*
X23963333Y97001752D02*
X23915714Y96811276D01*
X23915714Y96811276D02*
X23868095Y96716038D01*
X23868095Y96716038D02*
X23772857Y96620800D01*
X23772857Y96620800D02*
X23630000Y96573180D01*
X23630000Y96573180D02*
X23391905Y96573180D01*
X24915714Y96573180D02*
X24344286Y96573180D01*
X24630000Y96573180D02*
X24630000Y97573180D01*
X24630000Y97573180D02*
X24534762Y97430323D01*
X24534762Y97430323D02*
X24439524Y97335085D01*
X24439524Y97335085D02*
X24344286Y97287466D01*
X7235866Y36816380D02*
X7235866Y36102095D01*
X7235866Y36102095D02*
X7188247Y35959238D01*
X7188247Y35959238D02*
X7093009Y35864000D01*
X7093009Y35864000D02*
X6950152Y35816380D01*
X6950152Y35816380D02*
X6854914Y35816380D01*
X8140628Y36483047D02*
X8140628Y35816380D01*
X7902533Y36864000D02*
X7664438Y36149714D01*
X7664438Y36149714D02*
X8283485Y36149714D01*
X4296580Y64476333D02*
X4344200Y64428714D01*
X4344200Y64428714D02*
X4391819Y64285857D01*
X4391819Y64285857D02*
X4391819Y64190619D01*
X4391819Y64190619D02*
X4344200Y64047762D01*
X4344200Y64047762D02*
X4248961Y63952524D01*
X4248961Y63952524D02*
X4153723Y63904905D01*
X4153723Y63904905D02*
X3963247Y63857286D01*
X3963247Y63857286D02*
X3820390Y63857286D01*
X3820390Y63857286D02*
X3629914Y63904905D01*
X3629914Y63904905D02*
X3534676Y63952524D01*
X3534676Y63952524D02*
X3439438Y64047762D01*
X3439438Y64047762D02*
X3391819Y64190619D01*
X3391819Y64190619D02*
X3391819Y64285857D01*
X3391819Y64285857D02*
X3439438Y64428714D01*
X3439438Y64428714D02*
X3487057Y64476333D01*
X3391819Y64809667D02*
X3391819Y65428714D01*
X3391819Y65428714D02*
X3772771Y65095381D01*
X3772771Y65095381D02*
X3772771Y65238238D01*
X3772771Y65238238D02*
X3820390Y65333476D01*
X3820390Y65333476D02*
X3868009Y65381095D01*
X3868009Y65381095D02*
X3963247Y65428714D01*
X3963247Y65428714D02*
X4201342Y65428714D01*
X4201342Y65428714D02*
X4296580Y65381095D01*
X4296580Y65381095D02*
X4344200Y65333476D01*
X4344200Y65333476D02*
X4391819Y65238238D01*
X4391819Y65238238D02*
X4391819Y64952524D01*
X4391819Y64952524D02*
X4344200Y64857286D01*
X4344200Y64857286D02*
X4296580Y64809667D01*
X29583142Y63807180D02*
X29249809Y64283371D01*
X29011714Y63807180D02*
X29011714Y64807180D01*
X29011714Y64807180D02*
X29392666Y64807180D01*
X29392666Y64807180D02*
X29487904Y64759561D01*
X29487904Y64759561D02*
X29535523Y64711942D01*
X29535523Y64711942D02*
X29583142Y64616704D01*
X29583142Y64616704D02*
X29583142Y64473847D01*
X29583142Y64473847D02*
X29535523Y64378609D01*
X29535523Y64378609D02*
X29487904Y64330990D01*
X29487904Y64330990D02*
X29392666Y64283371D01*
X29392666Y64283371D02*
X29011714Y64283371D01*
X29964095Y64711942D02*
X30011714Y64759561D01*
X30011714Y64759561D02*
X30106952Y64807180D01*
X30106952Y64807180D02*
X30345047Y64807180D01*
X30345047Y64807180D02*
X30440285Y64759561D01*
X30440285Y64759561D02*
X30487904Y64711942D01*
X30487904Y64711942D02*
X30535523Y64616704D01*
X30535523Y64616704D02*
X30535523Y64521466D01*
X30535523Y64521466D02*
X30487904Y64378609D01*
X30487904Y64378609D02*
X29916476Y63807180D01*
X29916476Y63807180D02*
X30535523Y63807180D01*
X30916476Y64711942D02*
X30964095Y64759561D01*
X30964095Y64759561D02*
X31059333Y64807180D01*
X31059333Y64807180D02*
X31297428Y64807180D01*
X31297428Y64807180D02*
X31392666Y64759561D01*
X31392666Y64759561D02*
X31440285Y64711942D01*
X31440285Y64711942D02*
X31487904Y64616704D01*
X31487904Y64616704D02*
X31487904Y64521466D01*
X31487904Y64521466D02*
X31440285Y64378609D01*
X31440285Y64378609D02*
X30868857Y63807180D01*
X30868857Y63807180D02*
X31487904Y63807180D01*
X36218905Y114099180D02*
X36218905Y115099180D01*
X36218905Y115099180D02*
X36457000Y115099180D01*
X36457000Y115099180D02*
X36599857Y115051561D01*
X36599857Y115051561D02*
X36695095Y114956323D01*
X36695095Y114956323D02*
X36742714Y114861085D01*
X36742714Y114861085D02*
X36790333Y114670609D01*
X36790333Y114670609D02*
X36790333Y114527752D01*
X36790333Y114527752D02*
X36742714Y114337276D01*
X36742714Y114337276D02*
X36695095Y114242038D01*
X36695095Y114242038D02*
X36599857Y114146800D01*
X36599857Y114146800D02*
X36457000Y114099180D01*
X36457000Y114099180D02*
X36218905Y114099180D01*
X37647476Y114765847D02*
X37647476Y114099180D01*
X37409381Y115146800D02*
X37171286Y114432514D01*
X37171286Y114432514D02*
X37790333Y114432514D01*
X4518819Y102195333D02*
X4042628Y101862000D01*
X4518819Y101623905D02*
X3518819Y101623905D01*
X3518819Y101623905D02*
X3518819Y102004857D01*
X3518819Y102004857D02*
X3566438Y102100095D01*
X3566438Y102100095D02*
X3614057Y102147714D01*
X3614057Y102147714D02*
X3709295Y102195333D01*
X3709295Y102195333D02*
X3852152Y102195333D01*
X3852152Y102195333D02*
X3947390Y102147714D01*
X3947390Y102147714D02*
X3995009Y102100095D01*
X3995009Y102100095D02*
X4042628Y102004857D01*
X4042628Y102004857D02*
X4042628Y101623905D01*
X3947390Y102766762D02*
X3899771Y102671524D01*
X3899771Y102671524D02*
X3852152Y102623905D01*
X3852152Y102623905D02*
X3756914Y102576286D01*
X3756914Y102576286D02*
X3709295Y102576286D01*
X3709295Y102576286D02*
X3614057Y102623905D01*
X3614057Y102623905D02*
X3566438Y102671524D01*
X3566438Y102671524D02*
X3518819Y102766762D01*
X3518819Y102766762D02*
X3518819Y102957238D01*
X3518819Y102957238D02*
X3566438Y103052476D01*
X3566438Y103052476D02*
X3614057Y103100095D01*
X3614057Y103100095D02*
X3709295Y103147714D01*
X3709295Y103147714D02*
X3756914Y103147714D01*
X3756914Y103147714D02*
X3852152Y103100095D01*
X3852152Y103100095D02*
X3899771Y103052476D01*
X3899771Y103052476D02*
X3947390Y102957238D01*
X3947390Y102957238D02*
X3947390Y102766762D01*
X3947390Y102766762D02*
X3995009Y102671524D01*
X3995009Y102671524D02*
X4042628Y102623905D01*
X4042628Y102623905D02*
X4137866Y102576286D01*
X4137866Y102576286D02*
X4328342Y102576286D01*
X4328342Y102576286D02*
X4423580Y102623905D01*
X4423580Y102623905D02*
X4471200Y102671524D01*
X4471200Y102671524D02*
X4518819Y102766762D01*
X4518819Y102766762D02*
X4518819Y102957238D01*
X4518819Y102957238D02*
X4471200Y103052476D01*
X4471200Y103052476D02*
X4423580Y103100095D01*
X4423580Y103100095D02*
X4328342Y103147714D01*
X4328342Y103147714D02*
X4137866Y103147714D01*
X4137866Y103147714D02*
X4042628Y103100095D01*
X4042628Y103100095D02*
X3995009Y103052476D01*
X3995009Y103052476D02*
X3947390Y102957238D01*
X24234142Y72157419D02*
X24186523Y72109800D01*
X24186523Y72109800D02*
X24043666Y72062180D01*
X24043666Y72062180D02*
X23948428Y72062180D01*
X23948428Y72062180D02*
X23805571Y72109800D01*
X23805571Y72109800D02*
X23710333Y72205038D01*
X23710333Y72205038D02*
X23662714Y72300276D01*
X23662714Y72300276D02*
X23615095Y72490752D01*
X23615095Y72490752D02*
X23615095Y72633609D01*
X23615095Y72633609D02*
X23662714Y72824085D01*
X23662714Y72824085D02*
X23710333Y72919323D01*
X23710333Y72919323D02*
X23805571Y73014561D01*
X23805571Y73014561D02*
X23948428Y73062180D01*
X23948428Y73062180D02*
X24043666Y73062180D01*
X24043666Y73062180D02*
X24186523Y73014561D01*
X24186523Y73014561D02*
X24234142Y72966942D01*
X25186523Y72062180D02*
X24615095Y72062180D01*
X24900809Y72062180D02*
X24900809Y73062180D01*
X24900809Y73062180D02*
X24805571Y72919323D01*
X24805571Y72919323D02*
X24710333Y72824085D01*
X24710333Y72824085D02*
X24615095Y72776466D01*
X26043666Y72728847D02*
X26043666Y72062180D01*
X25805571Y73109800D02*
X25567476Y72395514D01*
X25567476Y72395514D02*
X26186523Y72395514D01*
X10120333Y53012180D02*
X9787000Y53488371D01*
X9548905Y53012180D02*
X9548905Y54012180D01*
X9548905Y54012180D02*
X9929857Y54012180D01*
X9929857Y54012180D02*
X10025095Y53964561D01*
X10025095Y53964561D02*
X10072714Y53916942D01*
X10072714Y53916942D02*
X10120333Y53821704D01*
X10120333Y53821704D02*
X10120333Y53678847D01*
X10120333Y53678847D02*
X10072714Y53583609D01*
X10072714Y53583609D02*
X10025095Y53535990D01*
X10025095Y53535990D02*
X9929857Y53488371D01*
X9929857Y53488371D02*
X9548905Y53488371D01*
X11025095Y54012180D02*
X10548905Y54012180D01*
X10548905Y54012180D02*
X10501286Y53535990D01*
X10501286Y53535990D02*
X10548905Y53583609D01*
X10548905Y53583609D02*
X10644143Y53631228D01*
X10644143Y53631228D02*
X10882238Y53631228D01*
X10882238Y53631228D02*
X10977476Y53583609D01*
X10977476Y53583609D02*
X11025095Y53535990D01*
X11025095Y53535990D02*
X11072714Y53440752D01*
X11072714Y53440752D02*
X11072714Y53202657D01*
X11072714Y53202657D02*
X11025095Y53107419D01*
X11025095Y53107419D02*
X10977476Y53059800D01*
X10977476Y53059800D02*
X10882238Y53012180D01*
X10882238Y53012180D02*
X10644143Y53012180D01*
X10644143Y53012180D02*
X10548905Y53059800D01*
X10548905Y53059800D02*
X10501286Y53107419D01*
X32458819Y97401142D02*
X31982628Y97067809D01*
X32458819Y96829714D02*
X31458819Y96829714D01*
X31458819Y96829714D02*
X31458819Y97210666D01*
X31458819Y97210666D02*
X31506438Y97305904D01*
X31506438Y97305904D02*
X31554057Y97353523D01*
X31554057Y97353523D02*
X31649295Y97401142D01*
X31649295Y97401142D02*
X31792152Y97401142D01*
X31792152Y97401142D02*
X31887390Y97353523D01*
X31887390Y97353523D02*
X31935009Y97305904D01*
X31935009Y97305904D02*
X31982628Y97210666D01*
X31982628Y97210666D02*
X31982628Y96829714D01*
X32458819Y98353523D02*
X32458819Y97782095D01*
X32458819Y98067809D02*
X31458819Y98067809D01*
X31458819Y98067809D02*
X31601676Y97972571D01*
X31601676Y97972571D02*
X31696914Y97877333D01*
X31696914Y97877333D02*
X31744533Y97782095D01*
X31458819Y98686857D02*
X31458819Y99305904D01*
X31458819Y99305904D02*
X31839771Y98972571D01*
X31839771Y98972571D02*
X31839771Y99115428D01*
X31839771Y99115428D02*
X31887390Y99210666D01*
X31887390Y99210666D02*
X31935009Y99258285D01*
X31935009Y99258285D02*
X32030247Y99305904D01*
X32030247Y99305904D02*
X32268342Y99305904D01*
X32268342Y99305904D02*
X32363580Y99258285D01*
X32363580Y99258285D02*
X32411200Y99210666D01*
X32411200Y99210666D02*
X32458819Y99115428D01*
X32458819Y99115428D02*
X32458819Y98829714D01*
X32458819Y98829714D02*
X32411200Y98734476D01*
X32411200Y98734476D02*
X32363580Y98686857D01*
X7453333Y57679419D02*
X7405714Y57631800D01*
X7405714Y57631800D02*
X7262857Y57584180D01*
X7262857Y57584180D02*
X7167619Y57584180D01*
X7167619Y57584180D02*
X7024762Y57631800D01*
X7024762Y57631800D02*
X6929524Y57727038D01*
X6929524Y57727038D02*
X6881905Y57822276D01*
X6881905Y57822276D02*
X6834286Y58012752D01*
X6834286Y58012752D02*
X6834286Y58155609D01*
X6834286Y58155609D02*
X6881905Y58346085D01*
X6881905Y58346085D02*
X6929524Y58441323D01*
X6929524Y58441323D02*
X7024762Y58536561D01*
X7024762Y58536561D02*
X7167619Y58584180D01*
X7167619Y58584180D02*
X7262857Y58584180D01*
X7262857Y58584180D02*
X7405714Y58536561D01*
X7405714Y58536561D02*
X7453333Y58488942D01*
X7834286Y58488942D02*
X7881905Y58536561D01*
X7881905Y58536561D02*
X7977143Y58584180D01*
X7977143Y58584180D02*
X8215238Y58584180D01*
X8215238Y58584180D02*
X8310476Y58536561D01*
X8310476Y58536561D02*
X8358095Y58488942D01*
X8358095Y58488942D02*
X8405714Y58393704D01*
X8405714Y58393704D02*
X8405714Y58298466D01*
X8405714Y58298466D02*
X8358095Y58155609D01*
X8358095Y58155609D02*
X7786667Y57584180D01*
X7786667Y57584180D02*
X8405714Y57584180D01*
X24503142Y109114419D02*
X24455523Y109066800D01*
X24455523Y109066800D02*
X24312666Y109019180D01*
X24312666Y109019180D02*
X24217428Y109019180D01*
X24217428Y109019180D02*
X24074571Y109066800D01*
X24074571Y109066800D02*
X23979333Y109162038D01*
X23979333Y109162038D02*
X23931714Y109257276D01*
X23931714Y109257276D02*
X23884095Y109447752D01*
X23884095Y109447752D02*
X23884095Y109590609D01*
X23884095Y109590609D02*
X23931714Y109781085D01*
X23931714Y109781085D02*
X23979333Y109876323D01*
X23979333Y109876323D02*
X24074571Y109971561D01*
X24074571Y109971561D02*
X24217428Y110019180D01*
X24217428Y110019180D02*
X24312666Y110019180D01*
X24312666Y110019180D02*
X24455523Y109971561D01*
X24455523Y109971561D02*
X24503142Y109923942D01*
X25455523Y109019180D02*
X24884095Y109019180D01*
X25169809Y109019180D02*
X25169809Y110019180D01*
X25169809Y110019180D02*
X25074571Y109876323D01*
X25074571Y109876323D02*
X24979333Y109781085D01*
X24979333Y109781085D02*
X24884095Y109733466D01*
X26074571Y110019180D02*
X26169809Y110019180D01*
X26169809Y110019180D02*
X26265047Y109971561D01*
X26265047Y109971561D02*
X26312666Y109923942D01*
X26312666Y109923942D02*
X26360285Y109828704D01*
X26360285Y109828704D02*
X26407904Y109638228D01*
X26407904Y109638228D02*
X26407904Y109400133D01*
X26407904Y109400133D02*
X26360285Y109209657D01*
X26360285Y109209657D02*
X26312666Y109114419D01*
X26312666Y109114419D02*
X26265047Y109066800D01*
X26265047Y109066800D02*
X26169809Y109019180D01*
X26169809Y109019180D02*
X26074571Y109019180D01*
X26074571Y109019180D02*
X25979333Y109066800D01*
X25979333Y109066800D02*
X25931714Y109114419D01*
X25931714Y109114419D02*
X25884095Y109209657D01*
X25884095Y109209657D02*
X25836476Y109400133D01*
X25836476Y109400133D02*
X25836476Y109638228D01*
X25836476Y109638228D02*
X25884095Y109828704D01*
X25884095Y109828704D02*
X25931714Y109923942D01*
X25931714Y109923942D02*
X25979333Y109971561D01*
X25979333Y109971561D02*
X26074571Y110019180D01*
X27812200Y110437826D02*
X27812200Y111580684D01*
X28383628Y111009255D02*
X27240771Y111009255D01*
X20732761Y79457952D02*
X20637523Y79505571D01*
X20637523Y79505571D02*
X20542285Y79600810D01*
X20542285Y79600810D02*
X20399428Y79743667D01*
X20399428Y79743667D02*
X20304190Y79791286D01*
X20304190Y79791286D02*
X20208952Y79791286D01*
X20256571Y79553190D02*
X20161333Y79600810D01*
X20161333Y79600810D02*
X20066095Y79696048D01*
X20066095Y79696048D02*
X20018476Y79886524D01*
X20018476Y79886524D02*
X20018476Y80219857D01*
X20018476Y80219857D02*
X20066095Y80410333D01*
X20066095Y80410333D02*
X20161333Y80505571D01*
X20161333Y80505571D02*
X20256571Y80553190D01*
X20256571Y80553190D02*
X20447047Y80553190D01*
X20447047Y80553190D02*
X20542285Y80505571D01*
X20542285Y80505571D02*
X20637523Y80410333D01*
X20637523Y80410333D02*
X20685142Y80219857D01*
X20685142Y80219857D02*
X20685142Y79886524D01*
X20685142Y79886524D02*
X20637523Y79696048D01*
X20637523Y79696048D02*
X20542285Y79600810D01*
X20542285Y79600810D02*
X20447047Y79553190D01*
X20447047Y79553190D02*
X20256571Y79553190D01*
X21018476Y80553190D02*
X21637523Y80553190D01*
X21637523Y80553190D02*
X21304190Y80172238D01*
X21304190Y80172238D02*
X21447047Y80172238D01*
X21447047Y80172238D02*
X21542285Y80124619D01*
X21542285Y80124619D02*
X21589904Y80077000D01*
X21589904Y80077000D02*
X21637523Y79981762D01*
X21637523Y79981762D02*
X21637523Y79743667D01*
X21637523Y79743667D02*
X21589904Y79648429D01*
X21589904Y79648429D02*
X21542285Y79600810D01*
X21542285Y79600810D02*
X21447047Y79553190D01*
X21447047Y79553190D02*
X21161333Y79553190D01*
X21161333Y79553190D02*
X21066095Y79600810D01*
X21066095Y79600810D02*
X21018476Y79648429D01*
X12646819Y101719142D02*
X12170628Y101385809D01*
X12646819Y101147714D02*
X11646819Y101147714D01*
X11646819Y101147714D02*
X11646819Y101528666D01*
X11646819Y101528666D02*
X11694438Y101623904D01*
X11694438Y101623904D02*
X11742057Y101671523D01*
X11742057Y101671523D02*
X11837295Y101719142D01*
X11837295Y101719142D02*
X11980152Y101719142D01*
X11980152Y101719142D02*
X12075390Y101671523D01*
X12075390Y101671523D02*
X12123009Y101623904D01*
X12123009Y101623904D02*
X12170628Y101528666D01*
X12170628Y101528666D02*
X12170628Y101147714D01*
X12646819Y102671523D02*
X12646819Y102100095D01*
X12646819Y102385809D02*
X11646819Y102385809D01*
X11646819Y102385809D02*
X11789676Y102290571D01*
X11789676Y102290571D02*
X11884914Y102195333D01*
X11884914Y102195333D02*
X11932533Y102100095D01*
X12646819Y103623904D02*
X12646819Y103052476D01*
X12646819Y103338190D02*
X11646819Y103338190D01*
X11646819Y103338190D02*
X11789676Y103242952D01*
X11789676Y103242952D02*
X11884914Y103147714D01*
X11884914Y103147714D02*
X11932533Y103052476D01*
X25233333Y87016419D02*
X25185714Y86968800D01*
X25185714Y86968800D02*
X25042857Y86921180D01*
X25042857Y86921180D02*
X24947619Y86921180D01*
X24947619Y86921180D02*
X24804762Y86968800D01*
X24804762Y86968800D02*
X24709524Y87064038D01*
X24709524Y87064038D02*
X24661905Y87159276D01*
X24661905Y87159276D02*
X24614286Y87349752D01*
X24614286Y87349752D02*
X24614286Y87492609D01*
X24614286Y87492609D02*
X24661905Y87683085D01*
X24661905Y87683085D02*
X24709524Y87778323D01*
X24709524Y87778323D02*
X24804762Y87873561D01*
X24804762Y87873561D02*
X24947619Y87921180D01*
X24947619Y87921180D02*
X25042857Y87921180D01*
X25042857Y87921180D02*
X25185714Y87873561D01*
X25185714Y87873561D02*
X25233333Y87825942D01*
X25566667Y87921180D02*
X26233333Y87921180D01*
X26233333Y87921180D02*
X25804762Y86921180D01*
X50069761Y56363922D02*
X49974523Y56411541D01*
X49974523Y56411541D02*
X49879285Y56506780D01*
X49879285Y56506780D02*
X49736428Y56649637D01*
X49736428Y56649637D02*
X49641190Y56697256D01*
X49641190Y56697256D02*
X49545952Y56697256D01*
X49593571Y56459160D02*
X49498333Y56506780D01*
X49498333Y56506780D02*
X49403095Y56602018D01*
X49403095Y56602018D02*
X49355476Y56792494D01*
X49355476Y56792494D02*
X49355476Y57125827D01*
X49355476Y57125827D02*
X49403095Y57316303D01*
X49403095Y57316303D02*
X49498333Y57411541D01*
X49498333Y57411541D02*
X49593571Y57459160D01*
X49593571Y57459160D02*
X49784047Y57459160D01*
X49784047Y57459160D02*
X49879285Y57411541D01*
X49879285Y57411541D02*
X49974523Y57316303D01*
X49974523Y57316303D02*
X50022142Y57125827D01*
X50022142Y57125827D02*
X50022142Y56792494D01*
X50022142Y56792494D02*
X49974523Y56602018D01*
X49974523Y56602018D02*
X49879285Y56506780D01*
X49879285Y56506780D02*
X49784047Y56459160D01*
X49784047Y56459160D02*
X49593571Y56459160D01*
X50879285Y57125827D02*
X50879285Y56459160D01*
X50641190Y57506780D02*
X50403095Y56792494D01*
X50403095Y56792494D02*
X51022142Y56792494D01*
X10233819Y77462142D02*
X9757628Y77128809D01*
X10233819Y76890714D02*
X9233819Y76890714D01*
X9233819Y76890714D02*
X9233819Y77271666D01*
X9233819Y77271666D02*
X9281438Y77366904D01*
X9281438Y77366904D02*
X9329057Y77414523D01*
X9329057Y77414523D02*
X9424295Y77462142D01*
X9424295Y77462142D02*
X9567152Y77462142D01*
X9567152Y77462142D02*
X9662390Y77414523D01*
X9662390Y77414523D02*
X9710009Y77366904D01*
X9710009Y77366904D02*
X9757628Y77271666D01*
X9757628Y77271666D02*
X9757628Y76890714D01*
X9329057Y77843095D02*
X9281438Y77890714D01*
X9281438Y77890714D02*
X9233819Y77985952D01*
X9233819Y77985952D02*
X9233819Y78224047D01*
X9233819Y78224047D02*
X9281438Y78319285D01*
X9281438Y78319285D02*
X9329057Y78366904D01*
X9329057Y78366904D02*
X9424295Y78414523D01*
X9424295Y78414523D02*
X9519533Y78414523D01*
X9519533Y78414523D02*
X9662390Y78366904D01*
X9662390Y78366904D02*
X10233819Y77795476D01*
X10233819Y77795476D02*
X10233819Y78414523D01*
X9233819Y79033571D02*
X9233819Y79128809D01*
X9233819Y79128809D02*
X9281438Y79224047D01*
X9281438Y79224047D02*
X9329057Y79271666D01*
X9329057Y79271666D02*
X9424295Y79319285D01*
X9424295Y79319285D02*
X9614771Y79366904D01*
X9614771Y79366904D02*
X9852866Y79366904D01*
X9852866Y79366904D02*
X10043342Y79319285D01*
X10043342Y79319285D02*
X10138580Y79271666D01*
X10138580Y79271666D02*
X10186200Y79224047D01*
X10186200Y79224047D02*
X10233819Y79128809D01*
X10233819Y79128809D02*
X10233819Y79033571D01*
X10233819Y79033571D02*
X10186200Y78938333D01*
X10186200Y78938333D02*
X10138580Y78890714D01*
X10138580Y78890714D02*
X10043342Y78843095D01*
X10043342Y78843095D02*
X9852866Y78795476D01*
X9852866Y78795476D02*
X9614771Y78795476D01*
X9614771Y78795476D02*
X9424295Y78843095D01*
X9424295Y78843095D02*
X9329057Y78890714D01*
X9329057Y78890714D02*
X9281438Y78938333D01*
X9281438Y78938333D02*
X9233819Y79033571D01*
X32123142Y78634419D02*
X32075523Y78586800D01*
X32075523Y78586800D02*
X31932666Y78539180D01*
X31932666Y78539180D02*
X31837428Y78539180D01*
X31837428Y78539180D02*
X31694571Y78586800D01*
X31694571Y78586800D02*
X31599333Y78682038D01*
X31599333Y78682038D02*
X31551714Y78777276D01*
X31551714Y78777276D02*
X31504095Y78967752D01*
X31504095Y78967752D02*
X31504095Y79110609D01*
X31504095Y79110609D02*
X31551714Y79301085D01*
X31551714Y79301085D02*
X31599333Y79396323D01*
X31599333Y79396323D02*
X31694571Y79491561D01*
X31694571Y79491561D02*
X31837428Y79539180D01*
X31837428Y79539180D02*
X31932666Y79539180D01*
X31932666Y79539180D02*
X32075523Y79491561D01*
X32075523Y79491561D02*
X32123142Y79443942D01*
X33075523Y78539180D02*
X32504095Y78539180D01*
X32789809Y78539180D02*
X32789809Y79539180D01*
X32789809Y79539180D02*
X32694571Y79396323D01*
X32694571Y79396323D02*
X32599333Y79301085D01*
X32599333Y79301085D02*
X32504095Y79253466D01*
X34027904Y78539180D02*
X33456476Y78539180D01*
X33742190Y78539180D02*
X33742190Y79539180D01*
X33742190Y79539180D02*
X33646952Y79396323D01*
X33646952Y79396323D02*
X33551714Y79301085D01*
X33551714Y79301085D02*
X33456476Y79253466D01*
X32250142Y74348180D02*
X31916809Y74824371D01*
X31678714Y74348180D02*
X31678714Y75348180D01*
X31678714Y75348180D02*
X32059666Y75348180D01*
X32059666Y75348180D02*
X32154904Y75300561D01*
X32154904Y75300561D02*
X32202523Y75252942D01*
X32202523Y75252942D02*
X32250142Y75157704D01*
X32250142Y75157704D02*
X32250142Y75014847D01*
X32250142Y75014847D02*
X32202523Y74919609D01*
X32202523Y74919609D02*
X32154904Y74871990D01*
X32154904Y74871990D02*
X32059666Y74824371D01*
X32059666Y74824371D02*
X31678714Y74824371D01*
X33202523Y74348180D02*
X32631095Y74348180D01*
X32916809Y74348180D02*
X32916809Y75348180D01*
X32916809Y75348180D02*
X32821571Y75205323D01*
X32821571Y75205323D02*
X32726333Y75110085D01*
X32726333Y75110085D02*
X32631095Y75062466D01*
X34107285Y75348180D02*
X33631095Y75348180D01*
X33631095Y75348180D02*
X33583476Y74871990D01*
X33583476Y74871990D02*
X33631095Y74919609D01*
X33631095Y74919609D02*
X33726333Y74967228D01*
X33726333Y74967228D02*
X33964428Y74967228D01*
X33964428Y74967228D02*
X34059666Y74919609D01*
X34059666Y74919609D02*
X34107285Y74871990D01*
X34107285Y74871990D02*
X34154904Y74776752D01*
X34154904Y74776752D02*
X34154904Y74538657D01*
X34154904Y74538657D02*
X34107285Y74443419D01*
X34107285Y74443419D02*
X34059666Y74395800D01*
X34059666Y74395800D02*
X33964428Y74348180D01*
X33964428Y74348180D02*
X33726333Y74348180D01*
X33726333Y74348180D02*
X33631095Y74395800D01*
X33631095Y74395800D02*
X33583476Y74443419D01*
X43608666Y41439180D02*
X43608666Y40724895D01*
X43608666Y40724895D02*
X43561047Y40582038D01*
X43561047Y40582038D02*
X43465809Y40486800D01*
X43465809Y40486800D02*
X43322952Y40439180D01*
X43322952Y40439180D02*
X43227714Y40439180D01*
X44037238Y41343942D02*
X44084857Y41391561D01*
X44084857Y41391561D02*
X44180095Y41439180D01*
X44180095Y41439180D02*
X44418190Y41439180D01*
X44418190Y41439180D02*
X44513428Y41391561D01*
X44513428Y41391561D02*
X44561047Y41343942D01*
X44561047Y41343942D02*
X44608666Y41248704D01*
X44608666Y41248704D02*
X44608666Y41153466D01*
X44608666Y41153466D02*
X44561047Y41010609D01*
X44561047Y41010609D02*
X43989619Y40439180D01*
X43989619Y40439180D02*
X44608666Y40439180D01*
X49522142Y65077180D02*
X49188809Y65553371D01*
X48950714Y65077180D02*
X48950714Y66077180D01*
X48950714Y66077180D02*
X49331666Y66077180D01*
X49331666Y66077180D02*
X49426904Y66029561D01*
X49426904Y66029561D02*
X49474523Y65981942D01*
X49474523Y65981942D02*
X49522142Y65886704D01*
X49522142Y65886704D02*
X49522142Y65743847D01*
X49522142Y65743847D02*
X49474523Y65648609D01*
X49474523Y65648609D02*
X49426904Y65600990D01*
X49426904Y65600990D02*
X49331666Y65553371D01*
X49331666Y65553371D02*
X48950714Y65553371D01*
X49903095Y65981942D02*
X49950714Y66029561D01*
X49950714Y66029561D02*
X50045952Y66077180D01*
X50045952Y66077180D02*
X50284047Y66077180D01*
X50284047Y66077180D02*
X50379285Y66029561D01*
X50379285Y66029561D02*
X50426904Y65981942D01*
X50426904Y65981942D02*
X50474523Y65886704D01*
X50474523Y65886704D02*
X50474523Y65791466D01*
X50474523Y65791466D02*
X50426904Y65648609D01*
X50426904Y65648609D02*
X49855476Y65077180D01*
X49855476Y65077180D02*
X50474523Y65077180D01*
X50807857Y66077180D02*
X51474523Y66077180D01*
X51474523Y66077180D02*
X51045952Y65077180D01*
X28987761Y89619942D02*
X28892523Y89667561D01*
X28892523Y89667561D02*
X28797285Y89762800D01*
X28797285Y89762800D02*
X28654428Y89905657D01*
X28654428Y89905657D02*
X28559190Y89953276D01*
X28559190Y89953276D02*
X28463952Y89953276D01*
X28511571Y89715180D02*
X28416333Y89762800D01*
X28416333Y89762800D02*
X28321095Y89858038D01*
X28321095Y89858038D02*
X28273476Y90048514D01*
X28273476Y90048514D02*
X28273476Y90381847D01*
X28273476Y90381847D02*
X28321095Y90572323D01*
X28321095Y90572323D02*
X28416333Y90667561D01*
X28416333Y90667561D02*
X28511571Y90715180D01*
X28511571Y90715180D02*
X28702047Y90715180D01*
X28702047Y90715180D02*
X28797285Y90667561D01*
X28797285Y90667561D02*
X28892523Y90572323D01*
X28892523Y90572323D02*
X28940142Y90381847D01*
X28940142Y90381847D02*
X28940142Y90048514D01*
X28940142Y90048514D02*
X28892523Y89858038D01*
X28892523Y89858038D02*
X28797285Y89762800D01*
X28797285Y89762800D02*
X28702047Y89715180D01*
X28702047Y89715180D02*
X28511571Y89715180D01*
X29321095Y90619942D02*
X29368714Y90667561D01*
X29368714Y90667561D02*
X29463952Y90715180D01*
X29463952Y90715180D02*
X29702047Y90715180D01*
X29702047Y90715180D02*
X29797285Y90667561D01*
X29797285Y90667561D02*
X29844904Y90619942D01*
X29844904Y90619942D02*
X29892523Y90524704D01*
X29892523Y90524704D02*
X29892523Y90429466D01*
X29892523Y90429466D02*
X29844904Y90286609D01*
X29844904Y90286609D02*
X29273476Y89715180D01*
X29273476Y89715180D02*
X29892523Y89715180D01*
X36441142Y109146180D02*
X36107809Y109622371D01*
X35869714Y109146180D02*
X35869714Y110146180D01*
X35869714Y110146180D02*
X36250666Y110146180D01*
X36250666Y110146180D02*
X36345904Y110098561D01*
X36345904Y110098561D02*
X36393523Y110050942D01*
X36393523Y110050942D02*
X36441142Y109955704D01*
X36441142Y109955704D02*
X36441142Y109812847D01*
X36441142Y109812847D02*
X36393523Y109717609D01*
X36393523Y109717609D02*
X36345904Y109669990D01*
X36345904Y109669990D02*
X36250666Y109622371D01*
X36250666Y109622371D02*
X35869714Y109622371D01*
X37393523Y109146180D02*
X36822095Y109146180D01*
X37107809Y109146180D02*
X37107809Y110146180D01*
X37107809Y110146180D02*
X37012571Y110003323D01*
X37012571Y110003323D02*
X36917333Y109908085D01*
X36917333Y109908085D02*
X36822095Y109860466D01*
X37726857Y110146180D02*
X38393523Y110146180D01*
X38393523Y110146180D02*
X37964952Y109146180D01*
X52549466Y38949980D02*
X52549466Y38235695D01*
X52549466Y38235695D02*
X52501847Y38092838D01*
X52501847Y38092838D02*
X52406609Y37997600D01*
X52406609Y37997600D02*
X52263752Y37949980D01*
X52263752Y37949980D02*
X52168514Y37949980D01*
X53501847Y38949980D02*
X53025657Y38949980D01*
X53025657Y38949980D02*
X52978038Y38473790D01*
X52978038Y38473790D02*
X53025657Y38521409D01*
X53025657Y38521409D02*
X53120895Y38569028D01*
X53120895Y38569028D02*
X53358990Y38569028D01*
X53358990Y38569028D02*
X53454228Y38521409D01*
X53454228Y38521409D02*
X53501847Y38473790D01*
X53501847Y38473790D02*
X53549466Y38378552D01*
X53549466Y38378552D02*
X53549466Y38140457D01*
X53549466Y38140457D02*
X53501847Y38045219D01*
X53501847Y38045219D02*
X53454228Y37997600D01*
X53454228Y37997600D02*
X53358990Y37949980D01*
X53358990Y37949980D02*
X53120895Y37949980D01*
X53120895Y37949980D02*
X53025657Y37997600D01*
X53025657Y37997600D02*
X52978038Y38045219D01*
X15708333Y92604419D02*
X15660714Y92556800D01*
X15660714Y92556800D02*
X15517857Y92509180D01*
X15517857Y92509180D02*
X15422619Y92509180D01*
X15422619Y92509180D02*
X15279762Y92556800D01*
X15279762Y92556800D02*
X15184524Y92652038D01*
X15184524Y92652038D02*
X15136905Y92747276D01*
X15136905Y92747276D02*
X15089286Y92937752D01*
X15089286Y92937752D02*
X15089286Y93080609D01*
X15089286Y93080609D02*
X15136905Y93271085D01*
X15136905Y93271085D02*
X15184524Y93366323D01*
X15184524Y93366323D02*
X15279762Y93461561D01*
X15279762Y93461561D02*
X15422619Y93509180D01*
X15422619Y93509180D02*
X15517857Y93509180D01*
X15517857Y93509180D02*
X15660714Y93461561D01*
X15660714Y93461561D02*
X15708333Y93413942D01*
X16613095Y93509180D02*
X16136905Y93509180D01*
X16136905Y93509180D02*
X16089286Y93032990D01*
X16089286Y93032990D02*
X16136905Y93080609D01*
X16136905Y93080609D02*
X16232143Y93128228D01*
X16232143Y93128228D02*
X16470238Y93128228D01*
X16470238Y93128228D02*
X16565476Y93080609D01*
X16565476Y93080609D02*
X16613095Y93032990D01*
X16613095Y93032990D02*
X16660714Y92937752D01*
X16660714Y92937752D02*
X16660714Y92699657D01*
X16660714Y92699657D02*
X16613095Y92604419D01*
X16613095Y92604419D02*
X16565476Y92556800D01*
X16565476Y92556800D02*
X16470238Y92509180D01*
X16470238Y92509180D02*
X16232143Y92509180D01*
X16232143Y92509180D02*
X16136905Y92556800D01*
X16136905Y92556800D02*
X16089286Y92604419D01*
X40110580Y57436142D02*
X40158200Y57388523D01*
X40158200Y57388523D02*
X40205819Y57245666D01*
X40205819Y57245666D02*
X40205819Y57150428D01*
X40205819Y57150428D02*
X40158200Y57007571D01*
X40158200Y57007571D02*
X40062961Y56912333D01*
X40062961Y56912333D02*
X39967723Y56864714D01*
X39967723Y56864714D02*
X39777247Y56817095D01*
X39777247Y56817095D02*
X39634390Y56817095D01*
X39634390Y56817095D02*
X39443914Y56864714D01*
X39443914Y56864714D02*
X39348676Y56912333D01*
X39348676Y56912333D02*
X39253438Y57007571D01*
X39253438Y57007571D02*
X39205819Y57150428D01*
X39205819Y57150428D02*
X39205819Y57245666D01*
X39205819Y57245666D02*
X39253438Y57388523D01*
X39253438Y57388523D02*
X39301057Y57436142D01*
X40205819Y58388523D02*
X40205819Y57817095D01*
X40205819Y58102809D02*
X39205819Y58102809D01*
X39205819Y58102809D02*
X39348676Y58007571D01*
X39348676Y58007571D02*
X39443914Y57912333D01*
X39443914Y57912333D02*
X39491533Y57817095D01*
X39205819Y58721857D02*
X39205819Y59340904D01*
X39205819Y59340904D02*
X39586771Y59007571D01*
X39586771Y59007571D02*
X39586771Y59150428D01*
X39586771Y59150428D02*
X39634390Y59245666D01*
X39634390Y59245666D02*
X39682009Y59293285D01*
X39682009Y59293285D02*
X39777247Y59340904D01*
X39777247Y59340904D02*
X40015342Y59340904D01*
X40015342Y59340904D02*
X40110580Y59293285D01*
X40110580Y59293285D02*
X40158200Y59245666D01*
X40158200Y59245666D02*
X40205819Y59150428D01*
X40205819Y59150428D02*
X40205819Y58864714D01*
X40205819Y58864714D02*
X40158200Y58769476D01*
X40158200Y58769476D02*
X40110580Y58721857D01*
X49522142Y82063419D02*
X49474523Y82015800D01*
X49474523Y82015800D02*
X49331666Y81968180D01*
X49331666Y81968180D02*
X49236428Y81968180D01*
X49236428Y81968180D02*
X49093571Y82015800D01*
X49093571Y82015800D02*
X48998333Y82111038D01*
X48998333Y82111038D02*
X48950714Y82206276D01*
X48950714Y82206276D02*
X48903095Y82396752D01*
X48903095Y82396752D02*
X48903095Y82539609D01*
X48903095Y82539609D02*
X48950714Y82730085D01*
X48950714Y82730085D02*
X48998333Y82825323D01*
X48998333Y82825323D02*
X49093571Y82920561D01*
X49093571Y82920561D02*
X49236428Y82968180D01*
X49236428Y82968180D02*
X49331666Y82968180D01*
X49331666Y82968180D02*
X49474523Y82920561D01*
X49474523Y82920561D02*
X49522142Y82872942D01*
X50474523Y81968180D02*
X49903095Y81968180D01*
X50188809Y81968180D02*
X50188809Y82968180D01*
X50188809Y82968180D02*
X50093571Y82825323D01*
X50093571Y82825323D02*
X49998333Y82730085D01*
X49998333Y82730085D02*
X49903095Y82682466D01*
X51379285Y82968180D02*
X50903095Y82968180D01*
X50903095Y82968180D02*
X50855476Y82491990D01*
X50855476Y82491990D02*
X50903095Y82539609D01*
X50903095Y82539609D02*
X50998333Y82587228D01*
X50998333Y82587228D02*
X51236428Y82587228D01*
X51236428Y82587228D02*
X51331666Y82539609D01*
X51331666Y82539609D02*
X51379285Y82491990D01*
X51379285Y82491990D02*
X51426904Y82396752D01*
X51426904Y82396752D02*
X51426904Y82158657D01*
X51426904Y82158657D02*
X51379285Y82063419D01*
X51379285Y82063419D02*
X51331666Y82015800D01*
X51331666Y82015800D02*
X51236428Y81968180D01*
X51236428Y81968180D02*
X50998333Y81968180D01*
X50998333Y81968180D02*
X50903095Y82015800D01*
X50903095Y82015800D02*
X50855476Y82063419D01*
X15345580Y45553333D02*
X15393200Y45505714D01*
X15393200Y45505714D02*
X15440819Y45362857D01*
X15440819Y45362857D02*
X15440819Y45267619D01*
X15440819Y45267619D02*
X15393200Y45124762D01*
X15393200Y45124762D02*
X15297961Y45029524D01*
X15297961Y45029524D02*
X15202723Y44981905D01*
X15202723Y44981905D02*
X15012247Y44934286D01*
X15012247Y44934286D02*
X14869390Y44934286D01*
X14869390Y44934286D02*
X14678914Y44981905D01*
X14678914Y44981905D02*
X14583676Y45029524D01*
X14583676Y45029524D02*
X14488438Y45124762D01*
X14488438Y45124762D02*
X14440819Y45267619D01*
X14440819Y45267619D02*
X14440819Y45362857D01*
X14440819Y45362857D02*
X14488438Y45505714D01*
X14488438Y45505714D02*
X14536057Y45553333D01*
X15440819Y46505714D02*
X15440819Y45934286D01*
X15440819Y46220000D02*
X14440819Y46220000D01*
X14440819Y46220000D02*
X14583676Y46124762D01*
X14583676Y46124762D02*
X14678914Y46029524D01*
X14678914Y46029524D02*
X14726533Y45934286D01*
X49522142Y53107419D02*
X49474523Y53059800D01*
X49474523Y53059800D02*
X49331666Y53012180D01*
X49331666Y53012180D02*
X49236428Y53012180D01*
X49236428Y53012180D02*
X49093571Y53059800D01*
X49093571Y53059800D02*
X48998333Y53155038D01*
X48998333Y53155038D02*
X48950714Y53250276D01*
X48950714Y53250276D02*
X48903095Y53440752D01*
X48903095Y53440752D02*
X48903095Y53583609D01*
X48903095Y53583609D02*
X48950714Y53774085D01*
X48950714Y53774085D02*
X48998333Y53869323D01*
X48998333Y53869323D02*
X49093571Y53964561D01*
X49093571Y53964561D02*
X49236428Y54012180D01*
X49236428Y54012180D02*
X49331666Y54012180D01*
X49331666Y54012180D02*
X49474523Y53964561D01*
X49474523Y53964561D02*
X49522142Y53916942D01*
X50474523Y53012180D02*
X49903095Y53012180D01*
X50188809Y53012180D02*
X50188809Y54012180D01*
X50188809Y54012180D02*
X50093571Y53869323D01*
X50093571Y53869323D02*
X49998333Y53774085D01*
X49998333Y53774085D02*
X49903095Y53726466D01*
X51045952Y53583609D02*
X50950714Y53631228D01*
X50950714Y53631228D02*
X50903095Y53678847D01*
X50903095Y53678847D02*
X50855476Y53774085D01*
X50855476Y53774085D02*
X50855476Y53821704D01*
X50855476Y53821704D02*
X50903095Y53916942D01*
X50903095Y53916942D02*
X50950714Y53964561D01*
X50950714Y53964561D02*
X51045952Y54012180D01*
X51045952Y54012180D02*
X51236428Y54012180D01*
X51236428Y54012180D02*
X51331666Y53964561D01*
X51331666Y53964561D02*
X51379285Y53916942D01*
X51379285Y53916942D02*
X51426904Y53821704D01*
X51426904Y53821704D02*
X51426904Y53774085D01*
X51426904Y53774085D02*
X51379285Y53678847D01*
X51379285Y53678847D02*
X51331666Y53631228D01*
X51331666Y53631228D02*
X51236428Y53583609D01*
X51236428Y53583609D02*
X51045952Y53583609D01*
X51045952Y53583609D02*
X50950714Y53535990D01*
X50950714Y53535990D02*
X50903095Y53488371D01*
X50903095Y53488371D02*
X50855476Y53393133D01*
X50855476Y53393133D02*
X50855476Y53202657D01*
X50855476Y53202657D02*
X50903095Y53107419D01*
X50903095Y53107419D02*
X50950714Y53059800D01*
X50950714Y53059800D02*
X51045952Y53012180D01*
X51045952Y53012180D02*
X51236428Y53012180D01*
X51236428Y53012180D02*
X51331666Y53059800D01*
X51331666Y53059800D02*
X51379285Y53107419D01*
X51379285Y53107419D02*
X51426904Y53202657D01*
X51426904Y53202657D02*
X51426904Y53393133D01*
X51426904Y53393133D02*
X51379285Y53488371D01*
X51379285Y53488371D02*
X51331666Y53535990D01*
X51331666Y53535990D02*
X51236428Y53583609D01*
X40967819Y98321905D02*
X39967819Y98321905D01*
X39967819Y98321905D02*
X39967819Y98560000D01*
X39967819Y98560000D02*
X40015438Y98702857D01*
X40015438Y98702857D02*
X40110676Y98798095D01*
X40110676Y98798095D02*
X40205914Y98845714D01*
X40205914Y98845714D02*
X40396390Y98893333D01*
X40396390Y98893333D02*
X40539247Y98893333D01*
X40539247Y98893333D02*
X40729723Y98845714D01*
X40729723Y98845714D02*
X40824961Y98798095D01*
X40824961Y98798095D02*
X40920200Y98702857D01*
X40920200Y98702857D02*
X40967819Y98560000D01*
X40967819Y98560000D02*
X40967819Y98321905D01*
X39967819Y99750476D02*
X39967819Y99560000D01*
X39967819Y99560000D02*
X40015438Y99464762D01*
X40015438Y99464762D02*
X40063057Y99417143D01*
X40063057Y99417143D02*
X40205914Y99321905D01*
X40205914Y99321905D02*
X40396390Y99274286D01*
X40396390Y99274286D02*
X40777342Y99274286D01*
X40777342Y99274286D02*
X40872580Y99321905D01*
X40872580Y99321905D02*
X40920200Y99369524D01*
X40920200Y99369524D02*
X40967819Y99464762D01*
X40967819Y99464762D02*
X40967819Y99655238D01*
X40967819Y99655238D02*
X40920200Y99750476D01*
X40920200Y99750476D02*
X40872580Y99798095D01*
X40872580Y99798095D02*
X40777342Y99845714D01*
X40777342Y99845714D02*
X40539247Y99845714D01*
X40539247Y99845714D02*
X40444009Y99798095D01*
X40444009Y99798095D02*
X40396390Y99750476D01*
X40396390Y99750476D02*
X40348771Y99655238D01*
X40348771Y99655238D02*
X40348771Y99464762D01*
X40348771Y99464762D02*
X40396390Y99369524D01*
X40396390Y99369524D02*
X40444009Y99321905D01*
X40444009Y99321905D02*
X40539247Y99274286D01*
X49522142Y73205180D02*
X49188809Y73681371D01*
X48950714Y73205180D02*
X48950714Y74205180D01*
X48950714Y74205180D02*
X49331666Y74205180D01*
X49331666Y74205180D02*
X49426904Y74157561D01*
X49426904Y74157561D02*
X49474523Y74109942D01*
X49474523Y74109942D02*
X49522142Y74014704D01*
X49522142Y74014704D02*
X49522142Y73871847D01*
X49522142Y73871847D02*
X49474523Y73776609D01*
X49474523Y73776609D02*
X49426904Y73728990D01*
X49426904Y73728990D02*
X49331666Y73681371D01*
X49331666Y73681371D02*
X48950714Y73681371D01*
X49903095Y74109942D02*
X49950714Y74157561D01*
X49950714Y74157561D02*
X50045952Y74205180D01*
X50045952Y74205180D02*
X50284047Y74205180D01*
X50284047Y74205180D02*
X50379285Y74157561D01*
X50379285Y74157561D02*
X50426904Y74109942D01*
X50426904Y74109942D02*
X50474523Y74014704D01*
X50474523Y74014704D02*
X50474523Y73919466D01*
X50474523Y73919466D02*
X50426904Y73776609D01*
X50426904Y73776609D02*
X49855476Y73205180D01*
X49855476Y73205180D02*
X50474523Y73205180D01*
X51331666Y73871847D02*
X51331666Y73205180D01*
X51093571Y74252800D02*
X50855476Y73538514D01*
X50855476Y73538514D02*
X51474523Y73538514D01*
X24630142Y82984180D02*
X24296809Y83460371D01*
X24058714Y82984180D02*
X24058714Y83984180D01*
X24058714Y83984180D02*
X24439666Y83984180D01*
X24439666Y83984180D02*
X24534904Y83936561D01*
X24534904Y83936561D02*
X24582523Y83888942D01*
X24582523Y83888942D02*
X24630142Y83793704D01*
X24630142Y83793704D02*
X24630142Y83650847D01*
X24630142Y83650847D02*
X24582523Y83555609D01*
X24582523Y83555609D02*
X24534904Y83507990D01*
X24534904Y83507990D02*
X24439666Y83460371D01*
X24439666Y83460371D02*
X24058714Y83460371D01*
X25582523Y82984180D02*
X25011095Y82984180D01*
X25296809Y82984180D02*
X25296809Y83984180D01*
X25296809Y83984180D02*
X25201571Y83841323D01*
X25201571Y83841323D02*
X25106333Y83746085D01*
X25106333Y83746085D02*
X25011095Y83698466D01*
X26439666Y83984180D02*
X26249190Y83984180D01*
X26249190Y83984180D02*
X26153952Y83936561D01*
X26153952Y83936561D02*
X26106333Y83888942D01*
X26106333Y83888942D02*
X26011095Y83746085D01*
X26011095Y83746085D02*
X25963476Y83555609D01*
X25963476Y83555609D02*
X25963476Y83174657D01*
X25963476Y83174657D02*
X26011095Y83079419D01*
X26011095Y83079419D02*
X26058714Y83031800D01*
X26058714Y83031800D02*
X26153952Y82984180D01*
X26153952Y82984180D02*
X26344428Y82984180D01*
X26344428Y82984180D02*
X26439666Y83031800D01*
X26439666Y83031800D02*
X26487285Y83079419D01*
X26487285Y83079419D02*
X26534904Y83174657D01*
X26534904Y83174657D02*
X26534904Y83412752D01*
X26534904Y83412752D02*
X26487285Y83507990D01*
X26487285Y83507990D02*
X26439666Y83555609D01*
X26439666Y83555609D02*
X26344428Y83603228D01*
X26344428Y83603228D02*
X26153952Y83603228D01*
X26153952Y83603228D02*
X26058714Y83555609D01*
X26058714Y83555609D02*
X26011095Y83507990D01*
X26011095Y83507990D02*
X25963476Y83412752D01*
X13549333Y66766180D02*
X13216000Y67242371D01*
X12977905Y66766180D02*
X12977905Y67766180D01*
X12977905Y67766180D02*
X13358857Y67766180D01*
X13358857Y67766180D02*
X13454095Y67718561D01*
X13454095Y67718561D02*
X13501714Y67670942D01*
X13501714Y67670942D02*
X13549333Y67575704D01*
X13549333Y67575704D02*
X13549333Y67432847D01*
X13549333Y67432847D02*
X13501714Y67337609D01*
X13501714Y67337609D02*
X13454095Y67289990D01*
X13454095Y67289990D02*
X13358857Y67242371D01*
X13358857Y67242371D02*
X12977905Y67242371D01*
X14406476Y67766180D02*
X14216000Y67766180D01*
X14216000Y67766180D02*
X14120762Y67718561D01*
X14120762Y67718561D02*
X14073143Y67670942D01*
X14073143Y67670942D02*
X13977905Y67528085D01*
X13977905Y67528085D02*
X13930286Y67337609D01*
X13930286Y67337609D02*
X13930286Y66956657D01*
X13930286Y66956657D02*
X13977905Y66861419D01*
X13977905Y66861419D02*
X14025524Y66813800D01*
X14025524Y66813800D02*
X14120762Y66766180D01*
X14120762Y66766180D02*
X14311238Y66766180D01*
X14311238Y66766180D02*
X14406476Y66813800D01*
X14406476Y66813800D02*
X14454095Y66861419D01*
X14454095Y66861419D02*
X14501714Y66956657D01*
X14501714Y66956657D02*
X14501714Y67194752D01*
X14501714Y67194752D02*
X14454095Y67289990D01*
X14454095Y67289990D02*
X14406476Y67337609D01*
X14406476Y67337609D02*
X14311238Y67385228D01*
X14311238Y67385228D02*
X14120762Y67385228D01*
X14120762Y67385228D02*
X14025524Y67337609D01*
X14025524Y67337609D02*
X13977905Y67289990D01*
X13977905Y67289990D02*
X13930286Y67194752D01*
X29583142Y43106180D02*
X29249809Y43582371D01*
X29011714Y43106180D02*
X29011714Y44106180D01*
X29011714Y44106180D02*
X29392666Y44106180D01*
X29392666Y44106180D02*
X29487904Y44058561D01*
X29487904Y44058561D02*
X29535523Y44010942D01*
X29535523Y44010942D02*
X29583142Y43915704D01*
X29583142Y43915704D02*
X29583142Y43772847D01*
X29583142Y43772847D02*
X29535523Y43677609D01*
X29535523Y43677609D02*
X29487904Y43629990D01*
X29487904Y43629990D02*
X29392666Y43582371D01*
X29392666Y43582371D02*
X29011714Y43582371D01*
X30535523Y43106180D02*
X29964095Y43106180D01*
X30249809Y43106180D02*
X30249809Y44106180D01*
X30249809Y44106180D02*
X30154571Y43963323D01*
X30154571Y43963323D02*
X30059333Y43868085D01*
X30059333Y43868085D02*
X29964095Y43820466D01*
X31011714Y43106180D02*
X31202190Y43106180D01*
X31202190Y43106180D02*
X31297428Y43153800D01*
X31297428Y43153800D02*
X31345047Y43201419D01*
X31345047Y43201419D02*
X31440285Y43344276D01*
X31440285Y43344276D02*
X31487904Y43534752D01*
X31487904Y43534752D02*
X31487904Y43915704D01*
X31487904Y43915704D02*
X31440285Y44010942D01*
X31440285Y44010942D02*
X31392666Y44058561D01*
X31392666Y44058561D02*
X31297428Y44106180D01*
X31297428Y44106180D02*
X31106952Y44106180D01*
X31106952Y44106180D02*
X31011714Y44058561D01*
X31011714Y44058561D02*
X30964095Y44010942D01*
X30964095Y44010942D02*
X30916476Y43915704D01*
X30916476Y43915704D02*
X30916476Y43677609D01*
X30916476Y43677609D02*
X30964095Y43582371D01*
X30964095Y43582371D02*
X31011714Y43534752D01*
X31011714Y43534752D02*
X31106952Y43487133D01*
X31106952Y43487133D02*
X31297428Y43487133D01*
X31297428Y43487133D02*
X31392666Y43534752D01*
X31392666Y43534752D02*
X31440285Y43582371D01*
X31440285Y43582371D02*
X31487904Y43677609D01*
X22820333Y104923419D02*
X22772714Y104875800D01*
X22772714Y104875800D02*
X22629857Y104828180D01*
X22629857Y104828180D02*
X22534619Y104828180D01*
X22534619Y104828180D02*
X22391762Y104875800D01*
X22391762Y104875800D02*
X22296524Y104971038D01*
X22296524Y104971038D02*
X22248905Y105066276D01*
X22248905Y105066276D02*
X22201286Y105256752D01*
X22201286Y105256752D02*
X22201286Y105399609D01*
X22201286Y105399609D02*
X22248905Y105590085D01*
X22248905Y105590085D02*
X22296524Y105685323D01*
X22296524Y105685323D02*
X22391762Y105780561D01*
X22391762Y105780561D02*
X22534619Y105828180D01*
X22534619Y105828180D02*
X22629857Y105828180D01*
X22629857Y105828180D02*
X22772714Y105780561D01*
X22772714Y105780561D02*
X22820333Y105732942D01*
X23677476Y105828180D02*
X23487000Y105828180D01*
X23487000Y105828180D02*
X23391762Y105780561D01*
X23391762Y105780561D02*
X23344143Y105732942D01*
X23344143Y105732942D02*
X23248905Y105590085D01*
X23248905Y105590085D02*
X23201286Y105399609D01*
X23201286Y105399609D02*
X23201286Y105018657D01*
X23201286Y105018657D02*
X23248905Y104923419D01*
X23248905Y104923419D02*
X23296524Y104875800D01*
X23296524Y104875800D02*
X23391762Y104828180D01*
X23391762Y104828180D02*
X23582238Y104828180D01*
X23582238Y104828180D02*
X23677476Y104875800D01*
X23677476Y104875800D02*
X23725095Y104923419D01*
X23725095Y104923419D02*
X23772714Y105018657D01*
X23772714Y105018657D02*
X23772714Y105256752D01*
X23772714Y105256752D02*
X23725095Y105351990D01*
X23725095Y105351990D02*
X23677476Y105399609D01*
X23677476Y105399609D02*
X23582238Y105447228D01*
X23582238Y105447228D02*
X23391762Y105447228D01*
X23391762Y105447228D02*
X23296524Y105399609D01*
X23296524Y105399609D02*
X23248905Y105351990D01*
X23248905Y105351990D02*
X23201286Y105256752D01*
X23391905Y100129180D02*
X23391905Y101129180D01*
X23391905Y101129180D02*
X23630000Y101129180D01*
X23630000Y101129180D02*
X23772857Y101081561D01*
X23772857Y101081561D02*
X23868095Y100986323D01*
X23868095Y100986323D02*
X23915714Y100891085D01*
X23915714Y100891085D02*
X23963333Y100700609D01*
X23963333Y100700609D02*
X23963333Y100557752D01*
X23963333Y100557752D02*
X23915714Y100367276D01*
X23915714Y100367276D02*
X23868095Y100272038D01*
X23868095Y100272038D02*
X23772857Y100176800D01*
X23772857Y100176800D02*
X23630000Y100129180D01*
X23630000Y100129180D02*
X23391905Y100129180D01*
X24344286Y101033942D02*
X24391905Y101081561D01*
X24391905Y101081561D02*
X24487143Y101129180D01*
X24487143Y101129180D02*
X24725238Y101129180D01*
X24725238Y101129180D02*
X24820476Y101081561D01*
X24820476Y101081561D02*
X24868095Y101033942D01*
X24868095Y101033942D02*
X24915714Y100938704D01*
X24915714Y100938704D02*
X24915714Y100843466D01*
X24915714Y100843466D02*
X24868095Y100700609D01*
X24868095Y100700609D02*
X24296667Y100129180D01*
X24296667Y100129180D02*
X24915714Y100129180D01*
X14297819Y77462142D02*
X13821628Y77128809D01*
X14297819Y76890714D02*
X13297819Y76890714D01*
X13297819Y76890714D02*
X13297819Y77271666D01*
X13297819Y77271666D02*
X13345438Y77366904D01*
X13345438Y77366904D02*
X13393057Y77414523D01*
X13393057Y77414523D02*
X13488295Y77462142D01*
X13488295Y77462142D02*
X13631152Y77462142D01*
X13631152Y77462142D02*
X13726390Y77414523D01*
X13726390Y77414523D02*
X13774009Y77366904D01*
X13774009Y77366904D02*
X13821628Y77271666D01*
X13821628Y77271666D02*
X13821628Y76890714D01*
X14297819Y78414523D02*
X14297819Y77843095D01*
X14297819Y78128809D02*
X13297819Y78128809D01*
X13297819Y78128809D02*
X13440676Y78033571D01*
X13440676Y78033571D02*
X13535914Y77938333D01*
X13535914Y77938333D02*
X13583533Y77843095D01*
X13726390Y78985952D02*
X13678771Y78890714D01*
X13678771Y78890714D02*
X13631152Y78843095D01*
X13631152Y78843095D02*
X13535914Y78795476D01*
X13535914Y78795476D02*
X13488295Y78795476D01*
X13488295Y78795476D02*
X13393057Y78843095D01*
X13393057Y78843095D02*
X13345438Y78890714D01*
X13345438Y78890714D02*
X13297819Y78985952D01*
X13297819Y78985952D02*
X13297819Y79176428D01*
X13297819Y79176428D02*
X13345438Y79271666D01*
X13345438Y79271666D02*
X13393057Y79319285D01*
X13393057Y79319285D02*
X13488295Y79366904D01*
X13488295Y79366904D02*
X13535914Y79366904D01*
X13535914Y79366904D02*
X13631152Y79319285D01*
X13631152Y79319285D02*
X13678771Y79271666D01*
X13678771Y79271666D02*
X13726390Y79176428D01*
X13726390Y79176428D02*
X13726390Y78985952D01*
X13726390Y78985952D02*
X13774009Y78890714D01*
X13774009Y78890714D02*
X13821628Y78843095D01*
X13821628Y78843095D02*
X13916866Y78795476D01*
X13916866Y78795476D02*
X14107342Y78795476D01*
X14107342Y78795476D02*
X14202580Y78843095D01*
X14202580Y78843095D02*
X14250200Y78890714D01*
X14250200Y78890714D02*
X14297819Y78985952D01*
X14297819Y78985952D02*
X14297819Y79176428D01*
X14297819Y79176428D02*
X14250200Y79271666D01*
X14250200Y79271666D02*
X14202580Y79319285D01*
X14202580Y79319285D02*
X14107342Y79366904D01*
X14107342Y79366904D02*
X13916866Y79366904D01*
X13916866Y79366904D02*
X13821628Y79319285D01*
X13821628Y79319285D02*
X13774009Y79271666D01*
X13774009Y79271666D02*
X13726390Y79176428D01*
X43354666Y117766180D02*
X43354666Y117051895D01*
X43354666Y117051895D02*
X43307047Y116909038D01*
X43307047Y116909038D02*
X43211809Y116813800D01*
X43211809Y116813800D02*
X43068952Y116766180D01*
X43068952Y116766180D02*
X42973714Y116766180D01*
X43735619Y117766180D02*
X44354666Y117766180D01*
X44354666Y117766180D02*
X44021333Y117385228D01*
X44021333Y117385228D02*
X44164190Y117385228D01*
X44164190Y117385228D02*
X44259428Y117337609D01*
X44259428Y117337609D02*
X44307047Y117289990D01*
X44307047Y117289990D02*
X44354666Y117194752D01*
X44354666Y117194752D02*
X44354666Y116956657D01*
X44354666Y116956657D02*
X44307047Y116861419D01*
X44307047Y116861419D02*
X44259428Y116813800D01*
X44259428Y116813800D02*
X44164190Y116766180D01*
X44164190Y116766180D02*
X43878476Y116766180D01*
X43878476Y116766180D02*
X43783238Y116813800D01*
X43783238Y116813800D02*
X43735619Y116861419D01*
X6437333Y92604419D02*
X6389714Y92556800D01*
X6389714Y92556800D02*
X6246857Y92509180D01*
X6246857Y92509180D02*
X6151619Y92509180D01*
X6151619Y92509180D02*
X6008762Y92556800D01*
X6008762Y92556800D02*
X5913524Y92652038D01*
X5913524Y92652038D02*
X5865905Y92747276D01*
X5865905Y92747276D02*
X5818286Y92937752D01*
X5818286Y92937752D02*
X5818286Y93080609D01*
X5818286Y93080609D02*
X5865905Y93271085D01*
X5865905Y93271085D02*
X5913524Y93366323D01*
X5913524Y93366323D02*
X6008762Y93461561D01*
X6008762Y93461561D02*
X6151619Y93509180D01*
X6151619Y93509180D02*
X6246857Y93509180D01*
X6246857Y93509180D02*
X6389714Y93461561D01*
X6389714Y93461561D02*
X6437333Y93413942D01*
X7294476Y93175847D02*
X7294476Y92509180D01*
X7056381Y93556800D02*
X6818286Y92842514D01*
X6818286Y92842514D02*
X7437333Y92842514D01*
X16033761Y54458922D02*
X15938523Y54506541D01*
X15938523Y54506541D02*
X15843285Y54601780D01*
X15843285Y54601780D02*
X15700428Y54744637D01*
X15700428Y54744637D02*
X15605190Y54792256D01*
X15605190Y54792256D02*
X15509952Y54792256D01*
X15557571Y54554160D02*
X15462333Y54601780D01*
X15462333Y54601780D02*
X15367095Y54697018D01*
X15367095Y54697018D02*
X15319476Y54887494D01*
X15319476Y54887494D02*
X15319476Y55220827D01*
X15319476Y55220827D02*
X15367095Y55411303D01*
X15367095Y55411303D02*
X15462333Y55506541D01*
X15462333Y55506541D02*
X15557571Y55554160D01*
X15557571Y55554160D02*
X15748047Y55554160D01*
X15748047Y55554160D02*
X15843285Y55506541D01*
X15843285Y55506541D02*
X15938523Y55411303D01*
X15938523Y55411303D02*
X15986142Y55220827D01*
X15986142Y55220827D02*
X15986142Y54887494D01*
X15986142Y54887494D02*
X15938523Y54697018D01*
X15938523Y54697018D02*
X15843285Y54601780D01*
X15843285Y54601780D02*
X15748047Y54554160D01*
X15748047Y54554160D02*
X15557571Y54554160D01*
X16938523Y54554160D02*
X16367095Y54554160D01*
X16652809Y54554160D02*
X16652809Y55554160D01*
X16652809Y55554160D02*
X16557571Y55411303D01*
X16557571Y55411303D02*
X16462333Y55316065D01*
X16462333Y55316065D02*
X16367095Y55268446D01*
X16837819Y101719142D02*
X16361628Y101385809D01*
X16837819Y101147714D02*
X15837819Y101147714D01*
X15837819Y101147714D02*
X15837819Y101528666D01*
X15837819Y101528666D02*
X15885438Y101623904D01*
X15885438Y101623904D02*
X15933057Y101671523D01*
X15933057Y101671523D02*
X16028295Y101719142D01*
X16028295Y101719142D02*
X16171152Y101719142D01*
X16171152Y101719142D02*
X16266390Y101671523D01*
X16266390Y101671523D02*
X16314009Y101623904D01*
X16314009Y101623904D02*
X16361628Y101528666D01*
X16361628Y101528666D02*
X16361628Y101147714D01*
X16837819Y102671523D02*
X16837819Y102100095D01*
X16837819Y102385809D02*
X15837819Y102385809D01*
X15837819Y102385809D02*
X15980676Y102290571D01*
X15980676Y102290571D02*
X16075914Y102195333D01*
X16075914Y102195333D02*
X16123533Y102100095D01*
X15837819Y103290571D02*
X15837819Y103385809D01*
X15837819Y103385809D02*
X15885438Y103481047D01*
X15885438Y103481047D02*
X15933057Y103528666D01*
X15933057Y103528666D02*
X16028295Y103576285D01*
X16028295Y103576285D02*
X16218771Y103623904D01*
X16218771Y103623904D02*
X16456866Y103623904D01*
X16456866Y103623904D02*
X16647342Y103576285D01*
X16647342Y103576285D02*
X16742580Y103528666D01*
X16742580Y103528666D02*
X16790200Y103481047D01*
X16790200Y103481047D02*
X16837819Y103385809D01*
X16837819Y103385809D02*
X16837819Y103290571D01*
X16837819Y103290571D02*
X16790200Y103195333D01*
X16790200Y103195333D02*
X16742580Y103147714D01*
X16742580Y103147714D02*
X16647342Y103100095D01*
X16647342Y103100095D02*
X16456866Y103052476D01*
X16456866Y103052476D02*
X16218771Y103052476D01*
X16218771Y103052476D02*
X16028295Y103100095D01*
X16028295Y103100095D02*
X15933057Y103147714D01*
X15933057Y103147714D02*
X15885438Y103195333D01*
X15885438Y103195333D02*
X15837819Y103290571D01*
X45539819Y97813905D02*
X44539819Y97813905D01*
X44539819Y97813905D02*
X44539819Y98052000D01*
X44539819Y98052000D02*
X44587438Y98194857D01*
X44587438Y98194857D02*
X44682676Y98290095D01*
X44682676Y98290095D02*
X44777914Y98337714D01*
X44777914Y98337714D02*
X44968390Y98385333D01*
X44968390Y98385333D02*
X45111247Y98385333D01*
X45111247Y98385333D02*
X45301723Y98337714D01*
X45301723Y98337714D02*
X45396961Y98290095D01*
X45396961Y98290095D02*
X45492200Y98194857D01*
X45492200Y98194857D02*
X45539819Y98052000D01*
X45539819Y98052000D02*
X45539819Y97813905D01*
X44539819Y99290095D02*
X44539819Y98813905D01*
X44539819Y98813905D02*
X45016009Y98766286D01*
X45016009Y98766286D02*
X44968390Y98813905D01*
X44968390Y98813905D02*
X44920771Y98909143D01*
X44920771Y98909143D02*
X44920771Y99147238D01*
X44920771Y99147238D02*
X44968390Y99242476D01*
X44968390Y99242476D02*
X45016009Y99290095D01*
X45016009Y99290095D02*
X45111247Y99337714D01*
X45111247Y99337714D02*
X45349342Y99337714D01*
X45349342Y99337714D02*
X45444580Y99290095D01*
X45444580Y99290095D02*
X45492200Y99242476D01*
X45492200Y99242476D02*
X45539819Y99147238D01*
X45539819Y99147238D02*
X45539819Y98909143D01*
X45539819Y98909143D02*
X45492200Y98813905D01*
X45492200Y98813905D02*
X45444580Y98766286D01*
X21028819Y48601333D02*
X20552628Y48268000D01*
X21028819Y48029905D02*
X20028819Y48029905D01*
X20028819Y48029905D02*
X20028819Y48410857D01*
X20028819Y48410857D02*
X20076438Y48506095D01*
X20076438Y48506095D02*
X20124057Y48553714D01*
X20124057Y48553714D02*
X20219295Y48601333D01*
X20219295Y48601333D02*
X20362152Y48601333D01*
X20362152Y48601333D02*
X20457390Y48553714D01*
X20457390Y48553714D02*
X20505009Y48506095D01*
X20505009Y48506095D02*
X20552628Y48410857D01*
X20552628Y48410857D02*
X20552628Y48029905D01*
X20028819Y48934667D02*
X20028819Y49553714D01*
X20028819Y49553714D02*
X20409771Y49220381D01*
X20409771Y49220381D02*
X20409771Y49363238D01*
X20409771Y49363238D02*
X20457390Y49458476D01*
X20457390Y49458476D02*
X20505009Y49506095D01*
X20505009Y49506095D02*
X20600247Y49553714D01*
X20600247Y49553714D02*
X20838342Y49553714D01*
X20838342Y49553714D02*
X20933580Y49506095D01*
X20933580Y49506095D02*
X20981200Y49458476D01*
X20981200Y49458476D02*
X21028819Y49363238D01*
X21028819Y49363238D02*
X21028819Y49077524D01*
X21028819Y49077524D02*
X20981200Y48982286D01*
X20981200Y48982286D02*
X20933580Y48934667D01*
X32123142Y69109419D02*
X32075523Y69061800D01*
X32075523Y69061800D02*
X31932666Y69014180D01*
X31932666Y69014180D02*
X31837428Y69014180D01*
X31837428Y69014180D02*
X31694571Y69061800D01*
X31694571Y69061800D02*
X31599333Y69157038D01*
X31599333Y69157038D02*
X31551714Y69252276D01*
X31551714Y69252276D02*
X31504095Y69442752D01*
X31504095Y69442752D02*
X31504095Y69585609D01*
X31504095Y69585609D02*
X31551714Y69776085D01*
X31551714Y69776085D02*
X31599333Y69871323D01*
X31599333Y69871323D02*
X31694571Y69966561D01*
X31694571Y69966561D02*
X31837428Y70014180D01*
X31837428Y70014180D02*
X31932666Y70014180D01*
X31932666Y70014180D02*
X32075523Y69966561D01*
X32075523Y69966561D02*
X32123142Y69918942D01*
X33075523Y69014180D02*
X32504095Y69014180D01*
X32789809Y69014180D02*
X32789809Y70014180D01*
X32789809Y70014180D02*
X32694571Y69871323D01*
X32694571Y69871323D02*
X32599333Y69776085D01*
X32599333Y69776085D02*
X32504095Y69728466D01*
X33456476Y69918942D02*
X33504095Y69966561D01*
X33504095Y69966561D02*
X33599333Y70014180D01*
X33599333Y70014180D02*
X33837428Y70014180D01*
X33837428Y70014180D02*
X33932666Y69966561D01*
X33932666Y69966561D02*
X33980285Y69918942D01*
X33980285Y69918942D02*
X34027904Y69823704D01*
X34027904Y69823704D02*
X34027904Y69728466D01*
X34027904Y69728466D02*
X33980285Y69585609D01*
X33980285Y69585609D02*
X33408857Y69014180D01*
X33408857Y69014180D02*
X34027904Y69014180D01*
X29583142Y55679180D02*
X29249809Y56155371D01*
X29011714Y55679180D02*
X29011714Y56679180D01*
X29011714Y56679180D02*
X29392666Y56679180D01*
X29392666Y56679180D02*
X29487904Y56631561D01*
X29487904Y56631561D02*
X29535523Y56583942D01*
X29535523Y56583942D02*
X29583142Y56488704D01*
X29583142Y56488704D02*
X29583142Y56345847D01*
X29583142Y56345847D02*
X29535523Y56250609D01*
X29535523Y56250609D02*
X29487904Y56202990D01*
X29487904Y56202990D02*
X29392666Y56155371D01*
X29392666Y56155371D02*
X29011714Y56155371D01*
X29964095Y56583942D02*
X30011714Y56631561D01*
X30011714Y56631561D02*
X30106952Y56679180D01*
X30106952Y56679180D02*
X30345047Y56679180D01*
X30345047Y56679180D02*
X30440285Y56631561D01*
X30440285Y56631561D02*
X30487904Y56583942D01*
X30487904Y56583942D02*
X30535523Y56488704D01*
X30535523Y56488704D02*
X30535523Y56393466D01*
X30535523Y56393466D02*
X30487904Y56250609D01*
X30487904Y56250609D02*
X29916476Y55679180D01*
X29916476Y55679180D02*
X30535523Y55679180D01*
X31487904Y55679180D02*
X30916476Y55679180D01*
X31202190Y55679180D02*
X31202190Y56679180D01*
X31202190Y56679180D02*
X31106952Y56536323D01*
X31106952Y56536323D02*
X31011714Y56441085D01*
X31011714Y56441085D02*
X30916476Y56393466D01*
D12*
%TO.C,R4*%
X10439000Y63938000D02*
X10439000Y61538000D01*
X16739000Y63938000D02*
X10439000Y63938000D01*
X16739000Y63938000D02*
X16739000Y61538000D01*
X16739000Y61538000D02*
X10439000Y61538000D01*
%TO.C,R12*%
X6801000Y105512000D02*
X6801000Y99212000D01*
X6801000Y105512000D02*
X9201000Y105512000D01*
X6801000Y99212000D02*
X9201000Y99212000D01*
X9201000Y105512000D02*
X9201000Y99212000D01*
D13*
%TO.C,J1*%
X13110000Y39982000D02*
X13110000Y27582000D01*
X13110000Y39982000D02*
X18810000Y39982000D01*
X13110000Y27582000D02*
X18860000Y27582000D01*
X18860000Y39982000D02*
X18860000Y27582000D01*
D12*
%TO.C,R14*%
X34995000Y101194000D02*
X34995000Y94894000D01*
X34995000Y101194000D02*
X37395000Y101194000D01*
X34995000Y94894000D02*
X37395000Y94894000D01*
X37395000Y101194000D02*
X37395000Y94894000D01*
%TO.C,R7*%
X3880000Y81128000D02*
X3880000Y74828000D01*
X3880000Y81128000D02*
X6280000Y81128000D01*
X3880000Y74828000D02*
X6280000Y74828000D01*
X6280000Y81128000D02*
X6280000Y74828000D01*
%TO.C,R2*%
X8325000Y40538000D02*
X8325000Y46838000D01*
X10725000Y46838000D02*
X8325000Y46838000D01*
X10725000Y40538000D02*
X8325000Y40538000D01*
X10725000Y40538000D02*
X10725000Y46838000D01*
D13*
%TO.C,C9*%
X33230000Y89495000D02*
X40430000Y89495000D01*
X33230000Y84495000D02*
X33230000Y89495000D01*
X33230000Y84495000D02*
X40430000Y84495000D01*
X40430000Y84495000D02*
X40430000Y89495000D01*
D12*
%TO.C,R1*%
X4515000Y40538000D02*
X4515000Y46838000D01*
X6915000Y46838000D02*
X4515000Y46838000D01*
X6915000Y40538000D02*
X4515000Y40538000D01*
X6915000Y40538000D02*
X6915000Y46838000D01*
%TO.C,R25*%
X47015000Y79178000D02*
X53315000Y79178000D01*
X47015000Y76778000D02*
X47015000Y79178000D01*
X47015000Y76778000D02*
X53315000Y76778000D01*
X53315000Y76778000D02*
X53315000Y79178000D01*
%TO.C,R26*%
X47015000Y70669000D02*
X47015000Y68269000D01*
X53315000Y70669000D02*
X47015000Y70669000D01*
X53315000Y70669000D02*
X53315000Y68269000D01*
X53315000Y68269000D02*
X47015000Y68269000D01*
D13*
%TO.C,D1*%
X26080000Y97978000D02*
X22180000Y97978000D01*
X26080000Y97978000D02*
X26080000Y96078000D01*
X26080000Y96078000D02*
X22180000Y96078000D01*
G36*
X22880000Y97978000D02*
G01*
X22080000Y97978000D01*
X22080000Y96078000D01*
X22880000Y96078000D01*
X22880000Y97978000D01*
G37*
%TO.C,J4*%
X5270000Y27542000D02*
X5270000Y34942000D01*
X11020000Y34942000D02*
X5270000Y34942000D01*
X11020000Y27542000D02*
X5270000Y27542000D01*
X11020000Y27542000D02*
X11020000Y34942000D01*
%TO.C,C3*%
X1437000Y61043000D02*
X1437000Y68243000D01*
X6437000Y68243000D02*
X1437000Y68243000D01*
X6437000Y61043000D02*
X1437000Y61043000D01*
X6437000Y61043000D02*
X6437000Y68243000D01*
D12*
%TO.C,R22*%
X27076000Y65462000D02*
X33376000Y65462000D01*
X27076000Y63062000D02*
X27076000Y65462000D01*
X27076000Y63062000D02*
X33376000Y63062000D01*
X33376000Y63062000D02*
X33376000Y65462000D01*
D13*
%TO.C,D4*%
X34357000Y115954000D02*
X39557000Y115954000D01*
X34357000Y113154000D02*
X34357000Y115954000D01*
X34357000Y113154000D02*
X39557000Y113154000D01*
G36*
X38857000Y113154000D02*
G01*
X39657000Y113154000D01*
X39657000Y115954000D01*
X38857000Y115954000D01*
X38857000Y113154000D01*
G37*
D12*
%TO.C,R8*%
X2864000Y99212000D02*
X2864000Y105512000D01*
X5264000Y105512000D02*
X2864000Y105512000D01*
X5264000Y99212000D02*
X2864000Y99212000D01*
X5264000Y99212000D02*
X5264000Y105512000D01*
%TO.C,C14*%
X23622000Y71488000D02*
X23622000Y66688000D01*
X26162000Y71488000D02*
X23622000Y71488000D01*
X26162000Y71488000D02*
X26162000Y66688000D01*
X26162000Y66688000D02*
X23622000Y66688000D01*
%TO.C,R5*%
X7137000Y54667000D02*
X7137000Y52267000D01*
X13437000Y54667000D02*
X7137000Y54667000D01*
X13437000Y54667000D02*
X13437000Y52267000D01*
X13437000Y52267000D02*
X7137000Y52267000D01*
%TO.C,R13*%
X30804000Y94894000D02*
X30804000Y101194000D01*
X33204000Y101194000D02*
X30804000Y101194000D01*
X33204000Y94894000D02*
X30804000Y94894000D01*
X33204000Y94894000D02*
X33204000Y101194000D01*
%TO.C,C2*%
X4020000Y59309000D02*
X4020000Y56769000D01*
X4020000Y59309000D02*
X11220000Y59309000D01*
X4020000Y56769000D02*
X11220000Y56769000D01*
X11220000Y59309000D02*
X11220000Y56769000D01*
D13*
%TO.C,C10*%
X28169000Y113899000D02*
G75*
G02*
X21869000Y113899000I-3150000J0D01*
G01*
X21869000Y113899000D02*
G75*
G02*
X28169000Y113899000I3150000J0D01*
G01*
%TO.C,Q3*%
X18848020Y75223990D02*
X22807980Y75223990D01*
X18676776Y77966000D02*
G75*
G02*
X22979224Y77966000I2151224J-1242009D01*
G01*
D14*
X18123000Y75373990D02*
G75*
G02*
X17873000Y75373990I-125000J0D01*
G01*
X17873000Y75373990D02*
G75*
G02*
X18123000Y75373990I125000J0D01*
G01*
D12*
%TO.C,R11*%
X10992000Y105512000D02*
X10992000Y99212000D01*
X10992000Y105512000D02*
X13392000Y105512000D01*
X10992000Y99212000D02*
X13392000Y99212000D01*
X13392000Y105512000D02*
X13392000Y99212000D01*
D13*
%TO.C,C7*%
X21800000Y86126000D02*
X21800000Y88626000D01*
X29000000Y88626000D02*
X21800000Y88626000D01*
X29000000Y86126000D02*
X21800000Y86126000D01*
X29000000Y86126000D02*
X29000000Y88626000D01*
%TO.C,Q4*%
X52144980Y61698000D02*
X48185020Y61698000D01*
X52316224Y58955990D02*
G75*
G02*
X48013776Y58955990I-2151224J1242009D01*
G01*
D14*
X53120000Y61548000D02*
G75*
G02*
X52870000Y61548000I-125000J0D01*
G01*
X52870000Y61548000D02*
G75*
G02*
X53120000Y61548000I125000J0D01*
G01*
D12*
%TO.C,R20*%
X8579000Y74955000D02*
X8579000Y81255000D01*
X10979000Y81255000D02*
X8579000Y81255000D01*
X10979000Y74955000D02*
X8579000Y74955000D01*
X10979000Y74955000D02*
X10979000Y81255000D01*
%TO.C,C11*%
X29166000Y77724000D02*
X29166000Y80264000D01*
X36366000Y80264000D02*
X29166000Y80264000D01*
X36366000Y77724000D02*
X29166000Y77724000D01*
X36366000Y77724000D02*
X36366000Y80264000D01*
%TO.C,R15*%
X29743000Y76003000D02*
X36043000Y76003000D01*
X29743000Y73603000D02*
X29743000Y76003000D01*
X29743000Y73603000D02*
X36043000Y73603000D01*
X36043000Y73603000D02*
X36043000Y76003000D01*
D13*
%TO.C,J2*%
X41592000Y27582000D02*
X41592000Y39982000D01*
X47342000Y39982000D02*
X41592000Y39982000D01*
X47342000Y27582000D02*
X41642000Y27582000D01*
X47342000Y27582000D02*
X47342000Y39982000D01*
D12*
%TO.C,R27*%
X47015000Y66732000D02*
X47015000Y64332000D01*
X53315000Y66732000D02*
X47015000Y66732000D01*
X53315000Y66732000D02*
X53315000Y64332000D01*
X53315000Y64332000D02*
X47015000Y64332000D01*
D13*
%TO.C,Q2*%
X26744980Y94194010D02*
X22785020Y94194010D01*
X26916224Y91452000D02*
G75*
G02*
X22613776Y91452000I-2151224J1242009D01*
G01*
D14*
X27720000Y94044010D02*
G75*
G02*
X27470000Y94044010I-125000J0D01*
G01*
X27470000Y94044010D02*
G75*
G02*
X27720000Y94044010I125000J0D01*
G01*
D12*
%TO.C,R17*%
X33934000Y110801000D02*
X33934000Y108401000D01*
X40234000Y110801000D02*
X33934000Y110801000D01*
X40234000Y110801000D02*
X40234000Y108401000D01*
X40234000Y108401000D02*
X33934000Y108401000D01*
D13*
%TO.C,J5*%
X49432000Y37482000D02*
X49432000Y30082000D01*
X49432000Y37482000D02*
X55182000Y37482000D01*
X49432000Y30082000D02*
X55182000Y30082000D01*
X55182000Y37482000D02*
X55182000Y30082000D01*
D12*
%TO.C,C5*%
X12275000Y94234000D02*
X12275000Y91694000D01*
X12275000Y94234000D02*
X19475000Y94234000D01*
X12275000Y91694000D02*
X19475000Y91694000D01*
X19475000Y94234000D02*
X19475000Y91694000D01*
D13*
%TO.C,C13*%
X38501000Y61679000D02*
X38501000Y54479000D01*
X41001000Y61679000D02*
X38501000Y61679000D01*
X41001000Y61679000D02*
X41001000Y54479000D01*
X41001000Y54479000D02*
X38501000Y54479000D01*
%TO.C,C15*%
X46565000Y83673000D02*
X46565000Y81173000D01*
X46565000Y83673000D02*
X53765000Y83673000D01*
X46565000Y81173000D02*
X53765000Y81173000D01*
X53765000Y83673000D02*
X53765000Y81173000D01*
%TO.C,C1*%
X12486000Y42120000D02*
X12486000Y49320000D01*
X17486000Y49320000D02*
X12486000Y49320000D01*
X17486000Y42120000D02*
X12486000Y42120000D01*
X17486000Y42120000D02*
X17486000Y49320000D01*
%TO.C,C18*%
X46565000Y52217000D02*
X46565000Y54717000D01*
X53765000Y54717000D02*
X46565000Y54717000D01*
X53765000Y52217000D02*
X46565000Y52217000D01*
X53765000Y52217000D02*
X53765000Y54717000D01*
%TO.C,D6*%
X39563000Y101010000D02*
X39563000Y97110000D01*
X39563000Y101010000D02*
X41463000Y101010000D01*
X41463000Y101010000D02*
X41463000Y97110000D01*
G36*
X39563000Y97810000D02*
G01*
X41463000Y97810000D01*
X41463000Y97010000D01*
X39563000Y97010000D01*
X39563000Y97810000D01*
G37*
D12*
%TO.C,R24*%
X47015000Y74860000D02*
X53315000Y74860000D01*
X47015000Y72460000D02*
X47015000Y74860000D01*
X47015000Y72460000D02*
X53315000Y72460000D01*
X53315000Y72460000D02*
X53315000Y74860000D01*
%TO.C,R16*%
X22123000Y84639000D02*
X22123000Y82239000D01*
X28423000Y84639000D02*
X22123000Y84639000D01*
X28423000Y84639000D02*
X28423000Y82239000D01*
X28423000Y82239000D02*
X22123000Y82239000D01*
%TO.C,R6*%
X10566000Y68510000D02*
X10566000Y66110000D01*
X16866000Y68510000D02*
X10566000Y68510000D01*
X16866000Y68510000D02*
X16866000Y66110000D01*
X16866000Y66110000D02*
X10566000Y66110000D01*
%TO.C,R19*%
X27076000Y44761000D02*
X33376000Y44761000D01*
X27076000Y42361000D02*
X27076000Y44761000D01*
X27076000Y42361000D02*
X33376000Y42361000D01*
X33376000Y42361000D02*
X33376000Y44761000D01*
D13*
%TO.C,C6*%
X19387000Y107783000D02*
X26587000Y107783000D01*
X19387000Y102783000D02*
X19387000Y107783000D01*
X19387000Y102783000D02*
X26587000Y102783000D01*
X26587000Y102783000D02*
X26587000Y107783000D01*
%TO.C,D2*%
X22180000Y101534000D02*
X26080000Y101534000D01*
X22180000Y99634000D02*
X22180000Y101534000D01*
X22180000Y99634000D02*
X26080000Y99634000D01*
G36*
X25380000Y99634000D02*
G01*
X26180000Y99634000D01*
X26180000Y101534000D01*
X25380000Y101534000D01*
X25380000Y99634000D01*
G37*
D12*
%TO.C,R18*%
X12643000Y74955000D02*
X12643000Y81255000D01*
X15043000Y81255000D02*
X12643000Y81255000D01*
X15043000Y74955000D02*
X12643000Y74955000D01*
X15043000Y74955000D02*
X15043000Y81255000D01*
D13*
%TO.C,J3*%
X45576000Y117937000D02*
X45576000Y112187000D01*
X52976000Y117937000D02*
X45576000Y117937000D01*
X52976000Y117937000D02*
X52976000Y112187000D01*
X52976000Y112187000D02*
X45576000Y112187000D01*
%TO.C,C4*%
X3004000Y94214000D02*
X3004000Y91714000D01*
X3004000Y94214000D02*
X10204000Y94214000D01*
X3004000Y91714000D02*
X10204000Y91714000D01*
X10204000Y94214000D02*
X10204000Y91714000D01*
%TO.C,Q1*%
X18108980Y59793000D02*
X14149020Y59793000D01*
X18280224Y57050990D02*
G75*
G02*
X13977776Y57050990I-2151224J1242009D01*
G01*
D14*
X19084000Y59643000D02*
G75*
G02*
X18834000Y59643000I-125000J0D01*
G01*
X18834000Y59643000D02*
G75*
G02*
X19084000Y59643000I125000J0D01*
G01*
D12*
%TO.C,R10*%
X15183000Y105512000D02*
X15183000Y99212000D01*
X15183000Y105512000D02*
X17583000Y105512000D01*
X15183000Y99212000D02*
X17583000Y99212000D01*
X17583000Y105512000D02*
X17583000Y99212000D01*
D13*
%TO.C,D5*%
X44135000Y96602000D02*
X44135000Y100502000D01*
X46035000Y96602000D02*
X44135000Y96602000D01*
X46035000Y96602000D02*
X46035000Y100502000D01*
G36*
X46035000Y99802000D02*
G01*
X44135000Y99802000D01*
X44135000Y100602000D01*
X46035000Y100602000D01*
X46035000Y99802000D01*
G37*
D12*
%TO.C,R3*%
X19374000Y51918000D02*
X19374000Y45618000D01*
X19374000Y51918000D02*
X21774000Y51918000D01*
X19374000Y45618000D02*
X21774000Y45618000D01*
X21774000Y51918000D02*
X21774000Y45618000D01*
D13*
%TO.C,C12*%
X29166000Y71969000D02*
X29166000Y66969000D01*
X36366000Y71969000D02*
X29166000Y71969000D01*
X36366000Y71969000D02*
X36366000Y66969000D01*
X36366000Y66969000D02*
X29166000Y66969000D01*
D12*
%TO.C,R21*%
X27076000Y57334000D02*
X27076000Y54934000D01*
X33376000Y57334000D02*
X27076000Y57334000D01*
X33376000Y57334000D02*
X33376000Y54934000D01*
X33376000Y54934000D02*
X27076000Y54934000D01*
%TD*%
M02*
