%TF.GenerationSoftware,KiCad,Pcbnew,9.0.2*%
%TF.CreationDate,2025-07-08T13:19:54-05:00*%
%TF.ProjectId,Big Massive Fuzz,42696720-4d61-4737-9369-76652046757a,rev?*%
%TF.SameCoordinates,Original*%
%TF.FileFunction,Soldermask,Top*%
%TF.FilePolarity,Negative*%
%FSLAX46Y46*%
G04 Gerber Fmt 4.6, Leading zero omitted, Abs format (unit mm)*
G04 Created by KiCad (PCBNEW 9.0.2) date 2025-07-08 13:19:54*
%MOMM*%
%LPD*%
G01*
G04 APERTURE LIST*
G04 Aperture macros list*
%AMRoundRect*
0 Rectangle with rounded corners*
0 $1 Rounding radius*
0 $2 $3 $4 $5 $6 $7 $8 $9 X,Y pos of 4 corners*
0 Add a 4 corners polygon primitive as box body*
4,1,4,$2,$3,$4,$5,$6,$7,$8,$9,$2,$3,0*
0 Add four circle primitives for the rounded corners*
1,1,$1+$1,$2,$3*
1,1,$1+$1,$4,$5*
1,1,$1+$1,$6,$7*
1,1,$1+$1,$8,$9*
0 Add four rect primitives between the rounded corners*
20,1,$1+$1,$2,$3,$4,$5,0*
20,1,$1+$1,$4,$5,$6,$7,0*
20,1,$1+$1,$6,$7,$8,$9,0*
20,1,$1+$1,$8,$9,$2,$3,0*%
G04 Aperture macros list end*
%ADD10C,1.600000*%
%ADD11RoundRect,0.500000X-0.500000X0.500000X-0.500000X-0.500000X0.500000X-0.500000X0.500000X0.500000X0*%
%ADD12C,2.000000*%
%ADD13R,2.000000X2.000000*%
%ADD14RoundRect,0.500000X0.500000X-0.500000X0.500000X0.500000X-0.500000X0.500000X-0.500000X-0.500000X0*%
%ADD15C,2.400000*%
%ADD16R,2.400000X2.400000*%
%ADD17C,1.400000*%
%ADD18R,1.800000X1.800000*%
%ADD19C,1.800000*%
%ADD20RoundRect,0.500000X0.500000X0.500000X-0.500000X0.500000X-0.500000X-0.500000X0.500000X-0.500000X0*%
%ADD21C,2.500000*%
%ADD22RoundRect,0.400000X0.400000X0.400000X-0.400000X0.400000X-0.400000X-0.400000X0.400000X-0.400000X0*%
G04 APERTURE END LIST*
D10*
%TO.C,R4*%
X18989000Y62738000D03*
X8189000Y62738000D03*
%TD*%
%TO.C,R12*%
X8001000Y107762000D03*
X8001000Y96962000D03*
%TD*%
D11*
%TO.C,J1*%
X16510000Y37492000D03*
D12*
X16510000Y34992000D03*
X16510000Y32492000D03*
X16510000Y29992000D03*
%TD*%
D10*
%TO.C,R14*%
X36195000Y103444000D03*
X36195000Y92644000D03*
%TD*%
%TO.C,R7*%
X5080000Y83378000D03*
X5080000Y72578000D03*
%TD*%
%TO.C,R2*%
X9525000Y38288000D03*
X9525000Y49088000D03*
%TD*%
%TO.C,C9*%
X34330000Y86995000D03*
X39330000Y86995000D03*
%TD*%
%TO.C,R1*%
X5715000Y38288000D03*
X5715000Y49088000D03*
%TD*%
%TO.C,R25*%
X44765000Y77978000D03*
X55565000Y77978000D03*
%TD*%
%TO.C,R26*%
X55565000Y69469000D03*
X44765000Y69469000D03*
%TD*%
D12*
%TO.C,D1*%
X27830000Y97028000D03*
D13*
X20430000Y97028000D03*
%TD*%
D14*
%TO.C,J4*%
X7620000Y30012000D03*
D12*
X7620000Y32512000D03*
%TD*%
D10*
%TO.C,C3*%
X3937000Y62143000D03*
X3937000Y67143000D03*
%TD*%
%TO.C,R22*%
X24826000Y64262000D03*
X35626000Y64262000D03*
%TD*%
D15*
%TO.C,D4*%
X31777000Y114554000D03*
D16*
X42137000Y114554000D03*
%TD*%
D10*
%TO.C,R8*%
X4064000Y96962000D03*
X4064000Y107762000D03*
%TD*%
D17*
%TO.C,C14*%
X24892000Y67818000D03*
X24892000Y70358000D03*
%TD*%
D10*
%TO.C,R5*%
X15687000Y53467000D03*
X4887000Y53467000D03*
%TD*%
%TO.C,R13*%
X32004000Y92644000D03*
X32004000Y103444000D03*
%TD*%
D17*
%TO.C,C2*%
X10160000Y58039000D03*
X5080000Y58039000D03*
%TD*%
D18*
%TO.C,C10*%
X25019000Y112649000D03*
D19*
X25019000Y115149000D03*
%TD*%
D10*
%TO.C,Q3*%
X20828000Y76723990D03*
X23368000Y76723990D03*
X18288000Y76723990D03*
%TD*%
%TO.C,R11*%
X12192000Y107762000D03*
X12192000Y96962000D03*
%TD*%
D17*
%TO.C,C7*%
X22900000Y87376000D03*
X27900000Y87376000D03*
%TD*%
D10*
%TO.C,Q4*%
X50165000Y60198000D03*
X47625000Y60198000D03*
X52705000Y60198000D03*
%TD*%
%TO.C,R20*%
X9779000Y72705000D03*
X9779000Y83505000D03*
%TD*%
D17*
%TO.C,C11*%
X30226000Y78994000D03*
X35306000Y78994000D03*
%TD*%
D10*
%TO.C,R15*%
X27493000Y74803000D03*
X38293000Y74803000D03*
%TD*%
D14*
%TO.C,J2*%
X43942000Y30072000D03*
D12*
X43942000Y32572000D03*
X43942000Y35072000D03*
X43942000Y37572000D03*
%TD*%
D10*
%TO.C,R27*%
X55565000Y65532000D03*
X44765000Y65532000D03*
%TD*%
%TO.C,Q2*%
X24765000Y92694010D03*
X22225000Y92694010D03*
X27305000Y92694010D03*
%TD*%
%TO.C,R17*%
X42484000Y109601000D03*
X31684000Y109601000D03*
%TD*%
D11*
%TO.C,J5*%
X52832000Y35012000D03*
D12*
X52832000Y32512000D03*
%TD*%
D17*
%TO.C,C5*%
X18415000Y92964000D03*
X13335000Y92964000D03*
%TD*%
%TO.C,C13*%
X39751000Y55579000D03*
X39751000Y60579000D03*
%TD*%
%TO.C,C15*%
X52665000Y82423000D03*
X47665000Y82423000D03*
%TD*%
D10*
%TO.C,C1*%
X14986000Y43220000D03*
X14986000Y48220000D03*
%TD*%
D17*
%TO.C,C18*%
X47665000Y53467000D03*
X52665000Y53467000D03*
%TD*%
D12*
%TO.C,D6*%
X40513000Y102760000D03*
D13*
X40513000Y95360000D03*
%TD*%
D10*
%TO.C,R24*%
X44765000Y73660000D03*
X55565000Y73660000D03*
%TD*%
%TO.C,R16*%
X30673000Y83439000D03*
X19873000Y83439000D03*
%TD*%
%TO.C,R6*%
X19116000Y67310000D03*
X8316000Y67310000D03*
%TD*%
%TO.C,R19*%
X24826000Y43561000D03*
X35626000Y43561000D03*
%TD*%
%TO.C,C6*%
X20487000Y105283000D03*
X25487000Y105283000D03*
%TD*%
D12*
%TO.C,D2*%
X20430000Y100584000D03*
D13*
X27830000Y100584000D03*
%TD*%
D10*
%TO.C,R18*%
X13843000Y72705000D03*
X13843000Y83505000D03*
%TD*%
D20*
%TO.C,J3*%
X50506000Y114537000D03*
D12*
X48006000Y114537000D03*
%TD*%
D17*
%TO.C,C4*%
X9104000Y92964000D03*
X4104000Y92964000D03*
%TD*%
D10*
%TO.C,Q1*%
X16129000Y58293000D03*
X13589000Y58293000D03*
X18669000Y58293000D03*
%TD*%
%TO.C,R10*%
X16383000Y107762000D03*
X16383000Y96962000D03*
%TD*%
D12*
%TO.C,D5*%
X45085000Y94852000D03*
D13*
X45085000Y102252000D03*
%TD*%
D10*
%TO.C,R3*%
X20574000Y54168000D03*
X20574000Y43368000D03*
%TD*%
%TO.C,C12*%
X35266000Y69469000D03*
X30266000Y69469000D03*
%TD*%
%TO.C,R21*%
X35626000Y56134000D03*
X24826000Y56134000D03*
%TD*%
D21*
%TO.C,RV1*%
X14271000Y88140000D03*
X9271000Y88140000D03*
X4271000Y88140000D03*
%TD*%
%TO.C,RV3*%
X56181000Y88140000D03*
X51181000Y88140000D03*
X46181000Y88140000D03*
%TD*%
D10*
%TO.C,D3*%
X31496000Y49530000D03*
D22*
X28956000Y49530000D03*
%TD*%
D21*
%TO.C,RV2*%
X35226000Y60200000D03*
X30226000Y60200000D03*
X25226000Y60200000D03*
%TD*%
M02*
