M48
; DRILL file {KiCad 9.0.2} date 2025-07-08T13:19:56-0500
; FORMAT={-:-/ absolute / metric / decimal}
; #@! TF.CreationDate,2025-07-08T13:19:56-05:00
; #@! TF.GenerationSoftware,Kicad,Pcbnew,9.0.2
; #@! TF.FileFunction,Plated,1,2,PTH
FMAT,2
METRIC
; #@! TA.AperFunction,Plated,PTH,ComponentDrill
T1C0.700
; #@! TA.AperFunction,Plated,PTH,ComponentDrill
T2C0.800
; #@! TA.AperFunction,Plated,PTH,ComponentDrill
T3C0.900
; #@! TA.AperFunction,Plated,PTH,ComponentDrill
T4C1.000
; #@! TA.AperFunction,Plated,PTH,ComponentDrill
T5C1.100
; #@! TA.AperFunction,Plated,PTH,ComponentDrill
T6C1.200
%
G90
G05
T1
X4.104Y92.964
X5.08Y58.039
X9.104Y92.964
X10.16Y58.039
X13.335Y92.964
X18.415Y92.964
X22.9Y87.376
X24.892Y70.358
X24.892Y67.818
X27.9Y87.376
X30.226Y78.994
X35.306Y78.994
X39.751Y60.579
X39.751Y55.579
X47.665Y82.423
X47.665Y53.467
X52.665Y82.423
X52.665Y53.467
T2
X3.937Y67.143
X3.937Y62.143
X4.064Y107.762
X4.064Y96.962
X4.887Y53.467
X5.08Y83.378
X5.08Y72.578
X5.715Y49.088
X5.715Y38.288
X8.001Y107.762
X8.001Y96.962
X8.189Y62.738
X8.316Y67.31
X9.525Y49.088
X9.525Y38.288
X9.779Y83.505
X9.779Y72.705
X12.192Y107.762
X12.192Y96.962
X13.589Y58.293
X13.843Y83.505
X13.843Y72.705
X14.986Y48.22
X14.986Y43.22
X15.687Y53.467
X16.129Y58.293
X16.383Y107.762
X16.383Y96.962
X18.288Y76.724
X18.669Y58.293
X18.989Y62.738
X19.116Y67.31
X19.873Y83.439
X20.487Y105.283
X20.574Y54.168
X20.574Y43.368
X20.828Y76.724
X22.225Y92.694
X23.368Y76.724
X24.765Y92.694
X24.826Y64.262
X24.826Y56.134
X24.826Y43.561
X25.487Y105.283
X27.305Y92.694
X27.493Y74.803
X28.956Y49.53
X30.266Y69.469
X30.673Y83.439
X31.496Y49.53
X31.684Y109.601
X32.004Y103.444
X32.004Y92.644
X34.33Y86.995
X35.266Y69.469
X35.626Y64.262
X35.626Y56.134
X35.626Y43.561
X36.195Y103.444
X36.195Y92.644
X38.293Y74.803
X39.33Y86.995
X42.484Y109.601
X44.765Y77.978
X44.765Y73.66
X44.765Y69.469
X44.765Y65.532
X47.625Y60.198
X50.165Y60.198
X52.705Y60.198
X55.565Y77.978
X55.565Y73.66
X55.565Y69.469
X55.565Y65.532
T3
X25.019Y115.149
X25.019Y112.649
T4
X7.62Y32.512
X7.62Y30.012
X16.51Y37.492
X16.51Y34.992
X16.51Y32.492
X16.51Y29.992
X43.942Y37.572
X43.942Y35.072
X43.942Y32.572
X43.942Y30.072
X48.006Y114.537
X50.506Y114.537
X52.832Y35.012
X52.832Y32.512
T5
X20.43Y100.584
X20.43Y97.028
X27.83Y100.584
X27.83Y97.028
X40.513Y102.76
X40.513Y95.36
X45.085Y102.252
X45.085Y94.852
T6
X4.271Y88.14
X9.271Y88.14
X14.271Y88.14
X25.226Y60.2
X30.226Y60.2
X31.777Y114.554
X35.226Y60.2
X42.137Y114.554
X46.181Y88.14
X51.181Y88.14
X56.181Y88.14
M30
