%TF.GenerationSoftware,KiCad,Pcbnew,9.0.2*%
%TF.CreationDate,2025-07-08T13:25:15-05:00*%
%TF.ProjectId,BB Overdrive,4242204f-7665-4726-9472-6976652e6b69,rev?*%
%TF.SameCoordinates,Original*%
%TF.FileFunction,Copper,L1,Top*%
%TF.FilePolarity,Positive*%
%FSLAX46Y46*%
G04 Gerber Fmt 4.6, Leading zero omitted, Abs format (unit mm)*
G04 Created by KiCad (PCBNEW 9.0.2) date 2025-07-08 13:25:15*
%MOMM*%
%LPD*%
G01*
G04 APERTURE LIST*
G04 Aperture macros list*
%AMRoundRect*
0 Rectangle with rounded corners*
0 $1 Rounding radius*
0 $2 $3 $4 $5 $6 $7 $8 $9 X,Y pos of 4 corners*
0 Add a 4 corners polygon primitive as box body*
4,1,4,$2,$3,$4,$5,$6,$7,$8,$9,$2,$3,0*
0 Add four circle primitives for the rounded corners*
1,1,$1+$1,$2,$3*
1,1,$1+$1,$4,$5*
1,1,$1+$1,$6,$7*
1,1,$1+$1,$8,$9*
0 Add four rect primitives between the rounded corners*
20,1,$1+$1,$2,$3,$4,$5,0*
20,1,$1+$1,$4,$5,$6,$7,0*
20,1,$1+$1,$6,$7,$8,$9,0*
20,1,$1+$1,$8,$9,$2,$3,0*%
G04 Aperture macros list end*
%TA.AperFunction,ComponentPad*%
%ADD10C,2.000000*%
%TD*%
%TA.AperFunction,ComponentPad*%
%ADD11R,2.000000X2.000000*%
%TD*%
%TA.AperFunction,ComponentPad*%
%ADD12RoundRect,0.500000X-0.500000X0.500000X-0.500000X-0.500000X0.500000X-0.500000X0.500000X0.500000X0*%
%TD*%
%TA.AperFunction,ComponentPad*%
%ADD13C,1.400000*%
%TD*%
%TA.AperFunction,ComponentPad*%
%ADD14C,1.600000*%
%TD*%
%TA.AperFunction,ComponentPad*%
%ADD15R,1.600000X1.600000*%
%TD*%
%TA.AperFunction,ComponentPad*%
%ADD16C,2.400000*%
%TD*%
%TA.AperFunction,ComponentPad*%
%ADD17R,2.400000X2.400000*%
%TD*%
%TA.AperFunction,ComponentPad*%
%ADD18R,1.800000X1.800000*%
%TD*%
%TA.AperFunction,ComponentPad*%
%ADD19C,1.800000*%
%TD*%
%TA.AperFunction,ComponentPad*%
%ADD20RoundRect,0.500000X0.500000X-0.500000X0.500000X0.500000X-0.500000X0.500000X-0.500000X-0.500000X0*%
%TD*%
%TA.AperFunction,ComponentPad*%
%ADD21RoundRect,0.500000X0.500000X0.500000X-0.500000X0.500000X-0.500000X-0.500000X0.500000X-0.500000X0*%
%TD*%
%TA.AperFunction,ComponentPad*%
%ADD22C,2.500000*%
%TD*%
%TA.AperFunction,ComponentPad*%
%ADD23RoundRect,0.400000X0.400000X0.400000X-0.400000X0.400000X-0.400000X-0.400000X0.400000X-0.400000X0*%
%TD*%
%TA.AperFunction,ViaPad*%
%ADD24C,0.609600*%
%TD*%
%TA.AperFunction,Conductor*%
%ADD25C,0.406400*%
%TD*%
%TA.AperFunction,Conductor*%
%ADD26C,0.609600*%
%TD*%
G04 APERTURE END LIST*
D10*
%TO.P,D2,1,K*%
%TO.N,Net-(D2-K)*%
X31335200Y90424000D03*
D11*
%TO.P,D2,2,A*%
%TO.N,Net-(D1-K)*%
X23935200Y90424000D03*
%TD*%
D12*
%TO.P,J1,1,1*%
%TO.N,/SEND*%
X16510000Y37492000D03*
D10*
%TO.P,J1,2,2*%
%TO.N,GND*%
X16510000Y34992000D03*
%TO.P,J1,3,3*%
X16510000Y32492000D03*
%TO.P,J1,4,4*%
%TO.N,/IN*%
X16510000Y29992000D03*
%TD*%
%TO.P,D6,1,K*%
%TO.N,Net-(D5-A)*%
X23935200Y93980000D03*
D11*
%TO.P,D6,2,A*%
%TO.N,Net-(D2-K)*%
X31335200Y93980000D03*
%TD*%
D13*
%TO.P,C8,1*%
%TO.N,Net-(C8-Pad1)*%
X56170200Y77317600D03*
%TO.P,C8,2*%
%TO.N,/RETURN*%
X51170200Y77317600D03*
%TD*%
D14*
%TO.P,R18,1*%
%TO.N,VREF*%
X24445000Y105892600D03*
%TO.P,R18,2*%
%TO.N,+VA*%
X35245000Y105892600D03*
%TD*%
%TO.P,R19,1*%
%TO.N,Net-(D3-K)*%
X24826000Y43713400D03*
%TO.P,R19,2*%
%TO.N,/LED+*%
X35626000Y43713400D03*
%TD*%
%TO.P,C1,1*%
%TO.N,Net-(U1A--)*%
X13309600Y82753200D03*
%TO.P,C1,2*%
%TO.N,Net-(C1-Pad2)*%
X10809600Y82753200D03*
%TD*%
%TO.P,R1,1*%
%TO.N,Net-(C2-Pad1)*%
X7182000Y66761400D03*
%TO.P,R1,2*%
%TO.N,Net-(U1A--)*%
X7182000Y77561400D03*
%TD*%
%TO.P,R2,1*%
%TO.N,Net-(C2-Pad2)*%
X12649200Y66736000D03*
%TO.P,R2,2*%
%TO.N,Net-(U1A--)*%
X12649200Y77536000D03*
%TD*%
D15*
%TO.P,U1,1*%
%TO.N,Net-(C1-Pad2)*%
X18364200Y79955000D03*
D14*
%TO.P,U1,2,-*%
%TO.N,Net-(U1A--)*%
X18364200Y77415000D03*
%TO.P,U1,3,+*%
%TO.N,Net-(U1A-+)*%
X18364200Y74875000D03*
%TO.P,U1,4,V-*%
%TO.N,GND*%
X18364200Y72335000D03*
%TO.P,U1,5,+*%
%TO.N,VREF*%
X25984200Y72335000D03*
%TO.P,U1,6,-*%
%TO.N,Net-(U1B--)*%
X25984200Y74875000D03*
%TO.P,U1,7*%
%TO.N,Net-(D2-K)*%
X25984200Y77415000D03*
%TO.P,U1,8,V+*%
%TO.N,+VA*%
X25984200Y79955000D03*
%TD*%
%TO.P,R5,1*%
%TO.N,Net-(U1B--)*%
X31242000Y70622200D03*
%TO.P,R5,2*%
%TO.N,Net-(D1-A)*%
X31242000Y81422200D03*
%TD*%
D13*
%TO.P,C5,1*%
%TO.N,Net-(C5-Pad1)*%
X6771000Y92760800D03*
%TO.P,C5,2*%
%TO.N,Net-(C5-Pad2)*%
X11771000Y92760800D03*
%TD*%
D16*
%TO.P,D4,1,K*%
%TO.N,+VA*%
X39625600Y105029000D03*
D17*
%TO.P,D4,2,A*%
%TO.N,GND*%
X49985600Y105029000D03*
%TD*%
D10*
%TO.P,D1,1,K*%
%TO.N,Net-(D1-K)*%
X23935200Y86868000D03*
D11*
%TO.P,D1,2,A*%
%TO.N,Net-(D1-A)*%
X31335200Y86868000D03*
%TD*%
D14*
%TO.P,R20,1*%
%TO.N,GND*%
X35245000Y109905800D03*
%TO.P,R20,2*%
%TO.N,VREF*%
X24445000Y109905800D03*
%TD*%
%TO.P,R17,1*%
%TO.N,Net-(J3-Pad1)*%
X50510400Y110185200D03*
%TO.P,R17,2*%
%TO.N,+VA*%
X39710400Y110185200D03*
%TD*%
%TO.P,R9,1*%
%TO.N,/RETURN*%
X56885800Y68732400D03*
%TO.P,R9,2*%
%TO.N,GND*%
X46085800Y68732400D03*
%TD*%
D18*
%TO.P,C11,1*%
%TO.N,VREF*%
X19380200Y103942200D03*
D19*
%TO.P,C11,2*%
%TO.N,GND*%
X19380200Y101442200D03*
%TD*%
D20*
%TO.P,J2,1,1*%
%TO.N,/LED+*%
X43942000Y30072000D03*
D10*
%TO.P,J2,2,2*%
%TO.N,GND*%
X43942000Y32572000D03*
%TO.P,J2,3,3*%
%TO.N,/OUT*%
X43942000Y35072000D03*
%TO.P,J2,4,4*%
%TO.N,/RETURN*%
X43942000Y37572000D03*
%TD*%
D13*
%TO.P,C2,1*%
%TO.N,Net-(C2-Pad1)*%
X7476000Y62941200D03*
%TO.P,C2,2*%
%TO.N,Net-(C2-Pad2)*%
X12476000Y62941200D03*
%TD*%
D14*
%TO.P,R8,1*%
%TO.N,/SEND*%
X15350600Y47879000D03*
%TO.P,R8,2*%
%TO.N,GND*%
X4550600Y47879000D03*
%TD*%
D18*
%TO.P,C10,1*%
%TO.N,+VA*%
X37871400Y98684400D03*
D19*
%TO.P,C10,2*%
%TO.N,GND*%
X37871400Y96184400D03*
%TD*%
D13*
%TO.P,C6,1*%
%TO.N,VREF*%
X30393000Y55905400D03*
%TO.P,C6,2*%
%TO.N,Net-(C6-Pad2)*%
X35393000Y55905400D03*
%TD*%
D12*
%TO.P,J5,1,1*%
%TO.N,/OUT*%
X52832000Y35012000D03*
D10*
%TO.P,J5,2,2*%
%TO.N,GND*%
X52832000Y32512000D03*
%TD*%
D14*
%TO.P,R3,1*%
%TO.N,Net-(C5-Pad2)*%
X3871000Y97180400D03*
%TO.P,R3,2*%
%TO.N,Net-(U1B--)*%
X14671000Y97180400D03*
%TD*%
%TO.P,R7,1*%
%TO.N,Net-(R7-Pad1)*%
X46202600Y72374800D03*
%TO.P,R7,2*%
%TO.N,Net-(C7-Pad2)*%
X46202600Y83174800D03*
%TD*%
D13*
%TO.P,C3,1*%
%TO.N,VREF*%
X12419474Y58140600D03*
%TO.P,C3,2*%
%TO.N,Net-(C2-Pad1)*%
X7419474Y58140600D03*
%TD*%
%TO.P,C7,1*%
%TO.N,VREF*%
X56221000Y83134200D03*
%TO.P,C7,2*%
%TO.N,Net-(C7-Pad2)*%
X51221000Y83134200D03*
%TD*%
D10*
%TO.P,D5,1,K*%
%TO.N,Net-(D1-A)*%
X31335200Y97536000D03*
D11*
%TO.P,D5,2,A*%
%TO.N,Net-(D5-A)*%
X23935200Y97536000D03*
%TD*%
D14*
%TO.P,R6,1*%
%TO.N,Net-(D2-K)*%
X35803800Y64846200D03*
%TO.P,R6,2*%
%TO.N,Net-(R6-Pad2)*%
X25003800Y64846200D03*
%TD*%
D13*
%TO.P,C4,1*%
%TO.N,/SEND*%
X19069200Y47817400D03*
%TO.P,C4,2*%
%TO.N,Net-(U1A-+)*%
X19069200Y52817400D03*
%TD*%
D14*
%TO.P,R4,1*%
%TO.N,Net-(U1B--)*%
X35509200Y70622200D03*
%TO.P,R4,2*%
%TO.N,Net-(D2-K)*%
X35509200Y81422200D03*
%TD*%
D21*
%TO.P,J3,1,1*%
%TO.N,Net-(J3-Pad1)*%
X50506000Y114537000D03*
D10*
%TO.P,J3,2,2*%
%TO.N,GND*%
X48006000Y114537000D03*
%TD*%
D14*
%TO.P,R12,1*%
%TO.N,Net-(U1A-+)*%
X15350600Y52908200D03*
%TO.P,R12,2*%
%TO.N,VREF*%
X4550600Y52908200D03*
%TD*%
D20*
%TO.P,J4,1,1*%
%TO.N,/IN*%
X7620000Y30012000D03*
D10*
%TO.P,J4,2,2*%
%TO.N,GND*%
X7620000Y32512000D03*
%TD*%
D22*
%TO.P,RV3,1,1*%
%TO.N,VREF*%
X56181000Y88140000D03*
%TO.P,RV3,2,2*%
%TO.N,Net-(C8-Pad1)*%
X51181000Y88140000D03*
%TO.P,RV3,3,3*%
%TO.N,Net-(C7-Pad2)*%
X46181000Y88140000D03*
%TD*%
D14*
%TO.P,D3,1,K*%
%TO.N,Net-(D3-K)*%
X31496000Y49530000D03*
D23*
%TO.P,D3,2,A*%
%TO.N,+VA*%
X28956000Y49530000D03*
%TD*%
D22*
%TO.P,RV2,1,1*%
%TO.N,Net-(C6-Pad2)*%
X35226000Y60200000D03*
%TO.P,RV2,2,2*%
%TO.N,Net-(R7-Pad1)*%
X30226000Y60200000D03*
%TO.P,RV2,3,3*%
%TO.N,Net-(R6-Pad2)*%
X25226000Y60200000D03*
%TD*%
%TO.P,RV1,1,1*%
%TO.N,Net-(U1A--)*%
X14271000Y88140000D03*
%TO.P,RV1,2,2*%
%TO.N,Net-(C1-Pad2)*%
X9271000Y88140000D03*
%TO.P,RV1,3,3*%
%TO.N,Net-(C5-Pad1)*%
X4271000Y88140000D03*
%TD*%
D24*
%TO.N,+VA*%
X41300400Y78790800D03*
X41325800Y59969400D03*
X41325800Y64846200D03*
%TO.N,VREF*%
X39217600Y91668600D03*
X22199600Y58140600D03*
%TD*%
D25*
%TO.N,Net-(C1-Pad2)*%
X10809600Y86601400D02*
X9271000Y88140000D01*
X10809600Y82753200D02*
X10809600Y86601400D01*
%TO.N,Net-(D1-A)*%
X31242000Y86774800D02*
X31335200Y86868000D01*
X28397200Y94598000D02*
X31335200Y97536000D01*
X31242000Y81422200D02*
X31242000Y86774800D01*
X31335200Y86876400D02*
X28397200Y89814400D01*
X31335200Y86868000D02*
X31335200Y86876400D01*
X28397200Y89814400D02*
X28397200Y94598000D01*
%TO.N,/SEND*%
X15350600Y38651400D02*
X16510000Y37492000D01*
X15350600Y47879000D02*
X15350600Y38651400D01*
X15350600Y47879000D02*
X19007600Y47879000D01*
X19007600Y47879000D02*
X19069200Y47817400D01*
%TO.N,Net-(U1A--)*%
X18364200Y77415000D02*
X12770200Y77415000D01*
X12308800Y77561400D02*
X7182000Y77561400D01*
X13309600Y82753200D02*
X13309600Y82905600D01*
X12649200Y77536000D02*
X12649200Y77571600D01*
X12334200Y77536000D02*
X12308800Y77561400D01*
X12770200Y77415000D02*
X12649200Y77536000D01*
X13309600Y82905600D02*
X14271000Y83867000D01*
X14271000Y83867000D02*
X14271000Y88140000D01*
X12649200Y77571600D02*
X13309600Y78232000D01*
X13309600Y78232000D02*
X13309600Y82753200D01*
X12649200Y77536000D02*
X12334200Y77536000D01*
%TO.N,Net-(C5-Pad1)*%
X4271000Y90260800D02*
X6771000Y92760800D01*
X4271000Y88140000D02*
X4271000Y90260800D01*
%TO.N,Net-(C7-Pad2)*%
X46202600Y83174800D02*
X51180400Y83174800D01*
X51180400Y83174800D02*
X51221000Y83134200D01*
X46202600Y88118400D02*
X46181000Y88140000D01*
X46202600Y83174800D02*
X46202600Y88118400D01*
%TO.N,/RETURN*%
X56885800Y68732400D02*
X56885800Y50515800D01*
X51170200Y74448000D02*
X56885800Y68732400D01*
X56885800Y50515800D02*
X43942000Y37572000D01*
X51170200Y77317600D02*
X51170200Y74448000D01*
D26*
%TO.N,+VA*%
X39625600Y105029000D02*
X36108600Y105029000D01*
X39796400Y98684400D02*
X41300400Y97180400D01*
X41325800Y59969400D02*
X41325800Y56540400D01*
X39710400Y110185200D02*
X39710400Y105113800D01*
X37871400Y100965000D02*
X39625600Y102719200D01*
X41325800Y78765400D02*
X41300400Y78790800D01*
X37871400Y98684400D02*
X39796400Y98684400D01*
X41325800Y64846200D02*
X41325800Y78765400D01*
X39710400Y105113800D02*
X39625600Y105029000D01*
X39625600Y102719200D02*
X39625600Y105029000D01*
X41325800Y56540400D02*
X37236400Y52451000D01*
X28956000Y50444400D02*
X28956000Y49530000D01*
X36108600Y105029000D02*
X35245000Y105892600D01*
X30962600Y52451000D02*
X28956000Y50444400D01*
X37236400Y52451000D02*
X30962600Y52451000D01*
X41300400Y97180400D02*
X41300400Y78790800D01*
X37871400Y98684400D02*
X37871400Y100965000D01*
%TO.N,VREF*%
X24445000Y109905800D02*
X24445000Y105892600D01*
X24445000Y105837000D02*
X26339800Y103942200D01*
X34239200Y99009200D02*
X34239200Y94411800D01*
X24445000Y105892600D02*
X24445000Y105837000D01*
X19380200Y105130600D02*
X19380200Y103942200D01*
X36982400Y91668600D02*
X39217600Y91668600D01*
X26339800Y103942200D02*
X29306200Y103942200D01*
X29306200Y103942200D02*
X34239200Y99009200D01*
X24445000Y105892600D02*
X20142200Y105892600D01*
X56221000Y83134200D02*
X56221000Y88100000D01*
X24434800Y55905400D02*
X30393000Y55905400D01*
X7187074Y52908200D02*
X12419474Y58140600D01*
X4550600Y52908200D02*
X7187074Y52908200D01*
X20142200Y105892600D02*
X19380200Y105130600D01*
X22199600Y58140600D02*
X24434800Y55905400D01*
X56221000Y88100000D02*
X56181000Y88140000D01*
X22199600Y58140600D02*
X22199600Y68550400D01*
X34239200Y94411800D02*
X36982400Y91668600D01*
X22199600Y68550400D02*
X25984200Y72335000D01*
D25*
%TO.N,Net-(D3-K)*%
X24826000Y43713400D02*
X27330400Y43713400D01*
X27330400Y43713400D02*
X31496000Y47879000D01*
X31496000Y47879000D02*
X31496000Y49530000D01*
%TO.N,/IN*%
X16510000Y29992000D02*
X7640000Y29992000D01*
X7640000Y29992000D02*
X7620000Y30012000D01*
%TO.N,/OUT*%
X43942000Y35072000D02*
X52772000Y35072000D01*
X52772000Y35072000D02*
X52832000Y35012000D01*
D26*
%TO.N,Net-(J3-Pad1)*%
X50506000Y110189600D02*
X50510400Y110185200D01*
X50506000Y114537000D02*
X50506000Y110189600D01*
D25*
%TO.N,Net-(C2-Pad1)*%
X7182000Y63235200D02*
X7476000Y62941200D01*
X7476000Y62941200D02*
X7476000Y58197126D01*
X7476000Y58197126D02*
X7419474Y58140600D01*
X7182000Y66761400D02*
X7182000Y63235200D01*
%TO.N,Net-(C2-Pad2)*%
X12649200Y63114400D02*
X12476000Y62941200D01*
X12649200Y66736000D02*
X12649200Y63114400D01*
%TO.N,Net-(U1A-+)*%
X19069200Y52817400D02*
X15441400Y52817400D01*
X16179800Y55706800D02*
X15350600Y54877600D01*
X15441400Y52817400D02*
X15350600Y52908200D01*
X16179800Y72690600D02*
X18364200Y74875000D01*
X15350600Y52908200D02*
X15350600Y54877600D01*
X16179800Y55706800D02*
X16179800Y72690600D01*
%TO.N,Net-(C8-Pad1)*%
X53975000Y85346000D02*
X53975000Y79512800D01*
X53975000Y79512800D02*
X56170200Y77317600D01*
X51181000Y88140000D02*
X53975000Y85346000D01*
%TO.N,Net-(C5-Pad2)*%
X3871000Y97180400D02*
X7351400Y97180400D01*
X7351400Y97180400D02*
X11771000Y92760800D01*
%TO.N,Net-(C6-Pad2)*%
X35226000Y60200000D02*
X35226000Y56072400D01*
X35226000Y56072400D02*
X35393000Y55905400D01*
%TO.N,Net-(D1-K)*%
X23935200Y90424000D02*
X23935200Y86868000D01*
%TO.N,Net-(D2-K)*%
X25984200Y77415000D02*
X31502000Y77415000D01*
X35509200Y77516600D02*
X35610800Y77415000D01*
X35509200Y81422200D02*
X35509200Y77516600D01*
X31502000Y77415000D02*
X35610800Y77415000D01*
X35509200Y86250000D02*
X35509200Y81422200D01*
X31335200Y93980000D02*
X31335200Y90424000D01*
X37947600Y75082400D02*
X37947600Y66990000D01*
X31335200Y90424000D02*
X35509200Y86250000D01*
X35615000Y77415000D02*
X37947600Y75082400D01*
X35610800Y77415000D02*
X35615000Y77415000D01*
X37947600Y66990000D02*
X35803800Y64846200D01*
%TO.N,Net-(D5-A)*%
X23935200Y97536000D02*
X23935200Y93980000D01*
%TO.N,Net-(U1B--)*%
X22402800Y82143600D02*
X22402800Y78456400D01*
X31242000Y70622200D02*
X35509200Y70622200D01*
X19608800Y84937600D02*
X22402800Y82143600D01*
X25984200Y74875000D02*
X26989200Y74875000D01*
X26989200Y74875000D02*
X31242000Y70622200D01*
X22402800Y78456400D02*
X25984200Y74875000D01*
X19608800Y92242600D02*
X19608800Y84937600D01*
X14671000Y97180400D02*
X19608800Y92242600D01*
%TO.N,Net-(R6-Pad2)*%
X25003800Y60422200D02*
X25226000Y60200000D01*
X25003800Y64846200D02*
X25003800Y60422200D01*
%TO.N,Net-(R7-Pad1)*%
X44881800Y62712600D02*
X48387000Y66217800D01*
X32738600Y62712600D02*
X44881800Y62712600D01*
X48387000Y66217800D02*
X48387000Y70190400D01*
X48387000Y70190400D02*
X46202600Y72374800D01*
X30226000Y60200000D02*
X32738600Y62712600D01*
%TD*%
%TA.AperFunction,Conductor*%
%TO.N,GND*%
G36*
X16760000Y32925012D02*
G01*
X16702993Y32957925D01*
X16575826Y32992000D01*
X16444174Y32992000D01*
X16317007Y32957925D01*
X16260000Y32925012D01*
X16260000Y34558988D01*
X16317007Y34526075D01*
X16444174Y34492000D01*
X16575826Y34492000D01*
X16702993Y34526075D01*
X16760000Y34558988D01*
X16760000Y32925012D01*
G37*
%TD.AperFunction*%
%TA.AperFunction,Conductor*%
G36*
X53155539Y118216815D02*
G01*
X53201294Y118164011D01*
X53212500Y118112500D01*
X53212500Y112074055D01*
X53247153Y111944725D01*
X53314099Y111828774D01*
X53314101Y111828771D01*
X53408771Y111734101D01*
X53408774Y111734099D01*
X53524725Y111667153D01*
X53654055Y111632500D01*
X53787945Y111632500D01*
X59692500Y111632500D01*
X59759539Y111612815D01*
X59805294Y111560011D01*
X59816500Y111508500D01*
X59816500Y26032500D01*
X59796815Y25965461D01*
X59744011Y25919706D01*
X59692500Y25908500D01*
X41526500Y25908500D01*
X41459461Y25928185D01*
X41413706Y25980989D01*
X41402500Y26032500D01*
X41402500Y37690097D01*
X42441500Y37690097D01*
X42441500Y37453902D01*
X42478446Y37220631D01*
X42551433Y36996003D01*
X42658657Y36785566D01*
X42737862Y36676550D01*
X42797483Y36594490D01*
X42797485Y36594488D01*
X42797485Y36594487D01*
X42964490Y36427482D01*
X42971603Y36422315D01*
X43014266Y36366983D01*
X43020242Y36297370D01*
X42987634Y36235576D01*
X42971603Y36221685D01*
X42964490Y36216517D01*
X42797483Y36049510D01*
X42677995Y35885049D01*
X42658657Y35858433D01*
X42551433Y35647996D01*
X42478446Y35423368D01*
X42441500Y35190097D01*
X42441500Y34953902D01*
X42478446Y34720631D01*
X42551433Y34496003D01*
X42658657Y34285566D01*
X42716591Y34205828D01*
X42797483Y34094490D01*
X42797485Y34094488D01*
X42797485Y34094487D01*
X42964487Y33927485D01*
X42964493Y33927480D01*
X42972029Y33922005D01*
X43014692Y33866673D01*
X43020667Y33797059D01*
X42988058Y33735266D01*
X42972022Y33721372D01*
X42964819Y33716139D01*
X42797866Y33549186D01*
X42659085Y33358171D01*
X42551897Y33147802D01*
X42478934Y32923247D01*
X42462898Y32822000D01*
X43508988Y32822000D01*
X43476075Y32764993D01*
X43442000Y32637826D01*
X43442000Y32506174D01*
X43476075Y32379007D01*
X43508988Y32322000D01*
X42462898Y32322000D01*
X42478934Y32220752D01*
X42551897Y31996197D01*
X42659087Y31785825D01*
X42797858Y31594822D01*
X42797863Y31594816D01*
X42842436Y31550242D01*
X42875920Y31488919D01*
X42870934Y31419227D01*
X42833114Y31366461D01*
X42730890Y31283109D01*
X42677543Y31217683D01*
X42602302Y31125407D01*
X42508091Y30945049D01*
X42508089Y30945045D01*
X42474550Y30827829D01*
X42452114Y30749418D01*
X42452114Y30749416D01*
X42452113Y30749413D01*
X42441500Y30630033D01*
X42441500Y29513971D01*
X42441501Y29513965D01*
X42452113Y29394584D01*
X42508089Y29198954D01*
X42602304Y29018590D01*
X42730890Y28860890D01*
X42888590Y28732304D01*
X42888591Y28732303D01*
X42888593Y28732302D01*
X42978772Y28685196D01*
X43068954Y28638089D01*
X43225376Y28593332D01*
X43264582Y28582114D01*
X43264583Y28582113D01*
X43264586Y28582113D01*
X43341511Y28575274D01*
X43383963Y28571500D01*
X43383966Y28571500D01*
X43383967Y28571500D01*
X44500028Y28571500D01*
X44500033Y28571500D01*
X44500036Y28571501D01*
X44523330Y28573571D01*
X44619415Y28582113D01*
X44815045Y28638089D01*
X44815049Y28638091D01*
X44995407Y28732302D01*
X45079525Y28800891D01*
X45153109Y28860890D01*
X45232774Y28958593D01*
X45281698Y29018593D01*
X45375909Y29198951D01*
X45431886Y29394582D01*
X45442500Y29513963D01*
X45442499Y30630036D01*
X45431886Y30749418D01*
X45375909Y30945049D01*
X45281698Y31125407D01*
X45153109Y31283109D01*
X45050882Y31366463D01*
X45011367Y31424081D01*
X45009275Y31493919D01*
X45041564Y31550244D01*
X45086133Y31594813D01*
X45224914Y31785828D01*
X45332102Y31996197D01*
X45405065Y32220751D01*
X45420542Y32318462D01*
X45421103Y32322000D01*
X44375012Y32322000D01*
X44407925Y32379007D01*
X44442000Y32506174D01*
X44442000Y32637826D01*
X44407925Y32764993D01*
X44375012Y32822000D01*
X45421102Y32822000D01*
X45405065Y32923247D01*
X45332102Y33147802D01*
X45224914Y33358171D01*
X45086133Y33549186D01*
X44919182Y33716137D01*
X44911981Y33721369D01*
X44869312Y33776696D01*
X44863329Y33846309D01*
X44895932Y33908106D01*
X44911974Y33922008D01*
X44919509Y33927482D01*
X45086514Y34094487D01*
X45086517Y34094490D01*
X45225343Y34285567D01*
X45233000Y34300595D01*
X45280975Y34351391D01*
X45343485Y34368300D01*
X51238971Y34368300D01*
X51306010Y34348615D01*
X51351765Y34295811D01*
X51358187Y34278411D01*
X51398089Y34138954D01*
X51398091Y34138951D01*
X51475321Y33991101D01*
X51492304Y33958590D01*
X51620890Y33800890D01*
X51723115Y33717538D01*
X51762632Y33659917D01*
X51764724Y33590079D01*
X51732435Y33533755D01*
X51687866Y33489186D01*
X51549085Y33298171D01*
X51441897Y33087802D01*
X51368934Y32863247D01*
X51352898Y32762000D01*
X52398988Y32762000D01*
X52366075Y32704993D01*
X52332000Y32577826D01*
X52332000Y32446174D01*
X52366075Y32319007D01*
X52398988Y32262000D01*
X51352898Y32262000D01*
X51368934Y32160752D01*
X51441897Y31936197D01*
X51549085Y31725828D01*
X51687866Y31534813D01*
X51854813Y31367866D01*
X52045828Y31229085D01*
X52256197Y31121897D01*
X52480752Y31048934D01*
X52582000Y31032897D01*
X52582000Y32078988D01*
X52639007Y32046075D01*
X52766174Y32012000D01*
X52897826Y32012000D01*
X53024993Y32046075D01*
X53082000Y32078988D01*
X53082000Y31032897D01*
X53183247Y31048934D01*
X53407802Y31121897D01*
X53618171Y31229085D01*
X53809186Y31367866D01*
X53976133Y31534813D01*
X54114914Y31725828D01*
X54222102Y31936197D01*
X54295065Y32160752D01*
X54311102Y32262000D01*
X53265012Y32262000D01*
X53297925Y32319007D01*
X53332000Y32446174D01*
X53332000Y32577826D01*
X53297925Y32704993D01*
X53265012Y32762000D01*
X54311102Y32762000D01*
X54295065Y32863247D01*
X54222102Y33087802D01*
X54114914Y33298171D01*
X53976133Y33489186D01*
X53931565Y33533754D01*
X53898079Y33595077D01*
X53903063Y33664768D01*
X53940885Y33717538D01*
X54043107Y33800888D01*
X54100480Y33871251D01*
X54171698Y33958593D01*
X54265909Y34138951D01*
X54321886Y34334582D01*
X54332500Y34453963D01*
X54332499Y35570036D01*
X54321886Y35689418D01*
X54265909Y35885049D01*
X54171698Y36065407D01*
X54043109Y36223109D01*
X53885407Y36351698D01*
X53705049Y36445909D01*
X53509418Y36501886D01*
X53390037Y36512500D01*
X52273964Y36512499D01*
X52154582Y36501886D01*
X51958951Y36445909D01*
X51778593Y36351698D01*
X51714803Y36299684D01*
X51620890Y36223109D01*
X51557012Y36144768D01*
X51492302Y36065407D01*
X51398091Y35885049D01*
X51398090Y35885046D01*
X51398089Y35885044D01*
X51392521Y35865586D01*
X51355153Y35806549D01*
X51291798Y35777087D01*
X51273306Y35775700D01*
X45343485Y35775700D01*
X45276446Y35795385D01*
X45233000Y35843405D01*
X45225343Y35858433D01*
X45086517Y36049510D01*
X44919510Y36216517D01*
X44912401Y36221682D01*
X44869735Y36277012D01*
X44863756Y36346625D01*
X44896362Y36408420D01*
X44912401Y36422318D01*
X44919506Y36427480D01*
X44919510Y36427483D01*
X45086517Y36594490D01*
X45225343Y36785567D01*
X45300959Y36933971D01*
X45332566Y36996003D01*
X45405553Y37220631D01*
X45442500Y37453902D01*
X45442500Y37690097D01*
X45421973Y37819689D01*
X45405553Y37923368D01*
X45400340Y37939408D01*
X45398344Y38009247D01*
X45430590Y38065408D01*
X57432395Y50067211D01*
X57432398Y50067214D01*
X57435359Y50071645D01*
X57490126Y50153611D01*
X57509411Y50182473D01*
X57531383Y50235520D01*
X57562458Y50310539D01*
X57562459Y50310543D01*
X57589501Y50446489D01*
X57589501Y50591222D01*
X57589500Y50591243D01*
X57589500Y67572980D01*
X57609185Y67640019D01*
X57640615Y67673298D01*
X57733012Y67740428D01*
X57733017Y67740432D01*
X57877771Y67885186D01*
X57998084Y68050786D01*
X57998087Y68050790D01*
X58057303Y68167007D01*
X58091018Y68233176D01*
X58154277Y68427865D01*
X58186300Y68630048D01*
X58186300Y68834751D01*
X58154277Y69036934D01*
X58106821Y69182988D01*
X58091020Y69231619D01*
X57998087Y69414010D01*
X57928409Y69509915D01*
X57877771Y69579613D01*
X57877768Y69579615D01*
X57877766Y69579619D01*
X57733019Y69724366D01*
X57733015Y69724368D01*
X57733013Y69724371D01*
X57660390Y69777132D01*
X57567410Y69844687D01*
X57385019Y69937620D01*
X57190334Y70000877D01*
X56988152Y70032900D01*
X56783448Y70032900D01*
X56670633Y70015031D01*
X56601344Y70023985D01*
X56563560Y70049820D01*
X51910217Y74703164D01*
X51876734Y74764485D01*
X51873900Y74790843D01*
X51873900Y76281787D01*
X51893585Y76348826D01*
X51925013Y76382104D01*
X51952272Y76401909D01*
X52085887Y76535524D01*
X52085890Y76535527D01*
X52196960Y76688401D01*
X52278917Y76849251D01*
X52282745Y76856763D01*
X52283050Y76857700D01*
X52341140Y77036482D01*
X52370700Y77223113D01*
X52370700Y77412086D01*
X52341140Y77598718D01*
X52283549Y77775963D01*
X52282747Y77778432D01*
X52196960Y77946799D01*
X52085890Y78099673D01*
X51952273Y78233290D01*
X51799399Y78344360D01*
X51631032Y78430147D01*
X51451318Y78488540D01*
X51450573Y78488658D01*
X51264686Y78518100D01*
X51264681Y78518100D01*
X51075719Y78518100D01*
X51075714Y78518100D01*
X50889081Y78488540D01*
X50805697Y78461446D01*
X50709368Y78430147D01*
X50709365Y78430145D01*
X50709363Y78430145D01*
X50624862Y78387089D01*
X50541001Y78344360D01*
X50388127Y78233290D01*
X50254510Y78099673D01*
X50187772Y78007816D01*
X50143440Y77946799D01*
X50057654Y77778436D01*
X49999259Y77598718D01*
X49969700Y77412086D01*
X49969700Y77223113D01*
X49999259Y77036481D01*
X50057654Y76856763D01*
X50143440Y76688400D01*
X50206810Y76601179D01*
X50254510Y76535527D01*
X50254512Y76535525D01*
X50254512Y76535524D01*
X50388127Y76401909D01*
X50415387Y76382104D01*
X50458052Y76326773D01*
X50466500Y76281787D01*
X50466500Y74523442D01*
X50466499Y74523421D01*
X50466499Y74517308D01*
X50466499Y74378692D01*
X50488301Y74269092D01*
X50493543Y74242738D01*
X50493544Y74242734D01*
X50546587Y74114676D01*
X50623600Y73999416D01*
X50662701Y73960316D01*
X50721617Y73901400D01*
X50721620Y73901397D01*
X55568375Y69054641D01*
X55601860Y68993318D01*
X55603167Y68947562D01*
X55585300Y68834757D01*
X55585300Y68630048D01*
X55617322Y68427865D01*
X55680581Y68233176D01*
X55773515Y68050786D01*
X55893828Y67885186D01*
X56038582Y67740432D01*
X56038587Y67740428D01*
X56130985Y67673298D01*
X56173651Y67617969D01*
X56182100Y67572980D01*
X56182100Y50858644D01*
X56162415Y50791605D01*
X56145781Y50770963D01*
X44435408Y39060590D01*
X44374085Y39027105D01*
X44309408Y39030340D01*
X44293368Y39035553D01*
X44189689Y39051973D01*
X44060097Y39072500D01*
X44060092Y39072500D01*
X43823908Y39072500D01*
X43823903Y39072500D01*
X43590631Y39035553D01*
X43502321Y39006859D01*
X43366008Y38962568D01*
X43366005Y38962566D01*
X43366003Y38962566D01*
X43254991Y38906002D01*
X43155567Y38855343D01*
X42964490Y38716517D01*
X42797483Y38549510D01*
X42663464Y38365049D01*
X42658657Y38358433D01*
X42551433Y38147996D01*
X42478446Y37923368D01*
X42441500Y37690097D01*
X41402500Y37690097D01*
X41402500Y41214943D01*
X41402500Y41214945D01*
X41367847Y41344274D01*
X41300901Y41460226D01*
X41206226Y41554901D01*
X41090274Y41621847D01*
X40960945Y41656500D01*
X19624945Y41656500D01*
X19491055Y41656500D01*
X19361726Y41621847D01*
X19245774Y41554901D01*
X19151099Y41460226D01*
X19084153Y41344274D01*
X19049500Y41214944D01*
X19049500Y26032500D01*
X19029815Y25965461D01*
X18977011Y25919706D01*
X18925500Y25908500D01*
X759500Y25908500D01*
X692461Y25928185D01*
X646706Y25980989D01*
X635500Y26032500D01*
X635500Y30570033D01*
X6119500Y30570033D01*
X6119500Y29453971D01*
X6119501Y29453965D01*
X6130113Y29334584D01*
X6186089Y29138954D01*
X6186090Y29138953D01*
X6186091Y29138951D01*
X6251105Y29014487D01*
X6280304Y28958590D01*
X6408890Y28800890D01*
X6566590Y28672304D01*
X6566591Y28672303D01*
X6566593Y28672302D01*
X6632087Y28638091D01*
X6746954Y28578089D01*
X6903376Y28533332D01*
X6942582Y28522114D01*
X6942583Y28522113D01*
X6942586Y28522113D01*
X7019511Y28515274D01*
X7061963Y28511500D01*
X7061966Y28511500D01*
X7061967Y28511500D01*
X8178028Y28511500D01*
X8178033Y28511500D01*
X8178036Y28511501D01*
X8201330Y28513571D01*
X8297415Y28522113D01*
X8493045Y28578089D01*
X8493049Y28578091D01*
X8673407Y28672302D01*
X8717993Y28708657D01*
X8831109Y28800890D01*
X8907684Y28894803D01*
X8959698Y28958593D01*
X9053909Y29138951D01*
X9070923Y29198412D01*
X9108291Y29257450D01*
X9171644Y29286913D01*
X9190139Y29288300D01*
X15108515Y29288300D01*
X15175554Y29268615D01*
X15219000Y29220595D01*
X15226657Y29205566D01*
X15305862Y29096550D01*
X15365483Y29014490D01*
X15365485Y29014488D01*
X15365485Y29014487D01*
X15532487Y28847485D01*
X15723566Y28708657D01*
X15934003Y28601433D01*
X16158631Y28528446D01*
X16391903Y28491500D01*
X16391908Y28491500D01*
X16628097Y28491500D01*
X16861368Y28528446D01*
X17085996Y28601433D01*
X17296433Y28708657D01*
X17328980Y28732304D01*
X17487510Y28847483D01*
X17654517Y29014490D01*
X17793343Y29205567D01*
X17844002Y29304991D01*
X17900566Y29416003D01*
X17912901Y29453964D01*
X17973553Y29640632D01*
X18010500Y29873902D01*
X18010500Y30110097D01*
X17973553Y30343368D01*
X17900568Y30567992D01*
X17793343Y30778433D01*
X17654517Y30969510D01*
X17487510Y31136517D01*
X17479973Y31141992D01*
X17437309Y31197322D01*
X17431331Y31266936D01*
X17463938Y31328730D01*
X17479975Y31342627D01*
X17487185Y31347866D01*
X17487186Y31347866D01*
X17654133Y31514813D01*
X17792914Y31705828D01*
X17900102Y31916197D01*
X17973065Y32140752D01*
X17989102Y32242000D01*
X16943012Y32242000D01*
X16975925Y32299007D01*
X17010000Y32426174D01*
X17010000Y32557826D01*
X16975925Y32684993D01*
X16943012Y32742000D01*
X17989102Y32742000D01*
X17973065Y32843247D01*
X17900102Y33067802D01*
X17792914Y33278171D01*
X17654133Y33469186D01*
X17487180Y33636139D01*
X17479555Y33641679D01*
X17436887Y33697007D01*
X17430905Y33766620D01*
X17463508Y33828417D01*
X17479555Y33842321D01*
X17487180Y33847860D01*
X17654133Y34014813D01*
X17792914Y34205828D01*
X17900102Y34416197D01*
X17973065Y34640752D01*
X17989102Y34742000D01*
X16943012Y34742000D01*
X16975925Y34799007D01*
X17010000Y34926174D01*
X17010000Y35057826D01*
X16975925Y35184993D01*
X16943012Y35242000D01*
X17989102Y35242000D01*
X17973065Y35343247D01*
X17900102Y35567802D01*
X17792914Y35778171D01*
X17654133Y35969186D01*
X17609565Y36013754D01*
X17576079Y36075077D01*
X17581063Y36144768D01*
X17618885Y36197538D01*
X17721107Y36280888D01*
X17836427Y36422318D01*
X17849698Y36438593D01*
X17943909Y36618951D01*
X17999886Y36814582D01*
X18010500Y36933963D01*
X18010499Y38050036D01*
X17999886Y38169418D01*
X17943909Y38365049D01*
X17849698Y38545407D01*
X17721109Y38703109D01*
X17563407Y38831698D01*
X17383049Y38925909D01*
X17187418Y38981886D01*
X17068037Y38992500D01*
X16178299Y38992499D01*
X16111261Y39012183D01*
X16065506Y39064987D01*
X16054300Y39116499D01*
X16054300Y43815751D01*
X23525500Y43815751D01*
X23525500Y43611048D01*
X23557522Y43408865D01*
X23620781Y43214176D01*
X23713715Y43031786D01*
X23834028Y42866186D01*
X23978786Y42721428D01*
X24144386Y42601115D01*
X24326776Y42508181D01*
X24521465Y42444922D01*
X24699329Y42416751D01*
X24723648Y42412900D01*
X24723649Y42412900D01*
X24928351Y42412900D01*
X24928352Y42412900D01*
X24955995Y42417278D01*
X25130534Y42444922D01*
X25325223Y42508181D01*
X25450653Y42572091D01*
X25507610Y42601113D01*
X25507613Y42601115D01*
X25673213Y42721428D01*
X25817969Y42866184D01*
X25885100Y42958584D01*
X25940430Y43001251D01*
X25985419Y43009700D01*
X27254958Y43009700D01*
X27254978Y43009699D01*
X27261092Y43009699D01*
X27399710Y43009699D01*
X27535656Y43036741D01*
X27535664Y43036743D01*
X27663723Y43089786D01*
X27778985Y43166801D01*
X27881320Y43269136D01*
X27881340Y43269158D01*
X28427933Y43815751D01*
X34325500Y43815751D01*
X34325500Y43611048D01*
X34357522Y43408865D01*
X34420781Y43214176D01*
X34513715Y43031786D01*
X34634028Y42866186D01*
X34778786Y42721428D01*
X34944386Y42601115D01*
X35126776Y42508181D01*
X35321465Y42444922D01*
X35499329Y42416751D01*
X35523648Y42412900D01*
X35523649Y42412900D01*
X35728351Y42412900D01*
X35728352Y42412900D01*
X35755995Y42417278D01*
X35930534Y42444922D01*
X36125223Y42508181D01*
X36250653Y42572091D01*
X36307610Y42601113D01*
X36307613Y42601115D01*
X36473213Y42721428D01*
X36617971Y42866186D01*
X36738284Y43031786D01*
X36738287Y43031790D01*
X36807079Y43166801D01*
X36831218Y43214176D01*
X36847673Y43264817D01*
X36894477Y43408866D01*
X36926500Y43611048D01*
X36926500Y43815752D01*
X36894477Y44017934D01*
X36831220Y44212619D01*
X36738287Y44395010D01*
X36670732Y44487990D01*
X36617971Y44560613D01*
X36617968Y44560615D01*
X36617966Y44560619D01*
X36473219Y44705366D01*
X36473215Y44705368D01*
X36473213Y44705371D01*
X36400590Y44758132D01*
X36307610Y44825687D01*
X36125219Y44918620D01*
X35930534Y44981877D01*
X35728352Y45013900D01*
X35523648Y45013900D01*
X35422557Y44997888D01*
X35321465Y44981877D01*
X35231137Y44952527D01*
X35126781Y44918620D01*
X35126778Y44918618D01*
X35126776Y44918618D01*
X35060607Y44884903D01*
X34944390Y44825687D01*
X34944386Y44825684D01*
X34778786Y44705371D01*
X34634028Y44560613D01*
X34513715Y44395013D01*
X34420781Y44212623D01*
X34357522Y44017934D01*
X34325500Y43815751D01*
X28427933Y43815751D01*
X31941456Y47329274D01*
X31941487Y47329303D01*
X32042598Y47430414D01*
X32119613Y47545676D01*
X32172655Y47673733D01*
X32172657Y47673738D01*
X32187447Y47748091D01*
X32199701Y47809692D01*
X32199701Y47948308D01*
X32199700Y47948313D01*
X32199700Y48370580D01*
X32219385Y48437619D01*
X32250815Y48470898D01*
X32343212Y48538028D01*
X32343217Y48538032D01*
X32487971Y48682786D01*
X32608284Y48848386D01*
X32608287Y48848390D01*
X32679603Y48988355D01*
X32701218Y49030776D01*
X32712979Y49066970D01*
X32741778Y49155606D01*
X32764477Y49225465D01*
X32796500Y49427648D01*
X32796500Y49632351D01*
X32764477Y49834534D01*
X32735501Y49923713D01*
X32701220Y50029219D01*
X32608287Y50211610D01*
X32536414Y50310535D01*
X32487971Y50377213D01*
X32487968Y50377215D01*
X32487966Y50377219D01*
X32343219Y50521966D01*
X32343215Y50521968D01*
X32343213Y50521971D01*
X32256309Y50585109D01*
X32177610Y50642287D01*
X31995219Y50735220D01*
X31800534Y50798477D01*
X31598352Y50830500D01*
X31393648Y50830500D01*
X31292557Y50814488D01*
X31191465Y50798477D01*
X31130014Y50778510D01*
X30996781Y50735220D01*
X30996778Y50735218D01*
X30996776Y50735218D01*
X30930607Y50701503D01*
X30814390Y50642287D01*
X30814386Y50642284D01*
X30648786Y50521971D01*
X30648781Y50521966D01*
X30504034Y50377219D01*
X30408283Y50245429D01*
X30352955Y50202764D01*
X30283342Y50196785D01*
X30221546Y50229390D01*
X30197485Y50262014D01*
X30142183Y50370550D01*
X30129288Y50439215D01*
X30155564Y50503956D01*
X30164988Y50514522D01*
X31259847Y51609381D01*
X31321170Y51642866D01*
X31347528Y51645700D01*
X37150951Y51645700D01*
X37150971Y51645699D01*
X37157085Y51645699D01*
X37315717Y51645699D01*
X37471291Y51676645D01*
X37471301Y51676648D01*
X37617846Y51737348D01*
X37617859Y51737355D01*
X37749748Y51825481D01*
X37749752Y51825484D01*
X37866238Y51941970D01*
X37866258Y51941992D01*
X41836022Y55911756D01*
X41836053Y55911785D01*
X41951315Y56027047D01*
X41951318Y56027051D01*
X42039444Y56158940D01*
X42039451Y56158953D01*
X42100152Y56305501D01*
X42100153Y56305503D01*
X42100702Y56308263D01*
X42112234Y56366236D01*
X42131101Y56461082D01*
X42131101Y56625829D01*
X42131100Y56625850D01*
X42131100Y60048716D01*
X42131099Y60048719D01*
X42100155Y60204289D01*
X42100153Y60204292D01*
X42100153Y60204297D01*
X42039448Y60350853D01*
X41951318Y60482749D01*
X41839149Y60594918D01*
X41707253Y60683048D01*
X41560697Y60743753D01*
X41560692Y60743753D01*
X41560689Y60743755D01*
X41456975Y60764384D01*
X41405117Y60774699D01*
X41405116Y60774700D01*
X41405115Y60774700D01*
X41246485Y60774700D01*
X41246484Y60774700D01*
X41246480Y60774699D01*
X41090910Y60743755D01*
X41090905Y60743753D01*
X41090903Y60743753D01*
X41090901Y60743752D01*
X40944353Y60683051D01*
X40944340Y60683044D01*
X40812451Y60594918D01*
X40812447Y60594915D01*
X40700284Y60482752D01*
X40700281Y60482748D01*
X40612155Y60350859D01*
X40612148Y60350846D01*
X40551447Y60204298D01*
X40551444Y60204289D01*
X40520500Y60048719D01*
X40520500Y56925328D01*
X40500815Y56858289D01*
X40484181Y56837647D01*
X36939153Y53292619D01*
X36877830Y53259134D01*
X36851472Y53256300D01*
X31048050Y53256300D01*
X31048030Y53256301D01*
X31041916Y53256301D01*
X30883285Y53256301D01*
X30883283Y53256301D01*
X30727708Y53225354D01*
X30727703Y53225353D01*
X30727698Y53225351D01*
X30581153Y53164651D01*
X30581140Y53164644D01*
X30449251Y53076518D01*
X30449247Y53076515D01*
X30333985Y52961253D01*
X30333956Y52961222D01*
X28446992Y51074258D01*
X28446970Y51074238D01*
X28330483Y50957751D01*
X28330482Y50957749D01*
X28257903Y50849127D01*
X28242352Y50825853D01*
X28233483Y50804441D01*
X28230000Y50798187D01*
X28209993Y50778510D01*
X28192387Y50756662D01*
X28180623Y50749625D01*
X28180185Y50749195D01*
X28179751Y50749104D01*
X28177964Y50748035D01*
X28062851Y50689383D01*
X27915743Y50570257D01*
X27845859Y50483958D01*
X27796614Y50423146D01*
X27773211Y50377213D01*
X27710680Y50254488D01*
X27710680Y50254487D01*
X27661687Y50071643D01*
X27661687Y50071642D01*
X27655500Y49993026D01*
X27655500Y49066989D01*
X27655501Y49066970D01*
X27661687Y48988356D01*
X27710680Y48805512D01*
X27796614Y48636853D01*
X27915743Y48489743D01*
X28062853Y48370614D01*
X28231512Y48284680D01*
X28414356Y48235687D01*
X28492979Y48229500D01*
X29419010Y48229500D01*
X29419029Y48229501D01*
X29497643Y48235687D01*
X29656438Y48278236D01*
X29680488Y48284680D01*
X29723868Y48306783D01*
X29849146Y48370614D01*
X29933833Y48439193D01*
X29996257Y48489743D01*
X30100942Y48619018D01*
X30115385Y48636853D01*
X30197481Y48797978D01*
X30245455Y48848775D01*
X30313276Y48865570D01*
X30379411Y48843033D01*
X30408284Y48814569D01*
X30504028Y48682787D01*
X30504032Y48682782D01*
X30648782Y48538032D01*
X30648787Y48538028D01*
X30741185Y48470898D01*
X30744525Y48466566D01*
X30749503Y48464293D01*
X30765633Y48439193D01*
X30783851Y48415569D01*
X30785104Y48408895D01*
X30787277Y48405515D01*
X30792300Y48370580D01*
X30792300Y48221844D01*
X30772615Y48154805D01*
X30755981Y48134163D01*
X27075237Y44453419D01*
X27013914Y44419934D01*
X26987556Y44417100D01*
X25985419Y44417100D01*
X25918380Y44436785D01*
X25885100Y44468216D01*
X25817969Y44560615D01*
X25817968Y44560615D01*
X25817966Y44560619D01*
X25673219Y44705366D01*
X25673215Y44705368D01*
X25673213Y44705371D01*
X25600590Y44758132D01*
X25507610Y44825687D01*
X25325219Y44918620D01*
X25130534Y44981877D01*
X24928352Y45013900D01*
X24723648Y45013900D01*
X24622557Y44997888D01*
X24521465Y44981877D01*
X24431137Y44952527D01*
X24326781Y44918620D01*
X24326778Y44918618D01*
X24326776Y44918618D01*
X24260607Y44884903D01*
X24144390Y44825687D01*
X24144386Y44825684D01*
X23978786Y44705371D01*
X23834028Y44560613D01*
X23713715Y44395013D01*
X23620781Y44212623D01*
X23557522Y44017934D01*
X23525500Y43815751D01*
X16054300Y43815751D01*
X16054300Y46719580D01*
X16073985Y46786619D01*
X16105415Y46819898D01*
X16197812Y46887028D01*
X16197817Y46887032D01*
X16342569Y47031784D01*
X16409700Y47124184D01*
X16465030Y47166851D01*
X16510019Y47175300D01*
X17988632Y47175300D01*
X18055671Y47155615D01*
X18088950Y47124186D01*
X18153511Y47035325D01*
X18287124Y46901712D01*
X18440000Y46790640D01*
X18608363Y46704854D01*
X18788081Y46646459D01*
X18974714Y46616900D01*
X18974719Y46616900D01*
X19163686Y46616900D01*
X19350318Y46646459D01*
X19530036Y46704854D01*
X19698399Y46790640D01*
X19738669Y46819898D01*
X19851273Y46901710D01*
X19984890Y47035327D01*
X20095960Y47188201D01*
X20167855Y47329303D01*
X20181745Y47356563D01*
X20240140Y47536281D01*
X20269700Y47722913D01*
X20269700Y47911886D01*
X20240140Y48098518D01*
X20216757Y48170482D01*
X20181747Y48278232D01*
X20095960Y48446599D01*
X19984890Y48599473D01*
X19851273Y48733090D01*
X19698399Y48844160D01*
X19530032Y48929947D01*
X19350318Y48988340D01*
X19350217Y48988356D01*
X19163686Y49017900D01*
X19163681Y49017900D01*
X18974719Y49017900D01*
X18974714Y49017900D01*
X18788081Y48988340D01*
X18704697Y48961246D01*
X18608368Y48929947D01*
X18608365Y48929945D01*
X18608363Y48929945D01*
X18519547Y48884690D01*
X18440001Y48844160D01*
X18287127Y48733090D01*
X18190890Y48636853D01*
X18173055Y48619018D01*
X18111732Y48585534D01*
X18085374Y48582700D01*
X16510019Y48582700D01*
X16442980Y48602385D01*
X16409700Y48633816D01*
X16342569Y48726215D01*
X16342568Y48726215D01*
X16342566Y48726219D01*
X16197819Y48870966D01*
X16197815Y48870968D01*
X16197813Y48870971D01*
X16116638Y48929947D01*
X16032210Y48991287D01*
X15849819Y49084220D01*
X15655134Y49147477D01*
X15452952Y49179500D01*
X15248248Y49179500D01*
X15147157Y49163488D01*
X15046065Y49147477D01*
X15011617Y49136284D01*
X14851381Y49084220D01*
X14851378Y49084218D01*
X14851376Y49084218D01*
X14785207Y49050503D01*
X14668990Y48991287D01*
X14668986Y48991284D01*
X14503386Y48870971D01*
X14358628Y48726213D01*
X14238315Y48560613D01*
X14145381Y48378223D01*
X14082122Y48183534D01*
X14050100Y47981351D01*
X14050100Y47776648D01*
X14082122Y47574465D01*
X14145381Y47379776D01*
X14238315Y47197386D01*
X14358628Y47031786D01*
X14503382Y46887032D01*
X14503387Y46887028D01*
X14595785Y46819898D01*
X14638451Y46764569D01*
X14646900Y46719580D01*
X14646900Y38726842D01*
X14646899Y38726821D01*
X14646899Y38582089D01*
X14664721Y38492500D01*
X14664721Y38492498D01*
X14673941Y38446145D01*
X14673944Y38446133D01*
X14726986Y38318076D01*
X14804000Y38202816D01*
X14837399Y38169418D01*
X14902017Y38104800D01*
X14902020Y38104797D01*
X14941409Y38065408D01*
X14973182Y38033635D01*
X15006666Y37972311D01*
X15009500Y37945954D01*
X15009500Y36933971D01*
X15009501Y36933965D01*
X15020113Y36814584D01*
X15076089Y36618954D01*
X15076091Y36618951D01*
X15166480Y36445909D01*
X15170304Y36438590D01*
X15298890Y36280890D01*
X15401115Y36197538D01*
X15440632Y36139917D01*
X15442724Y36070079D01*
X15410435Y36013755D01*
X15365866Y35969186D01*
X15227085Y35778171D01*
X15119897Y35567802D01*
X15046934Y35343247D01*
X15030898Y35242000D01*
X16076988Y35242000D01*
X16044075Y35184993D01*
X16010000Y35057826D01*
X16010000Y34926174D01*
X16044075Y34799007D01*
X16076988Y34742000D01*
X15030898Y34742000D01*
X15046934Y34640752D01*
X15119897Y34416197D01*
X15227085Y34205828D01*
X15365866Y34014813D01*
X15532816Y33847863D01*
X15540451Y33842317D01*
X15583116Y33786986D01*
X15589094Y33717373D01*
X15556487Y33655578D01*
X15540451Y33641683D01*
X15532816Y33636136D01*
X15365866Y33469186D01*
X15227085Y33278171D01*
X15119897Y33067802D01*
X15046934Y32843247D01*
X15030898Y32742000D01*
X16076988Y32742000D01*
X16044075Y32684993D01*
X16010000Y32557826D01*
X16010000Y32426174D01*
X16044075Y32299007D01*
X16076988Y32242000D01*
X15030898Y32242000D01*
X15046934Y32140752D01*
X15119897Y31916197D01*
X15227085Y31705828D01*
X15365866Y31514813D01*
X15532813Y31347866D01*
X15540025Y31342627D01*
X15582690Y31287297D01*
X15588669Y31217683D01*
X15556063Y31155888D01*
X15540027Y31141993D01*
X15532490Y31136517D01*
X15365483Y30969510D01*
X15226657Y30778433D01*
X15221438Y30768189D01*
X15219000Y30763405D01*
X15171025Y30712609D01*
X15108515Y30695700D01*
X9201584Y30695700D01*
X9134545Y30715385D01*
X9088790Y30768189D01*
X9082368Y30785588D01*
X9053909Y30885049D01*
X8959698Y31065407D01*
X8831109Y31223109D01*
X8728882Y31306463D01*
X8689367Y31364081D01*
X8687275Y31433919D01*
X8719564Y31490244D01*
X8764133Y31534813D01*
X8902914Y31725828D01*
X9010102Y31936197D01*
X9083065Y32160752D01*
X9099102Y32262000D01*
X8053012Y32262000D01*
X8085925Y32319007D01*
X8120000Y32446174D01*
X8120000Y32577826D01*
X8085925Y32704993D01*
X8053012Y32762000D01*
X9099102Y32762000D01*
X9083065Y32863247D01*
X9010102Y33087802D01*
X8902914Y33298171D01*
X8764133Y33489186D01*
X8597186Y33656133D01*
X8406171Y33794914D01*
X8195804Y33902102D01*
X7971255Y33975063D01*
X7971249Y33975065D01*
X7870000Y33991100D01*
X7870000Y32945012D01*
X7812993Y32977925D01*
X7685826Y33012000D01*
X7554174Y33012000D01*
X7427007Y32977925D01*
X7370000Y32945012D01*
X7370000Y33991101D01*
X7268750Y33975065D01*
X7268744Y33975063D01*
X7044195Y33902102D01*
X6833828Y33794914D01*
X6642813Y33656133D01*
X6475866Y33489186D01*
X6337085Y33298171D01*
X6229897Y33087802D01*
X6156934Y32863247D01*
X6140898Y32762000D01*
X7186988Y32762000D01*
X7154075Y32704993D01*
X7120000Y32577826D01*
X7120000Y32446174D01*
X7154075Y32319007D01*
X7186988Y32262000D01*
X6140898Y32262000D01*
X6156934Y32160752D01*
X6229897Y31936197D01*
X6337087Y31725825D01*
X6475858Y31534822D01*
X6475863Y31534816D01*
X6520436Y31490242D01*
X6553920Y31428919D01*
X6548934Y31359227D01*
X6511114Y31306461D01*
X6408890Y31223109D01*
X6314977Y31107933D01*
X6280302Y31065407D01*
X6186091Y30885049D01*
X6186089Y30885045D01*
X6157632Y30785588D01*
X6130114Y30689418D01*
X6130114Y30689416D01*
X6130113Y30689413D01*
X6119500Y30570033D01*
X635500Y30570033D01*
X635500Y48129000D01*
X3273991Y48129000D01*
X4234914Y48129000D01*
X4230520Y48124606D01*
X4177859Y48033394D01*
X4150600Y47931661D01*
X4150600Y47826339D01*
X4177859Y47724606D01*
X4230520Y47633394D01*
X4234914Y47629000D01*
X3273991Y47629000D01*
X3282609Y47574586D01*
X3345844Y47379970D01*
X3438740Y47197650D01*
X3559017Y47032105D01*
X3559017Y47032104D01*
X3703704Y46887417D01*
X3869250Y46767140D01*
X4051570Y46674244D01*
X4246186Y46611009D01*
X4300600Y46602390D01*
X4300600Y47563314D01*
X4304994Y47558920D01*
X4396206Y47506259D01*
X4497939Y47479000D01*
X4603261Y47479000D01*
X4704994Y47506259D01*
X4796206Y47558920D01*
X4800600Y47563314D01*
X4800600Y46602390D01*
X4855013Y46611009D01*
X5049629Y46674244D01*
X5231949Y46767140D01*
X5397494Y46887417D01*
X5397495Y46887417D01*
X5542182Y47032104D01*
X5542182Y47032105D01*
X5662459Y47197650D01*
X5755355Y47379970D01*
X5818590Y47574586D01*
X5827209Y47629000D01*
X4866286Y47629000D01*
X4870680Y47633394D01*
X4923341Y47724606D01*
X4950600Y47826339D01*
X4950600Y47931661D01*
X4923341Y48033394D01*
X4870680Y48124606D01*
X4866286Y48129000D01*
X5827209Y48129000D01*
X5818590Y48183413D01*
X5755355Y48378029D01*
X5662459Y48560349D01*
X5542182Y48725894D01*
X5542182Y48725895D01*
X5397495Y48870582D01*
X5231949Y48990859D01*
X5049631Y49083754D01*
X4855021Y49146988D01*
X4800600Y49155606D01*
X4800600Y48194686D01*
X4796206Y48199080D01*
X4704994Y48251741D01*
X4603261Y48279000D01*
X4497939Y48279000D01*
X4396206Y48251741D01*
X4304994Y48199080D01*
X4300600Y48194686D01*
X4300600Y49155607D01*
X4246178Y49146988D01*
X4051568Y49083754D01*
X3869250Y48990859D01*
X3703705Y48870582D01*
X3703704Y48870582D01*
X3559017Y48725895D01*
X3559017Y48725894D01*
X3438740Y48560349D01*
X3345844Y48378029D01*
X3282609Y48183413D01*
X3273991Y48129000D01*
X635500Y48129000D01*
X635500Y53010551D01*
X3250100Y53010551D01*
X3250100Y52805848D01*
X3282122Y52603665D01*
X3345381Y52408976D01*
X3438315Y52226586D01*
X3558628Y52060986D01*
X3703386Y51916228D01*
X3868986Y51795915D01*
X4051376Y51702981D01*
X4246065Y51639722D01*
X4423929Y51611551D01*
X4448248Y51607700D01*
X4448249Y51607700D01*
X4652951Y51607700D01*
X4652952Y51607700D01*
X4680595Y51612078D01*
X4855134Y51639722D01*
X5049823Y51702981D01*
X5175253Y51766891D01*
X5232210Y51795913D01*
X5232213Y51795915D01*
X5397813Y51916228D01*
X5546011Y52064426D01*
X5547147Y52063289D01*
X5599764Y52097629D01*
X5635533Y52102900D01*
X7101625Y52102900D01*
X7101645Y52102899D01*
X7107759Y52102899D01*
X7266391Y52102899D01*
X7421965Y52133845D01*
X7421975Y52133848D01*
X7568520Y52194548D01*
X7568535Y52194556D01*
X7616468Y52226585D01*
X7616469Y52226586D01*
X7616475Y52226590D01*
X7679295Y52268565D01*
X7700425Y52282683D01*
X7816912Y52399170D01*
X7816932Y52399192D01*
X12321521Y56903781D01*
X12382844Y56937266D01*
X12409202Y56940100D01*
X12513960Y56940100D01*
X12700592Y56969659D01*
X12880310Y57028054D01*
X13048673Y57113840D01*
X13201547Y57224910D01*
X13335164Y57358527D01*
X13446234Y57511401D01*
X13486764Y57590947D01*
X13532019Y57679763D01*
X13590414Y57859481D01*
X13619974Y58046113D01*
X13619974Y58235086D01*
X13590414Y58421718D01*
X13581387Y58449500D01*
X13532021Y58601432D01*
X13446234Y58769799D01*
X13335164Y58922673D01*
X13201547Y59056290D01*
X13048673Y59167360D01*
X12880306Y59253147D01*
X12700592Y59311540D01*
X12513960Y59341100D01*
X12513955Y59341100D01*
X12324993Y59341100D01*
X12324988Y59341100D01*
X12138355Y59311540D01*
X12054971Y59284446D01*
X11958642Y59253147D01*
X11958639Y59253145D01*
X11958637Y59253145D01*
X11904150Y59225382D01*
X11790275Y59167360D01*
X11637401Y59056290D01*
X11503784Y58922673D01*
X11392714Y58769799D01*
X11306928Y58601436D01*
X11248533Y58421718D01*
X11218974Y58235086D01*
X11218974Y58130328D01*
X11199289Y58063289D01*
X11182655Y58042647D01*
X6889827Y53749819D01*
X6828504Y53716334D01*
X6802146Y53713500D01*
X5635533Y53713500D01*
X5568494Y53733185D01*
X5546454Y53752417D01*
X5546011Y53751974D01*
X5542566Y53755419D01*
X5397819Y53900166D01*
X5397815Y53900169D01*
X5397813Y53900171D01*
X5305415Y53967301D01*
X5232210Y54020487D01*
X5049819Y54113420D01*
X4855134Y54176677D01*
X4652952Y54208700D01*
X4448248Y54208700D01*
X4347157Y54192688D01*
X4246065Y54176677D01*
X4155737Y54147327D01*
X4051381Y54113420D01*
X4051378Y54113418D01*
X4051376Y54113418D01*
X3985207Y54079703D01*
X3868990Y54020487D01*
X3868986Y54020484D01*
X3703386Y53900171D01*
X3558628Y53755413D01*
X3445333Y53599472D01*
X3438313Y53589810D01*
X3409291Y53532853D01*
X3345381Y53407423D01*
X3282122Y53212734D01*
X3250100Y53010551D01*
X635500Y53010551D01*
X635500Y66863751D01*
X5881500Y66863751D01*
X5881500Y66659048D01*
X5913522Y66456865D01*
X5976781Y66262176D01*
X6069715Y66079786D01*
X6190028Y65914186D01*
X6334782Y65769432D01*
X6334787Y65769428D01*
X6427185Y65702298D01*
X6469851Y65646969D01*
X6478300Y65601980D01*
X6478300Y63650685D01*
X6458615Y63583646D01*
X6454642Y63577835D01*
X6449240Y63570399D01*
X6449236Y63570391D01*
X6363454Y63402036D01*
X6305059Y63222318D01*
X6275500Y63035686D01*
X6275500Y62846713D01*
X6305059Y62660081D01*
X6363454Y62480363D01*
X6449240Y62312000D01*
X6512610Y62224779D01*
X6560310Y62159127D01*
X6560312Y62159125D01*
X6560312Y62159124D01*
X6693927Y62025509D01*
X6721187Y62005704D01*
X6763852Y61950373D01*
X6772300Y61905387D01*
X6772300Y59217480D01*
X6752615Y59150441D01*
X6721187Y59117164D01*
X6637401Y59056290D01*
X6503784Y58922673D01*
X6392714Y58769799D01*
X6306928Y58601436D01*
X6248533Y58421718D01*
X6218974Y58235086D01*
X6218974Y58046113D01*
X6248533Y57859481D01*
X6306928Y57679763D01*
X6392714Y57511400D01*
X6456084Y57424179D01*
X6503784Y57358527D01*
X6503786Y57358525D01*
X6503786Y57358524D01*
X6637398Y57224912D01*
X6790274Y57113840D01*
X6958637Y57028054D01*
X7138355Y56969659D01*
X7324988Y56940100D01*
X7324993Y56940100D01*
X7513960Y56940100D01*
X7700592Y56969659D01*
X7880310Y57028054D01*
X8048673Y57113840D01*
X8201547Y57224910D01*
X8335164Y57358527D01*
X8446234Y57511401D01*
X8486764Y57590947D01*
X8532019Y57679763D01*
X8590414Y57859481D01*
X8619974Y58046113D01*
X8619974Y58235086D01*
X8590414Y58421718D01*
X8581387Y58449500D01*
X8532021Y58601432D01*
X8446234Y58769799D01*
X8335164Y58922673D01*
X8216019Y59041818D01*
X8182534Y59103141D01*
X8179700Y59129499D01*
X8179700Y61905387D01*
X8199385Y61972426D01*
X8230813Y62005704D01*
X8258072Y62025509D01*
X8391687Y62159124D01*
X8391690Y62159127D01*
X8502760Y62312001D01*
X8543290Y62391547D01*
X8588545Y62480363D01*
X8646940Y62660081D01*
X8676500Y62846713D01*
X8676500Y63035686D01*
X11275500Y63035686D01*
X11275500Y62846713D01*
X11305059Y62660081D01*
X11363454Y62480363D01*
X11449240Y62312000D01*
X11512610Y62224779D01*
X11560310Y62159127D01*
X11560312Y62159125D01*
X11560312Y62159124D01*
X11693924Y62025512D01*
X11846800Y61914440D01*
X12015163Y61828654D01*
X12194881Y61770259D01*
X12381514Y61740700D01*
X12381519Y61740700D01*
X12570486Y61740700D01*
X12757118Y61770259D01*
X12936836Y61828654D01*
X13105199Y61914440D01*
X13154656Y61950373D01*
X13258073Y62025510D01*
X13391690Y62159127D01*
X13502760Y62312001D01*
X13543290Y62391547D01*
X13588545Y62480363D01*
X13646940Y62660081D01*
X13676500Y62846713D01*
X13676500Y63035686D01*
X13646940Y63222318D01*
X13634956Y63259200D01*
X13588547Y63402032D01*
X13502760Y63570399D01*
X13391690Y63723273D01*
X13389219Y63725744D01*
X13388580Y63726912D01*
X13388526Y63726977D01*
X13388539Y63726988D01*
X13355734Y63787067D01*
X13352900Y63813425D01*
X13352900Y65576580D01*
X13372585Y65643619D01*
X13404015Y65676898D01*
X13496412Y65744028D01*
X13496417Y65744032D01*
X13641171Y65888786D01*
X13761484Y66054386D01*
X13761487Y66054390D01*
X13820703Y66170607D01*
X13854418Y66236776D01*
X13917677Y66431465D01*
X13949700Y66633648D01*
X13949700Y66838351D01*
X13936658Y66920691D01*
X13917677Y67040534D01*
X13854420Y67235219D01*
X13761487Y67417610D01*
X13681543Y67527644D01*
X13641171Y67583213D01*
X13641168Y67583215D01*
X13641166Y67583219D01*
X13496419Y67727966D01*
X13496415Y67727968D01*
X13496413Y67727971D01*
X13423790Y67780732D01*
X13330810Y67848287D01*
X13148419Y67941220D01*
X12953734Y68004477D01*
X12751552Y68036500D01*
X12546848Y68036500D01*
X12505033Y68029877D01*
X12344665Y68004477D01*
X12254337Y67975127D01*
X12149981Y67941220D01*
X12149978Y67941218D01*
X12149976Y67941218D01*
X12083807Y67907503D01*
X11967590Y67848287D01*
X11967586Y67848284D01*
X11801986Y67727971D01*
X11657228Y67583213D01*
X11536915Y67417613D01*
X11443981Y67235223D01*
X11380722Y67040534D01*
X11348700Y66838351D01*
X11348700Y66633648D01*
X11380722Y66431465D01*
X11443981Y66236776D01*
X11536915Y66054386D01*
X11657228Y65888786D01*
X11801982Y65744032D01*
X11801987Y65744028D01*
X11894385Y65676898D01*
X11937051Y65621569D01*
X11945500Y65576580D01*
X11945500Y64094236D01*
X11925815Y64027197D01*
X11877795Y63983752D01*
X11846801Y63967960D01*
X11846797Y63967957D01*
X11846796Y63967957D01*
X11802418Y63935714D01*
X11693927Y63856890D01*
X11560310Y63723273D01*
X11478300Y63610396D01*
X11449240Y63570399D01*
X11363454Y63402036D01*
X11305059Y63222318D01*
X11275500Y63035686D01*
X8676500Y63035686D01*
X8646940Y63222318D01*
X8634956Y63259200D01*
X8588547Y63402032D01*
X8502760Y63570399D01*
X8391690Y63723273D01*
X8258073Y63856890D01*
X8105199Y63967960D01*
X7953405Y64045302D01*
X7902609Y64093276D01*
X7885700Y64155787D01*
X7885700Y65601980D01*
X7905385Y65669019D01*
X7936815Y65702298D01*
X8029212Y65769428D01*
X8029217Y65769432D01*
X8173971Y65914186D01*
X8294284Y66079786D01*
X8294287Y66079790D01*
X8353503Y66196007D01*
X8387218Y66262176D01*
X8450477Y66456865D01*
X8482500Y66659048D01*
X8482500Y66863751D01*
X8473481Y66920691D01*
X8450477Y67065934D01*
X8387220Y67260619D01*
X8294287Y67443010D01*
X8199859Y67572980D01*
X8173971Y67608613D01*
X8173968Y67608615D01*
X8173966Y67608619D01*
X8029219Y67753366D01*
X8029215Y67753368D01*
X8029213Y67753371D01*
X7956590Y67806132D01*
X7863610Y67873687D01*
X7681219Y67966620D01*
X7486534Y68029877D01*
X7284352Y68061900D01*
X7079648Y68061900D01*
X7009478Y68050786D01*
X6877465Y68029877D01*
X6799293Y68004477D01*
X6682781Y67966620D01*
X6682778Y67966618D01*
X6682776Y67966618D01*
X6632931Y67941220D01*
X6500390Y67873687D01*
X6500386Y67873684D01*
X6334786Y67753371D01*
X6190028Y67608613D01*
X6069715Y67443013D01*
X5976781Y67260623D01*
X5913522Y67065934D01*
X5881500Y66863751D01*
X635500Y66863751D01*
X635500Y77663751D01*
X5881500Y77663751D01*
X5881500Y77459048D01*
X5913522Y77256865D01*
X5976781Y77062176D01*
X6069715Y76879786D01*
X6190028Y76714186D01*
X6334786Y76569428D01*
X6500386Y76449115D01*
X6682776Y76356181D01*
X6877465Y76292922D01*
X7055329Y76264751D01*
X7079648Y76260900D01*
X7079649Y76260900D01*
X7284351Y76260900D01*
X7284352Y76260900D01*
X7326161Y76267522D01*
X7486534Y76292922D01*
X7681223Y76356181D01*
X7813764Y76423715D01*
X7863610Y76449113D01*
X7863613Y76449115D01*
X8029213Y76569428D01*
X8173969Y76714184D01*
X8241100Y76806584D01*
X8296430Y76849251D01*
X8341419Y76857700D01*
X11471327Y76857700D01*
X11538366Y76838015D01*
X11571646Y76806584D01*
X11657230Y76688784D01*
X11801986Y76544028D01*
X11967586Y76423715D01*
X12149976Y76330781D01*
X12344665Y76267522D01*
X12522529Y76239351D01*
X12546848Y76235500D01*
X12546849Y76235500D01*
X12751551Y76235500D01*
X12751552Y76235500D01*
X12779195Y76239878D01*
X12953734Y76267522D01*
X13148423Y76330781D01*
X13288023Y76401912D01*
X13330810Y76423713D01*
X13330813Y76423715D01*
X13496413Y76544028D01*
X13627366Y76674981D01*
X13688689Y76708466D01*
X13715047Y76711300D01*
X17204781Y76711300D01*
X17271820Y76691615D01*
X17305100Y76660184D01*
X17372230Y76567784D01*
X17516986Y76423028D01*
X17682586Y76302715D01*
X17775280Y76255485D01*
X17826076Y76207510D01*
X17842871Y76139689D01*
X17820334Y76073554D01*
X17775280Y76034515D01*
X17682590Y75987287D01*
X17682586Y75987284D01*
X17516986Y75866971D01*
X17372228Y75722213D01*
X17257377Y75564131D01*
X17251913Y75556610D01*
X17222891Y75499653D01*
X17158981Y75374223D01*
X17095722Y75179534D01*
X17063700Y74977351D01*
X17063700Y74772642D01*
X17081567Y74659836D01*
X17072613Y74590543D01*
X17046775Y74552757D01*
X15735558Y73241540D01*
X15735536Y73241520D01*
X15633204Y73139188D01*
X15633198Y73139181D01*
X15574584Y73051458D01*
X15574583Y73051456D01*
X15556193Y73023934D01*
X15556185Y73023920D01*
X15503143Y72895864D01*
X15503141Y72895856D01*
X15476099Y72759910D01*
X15476099Y72616182D01*
X15476100Y72616156D01*
X15476100Y56049644D01*
X15456415Y55982605D01*
X15439781Y55961963D01*
X14902020Y55424202D01*
X14902017Y55424200D01*
X14804000Y55326183D01*
X14758587Y55258217D01*
X14726989Y55210927D01*
X14726987Y55210924D01*
X14673943Y55082864D01*
X14673941Y55082856D01*
X14646899Y54946910D01*
X14646899Y54803182D01*
X14646900Y54803156D01*
X14646900Y54067619D01*
X14627215Y54000580D01*
X14595785Y53967301D01*
X14503384Y53900169D01*
X14358628Y53755413D01*
X14245333Y53599472D01*
X14238313Y53589810D01*
X14209291Y53532853D01*
X14145381Y53407423D01*
X14082122Y53212734D01*
X14050100Y53010551D01*
X14050100Y52805848D01*
X14082122Y52603665D01*
X14145381Y52408976D01*
X14238315Y52226586D01*
X14358628Y52060986D01*
X14503386Y51916228D01*
X14668986Y51795915D01*
X14851376Y51702981D01*
X15046065Y51639722D01*
X15223929Y51611551D01*
X15248248Y51607700D01*
X15248249Y51607700D01*
X15452951Y51607700D01*
X15452952Y51607700D01*
X15480595Y51612078D01*
X15655134Y51639722D01*
X15849823Y51702981D01*
X15975253Y51766891D01*
X16032210Y51795913D01*
X16032213Y51795915D01*
X16197813Y51916228D01*
X16342564Y52060979D01*
X16342571Y52060987D01*
X16343735Y52062589D01*
X16344333Y52063050D01*
X16345732Y52064688D01*
X16346076Y52064394D01*
X16399066Y52105253D01*
X16444050Y52113700D01*
X18033387Y52113700D01*
X18100426Y52094015D01*
X18133704Y52062587D01*
X18153509Y52035327D01*
X18287124Y51901712D01*
X18440000Y51790640D01*
X18608363Y51704854D01*
X18788081Y51646459D01*
X18974714Y51616900D01*
X18974719Y51616900D01*
X19163686Y51616900D01*
X19350318Y51646459D01*
X19530036Y51704854D01*
X19698399Y51790640D01*
X19746353Y51825481D01*
X19851273Y51901710D01*
X19984890Y52035327D01*
X20095960Y52188201D01*
X20144101Y52282683D01*
X20181745Y52356563D01*
X20198776Y52408976D01*
X20240140Y52536282D01*
X20269700Y52722913D01*
X20269700Y52911886D01*
X20240140Y53098518D01*
X20218652Y53164651D01*
X20181747Y53278232D01*
X20095960Y53446599D01*
X19984890Y53599473D01*
X19851273Y53733090D01*
X19698399Y53844160D01*
X19530032Y53929947D01*
X19350318Y53988340D01*
X19163686Y54017900D01*
X19163681Y54017900D01*
X18974719Y54017900D01*
X18974714Y54017900D01*
X18788081Y53988340D01*
X18723331Y53967301D01*
X18608368Y53929947D01*
X18608365Y53929945D01*
X18608363Y53929945D01*
X18549929Y53900171D01*
X18440001Y53844160D01*
X18287127Y53733090D01*
X18287124Y53733087D01*
X18153509Y53599472D01*
X18133704Y53572213D01*
X18078373Y53529548D01*
X18033387Y53521100D01*
X16573884Y53521100D01*
X16506845Y53540785D01*
X16465955Y53585979D01*
X16465432Y53585658D01*
X16463722Y53588447D01*
X16463400Y53588804D01*
X16462886Y53589811D01*
X16342571Y53755413D01*
X16342568Y53755415D01*
X16342566Y53755419D01*
X16197819Y53900166D01*
X16197812Y53900171D01*
X16105415Y53967301D01*
X16062749Y54022630D01*
X16054300Y54067619D01*
X16054300Y54534756D01*
X16073985Y54601795D01*
X16090619Y54622437D01*
X16625256Y55157074D01*
X16625287Y55157103D01*
X16726399Y55258215D01*
X16726399Y55258216D01*
X16726400Y55258217D01*
X16803411Y55373473D01*
X16856457Y55501538D01*
X16856656Y55502537D01*
X16856660Y55502557D01*
X16883501Y55637489D01*
X16883501Y55782222D01*
X16883500Y55782243D01*
X16883500Y71902331D01*
X16903185Y71969370D01*
X16955989Y72015125D01*
X17025147Y72025069D01*
X17088703Y71996044D01*
X17125431Y71940650D01*
X17159444Y71835968D01*
X17252340Y71653650D01*
X17372617Y71488105D01*
X17372617Y71488104D01*
X17517304Y71343417D01*
X17682850Y71223140D01*
X17865170Y71130244D01*
X18059786Y71067009D01*
X18114200Y71058390D01*
X18114200Y71959722D01*
X18190506Y71915667D01*
X18304956Y71885000D01*
X18423444Y71885000D01*
X18537894Y71915667D01*
X18614200Y71959722D01*
X18614200Y71058390D01*
X18668613Y71067009D01*
X18863229Y71130244D01*
X19045549Y71223140D01*
X19211094Y71343417D01*
X19211095Y71343417D01*
X19355782Y71488104D01*
X19355782Y71488105D01*
X19476059Y71653650D01*
X19568955Y71835970D01*
X19632190Y72030586D01*
X19640809Y72085000D01*
X18739478Y72085000D01*
X18783533Y72161306D01*
X18814200Y72275756D01*
X18814200Y72394244D01*
X18783533Y72508694D01*
X18739478Y72585000D01*
X19640809Y72585000D01*
X19632190Y72639413D01*
X19568955Y72834029D01*
X19476059Y73016349D01*
X19355782Y73181894D01*
X19355782Y73181895D01*
X19211095Y73326582D01*
X19045547Y73446861D01*
X18952571Y73494234D01*
X18901775Y73542208D01*
X18884979Y73610028D01*
X18907516Y73676164D01*
X18952569Y73715203D01*
X19045811Y73762713D01*
X19211413Y73883028D01*
X19356171Y74027786D01*
X19476484Y74193386D01*
X19476487Y74193390D01*
X19535703Y74309607D01*
X19569418Y74375776D01*
X19570366Y74378692D01*
X19632677Y74570466D01*
X19659459Y74739555D01*
X19664700Y74772648D01*
X19664700Y74977351D01*
X19632677Y75179534D01*
X19597546Y75287655D01*
X19569420Y75374219D01*
X19476487Y75556610D01*
X19408932Y75649590D01*
X19356171Y75722213D01*
X19356167Y75722217D01*
X19356166Y75722219D01*
X19211419Y75866966D01*
X19211415Y75866968D01*
X19211413Y75866971D01*
X19045814Y75987284D01*
X19045810Y75987287D01*
X18953117Y76034516D01*
X18902323Y76082489D01*
X18885528Y76150310D01*
X18908065Y76216445D01*
X18953117Y76255483D01*
X19045810Y76302713D01*
X19045814Y76302715D01*
X19211413Y76423028D01*
X19356171Y76567786D01*
X19476484Y76733386D01*
X19476487Y76733390D01*
X19551082Y76879790D01*
X19569418Y76915776D01*
X19632677Y77110465D01*
X19664700Y77312648D01*
X19664700Y77517351D01*
X19632677Y77719534D01*
X19613540Y77778432D01*
X19569420Y77914219D01*
X19476487Y78096610D01*
X19395730Y78207763D01*
X19356171Y78262213D01*
X19356168Y78262215D01*
X19356166Y78262219D01*
X19211419Y78406966D01*
X19175130Y78433330D01*
X19132465Y78488658D01*
X19126484Y78558271D01*
X19159089Y78620067D01*
X19219926Y78654426D01*
X19234759Y78656938D01*
X19271680Y78660907D01*
X19406528Y78711202D01*
X19406535Y78711206D01*
X19521744Y78797452D01*
X19521747Y78797455D01*
X19607993Y78912664D01*
X19607997Y78912671D01*
X19658291Y79047517D01*
X19660086Y79064216D01*
X19664700Y79107127D01*
X19664699Y80802872D01*
X19658291Y80862483D01*
X19607996Y80997331D01*
X19521746Y81112546D01*
X19406531Y81198796D01*
X19271683Y81249091D01*
X19212073Y81255500D01*
X17516328Y81255499D01*
X17467957Y81250299D01*
X17456716Y81249091D01*
X17321871Y81198797D01*
X17321864Y81198793D01*
X17206655Y81112547D01*
X17206652Y81112544D01*
X17120406Y80997335D01*
X17120402Y80997328D01*
X17070108Y80862482D01*
X17063701Y80802883D01*
X17063701Y80802876D01*
X17063700Y80802864D01*
X17063700Y79107129D01*
X17063701Y79107123D01*
X17070108Y79047516D01*
X17120402Y78912671D01*
X17120406Y78912664D01*
X17206652Y78797455D01*
X17206655Y78797452D01*
X17321864Y78711206D01*
X17321871Y78711202D01*
X17456717Y78660908D01*
X17456715Y78660908D01*
X17493640Y78656939D01*
X17558191Y78630201D01*
X17598039Y78572809D01*
X17600532Y78502983D01*
X17564879Y78442895D01*
X17553270Y78433332D01*
X17516982Y78406967D01*
X17372230Y78262215D01*
X17320628Y78191189D01*
X17309347Y78175661D01*
X17305100Y78169816D01*
X17249770Y78127149D01*
X17204781Y78118700D01*
X14137301Y78118700D01*
X14128615Y78121250D01*
X14119656Y78119962D01*
X14095616Y78130939D01*
X14070262Y78138385D01*
X14064334Y78145225D01*
X14056100Y78148986D01*
X14041810Y78171220D01*
X14024507Y78191189D01*
X14022220Y78201700D01*
X14018324Y78207763D01*
X14013301Y78242700D01*
X14013301Y78273549D01*
X14013301Y78284785D01*
X14013301Y78301309D01*
X14013300Y78301314D01*
X14013300Y81593780D01*
X14032985Y81660819D01*
X14064415Y81694098D01*
X14156812Y81761228D01*
X14156817Y81761232D01*
X14301571Y81905986D01*
X14421884Y82071586D01*
X14421887Y82071590D01*
X14496748Y82218512D01*
X14514818Y82253976D01*
X14578077Y82448665D01*
X14610100Y82650848D01*
X14610100Y82855551D01*
X14610100Y82855552D01*
X14578077Y83057734D01*
X14571845Y83076910D01*
X14571410Y83092123D01*
X14566091Y83106385D01*
X14570431Y83126336D01*
X14569847Y83146748D01*
X14577936Y83160837D01*
X14580943Y83174658D01*
X14602094Y83202912D01*
X14716456Y83317274D01*
X14716487Y83317303D01*
X14817598Y83418414D01*
X14894613Y83533676D01*
X14947655Y83661733D01*
X14947657Y83661738D01*
X14950566Y83676362D01*
X14964254Y83745171D01*
X14974701Y83797690D01*
X14974701Y83942422D01*
X14974700Y83942443D01*
X14974700Y86453948D01*
X14994385Y86520987D01*
X15043853Y86565159D01*
X15046892Y86566658D01*
X15245617Y86681392D01*
X15427661Y86821081D01*
X15427670Y86821089D01*
X15589911Y86983330D01*
X15589918Y86983338D01*
X15729607Y87165382D01*
X15729608Y87165385D01*
X15729611Y87165388D01*
X15844344Y87364112D01*
X15851637Y87381717D01*
X15882190Y87455480D01*
X15932158Y87576113D01*
X15991548Y87797762D01*
X16021500Y88025266D01*
X16021500Y88254734D01*
X15991548Y88482238D01*
X15932158Y88703887D01*
X15844344Y88915888D01*
X15729611Y89114612D01*
X15589919Y89296661D01*
X15589914Y89296665D01*
X15589911Y89296670D01*
X15427670Y89458911D01*
X15427665Y89458914D01*
X15427661Y89458919D01*
X15245612Y89598611D01*
X15046888Y89713344D01*
X14834887Y89801158D01*
X14613238Y89860548D01*
X14385734Y89890500D01*
X14156266Y89890500D01*
X14156258Y89890499D01*
X14145312Y89889057D01*
X13928762Y89860548D01*
X13707113Y89801158D01*
X13612918Y89762141D01*
X13495123Y89713349D01*
X13495117Y89713346D01*
X13495112Y89713344D01*
X13296388Y89598611D01*
X13296385Y89598608D01*
X13296382Y89598607D01*
X13164962Y89497764D01*
X13143211Y89481073D01*
X13114338Y89458918D01*
X13114330Y89458911D01*
X12952089Y89296670D01*
X12952081Y89296661D01*
X12812392Y89114617D01*
X12697657Y88915890D01*
X12697650Y88915876D01*
X12649446Y88799500D01*
X12609842Y88703887D01*
X12550452Y88482238D01*
X12550451Y88482229D01*
X12520500Y88254741D01*
X12520500Y88025258D01*
X12544166Y87845510D01*
X12550452Y87797762D01*
X12570573Y87722668D01*
X12609842Y87576112D01*
X12697650Y87364123D01*
X12697657Y87364109D01*
X12812392Y87165382D01*
X12952081Y86983338D01*
X13114338Y86821081D01*
X13296382Y86681392D01*
X13495107Y86566658D01*
X13498147Y86565159D01*
X13549565Y86517852D01*
X13567300Y86453948D01*
X13567300Y84209844D01*
X13558655Y84180403D01*
X13552132Y84150417D01*
X13548377Y84145401D01*
X13547615Y84142805D01*
X13530981Y84122163D01*
X13498837Y84090019D01*
X13437514Y84056534D01*
X13411156Y84053700D01*
X13207248Y84053700D01*
X13106157Y84037688D01*
X13005065Y84021677D01*
X12972162Y84010986D01*
X12810381Y83958420D01*
X12810378Y83958418D01*
X12810376Y83958418D01*
X12753850Y83929616D01*
X12627990Y83865487D01*
X12627986Y83865484D01*
X12462386Y83745171D01*
X12317628Y83600413D01*
X12229661Y83479334D01*
X12197313Y83434810D01*
X12170085Y83381372D01*
X12122110Y83330576D01*
X12054289Y83313781D01*
X11988154Y83336318D01*
X11949115Y83381372D01*
X11921887Y83434810D01*
X11805480Y83595032D01*
X11801571Y83600413D01*
X11801568Y83600415D01*
X11801566Y83600419D01*
X11656819Y83745166D01*
X11584525Y83797690D01*
X11564415Y83812301D01*
X11521749Y83867630D01*
X11513300Y83912619D01*
X11513300Y86526956D01*
X11513301Y86526982D01*
X11513301Y86670710D01*
X11495107Y86762168D01*
X11486257Y86806662D01*
X11433211Y86934727D01*
X11420534Y86953700D01*
X11356200Y87049983D01*
X11258183Y87148000D01*
X11258181Y87148001D01*
X11251115Y87155067D01*
X11251111Y87155070D01*
X10960807Y87445373D01*
X10927324Y87506694D01*
X10931072Y87572914D01*
X10932157Y87576111D01*
X10932158Y87576113D01*
X10991548Y87797762D01*
X11021500Y88025266D01*
X11021500Y88254734D01*
X10991548Y88482238D01*
X10932158Y88703887D01*
X10844344Y88915888D01*
X10729611Y89114612D01*
X10589919Y89296661D01*
X10589914Y89296665D01*
X10589911Y89296670D01*
X10427670Y89458911D01*
X10427665Y89458914D01*
X10427661Y89458919D01*
X10245612Y89598611D01*
X10046888Y89713344D01*
X9834887Y89801158D01*
X9613238Y89860548D01*
X9385734Y89890500D01*
X9156266Y89890500D01*
X9156258Y89890499D01*
X9145312Y89889057D01*
X8928762Y89860548D01*
X8707113Y89801158D01*
X8612918Y89762141D01*
X8495123Y89713349D01*
X8495117Y89713346D01*
X8495112Y89713344D01*
X8296388Y89598611D01*
X8296385Y89598608D01*
X8296382Y89598607D01*
X8164962Y89497764D01*
X8143211Y89481073D01*
X8114338Y89458918D01*
X8114330Y89458911D01*
X7952089Y89296670D01*
X7952081Y89296661D01*
X7812392Y89114617D01*
X7697657Y88915890D01*
X7697650Y88915876D01*
X7649446Y88799500D01*
X7609842Y88703887D01*
X7550452Y88482238D01*
X7550451Y88482229D01*
X7520500Y88254741D01*
X7520500Y88025258D01*
X7544166Y87845510D01*
X7550452Y87797762D01*
X7570573Y87722668D01*
X7609842Y87576112D01*
X7697650Y87364123D01*
X7697657Y87364109D01*
X7812392Y87165382D01*
X7952081Y86983338D01*
X8114338Y86821081D01*
X8296382Y86681392D01*
X8495109Y86566657D01*
X8495123Y86566650D01*
X8707112Y86478842D01*
X8833590Y86444953D01*
X8928762Y86419452D01*
X8928770Y86419451D01*
X9156258Y86389500D01*
X9156266Y86389500D01*
X9385741Y86389500D01*
X9575215Y86414446D01*
X9613238Y86419452D01*
X9834887Y86478842D01*
X9834896Y86478845D01*
X9838088Y86479929D01*
X9854090Y86480595D01*
X9869098Y86486193D01*
X9888281Y86482019D01*
X9907897Y86482837D01*
X9922508Y86474574D01*
X9937371Y86471341D01*
X9965626Y86450191D01*
X10069581Y86346237D01*
X10103066Y86284914D01*
X10105900Y86258555D01*
X10105900Y83912619D01*
X10086215Y83845580D01*
X10054785Y83812301D01*
X9962384Y83745169D01*
X9817628Y83600413D01*
X9729661Y83479334D01*
X9697313Y83434810D01*
X9670085Y83381372D01*
X9604381Y83252423D01*
X9541122Y83057734D01*
X9509100Y82855551D01*
X9509100Y82650848D01*
X9541122Y82448665D01*
X9604381Y82253976D01*
X9697315Y82071586D01*
X9817628Y81905986D01*
X9962386Y81761228D01*
X10127986Y81640915D01*
X10310376Y81547981D01*
X10505065Y81484722D01*
X10682929Y81456551D01*
X10707248Y81452700D01*
X10707249Y81452700D01*
X10911951Y81452700D01*
X10911952Y81452700D01*
X10939595Y81457078D01*
X11114134Y81484722D01*
X11308823Y81547981D01*
X11434253Y81611891D01*
X11491210Y81640913D01*
X11513300Y81656962D01*
X11656813Y81761228D01*
X11801571Y81905986D01*
X11921886Y82071588D01*
X11949116Y82125028D01*
X11997090Y82175823D01*
X12064912Y82192618D01*
X12131046Y82170080D01*
X12170084Y82125028D01*
X12197313Y82071588D01*
X12317628Y81905986D01*
X12462382Y81761232D01*
X12462387Y81761228D01*
X12554785Y81694098D01*
X12597451Y81638769D01*
X12605900Y81593780D01*
X12605900Y78951758D01*
X12586215Y78884719D01*
X12533411Y78838964D01*
X12501301Y78829285D01*
X12344666Y78804477D01*
X12149981Y78741220D01*
X12149978Y78741218D01*
X12149976Y78741218D01*
X12091774Y78711562D01*
X11967590Y78648287D01*
X11967586Y78648284D01*
X11801986Y78527971D01*
X11657230Y78383215D01*
X11608554Y78316216D01*
X11553225Y78273549D01*
X11508235Y78265100D01*
X8341419Y78265100D01*
X8274380Y78284785D01*
X8241100Y78316216D01*
X8220652Y78344360D01*
X8173966Y78408619D01*
X8029219Y78553366D01*
X8029215Y78553368D01*
X8029213Y78553371D01*
X7937412Y78620067D01*
X7863610Y78673687D01*
X7681219Y78766620D01*
X7486534Y78829877D01*
X7284352Y78861900D01*
X7079648Y78861900D01*
X6978557Y78845888D01*
X6877465Y78829877D01*
X6799293Y78804477D01*
X6682781Y78766620D01*
X6682778Y78766618D01*
X6682776Y78766618D01*
X6632931Y78741220D01*
X6500390Y78673687D01*
X6500386Y78673684D01*
X6334786Y78553371D01*
X6190028Y78408613D01*
X6075622Y78251143D01*
X6069713Y78243010D01*
X6043309Y78191189D01*
X5976781Y78060623D01*
X5913522Y77865934D01*
X5881500Y77663751D01*
X635500Y77663751D01*
X635500Y88254741D01*
X2520500Y88254741D01*
X2520500Y88025258D01*
X2544166Y87845510D01*
X2550452Y87797762D01*
X2570573Y87722668D01*
X2609842Y87576112D01*
X2697650Y87364123D01*
X2697657Y87364109D01*
X2812392Y87165382D01*
X2952081Y86983338D01*
X3114338Y86821081D01*
X3296382Y86681392D01*
X3495109Y86566657D01*
X3495123Y86566650D01*
X3707112Y86478842D01*
X3833590Y86444953D01*
X3928762Y86419452D01*
X3928770Y86419451D01*
X4156258Y86389500D01*
X4156266Y86389500D01*
X4385741Y86389500D01*
X4575215Y86414446D01*
X4613238Y86419452D01*
X4834887Y86478842D01*
X4859295Y86488952D01*
X5046876Y86566650D01*
X5046890Y86566657D01*
X5245617Y86681392D01*
X5427661Y86821081D01*
X5427670Y86821089D01*
X5589911Y86983330D01*
X5589918Y86983338D01*
X5729607Y87165382D01*
X5729608Y87165385D01*
X5729611Y87165388D01*
X5844344Y87364112D01*
X5851637Y87381717D01*
X5882190Y87455480D01*
X5932158Y87576113D01*
X5991548Y87797762D01*
X6021500Y88025266D01*
X6021500Y88254734D01*
X5991548Y88482238D01*
X5932158Y88703887D01*
X5844344Y88915888D01*
X5729611Y89114612D01*
X5589919Y89296661D01*
X5589914Y89296665D01*
X5589911Y89296670D01*
X5427670Y89458911D01*
X5427665Y89458914D01*
X5427661Y89458919D01*
X5245612Y89598611D01*
X5046888Y89713344D01*
X5046869Y89713351D01*
X5043860Y89714837D01*
X5032070Y89725682D01*
X5017497Y89732338D01*
X5006883Y89748852D01*
X4992439Y89762141D01*
X4987949Y89778314D01*
X4979723Y89791116D01*
X4974700Y89826051D01*
X4974700Y89917956D01*
X4994385Y89984995D01*
X5011019Y90005637D01*
X6536160Y91530778D01*
X6597483Y91564263D01*
X6643238Y91565571D01*
X6676519Y91560300D01*
X6676520Y91560300D01*
X6865486Y91560300D01*
X7052118Y91589859D01*
X7231836Y91648254D01*
X7400199Y91734040D01*
X7419296Y91747915D01*
X7553073Y91845110D01*
X7686690Y91978727D01*
X7797760Y92131601D01*
X7880565Y92294115D01*
X7883545Y92299963D01*
X7887427Y92311908D01*
X7930007Y92442955D01*
X7941940Y92479681D01*
X7971500Y92666313D01*
X7971500Y92855286D01*
X7941940Y93041918D01*
X7892666Y93193566D01*
X7883547Y93221632D01*
X7797760Y93389999D01*
X7686690Y93542873D01*
X7553073Y93676490D01*
X7400199Y93787560D01*
X7231832Y93873347D01*
X7052118Y93931740D01*
X6865486Y93961300D01*
X6865481Y93961300D01*
X6676519Y93961300D01*
X6676514Y93961300D01*
X6489881Y93931740D01*
X6406497Y93904646D01*
X6310168Y93873347D01*
X6310165Y93873345D01*
X6310163Y93873345D01*
X6221347Y93828090D01*
X6141801Y93787560D01*
X5988927Y93676490D01*
X5855310Y93542873D01*
X5754418Y93404008D01*
X5744240Y93389999D01*
X5658454Y93221636D01*
X5600059Y93041918D01*
X5570500Y92855286D01*
X5570500Y92666319D01*
X5575771Y92633038D01*
X5566815Y92563744D01*
X5540978Y92525960D01*
X3826758Y90811740D01*
X3826736Y90811720D01*
X3724401Y90709385D01*
X3647386Y90594123D01*
X3594343Y90466064D01*
X3594341Y90466056D01*
X3567299Y90330110D01*
X3567299Y90186382D01*
X3567300Y90186356D01*
X3567300Y89826051D01*
X3547615Y89759012D01*
X3498140Y89714837D01*
X3495124Y89713349D01*
X3495112Y89713344D01*
X3296388Y89598611D01*
X3296385Y89598608D01*
X3296382Y89598607D01*
X3164962Y89497764D01*
X3143211Y89481073D01*
X3114338Y89458918D01*
X3114330Y89458911D01*
X2952089Y89296670D01*
X2952081Y89296661D01*
X2812392Y89114617D01*
X2697657Y88915890D01*
X2697650Y88915876D01*
X2649446Y88799500D01*
X2609842Y88703887D01*
X2550452Y88482238D01*
X2550451Y88482229D01*
X2520500Y88254741D01*
X635500Y88254741D01*
X635500Y97282751D01*
X2570500Y97282751D01*
X2570500Y97078048D01*
X2602522Y96875865D01*
X2665781Y96681176D01*
X2758715Y96498786D01*
X2879028Y96333186D01*
X3023786Y96188428D01*
X3189386Y96068115D01*
X3371776Y95975181D01*
X3566465Y95911922D01*
X3744329Y95883751D01*
X3768648Y95879900D01*
X3768649Y95879900D01*
X3973351Y95879900D01*
X3973352Y95879900D01*
X4000995Y95884278D01*
X4175534Y95911922D01*
X4370223Y95975181D01*
X4511976Y96047409D01*
X4552610Y96068113D01*
X4558574Y96072446D01*
X4718213Y96188428D01*
X4862969Y96333184D01*
X4930100Y96425584D01*
X4985430Y96468251D01*
X5030419Y96476700D01*
X7008556Y96476700D01*
X7075595Y96457015D01*
X7096237Y96440381D01*
X10540978Y92995638D01*
X10574463Y92934315D01*
X10575770Y92888559D01*
X10570500Y92855285D01*
X10570500Y92666313D01*
X10600059Y92479681D01*
X10658454Y92299963D01*
X10744240Y92131600D01*
X10803484Y92050059D01*
X10855310Y91978727D01*
X10855312Y91978725D01*
X10855312Y91978724D01*
X10988924Y91845112D01*
X11141800Y91734040D01*
X11310163Y91648254D01*
X11489881Y91589859D01*
X11676514Y91560300D01*
X11676519Y91560300D01*
X11865486Y91560300D01*
X12052118Y91589859D01*
X12231836Y91648254D01*
X12400199Y91734040D01*
X12419296Y91747915D01*
X12553073Y91845110D01*
X12686690Y91978727D01*
X12797760Y92131601D01*
X12880565Y92294115D01*
X12883545Y92299963D01*
X12887427Y92311908D01*
X12930007Y92442955D01*
X12941940Y92479681D01*
X12971500Y92666313D01*
X12971500Y92855286D01*
X12941940Y93041918D01*
X12892666Y93193566D01*
X12883547Y93221632D01*
X12797760Y93389999D01*
X12686690Y93542873D01*
X12553073Y93676490D01*
X12400199Y93787560D01*
X12231832Y93873347D01*
X12052118Y93931740D01*
X11865486Y93961300D01*
X11865481Y93961300D01*
X11676519Y93961300D01*
X11643236Y93956028D01*
X11573948Y93964982D01*
X11536163Y93990817D01*
X8244230Y97282751D01*
X13370500Y97282751D01*
X13370500Y97078048D01*
X13402522Y96875865D01*
X13465781Y96681176D01*
X13558715Y96498786D01*
X13679028Y96333186D01*
X13823786Y96188428D01*
X13989386Y96068115D01*
X14171776Y95975181D01*
X14366465Y95911922D01*
X14544329Y95883751D01*
X14568648Y95879900D01*
X14568649Y95879900D01*
X14773357Y95879900D01*
X14886162Y95897767D01*
X14955455Y95888813D01*
X14993241Y95862975D01*
X18868781Y91987436D01*
X18902266Y91926113D01*
X18905100Y91899755D01*
X18905100Y85006913D01*
X18905099Y85006908D01*
X18905099Y84868292D01*
X18918803Y84799401D01*
X18920362Y84791560D01*
X18920363Y84791555D01*
X18932141Y84732345D01*
X18932144Y84732333D01*
X18985186Y84604276D01*
X19062200Y84489016D01*
X19111208Y84440008D01*
X19160217Y84391000D01*
X21662781Y81888436D01*
X21696266Y81827113D01*
X21699100Y81800755D01*
X21699100Y78531842D01*
X21699099Y78531821D01*
X21699099Y78387089D01*
X21723365Y78265104D01*
X21726142Y78251143D01*
X21726145Y78251132D01*
X21779187Y78123076D01*
X21856200Y78007816D01*
X21905208Y77958808D01*
X21954217Y77909800D01*
X21954220Y77909797D01*
X24666775Y75197241D01*
X24700260Y75135918D01*
X24701567Y75090162D01*
X24683700Y74977357D01*
X24683700Y74772648D01*
X24715722Y74570465D01*
X24778981Y74375776D01*
X24871915Y74193386D01*
X24992228Y74027786D01*
X25136986Y73883028D01*
X25302586Y73762715D01*
X25395280Y73715485D01*
X25446076Y73667510D01*
X25462871Y73599689D01*
X25440334Y73533554D01*
X25395280Y73494515D01*
X25302590Y73447287D01*
X25302586Y73447284D01*
X25136986Y73326971D01*
X24992228Y73182213D01*
X24871915Y73016613D01*
X24778981Y72834223D01*
X24715722Y72639534D01*
X24683700Y72437351D01*
X24683700Y72227776D01*
X24682093Y72227776D01*
X24669169Y72166290D01*
X24647603Y72137270D01*
X21693322Y69182988D01*
X21693318Y69182985D01*
X21693319Y69182985D01*
X21686253Y69175919D01*
X21686251Y69175918D01*
X21615474Y69105141D01*
X21574082Y69063749D01*
X21528190Y68995066D01*
X21485950Y68931850D01*
X21485949Y68931848D01*
X21425248Y68785301D01*
X21425245Y68785291D01*
X21394299Y68629717D01*
X21394299Y68465975D01*
X21394300Y68465949D01*
X21394300Y58226049D01*
X21394299Y58226028D01*
X21394299Y58061282D01*
X21394298Y58061282D01*
X21416404Y57950157D01*
X21425245Y57905709D01*
X21425248Y57905699D01*
X21485948Y57759153D01*
X21485955Y57759140D01*
X21574080Y57627252D01*
X21630165Y57571167D01*
X21686251Y57515082D01*
X21686254Y57515079D01*
X23809279Y55392054D01*
X23809282Y55392051D01*
X23865367Y55335965D01*
X23921452Y55279880D01*
X24053340Y55191755D01*
X24053353Y55191748D01*
X24199901Y55131047D01*
X24199910Y55131044D01*
X24355479Y55100100D01*
X24355484Y55100100D01*
X24355485Y55100100D01*
X29449175Y55100100D01*
X29516214Y55080415D01*
X29536856Y55063781D01*
X29610924Y54989712D01*
X29763800Y54878640D01*
X29932163Y54792854D01*
X30111881Y54734459D01*
X30298514Y54704900D01*
X30298519Y54704900D01*
X30487486Y54704900D01*
X30674118Y54734459D01*
X30853836Y54792854D01*
X31022199Y54878640D01*
X31175073Y54989710D01*
X31308690Y55123327D01*
X31419760Y55276201D01*
X31460290Y55355747D01*
X31505545Y55444563D01*
X31563940Y55624281D01*
X31593500Y55810913D01*
X31593500Y55999886D01*
X31563940Y56186518D01*
X31505547Y56366232D01*
X31419760Y56534599D01*
X31308690Y56687473D01*
X31175073Y56821090D01*
X31022199Y56932160D01*
X30853832Y57017947D01*
X30674118Y57076340D01*
X30487486Y57105900D01*
X30487481Y57105900D01*
X30298519Y57105900D01*
X30298514Y57105900D01*
X30111881Y57076340D01*
X30047057Y57055277D01*
X29932168Y57017947D01*
X29932165Y57017945D01*
X29932163Y57017945D01*
X29882745Y56992765D01*
X29763801Y56932160D01*
X29610927Y56821090D01*
X29610924Y56821087D01*
X29536856Y56747019D01*
X29475533Y56713534D01*
X29449175Y56710700D01*
X24819728Y56710700D01*
X24752689Y56730385D01*
X24732047Y56747019D01*
X23041219Y58437847D01*
X23007734Y58499170D01*
X23004900Y58525528D01*
X23004900Y60314741D01*
X23475500Y60314741D01*
X23475500Y60085258D01*
X23505451Y59857770D01*
X23505453Y59857759D01*
X23564842Y59636112D01*
X23652650Y59424123D01*
X23652657Y59424109D01*
X23767392Y59225382D01*
X23907081Y59043338D01*
X24069338Y58881081D01*
X24251382Y58741392D01*
X24450109Y58626657D01*
X24450123Y58626650D01*
X24662112Y58538842D01*
X24790076Y58504554D01*
X24883762Y58479452D01*
X24883770Y58479451D01*
X25111258Y58449500D01*
X25111266Y58449500D01*
X25340741Y58449500D01*
X25530215Y58474446D01*
X25568238Y58479452D01*
X25789887Y58538842D01*
X26001876Y58626650D01*
X26001890Y58626657D01*
X26200617Y58741392D01*
X26382661Y58881081D01*
X26382670Y58881089D01*
X26544911Y59043330D01*
X26544918Y59043338D01*
X26684607Y59225382D01*
X26684608Y59225385D01*
X26684611Y59225388D01*
X26799344Y59424112D01*
X26887158Y59636113D01*
X26946548Y59857762D01*
X26976500Y60085266D01*
X26976500Y60314734D01*
X26946548Y60542238D01*
X26887158Y60763887D01*
X26799344Y60975888D01*
X26684611Y61174612D01*
X26544919Y61356661D01*
X26544914Y61356665D01*
X26544911Y61356670D01*
X26382670Y61518911D01*
X26382665Y61518914D01*
X26382661Y61518919D01*
X26200612Y61658611D01*
X26001888Y61773344D01*
X26000669Y61773849D01*
X25786136Y61862712D01*
X25786693Y61864058D01*
X25734524Y61900704D01*
X25708140Y61965400D01*
X25707500Y61977981D01*
X25707500Y63686780D01*
X25727185Y63753819D01*
X25758615Y63787098D01*
X25851012Y63854228D01*
X25851017Y63854232D01*
X25995771Y63998986D01*
X26116084Y64164586D01*
X26116087Y64164590D01*
X26175303Y64280807D01*
X26209018Y64346976D01*
X26272277Y64541665D01*
X26304300Y64743848D01*
X26304300Y64948551D01*
X26286432Y65061361D01*
X26272277Y65150734D01*
X26209020Y65345419D01*
X26116087Y65527810D01*
X26014159Y65668103D01*
X25995771Y65693413D01*
X25995768Y65693415D01*
X25995766Y65693419D01*
X25851019Y65838166D01*
X25851015Y65838168D01*
X25851013Y65838171D01*
X25746392Y65914181D01*
X25685410Y65958487D01*
X25503019Y66051420D01*
X25308334Y66114677D01*
X25106152Y66146700D01*
X24901448Y66146700D01*
X24800357Y66130688D01*
X24699265Y66114677D01*
X24608937Y66085327D01*
X24504581Y66051420D01*
X24504578Y66051418D01*
X24504576Y66051418D01*
X24438407Y66017703D01*
X24322190Y65958487D01*
X24322186Y65958484D01*
X24156586Y65838171D01*
X24011828Y65693413D01*
X23891515Y65527813D01*
X23798581Y65345423D01*
X23735322Y65150734D01*
X23703300Y64948551D01*
X23703300Y64743848D01*
X23735322Y64541665D01*
X23798581Y64346976D01*
X23891515Y64164586D01*
X24011828Y63998986D01*
X24156582Y63854232D01*
X24156587Y63854228D01*
X24248985Y63787098D01*
X24291651Y63731769D01*
X24300100Y63686780D01*
X24300100Y61757139D01*
X24280415Y61690100D01*
X24251587Y61658764D01*
X24069338Y61518918D01*
X24069330Y61518911D01*
X23907089Y61356670D01*
X23907081Y61356661D01*
X23767392Y61174617D01*
X23652657Y60975890D01*
X23652650Y60975876D01*
X23618996Y60894627D01*
X23564842Y60763887D01*
X23505452Y60542238D01*
X23505451Y60542229D01*
X23475500Y60314741D01*
X23004900Y60314741D01*
X23004900Y68165471D01*
X23024585Y68232510D01*
X23041219Y68253152D01*
X25786470Y70998403D01*
X25847793Y71031888D01*
X25876976Y71033872D01*
X25876976Y71034500D01*
X26086551Y71034500D01*
X26086552Y71034500D01*
X26114195Y71038878D01*
X26288734Y71066522D01*
X26483423Y71129781D01*
X26608853Y71193691D01*
X26665810Y71222713D01*
X26666398Y71223140D01*
X26831413Y71343028D01*
X26976171Y71487786D01*
X27096484Y71653386D01*
X27096487Y71653390D01*
X27185160Y71827420D01*
X27189418Y71835776D01*
X27189481Y71835968D01*
X27241493Y71996044D01*
X27252677Y72030465D01*
X27284700Y72232648D01*
X27284700Y72437351D01*
X27252677Y72639534D01*
X27234626Y72695090D01*
X27189420Y72834219D01*
X27096487Y73016610D01*
X27007430Y73139188D01*
X26976171Y73182213D01*
X26976168Y73182215D01*
X26976166Y73182219D01*
X26831419Y73326966D01*
X26831415Y73326968D01*
X26831413Y73326971D01*
X26665814Y73447284D01*
X26665810Y73447287D01*
X26573117Y73494516D01*
X26522323Y73542489D01*
X26505528Y73610310D01*
X26528065Y73676445D01*
X26573117Y73715483D01*
X26665810Y73762713D01*
X26665814Y73762715D01*
X26835262Y73885825D01*
X26901069Y73909305D01*
X26969122Y73893479D01*
X26995828Y73873188D01*
X29924575Y70944441D01*
X29958060Y70883118D01*
X29959367Y70837362D01*
X29941500Y70724557D01*
X29941500Y70519848D01*
X29973522Y70317665D01*
X30036781Y70122976D01*
X30129715Y69940586D01*
X30250028Y69774986D01*
X30394786Y69630228D01*
X30560386Y69509915D01*
X30742776Y69416981D01*
X30937465Y69353722D01*
X31115329Y69325551D01*
X31139648Y69321700D01*
X31139649Y69321700D01*
X31344351Y69321700D01*
X31344352Y69321700D01*
X31371995Y69326078D01*
X31546534Y69353722D01*
X31741223Y69416981D01*
X31866653Y69480891D01*
X31923610Y69509913D01*
X31923613Y69509915D01*
X32089213Y69630228D01*
X32233969Y69774984D01*
X32301100Y69867384D01*
X32356430Y69910051D01*
X32401419Y69918500D01*
X34349781Y69918500D01*
X34416820Y69898815D01*
X34450100Y69867384D01*
X34517230Y69774984D01*
X34661986Y69630228D01*
X34827586Y69509915D01*
X35009976Y69416981D01*
X35204665Y69353722D01*
X35382529Y69325551D01*
X35406848Y69321700D01*
X35406849Y69321700D01*
X35611551Y69321700D01*
X35611552Y69321700D01*
X35639195Y69326078D01*
X35813734Y69353722D01*
X36008423Y69416981D01*
X36133853Y69480891D01*
X36190810Y69509913D01*
X36190813Y69509915D01*
X36356413Y69630228D01*
X36501171Y69774986D01*
X36621484Y69940586D01*
X36621487Y69940590D01*
X36710854Y70115982D01*
X36714418Y70122976D01*
X36777677Y70317665D01*
X36809700Y70519848D01*
X36809700Y70724551D01*
X36777677Y70926734D01*
X36743510Y71031888D01*
X36714420Y71121419D01*
X36621487Y71303810D01*
X36553932Y71396790D01*
X36501171Y71469413D01*
X36501168Y71469415D01*
X36501166Y71469419D01*
X36356419Y71614166D01*
X36356415Y71614168D01*
X36356413Y71614171D01*
X36247656Y71693186D01*
X36190810Y71734487D01*
X36008419Y71827420D01*
X35813734Y71890677D01*
X35611552Y71922700D01*
X35406848Y71922700D01*
X35350562Y71913785D01*
X35204665Y71890677D01*
X35114337Y71861327D01*
X35009981Y71827420D01*
X35009978Y71827418D01*
X35009976Y71827418D01*
X34943807Y71793703D01*
X34827590Y71734487D01*
X34827586Y71734484D01*
X34661986Y71614171D01*
X34517230Y71469415D01*
X34464020Y71396176D01*
X34454323Y71382828D01*
X34450100Y71377016D01*
X34394770Y71334349D01*
X34349781Y71325900D01*
X32401419Y71325900D01*
X32334380Y71345585D01*
X32301100Y71377016D01*
X32296877Y71382828D01*
X32233966Y71469419D01*
X32089219Y71614166D01*
X32089215Y71614168D01*
X32089213Y71614171D01*
X31980456Y71693186D01*
X31923610Y71734487D01*
X31741219Y71827420D01*
X31546534Y71890677D01*
X31344352Y71922700D01*
X31139648Y71922700D01*
X31026833Y71904831D01*
X30957544Y71913785D01*
X30919760Y71939620D01*
X27542870Y75316511D01*
X27542867Y75316515D01*
X27535801Y75323581D01*
X27535800Y75323583D01*
X27437783Y75421600D01*
X27322527Y75498611D01*
X27322524Y75498612D01*
X27322523Y75498613D01*
X27244374Y75530983D01*
X27194462Y75551657D01*
X27131740Y75564133D01*
X27069832Y75596515D01*
X27055617Y75612860D01*
X26976166Y75722219D01*
X26831419Y75866966D01*
X26831415Y75866968D01*
X26831413Y75866971D01*
X26665814Y75987284D01*
X26665810Y75987287D01*
X26573117Y76034516D01*
X26522323Y76082489D01*
X26505528Y76150310D01*
X26528065Y76216445D01*
X26573117Y76255483D01*
X26665810Y76302713D01*
X26665814Y76302715D01*
X26831413Y76423028D01*
X26976169Y76567784D01*
X27043300Y76660184D01*
X27098630Y76702851D01*
X27143619Y76711300D01*
X31432692Y76711300D01*
X35272156Y76711300D01*
X35339195Y76691615D01*
X35359837Y76674981D01*
X37207581Y74827236D01*
X37241066Y74765913D01*
X37243900Y74739555D01*
X37243900Y67332844D01*
X37224215Y67265805D01*
X37207581Y67245163D01*
X36126041Y66163623D01*
X36064718Y66130138D01*
X36018967Y66128831D01*
X35906152Y66146700D01*
X35701448Y66146700D01*
X35600357Y66130688D01*
X35499265Y66114677D01*
X35408937Y66085327D01*
X35304581Y66051420D01*
X35304578Y66051418D01*
X35304576Y66051418D01*
X35238407Y66017703D01*
X35122190Y65958487D01*
X35122186Y65958484D01*
X34956586Y65838171D01*
X34811828Y65693413D01*
X34691515Y65527813D01*
X34598581Y65345423D01*
X34535322Y65150734D01*
X34503300Y64948551D01*
X34503300Y64743848D01*
X34535322Y64541665D01*
X34598581Y64346976D01*
X34691515Y64164586D01*
X34811828Y63998986D01*
X34956586Y63854228D01*
X35122186Y63733915D01*
X35285337Y63650785D01*
X35336133Y63602810D01*
X35352928Y63534989D01*
X35330390Y63468854D01*
X35275675Y63425403D01*
X35229042Y63416300D01*
X32814042Y63416300D01*
X32814022Y63416301D01*
X32807908Y63416301D01*
X32669292Y63416301D01*
X32669290Y63416301D01*
X32535987Y63389784D01*
X32535982Y63389783D01*
X32533338Y63389257D01*
X32533333Y63389255D01*
X32405276Y63336213D01*
X32290014Y63259198D01*
X32188903Y63158087D01*
X32188874Y63158056D01*
X30920627Y61889809D01*
X30859304Y61856324D01*
X30793074Y61860075D01*
X30789901Y61861152D01*
X30789887Y61861158D01*
X30568238Y61920548D01*
X30340734Y61950500D01*
X30111266Y61950500D01*
X29883762Y61920548D01*
X29662113Y61861158D01*
X29565159Y61820998D01*
X29450123Y61773349D01*
X29450119Y61773347D01*
X29450112Y61773344D01*
X29251388Y61658611D01*
X29251385Y61658608D01*
X29251382Y61658607D01*
X29069338Y61518918D01*
X29069330Y61518911D01*
X28907089Y61356670D01*
X28907081Y61356661D01*
X28767392Y61174617D01*
X28652657Y60975890D01*
X28652650Y60975876D01*
X28618996Y60894627D01*
X28564842Y60763887D01*
X28505452Y60542238D01*
X28505451Y60542229D01*
X28475500Y60314741D01*
X28475500Y60085258D01*
X28505451Y59857770D01*
X28505453Y59857759D01*
X28564842Y59636112D01*
X28652650Y59424123D01*
X28652657Y59424109D01*
X28767392Y59225382D01*
X28907081Y59043338D01*
X29069338Y58881081D01*
X29251382Y58741392D01*
X29450109Y58626657D01*
X29450123Y58626650D01*
X29662112Y58538842D01*
X29790076Y58504554D01*
X29883762Y58479452D01*
X29883770Y58479451D01*
X30111258Y58449500D01*
X30111266Y58449500D01*
X30340741Y58449500D01*
X30530215Y58474446D01*
X30568238Y58479452D01*
X30789887Y58538842D01*
X31001876Y58626650D01*
X31001890Y58626657D01*
X31200617Y58741392D01*
X31382661Y58881081D01*
X31382670Y58881089D01*
X31544911Y59043330D01*
X31544918Y59043338D01*
X31684607Y59225382D01*
X31684608Y59225385D01*
X31684611Y59225388D01*
X31799344Y59424112D01*
X31887158Y59636113D01*
X31946548Y59857762D01*
X31976500Y60085266D01*
X31976500Y60314734D01*
X31946548Y60542238D01*
X31887158Y60763887D01*
X31887152Y60763901D01*
X31886075Y60767074D01*
X31883158Y60836883D01*
X31915809Y60894627D01*
X32993763Y61972581D01*
X33055086Y62006066D01*
X33081444Y62008900D01*
X34395965Y62008900D01*
X34463004Y61989215D01*
X34508759Y61936411D01*
X34518703Y61867253D01*
X34489678Y61803697D01*
X34453432Y61775712D01*
X34453628Y61775374D01*
X34451118Y61773925D01*
X34450814Y61773690D01*
X34450108Y61773342D01*
X34422044Y61757139D01*
X34251388Y61658611D01*
X34251385Y61658608D01*
X34251382Y61658607D01*
X34069338Y61518918D01*
X34069330Y61518911D01*
X33907089Y61356670D01*
X33907081Y61356661D01*
X33767392Y61174617D01*
X33652657Y60975890D01*
X33652650Y60975876D01*
X33618996Y60894627D01*
X33564842Y60763887D01*
X33505452Y60542238D01*
X33505451Y60542229D01*
X33475500Y60314741D01*
X33475500Y60085258D01*
X33505451Y59857770D01*
X33505453Y59857759D01*
X33564842Y59636112D01*
X33652650Y59424123D01*
X33652657Y59424109D01*
X33767392Y59225382D01*
X33907081Y59043338D01*
X34069338Y58881081D01*
X34251382Y58741392D01*
X34450107Y58626658D01*
X34453147Y58625159D01*
X34504565Y58577852D01*
X34522300Y58513948D01*
X34522300Y56783825D01*
X34502615Y56716786D01*
X34485981Y56696144D01*
X34477310Y56687473D01*
X34366240Y56534599D01*
X34280454Y56366236D01*
X34222059Y56186518D01*
X34192500Y55999886D01*
X34192500Y55810913D01*
X34222059Y55624281D01*
X34280454Y55444563D01*
X34366240Y55276200D01*
X34413667Y55210924D01*
X34477310Y55123327D01*
X34477312Y55123325D01*
X34477312Y55123324D01*
X34610924Y54989712D01*
X34763800Y54878640D01*
X34932163Y54792854D01*
X35111881Y54734459D01*
X35298514Y54704900D01*
X35298519Y54704900D01*
X35487486Y54704900D01*
X35674118Y54734459D01*
X35853836Y54792854D01*
X36022199Y54878640D01*
X36175073Y54989710D01*
X36308690Y55123327D01*
X36419760Y55276201D01*
X36460290Y55355747D01*
X36505545Y55444563D01*
X36563940Y55624281D01*
X36593500Y55810913D01*
X36593500Y55999886D01*
X36563940Y56186518D01*
X36505547Y56366232D01*
X36419760Y56534599D01*
X36308690Y56687473D01*
X36175073Y56821090D01*
X36022199Y56932160D01*
X35997404Y56944793D01*
X35946610Y56992765D01*
X35929700Y57055277D01*
X35929700Y58513948D01*
X35949385Y58580987D01*
X35998853Y58625159D01*
X36001892Y58626658D01*
X36200617Y58741392D01*
X36382661Y58881081D01*
X36382670Y58881089D01*
X36544911Y59043330D01*
X36544918Y59043338D01*
X36684607Y59225382D01*
X36684608Y59225385D01*
X36684611Y59225388D01*
X36799344Y59424112D01*
X36887158Y59636113D01*
X36946548Y59857762D01*
X36976500Y60085266D01*
X36976500Y60314734D01*
X36946548Y60542238D01*
X36887158Y60763887D01*
X36799344Y60975888D01*
X36684611Y61174612D01*
X36544919Y61356661D01*
X36544914Y61356665D01*
X36544911Y61356670D01*
X36382670Y61518911D01*
X36382665Y61518914D01*
X36382661Y61518919D01*
X36200612Y61658611D01*
X36001888Y61773344D01*
X36001881Y61773347D01*
X36001186Y61773690D01*
X36001012Y61773849D01*
X35998372Y61775374D01*
X35998713Y61775965D01*
X35949769Y61820998D01*
X35932090Y61888594D01*
X35953763Y61955017D01*
X36007906Y61999179D01*
X36056035Y62008900D01*
X44806358Y62008900D01*
X44806378Y62008899D01*
X44812492Y62008899D01*
X44951110Y62008899D01*
X45087056Y62035941D01*
X45087064Y62035943D01*
X45215121Y62088985D01*
X45215127Y62088989D01*
X45217688Y62090700D01*
X45292308Y62140559D01*
X45330385Y62166001D01*
X45432720Y62268336D01*
X45432740Y62268358D01*
X48832456Y65668074D01*
X48832487Y65668103D01*
X48933598Y65769214D01*
X49010613Y65884476D01*
X49063655Y66012533D01*
X49063657Y66012538D01*
X49090699Y66148487D01*
X49090700Y66148489D01*
X49090700Y70115956D01*
X49090701Y70115982D01*
X49090701Y70259711D01*
X49063658Y70395656D01*
X49063657Y70395660D01*
X49063657Y70395662D01*
X49010611Y70523727D01*
X49004075Y70533509D01*
X48933600Y70638983D01*
X48835583Y70737000D01*
X48835580Y70737001D01*
X48828515Y70744067D01*
X48828511Y70744070D01*
X47520021Y72052559D01*
X47486538Y72113880D01*
X47485231Y72159631D01*
X47503100Y72272448D01*
X47503100Y72477152D01*
X47471077Y72679334D01*
X47407820Y72874019D01*
X47314887Y73056410D01*
X47247332Y73149390D01*
X47194571Y73222013D01*
X47194568Y73222015D01*
X47194566Y73222019D01*
X47049819Y73366766D01*
X47049815Y73366768D01*
X47049813Y73366771D01*
X46977190Y73419532D01*
X46884210Y73487087D01*
X46701819Y73580020D01*
X46507134Y73643277D01*
X46304952Y73675300D01*
X46100248Y73675300D01*
X46065397Y73669780D01*
X45898065Y73643277D01*
X45807737Y73613927D01*
X45703381Y73580020D01*
X45703378Y73580018D01*
X45703376Y73580018D01*
X45692547Y73574500D01*
X45520990Y73487087D01*
X45520986Y73487084D01*
X45355386Y73366771D01*
X45210628Y73222013D01*
X45090315Y73056413D01*
X45090313Y73056410D01*
X45070034Y73016610D01*
X44997381Y72874023D01*
X44934122Y72679334D01*
X44902100Y72477151D01*
X44902100Y72272448D01*
X44934122Y72070265D01*
X44997381Y71875576D01*
X45090315Y71693186D01*
X45210628Y71527586D01*
X45355386Y71382828D01*
X45520986Y71262515D01*
X45703376Y71169581D01*
X45898065Y71106322D01*
X46075929Y71078151D01*
X46100248Y71074300D01*
X46100249Y71074300D01*
X46304957Y71074300D01*
X46417762Y71092167D01*
X46487055Y71083213D01*
X46524841Y71057375D01*
X47646981Y69935236D01*
X47680466Y69873913D01*
X47683300Y69847555D01*
X47683300Y66560644D01*
X47663615Y66493605D01*
X47646981Y66472963D01*
X44626637Y63452619D01*
X44565314Y63419134D01*
X44538956Y63416300D01*
X36378558Y63416300D01*
X36311519Y63435985D01*
X36265764Y63488789D01*
X36255820Y63557947D01*
X36284845Y63621503D01*
X36322263Y63650785D01*
X36392906Y63686780D01*
X36485410Y63733913D01*
X36507500Y63749962D01*
X36651013Y63854228D01*
X36795771Y63998986D01*
X36916084Y64164586D01*
X36916087Y64164590D01*
X36975303Y64280807D01*
X37009018Y64346976D01*
X37072277Y64541665D01*
X37104300Y64743848D01*
X37104300Y64948549D01*
X37104300Y64948552D01*
X37086431Y65061365D01*
X37095385Y65130654D01*
X37121223Y65168441D01*
X38393056Y66440274D01*
X38393087Y66440303D01*
X38494198Y66541414D01*
X38571213Y66656676D01*
X38624256Y66784735D01*
X38624258Y66784743D01*
X38628349Y66805307D01*
X38651301Y66920688D01*
X38651301Y67065421D01*
X38651300Y67065442D01*
X38651300Y75007955D01*
X38651301Y75007981D01*
X38651301Y75151710D01*
X38624259Y75287655D01*
X38624258Y75287661D01*
X38573532Y75410121D01*
X38571892Y75414707D01*
X38571211Y75415726D01*
X38571211Y75415727D01*
X38494200Y75530983D01*
X38396183Y75629000D01*
X38396182Y75629000D01*
X36249219Y77775963D01*
X36215734Y77837286D01*
X36212900Y77863644D01*
X36212900Y80262780D01*
X36232585Y80329819D01*
X36264015Y80363098D01*
X36356412Y80430228D01*
X36356417Y80430232D01*
X36501171Y80574986D01*
X36621484Y80740586D01*
X36621487Y80740590D01*
X36683595Y80862483D01*
X36714418Y80922976D01*
X36777677Y81117665D01*
X36809700Y81319848D01*
X36809700Y81524551D01*
X36791609Y81638769D01*
X36777677Y81726734D01*
X36714420Y81921419D01*
X36621487Y82103810D01*
X36542222Y82212910D01*
X36501171Y82269413D01*
X36501168Y82269415D01*
X36501166Y82269419D01*
X36356419Y82414166D01*
X36348411Y82419984D01*
X36264015Y82481301D01*
X36221349Y82536630D01*
X36212900Y82581619D01*
X36212900Y86319310D01*
X36212899Y86319312D01*
X36192980Y86419452D01*
X36185857Y86455262D01*
X36148367Y86545772D01*
X36132813Y86583323D01*
X36132812Y86583324D01*
X36132811Y86583327D01*
X36055800Y86698583D01*
X35957783Y86796600D01*
X35957781Y86796601D01*
X35950715Y86803667D01*
X35950711Y86803670D01*
X32823788Y89930592D01*
X32790305Y89991913D01*
X32793540Y90056589D01*
X32797755Y90069562D01*
X32798753Y90072632D01*
X32816769Y90186382D01*
X32835700Y90305902D01*
X32835700Y90542097D01*
X32798753Y90775368D01*
X32770182Y90863300D01*
X32725768Y90999992D01*
X32618543Y91210433D01*
X32479717Y91401510D01*
X32312710Y91568517D01*
X32121633Y91707343D01*
X32106604Y91715000D01*
X32055810Y91762971D01*
X32038900Y91825484D01*
X32038900Y92355500D01*
X32058585Y92422539D01*
X32111389Y92468294D01*
X32162899Y92479500D01*
X32383069Y92479500D01*
X32383076Y92479501D01*
X32442683Y92485908D01*
X32577528Y92536202D01*
X32577535Y92536206D01*
X32692744Y92622452D01*
X32692747Y92622455D01*
X32778993Y92737664D01*
X32778997Y92737671D01*
X32829291Y92872517D01*
X32831016Y92888559D01*
X32835700Y92932127D01*
X32835699Y95027872D01*
X32829291Y95087483D01*
X32778996Y95222331D01*
X32692746Y95337546D01*
X32577531Y95423796D01*
X32442683Y95474091D01*
X32383073Y95480500D01*
X30574242Y95480499D01*
X30507204Y95500184D01*
X30461449Y95552987D01*
X30451505Y95622146D01*
X30480530Y95685702D01*
X30486562Y95692180D01*
X30841791Y96047409D01*
X30903114Y96080894D01*
X30967790Y96077659D01*
X30983830Y96072447D01*
X31217103Y96035500D01*
X31217108Y96035500D01*
X31453297Y96035500D01*
X31686568Y96072446D01*
X31911196Y96145433D01*
X32121633Y96252657D01*
X32178074Y96293664D01*
X32312710Y96391483D01*
X32479717Y96558490D01*
X32618543Y96749567D01*
X32682896Y96875866D01*
X32725766Y96960003D01*
X32798753Y97184631D01*
X32835700Y97417902D01*
X32835700Y97654097D01*
X32798753Y97887368D01*
X32753184Y98027613D01*
X32725768Y98111992D01*
X32618543Y98322433D01*
X32479717Y98513510D01*
X32312710Y98680517D01*
X32121633Y98819343D01*
X31911192Y98926568D01*
X31686568Y98999553D01*
X31453297Y99036500D01*
X31453292Y99036500D01*
X31217108Y99036500D01*
X31217103Y99036500D01*
X30983831Y98999553D01*
X30923029Y98979797D01*
X30759208Y98926568D01*
X30759205Y98926566D01*
X30759203Y98926566D01*
X30648191Y98870002D01*
X30548767Y98819343D01*
X30357690Y98680517D01*
X30190683Y98513510D01*
X30097764Y98385618D01*
X30051857Y98322433D01*
X29944633Y98111996D01*
X29871646Y97887368D01*
X29834700Y97654097D01*
X29834700Y97417902D01*
X29871647Y97184630D01*
X29876859Y97168590D01*
X29878854Y97098749D01*
X29846609Y97042591D01*
X27948620Y95144602D01*
X27948617Y95144600D01*
X27850600Y95046583D01*
X27812880Y94990130D01*
X27791085Y94957511D01*
X27773589Y94931327D01*
X27773585Y94931320D01*
X27720543Y94803264D01*
X27720541Y94803256D01*
X27693499Y94667310D01*
X27693499Y94523582D01*
X27693500Y94523556D01*
X27693500Y89889842D01*
X27693499Y89889821D01*
X27693499Y89745090D01*
X27714888Y89637568D01*
X27714888Y89637566D01*
X27720541Y89609144D01*
X27720544Y89609133D01*
X27773586Y89481076D01*
X27850600Y89365816D01*
X27899608Y89316808D01*
X27948617Y89267800D01*
X27948620Y89267797D01*
X29798381Y87418035D01*
X29831866Y87356712D01*
X29834700Y87330354D01*
X29834700Y85820129D01*
X29834701Y85820123D01*
X29841108Y85760516D01*
X29891402Y85625671D01*
X29891406Y85625664D01*
X29977652Y85510455D01*
X29977655Y85510452D01*
X30092864Y85424206D01*
X30092871Y85424202D01*
X30227717Y85373908D01*
X30227716Y85373908D01*
X30287316Y85367501D01*
X30287319Y85367500D01*
X30287327Y85367500D01*
X30414300Y85367500D01*
X30481339Y85347815D01*
X30527094Y85295011D01*
X30538300Y85243500D01*
X30538300Y82581619D01*
X30518615Y82514580D01*
X30487185Y82481301D01*
X30394784Y82414169D01*
X30250028Y82269413D01*
X30132350Y82107440D01*
X30129713Y82103810D01*
X30108672Y82062515D01*
X30036781Y81921423D01*
X29973522Y81726734D01*
X29941500Y81524551D01*
X29941500Y81319848D01*
X29973522Y81117665D01*
X30036781Y80922976D01*
X30129715Y80740586D01*
X30250028Y80574986D01*
X30394786Y80430228D01*
X30560386Y80309915D01*
X30742776Y80216981D01*
X30937465Y80153722D01*
X31115329Y80125551D01*
X31139648Y80121700D01*
X31139649Y80121700D01*
X31344351Y80121700D01*
X31344352Y80121700D01*
X31371995Y80126078D01*
X31546534Y80153722D01*
X31741223Y80216981D01*
X31866653Y80280891D01*
X31923610Y80309913D01*
X31945700Y80325962D01*
X32089213Y80430228D01*
X32233971Y80574986D01*
X32354284Y80740586D01*
X32354287Y80740590D01*
X32416395Y80862483D01*
X32447218Y80922976D01*
X32510477Y81117665D01*
X32542500Y81319848D01*
X32542500Y81524551D01*
X32524409Y81638769D01*
X32510477Y81726734D01*
X32447220Y81921419D01*
X32354287Y82103810D01*
X32275022Y82212910D01*
X32233971Y82269413D01*
X32233968Y82269415D01*
X32233966Y82269419D01*
X32089219Y82414166D01*
X32081211Y82419984D01*
X31996815Y82481301D01*
X31954149Y82536630D01*
X31945700Y82581619D01*
X31945700Y85243500D01*
X31965385Y85310539D01*
X32018189Y85356294D01*
X32069700Y85367500D01*
X32383069Y85367500D01*
X32383076Y85367501D01*
X32442683Y85373908D01*
X32577528Y85424202D01*
X32577535Y85424206D01*
X32692744Y85510452D01*
X32692747Y85510455D01*
X32778993Y85625664D01*
X32778997Y85625671D01*
X32829291Y85760517D01*
X32835700Y85820127D01*
X32835699Y87628955D01*
X32855384Y87695994D01*
X32908187Y87741749D01*
X32977346Y87751693D01*
X33040902Y87722668D01*
X33047380Y87716636D01*
X34769181Y85994836D01*
X34802666Y85933513D01*
X34805500Y85907155D01*
X34805500Y82581619D01*
X34785815Y82514580D01*
X34754385Y82481301D01*
X34661984Y82414169D01*
X34517228Y82269413D01*
X34399550Y82107440D01*
X34396913Y82103810D01*
X34375872Y82062515D01*
X34303981Y81921423D01*
X34240722Y81726734D01*
X34208700Y81524551D01*
X34208700Y81319848D01*
X34240722Y81117665D01*
X34303981Y80922976D01*
X34396915Y80740586D01*
X34517228Y80574986D01*
X34661982Y80430232D01*
X34661987Y80430228D01*
X34754385Y80363098D01*
X34797051Y80307769D01*
X34805500Y80262780D01*
X34805500Y78242700D01*
X34785815Y78175661D01*
X34733011Y78129906D01*
X34681500Y78118700D01*
X27143619Y78118700D01*
X27076580Y78138385D01*
X27043300Y78169816D01*
X27039053Y78175661D01*
X26976166Y78262219D01*
X26831419Y78406966D01*
X26831415Y78406968D01*
X26831413Y78406971D01*
X26665814Y78527284D01*
X26665810Y78527287D01*
X26573117Y78574516D01*
X26522323Y78622489D01*
X26505528Y78690310D01*
X26528065Y78756445D01*
X26573117Y78795483D01*
X26665810Y78842713D01*
X26665814Y78842715D01*
X26831413Y78963028D01*
X26976171Y79107786D01*
X27096484Y79273386D01*
X27096487Y79273390D01*
X27155703Y79389607D01*
X27189418Y79455776D01*
X27252677Y79650465D01*
X27284700Y79852648D01*
X27284700Y80057351D01*
X27252677Y80259534D01*
X27197215Y80430228D01*
X27189420Y80454219D01*
X27096487Y80636610D01*
X27020942Y80740590D01*
X26976171Y80802213D01*
X26976168Y80802215D01*
X26976166Y80802219D01*
X26831419Y80946966D01*
X26831415Y80946968D01*
X26831413Y80946971D01*
X26758790Y80999732D01*
X26665810Y81067287D01*
X26483419Y81160220D01*
X26288734Y81223477D01*
X26086552Y81255500D01*
X25881848Y81255500D01*
X25841384Y81249091D01*
X25679665Y81223477D01*
X25603709Y81198797D01*
X25484981Y81160220D01*
X25484978Y81160218D01*
X25484976Y81160218D01*
X25418807Y81126503D01*
X25302590Y81067287D01*
X25302586Y81067284D01*
X25136986Y80946971D01*
X24992228Y80802213D01*
X24871915Y80636613D01*
X24778981Y80454223D01*
X24715722Y80259534D01*
X24683700Y80057351D01*
X24683700Y79852648D01*
X24715722Y79650465D01*
X24778981Y79455776D01*
X24871915Y79273386D01*
X24992228Y79107786D01*
X25136986Y78963028D01*
X25302586Y78842715D01*
X25395280Y78795485D01*
X25446076Y78747510D01*
X25462871Y78679689D01*
X25440334Y78613554D01*
X25395280Y78574515D01*
X25302590Y78527287D01*
X25302586Y78527284D01*
X25136986Y78406971D01*
X24992228Y78262213D01*
X24871915Y78096613D01*
X24778981Y77914223D01*
X24715722Y77719534D01*
X24683700Y77517351D01*
X24683700Y77470043D01*
X24664015Y77403004D01*
X24611211Y77357249D01*
X24542053Y77347305D01*
X24478497Y77376330D01*
X24472019Y77382362D01*
X23940158Y77914223D01*
X23142817Y78711564D01*
X23109334Y78772885D01*
X23106500Y78799243D01*
X23106500Y82069155D01*
X23106501Y82069181D01*
X23106501Y82212910D01*
X23106500Y82212912D01*
X23079458Y82348862D01*
X23034440Y82457543D01*
X23026411Y82476927D01*
X22949400Y82592183D01*
X22851383Y82690200D01*
X22851381Y82690201D01*
X22844315Y82697267D01*
X22844311Y82697269D01*
X20348817Y85192764D01*
X20315334Y85254085D01*
X20312500Y85280443D01*
X20312500Y91471864D01*
X22434700Y91471864D01*
X22434700Y89376129D01*
X22434701Y89376123D01*
X22441108Y89316516D01*
X22491402Y89181671D01*
X22491406Y89181664D01*
X22577652Y89066455D01*
X22577655Y89066452D01*
X22692864Y88980206D01*
X22692871Y88980202D01*
X22827717Y88929908D01*
X22827716Y88929908D01*
X22887316Y88923501D01*
X22887319Y88923500D01*
X22887327Y88923500D01*
X23107500Y88923500D01*
X23174539Y88903815D01*
X23220294Y88851011D01*
X23231500Y88799500D01*
X23231500Y88269484D01*
X23211815Y88202445D01*
X23163795Y88159000D01*
X23148767Y88151343D01*
X22957690Y88012517D01*
X22790683Y87845510D01*
X22682053Y87695994D01*
X22651857Y87654433D01*
X22544633Y87443996D01*
X22471646Y87219368D01*
X22434700Y86986097D01*
X22434700Y86749902D01*
X22471646Y86516631D01*
X22544633Y86292003D01*
X22651857Y86081566D01*
X22714871Y85994836D01*
X22790683Y85890490D01*
X22790685Y85890488D01*
X22790685Y85890487D01*
X22957687Y85723485D01*
X23148766Y85584657D01*
X23359203Y85477433D01*
X23583831Y85404446D01*
X23817103Y85367500D01*
X23817108Y85367500D01*
X24053297Y85367500D01*
X24286568Y85404446D01*
X24511196Y85477433D01*
X24721633Y85584657D01*
X24778074Y85625664D01*
X24912710Y85723483D01*
X25079717Y85890490D01*
X25218543Y86081567D01*
X25308723Y86258555D01*
X25325766Y86292003D01*
X25334640Y86319312D01*
X25384037Y86471341D01*
X25398753Y86516631D01*
X25435700Y86749902D01*
X25435700Y86986097D01*
X25398753Y87219368D01*
X25354127Y87356712D01*
X25325768Y87443992D01*
X25218543Y87654433D01*
X25079717Y87845510D01*
X24912710Y88012517D01*
X24721633Y88151343D01*
X24706604Y88159000D01*
X24655810Y88206971D01*
X24638900Y88269484D01*
X24638900Y88799500D01*
X24658585Y88866539D01*
X24711389Y88912294D01*
X24762899Y88923500D01*
X24983069Y88923500D01*
X24983076Y88923501D01*
X25042683Y88929908D01*
X25177528Y88980202D01*
X25177535Y88980206D01*
X25292744Y89066452D01*
X25292747Y89066455D01*
X25378993Y89181664D01*
X25378997Y89181671D01*
X25429291Y89316517D01*
X25434591Y89365816D01*
X25435700Y89376127D01*
X25435699Y91471872D01*
X25429291Y91531483D01*
X25378996Y91666331D01*
X25292746Y91781546D01*
X25177531Y91867796D01*
X25042683Y91918091D01*
X24983073Y91924500D01*
X22887328Y91924499D01*
X22838957Y91919299D01*
X22827716Y91918091D01*
X22692871Y91867797D01*
X22692864Y91867793D01*
X22577655Y91781547D01*
X22577652Y91781544D01*
X22491406Y91666335D01*
X22491402Y91666328D01*
X22441108Y91531482D01*
X22434701Y91471883D01*
X22434701Y91471876D01*
X22434700Y91471864D01*
X20312500Y91471864D01*
X20312500Y92168155D01*
X20312501Y92168181D01*
X20312501Y92311910D01*
X20312500Y92311912D01*
X20298509Y92382248D01*
X20285458Y92447862D01*
X20234735Y92570313D01*
X20233092Y92574906D01*
X20232411Y92575923D01*
X20232411Y92575926D01*
X20232411Y92575927D01*
X20155400Y92691183D01*
X20057383Y92789200D01*
X20057381Y92789201D01*
X20050315Y92796267D01*
X20050311Y92796270D01*
X15988421Y96858159D01*
X15954938Y96919480D01*
X15953631Y96965231D01*
X15971500Y97078048D01*
X15971500Y97282752D01*
X15939477Y97484934D01*
X15876220Y97679619D01*
X15783287Y97862010D01*
X15715732Y97954990D01*
X15662971Y98027613D01*
X15662968Y98027615D01*
X15662966Y98027619D01*
X15518219Y98172366D01*
X15518215Y98172368D01*
X15518213Y98172371D01*
X15445590Y98225132D01*
X15352610Y98292687D01*
X15170219Y98385620D01*
X14975534Y98448877D01*
X14773352Y98480900D01*
X14568648Y98480900D01*
X14467557Y98464888D01*
X14366465Y98448877D01*
X14276137Y98419527D01*
X14171781Y98385620D01*
X14171778Y98385618D01*
X14171776Y98385618D01*
X14105607Y98351903D01*
X13989390Y98292687D01*
X13989386Y98292684D01*
X13823786Y98172371D01*
X13679028Y98027613D01*
X13562988Y97867894D01*
X13558713Y97862010D01*
X13530134Y97805920D01*
X13465781Y97679623D01*
X13402522Y97484934D01*
X13391493Y97415297D01*
X13373954Y97304556D01*
X13370500Y97282751D01*
X8244230Y97282751D01*
X7905070Y97621911D01*
X7905067Y97621915D01*
X7898001Y97628981D01*
X7898000Y97628983D01*
X7799983Y97727000D01*
X7684727Y97804011D01*
X7684724Y97804012D01*
X7684723Y97804013D01*
X7556664Y97857056D01*
X7556662Y97857057D01*
X7490686Y97870181D01*
X7420710Y97884101D01*
X7420708Y97884101D01*
X7282092Y97884101D01*
X7275978Y97884101D01*
X7275958Y97884100D01*
X5030419Y97884100D01*
X4963380Y97903785D01*
X4930100Y97935216D01*
X4862969Y98027615D01*
X4862968Y98027615D01*
X4862966Y98027619D01*
X4718219Y98172366D01*
X4718215Y98172368D01*
X4718213Y98172371D01*
X4645590Y98225132D01*
X4552610Y98292687D01*
X4370219Y98385620D01*
X4175534Y98448877D01*
X3973352Y98480900D01*
X3768648Y98480900D01*
X3667557Y98464888D01*
X3566465Y98448877D01*
X3476137Y98419527D01*
X3371781Y98385620D01*
X3371778Y98385618D01*
X3371776Y98385618D01*
X3305607Y98351903D01*
X3189390Y98292687D01*
X3189386Y98292684D01*
X3023786Y98172371D01*
X2879028Y98027613D01*
X2762988Y97867894D01*
X2758713Y97862010D01*
X2730134Y97805920D01*
X2665781Y97679623D01*
X2602522Y97484934D01*
X2591493Y97415297D01*
X2573954Y97304556D01*
X2570500Y97282751D01*
X635500Y97282751D01*
X635500Y98583864D01*
X22434700Y98583864D01*
X22434700Y96488129D01*
X22434701Y96488123D01*
X22441108Y96428516D01*
X22491402Y96293671D01*
X22491406Y96293664D01*
X22577652Y96178455D01*
X22577655Y96178452D01*
X22692864Y96092206D01*
X22692871Y96092202D01*
X22827717Y96041908D01*
X22827716Y96041908D01*
X22887316Y96035501D01*
X22887319Y96035500D01*
X22887327Y96035500D01*
X23107500Y96035500D01*
X23174539Y96015815D01*
X23220294Y95963011D01*
X23231500Y95911500D01*
X23231500Y95381484D01*
X23211815Y95314445D01*
X23163795Y95271000D01*
X23148767Y95263343D01*
X22957690Y95124517D01*
X22790683Y94957510D01*
X22678615Y94803262D01*
X22651857Y94766433D01*
X22544633Y94555996D01*
X22471646Y94331368D01*
X22434700Y94098097D01*
X22434700Y93861902D01*
X22471646Y93628631D01*
X22544633Y93404003D01*
X22651857Y93193566D01*
X22731062Y93084550D01*
X22790683Y93002490D01*
X22790685Y93002488D01*
X22790685Y93002487D01*
X22957687Y92835485D01*
X23148766Y92696657D01*
X23359203Y92589433D01*
X23583831Y92516446D01*
X23817103Y92479500D01*
X23817108Y92479500D01*
X24053297Y92479500D01*
X24286568Y92516446D01*
X24511196Y92589433D01*
X24721633Y92696657D01*
X24778074Y92737664D01*
X24912710Y92835483D01*
X25079717Y93002490D01*
X25218543Y93193567D01*
X25269202Y93292991D01*
X25325766Y93404003D01*
X25398753Y93628631D01*
X25435700Y93861902D01*
X25435700Y94098097D01*
X25398753Y94331368D01*
X25395026Y94342837D01*
X25325768Y94555992D01*
X25218543Y94766433D01*
X25079717Y94957510D01*
X24912710Y95124517D01*
X24721633Y95263343D01*
X24706604Y95271000D01*
X24655810Y95318971D01*
X24638900Y95381484D01*
X24638900Y95911500D01*
X24658585Y95978539D01*
X24711389Y96024294D01*
X24762899Y96035500D01*
X24983069Y96035500D01*
X24983076Y96035501D01*
X25042683Y96041908D01*
X25177528Y96092202D01*
X25177535Y96092206D01*
X25292744Y96178452D01*
X25292747Y96178455D01*
X25378993Y96293664D01*
X25378997Y96293671D01*
X25429291Y96428517D01*
X25435700Y96488127D01*
X25435699Y98583872D01*
X25429291Y98643483D01*
X25378996Y98778331D01*
X25292746Y98893546D01*
X25177531Y98979796D01*
X25042683Y99030091D01*
X24983073Y99036500D01*
X22887328Y99036499D01*
X22838957Y99031299D01*
X22827716Y99030091D01*
X22692871Y98979797D01*
X22692864Y98979793D01*
X22577655Y98893547D01*
X22577652Y98893544D01*
X22491406Y98778335D01*
X22491402Y98778328D01*
X22441108Y98643482D01*
X22439043Y98624271D01*
X22434701Y98583876D01*
X22434700Y98583864D01*
X635500Y98583864D01*
X635500Y104890064D01*
X17979700Y104890064D01*
X17979700Y102994329D01*
X17979701Y102994323D01*
X17986108Y102934716D01*
X18036402Y102799871D01*
X18036406Y102799864D01*
X18122652Y102684655D01*
X18122655Y102684652D01*
X18237864Y102598406D01*
X18237870Y102598403D01*
X18289163Y102579272D01*
X18345096Y102537400D01*
X18369513Y102471936D01*
X18354661Y102403663D01*
X18333510Y102375409D01*
X18312342Y102354241D01*
X18182813Y102175960D01*
X18082767Y101979610D01*
X18014673Y101770038D01*
X18014673Y101770035D01*
X18002345Y101692200D01*
X19004922Y101692200D01*
X18960867Y101615894D01*
X18930200Y101501444D01*
X18930200Y101382956D01*
X18960867Y101268506D01*
X19004922Y101192200D01*
X18002345Y101192200D01*
X18014673Y101114364D01*
X18014673Y101114361D01*
X18082767Y100904789D01*
X18182813Y100708439D01*
X18312342Y100530158D01*
X18468158Y100374342D01*
X18646439Y100244813D01*
X18842789Y100144767D01*
X19052363Y100076673D01*
X19130200Y100064344D01*
X19130200Y101066922D01*
X19206506Y101022867D01*
X19320956Y100992200D01*
X19439444Y100992200D01*
X19553894Y101022867D01*
X19630200Y101066922D01*
X19630200Y100064344D01*
X19708035Y100076673D01*
X19708038Y100076673D01*
X19917610Y100144767D01*
X20113960Y100244813D01*
X20292241Y100374342D01*
X20448057Y100530158D01*
X20577586Y100708439D01*
X20677632Y100904789D01*
X20745726Y101114361D01*
X20745726Y101114364D01*
X20758055Y101192200D01*
X19755478Y101192200D01*
X19799533Y101268506D01*
X19830200Y101382956D01*
X19830200Y101501444D01*
X19799533Y101615894D01*
X19755478Y101692200D01*
X20758055Y101692200D01*
X20745726Y101770035D01*
X20745726Y101770038D01*
X20677632Y101979610D01*
X20577586Y102175960D01*
X20448057Y102354241D01*
X20426891Y102375407D01*
X20393404Y102436729D01*
X20398387Y102506421D01*
X20440258Y102562356D01*
X20471237Y102579272D01*
X20522528Y102598402D01*
X20522535Y102598406D01*
X20637744Y102684652D01*
X20637747Y102684655D01*
X20723993Y102799864D01*
X20723997Y102799871D01*
X20774291Y102934717D01*
X20780700Y102994327D01*
X20780699Y104890072D01*
X20774291Y104949683D01*
X20774252Y104950047D01*
X20786659Y105018806D01*
X20834270Y105069943D01*
X20897542Y105087300D01*
X23360067Y105087300D01*
X23427106Y105067615D01*
X23449145Y105048382D01*
X23449589Y105048826D01*
X23597782Y104900632D01*
X23597786Y104900628D01*
X23763386Y104780315D01*
X23945776Y104687381D01*
X24140465Y104624122D01*
X24318329Y104595951D01*
X24342648Y104592100D01*
X24342649Y104592100D01*
X24499671Y104592100D01*
X24566710Y104572415D01*
X24587352Y104555781D01*
X25714279Y103428854D01*
X25714282Y103428851D01*
X25757484Y103385649D01*
X25826450Y103316682D01*
X25876884Y103282983D01*
X25952365Y103232549D01*
X25957162Y103229343D01*
X25958348Y103228551D01*
X25958354Y103228548D01*
X26104898Y103167848D01*
X26104908Y103167845D01*
X26260483Y103136899D01*
X26260485Y103136899D01*
X26425230Y103136899D01*
X26425250Y103136900D01*
X28921272Y103136900D01*
X28988311Y103117215D01*
X29008953Y103100581D01*
X33397581Y98711952D01*
X33431066Y98650629D01*
X33433900Y98624271D01*
X33433900Y94497249D01*
X33433899Y94497228D01*
X33433899Y94332482D01*
X33433898Y94332482D01*
X33463183Y94185265D01*
X33464845Y94176906D01*
X33464847Y94176900D01*
X33525548Y94030353D01*
X33525555Y94030340D01*
X33613680Y93898452D01*
X33650225Y93861908D01*
X33725851Y93786282D01*
X33725853Y93786280D01*
X36469047Y91043084D01*
X36469051Y91043081D01*
X36600940Y90954955D01*
X36600950Y90954950D01*
X36747502Y90894246D01*
X36747510Y90894244D01*
X36903080Y90863299D01*
X36903085Y90863299D01*
X37067830Y90863299D01*
X37067850Y90863300D01*
X39296919Y90863300D01*
X39452489Y90894244D01*
X39452498Y90894247D01*
X39599046Y90954948D01*
X39599059Y90954955D01*
X39730948Y91043081D01*
X39730952Y91043084D01*
X39843115Y91155247D01*
X39843118Y91155251D01*
X39931244Y91287140D01*
X39931251Y91287153D01*
X39991952Y91433701D01*
X39991955Y91433710D01*
X40022899Y91589280D01*
X40022900Y91589284D01*
X40022900Y91747916D01*
X40022899Y91747919D01*
X39991955Y91903489D01*
X39991953Y91903492D01*
X39991953Y91903497D01*
X39931248Y92050053D01*
X39843118Y92181949D01*
X39730949Y92294118D01*
X39599053Y92382248D01*
X39452497Y92442953D01*
X39452492Y92442953D01*
X39452489Y92442955D01*
X39325098Y92468294D01*
X39296917Y92473899D01*
X39296916Y92473900D01*
X39296915Y92473900D01*
X37367329Y92473900D01*
X37300290Y92493585D01*
X37279648Y92510219D01*
X35080819Y94709047D01*
X35047334Y94770370D01*
X35044500Y94796728D01*
X35044500Y98924748D01*
X35044501Y98924774D01*
X35044501Y99088516D01*
X35044500Y99088519D01*
X35013554Y99244097D01*
X34952848Y99390653D01*
X34864718Y99522549D01*
X29941927Y104445337D01*
X29941926Y104445340D01*
X29931718Y104455547D01*
X29931718Y104455549D01*
X29819549Y104567718D01*
X29687653Y104655848D01*
X29541097Y104716553D01*
X29490182Y104726680D01*
X29385517Y104747501D01*
X29385515Y104747501D01*
X29226885Y104747501D01*
X29220771Y104747501D01*
X29220751Y104747500D01*
X26724728Y104747500D01*
X26657689Y104767185D01*
X26637047Y104783819D01*
X26470819Y104950047D01*
X25774465Y105646399D01*
X25740982Y105707720D01*
X25739675Y105753472D01*
X25745500Y105790248D01*
X25745500Y105994951D01*
X33944500Y105994951D01*
X33944500Y105790248D01*
X33976522Y105588065D01*
X34039781Y105393376D01*
X34132715Y105210986D01*
X34253028Y105045386D01*
X34397786Y104900628D01*
X34563386Y104780315D01*
X34745776Y104687381D01*
X34940465Y104624122D01*
X35118329Y104595951D01*
X35142648Y104592100D01*
X35142649Y104592100D01*
X35352224Y104592100D01*
X35352224Y104590695D01*
X35379946Y104584665D01*
X35413706Y104577570D01*
X35414177Y104577219D01*
X35414474Y104577155D01*
X35442728Y104556004D01*
X35483078Y104515655D01*
X35483079Y104515654D01*
X35483082Y104515651D01*
X35517514Y104481219D01*
X35595250Y104403482D01*
X35642117Y104372166D01*
X35712260Y104325299D01*
X35717199Y104321998D01*
X35727140Y104315356D01*
X35727154Y104315348D01*
X35873698Y104254648D01*
X35873708Y104254645D01*
X36029283Y104223699D01*
X36029285Y104223699D01*
X36194030Y104223699D01*
X36194050Y104223700D01*
X38055380Y104223700D01*
X38122419Y104204015D01*
X38162767Y104161701D01*
X38208652Y104082226D01*
X38208658Y104082217D01*
X38344351Y103905377D01*
X38344357Y103905370D01*
X38501970Y103747757D01*
X38501977Y103747751D01*
X38678817Y103612058D01*
X38678831Y103612048D01*
X38758302Y103566165D01*
X38806516Y103515597D01*
X38820300Y103458779D01*
X38820300Y103104128D01*
X38800615Y103037089D01*
X38783981Y103016447D01*
X37362392Y101594858D01*
X37362370Y101594838D01*
X37245884Y101478352D01*
X37245881Y101478348D01*
X37157755Y101346459D01*
X37157748Y101346446D01*
X37097048Y101199901D01*
X37097045Y101199891D01*
X37066099Y101044317D01*
X37066099Y100880575D01*
X37066100Y100880549D01*
X37066100Y100208899D01*
X37046415Y100141860D01*
X36993611Y100096105D01*
X36942100Y100084899D01*
X36923528Y100084899D01*
X36875157Y100079699D01*
X36863916Y100078491D01*
X36729071Y100028197D01*
X36729064Y100028193D01*
X36613855Y99941947D01*
X36613852Y99941944D01*
X36527606Y99826735D01*
X36527602Y99826728D01*
X36477308Y99691882D01*
X36470901Y99632283D01*
X36470901Y99632276D01*
X36470900Y99632264D01*
X36470900Y97736529D01*
X36470901Y97736523D01*
X36477308Y97676916D01*
X36527602Y97542071D01*
X36527606Y97542064D01*
X36613852Y97426855D01*
X36613855Y97426852D01*
X36729064Y97340606D01*
X36729070Y97340603D01*
X36780363Y97321472D01*
X36836296Y97279600D01*
X36860713Y97214136D01*
X36845861Y97145863D01*
X36824710Y97117609D01*
X36803542Y97096441D01*
X36674013Y96918160D01*
X36573967Y96721810D01*
X36505873Y96512238D01*
X36505873Y96512235D01*
X36493545Y96434400D01*
X37496122Y96434400D01*
X37452067Y96358094D01*
X37421400Y96243644D01*
X37421400Y96125156D01*
X37452067Y96010706D01*
X37496122Y95934400D01*
X36493545Y95934400D01*
X36505873Y95856564D01*
X36505873Y95856561D01*
X36573967Y95646989D01*
X36674013Y95450639D01*
X36803542Y95272358D01*
X36959358Y95116542D01*
X37137639Y94987013D01*
X37333989Y94886967D01*
X37543563Y94818873D01*
X37621400Y94806544D01*
X37621400Y95809122D01*
X37697706Y95765067D01*
X37812156Y95734400D01*
X37930644Y95734400D01*
X38045094Y95765067D01*
X38121400Y95809122D01*
X38121400Y94806544D01*
X38199235Y94818873D01*
X38199238Y94818873D01*
X38408810Y94886967D01*
X38605160Y94987013D01*
X38783441Y95116542D01*
X38939257Y95272358D01*
X39068786Y95450639D01*
X39168832Y95646989D01*
X39236926Y95856561D01*
X39236926Y95856564D01*
X39249255Y95934400D01*
X38246678Y95934400D01*
X38290733Y96010706D01*
X38321400Y96125156D01*
X38321400Y96243644D01*
X38290733Y96358094D01*
X38246678Y96434400D01*
X39249255Y96434400D01*
X39236926Y96512235D01*
X39236926Y96512238D01*
X39168832Y96721810D01*
X39068786Y96918160D01*
X38939257Y97096441D01*
X38918091Y97117607D01*
X38884604Y97178929D01*
X38889587Y97248621D01*
X38931458Y97304556D01*
X38962437Y97321472D01*
X39013728Y97340602D01*
X39013735Y97340606D01*
X39128944Y97426852D01*
X39128947Y97426855D01*
X39215193Y97542064D01*
X39215197Y97542071D01*
X39265491Y97676917D01*
X39271900Y97736527D01*
X39271900Y97755100D01*
X39274450Y97763785D01*
X39273162Y97772747D01*
X39284140Y97796787D01*
X39291585Y97822139D01*
X39298425Y97828066D01*
X39302187Y97836303D01*
X39324421Y97850592D01*
X39344389Y97867894D01*
X39354903Y97870181D01*
X39360965Y97874077D01*
X39395900Y97879100D01*
X39411472Y97879100D01*
X39478511Y97859415D01*
X39499153Y97842781D01*
X40458781Y96883153D01*
X40492266Y96821830D01*
X40495100Y96795472D01*
X40495100Y78876249D01*
X40495099Y78876228D01*
X40495099Y78711482D01*
X40517204Y78600359D01*
X40517205Y78600353D01*
X40518118Y78595762D01*
X40520500Y78571576D01*
X40520500Y64766880D01*
X40551444Y64611310D01*
X40551447Y64611301D01*
X40612148Y64464753D01*
X40612155Y64464740D01*
X40700281Y64332851D01*
X40700284Y64332847D01*
X40812447Y64220684D01*
X40812451Y64220681D01*
X40944340Y64132555D01*
X40944353Y64132548D01*
X41090901Y64071847D01*
X41090910Y64071844D01*
X41246480Y64040900D01*
X41246485Y64040900D01*
X41405119Y64040900D01*
X41560689Y64071844D01*
X41560698Y64071847D01*
X41707246Y64132548D01*
X41707259Y64132555D01*
X41839148Y64220681D01*
X41839152Y64220684D01*
X41951315Y64332847D01*
X41951318Y64332851D01*
X42039444Y64464740D01*
X42039451Y64464753D01*
X42100152Y64611301D01*
X42100155Y64611310D01*
X42131099Y64766880D01*
X42131100Y64766884D01*
X42131100Y68982400D01*
X44809191Y68982400D01*
X45770114Y68982400D01*
X45765720Y68978006D01*
X45713059Y68886794D01*
X45685800Y68785061D01*
X45685800Y68679739D01*
X45713059Y68578006D01*
X45765720Y68486794D01*
X45770114Y68482400D01*
X44809191Y68482400D01*
X44817809Y68427986D01*
X44881044Y68233370D01*
X44973940Y68051050D01*
X45094217Y67885505D01*
X45094217Y67885504D01*
X45238904Y67740817D01*
X45404450Y67620540D01*
X45586770Y67527644D01*
X45781386Y67464409D01*
X45835800Y67455790D01*
X45835800Y68416714D01*
X45840194Y68412320D01*
X45931406Y68359659D01*
X46033139Y68332400D01*
X46138461Y68332400D01*
X46240194Y68359659D01*
X46331406Y68412320D01*
X46335800Y68416714D01*
X46335800Y67455790D01*
X46390213Y67464409D01*
X46584829Y67527644D01*
X46767149Y67620540D01*
X46932694Y67740817D01*
X46932695Y67740817D01*
X47077382Y67885504D01*
X47077382Y67885505D01*
X47197659Y68051050D01*
X47290555Y68233370D01*
X47353790Y68427986D01*
X47362409Y68482400D01*
X46401486Y68482400D01*
X46405880Y68486794D01*
X46458541Y68578006D01*
X46485800Y68679739D01*
X46485800Y68785061D01*
X46458541Y68886794D01*
X46405880Y68978006D01*
X46401486Y68982400D01*
X47362409Y68982400D01*
X47353790Y69036813D01*
X47290555Y69231429D01*
X47197659Y69413749D01*
X47077382Y69579294D01*
X47077382Y69579295D01*
X46932695Y69723982D01*
X46767149Y69844259D01*
X46584831Y69937154D01*
X46390221Y70000388D01*
X46335800Y70009006D01*
X46335800Y69048086D01*
X46331406Y69052480D01*
X46240194Y69105141D01*
X46138461Y69132400D01*
X46033139Y69132400D01*
X45931406Y69105141D01*
X45840194Y69052480D01*
X45835800Y69048086D01*
X45835800Y70009007D01*
X45781378Y70000388D01*
X45586768Y69937154D01*
X45404450Y69844259D01*
X45238905Y69723982D01*
X45238904Y69723982D01*
X45094217Y69579295D01*
X45094217Y69579294D01*
X44973940Y69413749D01*
X44881044Y69231429D01*
X44817809Y69036813D01*
X44809191Y68982400D01*
X42131100Y68982400D01*
X42131100Y78680949D01*
X42131101Y78680975D01*
X42131101Y78844717D01*
X42108083Y78960431D01*
X42105700Y78984623D01*
X42105700Y88254741D01*
X44430500Y88254741D01*
X44430500Y88025258D01*
X44454166Y87845510D01*
X44460452Y87797762D01*
X44480573Y87722668D01*
X44519842Y87576112D01*
X44607650Y87364123D01*
X44607657Y87364109D01*
X44722392Y87165382D01*
X44862081Y86983338D01*
X45024338Y86821081D01*
X45206382Y86681392D01*
X45405101Y86566661D01*
X45405118Y86566653D01*
X45422357Y86559512D01*
X45476759Y86515670D01*
X45498821Y86449375D01*
X45498900Y86444953D01*
X45498900Y84334219D01*
X45479215Y84267180D01*
X45447785Y84233901D01*
X45355384Y84166769D01*
X45210628Y84022013D01*
X45090315Y83856413D01*
X44997381Y83674023D01*
X44934122Y83479334D01*
X44902100Y83277151D01*
X44902100Y83072448D01*
X44934122Y82870265D01*
X44997381Y82675576D01*
X45090315Y82493186D01*
X45210628Y82327586D01*
X45355386Y82182828D01*
X45520986Y82062515D01*
X45703376Y81969581D01*
X45898065Y81906322D01*
X46075929Y81878151D01*
X46100248Y81874300D01*
X46100249Y81874300D01*
X46304951Y81874300D01*
X46304952Y81874300D01*
X46332595Y81878678D01*
X46507134Y81906322D01*
X46701823Y81969581D01*
X46827253Y82033491D01*
X46884210Y82062513D01*
X46900413Y82074285D01*
X47049813Y82182828D01*
X47194569Y82327584D01*
X47261700Y82419984D01*
X47317030Y82462651D01*
X47362019Y82471100D01*
X50155690Y82471100D01*
X50222729Y82451415D01*
X50256008Y82419986D01*
X50305312Y82352124D01*
X50438924Y82218512D01*
X50591800Y82107440D01*
X50760163Y82021654D01*
X50939881Y81963259D01*
X51126514Y81933700D01*
X51126519Y81933700D01*
X51315486Y81933700D01*
X51502118Y81963259D01*
X51681836Y82021654D01*
X51850199Y82107440D01*
X52003073Y82218510D01*
X52136690Y82352127D01*
X52247760Y82505001D01*
X52322073Y82650848D01*
X52333545Y82673363D01*
X52339017Y82690202D01*
X52391940Y82853082D01*
X52392331Y82855552D01*
X52421500Y83039713D01*
X52421500Y83228686D01*
X52391940Y83415318D01*
X52371140Y83479334D01*
X52333547Y83595032D01*
X52247760Y83763399D01*
X52136690Y83916273D01*
X52003073Y84049890D01*
X51850199Y84160960D01*
X51681832Y84246747D01*
X51502118Y84305140D01*
X51315486Y84334700D01*
X51315481Y84334700D01*
X51126519Y84334700D01*
X51126514Y84334700D01*
X50939881Y84305140D01*
X50890916Y84289230D01*
X50760168Y84246747D01*
X50760165Y84246745D01*
X50760163Y84246745D01*
X50671347Y84201490D01*
X50591801Y84160960D01*
X50438927Y84049890D01*
X50438924Y84049887D01*
X50303856Y83914819D01*
X50242533Y83881334D01*
X50216175Y83878500D01*
X47362019Y83878500D01*
X47294980Y83898185D01*
X47261700Y83929616D01*
X47256837Y83936309D01*
X47202582Y84010986D01*
X47194569Y84022015D01*
X47194568Y84022015D01*
X47194566Y84022019D01*
X47049819Y84166766D01*
X47031049Y84180403D01*
X46957415Y84233901D01*
X46914749Y84289230D01*
X46906300Y84334219D01*
X46906300Y86465857D01*
X46925985Y86532896D01*
X46968300Y86573244D01*
X47155617Y86681392D01*
X47337661Y86821081D01*
X47337670Y86821089D01*
X47499911Y86983330D01*
X47499918Y86983338D01*
X47639607Y87165382D01*
X47639608Y87165385D01*
X47639611Y87165388D01*
X47754344Y87364112D01*
X47761637Y87381717D01*
X47792190Y87455480D01*
X47842158Y87576113D01*
X47901548Y87797762D01*
X47931500Y88025266D01*
X47931500Y88254734D01*
X47931499Y88254741D01*
X49430500Y88254741D01*
X49430500Y88025258D01*
X49454166Y87845510D01*
X49460452Y87797762D01*
X49480573Y87722668D01*
X49519842Y87576112D01*
X49607650Y87364123D01*
X49607657Y87364109D01*
X49722392Y87165382D01*
X49862081Y86983338D01*
X50024338Y86821081D01*
X50206382Y86681392D01*
X50405109Y86566657D01*
X50405123Y86566650D01*
X50617112Y86478842D01*
X50743590Y86444953D01*
X50838762Y86419452D01*
X50838770Y86419451D01*
X51066258Y86389500D01*
X51066266Y86389500D01*
X51295741Y86389500D01*
X51485215Y86414446D01*
X51523238Y86419452D01*
X51744887Y86478842D01*
X51744896Y86478845D01*
X51748088Y86479929D01*
X51817897Y86482837D01*
X51875626Y86450190D01*
X53234981Y85090836D01*
X53268466Y85029513D01*
X53271300Y85003155D01*
X53271300Y79582113D01*
X53271299Y79582108D01*
X53271299Y79443492D01*
X53286039Y79369392D01*
X53287564Y79361721D01*
X53287565Y79361718D01*
X53298341Y79307545D01*
X53298344Y79307533D01*
X53351386Y79179476D01*
X53428400Y79064216D01*
X53477408Y79015208D01*
X53526417Y78966200D01*
X53526420Y78966197D01*
X54940178Y77552438D01*
X54973663Y77491115D01*
X54974970Y77445359D01*
X54969700Y77412085D01*
X54969700Y77223113D01*
X54999259Y77036481D01*
X55057654Y76856763D01*
X55143440Y76688400D01*
X55206810Y76601179D01*
X55254510Y76535527D01*
X55254512Y76535525D01*
X55254512Y76535524D01*
X55388124Y76401912D01*
X55541000Y76290840D01*
X55709363Y76205054D01*
X55889081Y76146659D01*
X56075714Y76117100D01*
X56075719Y76117100D01*
X56264686Y76117100D01*
X56451318Y76146659D01*
X56631036Y76205054D01*
X56799399Y76290840D01*
X56854371Y76330780D01*
X56952273Y76401910D01*
X57085890Y76535527D01*
X57196960Y76688401D01*
X57278917Y76849251D01*
X57282745Y76856763D01*
X57283050Y76857700D01*
X57341140Y77036482D01*
X57370700Y77223113D01*
X57370700Y77412086D01*
X57341140Y77598718D01*
X57283549Y77775963D01*
X57282747Y77778432D01*
X57196960Y77946799D01*
X57085890Y78099673D01*
X56952273Y78233290D01*
X56799399Y78344360D01*
X56631032Y78430147D01*
X56451318Y78488540D01*
X56450573Y78488658D01*
X56264686Y78518100D01*
X56264681Y78518100D01*
X56075719Y78518100D01*
X56042436Y78512828D01*
X55973148Y78521782D01*
X55935363Y78547617D01*
X54715017Y79767964D01*
X54681534Y79829285D01*
X54678700Y79855643D01*
X54678700Y85271555D01*
X54678701Y85271581D01*
X54678701Y85415310D01*
X54678700Y85415312D01*
X54676931Y85424206D01*
X54651658Y85551262D01*
X54600935Y85673713D01*
X54599292Y85678306D01*
X54598611Y85679323D01*
X54598611Y85679326D01*
X54598611Y85679327D01*
X54521600Y85794583D01*
X54423583Y85892600D01*
X54423581Y85892601D01*
X54416515Y85899667D01*
X54416511Y85899670D01*
X52870807Y87445373D01*
X52837324Y87506694D01*
X52841072Y87572914D01*
X52842157Y87576111D01*
X52842158Y87576113D01*
X52901548Y87797762D01*
X52931500Y88025266D01*
X52931500Y88254734D01*
X52931499Y88254741D01*
X54430500Y88254741D01*
X54430500Y88025258D01*
X54454166Y87845510D01*
X54460452Y87797762D01*
X54480573Y87722668D01*
X54519842Y87576112D01*
X54607650Y87364123D01*
X54607657Y87364109D01*
X54722392Y87165382D01*
X54862081Y86983338D01*
X55024338Y86821081D01*
X55206382Y86681392D01*
X55273701Y86642526D01*
X55353700Y86596338D01*
X55401916Y86545772D01*
X55415700Y86488952D01*
X55415700Y84078025D01*
X55396015Y84010986D01*
X55379381Y83990344D01*
X55305310Y83916273D01*
X55219154Y83797690D01*
X55194240Y83763399D01*
X55108454Y83595036D01*
X55050059Y83415318D01*
X55020500Y83228686D01*
X55020500Y83039713D01*
X55050059Y82853081D01*
X55108454Y82673363D01*
X55194240Y82505000D01*
X55256007Y82419986D01*
X55305310Y82352127D01*
X55305312Y82352125D01*
X55305312Y82352124D01*
X55438924Y82218512D01*
X55591800Y82107440D01*
X55760163Y82021654D01*
X55939881Y81963259D01*
X56126514Y81933700D01*
X56126519Y81933700D01*
X56315486Y81933700D01*
X56502118Y81963259D01*
X56681836Y82021654D01*
X56850199Y82107440D01*
X57003073Y82218510D01*
X57136690Y82352127D01*
X57247760Y82505001D01*
X57322073Y82650848D01*
X57333545Y82673363D01*
X57339017Y82690202D01*
X57391940Y82853082D01*
X57392331Y82855552D01*
X57421500Y83039713D01*
X57421500Y83228686D01*
X57391940Y83415318D01*
X57371140Y83479334D01*
X57333547Y83595032D01*
X57247760Y83763399D01*
X57136690Y83916273D01*
X57062619Y83990344D01*
X57029134Y84051667D01*
X57026300Y84078025D01*
X57026300Y86535139D01*
X57045985Y86602178D01*
X57088300Y86642526D01*
X57155604Y86681384D01*
X57155622Y86681396D01*
X57337661Y86821081D01*
X57337670Y86821089D01*
X57499911Y86983330D01*
X57499918Y86983338D01*
X57639607Y87165382D01*
X57639608Y87165385D01*
X57639611Y87165388D01*
X57754344Y87364112D01*
X57761637Y87381717D01*
X57792190Y87455480D01*
X57842158Y87576113D01*
X57901548Y87797762D01*
X57931500Y88025266D01*
X57931500Y88254734D01*
X57901548Y88482238D01*
X57842158Y88703887D01*
X57754344Y88915888D01*
X57639611Y89114612D01*
X57499919Y89296661D01*
X57499914Y89296665D01*
X57499911Y89296670D01*
X57337670Y89458911D01*
X57337665Y89458914D01*
X57337661Y89458919D01*
X57155612Y89598611D01*
X56956888Y89713344D01*
X56744887Y89801158D01*
X56523238Y89860548D01*
X56295734Y89890500D01*
X56066266Y89890500D01*
X56066258Y89890499D01*
X56055312Y89889057D01*
X55838762Y89860548D01*
X55617113Y89801158D01*
X55522918Y89762141D01*
X55405123Y89713349D01*
X55405117Y89713346D01*
X55405112Y89713344D01*
X55206388Y89598611D01*
X55206385Y89598608D01*
X55206382Y89598607D01*
X55074962Y89497764D01*
X55053211Y89481073D01*
X55024338Y89458918D01*
X55024330Y89458911D01*
X54862089Y89296670D01*
X54862081Y89296661D01*
X54722392Y89114617D01*
X54607657Y88915890D01*
X54607650Y88915876D01*
X54559446Y88799500D01*
X54519842Y88703887D01*
X54460452Y88482238D01*
X54460451Y88482229D01*
X54430500Y88254741D01*
X52931499Y88254741D01*
X52901548Y88482238D01*
X52842158Y88703887D01*
X52754344Y88915888D01*
X52639611Y89114612D01*
X52499919Y89296661D01*
X52499914Y89296665D01*
X52499911Y89296670D01*
X52337670Y89458911D01*
X52337665Y89458914D01*
X52337661Y89458919D01*
X52155612Y89598611D01*
X51956888Y89713344D01*
X51744887Y89801158D01*
X51523238Y89860548D01*
X51295734Y89890500D01*
X51066266Y89890500D01*
X51066258Y89890499D01*
X51055312Y89889057D01*
X50838762Y89860548D01*
X50617113Y89801158D01*
X50522918Y89762141D01*
X50405123Y89713349D01*
X50405117Y89713346D01*
X50405112Y89713344D01*
X50206388Y89598611D01*
X50206385Y89598608D01*
X50206382Y89598607D01*
X50074962Y89497764D01*
X50053211Y89481073D01*
X50024338Y89458918D01*
X50024330Y89458911D01*
X49862089Y89296670D01*
X49862081Y89296661D01*
X49722392Y89114617D01*
X49607657Y88915890D01*
X49607650Y88915876D01*
X49559446Y88799500D01*
X49519842Y88703887D01*
X49460452Y88482238D01*
X49460451Y88482229D01*
X49430500Y88254741D01*
X47931499Y88254741D01*
X47901548Y88482238D01*
X47842158Y88703887D01*
X47754344Y88915888D01*
X47639611Y89114612D01*
X47499919Y89296661D01*
X47499914Y89296665D01*
X47499911Y89296670D01*
X47337670Y89458911D01*
X47337665Y89458914D01*
X47337661Y89458919D01*
X47155612Y89598611D01*
X46956888Y89713344D01*
X46744887Y89801158D01*
X46523238Y89860548D01*
X46295734Y89890500D01*
X46066266Y89890500D01*
X46066258Y89890499D01*
X46055312Y89889057D01*
X45838762Y89860548D01*
X45617113Y89801158D01*
X45522918Y89762141D01*
X45405123Y89713349D01*
X45405117Y89713346D01*
X45405112Y89713344D01*
X45206388Y89598611D01*
X45206385Y89598608D01*
X45206382Y89598607D01*
X45074962Y89497764D01*
X45053211Y89481073D01*
X45024338Y89458918D01*
X45024330Y89458911D01*
X44862089Y89296670D01*
X44862081Y89296661D01*
X44722392Y89114617D01*
X44607657Y88915890D01*
X44607650Y88915876D01*
X44559446Y88799500D01*
X44519842Y88703887D01*
X44460452Y88482238D01*
X44460451Y88482229D01*
X44430500Y88254741D01*
X42105700Y88254741D01*
X42105700Y97259715D01*
X42101744Y97279600D01*
X42100889Y97283900D01*
X42099614Y97290309D01*
X42089610Y97340606D01*
X42074753Y97415297D01*
X42053465Y97466691D01*
X42014048Y97561853D01*
X41925918Y97693749D01*
X41813749Y97805918D01*
X41813747Y97805919D01*
X41806681Y97812985D01*
X41806677Y97812988D01*
X40428988Y99190677D01*
X40428985Y99190681D01*
X40421919Y99197747D01*
X40421918Y99197749D01*
X40309749Y99309918D01*
X40177853Y99398048D01*
X40031297Y99458753D01*
X39980382Y99468880D01*
X39875717Y99489701D01*
X39875715Y99489701D01*
X39717085Y99489701D01*
X39710971Y99489701D01*
X39710951Y99489700D01*
X39395899Y99489700D01*
X39328860Y99509385D01*
X39283105Y99562189D01*
X39271899Y99613700D01*
X39271899Y99632270D01*
X39271899Y99632273D01*
X39265491Y99691883D01*
X39215196Y99826731D01*
X39128946Y99941946D01*
X39013731Y100028196D01*
X38878883Y100078491D01*
X38819273Y100084900D01*
X38800703Y100084899D01*
X38733665Y100104580D01*
X38687908Y100157382D01*
X38676700Y100208899D01*
X38676700Y100580072D01*
X38696385Y100647111D01*
X38713019Y100667753D01*
X40135822Y102090556D01*
X40135853Y102090585D01*
X40251115Y102205847D01*
X40251118Y102205851D01*
X40339244Y102337740D01*
X40339251Y102337753D01*
X40399952Y102484301D01*
X40399955Y102484310D01*
X40430899Y102639880D01*
X40430900Y102639884D01*
X40430900Y103458779D01*
X40450585Y103525818D01*
X40492898Y103566165D01*
X40572368Y103612048D01*
X40572382Y103612058D01*
X40749222Y103747751D01*
X40749229Y103747757D01*
X40906842Y103905370D01*
X40906848Y103905377D01*
X41042541Y104082217D01*
X41042548Y104082226D01*
X41154005Y104275274D01*
X41224446Y104445334D01*
X41239306Y104481209D01*
X41239306Y104481210D01*
X41239310Y104481219D01*
X41297004Y104696537D01*
X41326100Y104917543D01*
X41326100Y105140457D01*
X41297004Y105361463D01*
X41239310Y105576781D01*
X41154005Y105782726D01*
X41042548Y105975774D01*
X40906847Y106152624D01*
X40906842Y106152629D01*
X40867004Y106192468D01*
X40782627Y106276844D01*
X48285600Y106276844D01*
X48285600Y105279000D01*
X49437118Y105279000D01*
X49426489Y105260591D01*
X49385600Y105107991D01*
X49385600Y104950009D01*
X49426489Y104797409D01*
X49437118Y104779000D01*
X48285600Y104779000D01*
X48285600Y103781155D01*
X48292001Y103721627D01*
X48292003Y103721620D01*
X48342245Y103586913D01*
X48342249Y103586906D01*
X48428409Y103471812D01*
X48428412Y103471809D01*
X48543506Y103385649D01*
X48543513Y103385645D01*
X48678220Y103335403D01*
X48678227Y103335401D01*
X48737755Y103329000D01*
X49735600Y103329000D01*
X49735600Y104480517D01*
X49754009Y104469889D01*
X49906609Y104429000D01*
X50064591Y104429000D01*
X50217191Y104469889D01*
X50235600Y104480517D01*
X50235600Y103329000D01*
X51233444Y103329000D01*
X51292972Y103335401D01*
X51292979Y103335403D01*
X51427686Y103385645D01*
X51427693Y103385649D01*
X51542787Y103471809D01*
X51542790Y103471812D01*
X51628950Y103586906D01*
X51628954Y103586913D01*
X51679196Y103721620D01*
X51679198Y103721627D01*
X51685599Y103781155D01*
X51685600Y103781172D01*
X51685600Y104779000D01*
X50534082Y104779000D01*
X50544711Y104797409D01*
X50585600Y104950009D01*
X50585600Y105107991D01*
X50544711Y105260591D01*
X50534082Y105279000D01*
X51685600Y105279000D01*
X51685600Y106276827D01*
X51685599Y106276844D01*
X51679198Y106336372D01*
X51679196Y106336379D01*
X51628954Y106471086D01*
X51628950Y106471093D01*
X51542790Y106586187D01*
X51542787Y106586190D01*
X51427693Y106672350D01*
X51427686Y106672354D01*
X51292979Y106722596D01*
X51292972Y106722598D01*
X51233444Y106728999D01*
X51233428Y106729000D01*
X50235600Y106729000D01*
X50235600Y105577482D01*
X50217191Y105588111D01*
X50064591Y105629000D01*
X49906609Y105629000D01*
X49754009Y105588111D01*
X49735600Y105577482D01*
X49735600Y106729000D01*
X48737772Y106729000D01*
X48737755Y106728999D01*
X48678227Y106722598D01*
X48678220Y106722596D01*
X48543513Y106672354D01*
X48543506Y106672350D01*
X48428412Y106586190D01*
X48428409Y106586187D01*
X48342249Y106471093D01*
X48342245Y106471086D01*
X48292003Y106336379D01*
X48292001Y106336372D01*
X48285600Y106276844D01*
X40782627Y106276844D01*
X40749229Y106310242D01*
X40749224Y106310247D01*
X40572374Y106445948D01*
X40572355Y106445958D01*
X40570811Y106446991D01*
X40570448Y106447425D01*
X40569153Y106448419D01*
X40569375Y106448708D01*
X40526005Y106500603D01*
X40515700Y106550095D01*
X40515700Y109100267D01*
X40535385Y109167306D01*
X40554617Y109189345D01*
X40554174Y109189789D01*
X40702371Y109337986D01*
X40822684Y109503586D01*
X40822687Y109503590D01*
X40902481Y109660194D01*
X40915618Y109685976D01*
X40978877Y109880665D01*
X41010900Y110082848D01*
X41010900Y110287551D01*
X40978877Y110489734D01*
X40947139Y110587413D01*
X40915620Y110684419D01*
X40822687Y110866810D01*
X40712779Y111018087D01*
X40702371Y111032413D01*
X40702368Y111032415D01*
X40702366Y111032419D01*
X40557619Y111177166D01*
X40557615Y111177168D01*
X40557613Y111177171D01*
X40473748Y111238101D01*
X40392010Y111297487D01*
X40209619Y111390420D01*
X40014934Y111453677D01*
X39812752Y111485700D01*
X39608048Y111485700D01*
X39506957Y111469688D01*
X39405865Y111453677D01*
X39315537Y111424327D01*
X39211181Y111390420D01*
X39211178Y111390418D01*
X39211176Y111390418D01*
X39145007Y111356703D01*
X39028790Y111297487D01*
X39028786Y111297484D01*
X38863186Y111177171D01*
X38718428Y111032413D01*
X38598115Y110866813D01*
X38505181Y110684423D01*
X38441922Y110489734D01*
X38409900Y110287551D01*
X38409900Y110082848D01*
X38441922Y109880665D01*
X38505181Y109685976D01*
X38598115Y109503586D01*
X38718428Y109337986D01*
X38718432Y109337982D01*
X38866626Y109189789D01*
X38865489Y109188652D01*
X38899829Y109136036D01*
X38905100Y109100267D01*
X38905100Y106648179D01*
X38885415Y106581140D01*
X38843100Y106540792D01*
X38678826Y106445948D01*
X38678817Y106445941D01*
X38501977Y106310248D01*
X38501970Y106310242D01*
X38344357Y106152629D01*
X38344353Y106152624D01*
X38208652Y105975774D01*
X38168823Y105906789D01*
X38162767Y105896299D01*
X38112199Y105848084D01*
X38055380Y105834300D01*
X36669500Y105834300D01*
X36602461Y105853985D01*
X36556706Y105906789D01*
X36545500Y105958300D01*
X36545500Y105994951D01*
X36513477Y106197134D01*
X36487583Y106276827D01*
X36450220Y106391819D01*
X36357287Y106574210D01*
X36265363Y106700734D01*
X36236971Y106739813D01*
X36236968Y106739815D01*
X36236966Y106739819D01*
X36092219Y106884566D01*
X36092215Y106884568D01*
X36092213Y106884571D01*
X36004782Y106948092D01*
X35926610Y107004887D01*
X35744219Y107097820D01*
X35549534Y107161077D01*
X35347352Y107193100D01*
X35142648Y107193100D01*
X35041557Y107177088D01*
X34940465Y107161077D01*
X34850137Y107131727D01*
X34745781Y107097820D01*
X34745778Y107097818D01*
X34745776Y107097818D01*
X34679607Y107064103D01*
X34563390Y107004887D01*
X34563386Y107004884D01*
X34397786Y106884571D01*
X34253028Y106739813D01*
X34137748Y106581140D01*
X34132713Y106574210D01*
X34120426Y106550095D01*
X34039781Y106391823D01*
X33976522Y106197134D01*
X33944500Y105994951D01*
X25745500Y105994951D01*
X25745500Y105994952D01*
X25713477Y106197134D01*
X25650220Y106391819D01*
X25557287Y106574210D01*
X25444827Y106728999D01*
X25436972Y106739811D01*
X25436970Y106739813D01*
X25436966Y106739819D01*
X25292219Y106884566D01*
X25292218Y106884566D01*
X25288773Y106888012D01*
X25289914Y106889153D01*
X25255581Y106941732D01*
X25250300Y106977533D01*
X25250300Y108820867D01*
X25269985Y108887906D01*
X25289217Y108909945D01*
X25288774Y108910389D01*
X25436971Y109058586D01*
X25557284Y109224186D01*
X25557287Y109224190D01*
X25616503Y109340407D01*
X25650218Y109406576D01*
X25650281Y109406770D01*
X25713477Y109601266D01*
X25745500Y109803448D01*
X25745500Y110008152D01*
X25722114Y110155800D01*
X33968391Y110155800D01*
X34929314Y110155800D01*
X34924920Y110151406D01*
X34872259Y110060194D01*
X34845000Y109958461D01*
X34845000Y109853139D01*
X34872259Y109751406D01*
X34924920Y109660194D01*
X34929314Y109655800D01*
X33968391Y109655800D01*
X33977009Y109601386D01*
X34040244Y109406770D01*
X34133140Y109224450D01*
X34253417Y109058905D01*
X34253417Y109058904D01*
X34398104Y108914217D01*
X34563650Y108793940D01*
X34745970Y108701044D01*
X34940586Y108637809D01*
X34995000Y108629190D01*
X34995000Y109590114D01*
X34999394Y109585720D01*
X35090606Y109533059D01*
X35192339Y109505800D01*
X35297661Y109505800D01*
X35399394Y109533059D01*
X35490606Y109585720D01*
X35495000Y109590114D01*
X35495000Y108629190D01*
X35549413Y108637809D01*
X35744029Y108701044D01*
X35926349Y108793940D01*
X36091894Y108914217D01*
X36091895Y108914217D01*
X36236582Y109058904D01*
X36236582Y109058905D01*
X36356859Y109224450D01*
X36449755Y109406770D01*
X36512990Y109601386D01*
X36521609Y109655800D01*
X35560686Y109655800D01*
X35565080Y109660194D01*
X35617741Y109751406D01*
X35645000Y109853139D01*
X35645000Y109958461D01*
X35617741Y110060194D01*
X35565080Y110151406D01*
X35560686Y110155800D01*
X36521609Y110155800D01*
X36512990Y110210213D01*
X36449755Y110404829D01*
X36356859Y110587149D01*
X36236582Y110752694D01*
X36236582Y110752695D01*
X36091895Y110897382D01*
X35926349Y111017659D01*
X35744031Y111110554D01*
X35549421Y111173788D01*
X35495000Y111182406D01*
X35495000Y110221486D01*
X35490606Y110225880D01*
X35399394Y110278541D01*
X35297661Y110305800D01*
X35192339Y110305800D01*
X35090606Y110278541D01*
X34999394Y110225880D01*
X34995000Y110221486D01*
X34995000Y111182407D01*
X34940578Y111173788D01*
X34745968Y111110554D01*
X34563650Y111017659D01*
X34398105Y110897382D01*
X34398104Y110897382D01*
X34253417Y110752695D01*
X34253417Y110752694D01*
X34133140Y110587149D01*
X34040244Y110404829D01*
X33977009Y110210213D01*
X33968391Y110155800D01*
X25722114Y110155800D01*
X25713477Y110210334D01*
X25650220Y110405019D01*
X25557287Y110587410D01*
X25486804Y110684423D01*
X25436971Y110753013D01*
X25436968Y110753015D01*
X25436966Y110753019D01*
X25292219Y110897766D01*
X25292215Y110897768D01*
X25292213Y110897771D01*
X25219590Y110950532D01*
X25126610Y111018087D01*
X24944219Y111111020D01*
X24749534Y111174277D01*
X24547352Y111206300D01*
X24342648Y111206300D01*
X24330804Y111204424D01*
X24140465Y111174277D01*
X24050137Y111144927D01*
X23945781Y111111020D01*
X23945778Y111111018D01*
X23945776Y111111018D01*
X23879607Y111077303D01*
X23763390Y111018087D01*
X23763386Y111018084D01*
X23597786Y110897771D01*
X23453028Y110753013D01*
X23332715Y110587413D01*
X23239781Y110405023D01*
X23176522Y110210334D01*
X23144500Y110008151D01*
X23144500Y109803448D01*
X23176522Y109601265D01*
X23239781Y109406576D01*
X23332715Y109224186D01*
X23453028Y109058586D01*
X23453032Y109058582D01*
X23601226Y108910389D01*
X23600089Y108909252D01*
X23634429Y108856636D01*
X23639700Y108820867D01*
X23639700Y106977533D01*
X23631055Y106948092D01*
X23624532Y106918106D01*
X23620957Y106913702D01*
X23620015Y106910494D01*
X23603381Y106889852D01*
X23598929Y106885400D01*
X23597781Y106884566D01*
X23453034Y106739819D01*
X23452199Y106738670D01*
X23447748Y106734219D01*
X23421184Y106719714D01*
X23395836Y106703171D01*
X23389059Y106702172D01*
X23386425Y106700734D01*
X23381626Y106701077D01*
X23360067Y106697900D01*
X20227650Y106697900D01*
X20227630Y106697901D01*
X20221516Y106697901D01*
X20062885Y106697901D01*
X20062884Y106697901D01*
X20062880Y106697900D01*
X19907303Y106666954D01*
X19760747Y106606248D01*
X19760744Y106606246D01*
X19760740Y106606244D01*
X19628851Y106518118D01*
X19628847Y106518115D01*
X19513585Y106402853D01*
X19513556Y106402822D01*
X18871192Y105760458D01*
X18871170Y105760438D01*
X18754683Y105643951D01*
X18754682Y105643949D01*
X18709802Y105576781D01*
X18666552Y105512053D01*
X18626043Y105414256D01*
X18623542Y105409450D01*
X18602933Y105388004D01*
X18584269Y105364843D01*
X18578987Y105363085D01*
X18575130Y105359071D01*
X18546194Y105352170D01*
X18517975Y105342778D01*
X18513549Y105342699D01*
X18432328Y105342699D01*
X18383957Y105337499D01*
X18372716Y105336291D01*
X18237871Y105285997D01*
X18237864Y105285993D01*
X18122655Y105199747D01*
X18122652Y105199744D01*
X18036406Y105084535D01*
X18036402Y105084528D01*
X17986108Y104949682D01*
X17980835Y104900634D01*
X17979701Y104890076D01*
X17979700Y104890064D01*
X635500Y104890064D01*
X635500Y111508500D01*
X655185Y111575539D01*
X707989Y111621294D01*
X759500Y111632500D01*
X6797944Y111632500D01*
X6797945Y111632500D01*
X6927274Y111667153D01*
X7043226Y111734099D01*
X7137901Y111828774D01*
X7204847Y111944726D01*
X7239500Y112074055D01*
X7239500Y114787000D01*
X46526898Y114787000D01*
X47572988Y114787000D01*
X47540075Y114729993D01*
X47506000Y114602826D01*
X47506000Y114471174D01*
X47540075Y114344007D01*
X47572988Y114287000D01*
X46526898Y114287000D01*
X46542934Y114185752D01*
X46615897Y113961197D01*
X46723085Y113750828D01*
X46861866Y113559813D01*
X47028813Y113392866D01*
X47219828Y113254085D01*
X47430197Y113146897D01*
X47654752Y113073934D01*
X47756000Y113057897D01*
X47756000Y114103988D01*
X47813007Y114071075D01*
X47940174Y114037000D01*
X48071826Y114037000D01*
X48198993Y114071075D01*
X48256000Y114103988D01*
X48256000Y113057897D01*
X48357247Y113073934D01*
X48581802Y113146897D01*
X48792171Y113254085D01*
X48983186Y113392866D01*
X49027755Y113437435D01*
X49089078Y113470920D01*
X49158770Y113465936D01*
X49211538Y113428115D01*
X49294890Y113325890D01*
X49452590Y113197304D01*
X49452591Y113197303D01*
X49452593Y113197302D01*
X49632951Y113103091D01*
X49632952Y113103090D01*
X49634112Y113102485D01*
X49684419Y113053998D01*
X49700700Y112992576D01*
X49700700Y111266047D01*
X49681015Y111199008D01*
X49664381Y111178366D01*
X49518428Y111032413D01*
X49398115Y110866813D01*
X49305181Y110684423D01*
X49241922Y110489734D01*
X49209900Y110287551D01*
X49209900Y110082848D01*
X49241922Y109880665D01*
X49305181Y109685976D01*
X49398115Y109503586D01*
X49518428Y109337986D01*
X49663186Y109193228D01*
X49828786Y109072915D01*
X50011176Y108979981D01*
X50205865Y108916722D01*
X50383729Y108888551D01*
X50408048Y108884700D01*
X50408049Y108884700D01*
X50612751Y108884700D01*
X50612752Y108884700D01*
X50640395Y108889078D01*
X50814934Y108916722D01*
X51009623Y108979981D01*
X51135053Y109043891D01*
X51192010Y109072913D01*
X51192013Y109072915D01*
X51357613Y109193228D01*
X51502371Y109337986D01*
X51622684Y109503586D01*
X51622687Y109503590D01*
X51702481Y109660194D01*
X51715618Y109685976D01*
X51778877Y109880665D01*
X51810900Y110082848D01*
X51810900Y110287551D01*
X51778877Y110489734D01*
X51747139Y110587413D01*
X51715620Y110684419D01*
X51622687Y110866810D01*
X51512779Y111018087D01*
X51502371Y111032413D01*
X51502368Y111032415D01*
X51502366Y111032419D01*
X51357619Y111177166D01*
X51357607Y111177174D01*
X51354773Y111179596D01*
X51316577Y111238101D01*
X51311300Y111273890D01*
X51311300Y112992576D01*
X51330985Y113059615D01*
X51377888Y113102485D01*
X51379047Y113103090D01*
X51379049Y113103091D01*
X51559407Y113197302D01*
X51629046Y113254085D01*
X51717109Y113325890D01*
X51808061Y113437435D01*
X51845698Y113483593D01*
X51939909Y113663951D01*
X51995886Y113859582D01*
X52006500Y113978963D01*
X52006499Y115095036D01*
X51995886Y115214418D01*
X51939909Y115410049D01*
X51845698Y115590407D01*
X51717109Y115748109D01*
X51559407Y115876698D01*
X51379049Y115970909D01*
X51183418Y116026886D01*
X51064037Y116037500D01*
X49947964Y116037499D01*
X49828582Y116026886D01*
X49632951Y115970909D01*
X49452593Y115876698D01*
X49382953Y115819914D01*
X49294888Y115748107D01*
X49211538Y115645885D01*
X49153918Y115606367D01*
X49084079Y115604275D01*
X49027754Y115636565D01*
X48983186Y115681133D01*
X48792171Y115819914D01*
X48581804Y115927102D01*
X48357255Y116000063D01*
X48357249Y116000065D01*
X48256000Y116016100D01*
X48256000Y114970012D01*
X48198993Y115002925D01*
X48071826Y115037000D01*
X47940174Y115037000D01*
X47813007Y115002925D01*
X47756000Y114970012D01*
X47756000Y116016101D01*
X47654750Y116000065D01*
X47654744Y116000063D01*
X47430195Y115927102D01*
X47219828Y115819914D01*
X47028813Y115681133D01*
X46861866Y115514186D01*
X46723085Y115323171D01*
X46615897Y115112802D01*
X46542934Y114888247D01*
X46526898Y114787000D01*
X7239500Y114787000D01*
X7239500Y118112500D01*
X7259185Y118179539D01*
X7311989Y118225294D01*
X7363500Y118236500D01*
X53088500Y118236500D01*
X53155539Y118216815D01*
G37*
%TD.AperFunction*%
%TD*%
M02*
