M48
; DRILL file {KiCad 9.0.2} date 2025-07-08T13:25:17-0500
; FORMAT={-:-/ absolute / metric / decimal}
; #@! TF.CreationDate,2025-07-08T13:25:17-05:00
; #@! TF.GenerationSoftware,Kicad,Pcbnew,9.0.2
; #@! TF.FileFunction,Plated,1,2,PTH
FMAT,2
METRIC
; #@! TA.AperFunction,Plated,PTH,ViaDrill
T1C0.305
; #@! TA.AperFunction,Plated,PTH,ComponentDrill
T2C0.700
; #@! TA.AperFunction,Plated,PTH,ComponentDrill
T3C0.800
; #@! TA.AperFunction,Plated,PTH,ComponentDrill
T4C0.900
; #@! TA.AperFunction,Plated,PTH,ComponentDrill
T5C1.000
; #@! TA.AperFunction,Plated,PTH,ComponentDrill
T6C1.100
; #@! TA.AperFunction,Plated,PTH,ComponentDrill
T7C1.200
%
G90
G05
T1
X22.2Y58.141
X39.218Y91.669
X41.3Y78.791
X41.326Y64.846
X41.326Y59.969
T2
X6.771Y92.761
X7.419Y58.141
X7.476Y62.941
X11.771Y92.761
X12.419Y58.141
X12.476Y62.941
X19.069Y52.817
X19.069Y47.817
X30.393Y55.905
X35.393Y55.905
X51.17Y77.318
X51.221Y83.134
X56.17Y77.318
X56.221Y83.134
T3
X3.871Y97.18
X4.551Y52.908
X4.551Y47.879
X7.182Y77.561
X7.182Y66.761
X10.81Y82.753
X12.649Y77.536
X12.649Y66.736
X13.31Y82.753
X14.671Y97.18
X15.351Y52.908
X15.351Y47.879
X24.445Y109.906
X24.445Y105.893
X24.826Y43.713
X25.004Y64.846
X28.956Y49.53
X31.242Y81.422
X31.242Y70.622
X31.496Y49.53
X35.245Y109.906
X35.245Y105.893
X35.509Y81.422
X35.509Y70.622
X35.626Y43.713
X35.804Y64.846
X39.71Y110.185
X46.086Y68.732
X46.203Y83.175
X46.203Y72.375
X50.51Y110.185
X56.886Y68.732
T4
X18.364Y79.955
X18.364Y77.415
X18.364Y74.875
X18.364Y72.335
X19.38Y103.942
X19.38Y101.442
X25.984Y79.955
X25.984Y77.415
X25.984Y74.875
X25.984Y72.335
X37.871Y98.684
X37.871Y96.184
T5
X7.62Y32.512
X7.62Y30.012
X16.51Y37.492
X16.51Y34.992
X16.51Y32.492
X16.51Y29.992
X43.942Y37.572
X43.942Y35.072
X43.942Y32.572
X43.942Y30.072
X48.006Y114.537
X50.506Y114.537
X52.832Y35.012
X52.832Y32.512
T6
X23.935Y97.536
X23.935Y93.98
X23.935Y90.424
X23.935Y86.868
X31.335Y97.536
X31.335Y93.98
X31.335Y90.424
X31.335Y86.868
T7
X4.271Y88.14
X9.271Y88.14
X14.271Y88.14
X25.226Y60.2
X30.226Y60.2
X35.226Y60.2
X39.626Y105.029
X46.181Y88.14
X49.986Y105.029
X51.181Y88.14
X56.181Y88.14
M30
