%TF.GenerationSoftware,KiCad,Pcbnew,9.0.2*%
%TF.CreationDate,2025-07-08T13:25:15-05:00*%
%TF.ProjectId,BB Overdrive,4242204f-7665-4726-9472-6976652e6b69,rev?*%
%TF.SameCoordinates,Original*%
%TF.FileFunction,Legend,Top*%
%TF.FilePolarity,Positive*%
%FSLAX46Y46*%
G04 Gerber Fmt 4.6, Leading zero omitted, Abs format (unit mm)*
G04 Created by KiCad (PCBNEW 9.0.2) date 2025-07-08 13:25:15*
%MOMM*%
%LPD*%
G01*
G04 APERTURE LIST*
%ADD10C,0.152400*%
%ADD11C,0.150000*%
%ADD12C,0.200000*%
%ADD13C,0.254000*%
%ADD14C,0.250000*%
%ADD15C,0.600000*%
G04 APERTURE END LIST*
D10*
X50065734Y116391910D02*
X50201200Y116391910D01*
X50201200Y116391910D02*
X50268934Y116425777D01*
X50268934Y116425777D02*
X50302800Y116459643D01*
X50302800Y116459643D02*
X50370534Y116561243D01*
X50370534Y116561243D02*
X50404400Y116696710D01*
X50404400Y116696710D02*
X50404400Y116967643D01*
X50404400Y116967643D02*
X50370534Y117035377D01*
X50370534Y117035377D02*
X50336667Y117069243D01*
X50336667Y117069243D02*
X50268934Y117103110D01*
X50268934Y117103110D02*
X50133467Y117103110D01*
X50133467Y117103110D02*
X50065734Y117069243D01*
X50065734Y117069243D02*
X50031867Y117035377D01*
X50031867Y117035377D02*
X49998000Y116967643D01*
X49998000Y116967643D02*
X49998000Y116798310D01*
X49998000Y116798310D02*
X50031867Y116730577D01*
X50031867Y116730577D02*
X50065734Y116696710D01*
X50065734Y116696710D02*
X50133467Y116662843D01*
X50133467Y116662843D02*
X50268934Y116662843D01*
X50268934Y116662843D02*
X50336667Y116696710D01*
X50336667Y116696710D02*
X50370534Y116730577D01*
X50370534Y116730577D02*
X50404400Y116798310D01*
X50607600Y117103110D02*
X50844667Y116391910D01*
X50844667Y116391910D02*
X51081733Y117103110D01*
X9364133Y32868243D02*
X9296400Y32902110D01*
X9296400Y32902110D02*
X9194800Y32902110D01*
X9194800Y32902110D02*
X9093200Y32868243D01*
X9093200Y32868243D02*
X9025467Y32800510D01*
X9025467Y32800510D02*
X8991600Y32732777D01*
X8991600Y32732777D02*
X8957733Y32597310D01*
X8957733Y32597310D02*
X8957733Y32495710D01*
X8957733Y32495710D02*
X8991600Y32360243D01*
X8991600Y32360243D02*
X9025467Y32292510D01*
X9025467Y32292510D02*
X9093200Y32224777D01*
X9093200Y32224777D02*
X9194800Y32190910D01*
X9194800Y32190910D02*
X9262533Y32190910D01*
X9262533Y32190910D02*
X9364133Y32224777D01*
X9364133Y32224777D02*
X9398000Y32258643D01*
X9398000Y32258643D02*
X9398000Y32495710D01*
X9398000Y32495710D02*
X9262533Y32495710D01*
X9702800Y32190910D02*
X9702800Y32902110D01*
X9702800Y32902110D02*
X10109200Y32190910D01*
X10109200Y32190910D02*
X10109200Y32902110D01*
X10447867Y32190910D02*
X10447867Y32902110D01*
X10447867Y32902110D02*
X10617200Y32902110D01*
X10617200Y32902110D02*
X10718800Y32868243D01*
X10718800Y32868243D02*
X10786534Y32800510D01*
X10786534Y32800510D02*
X10820400Y32732777D01*
X10820400Y32732777D02*
X10854267Y32597310D01*
X10854267Y32597310D02*
X10854267Y32495710D01*
X10854267Y32495710D02*
X10820400Y32360243D01*
X10820400Y32360243D02*
X10786534Y32292510D01*
X10786534Y32292510D02*
X10718800Y32224777D01*
X10718800Y32224777D02*
X10617200Y32190910D01*
X10617200Y32190910D02*
X10447867Y32190910D01*
X45516800Y35382110D02*
X45652266Y35382110D01*
X45652266Y35382110D02*
X45720000Y35348243D01*
X45720000Y35348243D02*
X45787733Y35280510D01*
X45787733Y35280510D02*
X45821600Y35145043D01*
X45821600Y35145043D02*
X45821600Y34907977D01*
X45821600Y34907977D02*
X45787733Y34772510D01*
X45787733Y34772510D02*
X45720000Y34704777D01*
X45720000Y34704777D02*
X45652266Y34670910D01*
X45652266Y34670910D02*
X45516800Y34670910D01*
X45516800Y34670910D02*
X45449066Y34704777D01*
X45449066Y34704777D02*
X45381333Y34772510D01*
X45381333Y34772510D02*
X45347466Y34907977D01*
X45347466Y34907977D02*
X45347466Y35145043D01*
X45347466Y35145043D02*
X45381333Y35280510D01*
X45381333Y35280510D02*
X45449066Y35348243D01*
X45449066Y35348243D02*
X45516800Y35382110D01*
X46126400Y35382110D02*
X46126400Y34806377D01*
X46126400Y34806377D02*
X46160267Y34738643D01*
X46160267Y34738643D02*
X46194133Y34704777D01*
X46194133Y34704777D02*
X46261867Y34670910D01*
X46261867Y34670910D02*
X46397333Y34670910D01*
X46397333Y34670910D02*
X46465067Y34704777D01*
X46465067Y34704777D02*
X46498933Y34738643D01*
X46498933Y34738643D02*
X46532800Y34806377D01*
X46532800Y34806377D02*
X46532800Y35382110D01*
X46769867Y35382110D02*
X47176267Y35382110D01*
X46973067Y34670910D02*
X46973067Y35382110D01*
X45855466Y37170910D02*
X45618399Y37509577D01*
X45449066Y37170910D02*
X45449066Y37882110D01*
X45449066Y37882110D02*
X45719999Y37882110D01*
X45719999Y37882110D02*
X45787733Y37848243D01*
X45787733Y37848243D02*
X45821599Y37814377D01*
X45821599Y37814377D02*
X45855466Y37746643D01*
X45855466Y37746643D02*
X45855466Y37645043D01*
X45855466Y37645043D02*
X45821599Y37577310D01*
X45821599Y37577310D02*
X45787733Y37543443D01*
X45787733Y37543443D02*
X45719999Y37509577D01*
X45719999Y37509577D02*
X45449066Y37509577D01*
X46160266Y37543443D02*
X46397333Y37543443D01*
X46498933Y37170910D02*
X46160266Y37170910D01*
X46160266Y37170910D02*
X46160266Y37882110D01*
X46160266Y37882110D02*
X46498933Y37882110D01*
X46702133Y37882110D02*
X47108533Y37882110D01*
X46905333Y37170910D02*
X46905333Y37882110D01*
X8494358Y117386163D02*
X8397596Y117434544D01*
X8397596Y117434544D02*
X8252453Y117434544D01*
X8252453Y117434544D02*
X8107310Y117386163D01*
X8107310Y117386163D02*
X8010548Y117289401D01*
X8010548Y117289401D02*
X7962167Y117192639D01*
X7962167Y117192639D02*
X7913786Y116999115D01*
X7913786Y116999115D02*
X7913786Y116853972D01*
X7913786Y116853972D02*
X7962167Y116660448D01*
X7962167Y116660448D02*
X8010548Y116563686D01*
X8010548Y116563686D02*
X8107310Y116466925D01*
X8107310Y116466925D02*
X8252453Y116418544D01*
X8252453Y116418544D02*
X8349215Y116418544D01*
X8349215Y116418544D02*
X8494358Y116466925D01*
X8494358Y116466925D02*
X8542739Y116515305D01*
X8542739Y116515305D02*
X8542739Y116853972D01*
X8542739Y116853972D02*
X8349215Y116853972D01*
X9413596Y117095877D02*
X9413596Y116418544D01*
X8978167Y117095877D02*
X8978167Y116563686D01*
X8978167Y116563686D02*
X9026548Y116466925D01*
X9026548Y116466925D02*
X9123310Y116418544D01*
X9123310Y116418544D02*
X9268453Y116418544D01*
X9268453Y116418544D02*
X9365215Y116466925D01*
X9365215Y116466925D02*
X9413596Y116515305D01*
X9897405Y116418544D02*
X9897405Y117095877D01*
X9897405Y117434544D02*
X9849024Y117386163D01*
X9849024Y117386163D02*
X9897405Y117337782D01*
X9897405Y117337782D02*
X9945786Y117386163D01*
X9945786Y117386163D02*
X9897405Y117434544D01*
X9897405Y117434544D02*
X9897405Y117337782D01*
X10236072Y117095877D02*
X10623120Y117095877D01*
X10381215Y117434544D02*
X10381215Y116563686D01*
X10381215Y116563686D02*
X10429596Y116466925D01*
X10429596Y116466925D02*
X10526358Y116418544D01*
X10526358Y116418544D02*
X10623120Y116418544D01*
X11397215Y116418544D02*
X11397215Y116950734D01*
X11397215Y116950734D02*
X11348834Y117047496D01*
X11348834Y117047496D02*
X11252072Y117095877D01*
X11252072Y117095877D02*
X11058548Y117095877D01*
X11058548Y117095877D02*
X10961786Y117047496D01*
X11397215Y116466925D02*
X11300453Y116418544D01*
X11300453Y116418544D02*
X11058548Y116418544D01*
X11058548Y116418544D02*
X10961786Y116466925D01*
X10961786Y116466925D02*
X10913405Y116563686D01*
X10913405Y116563686D02*
X10913405Y116660448D01*
X10913405Y116660448D02*
X10961786Y116757210D01*
X10961786Y116757210D02*
X11058548Y116805591D01*
X11058548Y116805591D02*
X11300453Y116805591D01*
X11300453Y116805591D02*
X11397215Y116853972D01*
X11881024Y116418544D02*
X11881024Y117095877D01*
X11881024Y116902353D02*
X11929405Y116999115D01*
X11929405Y116999115D02*
X11977786Y117047496D01*
X11977786Y117047496D02*
X12074548Y117095877D01*
X12074548Y117095877D02*
X12171310Y117095877D01*
X12509976Y116418544D02*
X12509976Y117434544D01*
X12509976Y117434544D02*
X12897024Y117434544D01*
X12897024Y117434544D02*
X12993786Y117386163D01*
X12993786Y117386163D02*
X13042167Y117337782D01*
X13042167Y117337782D02*
X13090548Y117241020D01*
X13090548Y117241020D02*
X13090548Y117095877D01*
X13090548Y117095877D02*
X13042167Y116999115D01*
X13042167Y116999115D02*
X12993786Y116950734D01*
X12993786Y116950734D02*
X12897024Y116902353D01*
X12897024Y116902353D02*
X12509976Y116902353D01*
X13913024Y116466925D02*
X13816262Y116418544D01*
X13816262Y116418544D02*
X13622738Y116418544D01*
X13622738Y116418544D02*
X13525976Y116466925D01*
X13525976Y116466925D02*
X13477595Y116563686D01*
X13477595Y116563686D02*
X13477595Y116950734D01*
X13477595Y116950734D02*
X13525976Y117047496D01*
X13525976Y117047496D02*
X13622738Y117095877D01*
X13622738Y117095877D02*
X13816262Y117095877D01*
X13816262Y117095877D02*
X13913024Y117047496D01*
X13913024Y117047496D02*
X13961405Y116950734D01*
X13961405Y116950734D02*
X13961405Y116853972D01*
X13961405Y116853972D02*
X13477595Y116757210D01*
X14832262Y116418544D02*
X14832262Y117434544D01*
X14832262Y116466925D02*
X14735500Y116418544D01*
X14735500Y116418544D02*
X14541976Y116418544D01*
X14541976Y116418544D02*
X14445214Y116466925D01*
X14445214Y116466925D02*
X14396833Y116515305D01*
X14396833Y116515305D02*
X14348452Y116612067D01*
X14348452Y116612067D02*
X14348452Y116902353D01*
X14348452Y116902353D02*
X14396833Y116999115D01*
X14396833Y116999115D02*
X14445214Y117047496D01*
X14445214Y117047496D02*
X14541976Y117095877D01*
X14541976Y117095877D02*
X14735500Y117095877D01*
X14735500Y117095877D02*
X14832262Y117047496D01*
X15751500Y116418544D02*
X15751500Y116950734D01*
X15751500Y116950734D02*
X15703119Y117047496D01*
X15703119Y117047496D02*
X15606357Y117095877D01*
X15606357Y117095877D02*
X15412833Y117095877D01*
X15412833Y117095877D02*
X15316071Y117047496D01*
X15751500Y116466925D02*
X15654738Y116418544D01*
X15654738Y116418544D02*
X15412833Y116418544D01*
X15412833Y116418544D02*
X15316071Y116466925D01*
X15316071Y116466925D02*
X15267690Y116563686D01*
X15267690Y116563686D02*
X15267690Y116660448D01*
X15267690Y116660448D02*
X15316071Y116757210D01*
X15316071Y116757210D02*
X15412833Y116805591D01*
X15412833Y116805591D02*
X15654738Y116805591D01*
X15654738Y116805591D02*
X15751500Y116853972D01*
X16380452Y116418544D02*
X16283690Y116466925D01*
X16283690Y116466925D02*
X16235309Y116563686D01*
X16235309Y116563686D02*
X16235309Y117434544D01*
X17348071Y116515305D02*
X17299690Y116466925D01*
X17299690Y116466925D02*
X17154547Y116418544D01*
X17154547Y116418544D02*
X17057785Y116418544D01*
X17057785Y116418544D02*
X16912642Y116466925D01*
X16912642Y116466925D02*
X16815880Y116563686D01*
X16815880Y116563686D02*
X16767499Y116660448D01*
X16767499Y116660448D02*
X16719118Y116853972D01*
X16719118Y116853972D02*
X16719118Y116999115D01*
X16719118Y116999115D02*
X16767499Y117192639D01*
X16767499Y117192639D02*
X16815880Y117289401D01*
X16815880Y117289401D02*
X16912642Y117386163D01*
X16912642Y117386163D02*
X17057785Y117434544D01*
X17057785Y117434544D02*
X17154547Y117434544D01*
X17154547Y117434544D02*
X17299690Y117386163D01*
X17299690Y117386163D02*
X17348071Y117337782D01*
X17928642Y116418544D02*
X17831880Y116466925D01*
X17831880Y116466925D02*
X17783499Y116515305D01*
X17783499Y116515305D02*
X17735118Y116612067D01*
X17735118Y116612067D02*
X17735118Y116902353D01*
X17735118Y116902353D02*
X17783499Y116999115D01*
X17783499Y116999115D02*
X17831880Y117047496D01*
X17831880Y117047496D02*
X17928642Y117095877D01*
X17928642Y117095877D02*
X18073785Y117095877D01*
X18073785Y117095877D02*
X18170547Y117047496D01*
X18170547Y117047496D02*
X18218928Y116999115D01*
X18218928Y116999115D02*
X18267309Y116902353D01*
X18267309Y116902353D02*
X18267309Y116612067D01*
X18267309Y116612067D02*
X18218928Y116515305D01*
X18218928Y116515305D02*
X18170547Y116466925D01*
X18170547Y116466925D02*
X18073785Y116418544D01*
X18073785Y116418544D02*
X17928642Y116418544D01*
X19138166Y117095877D02*
X19138166Y116418544D01*
X18702737Y117095877D02*
X18702737Y116563686D01*
X18702737Y116563686D02*
X18751118Y116466925D01*
X18751118Y116466925D02*
X18847880Y116418544D01*
X18847880Y116418544D02*
X18993023Y116418544D01*
X18993023Y116418544D02*
X19089785Y116466925D01*
X19089785Y116466925D02*
X19138166Y116515305D01*
X19621975Y116418544D02*
X19621975Y117095877D01*
X19621975Y116902353D02*
X19670356Y116999115D01*
X19670356Y116999115D02*
X19718737Y117047496D01*
X19718737Y117047496D02*
X19815499Y117095877D01*
X19815499Y117095877D02*
X19912261Y117095877D01*
X20202546Y116466925D02*
X20299308Y116418544D01*
X20299308Y116418544D02*
X20492832Y116418544D01*
X20492832Y116418544D02*
X20589594Y116466925D01*
X20589594Y116466925D02*
X20637975Y116563686D01*
X20637975Y116563686D02*
X20637975Y116612067D01*
X20637975Y116612067D02*
X20589594Y116708829D01*
X20589594Y116708829D02*
X20492832Y116757210D01*
X20492832Y116757210D02*
X20347689Y116757210D01*
X20347689Y116757210D02*
X20250927Y116805591D01*
X20250927Y116805591D02*
X20202546Y116902353D01*
X20202546Y116902353D02*
X20202546Y116950734D01*
X20202546Y116950734D02*
X20250927Y117047496D01*
X20250927Y117047496D02*
X20347689Y117095877D01*
X20347689Y117095877D02*
X20492832Y117095877D01*
X20492832Y117095877D02*
X20589594Y117047496D01*
X21460451Y116466925D02*
X21363689Y116418544D01*
X21363689Y116418544D02*
X21170165Y116418544D01*
X21170165Y116418544D02*
X21073403Y116466925D01*
X21073403Y116466925D02*
X21025022Y116563686D01*
X21025022Y116563686D02*
X21025022Y116950734D01*
X21025022Y116950734D02*
X21073403Y117047496D01*
X21073403Y117047496D02*
X21170165Y117095877D01*
X21170165Y117095877D02*
X21363689Y117095877D01*
X21363689Y117095877D02*
X21460451Y117047496D01*
X21460451Y117047496D02*
X21508832Y116950734D01*
X21508832Y116950734D02*
X21508832Y116853972D01*
X21508832Y116853972D02*
X21025022Y116757210D01*
X22766736Y117192639D02*
X22669975Y117241020D01*
X22669975Y117241020D02*
X22476451Y117241020D01*
X22476451Y117241020D02*
X22379689Y117192639D01*
X22379689Y117192639D02*
X22282927Y117095877D01*
X22282927Y117095877D02*
X22234546Y116999115D01*
X22234546Y116999115D02*
X22234546Y116805591D01*
X22234546Y116805591D02*
X22282927Y116708829D01*
X22282927Y116708829D02*
X22379689Y116612067D01*
X22379689Y116612067D02*
X22476451Y116563686D01*
X22476451Y116563686D02*
X22669975Y116563686D01*
X22669975Y116563686D02*
X22766736Y116612067D01*
X22573213Y117579686D02*
X22331308Y117531305D01*
X22331308Y117531305D02*
X22089403Y117386163D01*
X22089403Y117386163D02*
X21944260Y117144258D01*
X21944260Y117144258D02*
X21895879Y116902353D01*
X21895879Y116902353D02*
X21944260Y116660448D01*
X21944260Y116660448D02*
X22089403Y116418544D01*
X22089403Y116418544D02*
X22331308Y116273401D01*
X22331308Y116273401D02*
X22573213Y116225020D01*
X22573213Y116225020D02*
X22815117Y116273401D01*
X22815117Y116273401D02*
X23057022Y116418544D01*
X23057022Y116418544D02*
X23202165Y116660448D01*
X23202165Y116660448D02*
X23250546Y116902353D01*
X23250546Y116902353D02*
X23202165Y117144258D01*
X23202165Y117144258D02*
X23057022Y117386163D01*
X23057022Y117386163D02*
X22815117Y117531305D01*
X22815117Y117531305D02*
X22573213Y117579686D01*
X49834800Y35402110D02*
X49970266Y35402110D01*
X49970266Y35402110D02*
X50038000Y35368243D01*
X50038000Y35368243D02*
X50105733Y35300510D01*
X50105733Y35300510D02*
X50139600Y35165043D01*
X50139600Y35165043D02*
X50139600Y34927977D01*
X50139600Y34927977D02*
X50105733Y34792510D01*
X50105733Y34792510D02*
X50038000Y34724777D01*
X50038000Y34724777D02*
X49970266Y34690910D01*
X49970266Y34690910D02*
X49834800Y34690910D01*
X49834800Y34690910D02*
X49767066Y34724777D01*
X49767066Y34724777D02*
X49699333Y34792510D01*
X49699333Y34792510D02*
X49665466Y34927977D01*
X49665466Y34927977D02*
X49665466Y35165043D01*
X49665466Y35165043D02*
X49699333Y35300510D01*
X49699333Y35300510D02*
X49767066Y35368243D01*
X49767066Y35368243D02*
X49834800Y35402110D01*
X50444400Y35402110D02*
X50444400Y34826377D01*
X50444400Y34826377D02*
X50478267Y34758643D01*
X50478267Y34758643D02*
X50512133Y34724777D01*
X50512133Y34724777D02*
X50579867Y34690910D01*
X50579867Y34690910D02*
X50715333Y34690910D01*
X50715333Y34690910D02*
X50783067Y34724777D01*
X50783067Y34724777D02*
X50816933Y34758643D01*
X50816933Y34758643D02*
X50850800Y34826377D01*
X50850800Y34826377D02*
X50850800Y35402110D01*
X51087867Y35402110D02*
X51494267Y35402110D01*
X51291067Y34690910D02*
X51291067Y35402110D01*
X13851466Y29750910D02*
X13851466Y30462110D01*
X14190133Y29750910D02*
X14190133Y30462110D01*
X14190133Y30462110D02*
X14596533Y29750910D01*
X14596533Y29750910D02*
X14596533Y30462110D01*
X13682133Y32848243D02*
X13614400Y32882110D01*
X13614400Y32882110D02*
X13512800Y32882110D01*
X13512800Y32882110D02*
X13411200Y32848243D01*
X13411200Y32848243D02*
X13343467Y32780510D01*
X13343467Y32780510D02*
X13309600Y32712777D01*
X13309600Y32712777D02*
X13275733Y32577310D01*
X13275733Y32577310D02*
X13275733Y32475710D01*
X13275733Y32475710D02*
X13309600Y32340243D01*
X13309600Y32340243D02*
X13343467Y32272510D01*
X13343467Y32272510D02*
X13411200Y32204777D01*
X13411200Y32204777D02*
X13512800Y32170910D01*
X13512800Y32170910D02*
X13580533Y32170910D01*
X13580533Y32170910D02*
X13682133Y32204777D01*
X13682133Y32204777D02*
X13716000Y32238643D01*
X13716000Y32238643D02*
X13716000Y32475710D01*
X13716000Y32475710D02*
X13580533Y32475710D01*
X14020800Y32170910D02*
X14020800Y32882110D01*
X14020800Y32882110D02*
X14427200Y32170910D01*
X14427200Y32170910D02*
X14427200Y32882110D01*
X14765867Y32170910D02*
X14765867Y32882110D01*
X14765867Y32882110D02*
X14935200Y32882110D01*
X14935200Y32882110D02*
X15036800Y32848243D01*
X15036800Y32848243D02*
X15104534Y32780510D01*
X15104534Y32780510D02*
X15138400Y32712777D01*
X15138400Y32712777D02*
X15172267Y32577310D01*
X15172267Y32577310D02*
X15172267Y32475710D01*
X15172267Y32475710D02*
X15138400Y32340243D01*
X15138400Y32340243D02*
X15104534Y32272510D01*
X15104534Y32272510D02*
X15036800Y32204777D01*
X15036800Y32204777D02*
X14935200Y32170910D01*
X14935200Y32170910D02*
X14765867Y32170910D01*
X8300834Y114822157D02*
X8445977Y114773776D01*
X8445977Y114773776D02*
X8494358Y114725395D01*
X8494358Y114725395D02*
X8542739Y114628633D01*
X8542739Y114628633D02*
X8542739Y114483490D01*
X8542739Y114483490D02*
X8494358Y114386728D01*
X8494358Y114386728D02*
X8445977Y114338348D01*
X8445977Y114338348D02*
X8349215Y114289967D01*
X8349215Y114289967D02*
X7962167Y114289967D01*
X7962167Y114289967D02*
X7962167Y115305967D01*
X7962167Y115305967D02*
X8300834Y115305967D01*
X8300834Y115305967D02*
X8397596Y115257586D01*
X8397596Y115257586D02*
X8445977Y115209205D01*
X8445977Y115209205D02*
X8494358Y115112443D01*
X8494358Y115112443D02*
X8494358Y115015681D01*
X8494358Y115015681D02*
X8445977Y114918919D01*
X8445977Y114918919D02*
X8397596Y114870538D01*
X8397596Y114870538D02*
X8300834Y114822157D01*
X8300834Y114822157D02*
X7962167Y114822157D01*
X9316834Y114822157D02*
X9461977Y114773776D01*
X9461977Y114773776D02*
X9510358Y114725395D01*
X9510358Y114725395D02*
X9558739Y114628633D01*
X9558739Y114628633D02*
X9558739Y114483490D01*
X9558739Y114483490D02*
X9510358Y114386728D01*
X9510358Y114386728D02*
X9461977Y114338348D01*
X9461977Y114338348D02*
X9365215Y114289967D01*
X9365215Y114289967D02*
X8978167Y114289967D01*
X8978167Y114289967D02*
X8978167Y115305967D01*
X8978167Y115305967D02*
X9316834Y115305967D01*
X9316834Y115305967D02*
X9413596Y115257586D01*
X9413596Y115257586D02*
X9461977Y115209205D01*
X9461977Y115209205D02*
X9510358Y115112443D01*
X9510358Y115112443D02*
X9510358Y115015681D01*
X9510358Y115015681D02*
X9461977Y114918919D01*
X9461977Y114918919D02*
X9413596Y114870538D01*
X9413596Y114870538D02*
X9316834Y114822157D01*
X9316834Y114822157D02*
X8978167Y114822157D01*
X10961786Y115305967D02*
X11155310Y115305967D01*
X11155310Y115305967D02*
X11252072Y115257586D01*
X11252072Y115257586D02*
X11348834Y115160824D01*
X11348834Y115160824D02*
X11397215Y114967300D01*
X11397215Y114967300D02*
X11397215Y114628633D01*
X11397215Y114628633D02*
X11348834Y114435109D01*
X11348834Y114435109D02*
X11252072Y114338348D01*
X11252072Y114338348D02*
X11155310Y114289967D01*
X11155310Y114289967D02*
X10961786Y114289967D01*
X10961786Y114289967D02*
X10865024Y114338348D01*
X10865024Y114338348D02*
X10768262Y114435109D01*
X10768262Y114435109D02*
X10719881Y114628633D01*
X10719881Y114628633D02*
X10719881Y114967300D01*
X10719881Y114967300D02*
X10768262Y115160824D01*
X10768262Y115160824D02*
X10865024Y115257586D01*
X10865024Y115257586D02*
X10961786Y115305967D01*
X11735881Y114967300D02*
X11977786Y114289967D01*
X11977786Y114289967D02*
X12219691Y114967300D01*
X12993786Y114338348D02*
X12897024Y114289967D01*
X12897024Y114289967D02*
X12703500Y114289967D01*
X12703500Y114289967D02*
X12606738Y114338348D01*
X12606738Y114338348D02*
X12558357Y114435109D01*
X12558357Y114435109D02*
X12558357Y114822157D01*
X12558357Y114822157D02*
X12606738Y114918919D01*
X12606738Y114918919D02*
X12703500Y114967300D01*
X12703500Y114967300D02*
X12897024Y114967300D01*
X12897024Y114967300D02*
X12993786Y114918919D01*
X12993786Y114918919D02*
X13042167Y114822157D01*
X13042167Y114822157D02*
X13042167Y114725395D01*
X13042167Y114725395D02*
X12558357Y114628633D01*
X13477595Y114289967D02*
X13477595Y114967300D01*
X13477595Y114773776D02*
X13525976Y114870538D01*
X13525976Y114870538D02*
X13574357Y114918919D01*
X13574357Y114918919D02*
X13671119Y114967300D01*
X13671119Y114967300D02*
X13767881Y114967300D01*
X14541976Y114289967D02*
X14541976Y115305967D01*
X14541976Y114338348D02*
X14445214Y114289967D01*
X14445214Y114289967D02*
X14251690Y114289967D01*
X14251690Y114289967D02*
X14154928Y114338348D01*
X14154928Y114338348D02*
X14106547Y114386728D01*
X14106547Y114386728D02*
X14058166Y114483490D01*
X14058166Y114483490D02*
X14058166Y114773776D01*
X14058166Y114773776D02*
X14106547Y114870538D01*
X14106547Y114870538D02*
X14154928Y114918919D01*
X14154928Y114918919D02*
X14251690Y114967300D01*
X14251690Y114967300D02*
X14445214Y114967300D01*
X14445214Y114967300D02*
X14541976Y114918919D01*
X15025785Y114289967D02*
X15025785Y114967300D01*
X15025785Y114773776D02*
X15074166Y114870538D01*
X15074166Y114870538D02*
X15122547Y114918919D01*
X15122547Y114918919D02*
X15219309Y114967300D01*
X15219309Y114967300D02*
X15316071Y114967300D01*
X15654737Y114289967D02*
X15654737Y114967300D01*
X15654737Y115305967D02*
X15606356Y115257586D01*
X15606356Y115257586D02*
X15654737Y115209205D01*
X15654737Y115209205D02*
X15703118Y115257586D01*
X15703118Y115257586D02*
X15654737Y115305967D01*
X15654737Y115305967D02*
X15654737Y115209205D01*
X16041785Y114967300D02*
X16283690Y114289967D01*
X16283690Y114289967D02*
X16525595Y114967300D01*
X17299690Y114338348D02*
X17202928Y114289967D01*
X17202928Y114289967D02*
X17009404Y114289967D01*
X17009404Y114289967D02*
X16912642Y114338348D01*
X16912642Y114338348D02*
X16864261Y114435109D01*
X16864261Y114435109D02*
X16864261Y114822157D01*
X16864261Y114822157D02*
X16912642Y114918919D01*
X16912642Y114918919D02*
X17009404Y114967300D01*
X17009404Y114967300D02*
X17202928Y114967300D01*
X17202928Y114967300D02*
X17299690Y114918919D01*
X17299690Y114918919D02*
X17348071Y114822157D01*
X17348071Y114822157D02*
X17348071Y114725395D01*
X17348071Y114725395D02*
X16864261Y114628633D01*
X7865405Y113331597D02*
X8107310Y112654264D01*
X8107310Y112654264D02*
X8349215Y113331597D01*
X9268453Y112654264D02*
X8687881Y112654264D01*
X8978167Y112654264D02*
X8978167Y113670264D01*
X8978167Y113670264D02*
X8881405Y113525121D01*
X8881405Y113525121D02*
X8784643Y113428359D01*
X8784643Y113428359D02*
X8687881Y113379978D01*
X45686133Y32848243D02*
X45618400Y32882110D01*
X45618400Y32882110D02*
X45516800Y32882110D01*
X45516800Y32882110D02*
X45415200Y32848243D01*
X45415200Y32848243D02*
X45347467Y32780510D01*
X45347467Y32780510D02*
X45313600Y32712777D01*
X45313600Y32712777D02*
X45279733Y32577310D01*
X45279733Y32577310D02*
X45279733Y32475710D01*
X45279733Y32475710D02*
X45313600Y32340243D01*
X45313600Y32340243D02*
X45347467Y32272510D01*
X45347467Y32272510D02*
X45415200Y32204777D01*
X45415200Y32204777D02*
X45516800Y32170910D01*
X45516800Y32170910D02*
X45584533Y32170910D01*
X45584533Y32170910D02*
X45686133Y32204777D01*
X45686133Y32204777D02*
X45720000Y32238643D01*
X45720000Y32238643D02*
X45720000Y32475710D01*
X45720000Y32475710D02*
X45584533Y32475710D01*
X46024800Y32170910D02*
X46024800Y32882110D01*
X46024800Y32882110D02*
X46431200Y32170910D01*
X46431200Y32170910D02*
X46431200Y32882110D01*
X46769867Y32170910D02*
X46769867Y32882110D01*
X46769867Y32882110D02*
X46939200Y32882110D01*
X46939200Y32882110D02*
X47040800Y32848243D01*
X47040800Y32848243D02*
X47108534Y32780510D01*
X47108534Y32780510D02*
X47142400Y32712777D01*
X47142400Y32712777D02*
X47176267Y32577310D01*
X47176267Y32577310D02*
X47176267Y32475710D01*
X47176267Y32475710D02*
X47142400Y32340243D01*
X47142400Y32340243D02*
X47108534Y32272510D01*
X47108534Y32272510D02*
X47040800Y32204777D01*
X47040800Y32204777D02*
X46939200Y32170910D01*
X46939200Y32170910D02*
X46769867Y32170910D01*
X47464133Y117069243D02*
X47396400Y117103110D01*
X47396400Y117103110D02*
X47294800Y117103110D01*
X47294800Y117103110D02*
X47193200Y117069243D01*
X47193200Y117069243D02*
X47125467Y117001510D01*
X47125467Y117001510D02*
X47091600Y116933777D01*
X47091600Y116933777D02*
X47057733Y116798310D01*
X47057733Y116798310D02*
X47057733Y116696710D01*
X47057733Y116696710D02*
X47091600Y116561243D01*
X47091600Y116561243D02*
X47125467Y116493510D01*
X47125467Y116493510D02*
X47193200Y116425777D01*
X47193200Y116425777D02*
X47294800Y116391910D01*
X47294800Y116391910D02*
X47362533Y116391910D01*
X47362533Y116391910D02*
X47464133Y116425777D01*
X47464133Y116425777D02*
X47498000Y116459643D01*
X47498000Y116459643D02*
X47498000Y116696710D01*
X47498000Y116696710D02*
X47362533Y116696710D01*
X47802800Y116391910D02*
X47802800Y117103110D01*
X47802800Y117103110D02*
X48209200Y116391910D01*
X48209200Y116391910D02*
X48209200Y117103110D01*
X48547867Y116391910D02*
X48547867Y117103110D01*
X48547867Y117103110D02*
X48717200Y117103110D01*
X48717200Y117103110D02*
X48818800Y117069243D01*
X48818800Y117069243D02*
X48886534Y117001510D01*
X48886534Y117001510D02*
X48920400Y116933777D01*
X48920400Y116933777D02*
X48954267Y116798310D01*
X48954267Y116798310D02*
X48954267Y116696710D01*
X48954267Y116696710D02*
X48920400Y116561243D01*
X48920400Y116561243D02*
X48886534Y116493510D01*
X48886534Y116493510D02*
X48818800Y116425777D01*
X48818800Y116425777D02*
X48717200Y116391910D01*
X48717200Y116391910D02*
X48547867Y116391910D01*
X46007867Y29750910D02*
X45669200Y29750910D01*
X45669200Y29750910D02*
X45669200Y30462110D01*
X46244933Y30021843D02*
X46786800Y30021843D01*
X46515866Y29750910D02*
X46515866Y30292777D01*
X13682133Y35348243D02*
X13614400Y35382110D01*
X13614400Y35382110D02*
X13512800Y35382110D01*
X13512800Y35382110D02*
X13411200Y35348243D01*
X13411200Y35348243D02*
X13343467Y35280510D01*
X13343467Y35280510D02*
X13309600Y35212777D01*
X13309600Y35212777D02*
X13275733Y35077310D01*
X13275733Y35077310D02*
X13275733Y34975710D01*
X13275733Y34975710D02*
X13309600Y34840243D01*
X13309600Y34840243D02*
X13343467Y34772510D01*
X13343467Y34772510D02*
X13411200Y34704777D01*
X13411200Y34704777D02*
X13512800Y34670910D01*
X13512800Y34670910D02*
X13580533Y34670910D01*
X13580533Y34670910D02*
X13682133Y34704777D01*
X13682133Y34704777D02*
X13716000Y34738643D01*
X13716000Y34738643D02*
X13716000Y34975710D01*
X13716000Y34975710D02*
X13580533Y34975710D01*
X14020800Y34670910D02*
X14020800Y35382110D01*
X14020800Y35382110D02*
X14427200Y34670910D01*
X14427200Y34670910D02*
X14427200Y35382110D01*
X14765867Y34670910D02*
X14765867Y35382110D01*
X14765867Y35382110D02*
X14935200Y35382110D01*
X14935200Y35382110D02*
X15036800Y35348243D01*
X15036800Y35348243D02*
X15104534Y35280510D01*
X15104534Y35280510D02*
X15138400Y35212777D01*
X15138400Y35212777D02*
X15172267Y35077310D01*
X15172267Y35077310D02*
X15172267Y34975710D01*
X15172267Y34975710D02*
X15138400Y34840243D01*
X15138400Y34840243D02*
X15104534Y34772510D01*
X15104534Y34772510D02*
X15036800Y34704777D01*
X15036800Y34704777D02*
X14935200Y34670910D01*
X14935200Y34670910D02*
X14765867Y34670910D01*
X50004133Y32868243D02*
X49936400Y32902110D01*
X49936400Y32902110D02*
X49834800Y32902110D01*
X49834800Y32902110D02*
X49733200Y32868243D01*
X49733200Y32868243D02*
X49665467Y32800510D01*
X49665467Y32800510D02*
X49631600Y32732777D01*
X49631600Y32732777D02*
X49597733Y32597310D01*
X49597733Y32597310D02*
X49597733Y32495710D01*
X49597733Y32495710D02*
X49631600Y32360243D01*
X49631600Y32360243D02*
X49665467Y32292510D01*
X49665467Y32292510D02*
X49733200Y32224777D01*
X49733200Y32224777D02*
X49834800Y32190910D01*
X49834800Y32190910D02*
X49902533Y32190910D01*
X49902533Y32190910D02*
X50004133Y32224777D01*
X50004133Y32224777D02*
X50038000Y32258643D01*
X50038000Y32258643D02*
X50038000Y32495710D01*
X50038000Y32495710D02*
X49902533Y32495710D01*
X50342800Y32190910D02*
X50342800Y32902110D01*
X50342800Y32902110D02*
X50749200Y32190910D01*
X50749200Y32190910D02*
X50749200Y32902110D01*
X51087867Y32190910D02*
X51087867Y32902110D01*
X51087867Y32902110D02*
X51257200Y32902110D01*
X51257200Y32902110D02*
X51358800Y32868243D01*
X51358800Y32868243D02*
X51426534Y32800510D01*
X51426534Y32800510D02*
X51460400Y32732777D01*
X51460400Y32732777D02*
X51494267Y32597310D01*
X51494267Y32597310D02*
X51494267Y32495710D01*
X51494267Y32495710D02*
X51460400Y32360243D01*
X51460400Y32360243D02*
X51426534Y32292510D01*
X51426534Y32292510D02*
X51358800Y32224777D01*
X51358800Y32224777D02*
X51257200Y32190910D01*
X51257200Y32190910D02*
X51087867Y32190910D01*
X13292666Y37204777D02*
X13394266Y37170910D01*
X13394266Y37170910D02*
X13563600Y37170910D01*
X13563600Y37170910D02*
X13631333Y37204777D01*
X13631333Y37204777D02*
X13665200Y37238643D01*
X13665200Y37238643D02*
X13699066Y37306377D01*
X13699066Y37306377D02*
X13699066Y37374110D01*
X13699066Y37374110D02*
X13665200Y37441843D01*
X13665200Y37441843D02*
X13631333Y37475710D01*
X13631333Y37475710D02*
X13563600Y37509577D01*
X13563600Y37509577D02*
X13428133Y37543443D01*
X13428133Y37543443D02*
X13360400Y37577310D01*
X13360400Y37577310D02*
X13326533Y37611177D01*
X13326533Y37611177D02*
X13292666Y37678910D01*
X13292666Y37678910D02*
X13292666Y37746643D01*
X13292666Y37746643D02*
X13326533Y37814377D01*
X13326533Y37814377D02*
X13360400Y37848243D01*
X13360400Y37848243D02*
X13428133Y37882110D01*
X13428133Y37882110D02*
X13597466Y37882110D01*
X13597466Y37882110D02*
X13699066Y37848243D01*
X14003866Y37170910D02*
X14003866Y37882110D01*
X14003866Y37882110D02*
X14410266Y37170910D01*
X14410266Y37170910D02*
X14410266Y37882110D01*
X14748933Y37170910D02*
X14748933Y37882110D01*
X14748933Y37882110D02*
X14918266Y37882110D01*
X14918266Y37882110D02*
X15019866Y37848243D01*
X15019866Y37848243D02*
X15087600Y37780510D01*
X15087600Y37780510D02*
X15121466Y37712777D01*
X15121466Y37712777D02*
X15155333Y37577310D01*
X15155333Y37577310D02*
X15155333Y37475710D01*
X15155333Y37475710D02*
X15121466Y37340243D01*
X15121466Y37340243D02*
X15087600Y37272510D01*
X15087600Y37272510D02*
X15019866Y37204777D01*
X15019866Y37204777D02*
X14918266Y37170910D01*
X14918266Y37170910D02*
X14748933Y37170910D01*
X9533466Y29690910D02*
X9533466Y30402110D01*
X9872133Y29690910D02*
X9872133Y30402110D01*
X9872133Y30402110D02*
X10278533Y29690910D01*
X10278533Y29690910D02*
X10278533Y30402110D01*
D11*
X26897105Y89969180D02*
X26897105Y90969180D01*
X26897105Y90969180D02*
X27135200Y90969180D01*
X27135200Y90969180D02*
X27278057Y90921561D01*
X27278057Y90921561D02*
X27373295Y90826323D01*
X27373295Y90826323D02*
X27420914Y90731085D01*
X27420914Y90731085D02*
X27468533Y90540609D01*
X27468533Y90540609D02*
X27468533Y90397752D01*
X27468533Y90397752D02*
X27420914Y90207276D01*
X27420914Y90207276D02*
X27373295Y90112038D01*
X27373295Y90112038D02*
X27278057Y90016800D01*
X27278057Y90016800D02*
X27135200Y89969180D01*
X27135200Y89969180D02*
X26897105Y89969180D01*
X27849486Y90873942D02*
X27897105Y90921561D01*
X27897105Y90921561D02*
X27992343Y90969180D01*
X27992343Y90969180D02*
X28230438Y90969180D01*
X28230438Y90969180D02*
X28325676Y90921561D01*
X28325676Y90921561D02*
X28373295Y90873942D01*
X28373295Y90873942D02*
X28420914Y90778704D01*
X28420914Y90778704D02*
X28420914Y90683466D01*
X28420914Y90683466D02*
X28373295Y90540609D01*
X28373295Y90540609D02*
X27801867Y89969180D01*
X27801867Y89969180D02*
X28420914Y89969180D01*
X16303666Y41566180D02*
X16303666Y40851895D01*
X16303666Y40851895D02*
X16256047Y40709038D01*
X16256047Y40709038D02*
X16160809Y40613800D01*
X16160809Y40613800D02*
X16017952Y40566180D01*
X16017952Y40566180D02*
X15922714Y40566180D01*
X17303666Y40566180D02*
X16732238Y40566180D01*
X17017952Y40566180D02*
X17017952Y41566180D01*
X17017952Y41566180D02*
X16922714Y41423323D01*
X16922714Y41423323D02*
X16827476Y41328085D01*
X16827476Y41328085D02*
X16732238Y41280466D01*
X26897105Y93525180D02*
X26897105Y94525180D01*
X26897105Y94525180D02*
X27135200Y94525180D01*
X27135200Y94525180D02*
X27278057Y94477561D01*
X27278057Y94477561D02*
X27373295Y94382323D01*
X27373295Y94382323D02*
X27420914Y94287085D01*
X27420914Y94287085D02*
X27468533Y94096609D01*
X27468533Y94096609D02*
X27468533Y93953752D01*
X27468533Y93953752D02*
X27420914Y93763276D01*
X27420914Y93763276D02*
X27373295Y93668038D01*
X27373295Y93668038D02*
X27278057Y93572800D01*
X27278057Y93572800D02*
X27135200Y93525180D01*
X27135200Y93525180D02*
X26897105Y93525180D01*
X28325676Y94525180D02*
X28135200Y94525180D01*
X28135200Y94525180D02*
X28039962Y94477561D01*
X28039962Y94477561D02*
X27992343Y94429942D01*
X27992343Y94429942D02*
X27897105Y94287085D01*
X27897105Y94287085D02*
X27849486Y94096609D01*
X27849486Y94096609D02*
X27849486Y93715657D01*
X27849486Y93715657D02*
X27897105Y93620419D01*
X27897105Y93620419D02*
X27944724Y93572800D01*
X27944724Y93572800D02*
X28039962Y93525180D01*
X28039962Y93525180D02*
X28230438Y93525180D01*
X28230438Y93525180D02*
X28325676Y93572800D01*
X28325676Y93572800D02*
X28373295Y93620419D01*
X28373295Y93620419D02*
X28420914Y93715657D01*
X28420914Y93715657D02*
X28420914Y93953752D01*
X28420914Y93953752D02*
X28373295Y94048990D01*
X28373295Y94048990D02*
X28325676Y94096609D01*
X28325676Y94096609D02*
X28230438Y94144228D01*
X28230438Y94144228D02*
X28039962Y94144228D01*
X28039962Y94144228D02*
X27944724Y94096609D01*
X27944724Y94096609D02*
X27897105Y94048990D01*
X27897105Y94048990D02*
X27849486Y93953752D01*
X53503533Y76958019D02*
X53455914Y76910400D01*
X53455914Y76910400D02*
X53313057Y76862780D01*
X53313057Y76862780D02*
X53217819Y76862780D01*
X53217819Y76862780D02*
X53074962Y76910400D01*
X53074962Y76910400D02*
X52979724Y77005638D01*
X52979724Y77005638D02*
X52932105Y77100876D01*
X52932105Y77100876D02*
X52884486Y77291352D01*
X52884486Y77291352D02*
X52884486Y77434209D01*
X52884486Y77434209D02*
X52932105Y77624685D01*
X52932105Y77624685D02*
X52979724Y77719923D01*
X52979724Y77719923D02*
X53074962Y77815161D01*
X53074962Y77815161D02*
X53217819Y77862780D01*
X53217819Y77862780D02*
X53313057Y77862780D01*
X53313057Y77862780D02*
X53455914Y77815161D01*
X53455914Y77815161D02*
X53503533Y77767542D01*
X54074962Y77434209D02*
X53979724Y77481828D01*
X53979724Y77481828D02*
X53932105Y77529447D01*
X53932105Y77529447D02*
X53884486Y77624685D01*
X53884486Y77624685D02*
X53884486Y77672304D01*
X53884486Y77672304D02*
X53932105Y77767542D01*
X53932105Y77767542D02*
X53979724Y77815161D01*
X53979724Y77815161D02*
X54074962Y77862780D01*
X54074962Y77862780D02*
X54265438Y77862780D01*
X54265438Y77862780D02*
X54360676Y77815161D01*
X54360676Y77815161D02*
X54408295Y77767542D01*
X54408295Y77767542D02*
X54455914Y77672304D01*
X54455914Y77672304D02*
X54455914Y77624685D01*
X54455914Y77624685D02*
X54408295Y77529447D01*
X54408295Y77529447D02*
X54360676Y77481828D01*
X54360676Y77481828D02*
X54265438Y77434209D01*
X54265438Y77434209D02*
X54074962Y77434209D01*
X54074962Y77434209D02*
X53979724Y77386590D01*
X53979724Y77386590D02*
X53932105Y77338971D01*
X53932105Y77338971D02*
X53884486Y77243733D01*
X53884486Y77243733D02*
X53884486Y77053257D01*
X53884486Y77053257D02*
X53932105Y76958019D01*
X53932105Y76958019D02*
X53979724Y76910400D01*
X53979724Y76910400D02*
X54074962Y76862780D01*
X54074962Y76862780D02*
X54265438Y76862780D01*
X54265438Y76862780D02*
X54360676Y76910400D01*
X54360676Y76910400D02*
X54408295Y76958019D01*
X54408295Y76958019D02*
X54455914Y77053257D01*
X54455914Y77053257D02*
X54455914Y77243733D01*
X54455914Y77243733D02*
X54408295Y77338971D01*
X54408295Y77338971D02*
X54360676Y77386590D01*
X54360676Y77386590D02*
X54265438Y77434209D01*
X29202142Y105437780D02*
X28868809Y105913971D01*
X28630714Y105437780D02*
X28630714Y106437780D01*
X28630714Y106437780D02*
X29011666Y106437780D01*
X29011666Y106437780D02*
X29106904Y106390161D01*
X29106904Y106390161D02*
X29154523Y106342542D01*
X29154523Y106342542D02*
X29202142Y106247304D01*
X29202142Y106247304D02*
X29202142Y106104447D01*
X29202142Y106104447D02*
X29154523Y106009209D01*
X29154523Y106009209D02*
X29106904Y105961590D01*
X29106904Y105961590D02*
X29011666Y105913971D01*
X29011666Y105913971D02*
X28630714Y105913971D01*
X30154523Y105437780D02*
X29583095Y105437780D01*
X29868809Y105437780D02*
X29868809Y106437780D01*
X29868809Y106437780D02*
X29773571Y106294923D01*
X29773571Y106294923D02*
X29678333Y106199685D01*
X29678333Y106199685D02*
X29583095Y106152066D01*
X30725952Y106009209D02*
X30630714Y106056828D01*
X30630714Y106056828D02*
X30583095Y106104447D01*
X30583095Y106104447D02*
X30535476Y106199685D01*
X30535476Y106199685D02*
X30535476Y106247304D01*
X30535476Y106247304D02*
X30583095Y106342542D01*
X30583095Y106342542D02*
X30630714Y106390161D01*
X30630714Y106390161D02*
X30725952Y106437780D01*
X30725952Y106437780D02*
X30916428Y106437780D01*
X30916428Y106437780D02*
X31011666Y106390161D01*
X31011666Y106390161D02*
X31059285Y106342542D01*
X31059285Y106342542D02*
X31106904Y106247304D01*
X31106904Y106247304D02*
X31106904Y106199685D01*
X31106904Y106199685D02*
X31059285Y106104447D01*
X31059285Y106104447D02*
X31011666Y106056828D01*
X31011666Y106056828D02*
X30916428Y106009209D01*
X30916428Y106009209D02*
X30725952Y106009209D01*
X30725952Y106009209D02*
X30630714Y105961590D01*
X30630714Y105961590D02*
X30583095Y105913971D01*
X30583095Y105913971D02*
X30535476Y105818733D01*
X30535476Y105818733D02*
X30535476Y105628257D01*
X30535476Y105628257D02*
X30583095Y105533019D01*
X30583095Y105533019D02*
X30630714Y105485400D01*
X30630714Y105485400D02*
X30725952Y105437780D01*
X30725952Y105437780D02*
X30916428Y105437780D01*
X30916428Y105437780D02*
X31011666Y105485400D01*
X31011666Y105485400D02*
X31059285Y105533019D01*
X31059285Y105533019D02*
X31106904Y105628257D01*
X31106904Y105628257D02*
X31106904Y105818733D01*
X31106904Y105818733D02*
X31059285Y105913971D01*
X31059285Y105913971D02*
X31011666Y105961590D01*
X31011666Y105961590D02*
X30916428Y106009209D01*
X29583142Y43258580D02*
X29249809Y43734771D01*
X29011714Y43258580D02*
X29011714Y44258580D01*
X29011714Y44258580D02*
X29392666Y44258580D01*
X29392666Y44258580D02*
X29487904Y44210961D01*
X29487904Y44210961D02*
X29535523Y44163342D01*
X29535523Y44163342D02*
X29583142Y44068104D01*
X29583142Y44068104D02*
X29583142Y43925247D01*
X29583142Y43925247D02*
X29535523Y43830009D01*
X29535523Y43830009D02*
X29487904Y43782390D01*
X29487904Y43782390D02*
X29392666Y43734771D01*
X29392666Y43734771D02*
X29011714Y43734771D01*
X30535523Y43258580D02*
X29964095Y43258580D01*
X30249809Y43258580D02*
X30249809Y44258580D01*
X30249809Y44258580D02*
X30154571Y44115723D01*
X30154571Y44115723D02*
X30059333Y44020485D01*
X30059333Y44020485D02*
X29964095Y43972866D01*
X31011714Y43258580D02*
X31202190Y43258580D01*
X31202190Y43258580D02*
X31297428Y43306200D01*
X31297428Y43306200D02*
X31345047Y43353819D01*
X31345047Y43353819D02*
X31440285Y43496676D01*
X31440285Y43496676D02*
X31487904Y43687152D01*
X31487904Y43687152D02*
X31487904Y44068104D01*
X31487904Y44068104D02*
X31440285Y44163342D01*
X31440285Y44163342D02*
X31392666Y44210961D01*
X31392666Y44210961D02*
X31297428Y44258580D01*
X31297428Y44258580D02*
X31106952Y44258580D01*
X31106952Y44258580D02*
X31011714Y44210961D01*
X31011714Y44210961D02*
X30964095Y44163342D01*
X30964095Y44163342D02*
X30916476Y44068104D01*
X30916476Y44068104D02*
X30916476Y43830009D01*
X30916476Y43830009D02*
X30964095Y43734771D01*
X30964095Y43734771D02*
X31011714Y43687152D01*
X31011714Y43687152D02*
X31106952Y43639533D01*
X31106952Y43639533D02*
X31297428Y43639533D01*
X31297428Y43639533D02*
X31392666Y43687152D01*
X31392666Y43687152D02*
X31440285Y43734771D01*
X31440285Y43734771D02*
X31487904Y43830009D01*
X8215333Y82368219D02*
X8167714Y82320600D01*
X8167714Y82320600D02*
X8024857Y82272980D01*
X8024857Y82272980D02*
X7929619Y82272980D01*
X7929619Y82272980D02*
X7786762Y82320600D01*
X7786762Y82320600D02*
X7691524Y82415838D01*
X7691524Y82415838D02*
X7643905Y82511076D01*
X7643905Y82511076D02*
X7596286Y82701552D01*
X7596286Y82701552D02*
X7596286Y82844409D01*
X7596286Y82844409D02*
X7643905Y83034885D01*
X7643905Y83034885D02*
X7691524Y83130123D01*
X7691524Y83130123D02*
X7786762Y83225361D01*
X7786762Y83225361D02*
X7929619Y83272980D01*
X7929619Y83272980D02*
X8024857Y83272980D01*
X8024857Y83272980D02*
X8167714Y83225361D01*
X8167714Y83225361D02*
X8215333Y83177742D01*
X9167714Y82272980D02*
X8596286Y82272980D01*
X8882000Y82272980D02*
X8882000Y83272980D01*
X8882000Y83272980D02*
X8786762Y83130123D01*
X8786762Y83130123D02*
X8691524Y83034885D01*
X8691524Y83034885D02*
X8596286Y82987266D01*
X7636819Y71994733D02*
X7160628Y71661400D01*
X7636819Y71423305D02*
X6636819Y71423305D01*
X6636819Y71423305D02*
X6636819Y71804257D01*
X6636819Y71804257D02*
X6684438Y71899495D01*
X6684438Y71899495D02*
X6732057Y71947114D01*
X6732057Y71947114D02*
X6827295Y71994733D01*
X6827295Y71994733D02*
X6970152Y71994733D01*
X6970152Y71994733D02*
X7065390Y71947114D01*
X7065390Y71947114D02*
X7113009Y71899495D01*
X7113009Y71899495D02*
X7160628Y71804257D01*
X7160628Y71804257D02*
X7160628Y71423305D01*
X7636819Y72947114D02*
X7636819Y72375686D01*
X7636819Y72661400D02*
X6636819Y72661400D01*
X6636819Y72661400D02*
X6779676Y72566162D01*
X6779676Y72566162D02*
X6874914Y72470924D01*
X6874914Y72470924D02*
X6922533Y72375686D01*
X13104019Y71969333D02*
X12627828Y71636000D01*
X13104019Y71397905D02*
X12104019Y71397905D01*
X12104019Y71397905D02*
X12104019Y71778857D01*
X12104019Y71778857D02*
X12151638Y71874095D01*
X12151638Y71874095D02*
X12199257Y71921714D01*
X12199257Y71921714D02*
X12294495Y71969333D01*
X12294495Y71969333D02*
X12437352Y71969333D01*
X12437352Y71969333D02*
X12532590Y71921714D01*
X12532590Y71921714D02*
X12580209Y71874095D01*
X12580209Y71874095D02*
X12627828Y71778857D01*
X12627828Y71778857D02*
X12627828Y71397905D01*
X12199257Y72350286D02*
X12151638Y72397905D01*
X12151638Y72397905D02*
X12104019Y72493143D01*
X12104019Y72493143D02*
X12104019Y72731238D01*
X12104019Y72731238D02*
X12151638Y72826476D01*
X12151638Y72826476D02*
X12199257Y72874095D01*
X12199257Y72874095D02*
X12294495Y72921714D01*
X12294495Y72921714D02*
X12389733Y72921714D01*
X12389733Y72921714D02*
X12532590Y72874095D01*
X12532590Y72874095D02*
X13104019Y72302667D01*
X13104019Y72302667D02*
X13104019Y72921714D01*
X21412295Y82750180D02*
X21412295Y81940657D01*
X21412295Y81940657D02*
X21459914Y81845419D01*
X21459914Y81845419D02*
X21507533Y81797800D01*
X21507533Y81797800D02*
X21602771Y81750180D01*
X21602771Y81750180D02*
X21793247Y81750180D01*
X21793247Y81750180D02*
X21888485Y81797800D01*
X21888485Y81797800D02*
X21936104Y81845419D01*
X21936104Y81845419D02*
X21983723Y81940657D01*
X21983723Y81940657D02*
X21983723Y82750180D01*
X22983723Y81750180D02*
X22412295Y81750180D01*
X22698009Y81750180D02*
X22698009Y82750180D01*
X22698009Y82750180D02*
X22602771Y82607323D01*
X22602771Y82607323D02*
X22507533Y82512085D01*
X22507533Y82512085D02*
X22412295Y82464466D01*
X31696819Y75855533D02*
X31220628Y75522200D01*
X31696819Y75284105D02*
X30696819Y75284105D01*
X30696819Y75284105D02*
X30696819Y75665057D01*
X30696819Y75665057D02*
X30744438Y75760295D01*
X30744438Y75760295D02*
X30792057Y75807914D01*
X30792057Y75807914D02*
X30887295Y75855533D01*
X30887295Y75855533D02*
X31030152Y75855533D01*
X31030152Y75855533D02*
X31125390Y75807914D01*
X31125390Y75807914D02*
X31173009Y75760295D01*
X31173009Y75760295D02*
X31220628Y75665057D01*
X31220628Y75665057D02*
X31220628Y75284105D01*
X30696819Y76760295D02*
X30696819Y76284105D01*
X30696819Y76284105D02*
X31173009Y76236486D01*
X31173009Y76236486D02*
X31125390Y76284105D01*
X31125390Y76284105D02*
X31077771Y76379343D01*
X31077771Y76379343D02*
X31077771Y76617438D01*
X31077771Y76617438D02*
X31125390Y76712676D01*
X31125390Y76712676D02*
X31173009Y76760295D01*
X31173009Y76760295D02*
X31268247Y76807914D01*
X31268247Y76807914D02*
X31506342Y76807914D01*
X31506342Y76807914D02*
X31601580Y76760295D01*
X31601580Y76760295D02*
X31649200Y76712676D01*
X31649200Y76712676D02*
X31696819Y76617438D01*
X31696819Y76617438D02*
X31696819Y76379343D01*
X31696819Y76379343D02*
X31649200Y76284105D01*
X31649200Y76284105D02*
X31601580Y76236486D01*
X9104333Y92401219D02*
X9056714Y92353600D01*
X9056714Y92353600D02*
X8913857Y92305980D01*
X8913857Y92305980D02*
X8818619Y92305980D01*
X8818619Y92305980D02*
X8675762Y92353600D01*
X8675762Y92353600D02*
X8580524Y92448838D01*
X8580524Y92448838D02*
X8532905Y92544076D01*
X8532905Y92544076D02*
X8485286Y92734552D01*
X8485286Y92734552D02*
X8485286Y92877409D01*
X8485286Y92877409D02*
X8532905Y93067885D01*
X8532905Y93067885D02*
X8580524Y93163123D01*
X8580524Y93163123D02*
X8675762Y93258361D01*
X8675762Y93258361D02*
X8818619Y93305980D01*
X8818619Y93305980D02*
X8913857Y93305980D01*
X8913857Y93305980D02*
X9056714Y93258361D01*
X9056714Y93258361D02*
X9104333Y93210742D01*
X10009095Y93305980D02*
X9532905Y93305980D01*
X9532905Y93305980D02*
X9485286Y92829790D01*
X9485286Y92829790D02*
X9532905Y92877409D01*
X9532905Y92877409D02*
X9628143Y92925028D01*
X9628143Y92925028D02*
X9866238Y92925028D01*
X9866238Y92925028D02*
X9961476Y92877409D01*
X9961476Y92877409D02*
X10009095Y92829790D01*
X10009095Y92829790D02*
X10056714Y92734552D01*
X10056714Y92734552D02*
X10056714Y92496457D01*
X10056714Y92496457D02*
X10009095Y92401219D01*
X10009095Y92401219D02*
X9961476Y92353600D01*
X9961476Y92353600D02*
X9866238Y92305980D01*
X9866238Y92305980D02*
X9628143Y92305980D01*
X9628143Y92305980D02*
X9532905Y92353600D01*
X9532905Y92353600D02*
X9485286Y92401219D01*
X44067505Y104574180D02*
X44067505Y105574180D01*
X44067505Y105574180D02*
X44305600Y105574180D01*
X44305600Y105574180D02*
X44448457Y105526561D01*
X44448457Y105526561D02*
X44543695Y105431323D01*
X44543695Y105431323D02*
X44591314Y105336085D01*
X44591314Y105336085D02*
X44638933Y105145609D01*
X44638933Y105145609D02*
X44638933Y105002752D01*
X44638933Y105002752D02*
X44591314Y104812276D01*
X44591314Y104812276D02*
X44543695Y104717038D01*
X44543695Y104717038D02*
X44448457Y104621800D01*
X44448457Y104621800D02*
X44305600Y104574180D01*
X44305600Y104574180D02*
X44067505Y104574180D01*
X45496076Y105240847D02*
X45496076Y104574180D01*
X45257981Y105621800D02*
X45019886Y104907514D01*
X45019886Y104907514D02*
X45638933Y104907514D01*
X26897105Y86413180D02*
X26897105Y87413180D01*
X26897105Y87413180D02*
X27135200Y87413180D01*
X27135200Y87413180D02*
X27278057Y87365561D01*
X27278057Y87365561D02*
X27373295Y87270323D01*
X27373295Y87270323D02*
X27420914Y87175085D01*
X27420914Y87175085D02*
X27468533Y86984609D01*
X27468533Y86984609D02*
X27468533Y86841752D01*
X27468533Y86841752D02*
X27420914Y86651276D01*
X27420914Y86651276D02*
X27373295Y86556038D01*
X27373295Y86556038D02*
X27278057Y86460800D01*
X27278057Y86460800D02*
X27135200Y86413180D01*
X27135200Y86413180D02*
X26897105Y86413180D01*
X28420914Y86413180D02*
X27849486Y86413180D01*
X28135200Y86413180D02*
X28135200Y87413180D01*
X28135200Y87413180D02*
X28039962Y87270323D01*
X28039962Y87270323D02*
X27944724Y87175085D01*
X27944724Y87175085D02*
X27849486Y87127466D01*
X29202142Y109450980D02*
X28868809Y109927171D01*
X28630714Y109450980D02*
X28630714Y110450980D01*
X28630714Y110450980D02*
X29011666Y110450980D01*
X29011666Y110450980D02*
X29106904Y110403361D01*
X29106904Y110403361D02*
X29154523Y110355742D01*
X29154523Y110355742D02*
X29202142Y110260504D01*
X29202142Y110260504D02*
X29202142Y110117647D01*
X29202142Y110117647D02*
X29154523Y110022409D01*
X29154523Y110022409D02*
X29106904Y109974790D01*
X29106904Y109974790D02*
X29011666Y109927171D01*
X29011666Y109927171D02*
X28630714Y109927171D01*
X29583095Y110355742D02*
X29630714Y110403361D01*
X29630714Y110403361D02*
X29725952Y110450980D01*
X29725952Y110450980D02*
X29964047Y110450980D01*
X29964047Y110450980D02*
X30059285Y110403361D01*
X30059285Y110403361D02*
X30106904Y110355742D01*
X30106904Y110355742D02*
X30154523Y110260504D01*
X30154523Y110260504D02*
X30154523Y110165266D01*
X30154523Y110165266D02*
X30106904Y110022409D01*
X30106904Y110022409D02*
X29535476Y109450980D01*
X29535476Y109450980D02*
X30154523Y109450980D01*
X30773571Y110450980D02*
X30868809Y110450980D01*
X30868809Y110450980D02*
X30964047Y110403361D01*
X30964047Y110403361D02*
X31011666Y110355742D01*
X31011666Y110355742D02*
X31059285Y110260504D01*
X31059285Y110260504D02*
X31106904Y110070028D01*
X31106904Y110070028D02*
X31106904Y109831933D01*
X31106904Y109831933D02*
X31059285Y109641457D01*
X31059285Y109641457D02*
X31011666Y109546219D01*
X31011666Y109546219D02*
X30964047Y109498600D01*
X30964047Y109498600D02*
X30868809Y109450980D01*
X30868809Y109450980D02*
X30773571Y109450980D01*
X30773571Y109450980D02*
X30678333Y109498600D01*
X30678333Y109498600D02*
X30630714Y109546219D01*
X30630714Y109546219D02*
X30583095Y109641457D01*
X30583095Y109641457D02*
X30535476Y109831933D01*
X30535476Y109831933D02*
X30535476Y110070028D01*
X30535476Y110070028D02*
X30583095Y110260504D01*
X30583095Y110260504D02*
X30630714Y110355742D01*
X30630714Y110355742D02*
X30678333Y110403361D01*
X30678333Y110403361D02*
X30773571Y110450980D01*
X44467542Y109730380D02*
X44134209Y110206571D01*
X43896114Y109730380D02*
X43896114Y110730380D01*
X43896114Y110730380D02*
X44277066Y110730380D01*
X44277066Y110730380D02*
X44372304Y110682761D01*
X44372304Y110682761D02*
X44419923Y110635142D01*
X44419923Y110635142D02*
X44467542Y110539904D01*
X44467542Y110539904D02*
X44467542Y110397047D01*
X44467542Y110397047D02*
X44419923Y110301809D01*
X44419923Y110301809D02*
X44372304Y110254190D01*
X44372304Y110254190D02*
X44277066Y110206571D01*
X44277066Y110206571D02*
X43896114Y110206571D01*
X45419923Y109730380D02*
X44848495Y109730380D01*
X45134209Y109730380D02*
X45134209Y110730380D01*
X45134209Y110730380D02*
X45038971Y110587523D01*
X45038971Y110587523D02*
X44943733Y110492285D01*
X44943733Y110492285D02*
X44848495Y110444666D01*
X45753257Y110730380D02*
X46419923Y110730380D01*
X46419923Y110730380D02*
X45991352Y109730380D01*
X51319133Y68277580D02*
X50985800Y68753771D01*
X50747705Y68277580D02*
X50747705Y69277580D01*
X50747705Y69277580D02*
X51128657Y69277580D01*
X51128657Y69277580D02*
X51223895Y69229961D01*
X51223895Y69229961D02*
X51271514Y69182342D01*
X51271514Y69182342D02*
X51319133Y69087104D01*
X51319133Y69087104D02*
X51319133Y68944247D01*
X51319133Y68944247D02*
X51271514Y68849009D01*
X51271514Y68849009D02*
X51223895Y68801390D01*
X51223895Y68801390D02*
X51128657Y68753771D01*
X51128657Y68753771D02*
X50747705Y68753771D01*
X51795324Y68277580D02*
X51985800Y68277580D01*
X51985800Y68277580D02*
X52081038Y68325200D01*
X52081038Y68325200D02*
X52128657Y68372819D01*
X52128657Y68372819D02*
X52223895Y68515676D01*
X52223895Y68515676D02*
X52271514Y68706152D01*
X52271514Y68706152D02*
X52271514Y69087104D01*
X52271514Y69087104D02*
X52223895Y69182342D01*
X52223895Y69182342D02*
X52176276Y69229961D01*
X52176276Y69229961D02*
X52081038Y69277580D01*
X52081038Y69277580D02*
X51890562Y69277580D01*
X51890562Y69277580D02*
X51795324Y69229961D01*
X51795324Y69229961D02*
X51747705Y69182342D01*
X51747705Y69182342D02*
X51700086Y69087104D01*
X51700086Y69087104D02*
X51700086Y68849009D01*
X51700086Y68849009D02*
X51747705Y68753771D01*
X51747705Y68753771D02*
X51795324Y68706152D01*
X51795324Y68706152D02*
X51890562Y68658533D01*
X51890562Y68658533D02*
X52081038Y68658533D01*
X52081038Y68658533D02*
X52176276Y68706152D01*
X52176276Y68706152D02*
X52223895Y68753771D01*
X52223895Y68753771D02*
X52271514Y68849009D01*
X18697563Y106789847D02*
X18649944Y106742228D01*
X18649944Y106742228D02*
X18507087Y106694608D01*
X18507087Y106694608D02*
X18411849Y106694608D01*
X18411849Y106694608D02*
X18268992Y106742228D01*
X18268992Y106742228D02*
X18173754Y106837466D01*
X18173754Y106837466D02*
X18126135Y106932704D01*
X18126135Y106932704D02*
X18078516Y107123180D01*
X18078516Y107123180D02*
X18078516Y107266037D01*
X18078516Y107266037D02*
X18126135Y107456513D01*
X18126135Y107456513D02*
X18173754Y107551751D01*
X18173754Y107551751D02*
X18268992Y107646989D01*
X18268992Y107646989D02*
X18411849Y107694608D01*
X18411849Y107694608D02*
X18507087Y107694608D01*
X18507087Y107694608D02*
X18649944Y107646989D01*
X18649944Y107646989D02*
X18697563Y107599370D01*
X19649944Y106694608D02*
X19078516Y106694608D01*
X19364230Y106694608D02*
X19364230Y107694608D01*
X19364230Y107694608D02*
X19268992Y107551751D01*
X19268992Y107551751D02*
X19173754Y107456513D01*
X19173754Y107456513D02*
X19078516Y107408894D01*
X20602325Y106694608D02*
X20030897Y106694608D01*
X20316611Y106694608D02*
X20316611Y107694608D01*
X20316611Y107694608D02*
X20221373Y107551751D01*
X20221373Y107551751D02*
X20126135Y107456513D01*
X20126135Y107456513D02*
X20030897Y107408894D01*
X16728200Y106107773D02*
X16728200Y104964916D01*
X16156771Y105536344D02*
X17299628Y105536344D01*
X43608666Y41439180D02*
X43608666Y40724895D01*
X43608666Y40724895D02*
X43561047Y40582038D01*
X43561047Y40582038D02*
X43465809Y40486800D01*
X43465809Y40486800D02*
X43322952Y40439180D01*
X43322952Y40439180D02*
X43227714Y40439180D01*
X44037238Y41343942D02*
X44084857Y41391561D01*
X44084857Y41391561D02*
X44180095Y41439180D01*
X44180095Y41439180D02*
X44418190Y41439180D01*
X44418190Y41439180D02*
X44513428Y41391561D01*
X44513428Y41391561D02*
X44561047Y41343942D01*
X44561047Y41343942D02*
X44608666Y41248704D01*
X44608666Y41248704D02*
X44608666Y41153466D01*
X44608666Y41153466D02*
X44561047Y41010609D01*
X44561047Y41010609D02*
X43989619Y40439180D01*
X43989619Y40439180D02*
X44608666Y40439180D01*
X9809333Y62581619D02*
X9761714Y62534000D01*
X9761714Y62534000D02*
X9618857Y62486380D01*
X9618857Y62486380D02*
X9523619Y62486380D01*
X9523619Y62486380D02*
X9380762Y62534000D01*
X9380762Y62534000D02*
X9285524Y62629238D01*
X9285524Y62629238D02*
X9237905Y62724476D01*
X9237905Y62724476D02*
X9190286Y62914952D01*
X9190286Y62914952D02*
X9190286Y63057809D01*
X9190286Y63057809D02*
X9237905Y63248285D01*
X9237905Y63248285D02*
X9285524Y63343523D01*
X9285524Y63343523D02*
X9380762Y63438761D01*
X9380762Y63438761D02*
X9523619Y63486380D01*
X9523619Y63486380D02*
X9618857Y63486380D01*
X9618857Y63486380D02*
X9761714Y63438761D01*
X9761714Y63438761D02*
X9809333Y63391142D01*
X10190286Y63391142D02*
X10237905Y63438761D01*
X10237905Y63438761D02*
X10333143Y63486380D01*
X10333143Y63486380D02*
X10571238Y63486380D01*
X10571238Y63486380D02*
X10666476Y63438761D01*
X10666476Y63438761D02*
X10714095Y63391142D01*
X10714095Y63391142D02*
X10761714Y63295904D01*
X10761714Y63295904D02*
X10761714Y63200666D01*
X10761714Y63200666D02*
X10714095Y63057809D01*
X10714095Y63057809D02*
X10142667Y62486380D01*
X10142667Y62486380D02*
X10761714Y62486380D01*
X9783933Y47424180D02*
X9450600Y47900371D01*
X9212505Y47424180D02*
X9212505Y48424180D01*
X9212505Y48424180D02*
X9593457Y48424180D01*
X9593457Y48424180D02*
X9688695Y48376561D01*
X9688695Y48376561D02*
X9736314Y48328942D01*
X9736314Y48328942D02*
X9783933Y48233704D01*
X9783933Y48233704D02*
X9783933Y48090847D01*
X9783933Y48090847D02*
X9736314Y47995609D01*
X9736314Y47995609D02*
X9688695Y47947990D01*
X9688695Y47947990D02*
X9593457Y47900371D01*
X9593457Y47900371D02*
X9212505Y47900371D01*
X10355362Y47995609D02*
X10260124Y48043228D01*
X10260124Y48043228D02*
X10212505Y48090847D01*
X10212505Y48090847D02*
X10164886Y48186085D01*
X10164886Y48186085D02*
X10164886Y48233704D01*
X10164886Y48233704D02*
X10212505Y48328942D01*
X10212505Y48328942D02*
X10260124Y48376561D01*
X10260124Y48376561D02*
X10355362Y48424180D01*
X10355362Y48424180D02*
X10545838Y48424180D01*
X10545838Y48424180D02*
X10641076Y48376561D01*
X10641076Y48376561D02*
X10688695Y48328942D01*
X10688695Y48328942D02*
X10736314Y48233704D01*
X10736314Y48233704D02*
X10736314Y48186085D01*
X10736314Y48186085D02*
X10688695Y48090847D01*
X10688695Y48090847D02*
X10641076Y48043228D01*
X10641076Y48043228D02*
X10545838Y47995609D01*
X10545838Y47995609D02*
X10355362Y47995609D01*
X10355362Y47995609D02*
X10260124Y47947990D01*
X10260124Y47947990D02*
X10212505Y47900371D01*
X10212505Y47900371D02*
X10164886Y47805133D01*
X10164886Y47805133D02*
X10164886Y47614657D01*
X10164886Y47614657D02*
X10212505Y47519419D01*
X10212505Y47519419D02*
X10260124Y47471800D01*
X10260124Y47471800D02*
X10355362Y47424180D01*
X10355362Y47424180D02*
X10545838Y47424180D01*
X10545838Y47424180D02*
X10641076Y47471800D01*
X10641076Y47471800D02*
X10688695Y47519419D01*
X10688695Y47519419D02*
X10736314Y47614657D01*
X10736314Y47614657D02*
X10736314Y47805133D01*
X10736314Y47805133D02*
X10688695Y47900371D01*
X10688695Y47900371D02*
X10641076Y47947990D01*
X10641076Y47947990D02*
X10545838Y47995609D01*
X37304742Y101494419D02*
X37257123Y101446800D01*
X37257123Y101446800D02*
X37114266Y101399180D01*
X37114266Y101399180D02*
X37019028Y101399180D01*
X37019028Y101399180D02*
X36876171Y101446800D01*
X36876171Y101446800D02*
X36780933Y101542038D01*
X36780933Y101542038D02*
X36733314Y101637276D01*
X36733314Y101637276D02*
X36685695Y101827752D01*
X36685695Y101827752D02*
X36685695Y101970609D01*
X36685695Y101970609D02*
X36733314Y102161085D01*
X36733314Y102161085D02*
X36780933Y102256323D01*
X36780933Y102256323D02*
X36876171Y102351561D01*
X36876171Y102351561D02*
X37019028Y102399180D01*
X37019028Y102399180D02*
X37114266Y102399180D01*
X37114266Y102399180D02*
X37257123Y102351561D01*
X37257123Y102351561D02*
X37304742Y102303942D01*
X38257123Y101399180D02*
X37685695Y101399180D01*
X37971409Y101399180D02*
X37971409Y102399180D01*
X37971409Y102399180D02*
X37876171Y102256323D01*
X37876171Y102256323D02*
X37780933Y102161085D01*
X37780933Y102161085D02*
X37685695Y102113466D01*
X38876171Y102399180D02*
X38971409Y102399180D01*
X38971409Y102399180D02*
X39066647Y102351561D01*
X39066647Y102351561D02*
X39114266Y102303942D01*
X39114266Y102303942D02*
X39161885Y102208704D01*
X39161885Y102208704D02*
X39209504Y102018228D01*
X39209504Y102018228D02*
X39209504Y101780133D01*
X39209504Y101780133D02*
X39161885Y101589657D01*
X39161885Y101589657D02*
X39114266Y101494419D01*
X39114266Y101494419D02*
X39066647Y101446800D01*
X39066647Y101446800D02*
X38971409Y101399180D01*
X38971409Y101399180D02*
X38876171Y101399180D01*
X38876171Y101399180D02*
X38780933Y101446800D01*
X38780933Y101446800D02*
X38733314Y101494419D01*
X38733314Y101494419D02*
X38685695Y101589657D01*
X38685695Y101589657D02*
X38638076Y101780133D01*
X38638076Y101780133D02*
X38638076Y102018228D01*
X38638076Y102018228D02*
X38685695Y102208704D01*
X38685695Y102208704D02*
X38733314Y102303942D01*
X38733314Y102303942D02*
X38780933Y102351561D01*
X38780933Y102351561D02*
X38876171Y102399180D01*
X35085400Y100748373D02*
X35085400Y99605516D01*
X34513971Y100176944D02*
X35656828Y100176944D01*
X32726333Y55545819D02*
X32678714Y55498200D01*
X32678714Y55498200D02*
X32535857Y55450580D01*
X32535857Y55450580D02*
X32440619Y55450580D01*
X32440619Y55450580D02*
X32297762Y55498200D01*
X32297762Y55498200D02*
X32202524Y55593438D01*
X32202524Y55593438D02*
X32154905Y55688676D01*
X32154905Y55688676D02*
X32107286Y55879152D01*
X32107286Y55879152D02*
X32107286Y56022009D01*
X32107286Y56022009D02*
X32154905Y56212485D01*
X32154905Y56212485D02*
X32202524Y56307723D01*
X32202524Y56307723D02*
X32297762Y56402961D01*
X32297762Y56402961D02*
X32440619Y56450580D01*
X32440619Y56450580D02*
X32535857Y56450580D01*
X32535857Y56450580D02*
X32678714Y56402961D01*
X32678714Y56402961D02*
X32726333Y56355342D01*
X33583476Y56450580D02*
X33393000Y56450580D01*
X33393000Y56450580D02*
X33297762Y56402961D01*
X33297762Y56402961D02*
X33250143Y56355342D01*
X33250143Y56355342D02*
X33154905Y56212485D01*
X33154905Y56212485D02*
X33107286Y56022009D01*
X33107286Y56022009D02*
X33107286Y55641057D01*
X33107286Y55641057D02*
X33154905Y55545819D01*
X33154905Y55545819D02*
X33202524Y55498200D01*
X33202524Y55498200D02*
X33297762Y55450580D01*
X33297762Y55450580D02*
X33488238Y55450580D01*
X33488238Y55450580D02*
X33583476Y55498200D01*
X33583476Y55498200D02*
X33631095Y55545819D01*
X33631095Y55545819D02*
X33678714Y55641057D01*
X33678714Y55641057D02*
X33678714Y55879152D01*
X33678714Y55879152D02*
X33631095Y55974390D01*
X33631095Y55974390D02*
X33583476Y56022009D01*
X33583476Y56022009D02*
X33488238Y56069628D01*
X33488238Y56069628D02*
X33297762Y56069628D01*
X33297762Y56069628D02*
X33202524Y56022009D01*
X33202524Y56022009D02*
X33154905Y55974390D01*
X33154905Y55974390D02*
X33107286Y55879152D01*
X52549466Y38949980D02*
X52549466Y38235695D01*
X52549466Y38235695D02*
X52501847Y38092838D01*
X52501847Y38092838D02*
X52406609Y37997600D01*
X52406609Y37997600D02*
X52263752Y37949980D01*
X52263752Y37949980D02*
X52168514Y37949980D01*
X53501847Y38949980D02*
X53025657Y38949980D01*
X53025657Y38949980D02*
X52978038Y38473790D01*
X52978038Y38473790D02*
X53025657Y38521409D01*
X53025657Y38521409D02*
X53120895Y38569028D01*
X53120895Y38569028D02*
X53358990Y38569028D01*
X53358990Y38569028D02*
X53454228Y38521409D01*
X53454228Y38521409D02*
X53501847Y38473790D01*
X53501847Y38473790D02*
X53549466Y38378552D01*
X53549466Y38378552D02*
X53549466Y38140457D01*
X53549466Y38140457D02*
X53501847Y38045219D01*
X53501847Y38045219D02*
X53454228Y37997600D01*
X53454228Y37997600D02*
X53358990Y37949980D01*
X53358990Y37949980D02*
X53120895Y37949980D01*
X53120895Y37949980D02*
X53025657Y37997600D01*
X53025657Y37997600D02*
X52978038Y38045219D01*
X9104333Y96725580D02*
X8771000Y97201771D01*
X8532905Y96725580D02*
X8532905Y97725580D01*
X8532905Y97725580D02*
X8913857Y97725580D01*
X8913857Y97725580D02*
X9009095Y97677961D01*
X9009095Y97677961D02*
X9056714Y97630342D01*
X9056714Y97630342D02*
X9104333Y97535104D01*
X9104333Y97535104D02*
X9104333Y97392247D01*
X9104333Y97392247D02*
X9056714Y97297009D01*
X9056714Y97297009D02*
X9009095Y97249390D01*
X9009095Y97249390D02*
X8913857Y97201771D01*
X8913857Y97201771D02*
X8532905Y97201771D01*
X9437667Y97725580D02*
X10056714Y97725580D01*
X10056714Y97725580D02*
X9723381Y97344628D01*
X9723381Y97344628D02*
X9866238Y97344628D01*
X9866238Y97344628D02*
X9961476Y97297009D01*
X9961476Y97297009D02*
X10009095Y97249390D01*
X10009095Y97249390D02*
X10056714Y97154152D01*
X10056714Y97154152D02*
X10056714Y96916057D01*
X10056714Y96916057D02*
X10009095Y96820819D01*
X10009095Y96820819D02*
X9961476Y96773200D01*
X9961476Y96773200D02*
X9866238Y96725580D01*
X9866238Y96725580D02*
X9580524Y96725580D01*
X9580524Y96725580D02*
X9485286Y96773200D01*
X9485286Y96773200D02*
X9437667Y96820819D01*
X46657419Y77608133D02*
X46181228Y77274800D01*
X46657419Y77036705D02*
X45657419Y77036705D01*
X45657419Y77036705D02*
X45657419Y77417657D01*
X45657419Y77417657D02*
X45705038Y77512895D01*
X45705038Y77512895D02*
X45752657Y77560514D01*
X45752657Y77560514D02*
X45847895Y77608133D01*
X45847895Y77608133D02*
X45990752Y77608133D01*
X45990752Y77608133D02*
X46085990Y77560514D01*
X46085990Y77560514D02*
X46133609Y77512895D01*
X46133609Y77512895D02*
X46181228Y77417657D01*
X46181228Y77417657D02*
X46181228Y77036705D01*
X45657419Y77941467D02*
X45657419Y78608133D01*
X45657419Y78608133D02*
X46657419Y78179562D01*
X9752807Y57781019D02*
X9705188Y57733400D01*
X9705188Y57733400D02*
X9562331Y57685780D01*
X9562331Y57685780D02*
X9467093Y57685780D01*
X9467093Y57685780D02*
X9324236Y57733400D01*
X9324236Y57733400D02*
X9228998Y57828638D01*
X9228998Y57828638D02*
X9181379Y57923876D01*
X9181379Y57923876D02*
X9133760Y58114352D01*
X9133760Y58114352D02*
X9133760Y58257209D01*
X9133760Y58257209D02*
X9181379Y58447685D01*
X9181379Y58447685D02*
X9228998Y58542923D01*
X9228998Y58542923D02*
X9324236Y58638161D01*
X9324236Y58638161D02*
X9467093Y58685780D01*
X9467093Y58685780D02*
X9562331Y58685780D01*
X9562331Y58685780D02*
X9705188Y58638161D01*
X9705188Y58638161D02*
X9752807Y58590542D01*
X10086141Y58685780D02*
X10705188Y58685780D01*
X10705188Y58685780D02*
X10371855Y58304828D01*
X10371855Y58304828D02*
X10514712Y58304828D01*
X10514712Y58304828D02*
X10609950Y58257209D01*
X10609950Y58257209D02*
X10657569Y58209590D01*
X10657569Y58209590D02*
X10705188Y58114352D01*
X10705188Y58114352D02*
X10705188Y57876257D01*
X10705188Y57876257D02*
X10657569Y57781019D01*
X10657569Y57781019D02*
X10609950Y57733400D01*
X10609950Y57733400D02*
X10514712Y57685780D01*
X10514712Y57685780D02*
X10228998Y57685780D01*
X10228998Y57685780D02*
X10133760Y57733400D01*
X10133760Y57733400D02*
X10086141Y57781019D01*
X53554333Y82774619D02*
X53506714Y82727000D01*
X53506714Y82727000D02*
X53363857Y82679380D01*
X53363857Y82679380D02*
X53268619Y82679380D01*
X53268619Y82679380D02*
X53125762Y82727000D01*
X53125762Y82727000D02*
X53030524Y82822238D01*
X53030524Y82822238D02*
X52982905Y82917476D01*
X52982905Y82917476D02*
X52935286Y83107952D01*
X52935286Y83107952D02*
X52935286Y83250809D01*
X52935286Y83250809D02*
X52982905Y83441285D01*
X52982905Y83441285D02*
X53030524Y83536523D01*
X53030524Y83536523D02*
X53125762Y83631761D01*
X53125762Y83631761D02*
X53268619Y83679380D01*
X53268619Y83679380D02*
X53363857Y83679380D01*
X53363857Y83679380D02*
X53506714Y83631761D01*
X53506714Y83631761D02*
X53554333Y83584142D01*
X53887667Y83679380D02*
X54554333Y83679380D01*
X54554333Y83679380D02*
X54125762Y82679380D01*
X26897105Y97081180D02*
X26897105Y98081180D01*
X26897105Y98081180D02*
X27135200Y98081180D01*
X27135200Y98081180D02*
X27278057Y98033561D01*
X27278057Y98033561D02*
X27373295Y97938323D01*
X27373295Y97938323D02*
X27420914Y97843085D01*
X27420914Y97843085D02*
X27468533Y97652609D01*
X27468533Y97652609D02*
X27468533Y97509752D01*
X27468533Y97509752D02*
X27420914Y97319276D01*
X27420914Y97319276D02*
X27373295Y97224038D01*
X27373295Y97224038D02*
X27278057Y97128800D01*
X27278057Y97128800D02*
X27135200Y97081180D01*
X27135200Y97081180D02*
X26897105Y97081180D01*
X28373295Y98081180D02*
X27897105Y98081180D01*
X27897105Y98081180D02*
X27849486Y97604990D01*
X27849486Y97604990D02*
X27897105Y97652609D01*
X27897105Y97652609D02*
X27992343Y97700228D01*
X27992343Y97700228D02*
X28230438Y97700228D01*
X28230438Y97700228D02*
X28325676Y97652609D01*
X28325676Y97652609D02*
X28373295Y97604990D01*
X28373295Y97604990D02*
X28420914Y97509752D01*
X28420914Y97509752D02*
X28420914Y97271657D01*
X28420914Y97271657D02*
X28373295Y97176419D01*
X28373295Y97176419D02*
X28325676Y97128800D01*
X28325676Y97128800D02*
X28230438Y97081180D01*
X28230438Y97081180D02*
X27992343Y97081180D01*
X27992343Y97081180D02*
X27897105Y97128800D01*
X27897105Y97128800D02*
X27849486Y97176419D01*
X30237133Y64391380D02*
X29903800Y64867571D01*
X29665705Y64391380D02*
X29665705Y65391380D01*
X29665705Y65391380D02*
X30046657Y65391380D01*
X30046657Y65391380D02*
X30141895Y65343761D01*
X30141895Y65343761D02*
X30189514Y65296142D01*
X30189514Y65296142D02*
X30237133Y65200904D01*
X30237133Y65200904D02*
X30237133Y65058047D01*
X30237133Y65058047D02*
X30189514Y64962809D01*
X30189514Y64962809D02*
X30141895Y64915190D01*
X30141895Y64915190D02*
X30046657Y64867571D01*
X30046657Y64867571D02*
X29665705Y64867571D01*
X31094276Y65391380D02*
X30903800Y65391380D01*
X30903800Y65391380D02*
X30808562Y65343761D01*
X30808562Y65343761D02*
X30760943Y65296142D01*
X30760943Y65296142D02*
X30665705Y65153285D01*
X30665705Y65153285D02*
X30618086Y64962809D01*
X30618086Y64962809D02*
X30618086Y64581857D01*
X30618086Y64581857D02*
X30665705Y64486619D01*
X30665705Y64486619D02*
X30713324Y64439000D01*
X30713324Y64439000D02*
X30808562Y64391380D01*
X30808562Y64391380D02*
X30999038Y64391380D01*
X30999038Y64391380D02*
X31094276Y64439000D01*
X31094276Y64439000D02*
X31141895Y64486619D01*
X31141895Y64486619D02*
X31189514Y64581857D01*
X31189514Y64581857D02*
X31189514Y64819952D01*
X31189514Y64819952D02*
X31141895Y64915190D01*
X31141895Y64915190D02*
X31094276Y64962809D01*
X31094276Y64962809D02*
X30999038Y65010428D01*
X30999038Y65010428D02*
X30808562Y65010428D01*
X30808562Y65010428D02*
X30713324Y64962809D01*
X30713324Y64962809D02*
X30665705Y64915190D01*
X30665705Y64915190D02*
X30618086Y64819952D01*
X19428780Y50150733D02*
X19476400Y50103114D01*
X19476400Y50103114D02*
X19524019Y49960257D01*
X19524019Y49960257D02*
X19524019Y49865019D01*
X19524019Y49865019D02*
X19476400Y49722162D01*
X19476400Y49722162D02*
X19381161Y49626924D01*
X19381161Y49626924D02*
X19285923Y49579305D01*
X19285923Y49579305D02*
X19095447Y49531686D01*
X19095447Y49531686D02*
X18952590Y49531686D01*
X18952590Y49531686D02*
X18762114Y49579305D01*
X18762114Y49579305D02*
X18666876Y49626924D01*
X18666876Y49626924D02*
X18571638Y49722162D01*
X18571638Y49722162D02*
X18524019Y49865019D01*
X18524019Y49865019D02*
X18524019Y49960257D01*
X18524019Y49960257D02*
X18571638Y50103114D01*
X18571638Y50103114D02*
X18619257Y50150733D01*
X18857352Y51007876D02*
X19524019Y51007876D01*
X18476400Y50769781D02*
X19190685Y50531686D01*
X19190685Y50531686D02*
X19190685Y51150733D01*
X35964019Y75855533D02*
X35487828Y75522200D01*
X35964019Y75284105D02*
X34964019Y75284105D01*
X34964019Y75284105D02*
X34964019Y75665057D01*
X34964019Y75665057D02*
X35011638Y75760295D01*
X35011638Y75760295D02*
X35059257Y75807914D01*
X35059257Y75807914D02*
X35154495Y75855533D01*
X35154495Y75855533D02*
X35297352Y75855533D01*
X35297352Y75855533D02*
X35392590Y75807914D01*
X35392590Y75807914D02*
X35440209Y75760295D01*
X35440209Y75760295D02*
X35487828Y75665057D01*
X35487828Y75665057D02*
X35487828Y75284105D01*
X35297352Y76712676D02*
X35964019Y76712676D01*
X34916400Y76474581D02*
X35630685Y76236486D01*
X35630685Y76236486D02*
X35630685Y76855533D01*
X43354666Y117766180D02*
X43354666Y117051895D01*
X43354666Y117051895D02*
X43307047Y116909038D01*
X43307047Y116909038D02*
X43211809Y116813800D01*
X43211809Y116813800D02*
X43068952Y116766180D01*
X43068952Y116766180D02*
X42973714Y116766180D01*
X43735619Y117766180D02*
X44354666Y117766180D01*
X44354666Y117766180D02*
X44021333Y117385228D01*
X44021333Y117385228D02*
X44164190Y117385228D01*
X44164190Y117385228D02*
X44259428Y117337609D01*
X44259428Y117337609D02*
X44307047Y117289990D01*
X44307047Y117289990D02*
X44354666Y117194752D01*
X44354666Y117194752D02*
X44354666Y116956657D01*
X44354666Y116956657D02*
X44307047Y116861419D01*
X44307047Y116861419D02*
X44259428Y116813800D01*
X44259428Y116813800D02*
X44164190Y116766180D01*
X44164190Y116766180D02*
X43878476Y116766180D01*
X43878476Y116766180D02*
X43783238Y116813800D01*
X43783238Y116813800D02*
X43735619Y116861419D01*
X9307742Y52453380D02*
X8974409Y52929571D01*
X8736314Y52453380D02*
X8736314Y53453380D01*
X8736314Y53453380D02*
X9117266Y53453380D01*
X9117266Y53453380D02*
X9212504Y53405761D01*
X9212504Y53405761D02*
X9260123Y53358142D01*
X9260123Y53358142D02*
X9307742Y53262904D01*
X9307742Y53262904D02*
X9307742Y53120047D01*
X9307742Y53120047D02*
X9260123Y53024809D01*
X9260123Y53024809D02*
X9212504Y52977190D01*
X9212504Y52977190D02*
X9117266Y52929571D01*
X9117266Y52929571D02*
X8736314Y52929571D01*
X10260123Y52453380D02*
X9688695Y52453380D01*
X9974409Y52453380D02*
X9974409Y53453380D01*
X9974409Y53453380D02*
X9879171Y53310523D01*
X9879171Y53310523D02*
X9783933Y53215285D01*
X9783933Y53215285D02*
X9688695Y53167666D01*
X10641076Y53358142D02*
X10688695Y53405761D01*
X10688695Y53405761D02*
X10783933Y53453380D01*
X10783933Y53453380D02*
X11022028Y53453380D01*
X11022028Y53453380D02*
X11117266Y53405761D01*
X11117266Y53405761D02*
X11164885Y53358142D01*
X11164885Y53358142D02*
X11212504Y53262904D01*
X11212504Y53262904D02*
X11212504Y53167666D01*
X11212504Y53167666D02*
X11164885Y53024809D01*
X11164885Y53024809D02*
X10593457Y52453380D01*
X10593457Y52453380D02*
X11212504Y52453380D01*
X7312066Y36790980D02*
X7312066Y36076695D01*
X7312066Y36076695D02*
X7264447Y35933838D01*
X7264447Y35933838D02*
X7169209Y35838600D01*
X7169209Y35838600D02*
X7026352Y35790980D01*
X7026352Y35790980D02*
X6931114Y35790980D01*
X8216828Y36457647D02*
X8216828Y35790980D01*
X7978733Y36838600D02*
X7740638Y36124314D01*
X7740638Y36124314D02*
X8359685Y36124314D01*
D12*
%TO.C,D2*%
X29585200Y91374000D02*
X25685200Y91374000D01*
X29585200Y91374000D02*
X29585200Y89474000D01*
X29585200Y89474000D02*
X25685200Y89474000D01*
G36*
X26385200Y91374000D02*
G01*
X25585200Y91374000D01*
X25585200Y89474000D01*
X26385200Y89474000D01*
X26385200Y91374000D01*
G37*
%TO.C,J1*%
X13110000Y39982000D02*
X13110000Y27582000D01*
X13110000Y39982000D02*
X18810000Y39982000D01*
X13110000Y27582000D02*
X18860000Y27582000D01*
X18860000Y39982000D02*
X18860000Y27582000D01*
%TO.C,D6*%
X25685200Y94930000D02*
X29585200Y94930000D01*
X25685200Y93030000D02*
X25685200Y94930000D01*
X25685200Y93030000D02*
X29585200Y93030000D01*
G36*
X28885200Y93030000D02*
G01*
X29685200Y93030000D01*
X29685200Y94930000D01*
X28885200Y94930000D01*
X28885200Y93030000D01*
G37*
%TO.C,C8*%
X50070200Y78567600D02*
X50070200Y76067600D01*
X50070200Y78567600D02*
X57270200Y78567600D01*
X50070200Y76067600D02*
X57270200Y76067600D01*
X57270200Y78567600D02*
X57270200Y76067600D01*
D13*
%TO.C,R18*%
X26695000Y107092600D02*
X32995000Y107092600D01*
X26695000Y104692600D02*
X26695000Y107092600D01*
X26695000Y104692600D02*
X32995000Y104692600D01*
X32995000Y104692600D02*
X32995000Y107092600D01*
%TO.C,R19*%
X27076000Y44913400D02*
X33376000Y44913400D01*
X27076000Y42513400D02*
X27076000Y44913400D01*
X27076000Y42513400D02*
X33376000Y42513400D01*
X33376000Y42513400D02*
X33376000Y44913400D01*
D12*
%TO.C,C1*%
X9749600Y84003200D02*
X9749600Y81503190D01*
X9749600Y84003200D02*
X14369600Y84003200D01*
X9749600Y81503200D02*
X14369600Y81503200D01*
X14369600Y84003200D02*
X14369600Y81503200D01*
D13*
%TO.C,R1*%
X5982000Y69011400D02*
X5982000Y75311400D01*
X8382000Y75311400D02*
X5982000Y75311400D01*
X8382000Y69011400D02*
X5982000Y69011400D01*
X8382000Y69011400D02*
X8382000Y75311400D01*
%TO.C,R2*%
X11449200Y68986000D02*
X11449200Y75286000D01*
X13849200Y75286000D02*
X11449200Y75286000D01*
X13849200Y68986000D02*
X11449200Y68986000D01*
X13849200Y68986000D02*
X13849200Y75286000D01*
D12*
%TO.C,U1*%
X19524200Y81295000D02*
X21539200Y81295000D01*
X19524200Y70995000D02*
X19524200Y81295000D01*
X19524200Y70995000D02*
X24824200Y70995000D01*
X22809200Y81295000D02*
X24824200Y81295000D01*
X24824200Y70995000D02*
X24824200Y81295000D01*
X22809200Y81295000D02*
G75*
G02*
X21539200Y81295000I-635000J0D01*
G01*
D14*
X18489200Y81255000D02*
G75*
G02*
X18239200Y81255000I-125000J0D01*
G01*
X18239200Y81255000D02*
G75*
G02*
X18489200Y81255000I125000J0D01*
G01*
D15*
X20824200Y80295000D02*
G75*
G02*
X20224200Y80295000I-300000J0D01*
G01*
X20224200Y80295000D02*
G75*
G02*
X20824200Y80295000I300000J0D01*
G01*
D13*
%TO.C,R5*%
X30042000Y72872200D02*
X30042000Y79172200D01*
X32442000Y79172200D02*
X30042000Y79172200D01*
X32442000Y72872200D02*
X30042000Y72872200D01*
X32442000Y72872200D02*
X32442000Y79172200D01*
D12*
%TO.C,C5*%
X5671000Y91510800D02*
X5671000Y94010800D01*
X12871000Y94010800D02*
X5671000Y94010800D01*
X12871000Y91510800D02*
X5671000Y91510800D01*
X12871000Y91510800D02*
X12871000Y94010800D01*
%TO.C,D4*%
X42205600Y106429000D02*
X47405600Y106429000D01*
X42205600Y103629000D02*
X42205600Y106429000D01*
X42205600Y103629000D02*
X47405600Y103629000D01*
G36*
X46705600Y103629000D02*
G01*
X47505600Y103629000D01*
X47505600Y106429000D01*
X46705600Y106429000D01*
X46705600Y103629000D01*
G37*
%TO.C,D1*%
X25685200Y87818000D02*
X29585200Y87818000D01*
X25685200Y85918000D02*
X25685200Y87818000D01*
X25685200Y85918000D02*
X29585200Y85918000D01*
G36*
X28885200Y85918000D02*
G01*
X29685200Y85918000D01*
X29685200Y87818000D01*
X28885200Y87818000D01*
X28885200Y85918000D01*
G37*
D13*
%TO.C,R20*%
X26695000Y111105800D02*
X26695000Y108705800D01*
X32995000Y111105800D02*
X26695000Y111105800D01*
X32995000Y111105800D02*
X32995000Y108705800D01*
X32995000Y108705800D02*
X26695000Y108705800D01*
%TO.C,R17*%
X41960400Y111385200D02*
X41960400Y108985200D01*
X48260400Y111385200D02*
X41960400Y111385200D01*
X48260400Y111385200D02*
X48260400Y108985200D01*
X48260400Y108985200D02*
X41960400Y108985200D01*
%TO.C,R9*%
X48335800Y69932400D02*
X48335800Y67532400D01*
X54635800Y69932400D02*
X48335800Y69932400D01*
X54635800Y69932400D02*
X54635800Y67532400D01*
X54635800Y67532400D02*
X48335800Y67532400D01*
D12*
%TO.C,C11*%
X22530200Y102692200D02*
G75*
G02*
X16230200Y102692200I-3150000J0D01*
G01*
X16230200Y102692200D02*
G75*
G02*
X22530200Y102692200I3150000J0D01*
G01*
%TO.C,J2*%
X41592000Y27582000D02*
X41592000Y39982000D01*
X47342000Y39982000D02*
X41592000Y39982000D01*
X47342000Y27582000D02*
X41642000Y27582000D01*
X47342000Y27582000D02*
X47342000Y39982000D01*
%TO.C,C2*%
X6376000Y61691200D02*
X6376000Y64191200D01*
X13576000Y64191200D02*
X6376000Y64191200D01*
X13576000Y61691200D02*
X6376000Y61691200D01*
X13576000Y61691200D02*
X13576000Y64191200D01*
D13*
%TO.C,R8*%
X6800600Y49079000D02*
X6800600Y46679000D01*
X13100600Y49079000D02*
X6800600Y49079000D01*
X13100600Y49079000D02*
X13100600Y46679000D01*
X13100600Y46679000D02*
X6800600Y46679000D01*
D12*
%TO.C,C10*%
X41021400Y97434400D02*
G75*
G02*
X34721400Y97434400I-3150000J0D01*
G01*
X34721400Y97434400D02*
G75*
G02*
X41021400Y97434400I3150000J0D01*
G01*
%TO.C,C6*%
X29293000Y54655400D02*
X29293000Y57155400D01*
X36493000Y57155400D02*
X29293000Y57155400D01*
X36493000Y54655400D02*
X29293000Y54655400D01*
X36493000Y54655400D02*
X36493000Y57155400D01*
%TO.C,J5*%
X49432000Y37482000D02*
X49432000Y30082000D01*
X49432000Y37482000D02*
X55182000Y37482000D01*
X49432000Y30082000D02*
X55182000Y30082000D01*
X55182000Y37482000D02*
X55182000Y30082000D01*
D13*
%TO.C,R3*%
X6121000Y98380400D02*
X12421000Y98380400D01*
X6121000Y95980400D02*
X6121000Y98380400D01*
X6121000Y95980400D02*
X12421000Y95980400D01*
X12421000Y95980400D02*
X12421000Y98380400D01*
%TO.C,R7*%
X45002600Y74624800D02*
X45002600Y80924800D01*
X47402600Y80924800D02*
X45002600Y80924800D01*
X47402600Y74624800D02*
X45002600Y74624800D01*
X47402600Y74624800D02*
X47402600Y80924800D01*
D12*
%TO.C,C3*%
X6319474Y59390600D02*
X6319474Y56890600D01*
X6319474Y59390600D02*
X13519474Y59390600D01*
X6319474Y56890600D02*
X13519474Y56890600D01*
X13519474Y59390600D02*
X13519474Y56890600D01*
%TO.C,C7*%
X50121000Y84384200D02*
X50121000Y81884200D01*
X50121000Y84384200D02*
X57321000Y84384200D01*
X50121000Y81884200D02*
X57321000Y81884200D01*
X57321000Y84384200D02*
X57321000Y81884200D01*
%TO.C,D5*%
X29585200Y98486000D02*
X25685200Y98486000D01*
X29585200Y98486000D02*
X29585200Y96586000D01*
X29585200Y96586000D02*
X25685200Y96586000D01*
G36*
X26385200Y98486000D02*
G01*
X25585200Y98486000D01*
X25585200Y96586000D01*
X26385200Y96586000D01*
X26385200Y98486000D01*
G37*
D13*
%TO.C,R6*%
X27253800Y66046200D02*
X27253800Y63646200D01*
X33553800Y66046200D02*
X27253800Y66046200D01*
X33553800Y66046200D02*
X33553800Y63646200D01*
X33553800Y63646200D02*
X27253800Y63646200D01*
D12*
%TO.C,C4*%
X17819200Y53917400D02*
X17819200Y46717400D01*
X20319200Y53917400D02*
X17819200Y53917400D01*
X20319200Y53917400D02*
X20319200Y46717400D01*
X20319200Y46717400D02*
X17819200Y46717400D01*
D13*
%TO.C,R4*%
X34309200Y72872200D02*
X34309200Y79172200D01*
X36709200Y79172200D02*
X34309200Y79172200D01*
X36709200Y72872200D02*
X34309200Y72872200D01*
X36709200Y72872200D02*
X36709200Y79172200D01*
D12*
%TO.C,J3*%
X45576000Y117937000D02*
X45576000Y112187000D01*
X52976000Y117937000D02*
X45576000Y117937000D01*
X52976000Y117937000D02*
X52976000Y112187000D01*
X52976000Y112187000D02*
X45576000Y112187000D01*
D13*
%TO.C,R12*%
X6800600Y54108200D02*
X6800600Y51708200D01*
X13100600Y54108200D02*
X6800600Y54108200D01*
X13100600Y54108200D02*
X13100600Y51708200D01*
X13100600Y51708200D02*
X6800600Y51708200D01*
D12*
%TO.C,J4*%
X5270000Y27542000D02*
X5270000Y34942000D01*
X11020000Y34942000D02*
X5270000Y34942000D01*
X11020000Y27542000D02*
X5270000Y27542000D01*
X11020000Y27542000D02*
X11020000Y34942000D01*
%TD*%
M02*
